<svg width="661" height="601" viewBox="0 0 661 601" fill="none" xmlns="http://www.w3.org/2000/svg">
<g opacity="0.1">
<path d="M686.42 409.861C681.27 409.681 676.07 410.071 670.93 410.541C666.68 410.931 662.47 411.821 658.25 412.491C658.05 412.091 657.85 411.691 657.64 411.291C659.11 409.471 660.54 407.621 662.04 405.831C670.8 395.361 678.68 384.271 685.19 372.281C699.05 346.751 707.29 319.801 705.25 290.371C704.57 280.611 702.94 270.991 698.57 262.181C696.4 257.801 693.56 253.511 690.14 250.061C684.6 244.461 676.59 245.541 672.4 252.211C670.38 255.441 668.89 259.191 668.01 262.911C665.97 271.561 664.87 280.421 666.18 289.271C667.51 298.211 669.3 307.101 671.21 315.941C672.71 322.891 674.32 329.861 676.54 336.601C682.7 355.331 681.01 372.691 668.62 388.551C658.16 401.941 645.64 413.161 632.26 423.501C631.17 424.341 629.87 424.931 627.85 426.111C628.43 423.101 629 421.041 629.19 418.951C629.56 414.661 630.28 410.301 629.84 406.071C629.05 398.451 625.85 392.131 618.27 389.201C612.11 392.091 611.45 397.621 611.05 402.591C610.23 412.691 609.52 422.901 610.16 432.971C610.61 439.931 608.28 444.501 603.31 448.631C598 453.041 592.6 457.421 587.76 462.321C581.24 468.931 575.27 476.071 568.97 482.891C567.01 485.011 564.73 486.841 561.44 489.861C561.44 486.081 561.46 484.001 561.44 481.921C561.4 478.461 561.61 474.971 561.2 471.561C560.29 464.021 556.79 458.051 549.61 454.801C545.65 453.011 543.26 453.661 540.4 456.901C534.11 464.031 534.33 473.481 540.9 480.271C543.15 482.601 545.51 484.861 547.43 487.451C552.61 494.441 554 501.881 549.37 509.811C548.39 511.481 547.58 513.261 546.73 515.011C541.95 524.761 537.76 534.671 537.82 545.841C537.82 546.771 537.07 547.701 536.46 549.111C533.36 547.951 530.59 546.901 527.81 545.891C522.24 543.851 516.8 544.001 511.56 546.951C507.63 549.171 505.73 552.581 505.81 557.091C506.01 567.371 515.31 574.801 525.25 572.431C528.17 571.731 530.94 570.401 533.8 569.451C538.94 567.731 540.42 568.191 543.83 572.401C545.19 574.081 546.68 575.671 547.88 577.461C557.49 591.781 572.89 595.351 589.41 600.021C585.03 595.151 580.47 593.311 575.97 591.431C570.18 589.011 564.85 586.181 560.08 581.761C553.38 575.551 548.92 568.371 545.71 559.911C543.24 553.401 542.28 547.891 548.67 543.261C549.35 542.771 549.88 542.001 550.3 541.261C552.72 537.011 556.68 535.691 561.2 535.411C563.14 535.291 565.1 535.431 567.03 535.221C574.6 534.391 582.05 532.961 588.32 528.271C594.98 523.281 595.13 515.791 588.45 510.911C585.78 508.961 582.32 507.621 579.04 507.071C570.55 505.651 563.39 508.971 557.12 514.531C555.84 515.661 554.51 516.731 553.2 517.831C553.28 515.281 553.77 513.321 554.86 511.791C559.88 504.771 565.04 497.851 570.21 490.941C572.58 487.781 575.93 487.581 579.56 487.881C592.04 488.941 604.52 490.151 617.03 490.691C622.33 490.921 627.87 490.281 632.98 488.871C639.88 486.971 641.37 480.451 636.35 475.331C634.3 473.241 631.49 471.731 628.78 470.501C622.47 467.651 615.69 467.301 609.07 468.721C602.35 470.161 595.83 472.521 589.21 474.451C587.99 474.811 586.74 475.061 584.4 475.621C586.21 473.481 587.05 472.201 588.15 471.221C602.32 458.561 616.42 445.821 630.8 433.391C636.25 428.671 643.09 427.271 650.26 427.841C657.58 428.411 664.89 429.361 672.21 429.571C678.87 429.761 685.57 429.361 692.23 428.861C694.51 428.691 696.89 427.751 698.89 426.591C703.05 424.191 703.55 420.591 700.5 416.871C696.87 412.441 692.02 410.071 686.42 409.871V409.861ZM673.1 298.891C669.96 286.151 670.19 273.161 673.16 260.351C674.02 256.631 675.27 252.441 679.68 251.401C684.16 250.351 686.86 253.801 689.33 256.741C691.09 258.851 692.66 261.331 693.59 263.901C704.41 293.931 702.09 323.261 688.5 351.901C688.34 352.241 687.89 352.441 687.5 352.781C682.6 334.571 677.52 316.811 673.1 298.881V298.891ZM521.08 570.001C515.72 570.701 510.73 564.641 510.8 558.871C510.87 553.351 515.02 549.951 521.38 550.211C530.02 550.571 536.47 555.181 539.18 563.611C533.74 567.891 527.33 569.191 521.07 570.001H521.08ZM579.96 512.831C583.86 513.341 586.7 515.451 587.05 518.391C587.48 522.051 584.99 523.841 582.13 525.171C573.66 529.101 564.65 529.111 554.88 529.151C559.18 519.321 571.39 511.711 579.96 512.841V512.831ZM556.17 484.481C555.55 484.771 554.93 485.071 554.31 485.361C550.4 481.211 546.36 477.181 542.65 472.861C540.96 470.901 539.91 468.171 541.48 465.701C542.78 463.651 544.49 461.221 546.57 460.461C549.37 459.431 551.13 462.201 552.4 464.451C555.95 470.741 557.26 477.441 556.18 484.481H556.17ZM601.77 475.761C608.09 474.721 614.56 474.131 620.96 474.131C625.67 474.131 630.25 475.641 632.97 480.071C632.16 483.821 629.03 484.671 626.49 484.601C614.27 484.301 602.06 483.551 589.85 482.911C589.55 482.891 589.28 482.351 588.73 481.751C592.4 478.201 597.06 476.531 601.78 475.751L601.77 475.761ZM617.21 434.591C615.09 421.921 614.76 409.901 619.22 396.881C627.86 405.541 626.37 427.831 617.21 434.591ZM690.63 423.831C676.87 426.011 663.07 424.931 649.3 423.761C648.56 423.701 647.86 423.111 646.16 422.301C648.6 420.731 650.19 419.291 652.05 418.591C663.96 414.101 676.23 412.371 688.86 414.641C692.2 415.241 695.65 416.141 697.92 421.141C695.21 422.171 692.99 423.451 690.63 423.831Z" fill="#8ECCDC"/>
<path d="M52.8095 453.74C56.6095 453.1 60.9995 452.37 65.3895 451.6C69.7795 450.84 74.1795 449.36 78.5895 451.88C79.8895 456.78 78.0195 462.47 82.3795 466.47C86.0695 466.81 87.6095 464.9 87.8895 461.62C88.1595 458.4 88.4695 455.19 88.5895 451.96C88.7595 447.13 86.6695 444.13 81.7795 443.26C78.0195 442.6 74.0995 442.74 70.2495 442.76C66.7095 442.78 63.1795 443.1 58.2295 443.37C59.9495 440.08 60.8595 438 62.0795 436.11C63.5695 433.82 64.7395 431.55 63.1295 428.94C61.3295 426.02 58.3895 426.17 55.6195 426.8C48.7995 428.34 42.6495 431.42 37.1595 435.73C36.1495 436.53 35.6795 438.02 34.7295 439.55C41.2495 441.69 45.0995 435.92 50.5095 435.79C51.6695 441.5 46.5195 447.77 52.8095 453.73V453.74Z" fill="#8ECCDC"/>
<path d="M96.3993 485.611C94.0893 486.001 91.7793 486.721 89.6493 487.691C86.3193 489.201 83.1793 491.121 79.8893 492.741C77.6193 493.861 75.2993 495.391 72.6393 493.311C72.1593 490.151 71.8693 486.931 71.1693 483.791C69.4692 476.151 65.0893 473.751 57.8393 476.921C53.7393 478.721 49.9292 481.281 46.2192 483.821C43.6992 485.551 41.5793 487.851 39.2793 489.901C39.5893 490.391 39.8993 490.871 40.2093 491.361C42.0893 490.581 44.0293 489.941 45.8193 489.001C49.4393 487.101 52.9093 484.891 56.5693 483.071C62.6593 480.051 64.5393 481.111 65.4993 487.981C65.9193 490.961 65.7792 494.031 66.2892 496.991C67.4492 503.691 71.3492 505.761 77.4792 502.871C80.7792 501.321 83.8193 499.211 87.0093 497.421C89.5993 495.971 92.1293 494.211 96.2993 495.041C96.2993 497.311 96.2993 499.571 96.2993 501.831C96.3093 504.191 95.9593 506.631 96.4493 508.891C97.0993 511.891 98.8093 514.061 103.149 512.301C104.109 504.941 103.989 497.291 102.729 489.711C102.199 486.521 99.5993 485.061 96.3993 485.601V485.611Z" fill="#8ECCDC"/>
<path d="M262.579 536.8C258.919 534.46 255.619 536.87 252.359 538.55C249.979 539.78 247.509 540.84 245.319 541.86C244.189 540.84 243.599 540.49 243.259 539.97C238.179 532.35 233.669 531.5 226.279 537.01C223.519 539.07 221.109 541.59 218.369 543.68C214.289 546.79 212.819 550.61 214.679 556.27C222.789 554.91 226.619 547.57 232.999 544.39C238.159 546.86 235.639 553.07 239.529 556.43C247.019 556.82 250.559 549.18 257.179 546.74C257.929 548.24 258.459 549.6 259.249 550.79C259.989 551.91 260.999 552.86 262.859 554.99C264.009 551.46 265.159 549.19 265.419 546.83C265.819 543.21 266.179 539.12 262.569 536.81L262.579 536.8Z" fill="#8ECCDC"/>
<path d="M175.49 464.761C172.91 466.091 170.3 467.971 166.7 466.551C166.22 464.371 165.77 462.101 165.2 459.851C163.71 453.981 161.15 452.231 155.39 453.621C149.6 455.021 144.78 458.241 140.76 462.611C139 464.521 138.24 466.581 141.01 469.121C145.91 466.381 150.84 463.611 156.63 460.371C157.57 462.931 158.29 464.551 158.76 466.251C159.57 469.141 159.91 472.181 161 474.951C162.88 479.731 165.17 480.371 169.43 477.611C171.77 476.091 173.85 474.151 176.23 472.721C179.7 470.631 181.5 471.131 183.87 474.391C184.93 475.851 185.95 477.351 187.69 479.851C188.69 477.501 189.61 476.301 189.66 475.061C190.08 464.141 187.21 458.741 175.49 464.771V464.761Z" fill="#8ECCDC"/>
<path d="M460.21 389.121C496.79 382.641 533.36 376.161 569.97 369.851C585.87 367.111 589.8 357.381 579.95 344.461C579.63 344.041 579.91 343.081 580.04 342.401C581.13 336.691 584.4 330.311 582.87 325.431C580.45 317.731 577.64 310.521 577.61 302.191C577.6 298.681 574.33 295.231 580.49 294.221C581.23 294.101 581.89 293.021 582.43 292.271C587.97 284.551 586.94 275.131 579.96 268.701C579.25 268.041 578.28 266.711 578.52 266.131C582.77 255.581 581.43 250.151 572.56 242.761C572.23 242.481 572.01 242.071 571.74 241.721C572.17 241.601 572.6 241.371 573.02 241.391C588.3 242.051 602.47 240.851 608.34 223.071C609.43 219.781 612.45 217.171 613.99 213.971C614.63 212.641 614.41 209.871 613.44 208.931C570.74 167.581 527.94 126.341 485.07 85.171C481.87 82.101 478.08 79.641 474.62 76.831C473.76 76.131 472.51 75.151 472.5 74.291C472.37 60.301 472.62 46.301 472.28 32.321C472.17 27.821 473.34 26.391 477.79 26.921C481.41 27.351 485.41 27.711 485.18 21.861C484.97 16.251 485.53 10.581 484.91 5.04096C484.71 3.23096 481.89 0.310957 480.22 0.270957C462.86 -0.0790429 445.48 0.0509636 428.11 0.0509636C410.63 0.0509636 393.16 -0.0690395 375.69 0.25096C374.11 0.280961 371.38 3.01096 371.24 4.66096C370.71 11.011 370.73 17.461 371.22 23.821C371.36 25.611 373.8 27.231 375.21 28.901C376.32 30.211 378.42 31.461 378.45 32.771C378.71 43.741 378.41 54.721 378.71 65.691C378.81 69.491 377.54 69.881 374.25 69.621C341.93 67.161 309.6 64.841 277.28 62.491C246.04 60.221 214.81 57.851 183.56 55.781C178.71 55.461 171.01 54.631 169.27 57.191C128.22 117.691 87.7797 178.621 47.4697 239.621C46.8097 240.621 48.7298 245.071 49.9998 245.341C59.2898 247.321 68.7198 248.611 78.0798 250.241C78.7598 250.361 79.9098 251.661 79.7798 251.981C77.1998 258.331 78.2597 263.971 82.6597 269.141C82.9897 269.531 82.9597 270.721 82.6097 271.121C76.9797 277.631 76.9698 285.561 82.5698 292.081C82.9298 292.501 82.9398 293.761 82.5898 294.171C76.9698 300.671 76.9798 308.631 82.5898 315.131C82.9498 315.541 82.8797 316.851 82.4897 317.291C77.0597 323.501 77.0197 331.781 82.3597 337.901C82.7897 338.391 82.7998 339.911 82.3798 340.401C75.2698 348.661 78.1698 360.891 88.2698 364.921C88.7798 365.121 89.2497 365.421 89.7397 365.671C89.1697 365.801 88.6097 366.001 88.0397 366.051C60.1997 368.241 32.3498 370.361 4.51978 372.731C3.17978 372.841 2.00977 375.071 0.759766 376.311C2.52977 377.501 4.46979 379.931 6.02979 379.701C58.5298 372.211 111.11 371.241 163.78 377.561C247.51 387.601 324.91 415.181 395.63 461.311C397.05 462.241 399.67 461.311 401.74 461.241C401.02 459.191 400.91 456.041 399.48 455.251C374.93 441.571 350.23 428.181 325.56 414.721C325.03 414.431 324.54 414.071 324.03 413.741C324.61 413.511 325.18 413.161 325.78 413.061C370.58 405.071 415.39 397.081 460.2 389.141L460.21 389.121ZM401.67 392.241C377.05 395.781 352.63 400.671 328.12 405.011C327.58 405.111 327.01 405.011 326.45 405.011C326.59 404.491 326.65 403.931 326.89 403.461C330.39 396.651 329.87 390.061 325.98 383.571C325.75 383.191 326.46 381.641 326.86 381.591C354.6 377.791 382.35 374.091 410.1 370.421C411.11 370.291 412.17 370.611 412.92 370.681C412.92 374.011 412.62 376.451 412.97 378.781C414.34 387.711 410.79 390.931 401.67 392.251V392.241ZM414.66 319.871C413.94 327.238 408.713 331.508 398.98 332.681C375.16 335.541 351.35 338.391 327.53 341.231C327.06 341.291 326.57 341.131 326.09 341.071C326.25 340.591 326.34 340.081 326.58 339.651C329.99 333.441 330.14 327.211 326.95 320.851C326.76 320.461 327.54 319.011 327.96 318.971C351.84 316.661 375.72 314.451 399.61 312.241C403.07 311.921 406.61 311.931 409.99 311.211C414.42 310.271 415.82 311.741 414.69 315.821C414.69 317.281 414.8 318.591 414.67 319.881L414.66 319.871ZM499.65 372.561C499.65 373.321 498.74 374.621 498.08 374.741C472.68 379.341 447.26 383.841 421.83 388.271C421.37 388.351 420.24 387.381 420.25 386.931C420.91 361.481 421.65 336.041 422.4 310.591C422.69 300.901 422.97 291.211 423.4 281.531C423.43 280.811 424.64 279.581 425.35 279.541C449.53 278.341 473.71 277.251 497.89 276.261C498.47 276.241 499.62 277.521 499.63 278.201C499.73 293.951 499.71 309.711 499.71 325.461C499.71 341.211 499.73 356.861 499.64 372.561H499.65ZM577.34 354.771C577.75 356.591 575.72 360.681 574.22 360.971C552.61 365.201 530.92 368.971 509.22 372.751C508.68 372.841 507.45 371.831 507.38 371.231C507.14 369.231 507.29 367.191 507.29 364.351C504.76 352.421 515.34 356.801 520.47 355.931C537.61 353.031 554.91 351.021 572.2 349.231C573.81 349.061 576.83 352.561 577.33 354.781L577.34 354.771ZM512.69 326.271C531.79 324.181 550.83 321.491 569.97 320.021C571.7 319.891 575.69 327.111 575.73 330.951C575.85 343.201 565.72 342.181 557.57 343.271C541.46 345.431 525.35 347.561 509.22 349.581C508.66 349.651 507.38 348.501 507.37 347.901C507.24 340.521 507.29 333.131 507.29 325.751C507.29 318.891 507.15 312.021 507.42 305.171C507.46 304.051 509.2 302.161 510.3 302.051C527.76 300.271 545.22 298.341 562.73 297.531C565.31 297.411 569.05 302.431 570.62 305.831C572.22 309.301 570.67 312.141 565.62 312.661C547.7 314.491 529.82 316.761 511.97 319.211C510.42 319.421 509.22 322.181 507.85 323.761C509.47 324.651 511.19 326.441 512.69 326.281V326.271ZM576.5 286.681C575.37 287.991 572.87 288.481 570.93 288.681C550.07 290.791 529.2 292.781 508.33 294.731C508.03 294.761 507.34 293.911 507.34 293.461C507.27 288.061 507.2 282.651 507.4 277.251C507.43 276.431 508.79 275.011 509.6 274.961C528.67 273.861 547.76 272.911 567.63 271.891C576.03 270.161 581.74 280.641 576.51 286.681H576.5ZM571.69 261.991C570.92 263.141 569.61 263.931 569.29 264.221C530.94 266.271 494.07 268.251 457.19 270.201C428.5 271.721 399.82 273.201 371.13 274.701C356.66 275.451 342.18 276.191 327.71 276.921C327.18 276.951 326.63 276.791 326.09 276.711C326.24 276.241 326.51 275.771 326.53 275.291C326.74 269.171 326.91 263.061 327.14 256.941C327.16 256.431 327.54 255.511 327.79 255.501C350.42 254.271 373.06 253.211 395.69 251.921C422.97 250.381 450.23 248.651 477.5 247.011C504.67 245.381 531.83 243.741 559 242.151C560.44 242.061 563.16 242.201 563.18 242.441C563.93 249.921 578.9 251.261 571.69 261.991ZM435.79 7.21096C448.07 7.98096 460.43 7.60096 472.75 7.31096C476.8 7.22096 477.72 8.23096 477.98 12.351C478.35 18.281 476.74 20.171 470.72 19.561C464.59 18.941 458.36 19.421 452.17 19.421C444.68 19.421 437.19 19.531 429.71 19.291C428.7 19.261 427.14 17.571 426.86 16.411C425.08 8.86096 428.11 6.73096 435.78 7.21096H435.79ZM464.93 129.601C464.93 130.511 463.33 132.171 462.46 132.181C451.23 132.281 440.01 132.181 428.78 132.001C428.1 131.991 426.85 130.801 426.85 130.161C426.76 96.421 426.75 62.671 426.85 28.931C426.85 28.281 428.19 27.091 428.91 27.081C440.19 26.961 451.47 26.951 462.76 27.101C463.53 27.101 464.93 28.541 464.93 29.321C465.06 46.111 465.03 62.911 465.03 79.701C465.03 96.341 465.07 112.981 464.92 129.611L464.93 129.601ZM181.66 92.461C185.61 85.991 189.57 79.531 193.62 73.121C193.83 72.791 195.31 72.731 195.53 73.031C200.41 79.561 205.2 86.161 209.98 92.761C210.29 93.181 210.38 93.761 210.57 94.261C210.08 94.371 209.59 94.591 209.1 94.591C200.43 94.611 191.77 94.601 183.1 94.601C183.1 94.841 183.08 95.071 183.07 95.311L180.57 94.801C180.92 94.021 181.19 93.191 181.63 92.461H181.66ZM165.02 119.521C167.2 115.921 169.82 112.511 171.53 108.701C173.81 103.621 177.33 102.221 182.66 102.421C192.62 102.801 202.61 102.531 212.59 102.531L213.38 100.931C215.24 102.301 217.45 103.381 218.89 105.101C221.85 108.641 224.42 112.511 227.12 116.271C227.81 117.221 228.38 118.261 229 119.261C227.8 119.461 226.61 119.791 225.41 119.831C205.72 120.481 186.04 121.091 166.35 121.691C165.67 121.711 164.98 121.451 164.29 121.331C164.53 120.721 164.7 120.071 165.03 119.521H165.02ZM153.15 138.721C156.77 126.831 166.68 129.131 175.38 128.831C194.8 128.171 214.22 127.391 233.64 127.321C235.74 127.321 237.96 131.511 239.92 133.911C241.38 135.701 242.51 137.751 243.79 139.681C241.55 139.861 239.32 140.121 237.07 140.201C209.92 141.151 182.76 142.071 154.53 143.031C154.08 142.981 152.57 142.821 151.06 142.671C151.77 141.361 152.72 140.121 153.14 138.731L153.15 138.721ZM139.86 160.341C144.38 146.361 156.34 150.651 165.86 150.201C192.79 148.921 219.75 148.081 246.7 147.811C249.61 147.781 252.72 152.491 255.45 155.281C257.11 156.991 258.21 159.251 259.57 161.261C257.23 161.421 254.89 161.671 252.55 161.741C229.7 162.381 206.85 163.121 183.99 163.561C170.13 163.831 156.26 163.611 142.39 163.611C142.39 164.061 142.39 164.511 142.38 164.961C140.8 164.821 139.23 164.691 137.65 164.551C138.4 163.151 139.37 161.821 139.85 160.341H139.86ZM127.93 179.661C130.31 172.221 136.03 172.241 142.39 172.111C180.41 171.331 218.43 170.241 256.45 169.301C264.52 169.101 273.23 175.431 275.76 183.231C275.81 183.401 274.94 184.141 274.49 184.151C244.82 184.621 215.15 185.121 185.48 185.421C167.56 185.601 149.63 185.451 131.71 185.451C131.71 185.801 131.71 186.161 131.71 186.511C129.31 186.351 126.91 186.181 124.51 186.021C125.68 183.911 127.22 181.911 127.94 179.661H127.93ZM121.83 194.301C174.47 193.041 227.12 192.231 279.77 191.971C282.62 191.961 285.5 197.571 288.37 200.571C287.77 200.801 287.17 201.241 286.56 201.241C262.08 201.521 237.59 201.871 213.1 201.971C182.17 202.091 151.25 202.001 120.32 202.001C120.29 202.531 120.27 203.061 120.24 203.591C118.21 203.181 116.19 202.781 114.16 202.371C116.71 199.561 119.21 194.371 121.83 194.301ZM102.07 221.851C105.54 212.271 112.38 210.211 122.25 210.261C163.88 210.451 205.51 209.681 247.15 209.231C260.45 209.091 273.77 209.151 287.05 208.511C292.59 208.251 296.25 209.691 298.86 214.611C300.59 217.871 302.97 220.781 305.06 223.841C301.35 223.941 297.64 224.131 293.93 224.141C266.68 224.171 239.44 224.151 212.19 224.151V224.371C175.95 224.371 139.71 224.371 103.48 224.351C102.69 224.351 101.9 224.081 101.11 223.931C101.43 223.241 101.81 222.561 102.07 221.841V221.851ZM89.4897 252.121C89.5397 251.821 90.6398 251.671 91.2498 251.451C91.3698 252.031 91.4898 252.611 91.5098 252.731C91.2798 256.421 91.0997 259.631 90.8497 262.831C90.7797 263.661 90.4598 264.471 90.2598 265.291C89.5098 264.791 88.0898 264.231 88.1198 263.791C88.3997 259.891 88.9097 256.001 89.4797 252.121H89.4897ZM89.9498 274.951C90.2498 277.111 90.5398 279.271 90.8798 281.721C90.5398 283.731 90.1598 285.941 89.7798 288.151C88.6198 285.991 86.4897 283.801 86.5497 281.661C86.6097 279.391 88.7298 277.181 89.9598 274.951H89.9498ZM90.5098 357.651C89.0998 355.441 86.5297 353.191 86.5997 351.041C86.6897 348.621 89.1697 346.291 90.6097 343.911C91.0097 346.071 91.4098 348.231 91.8398 350.561C91.3998 352.901 90.9498 355.281 90.5098 357.651ZM86.6198 327.621C86.6198 325.361 89.1898 323.101 90.6398 320.841C91.0298 323.121 91.4198 325.401 91.8198 327.771C91.4098 330.001 91.0097 332.221 90.6097 334.431C89.1797 332.161 86.6198 329.891 86.6198 327.621ZM90.6597 311.421C89.1997 309.051 86.9198 306.791 86.5698 304.261C86.3098 302.371 88.5397 300.131 89.6597 298.051C90.3997 301.421 91.1397 304.801 91.8698 308.091C91.3997 309.391 91.0397 310.411 90.6697 311.421H90.6597ZM91.3098 243.321C90.8898 243.321 89.9897 241.861 90.1597 241.381C93.0097 233.361 98.5498 231.341 107.06 231.501C139.29 232.111 171.55 231.741 203.79 231.741V231.701C236.82 231.701 269.84 231.901 302.86 231.521C309.16 231.451 313.38 232.931 316.27 238.521C317.77 241.441 319.81 244.081 321.61 246.841C318.45 246.541 315.29 246.031 312.13 245.991C286.4 245.601 260.67 245.261 234.94 244.971C187.06 244.421 139.18 243.931 91.2997 243.311L91.3098 243.321ZM308.53 277.501C301.79 277.301 296.96 272.161 297.17 265.391C297.39 258.331 302.54 253.371 309.4 253.621C316.48 253.881 322 259.331 321.81 265.871C321.61 272.631 315.81 277.711 308.53 277.501ZM321.82 297.761C321.85 304.401 316.26 309.661 309.16 309.671C302.06 309.671 297.13 304.781 297.18 297.751C297.23 290.781 302.13 285.871 309.1 285.851C316.05 285.821 321.8 291.211 321.83 297.771L321.82 297.761ZM291.36 338.101C291.49 338.411 290.59 339.601 290.27 339.561C276.74 337.771 263.21 335.971 249.73 333.821C248.69 333.651 248.06 330.911 247.94 330.671C248.37 323.741 248.65 318.451 249.13 313.191C249.17 312.731 250.62 312.011 251.36 312.071C265.21 313.321 279.05 314.681 292.89 316.031C293.44 316.081 293.97 316.321 294.51 316.471C294.29 316.961 294.14 317.501 293.83 317.921C289.26 324.201 288.4 330.891 291.36 338.111V338.101ZM292.2 275.351C292.35 275.641 291.63 276.851 291.35 276.841C278.64 276.271 265.93 275.641 253.23 274.911C252.59 274.871 251.53 273.981 251.48 273.411C250.94 267.731 250.34 262.031 250.32 256.331C250.32 255.101 252.35 253.151 253.76 252.791C256.11 252.201 258.71 252.631 261.21 252.631C261.21 252.741 261.21 252.861 261.21 252.971C271.29 252.971 281.37 252.971 291.46 252.991C292.11 252.991 292.76 253.241 293.4 253.381C293.17 253.971 293.01 254.611 292.69 255.151C288.77 261.801 288.62 268.511 292.2 275.351ZM250.95 284.241C251.03 283.541 252.51 282.431 253.3 282.471C266.17 283.051 279.03 283.771 291.9 284.491C292.6 284.531 293.29 284.771 293.98 284.921C293.7 285.501 293.49 286.131 293.14 286.671C288.98 293.091 288.53 299.741 291.74 306.701C291.89 307.031 291.04 308.321 290.73 308.291C277.59 307.111 264.46 305.871 251.34 304.491C250.49 304.401 249.77 303.131 249.42 302.811C249.95 295.931 250.33 290.071 250.96 284.241H250.95ZM240.33 287.981C231.88 287.731 223.44 287.181 215.01 286.571C214.4 286.531 213.36 285.291 213.39 284.651C213.92 274.181 214.58 263.721 215.29 253.271C215.31 252.921 216.16 252.351 216.63 252.341C220.58 252.261 224.53 252.301 228.48 252.301C243.06 252.341 243.13 252.331 243.73 269.291C243.92 274.571 243.73 279.891 243.31 285.161C243.23 286.221 241.34 288.011 240.33 287.981ZM242.07 297.411C241.5 310.221 241.06 320.741 240.51 331.261C240.49 331.701 239.48 332.511 239.01 332.451C230.21 331.331 221.41 330.131 212.64 328.831C212.05 328.741 211.13 327.651 211.16 327.081C211.8 316.991 212.51 306.911 213.39 296.841C213.46 296.071 214.9 294.801 215.69 294.811C223.21 294.971 230.73 295.241 238.24 295.761C239.85 295.871 241.39 297.091 242.07 297.401V297.411ZM205.84 283.661C205.82 283.961 204.98 284.491 204.57 284.441C195.15 283.421 185.73 282.341 176.32 281.201C175.83 281.141 175.06 280.431 175.03 279.981C174.52 271.361 173.81 262.721 174.01 254.111C174.04 252.861 178.54 251.721 180.97 250.531C181.14 251.031 181.3 251.521 181.47 252.021C189.47 252.021 197.47 251.961 205.46 252.121C206.3 252.141 207.85 253.511 207.82 254.191C207.31 264.021 206.59 273.841 205.85 283.661H205.84ZM206.44 300.391C205.46 309.601 204.72 317.391 203.69 325.141C203.58 325.951 201.74 327.221 200.84 327.121C193.05 326.231 185.21 325.471 177.59 323.751C175.45 323.271 172.5 319.741 172.5 317.611C172.48 308.641 173.4 299.671 174.13 290.711C174.18 290.031 175.54 288.861 176.19 288.931C185.31 289.881 194.51 290.561 203.44 292.491C205.13 292.851 205.71 298.321 206.44 300.391ZM161.52 270.171C140.96 268.591 120.35 267.731 99.7598 266.581C99.3198 266.561 98.4898 266.341 98.4998 266.251C98.7198 261.401 98.8398 256.531 99.4998 251.741C99.5898 251.111 102.52 250.861 104.13 250.441C104.16 250.851 104.19 251.261 104.22 251.671C124.28 251.671 144.34 251.661 164.4 251.741C164.97 251.741 165.95 252.651 166.04 253.251C166.57 256.691 166.67 260.201 167.33 263.601C168.29 268.541 167.61 270.641 161.51 270.171H161.52ZM105.61 274.291C125.54 275.861 145.54 276.571 165.51 277.731C166.16 277.771 167.27 278.981 167.26 279.641C167.18 284.621 166.96 289.611 166.56 294.581C166.51 295.181 165.07 296.191 164.36 296.121C142.74 294.131 121.13 292.131 99.5698 289.641C98.4998 289.521 97.9597 284.911 97.1697 282.401C96.2797 275.431 98.7197 273.761 105.62 274.301L105.61 274.291ZM165 321.291C165 321.561 163.94 322.101 163.44 322.031C142.46 319.171 121.48 316.261 100.52 313.261C99.8598 313.171 98.9498 312.011 98.8698 311.281C98.6298 309.021 99.2798 306.551 98.6198 304.461C96.5697 297.971 98.8697 297.061 104.99 297.771C124.53 300.031 144.13 301.661 163.71 303.611C164.57 303.701 165.36 304.551 165.06 304.381C165.06 310.951 165.08 316.121 164.99 321.291H165ZM294.67 381.201C293.21 387.021 291.67 392.831 290.08 398.621C289.95 399.101 289.08 399.861 288.82 399.771C244.1 383.631 198.07 373.211 150.76 368.811C133.81 367.231 116.74 366.971 99.7297 365.951C99.0097 365.911 97.7798 364.321 97.8098 363.481C97.9898 357.681 98.4198 351.891 98.8398 346.111C98.8898 345.381 99.2898 344.671 99.5098 344.021C118.94 347.541 137.81 350.971 156.67 354.391C202.48 362.701 248.28 371.001 294.07 379.391C294.39 379.451 294.82 380.671 294.68 381.231L294.67 381.201ZM293.9 349.991C289.44 355.961 288.45 362.421 291.04 369.431C291.21 369.891 291.22 370.401 291.31 370.891C290.81 370.891 290.3 370.961 289.81 370.881C226.93 359.501 164.05 348.131 101.19 336.631C100.26 336.461 98.9698 334.921 98.8998 333.941C98.6398 330.111 98.7598 326.251 98.8398 322.401C98.8498 321.771 99.4198 321.161 99.6498 320.701C135.54 325.681 170.83 330.571 206.12 335.471C235.03 339.481 263.95 343.491 292.86 347.511C293.61 347.611 294.35 347.881 295.09 348.071C294.7 348.711 294.35 349.381 293.9 349.981V349.991ZM309.19 318.141C316.21 318.141 321.75 323.301 321.81 329.891C321.87 336.521 316.28 341.791 309.19 341.791C301.99 341.791 297.15 337.041 297.15 329.961C297.15 322.891 302 318.131 309.19 318.131V318.141ZM321.8 362.381C321.63 368.911 315.87 374.201 309.04 374.111C301.96 374.011 297 368.971 297.15 362.021C297.31 354.721 302.26 350.121 309.79 350.291C316.44 350.441 321.97 356.001 321.8 362.381ZM309.11 406.331C302.12 406.301 297.1 401.251 297.14 394.281C297.18 387.251 302.15 382.391 309.25 382.441C316.18 382.481 321.8 387.821 321.8 394.351C321.8 400.891 316.01 406.361 309.11 406.331ZM316.13 223.951C315.41 223.991 314.4 223.281 313.93 222.631C300.17 203.831 286.46 184.991 272.76 166.151C272.44 165.711 272.29 165.161 272.07 164.661C272.6 164.541 273.12 164.371 273.66 164.311C276.49 163.981 279.45 164.071 282.09 163.181C283.41 162.741 284.73 160.581 284.88 159.081C284.96 158.201 282.64 156.141 281.58 156.251C277.01 156.741 272.5 157.871 267.96 158.681C267.6 158.741 266.99 158.221 266.7 157.831C263.73 153.821 260.8 149.781 257.87 145.731C257.55 145.291 257.38 144.741 257.14 144.241C257.71 144.071 258.27 143.791 258.85 143.751C265.79 143.211 272.76 142.911 279.65 142.021C281.05 141.841 282.17 139.431 283.41 138.051C282.05 136.981 280.66 134.961 279.33 135.001C270.56 135.241 261.81 135.971 253.04 136.371C252.03 136.421 250.62 135.671 250 134.841C241.44 123.261 232.97 111.601 224.55 99.921C224.34 99.621 224.92 98.211 225.2 98.191C232.91 97.581 240.66 97.301 248.34 96.411C249.99 96.221 251.39 93.911 252.91 92.581C251.37 91.391 249.8 89.161 248.28 89.191C238.57 89.381 228.88 90.101 219.18 90.551C218.42 90.581 217.35 90.071 216.89 89.451C211.19 81.761 205.58 74.021 199.96 66.271C199.64 65.831 199.49 65.271 199.26 64.771C199.79 64.671 200.34 64.441 200.86 64.481C234.69 66.921 268.52 69.381 302.35 71.841C327.16 73.641 351.98 75.441 376.79 77.281C377.4 77.331 378.53 78.091 378.48 78.291C374.71 93.861 386.26 101.831 394.78 111.281C402.4 119.741 409.93 128.301 417.78 136.541C419.37 138.211 422.22 139.491 424.52 139.531C439.03 139.801 453.54 139.801 468.05 139.491C469.53 139.461 472.13 136.811 472.21 135.281C472.63 127.191 472.41 119.061 472.41 110.951C472.42 102.631 472.41 94.311 472.44 85.991C472.44 85.461 472.72 84.931 472.87 84.411C473.26 84.631 473.72 84.781 474.03 85.081C493.69 103.951 513.33 122.831 532.92 141.771C533.1 141.951 532.6 143.391 532.3 143.441C526.3 144.301 520.25 144.821 514.3 145.941C512.71 146.241 511.44 148.281 510.02 149.521C511.43 150.741 512.99 153.131 514.24 152.981C522.39 152.011 530.46 150.461 538.58 149.201C539.44 149.071 540.69 149.261 541.28 149.811C546.41 154.601 551.44 159.501 556.41 164.461C556.63 164.681 556.01 166.421 555.58 166.511C542.9 169.241 530.16 171.711 517.52 174.651C515.68 175.081 514.34 177.651 512.76 179.241C514.52 180.121 516.49 182.011 518.02 181.711C532.06 178.961 546.02 175.741 560.05 172.921C562.02 172.521 564.96 172.851 566.3 174.091C577.72 184.711 588.88 195.621 600.1 206.451C600.64 206.971 601.07 207.621 601.55 208.211C600.77 208.391 600 208.701 599.22 208.741C577.22 209.941 555.23 211.101 533.23 212.291C489.76 214.641 446.29 217.011 402.82 219.371C373.92 220.931 345.03 222.491 316.13 223.981V223.951ZM324.68 310.281C330.55 302.091 330.74 294.661 325.37 286.091C325.21 285.831 325.88 284.591 326.21 284.571C355.56 282.971 384.9 281.411 414.26 280.111C414.91 280.081 415.7 283.051 416.42 284.621C415.99 284.721 415.55 284.811 415.12 284.911C415.12 290.511 415.17 296.121 415.04 301.721C415.03 302.301 413.95 303.291 413.3 303.351C384 306.171 354.7 308.911 325.39 311.641C325 311.681 324.6 311.551 324.2 311.491C324.36 311.081 324.43 310.621 324.68 310.281ZM325.95 349.051C354.81 345.491 383.67 341.991 412.54 338.571C412.98 338.521 413.99 339.541 413.98 340.041C413.88 346.841 413.75 353.651 413.33 360.441C413.28 361.281 411.65 362.601 410.62 362.741C382.69 366.571 354.74 370.281 326.16 374.091C326.12 373.551 325.89 373.001 326.08 372.691C330.6 365.081 330.15 357.691 325.29 350.411C325.14 350.181 325.65 349.101 325.94 349.061L325.95 349.051Z" fill="#8ECCDC"/>
<path d="M484.17 317.932C481.37 322.602 478.45 325.312 478.87 327.332C479.42 329.962 482.61 332.052 484.66 334.372C487.1 331.852 490.56 329.672 491.53 326.682C492.01 325.192 487.92 322.212 484.17 317.942V317.932Z" fill="#8ECCDC"/>
</g>
</svg>
