<svg xmlns="http://www.w3.org/2000/svg" viewBox="0 0 612.13 600"><defs><style>.cls-1{fill:#ff372f;opacity:0.1;isolation:isolate;}</style></defs><g id="Layer_2" data-name="Layer 2"><g id="Layer_1-2" data-name="Layer 1"><path class="cls-1" d="M416.93,363.74c27.39-12.87,33.15-13.74,52.95,10.33,33.63,40.88,64.56,84,96.59,126.17.86,1.13,1.12,2.76,2.06,3.8,9.82,10.82,21.85,19.52,20.05,37.75-.56,5.7,9.07,13.54,15.49,18.55,9.49,7.4,11,15.11,2.45,24.09C594,597.65,557.39,604.64,541,596.55c-3.24-1.61-6.11-4.72-8.21-7.78q-57.28-83.44-114.35-167.06c-4.63-6.76-10.6-12.78-14.16-20-2.7-5.49-2.27-12.44-3.73-18.62-1.29-5.48-1.92-12-5.38-15.75-2.17-2.33-9.76-1.86-13.66,0-48.78,23.22-98.36,24.43-149.11,7.26-81.05-27.41-118.88-131.27-75.18-207.14,38.64-67.09,120.85-100.32,195.52-79.86,68.09,18.67,128.12,98.29,96.35,187-8.31,23.19-22.45,44.48-35.32,65.79C406.39,352.52,405.2,352.42,416.93,363.74ZM295.84,100.54c-48,3.51-96.49,27.35-129.53,79.17-41,64.29-5.81,154.75,57.83,178.66,17.43,6.55,35.94,12,54.36,13.84C376.14,382,447.3,315,437.88,208,432.67,148.69,370.88,100.44,295.84,100.54ZM502.09,518.29c11.42-9.83,23-19.54,34.17-29.69,1.57-1.43,2.25-5.3,1.58-7.5-5-16.27-17.85-19-29.38-6.45-2.28,2.48-4.41,5.09-6.76,7.49C485.85,498.36,485.85,501,502.09,518.29Zm-8.45-92.48c-9.11-8.05-16.43-19.4-22.74-18.86-8.25.7-18.63,9.37-22.51,17.33-2.66,5.45,4.21,15.54,7.27,24.94ZM537.54,569l44.29-15.64c-5.41-7.3-8.68-16.17-14.71-18.88C555.62,529.33,534,555.35,537.54,569ZM513,449.06c-6-4.05-14-11.6-15.83-10.33A110.89,110.89,0,0,0,472,462.91c-2.08,2.82,2.88,10.83,5.16,18.2Zm-52.12-59.29c-8.25-5.94-15-14.59-22-14.73-6.49-.13-13.17,8.77-20.76,14.44L434.76,410c7.39-5,13.36-8.93,19.15-13.08C455.79,395.63,457.19,393.64,460.87,389.77Zm97.26,124.72c-6.24-16.14-8.66-17.23-19-8.22-7.54,6.58-15,13.6-20.76,21.69-2.69,3.8-1.15,10.6-1.52,16l5,1.41C527.72,527.46,540.91,518.11,558.13,514.49Z"/><path class="cls-1" d="M70.32,403.05c-1.26-4.46-4.43-9.31-3.13-12.07,10.33-22,27-38.26,48.79-48.9,2.33-1.14,6.7,0,9.07,1.63,1.21.83,1.22,6.13-.15,7.61-15,16.13-30.33,32-45.75,47.7C77.59,400.6,74.86,401,70.32,403.05Z"/><path class="cls-1" d="M83,238c-25.72,20.4-53.12,29.3-83,36.14C3.81,253.51,60.85,228.45,83,238Z"/><path class="cls-1" d="M445.3,103.55c0-20.81,36.29-51.29,65.88-56.71C495.51,73.93,477,94.64,445.3,103.55Z"/><path class="cls-1" d="M347.35,474.75c-19.59-12.06-23.67-46.27-9.42-59.43,7-6.42,11.76-2.82,14,4.08C357.89,437.88,355.09,455.72,347.35,474.75Z"/><path class="cls-1" d="M17.54,110.26c5.6-.76,12.36-3.9,16.6-1.84a368.71,368.71,0,0,1,44.75,25.69c3.25,2.18,2.81,9.85,4.07,15-4.77-.87-10.22-.56-14.2-2.82-17.38-9.85-34.34-20.45-51.45-30.78C17.4,113.75,17.47,112,17.54,110.26Z"/><path class="cls-1" d="M180.6,465.68c-3.48-14.49,10.22-45.84,22.86-50.18,2.55-.87,9.24,2.77,10,5.42C217,434.17,195.19,463.16,180.6,465.68Z"/><path class="cls-1" d="M174.8,97.62c-8.93-3.43-17.14-4.14-20.89-8.6-5.89-7-9.86-16.21-12.42-25.13-1.2-4.17,2.81-9.83,4.46-14.81,4.91,3,12.06,4.94,14.28,9.33C165.71,69.26,168.93,81.26,174.8,97.62Z"/><path class="cls-1" d="M270.9,56C256,42.05,250.31,25.79,249.09,8c-.5-7.35,4.06-10.59,11.18-5.45C270.84,10.14,278.1,41.39,270.9,56Z"/><path class="cls-1" d="M509.63,294.67C524,281,548.76,285,564.41,303.41,548.38,309.67,518.42,304.9,509.63,294.67Z"/><path class="cls-1" d="M564.79,195.1c-16,1.52-32.21,13.76-47.9-1.22C532.86,186.67,548.83,189.07,564.79,195.1Z"/><path class="cls-1" d="M370.53,49.67c1.49-10.47,2.52-21,4.82-31.34.54-2.4,5.37-3.84,8.23-5.72,1.4,2.81,4.48,6,3.92,8.36-2.44,10.25-5.92,20.25-9,30.35C375.83,50.76,373.18,50.22,370.53,49.67Z"/><path class="cls-1" d="M349.53,114c1.22,7,1.44,14.35,4,20.77,1.57,3.92,6.31,8,10.43,9.16,7.44,2.08,15.48,2,21.84,2.71-.85,11.79-1.53,20.94-2.15,30.1C382.16,199,372.68,217.69,357,233c-37.21,36.14-82.49,52.29-133.89,51.44-3.54-.06-10.28-6.86-9.91-9.8,1.94-15.22,1-26.93-18.64-26.52-.85,0-1.74-2.12-4.86-6.16,6.59-2,11.91-5,17.11-4.8,14.78.6,12.88-11.83,16.55-19.75,4.07-8.79-3.11-11.33-8.66-15.35-3.86-2.8-6.27-7.6-9.33-11.51,5.18.87,10.47,1.35,15.5,2.76,3.06.86,5.72,3.16,11,6.23,3.17-4.13,5.67-9.28,9.74-12.3,10-7.47,12.28-15,4.25-25.52-2-2.66-.48-8-.57-12.17,3.49,1.39,8.29,1.8,10.22,4.36,5.15,6.85,8.93,14.13,19.37,7.55,9.13-5.76,19.49-10.22,11.45-24.1-1.29-2.22-.78-5.48,1.87-11.58,4.13,3.54,9.43,6.37,12.15,10.78,5.16,8.36,32.53,12.37,38.43,4.4,1.58-2.14.42-6.21.8-9.36.71-6,1.61-11.89,2.43-17.83C344.48,113.8,347,113.9,349.53,114Zm-15,116.51c19.34-12.86,32.47-31.08,35.13-56.3.89-8.46-1.63-13.51-10.57-15.53-23.11-5.2-44.2.53-63.63,8.72C308.55,188.53,321,208.67,334.54,230.51Zm-80.31-37.46c-5.37,6.26-11.67,10.86-14.15,17-6.46,16-11.1,32.69-16.74,49-3.91,11.31,1.86,14.72,11.32,12.89,18.69-3.62,37.18-8.33,55.32-12.49C277.47,236.24,266.42,215.7,254.23,193.05Z"/></g></g></svg>