<svg width="826" height="600" viewBox="0 0 826 600" fill="none" xmlns="http://www.w3.org/2000/svg">
<g opacity="0.1">
<path d="M263.21 600C261.33 599.71 259.44 599.43 257.57 599.12C250.91 598.01 244.83 595.48 239.43 591.43C232.26 586.04 227.47 578.88 224.59 570.46C221.91 562.64 220.79 554.54 221.29 546.31C221.96 535.44 225.33 525.39 231.25 516.23C234.05 511.89 237.16 507.8 240.82 504.12C243.31 501.62 245.58 498.89 248.13 496.45C253.62 491.23 259.24 486.14 264.79 480.98C265.76 480.08 266.68 479.12 267.62 478.19C268.34 477.47 268.38 476.73 267.94 475.79C266.36 472.46 266.19 472.27 262.62 472.72C260.73 472.96 258.83 473.36 257.03 473.95C245.83 477.63 234.67 481.44 223.46 485.08C218.28 486.76 213.12 488.48 207.66 489.18C198.11 490.39 190.45 487.18 184.51 479.72C180.05 474.12 177.16 467.65 174.59 461.05C171.64 453.45 169.7 445.55 169.18 437.44C168.58 428.09 168.84 418.7 171.39 409.59C172.74 404.78 174.36 400.04 176.16 395.38C177.44 392.06 179.84 389.37 182.25 386.77C186.12 382.6 190.5 379 194.94 375.47C197.86 373.15 201.15 373.05 204.33 374.44C206.86 375.55 209.34 377.03 211.42 378.83C223.26 389.09 231.15 401.89 235.47 416.95C237.63 424.49 239.18 432.14 239.65 439.95C240.08 447 240.01 454.08 240.22 461.14C240.27 462.88 240.54 464.62 240.73 466.65C241.86 466.48 242.71 466.45 243.52 466.22C251.25 464.06 258.99 461.93 266.69 459.66C279.34 455.93 291.95 452.1 304.58 448.32C315.3 445.11 326.02 441.85 336.76 438.69C351.39 434.38 366.03 430.12 380.68 425.89C388.82 423.54 396.92 421.03 405.16 419.08C413.18 417.19 421.3 415.65 429.45 414.45C437.96 413.21 446.56 412.54 455.12 411.66C462.02 410.95 468.88 410.04 475.32 407.22C480.41 404.99 485.15 402.22 489.31 398.48C498.87 389.85 504.84 379.13 507.58 366.65C509.67 357.14 508.22 347.91 504.47 339C502 333.12 498.63 327.79 494.73 322.76C492.93 320.44 491.42 317.9 489.83 315.42C488.38 313.16 488.7 310.96 490.29 308.78C491.87 308.64 493.07 309.5 494.15 310.48C498.62 314.53 502.12 319.32 505 324.6C509.52 332.88 512.1 341.78 512.8 351.12C513.78 364.11 511.9 376.67 506.21 388.55C502.79 395.68 498.31 401.98 492.66 407.49C490.13 409.95 487.79 412.61 485.38 415.19C485.06 415.54 484.85 416 484.41 416.69C485.8 416.96 486.91 417.23 488.05 417.4C496.28 418.62 504.54 419.67 512.74 421.05C521.77 422.58 530.29 425.52 537.65 431.22C543.1 435.44 546.9 440.87 549.32 447.27C551.43 452.84 552.25 458.61 552.34 464.58C552.5 475.08 551.06 485.28 547.65 495.21C545.57 501.28 542.55 506.87 537.99 511.4C532.68 516.68 526.21 519.94 518.69 520.84C506.43 522.3 494.43 520.88 482.7 517.18C468.07 512.57 453.89 506.74 439.68 501.02C424.78 495.02 409.94 488.89 395.02 482.96C391.96 481.75 388.7 480.92 385.45 480.37C379.12 479.3 373.92 481.61 370.25 486.79C367.1 491.23 364.22 495.86 361.39 500.51C355.55 510.14 349.93 519.92 344.02 529.51C335.3 543.69 326.41 557.76 317.58 571.87C315.86 574.62 314.12 577.35 312.38 580.09C308.36 586.42 302.46 590.49 295.81 593.55C289.07 596.66 281.94 598.48 274.59 599.42C273.14 599.61 271.7 599.81 270.25 600H263.18H263.21ZM295.98 494.58C295.76 494.42 295.55 494.26 295.33 494.1C295.57 493.36 295.75 492.61 296.04 491.9C300.1 481.86 304.18 471.83 308.23 461.79C308.57 460.95 308.76 460.06 309.09 458.98C306.76 458.84 304.92 459.35 303.27 460.32C300.73 461.81 298.16 463.29 295.83 465.07C290.27 469.31 284.76 473.63 279.37 478.08C275.29 481.45 271.38 485.04 267.44 488.58C264.1 491.58 260.78 494.6 257.52 497.68C255.33 499.75 253.19 501.9 251.16 504.12C248.18 507.38 245.38 510.8 242.38 514.03C237.34 519.46 233.67 525.7 231.11 532.6C228.26 540.28 227.24 548.25 227.34 556.46C227.49 568.89 235.47 580.08 246.71 585.01C252.63 587.61 258.94 588.42 265.27 588.41C270.39 588.41 275.56 587.79 280.62 586.95C288.24 585.68 295.51 583.25 301.65 578.31C303 577.23 304.29 575.87 305.1 574.37C306.41 571.92 307.56 569.32 308.31 566.65C309.75 561.53 310.18 556.29 309.76 550.93C309.35 545.67 308.44 540.55 306.65 535.61C303.84 527.82 299.7 521.02 292.38 516.55C286.43 512.92 280.05 511.27 273.16 512.24C262.01 513.8 254.2 519.91 249.94 530.31C246.94 537.65 247.58 544.87 251.55 551.76C252.9 554.1 254.89 555.66 257.46 556.46C261.64 557.76 265.76 557.23 269.85 556.01C274.34 554.66 275.91 551.99 274.83 547.45C274.42 545.73 273.89 544.04 273.35 542.36C272.84 540.77 273.11 539.32 273.95 537.92C274.79 536.5 275.37 536.32 276.8 537.22C278.45 538.26 279.26 539.94 279.92 541.66C282.08 547.31 281.74 552.9 279.5 558.46C276.84 565.07 271.67 568.26 264.86 568.88C258.82 569.43 253.69 567.45 250.03 562.36C249.39 561.46 248.64 560.63 248.04 559.71C245 555.01 242.39 550.13 242.94 544.29C243.23 541.15 243.67 537.98 244.4 534.92C245.8 529.12 247.5 523.4 248.99 517.62C249.43 515.9 250.22 514.5 251.54 513.34C256.2 509.23 261.09 505.47 266.93 503.15C271.75 501.24 276.75 500.29 281.86 501.36C294.94 504.11 303.91 512.09 309.5 523.97C313.65 532.79 314.66 542.34 315.35 551.92C315.57 555.05 315.47 555.05 318.48 555.59C318.7 555.63 318.91 555.68 319.13 555.71C321.79 556.14 321.83 556.16 323.17 553.82C329.41 542.88 335.63 531.93 341.86 520.99C347.69 510.75 353.52 500.51 359.36 490.28C362.35 485.03 365.36 479.8 368.35 474.55C369.45 472.62 369.26 472.13 367.19 471.62C362.75 470.53 358.32 469.44 353.87 468.41C350.75 467.69 350.68 467.77 350.1 470.81C350.03 471.17 349.95 471.53 349.88 471.89C347.48 484.71 342.25 496.14 333.3 505.75C332.63 506.47 331.85 507.08 331 507.85C330.16 506.48 330.41 505.3 330.56 504.17C331.48 497.05 333.76 490.36 337.6 484.33C340.8 479.31 344.41 474.55 347.83 469.67C348.15 469.22 348.4 468.73 348.84 468C344.01 465.65 339.56 463.04 334.39 462.17C332.58 461.86 330.8 462.26 329.38 463.43C327.52 464.97 325.7 466.6 324.05 468.37C320.59 472.08 317.35 476 313.84 479.67C310.89 482.75 307.81 485.74 304.55 488.48C301.87 490.73 298.85 492.57 295.97 494.59L295.98 494.58ZM335.78 448.11C336.91 448.65 337.59 449.04 338.31 449.32C348.88 453.44 359.45 457.55 370.03 461.66C392.42 470.35 414.8 479.04 437.19 487.73C447.42 491.7 457.65 495.68 467.89 499.64C468.47 499.86 469.09 499.96 469.88 500.16C469.92 499.38 470.02 498.88 469.97 498.4C469.56 494.52 469.06 490.65 468.71 486.77C468.1 480.08 468.01 473.39 468.84 466.71C469.76 459.28 472.18 452.36 476.45 446.19C480.09 440.92 484.77 436.67 490.01 433.03C490.65 432.59 491.24 432.08 492.22 431.31C491.16 430.86 490.54 430.54 489.89 430.34C487.92 429.73 485.94 429.17 483.95 428.6C475.74 426.25 467.55 423.87 458.98 423.02C451.24 422.25 443.86 423.39 436.65 426.05C435.51 426.47 434.45 427.1 433.02 427.79C438.12 432.47 442.95 436.9 447.78 441.33C447.68 441.5 447.58 441.67 447.47 441.83C446.73 441.61 445.98 441.4 445.24 441.16C443.84 440.7 442.44 440.24 441.05 439.76C435.33 437.8 429.68 435.71 424.62 432.25C423.12 431.23 421.39 430.46 419.65 429.9C414.57 428.24 409.47 428.65 404.44 430.25C399.25 431.91 394.07 433.62 388.89 435.32C388.52 435.44 388.2 435.74 387.68 436.08C388.3 436.49 388.69 436.8 389.13 437.03C396.04 440.51 403 443.87 409.84 447.48C415.26 450.34 420.28 453.84 424.9 457.88C426.02 458.86 427.26 459.81 428.05 461.38C427.42 461.48 427 461.63 426.59 461.61C422.77 461.43 418.92 461.47 415.14 460.98C403.91 459.52 393.67 455.35 384.29 449.06C380.99 446.85 377.8 444.45 374.63 442.07C371.75 439.91 368.65 438.96 365.09 439.89C364.38 440.08 363.64 440.17 362.93 440.36C354.55 442.66 346.17 444.97 337.8 447.3C337.27 447.45 336.77 447.72 335.78 448.13V448.11ZM205.92 477.99C212.08 478.27 217.68 476.71 223.17 474.71C228.62 472.73 232.03 468.88 233.35 463.15C234.58 457.8 234.85 452.37 234.85 446.93C234.85 443.78 234.43 440.62 234.08 437.48C232.81 426.12 229.38 415.46 223.47 405.66C220.31 400.43 216.94 395.3 212.14 391.35C206.55 386.75 200.1 385.4 193.47 389.11C185.16 393.76 179.96 401.09 177.14 410.01C174.44 418.56 173.36 427.35 174.27 436.38C175.41 447.68 178.88 458.1 185.23 467.5C187.6 471.01 190.68 473.85 194.57 475.72C198.23 477.48 202.09 478.25 205.92 477.98V477.99ZM547.22 469.18C546.99 466.69 546.94 464.18 546.5 461.73C544.72 451.76 539.81 443.9 530.71 438.99C526.92 436.95 522.94 436.05 518.57 436.65C509.43 437.89 500.72 440.54 492.38 444.36C483.16 448.59 477 455.6 474.44 465.52C472.25 474 472.81 482.49 474.94 490.87C476.89 498.54 481.46 504.21 488.86 507.24C497.94 510.96 507.36 512.73 517.16 510.95C524.35 509.65 530.58 506.33 535.35 500.81C543.15 491.78 547.07 481.19 547.22 469.19V469.18Z" fill="#FF978C"/>
<path d="M596.34 262.89C593.94 263.18 591.53 263.47 589.13 263.77C582.11 264.65 575.31 263.75 568.76 261.13C561.02 258.03 554.13 253.63 548.15 247.75C543.2 242.89 539.1 237.52 536.39 231.09C533.4 223.98 533.1 216.71 535.58 209.52C537.9 202.8 536.46 197.14 532.14 191.83C528.46 187.31 525.25 182.45 522.47 177.33C521.16 174.93 520.56 172.4 521.24 169.67C521.63 168.1 522.57 167.08 524.11 166.61C526.13 166 528.14 165.7 530.12 166.75C534.35 168.98 538.6 171.17 542.81 173.44C546.05 175.18 549.21 177.08 552.47 178.79C559.22 182.34 566.39 183.35 573.89 182.06C577.45 181.45 581.01 180.87 584.57 180.28C585.15 180.18 585.74 180.11 586.32 180.08C592.59 179.76 595.32 181.42 597.32 187.34C598.65 191.27 601.09 194.06 604.46 196.28C608.46 198.91 612.51 201.49 616.31 204.38C619.22 206.59 621.93 209.12 624.45 211.78C627.23 214.71 628.33 218.36 627.52 222.39C626.73 226.36 625.95 230.33 624.9 234.23C624.17 236.93 624.59 239.39 625.87 241.68C626.51 242.83 627.66 243.85 628.81 244.52C636.7 249.15 644.29 254.24 651.46 259.91C658.67 265.61 665.78 271.48 672.58 277.65C680.43 284.77 688.03 292.17 695.5 299.68C701.82 306.05 707.8 312.76 713.93 319.31C716.49 322.05 719.09 324.76 721.64 327.51C727.15 333.43 732.59 339.43 738.18 345.28C742.71 350.02 747.41 354.59 752.04 359.23C759.27 366.47 766.96 373.22 774.76 379.84C782.05 386.03 789.32 392.26 796.6 398.46C799.12 400.61 801.64 402.75 804.19 404.87C806.55 406.82 809.24 408.16 812.14 409.09C815.71 410.23 818.84 412.06 821.4 414.86C823.53 417.19 824.73 419.92 824.99 422.99C825.46 428.57 824.54 433.99 822.72 439.28C822.29 440.53 821.58 441.46 820.46 442.15C817.73 443.84 814.86 444.28 811.61 444.05C803.8 443.51 796.33 441.72 789.11 438.82C782.01 435.97 775.51 432.05 769.84 426.91C764.11 421.72 758.4 416.5 753.04 410.94C747.17 404.86 741.43 398.61 736.15 392.01C728.85 382.87 721.93 373.41 715.04 363.95C710.17 357.26 704.88 350.95 698.79 345.35C692.37 339.45 685.34 334.36 677.75 330.06C666.03 323.42 653.57 318.58 640.73 314.56C631.95 311.82 623.24 308.8 614.62 305.59C605.43 302.16 597.16 297.1 589.93 290.41C588.04 288.66 586.24 286.8 584.24 285.19C581.71 283.17 580.87 280.5 580.63 277.46C580.34 273.78 580.54 273.3 584.2 273.06C586.36 272.92 588.65 273.13 590.72 273.73C601.18 276.79 611.59 280.03 622.02 283.2C623.01 283.5 624 283.77 624.99 284.05C626.19 284.4 626.92 283.97 627.42 282.82C629.16 278.9 629.12 278.53 625.57 276C621.79 273.31 618.03 270.58 614.11 268.12C608.71 264.74 602.86 262.64 596.3 262.86L596.34 262.89ZM647.76 306.09C648.92 306.46 649.64 306.76 650.38 306.93C657.29 308.56 663.94 310.91 670.35 313.97C679.59 318.38 687.9 324.14 695.56 330.92C702.14 336.75 708.2 343.07 713.76 349.84C719.41 356.73 724.77 363.85 730.18 370.93C736.65 379.42 742.76 388.21 750.19 395.92C756.78 402.76 763.54 409.44 770.23 416.18C770.33 416.28 770.46 416.37 770.58 416.45C776.98 420.52 783.38 424.58 789.78 428.65C790.74 429.26 791.44 429.08 791.86 427.98C793.09 424.74 794.51 421.57 795.5 418.26C796.65 414.41 795.97 410.86 792.88 407.94C788.6 403.9 784.39 399.77 780.16 395.68C775.5 391.18 770.78 386.74 766.21 382.15C748.59 364.45 731.01 346.72 713.44 328.97C708.16 323.63 703.05 318.12 697.7 312.85C690.62 305.88 683.39 299.05 676.21 292.18C669.56 285.81 662.54 279.87 655.26 274.23C643.65 265.22 631.54 257 618.18 250.76C617.47 250.43 616.74 250.14 615.55 249.62C615.78 251.35 615.92 252.63 616.12 253.89C616.52 256.32 617.71 258.26 619.7 259.77C622.46 261.86 625.15 264.04 627.85 266.2C636.19 272.86 644.54 279.52 652.87 286.2C655.48 288.29 657.21 290.92 658.03 294.22C658.53 296.23 658.06 297.61 656.42 298.81C654.17 300.47 651.98 302.22 649.81 303.98C649.16 304.5 648.64 305.18 647.75 306.1L647.76 306.09ZM593.96 200.59C593.53 201.47 593.2 202.11 592.89 202.76C590.01 208.77 586.46 214.38 581.83 219.17C576.65 224.52 570.58 228.66 563.45 231.03C560.66 231.96 557.79 232.64 554.95 233.38C552.94 233.91 552.72 234.23 553.02 236.31C553.26 237.98 553.81 239.47 555.16 240.53C557.93 242.71 560.54 245.17 563.55 246.94C574.5 253.38 586.04 254.48 597.9 249.74C608.64 245.45 615.64 237.42 619.89 226.84C620.6 225.08 620.53 223.25 620.14 221.41C619.54 218.56 617.81 216.51 615.51 214.92C608.9 210.37 602.26 205.87 595.62 201.36C595.21 201.08 594.72 200.92 593.98 200.57L593.96 200.59Z" fill="#FF978C"/>
<path d="M-93.23 420.93C-93.23 415.65 -90.92 411.61 -86.98 408.29C-82.25 404.31 -77.42 400.42 -72.99 396.13C-64.83 388.22 -57.79 379.31 -51.22 370.06C-38.43 352.03 -26.87 333.2 -15.4 314.31C-5.15998 297.44 5.17003 280.62 15.65 263.9C23.05 252.1 31.37 240.95 40.3 230.25C46.25 223.12 52.48 216.26 59.12 209.78C61.01 207.93 63.05 206.23 64.93 204.36C66.18 203.12 67.24 201.7 68.41 200.37C69.25 199.4 69.34 198.48 68.53 197.4C66.89 195.22 65.21 193.06 63.78 190.75C62.47 188.64 61.27 186.42 60.35 184.11C58.61 179.77 59.29 175.43 61.65 171.59C63.72 168.23 66.32 165.18 68.81 162.1C70.98 159.41 73.35 156.88 75.59 154.25C78.01 151.41 79.54 148.05 81.02 144.67C82.29 141.76 83.57 138.84 85.82 136.53C87.3 135.01 88.88 133.57 90.54 132.25C92.18 130.94 94.15 131.44 96.07 131.5C100.32 131.63 104.63 131.95 108.83 131.5C117.69 130.54 125.22 126.33 131.85 120.6C135.45 117.48 138.71 113.95 142.03 110.52C144.82 107.63 147.94 105.17 151.42 103.24C152.79 102.48 154.48 102.23 156.05 101.9C157.15 101.67 157.81 102.24 158.03 103.43C158.46 105.71 158.62 107.94 157.68 110.16C155.62 115.04 153.59 119.94 151.56 124.84C151.19 125.72 150.9 126.64 150.55 127.53C147.64 134.94 148.51 142.11 151.84 149.14C154.07 153.84 155.54 158.76 155.79 163.99C156.12 170.76 154 176.93 150.84 182.77C147.88 188.25 144.1 193.15 139.54 197.39C129.5 206.72 117.78 212.7 104.09 214.39C100.05 214.89 96.08 215.39 92.31 217.07C87.1 219.39 83.26 223.35 79.59 227.48C76.85 230.56 74.32 233.82 71.7 236.99C70.56 238.37 70.52 238.75 71.47 240.32C71.66 240.64 71.87 240.94 72.07 241.25C73.7 243.87 73.73 243.94 76.35 242.54C83.17 238.9 89.91 235.11 96.77 231.56C102.85 228.41 109.03 225.46 115.21 222.51C116.45 221.92 117.86 221.6 119.22 221.34C120.86 221.03 121.69 221.51 122.43 223.02C123.43 225.07 123.34 227.21 122.46 229.23C121.85 230.63 121.1 232.08 120.06 233.16C114.48 238.91 108.91 244.69 103.08 250.19C98.27 254.73 93.22 259.04 88.06 263.18C81.84 268.17 74.82 271.96 67.94 275.95C60.24 280.42 52.49 284.85 45.02 289.68C40.72 292.46 36.79 295.87 32.9 299.24C21.75 308.87 13.41 320.65 7.09003 333.88C3.44003 341.52 0.0500183 349.28 -3.46998 356.98C-5.17998 360.73 -6.93997 364.46 -8.66998 368.2C-14.86 381.58 -21.37 394.78 -30.5 406.49C-39.6 418.16 -50.58 427.51 -63.82 434.25C-68.7 436.74 -73.98 438.11 -78.98 440.23C-82.28 441.63 -84.46 440.71 -86.66 437.77C-89.46 434.01 -91.58 429.9 -92.63 425.3C-92.96 423.88 -93.03 422.4 -93.21 420.94L-93.23 420.93ZM82.91 210.97C81.54 209.71 80.43 208.66 79.28 207.64C78.11 206.6 77.65 206.55 76.4 207.55C72.43 210.72 68.29 213.71 64.6 217.18C57.67 223.68 51.02 230.47 44.88 237.74C35.93 248.33 27.63 259.41 20.04 271C11.16 284.55 2.54002 298.28 -6.22998 311.9C-16.92 328.5 -27.65 345.06 -38.37 361.64C-39.13 362.82 -39.88 364 -40.66 365.16C-45.44 372.33 -50.23 379.49 -55.01 386.67C-57.86 390.96 -60.72 395.25 -63.51 399.59C-65.62 402.87 -65.75 406.28 -63.61 409.57C-61.93 412.16 -60.05 414.62 -58.26 417.15C-57.52 418.19 -56.62 418.28 -55.57 417.66C-55.19 417.44 -54.81 417.22 -54.42 417C-45.5 411.83 -38.59 404.56 -32.81 396.17C-27.15 387.96 -22.85 378.96 -18.23 370.17C-14.46 363 -11.04 355.65 -7.50998 348.36C-6.31998 345.91 -5.29998 343.38 -4.11998 340.92C-0.929977 334.29 2.03003 327.52 5.59003 321.09C12.93 307.87 22.09 296.03 33.58 286.06C38.1 282.14 42.83 278.55 47.82 275.27C51.51 272.85 55.1 270.27 58.72 267.74C59.22 267.39 59.61 266.88 60.33 266.18C59.27 265.7 58.59 265.31 57.85 265.07C55.05 264.15 52.22 263.32 49.43 262.38C47.7 261.8 47.44 261.31 47.63 259.61C48.1 255.34 49.5 251.44 52.18 248.05C55.19 244.24 58.12 240.35 61.22 236.62C66.43 230.33 71.75 224.13 77.03 217.9C78.88 215.72 80.73 213.54 82.89 211L82.91 210.97ZM142.52 176.7C141.17 176.6 140.39 176.5 139.6 176.49C137.02 176.47 134.44 176.52 131.87 176.49C122.28 176.34 113.46 173.66 105.36 168.53C98.8 164.38 93.43 158.99 88.75 152.85C88.29 152.25 87.71 151.74 87.07 151.07C86.58 151.72 86.24 152.09 85.98 152.52C82.21 158.96 78.02 165.06 72.59 170.27C70.91 171.89 69.41 173.76 68.11 175.71C65.97 178.9 66.26 181.81 68.99 184.5C70.97 186.46 73.08 188.34 75.34 189.96C80.53 193.69 85.58 197.68 91.59 200.13C102.94 204.75 113.88 203.99 124.38 197.61C131.23 193.45 136.24 187.56 140.34 180.81C141.05 179.64 141.63 178.4 142.52 176.72V176.7Z" fill="#FF978C"/>
<path d="M214.22 316.49C214.2 303.03 217.3 290.24 222.12 277.89C226.8 265.89 232.04 254.1 236.99 242.2C240.85 232.93 244.17 223.49 245.77 213.53C247.26 204.26 246.92 195.07 244.73 185.93C244.38 184.45 244.24 182.86 244.35 181.35C244.52 178.95 245.81 177.91 248.17 178.05C250.12 178.16 251.91 178.74 253.38 180.15C256.93 183.58 260.5 186.97 264.07 190.38C267.58 193.74 271.08 197.11 274.6 200.46C275.94 201.73 276.27 201.68 277.42 200.31C284.26 192.14 290.13 183.34 294.51 173.59C299.18 163.21 302.66 152.42 305.15 141.32C307.72 129.88 309.47 118.31 310.89 106.68C311.42 102.3 311.81 97.9 312.34 93.51C312.51 92.13 312.84 90.75 313.3 89.44C314.04 87.33 315.46 86.67 317.46 87.66C319.3 88.57 321.11 89.65 322.68 90.95C327.33 94.79 332.08 98.56 336.37 102.78C341.99 108.3 347.02 114.37 351.63 120.78C358.5 130.32 364.24 140.52 369.2 151.15C374.91 163.39 379.34 176.12 382.97 189.13C386.08 200.28 388.68 211.55 390.82 222.92C391.28 225.38 392.43 227.47 393.65 229.58C394.16 230.47 394.84 230.59 395.7 230.26C397.08 229.73 398.47 229.25 399.81 228.65C407.23 225.35 413.91 220.9 419.42 214.94C422.75 211.33 425.55 207.23 428.64 203.39C429.97 201.73 431.35 200.1 432.85 198.59C434.21 197.23 434.8 197.35 435.63 199.09C437.21 202.41 438.77 205.75 440.19 209.15C444 218.25 447.87 227.34 451.47 236.53C456.6 249.63 461.62 262.77 466.46 275.98C469.05 283.06 470.31 290.43 470.65 298.02C471.15 309.1 469.44 319.75 465.27 329.97C462.05 337.85 457.62 345.02 451.97 351.48C445.45 358.94 437.75 364.87 429.47 370.19C421.4 375.37 413.15 380.23 404.59 384.51C390.52 391.55 375.89 397.19 360.61 401.02C351.03 403.42 341.32 405.13 331.46 405.99C324.78 406.57 318.1 407.03 311.4 406.79C300.35 406.4 289.33 405.74 278.7 402.28C271.81 400.04 265.24 397.09 259.02 393.37C252.03 389.19 245.61 384.24 239.97 378.39C227.22 365.17 218.8 349.62 215.74 331.41C214.92 326.5 214.73 321.47 214.25 316.5L214.22 316.49ZM318.33 100.66C318.04 101.7 317.74 102.52 317.59 103.36C316.83 107.71 316.09 112.07 315.37 116.43C312.81 131.83 310.3 147.24 305.7 162.22C301.78 174.96 296.57 187.1 289.22 198.26C286.1 203 282.6 207.45 278.78 211.66C276.87 213.77 274.89 215.66 272.29 216.83C270.58 217.6 270.29 217.45 269.45 215.7C266.2 208.93 262.92 202.17 259.65 195.41C259.49 195.08 259.31 194.76 259.13 194.43C258.76 193.76 258.25 193.57 257.47 193.74C253.91 194.55 252.66 195.89 252.23 199.55C252.15 200.28 252.18 201.02 252.14 201.76C251.97 204.84 251.92 207.94 251.6 211.01C250.71 219.54 248.8 227.85 246.1 235.99C242.32 247.41 237.19 258.27 232.31 269.23C228.86 276.97 225.61 284.79 223.29 292.96C220.14 304.03 219.36 315.31 220.95 326.66C223.18 342.58 230.5 356.09 241.53 367.63C246.23 372.54 251.57 376.71 257.25 380.43C272.49 390.41 289.31 395.38 307.42 396.18C315.46 396.54 323.47 395.88 331.41 394.68C345.63 392.54 359.65 389.49 373.44 385.36C389.31 380.6 404.52 374.3 418.7 365.7C429.42 359.2 439.76 352.17 448.02 342.51C452.95 336.75 457.06 330.49 459.91 323.48C464.02 313.35 465.6 302.83 464.44 291.89C463.74 285.26 462.54 278.74 460.04 272.57C457.13 265.41 453.89 258.39 450.72 251.34C449.03 247.58 447.21 243.88 445.45 240.15C442.31 233.49 439.19 226.82 436.01 220.18C435.58 219.28 434.87 218.46 434.13 217.77C433.36 217.05 432.41 217.04 431.51 217.73C429.94 218.94 428.4 220.19 426.77 221.33C418.68 226.98 410.6 232.65 402.43 238.18C399.76 239.99 396.91 241.58 394.01 243C391.38 244.29 389.94 243.61 388.75 240.91C388.34 239.97 388.03 238.97 387.8 237.97C387.37 236.11 386.98 234.23 386.65 232.34C383.21 212.65 378.69 193.23 371.81 174.41C366.94 161.08 360.85 148.35 353.09 136.46C347.03 127.17 340.1 118.58 331.92 111.08C328.02 107.51 323.67 104.44 319.52 101.15C319.3 100.98 319 100.91 318.33 100.62V100.66Z" fill="#FF978C"/>
<path d="M662.04 207.56C661.57 205.37 661 203.4 660.78 201.38C660.68 200.53 661.13 199.49 661.63 198.73C666.24 191.71 669.15 184.06 670.1 175.72C671.19 166.16 669.73 157.04 664.76 148.69C658.14 137.58 648.24 130.71 636 127.04C633.68 126.34 631.28 125.89 628.88 125.55C626.28 125.19 624.15 124.03 622.23 122.35C621.57 121.77 620.89 121.21 620.21 120.64C618.83 119.49 618.79 119.31 619.82 117.72C620.38 116.86 621.05 116.06 621.62 115.2C622.48 113.91 623.68 113.24 625.14 112.72C628.11 111.66 631.16 110.66 633.9 109.14C644.65 103.17 648.95 92.5397 647.57 80.7597C646.22 69.3097 641.02 59.8697 632.99 51.7297C624.67 43.2997 614.63 38.0597 603.35 34.9697C596.58 33.1197 589.67 32.2597 582.65 31.8297C569.03 30.9897 555.94 33.1297 543.31 38.1197C532.8 42.2697 523.42 48.2797 514.94 55.7597C512.2 58.1797 509.72 60.9997 506.14 62.3197C505.67 62.4897 505.2 62.6797 504.46 62.9497C503.46 59.9697 502.93 57.1097 503.69 54.0797C505.12 48.4097 505.21 42.6997 503.75 37.0397C500.32 23.7897 489.04 12.8697 474.18 11.6897C464.36 10.9097 455.8 14.1397 448.59 20.9297C441.02 28.0597 437.44 36.8497 437.42 47.1597C437.42 48.8397 437.74 50.5297 437.94 52.2097C438.21 54.4597 437.15 56.1297 435.76 57.7197C434.41 57.3297 433.69 56.4697 433.39 55.3897C432.73 52.9897 431.93 50.5697 431.72 48.1097C431.12 41.0697 432.54 34.3197 435.32 27.8597C438.13 21.3197 441.7 15.2397 446.91 10.2697C457.6 0.049674 469.97 -2.64033 483.77 2.62967C495.45 7.08967 502.84 15.8597 506.97 27.4797C508.43 31.5697 509.59 35.7597 510.89 39.9097C511.04 40.3997 511.18 40.8997 511.35 41.3897C512.2 43.9097 512.45 43.9597 514.7 42.6197C521.34 38.6697 527.85 34.4597 534.71 30.9097C545.11 25.5297 556.18 22.0097 567.87 20.5797C579.45 19.1597 590.8 20.2797 601.93 23.6697C610.57 26.2997 618.76 29.9497 626.32 34.9197C638.86 43.1597 648.01 54.0397 652.31 68.6497C653.74 73.4997 654.08 78.4597 654.13 83.4897C654.21 92.3797 651.12 100.36 647.48 108.23C646.3 110.77 645.19 113.34 644.12 115.92C643.42 117.61 643.49 117.84 645.04 118.79C649.32 121.41 653.38 124.35 657.05 127.76C659.14 129.71 661.12 131.82 662.91 134.05C668.78 141.35 672.69 149.61 674.45 158.84C675.5 164.34 676.3 169.89 676.07 175.51C675.65 185.56 673 194.96 667.42 203.43C665.93 205.7 665.36 206.13 662.04 207.55V207.56Z" fill="#FF978C"/>
<path d="M607.39 435.189C606.41 431.699 606.14 428.429 608.11 425.309C611.85 419.409 616.76 414.939 623.54 412.759C629.6 410.809 635.71 410.639 641.83 412.309C649.24 414.329 654.3 419.209 657.99 425.789C660.66 430.549 662.02 435.729 663.31 440.959C664.07 444.059 664.09 444.159 667.18 443.939C671.07 443.669 674.94 443.219 678.82 442.839C685.86 442.139 692.92 441.649 699.96 442.599C709.57 443.899 717.05 448.919 722.45 456.789C728.29 465.319 731.36 474.899 731.29 485.269C731.23 493.839 728.3 501.569 723.13 508.419C722.01 509.899 720.54 510.789 718.74 511.179C717.87 511.369 717.3 511.089 717.04 510.229C716.18 507.349 715.63 504.649 717.97 501.969C721.78 497.599 723.98 492.409 724.85 486.659C726.16 477.989 723.72 470.359 717.93 463.999C711.7 457.169 703.66 453.519 694.5 452.329C684.87 451.069 675.94 453.509 667.31 457.439C664.69 458.629 662.17 460.009 659.27 460.439C657.32 460.729 657.1 460.529 656.45 458.619C655.39 455.549 656.16 452.519 656.36 449.439C656.57 446.229 656.69 442.939 656.24 439.779C655.39 433.839 652.11 429.319 646.99 426.169C639.29 421.429 631.31 421.149 623.11 424.719C619.15 426.439 615.73 428.979 612.67 432.029C610.65 434.039 609.65 434.659 607.4 435.209L607.39 435.189Z" fill="#FF978C"/>
<path d="M190.1 434.58C190.17 428 191.23 421.65 193.93 415.64C194.8 413.71 195.88 411.82 197.15 410.13C197.9 409.13 199.19 408.52 200.29 407.81C200.93 407.4 201.62 407.53 201.95 408.29C202.92 410.57 203.86 412.99 202.31 415.26C199.31 419.64 198.43 424.75 196.93 429.66C196.08 432.43 195.76 435.3 196.03 438.18C196.19 439.85 196.48 441.55 197.05 443.12C198.24 446.42 200.89 447.93 204.36 447.38C205.42 447.21 206.51 446.81 207.45 446.29C210.31 444.7 210.48 444.21 209.97 440.98C209.46 437.78 208.97 434.58 208.53 431.37C208.41 430.5 208.44 429.61 208.44 428.73C208.44 427.62 209.09 427.01 210.11 426.67C211.13 426.32 212.1 426.41 212.67 427.34C214.86 430.91 217.12 434.45 219.02 438.17C219.57 439.25 219.13 440.9 218.96 442.27C218.43 446.81 217.03 451.04 214.07 454.62C209.7 459.89 202.23 461 196.99 455.8C193.37 452.21 191.44 447.87 190.8 442.93C190.44 440.17 190.32 437.37 190.1 434.59V434.58Z" fill="#FF978C"/>
<path d="M496.21 482.969C496.53 473.299 500.43 465.389 508 459.329C508.74 458.739 509.59 458.269 510.44 457.839C513.95 456.059 516.77 457.749 516.93 461.709C516.99 463.249 516.93 464.799 516.96 466.349C517.01 468.609 517.23 468.739 519.38 469.279C522.23 469.989 525.11 470.659 527.84 471.709C533.81 473.989 536.53 479.239 535.28 485.529C534.18 491.059 531.04 495.219 526.37 498.149C521.06 501.479 515.31 502.819 509.06 501.219C501.04 499.169 496.99 492.979 496.22 485.399C496.14 484.599 496.21 483.779 496.21 482.969Z" fill="#FF978C"/>
<path d="M400.13 304.06C399.99 316.54 397.5 328.4 391.87 339.53C387.72 347.74 381.9 354.62 374.8 360.42C365.66 367.88 355.28 372.72 343.73 375.08C334.86 376.89 326.04 376.5 317.21 374.53C309.21 372.75 301.32 370.64 293.78 367.39C287.04 364.48 280.73 360.87 275.68 355.4C270.32 349.59 267.09 342.81 266.27 334.9C265.27 325.25 268.2 316.78 273.69 308.98C277.22 303.97 281.83 300.09 286.58 296.35C293 291.29 299.63 286.48 305.27 280.52C313.21 272.13 319.19 262.65 321.3 251.06C322.2 246.09 322.11 241.11 321.85 236.09C321.76 234.39 322.33 232.64 322.74 230.95C322.97 230 323.84 229.65 324.8 229.58C326.77 229.43 328.65 229.82 330.34 230.77C335.26 233.55 339.13 237.41 341.88 242.36C344.86 247.72 346.43 253.53 347.14 259.58C347.68 264.18 348.11 268.8 348.47 273.42C348.59 274.92 349.12 275.87 350.48 276.52C355.46 278.9 354.17 278.95 357.27 275.06C361.82 269.35 366.04 263.41 369.89 257.21C370.62 256.04 371.54 254.94 372.54 253.98C374.84 251.76 376.85 251.54 379.49 253.33C382.82 255.58 385.41 258.59 387.74 261.85C393.92 270.51 397.24 280.27 398.81 290.67C399.48 295.09 399.69 299.59 400.11 304.05L400.13 304.06Z" fill="#FF978C"/>
</g>
</svg>
