<svg width="826" height="600" viewBox="0 0 826 600" fill="none" xmlns="http://www.w3.org/2000/svg">
<g opacity="0.1">
<path d="M263.21 600.001C261.33 599.711 259.44 599.431 257.57 599.121C250.91 598.011 244.83 595.481 239.43 591.431C232.26 586.041 227.47 578.881 224.59 570.461C221.91 562.641 220.79 554.541 221.29 546.311C221.96 535.441 225.33 525.391 231.25 516.231C234.05 511.891 237.16 507.801 240.82 504.121C243.31 501.621 245.58 498.891 248.13 496.451C253.62 491.231 259.24 486.141 264.79 480.981C265.76 480.081 266.68 479.121 267.62 478.191C268.34 477.471 268.38 476.731 267.94 475.791C266.36 472.461 266.19 472.271 262.62 472.721C260.73 472.961 258.83 473.361 257.03 473.951C245.83 477.631 234.67 481.441 223.46 485.081C218.28 486.761 213.12 488.481 207.66 489.181C198.11 490.391 190.45 487.181 184.51 479.721C180.05 474.121 177.16 467.651 174.59 461.051C171.64 453.451 169.7 445.551 169.18 437.441C168.58 428.091 168.84 418.701 171.39 409.591C172.74 404.781 174.36 400.041 176.16 395.381C177.44 392.061 179.84 389.371 182.25 386.771C186.12 382.601 190.5 379.001 194.94 375.471C197.86 373.151 201.15 373.051 204.33 374.441C206.86 375.551 209.34 377.031 211.42 378.831C223.26 389.091 231.15 401.891 235.47 416.951C237.63 424.491 239.18 432.141 239.65 439.951C240.08 447.001 240.01 454.081 240.22 461.141C240.27 462.881 240.54 464.621 240.73 466.651C241.86 466.481 242.71 466.451 243.52 466.221C251.25 464.061 258.99 461.931 266.69 459.661C279.34 455.931 291.95 452.101 304.58 448.321C315.3 445.111 326.02 441.851 336.76 438.691C351.39 434.381 366.03 430.121 380.68 425.891C388.82 423.541 396.92 421.031 405.16 419.081C413.18 417.191 421.3 415.651 429.45 414.451C437.96 413.211 446.56 412.541 455.12 411.661C462.02 410.951 468.88 410.041 475.32 407.221C480.41 404.991 485.15 402.221 489.31 398.481C498.87 389.851 504.84 379.131 507.58 366.651C509.67 357.141 508.22 347.911 504.47 339.001C502 333.121 498.63 327.791 494.73 322.761C492.93 320.441 491.42 317.901 489.83 315.421C488.38 313.161 488.7 310.961 490.29 308.781C491.87 308.641 493.07 309.501 494.15 310.481C498.62 314.531 502.12 319.321 505 324.601C509.52 332.881 512.1 341.781 512.8 351.121C513.78 364.111 511.9 376.671 506.21 388.551C502.79 395.681 498.31 401.981 492.66 407.491C490.13 409.951 487.79 412.611 485.38 415.191C485.06 415.541 484.85 416.001 484.41 416.691C485.8 416.961 486.91 417.231 488.05 417.401C496.28 418.621 504.54 419.671 512.74 421.051C521.77 422.581 530.29 425.521 537.65 431.221C543.1 435.441 546.9 440.871 549.32 447.271C551.43 452.841 552.25 458.611 552.34 464.581C552.5 475.081 551.06 485.281 547.65 495.211C545.57 501.281 542.55 506.871 537.99 511.401C532.68 516.681 526.21 519.941 518.69 520.841C506.43 522.301 494.43 520.881 482.7 517.181C468.07 512.571 453.89 506.741 439.68 501.021C424.78 495.021 409.94 488.891 395.02 482.961C391.96 481.751 388.7 480.921 385.45 480.371C379.12 479.301 373.92 481.611 370.25 486.791C367.1 491.231 364.22 495.861 361.39 500.511C355.55 510.141 349.93 519.921 344.02 529.511C335.3 543.691 326.41 557.761 317.58 571.871C315.86 574.621 314.12 577.351 312.38 580.091C308.36 586.421 302.46 590.491 295.81 593.551C289.07 596.661 281.94 598.481 274.59 599.421C273.14 599.611 271.7 599.811 270.25 600.001H263.18H263.21ZM295.98 494.581C295.76 494.421 295.55 494.261 295.33 494.101C295.57 493.361 295.75 492.611 296.04 491.901C300.1 481.861 304.18 471.831 308.23 461.791C308.57 460.951 308.76 460.061 309.09 458.981C306.76 458.841 304.92 459.351 303.27 460.321C300.73 461.811 298.16 463.291 295.83 465.071C290.27 469.311 284.76 473.631 279.37 478.081C275.29 481.451 271.38 485.041 267.44 488.581C264.1 491.581 260.78 494.601 257.52 497.681C255.33 499.751 253.19 501.901 251.16 504.121C248.18 507.381 245.38 510.801 242.38 514.031C237.34 519.461 233.67 525.701 231.11 532.601C228.26 540.281 227.24 548.251 227.34 556.461C227.49 568.891 235.47 580.081 246.71 585.011C252.63 587.611 258.94 588.421 265.27 588.411C270.39 588.411 275.56 587.791 280.62 586.951C288.24 585.681 295.51 583.251 301.65 578.311C303 577.231 304.29 575.871 305.1 574.371C306.41 571.921 307.56 569.321 308.31 566.651C309.75 561.531 310.18 556.291 309.76 550.931C309.35 545.671 308.44 540.551 306.65 535.611C303.84 527.821 299.7 521.021 292.38 516.551C286.43 512.921 280.05 511.271 273.16 512.241C262.01 513.801 254.2 519.911 249.94 530.311C246.94 537.651 247.58 544.871 251.55 551.761C252.9 554.101 254.89 555.661 257.46 556.461C261.64 557.761 265.76 557.231 269.85 556.011C274.34 554.661 275.91 551.991 274.83 547.451C274.42 545.731 273.89 544.041 273.35 542.361C272.84 540.771 273.11 539.321 273.95 537.921C274.79 536.501 275.37 536.321 276.8 537.221C278.45 538.261 279.26 539.941 279.92 541.661C282.08 547.311 281.74 552.901 279.5 558.461C276.84 565.071 271.67 568.261 264.86 568.881C258.82 569.431 253.69 567.451 250.03 562.361C249.39 561.461 248.64 560.631 248.04 559.711C245 555.011 242.39 550.131 242.94 544.291C243.23 541.151 243.67 537.981 244.4 534.921C245.8 529.121 247.5 523.401 248.99 517.621C249.43 515.901 250.22 514.501 251.54 513.341C256.2 509.231 261.09 505.471 266.93 503.151C271.75 501.241 276.75 500.291 281.86 501.361C294.94 504.111 303.91 512.091 309.5 523.971C313.65 532.791 314.66 542.341 315.35 551.921C315.57 555.051 315.47 555.051 318.48 555.591C318.7 555.631 318.91 555.681 319.13 555.711C321.79 556.141 321.83 556.161 323.17 553.821C329.41 542.881 335.63 531.931 341.86 520.991C347.69 510.751 353.52 500.511 359.36 490.281C362.35 485.031 365.36 479.801 368.35 474.551C369.45 472.621 369.26 472.131 367.19 471.621C362.75 470.531 358.32 469.441 353.87 468.411C350.75 467.691 350.68 467.771 350.1 470.811C350.03 471.171 349.95 471.531 349.88 471.891C347.48 484.711 342.25 496.141 333.3 505.751C332.63 506.471 331.85 507.081 331 507.851C330.16 506.481 330.41 505.301 330.56 504.171C331.48 497.051 333.76 490.361 337.6 484.331C340.8 479.311 344.41 474.551 347.83 469.671C348.15 469.221 348.4 468.731 348.84 468.001C344.01 465.651 339.56 463.041 334.39 462.171C332.58 461.861 330.8 462.261 329.38 463.431C327.52 464.971 325.7 466.601 324.05 468.371C320.59 472.081 317.35 476.001 313.84 479.671C310.89 482.751 307.81 485.741 304.55 488.481C301.87 490.731 298.85 492.571 295.97 494.591L295.98 494.581ZM335.78 448.111C336.91 448.651 337.59 449.041 338.31 449.321C348.88 453.441 359.45 457.551 370.03 461.661C392.42 470.351 414.8 479.041 437.19 487.731C447.42 491.701 457.65 495.681 467.89 499.641C468.47 499.861 469.09 499.961 469.88 500.161C469.92 499.381 470.02 498.881 469.97 498.401C469.56 494.521 469.06 490.651 468.71 486.771C468.1 480.081 468.01 473.391 468.84 466.711C469.76 459.281 472.18 452.361 476.45 446.191C480.09 440.921 484.77 436.671 490.01 433.031C490.65 432.591 491.24 432.081 492.22 431.311C491.16 430.861 490.54 430.541 489.89 430.341C487.92 429.731 485.94 429.171 483.95 428.601C475.74 426.251 467.55 423.871 458.98 423.021C451.24 422.251 443.86 423.391 436.65 426.051C435.51 426.471 434.45 427.101 433.02 427.791C438.12 432.471 442.95 436.901 447.78 441.331C447.68 441.501 447.58 441.671 447.47 441.831C446.73 441.611 445.98 441.401 445.24 441.161C443.84 440.701 442.44 440.241 441.05 439.761C435.33 437.801 429.68 435.711 424.62 432.251C423.12 431.231 421.39 430.461 419.65 429.901C414.57 428.241 409.47 428.651 404.44 430.251C399.25 431.911 394.07 433.621 388.89 435.321C388.52 435.441 388.2 435.741 387.68 436.081C388.3 436.491 388.69 436.801 389.13 437.031C396.04 440.511 403 443.871 409.84 447.481C415.26 450.341 420.28 453.841 424.9 457.881C426.02 458.861 427.26 459.811 428.05 461.381C427.42 461.481 427 461.631 426.59 461.611C422.77 461.431 418.92 461.471 415.14 460.981C403.91 459.521 393.67 455.351 384.29 449.061C380.99 446.851 377.8 444.451 374.63 442.071C371.75 439.911 368.65 438.961 365.09 439.891C364.38 440.081 363.64 440.171 362.93 440.361C354.55 442.661 346.17 444.971 337.8 447.301C337.27 447.451 336.77 447.721 335.78 448.131V448.111ZM205.92 477.991C212.08 478.271 217.68 476.711 223.17 474.711C228.62 472.731 232.03 468.881 233.35 463.151C234.58 457.801 234.85 452.371 234.85 446.931C234.85 443.781 234.43 440.621 234.08 437.481C232.81 426.121 229.38 415.461 223.47 405.661C220.31 400.431 216.94 395.301 212.14 391.351C206.55 386.751 200.1 385.401 193.47 389.111C185.16 393.761 179.96 401.091 177.14 410.011C174.44 418.561 173.36 427.351 174.27 436.381C175.41 447.681 178.88 458.101 185.23 467.501C187.6 471.011 190.68 473.851 194.57 475.721C198.23 477.481 202.09 478.251 205.92 477.981V477.991ZM547.22 469.181C546.99 466.691 546.94 464.181 546.5 461.731C544.72 451.761 539.81 443.901 530.71 438.991C526.92 436.951 522.94 436.051 518.57 436.651C509.43 437.891 500.72 440.541 492.38 444.361C483.16 448.591 477 455.601 474.44 465.521C472.25 474.001 472.81 482.491 474.94 490.871C476.89 498.541 481.46 504.211 488.86 507.241C497.94 510.961 507.36 512.731 517.16 510.951C524.35 509.651 530.58 506.331 535.35 500.811C543.15 491.781 547.07 481.191 547.22 469.191V469.181Z" fill="#FFB9DD"/>
<path d="M596.34 262.891C593.94 263.181 591.53 263.471 589.13 263.771C582.11 264.651 575.31 263.751 568.76 261.131C561.02 258.031 554.13 253.631 548.15 247.751C543.2 242.891 539.1 237.521 536.39 231.091C533.4 223.981 533.1 216.711 535.58 209.521C537.9 202.801 536.46 197.141 532.14 191.831C528.46 187.311 525.25 182.451 522.47 177.331C521.16 174.931 520.56 172.401 521.24 169.671C521.63 168.101 522.57 167.081 524.11 166.611C526.13 166.001 528.14 165.701 530.12 166.751C534.35 168.981 538.6 171.171 542.81 173.441C546.05 175.181 549.21 177.081 552.47 178.791C559.22 182.341 566.39 183.351 573.89 182.061C577.45 181.451 581.01 180.871 584.57 180.281C585.15 180.181 585.74 180.111 586.32 180.081C592.59 179.761 595.32 181.421 597.32 187.341C598.65 191.271 601.09 194.061 604.46 196.281C608.46 198.911 612.51 201.491 616.31 204.381C619.22 206.591 621.93 209.121 624.45 211.781C627.23 214.711 628.33 218.361 627.52 222.391C626.73 226.361 625.95 230.331 624.9 234.231C624.17 236.931 624.59 239.391 625.87 241.681C626.51 242.831 627.66 243.851 628.81 244.521C636.7 249.151 644.29 254.241 651.46 259.911C658.67 265.611 665.78 271.481 672.58 277.651C680.43 284.771 688.03 292.171 695.5 299.681C701.82 306.051 707.8 312.761 713.93 319.311C716.49 322.051 719.09 324.761 721.64 327.511C727.15 333.431 732.59 339.431 738.18 345.281C742.71 350.021 747.41 354.591 752.04 359.231C759.27 366.471 766.96 373.221 774.76 379.841C782.05 386.031 789.32 392.261 796.6 398.461C799.12 400.611 801.64 402.751 804.19 404.871C806.55 406.821 809.24 408.161 812.14 409.091C815.71 410.231 818.84 412.061 821.4 414.861C823.53 417.191 824.73 419.921 824.99 422.991C825.46 428.571 824.54 433.991 822.72 439.281C822.29 440.531 821.58 441.461 820.46 442.151C817.73 443.841 814.86 444.281 811.61 444.051C803.8 443.511 796.33 441.721 789.11 438.821C782.01 435.971 775.51 432.051 769.84 426.911C764.11 421.721 758.4 416.501 753.04 410.941C747.17 404.861 741.43 398.611 736.15 392.011C728.85 382.871 721.93 373.411 715.04 363.951C710.17 357.261 704.88 350.951 698.79 345.351C692.37 339.451 685.34 334.361 677.75 330.061C666.03 323.421 653.57 318.581 640.73 314.561C631.95 311.821 623.24 308.801 614.62 305.591C605.43 302.161 597.16 297.101 589.93 290.411C588.04 288.661 586.24 286.801 584.24 285.191C581.71 283.171 580.87 280.501 580.63 277.461C580.34 273.781 580.54 273.301 584.2 273.061C586.36 272.921 588.65 273.131 590.72 273.731C601.18 276.791 611.59 280.031 622.02 283.201C623.01 283.501 624 283.771 624.99 284.051C626.19 284.401 626.92 283.971 627.42 282.821C629.16 278.901 629.12 278.531 625.57 276.001C621.79 273.311 618.03 270.581 614.11 268.121C608.71 264.741 602.86 262.641 596.3 262.861L596.34 262.891ZM647.76 306.091C648.92 306.461 649.64 306.761 650.38 306.931C657.29 308.561 663.94 310.911 670.35 313.971C679.59 318.381 687.9 324.141 695.56 330.921C702.14 336.751 708.2 343.071 713.76 349.841C719.41 356.731 724.77 363.851 730.18 370.931C736.65 379.421 742.76 388.211 750.19 395.921C756.78 402.761 763.54 409.441 770.23 416.181C770.33 416.281 770.46 416.371 770.58 416.451C776.98 420.521 783.38 424.581 789.78 428.651C790.74 429.261 791.44 429.081 791.86 427.981C793.09 424.741 794.51 421.571 795.5 418.261C796.65 414.411 795.97 410.861 792.88 407.941C788.6 403.901 784.39 399.771 780.16 395.681C775.5 391.181 770.78 386.741 766.21 382.151C748.59 364.451 731.01 346.721 713.44 328.971C708.16 323.631 703.05 318.121 697.7 312.851C690.62 305.881 683.39 299.051 676.21 292.181C669.56 285.811 662.54 279.871 655.26 274.231C643.65 265.221 631.54 257.001 618.18 250.761C617.47 250.431 616.74 250.141 615.55 249.621C615.78 251.351 615.92 252.631 616.12 253.891C616.52 256.321 617.71 258.261 619.7 259.771C622.46 261.861 625.15 264.041 627.85 266.201C636.19 272.861 644.54 279.521 652.87 286.201C655.48 288.291 657.21 290.921 658.03 294.221C658.53 296.231 658.06 297.611 656.42 298.811C654.17 300.471 651.98 302.221 649.81 303.981C649.16 304.501 648.64 305.181 647.75 306.101L647.76 306.091ZM593.96 200.591C593.53 201.471 593.2 202.111 592.89 202.761C590.01 208.771 586.46 214.381 581.83 219.171C576.65 224.521 570.58 228.661 563.45 231.031C560.66 231.961 557.79 232.641 554.95 233.381C552.94 233.911 552.72 234.231 553.02 236.311C553.26 237.981 553.81 239.471 555.16 240.531C557.93 242.711 560.54 245.171 563.55 246.941C574.5 253.381 586.04 254.481 597.9 249.741C608.64 245.451 615.64 237.421 619.89 226.841C620.6 225.081 620.53 223.251 620.14 221.411C619.54 218.561 617.81 216.511 615.51 214.921C608.9 210.371 602.26 205.871 595.62 201.361C595.21 201.081 594.72 200.921 593.98 200.571L593.96 200.591Z" fill="#FFB9DD"/>
<path d="M-93.23 420.93C-93.23 415.65 -90.92 411.61 -86.98 408.29C-82.25 404.31 -77.42 400.42 -72.99 396.13C-64.83 388.22 -57.79 379.31 -51.22 370.06C-38.43 352.03 -26.87 333.2 -15.4 314.31C-5.15998 297.44 5.17003 280.62 15.65 263.9C23.05 252.1 31.37 240.95 40.3 230.25C46.25 223.12 52.48 216.26 59.12 209.78C61.01 207.93 63.05 206.23 64.93 204.36C66.18 203.12 67.24 201.7 68.41 200.37C69.25 199.4 69.34 198.48 68.53 197.4C66.89 195.22 65.21 193.06 63.78 190.75C62.47 188.64 61.27 186.42 60.35 184.11C58.61 179.77 59.29 175.43 61.65 171.59C63.72 168.23 66.32 165.18 68.81 162.1C70.98 159.41 73.35 156.88 75.59 154.25C78.01 151.41 79.54 148.05 81.02 144.67C82.29 141.76 83.57 138.84 85.82 136.53C87.3 135.01 88.88 133.57 90.54 132.25C92.18 130.94 94.15 131.44 96.07 131.5C100.32 131.63 104.63 131.95 108.83 131.5C117.69 130.54 125.22 126.33 131.85 120.6C135.45 117.48 138.71 113.95 142.03 110.52C144.82 107.63 147.94 105.17 151.42 103.24C152.79 102.48 154.48 102.23 156.05 101.9C157.15 101.67 157.81 102.24 158.03 103.43C158.46 105.71 158.62 107.94 157.68 110.16C155.62 115.04 153.59 119.94 151.56 124.84C151.19 125.72 150.9 126.64 150.55 127.53C147.64 134.94 148.51 142.11 151.84 149.14C154.07 153.84 155.54 158.76 155.79 163.99C156.12 170.76 154 176.93 150.84 182.77C147.88 188.25 144.1 193.15 139.54 197.39C129.5 206.72 117.78 212.7 104.09 214.39C100.05 214.89 96.08 215.39 92.31 217.07C87.1 219.39 83.26 223.35 79.59 227.48C76.85 230.56 74.32 233.82 71.7 236.99C70.56 238.37 70.52 238.75 71.47 240.32C71.66 240.64 71.87 240.94 72.07 241.25C73.7 243.87 73.73 243.94 76.35 242.54C83.17 238.9 89.91 235.11 96.77 231.56C102.85 228.41 109.03 225.46 115.21 222.51C116.45 221.92 117.86 221.6 119.22 221.34C120.86 221.03 121.69 221.51 122.43 223.02C123.43 225.07 123.34 227.21 122.46 229.23C121.85 230.63 121.1 232.08 120.06 233.16C114.48 238.91 108.91 244.69 103.08 250.19C98.27 254.73 93.22 259.04 88.06 263.18C81.84 268.17 74.82 271.96 67.94 275.95C60.24 280.42 52.49 284.85 45.02 289.68C40.72 292.46 36.79 295.87 32.9 299.24C21.75 308.87 13.41 320.65 7.09003 333.88C3.44003 341.52 0.0500183 349.28 -3.46998 356.98C-5.17998 360.73 -6.93997 364.46 -8.66998 368.2C-14.86 381.58 -21.37 394.78 -30.5 406.49C-39.6 418.16 -50.58 427.51 -63.82 434.25C-68.7 436.74 -73.98 438.11 -78.98 440.23C-82.28 441.63 -84.46 440.71 -86.66 437.77C-89.46 434.01 -91.58 429.9 -92.63 425.3C-92.96 423.88 -93.03 422.4 -93.21 420.94L-93.23 420.93ZM82.91 210.97C81.54 209.71 80.43 208.66 79.28 207.64C78.11 206.6 77.65 206.55 76.4 207.55C72.43 210.72 68.29 213.71 64.6 217.18C57.67 223.68 51.02 230.47 44.88 237.74C35.93 248.33 27.63 259.41 20.04 271C11.16 284.55 2.54002 298.28 -6.22998 311.9C-16.92 328.5 -27.65 345.06 -38.37 361.64C-39.13 362.82 -39.88 364 -40.66 365.16C-45.44 372.33 -50.23 379.49 -55.01 386.67C-57.86 390.96 -60.72 395.25 -63.51 399.59C-65.62 402.87 -65.75 406.28 -63.61 409.57C-61.93 412.16 -60.05 414.62 -58.26 417.15C-57.52 418.19 -56.62 418.28 -55.57 417.66C-55.19 417.44 -54.81 417.22 -54.42 417C-45.5 411.83 -38.59 404.56 -32.81 396.17C-27.15 387.96 -22.85 378.96 -18.23 370.17C-14.46 363 -11.04 355.65 -7.50998 348.36C-6.31998 345.91 -5.29998 343.38 -4.11998 340.92C-0.929977 334.29 2.03003 327.52 5.59003 321.09C12.93 307.87 22.09 296.03 33.58 286.06C38.1 282.14 42.83 278.55 47.82 275.27C51.51 272.85 55.1 270.27 58.72 267.74C59.22 267.39 59.61 266.88 60.33 266.18C59.27 265.7 58.59 265.31 57.85 265.07C55.05 264.15 52.22 263.32 49.43 262.38C47.7 261.8 47.44 261.31 47.63 259.61C48.1 255.34 49.5 251.44 52.18 248.05C55.19 244.24 58.12 240.35 61.22 236.62C66.43 230.33 71.75 224.13 77.03 217.9C78.88 215.72 80.73 213.54 82.89 211L82.91 210.97ZM142.52 176.7C141.17 176.6 140.39 176.5 139.6 176.49C137.02 176.47 134.44 176.52 131.87 176.49C122.28 176.34 113.46 173.66 105.36 168.53C98.8 164.38 93.43 158.99 88.75 152.85C88.29 152.25 87.71 151.74 87.07 151.07C86.58 151.72 86.24 152.09 85.98 152.52C82.21 158.96 78.02 165.06 72.59 170.27C70.91 171.89 69.41 173.76 68.11 175.71C65.97 178.9 66.26 181.81 68.99 184.5C70.97 186.46 73.08 188.34 75.34 189.96C80.53 193.69 85.58 197.68 91.59 200.13C102.94 204.75 113.88 203.99 124.38 197.61C131.23 193.45 136.24 187.56 140.34 180.81C141.05 179.64 141.63 178.4 142.52 176.72V176.7Z" fill="#FFB9DD"/>
<path d="M214.22 316.49C214.2 303.03 217.3 290.24 222.12 277.89C226.8 265.89 232.04 254.1 236.99 242.2C240.85 232.93 244.17 223.49 245.77 213.53C247.26 204.26 246.92 195.07 244.73 185.93C244.38 184.45 244.24 182.86 244.35 181.35C244.52 178.95 245.81 177.91 248.17 178.05C250.12 178.16 251.91 178.74 253.38 180.15C256.93 183.58 260.5 186.97 264.07 190.38C267.58 193.74 271.08 197.11 274.6 200.46C275.94 201.73 276.27 201.68 277.42 200.31C284.26 192.14 290.13 183.34 294.51 173.59C299.18 163.21 302.66 152.42 305.15 141.32C307.72 129.88 309.47 118.31 310.89 106.68C311.42 102.3 311.81 97.9 312.34 93.51C312.51 92.13 312.84 90.75 313.3 89.44C314.04 87.33 315.46 86.67 317.46 87.66C319.3 88.57 321.11 89.65 322.68 90.95C327.33 94.79 332.08 98.56 336.37 102.78C341.99 108.3 347.02 114.37 351.63 120.78C358.5 130.32 364.24 140.52 369.2 151.15C374.91 163.39 379.34 176.12 382.97 189.13C386.08 200.28 388.68 211.55 390.82 222.92C391.28 225.38 392.43 227.47 393.65 229.58C394.16 230.47 394.84 230.59 395.7 230.26C397.08 229.73 398.47 229.25 399.81 228.65C407.23 225.35 413.91 220.9 419.42 214.94C422.75 211.33 425.55 207.23 428.64 203.39C429.97 201.73 431.35 200.1 432.85 198.59C434.21 197.23 434.8 197.35 435.63 199.09C437.21 202.41 438.77 205.75 440.19 209.15C444 218.25 447.87 227.34 451.47 236.53C456.6 249.63 461.62 262.77 466.46 275.98C469.05 283.06 470.31 290.43 470.65 298.02C471.15 309.1 469.44 319.75 465.27 329.97C462.05 337.85 457.62 345.02 451.97 351.48C445.45 358.94 437.75 364.87 429.47 370.19C421.4 375.37 413.15 380.23 404.59 384.51C390.52 391.55 375.89 397.19 360.61 401.02C351.03 403.42 341.32 405.13 331.46 405.99C324.78 406.57 318.1 407.03 311.4 406.79C300.35 406.4 289.33 405.74 278.7 402.28C271.81 400.04 265.24 397.09 259.02 393.37C252.03 389.19 245.61 384.24 239.97 378.39C227.22 365.17 218.8 349.62 215.74 331.41C214.92 326.5 214.73 321.47 214.25 316.5L214.22 316.49ZM318.33 100.66C318.04 101.7 317.74 102.52 317.59 103.36C316.83 107.71 316.09 112.07 315.37 116.43C312.81 131.83 310.3 147.24 305.7 162.22C301.78 174.96 296.57 187.1 289.22 198.26C286.1 203 282.6 207.45 278.78 211.66C276.87 213.77 274.89 215.66 272.29 216.83C270.58 217.6 270.29 217.45 269.45 215.7C266.2 208.93 262.92 202.17 259.65 195.41C259.49 195.08 259.31 194.76 259.13 194.43C258.76 193.76 258.25 193.57 257.47 193.74C253.91 194.55 252.66 195.89 252.23 199.55C252.15 200.28 252.18 201.02 252.14 201.76C251.97 204.84 251.92 207.94 251.6 211.01C250.71 219.54 248.8 227.85 246.1 235.99C242.32 247.41 237.19 258.27 232.31 269.23C228.86 276.97 225.61 284.79 223.29 292.96C220.14 304.03 219.36 315.31 220.95 326.66C223.18 342.58 230.5 356.09 241.53 367.63C246.23 372.54 251.57 376.71 257.25 380.43C272.49 390.41 289.31 395.38 307.42 396.18C315.46 396.54 323.47 395.88 331.41 394.68C345.63 392.54 359.65 389.49 373.44 385.36C389.31 380.6 404.52 374.3 418.7 365.7C429.42 359.2 439.76 352.17 448.02 342.51C452.95 336.75 457.06 330.49 459.91 323.48C464.02 313.35 465.6 302.83 464.44 291.89C463.74 285.26 462.54 278.74 460.04 272.57C457.13 265.41 453.89 258.39 450.72 251.34C449.03 247.58 447.21 243.88 445.45 240.15C442.31 233.49 439.19 226.82 436.01 220.18C435.58 219.28 434.87 218.46 434.13 217.77C433.36 217.05 432.41 217.04 431.51 217.73C429.94 218.94 428.4 220.19 426.77 221.33C418.68 226.98 410.6 232.65 402.43 238.18C399.76 239.99 396.91 241.58 394.01 243C391.38 244.29 389.94 243.61 388.75 240.91C388.34 239.97 388.03 238.97 387.8 237.97C387.37 236.11 386.98 234.23 386.65 232.34C383.21 212.65 378.69 193.23 371.81 174.41C366.94 161.08 360.85 148.35 353.09 136.46C347.03 127.17 340.1 118.58 331.92 111.08C328.02 107.51 323.67 104.44 319.52 101.15C319.3 100.98 319 100.91 318.33 100.62V100.66Z" fill="#FFB9DD"/>
<path d="M662.04 207.56C661.57 205.37 661 203.4 660.78 201.38C660.68 200.53 661.13 199.49 661.63 198.73C666.24 191.71 669.15 184.06 670.1 175.72C671.19 166.16 669.73 157.04 664.76 148.69C658.14 137.58 648.24 130.71 636 127.04C633.68 126.34 631.28 125.89 628.88 125.55C626.28 125.19 624.15 124.03 622.23 122.35C621.57 121.77 620.89 121.21 620.21 120.64C618.83 119.49 618.79 119.31 619.82 117.72C620.38 116.86 621.05 116.06 621.62 115.2C622.48 113.91 623.68 113.24 625.14 112.72C628.11 111.66 631.16 110.66 633.9 109.14C644.65 103.17 648.95 92.5397 647.57 80.7597C646.22 69.3097 641.02 59.8697 632.99 51.7297C624.67 43.2997 614.63 38.0597 603.35 34.9697C596.58 33.1197 589.67 32.2597 582.65 31.8297C569.03 30.9897 555.94 33.1297 543.31 38.1197C532.8 42.2697 523.42 48.2797 514.94 55.7597C512.2 58.1797 509.72 60.9997 506.14 62.3197C505.67 62.4897 505.2 62.6797 504.46 62.9497C503.46 59.9697 502.93 57.1097 503.69 54.0797C505.12 48.4097 505.21 42.6997 503.75 37.0397C500.32 23.7897 489.04 12.8697 474.18 11.6897C464.36 10.9097 455.8 14.1397 448.59 20.9297C441.02 28.0597 437.44 36.8497 437.42 47.1597C437.42 48.8397 437.74 50.5297 437.94 52.2097C438.21 54.4597 437.15 56.1297 435.76 57.7197C434.41 57.3297 433.69 56.4697 433.39 55.3897C432.73 52.9897 431.93 50.5697 431.72 48.1097C431.12 41.0697 432.54 34.3197 435.32 27.8597C438.13 21.3197 441.7 15.2397 446.91 10.2697C457.6 0.049674 469.97 -2.64033 483.77 2.62967C495.45 7.08967 502.84 15.8597 506.97 27.4797C508.43 31.5697 509.59 35.7597 510.89 39.9097C511.04 40.3997 511.18 40.8997 511.35 41.3897C512.2 43.9097 512.45 43.9597 514.7 42.6197C521.34 38.6697 527.85 34.4597 534.71 30.9097C545.11 25.5297 556.18 22.0097 567.87 20.5797C579.45 19.1597 590.8 20.2797 601.93 23.6697C610.57 26.2997 618.76 29.9497 626.32 34.9197C638.86 43.1597 648.01 54.0397 652.31 68.6497C653.74 73.4997 654.08 78.4597 654.13 83.4897C654.21 92.3797 651.12 100.36 647.48 108.23C646.3 110.77 645.19 113.34 644.12 115.92C643.42 117.61 643.49 117.84 645.04 118.79C649.32 121.41 653.38 124.35 657.05 127.76C659.14 129.71 661.12 131.82 662.91 134.05C668.78 141.35 672.69 149.61 674.45 158.84C675.5 164.34 676.3 169.89 676.07 175.51C675.65 185.56 673 194.96 667.42 203.43C665.93 205.7 665.36 206.13 662.04 207.55V207.56Z" fill="#FFB9DD"/>
<path d="M607.39 435.19C606.41 431.7 606.14 428.43 608.11 425.31C611.85 419.41 616.76 414.94 623.54 412.76C629.6 410.81 635.71 410.64 641.83 412.31C649.24 414.33 654.3 419.21 657.99 425.79C660.66 430.55 662.02 435.73 663.31 440.96C664.07 444.06 664.09 444.16 667.18 443.94C671.07 443.67 674.94 443.22 678.82 442.84C685.86 442.14 692.92 441.65 699.96 442.6C709.57 443.9 717.05 448.92 722.45 456.79C728.29 465.32 731.36 474.9 731.29 485.27C731.23 493.84 728.3 501.57 723.13 508.42C722.01 509.9 720.54 510.79 718.74 511.18C717.87 511.37 717.3 511.09 717.04 510.23C716.18 507.35 715.63 504.65 717.97 501.97C721.78 497.6 723.98 492.41 724.85 486.66C726.16 477.99 723.72 470.36 717.93 464C711.7 457.17 703.66 453.52 694.5 452.33C684.87 451.07 675.94 453.51 667.31 457.44C664.69 458.63 662.17 460.01 659.27 460.44C657.32 460.73 657.1 460.53 656.45 458.62C655.39 455.55 656.16 452.52 656.36 449.44C656.57 446.23 656.69 442.94 656.24 439.78C655.39 433.84 652.11 429.32 646.99 426.17C639.29 421.43 631.31 421.15 623.11 424.72C619.15 426.44 615.73 428.98 612.67 432.03C610.65 434.04 609.65 434.66 607.4 435.21L607.39 435.19Z" fill="#FFB9DD"/>
<path d="M190.1 434.579C190.17 427.999 191.23 421.649 193.93 415.639C194.8 413.709 195.88 411.819 197.15 410.129C197.9 409.129 199.19 408.519 200.29 407.809C200.93 407.399 201.62 407.529 201.95 408.289C202.92 410.569 203.86 412.989 202.31 415.259C199.31 419.639 198.43 424.749 196.93 429.659C196.08 432.429 195.76 435.299 196.03 438.179C196.19 439.849 196.48 441.549 197.05 443.119C198.24 446.419 200.89 447.929 204.36 447.379C205.42 447.209 206.51 446.809 207.45 446.289C210.31 444.699 210.48 444.209 209.97 440.979C209.46 437.779 208.97 434.579 208.53 431.369C208.41 430.499 208.44 429.609 208.44 428.729C208.44 427.619 209.09 427.009 210.11 426.669C211.13 426.319 212.1 426.409 212.67 427.339C214.86 430.909 217.12 434.449 219.02 438.169C219.57 439.249 219.13 440.899 218.96 442.269C218.43 446.809 217.03 451.039 214.07 454.619C209.7 459.889 202.23 460.999 196.99 455.799C193.37 452.209 191.44 447.869 190.8 442.929C190.44 440.169 190.32 437.369 190.1 434.589V434.579Z" fill="#FFB9DD"/>
<path d="M496.21 482.969C496.53 473.299 500.43 465.389 508 459.329C508.74 458.739 509.59 458.269 510.44 457.839C513.95 456.059 516.77 457.749 516.93 461.709C516.99 463.249 516.93 464.799 516.96 466.349C517.01 468.609 517.23 468.739 519.38 469.279C522.23 469.989 525.11 470.659 527.84 471.709C533.81 473.989 536.53 479.239 535.28 485.529C534.18 491.059 531.04 495.219 526.37 498.149C521.06 501.479 515.31 502.819 509.06 501.219C501.04 499.169 496.99 492.979 496.22 485.399C496.14 484.599 496.21 483.779 496.21 482.969Z" fill="#FFB9DD"/>
<path d="M400.13 304.06C399.99 316.54 397.5 328.4 391.87 339.53C387.72 347.74 381.9 354.62 374.8 360.42C365.66 367.88 355.28 372.72 343.73 375.08C334.86 376.89 326.04 376.5 317.21 374.53C309.21 372.75 301.32 370.64 293.78 367.39C287.04 364.48 280.73 360.87 275.68 355.4C270.32 349.59 267.09 342.81 266.27 334.9C265.27 325.25 268.2 316.78 273.69 308.98C277.22 303.97 281.83 300.09 286.58 296.35C293 291.29 299.63 286.48 305.27 280.52C313.21 272.13 319.19 262.65 321.3 251.06C322.2 246.09 322.11 241.11 321.85 236.09C321.76 234.39 322.33 232.64 322.74 230.95C322.97 230 323.84 229.65 324.8 229.58C326.77 229.43 328.65 229.82 330.34 230.77C335.26 233.55 339.13 237.41 341.88 242.36C344.86 247.72 346.43 253.53 347.14 259.58C347.68 264.18 348.11 268.8 348.47 273.42C348.59 274.92 349.12 275.87 350.48 276.52C355.46 278.9 354.17 278.95 357.27 275.06C361.82 269.35 366.04 263.41 369.89 257.21C370.62 256.04 371.54 254.94 372.54 253.98C374.84 251.76 376.85 251.54 379.49 253.33C382.82 255.58 385.41 258.59 387.74 261.85C393.92 270.51 397.24 280.27 398.81 290.67C399.48 295.09 399.69 299.59 400.11 304.05L400.13 304.06Z" fill="#FFB9DD"/>
</g>
</svg>
