<svg width="793" height="601" viewBox="0 0 793 601" fill="none" xmlns="http://www.w3.org/2000/svg">
<g opacity="0.1">
<path d="M109.14 326.071C109.14 321.091 109.09 316.111 109.18 311.131C109.2 310.281 109.57 309.201 110.17 308.631C120.74 298.471 132.3 289.621 145.16 282.501C163.66 272.261 183.56 266.721 204.52 264.651C216.44 263.481 228.38 263.191 240.34 263.361C250.83 263.511 261.32 263.721 271.8 264.081C285.83 264.561 299.79 263.961 313.72 262.281C315.58 262.061 317.15 261.451 318.62 260.211C332.31 248.701 348.36 242.851 365.92 240.821C378.59 239.351 391.28 239.331 404 240.351C413.44 241.111 422.7 239.561 431.9 237.561C440.83 235.611 449.75 233.591 458.74 231.921C466.22 230.541 473.77 230.401 481.29 231.991C483.32 232.421 484.52 233.381 485.34 235.341C506.61 286.181 528.32 336.831 549.05 387.891C557.68 409.151 567.73 429.751 576.43 450.951C580.56 461.001 584.1 471.241 586.1 481.961C586.66 484.981 585.99 486.351 583.13 487.431C581.44 488.071 579.63 488.381 577.9 488.931C576.07 489.521 574.16 490.021 572.48 490.921C570.28 492.101 570.01 494.041 571.42 496.101C571.59 496.341 571.77 496.571 571.93 496.821C575.14 501.481 574.76 506.281 570.86 510.421C566.92 514.601 561.96 517.261 556.82 519.601C547.02 524.061 536.73 527.101 526.34 529.821C501.47 536.331 476.18 540.751 450.9 545.271C432.2 548.611 413.51 551.981 394.86 555.531C388.59 556.721 382.29 558.071 376.27 560.131C369.58 562.421 362.83 563.861 355.86 564.911C340.76 567.181 326.13 571.561 311.44 575.611C288.72 581.871 266.04 588.251 243.26 594.301C231.76 597.361 220.04 599.631 208.13 600.361C202.79 600.691 197.35 600.311 192.02 599.681C189.4 599.371 186.84 597.941 184.43 596.671C183.54 596.201 182.79 594.801 182.63 593.731C181.56 586.421 179.69 584.741 172.33 584.691C169.41 584.671 166.42 584.791 163.59 584.241C161.71 583.871 159.93 582.551 158.32 581.371C157.59 580.831 157.12 579.611 156.98 578.641C153.14 551.731 147.15 525.271 140.66 498.901C133.82 471.121 126.88 443.371 120.31 415.531C115.93 396.981 112.57 378.211 110.67 359.231C109.56 348.221 109.06 337.151 108.28 326.111L109.13 326.081L109.14 326.071ZM387.69 542.821C387.45 541.711 387.34 541.051 387.15 540.411C381.95 522.941 376.74 505.461 371.52 487.991C363.79 462.151 356.32 436.241 348.24 410.511C339.06 381.291 328.53 352.561 315.5 324.801C308.56 310.031 300.91 295.651 291.91 282.021C290.96 280.581 289.82 279.801 288.11 279.551C283.53 278.881 278.97 278.041 274.39 277.381C252.73 274.241 231.01 271.991 209.07 272.951C199.09 273.391 189.2 274.391 179.45 276.591C168.08 279.151 157.28 283.131 147.7 289.911C134.17 299.491 126.05 312.711 122 328.611C117.69 345.501 117.85 362.631 119.3 379.811C120.53 394.311 122.67 408.711 125.78 422.911C131.04 446.961 136.7 470.931 142.22 494.921C147.61 518.341 153.04 541.761 158.44 565.181C159.07 567.921 159.17 568.251 162.01 568.241C167.57 568.231 173.16 568.271 178.69 567.771C190.9 566.671 202.74 563.681 214.27 559.621C228.03 554.761 241.67 549.541 255.33 544.411C270.71 538.631 286.14 533.071 302.31 529.831C315.9 527.111 329.57 526.051 343.39 527.751C358.38 529.591 372.35 534.451 385.47 541.861C386.04 542.181 386.68 542.391 387.71 542.831L387.69 542.821ZM579.49 480.211C579.13 478.841 578.93 477.891 578.62 476.991C567.02 442.631 553.18 409.151 538.96 375.821C520.44 332.411 500.99 289.401 483.66 245.491C483.17 244.241 482.35 243.661 481.09 243.431C475.23 242.331 469.29 241.881 463.41 242.631C454.35 243.781 445.32 245.241 436.32 246.851C424.72 248.921 413.18 251.321 401.29 250.921C396.67 250.761 392.04 250.751 387.43 250.851C376.16 251.111 364.96 252.151 353.91 254.421C343.57 256.551 333.56 259.591 324.81 265.811C317.72 270.841 312.8 277.401 310.5 285.861C309.98 287.771 309.85 289.571 310.51 291.531C317.28 311.461 323.93 331.431 330.73 351.351C342.03 384.471 353.36 417.591 364.79 450.671C373.32 475.381 382.02 500.041 390.68 524.711C391.51 527.081 392.54 529.401 393.7 531.631C394.56 533.291 395.74 533.351 396.84 531.851C398.05 530.201 399.07 528.411 400.09 526.641C404.24 519.411 409.29 512.931 415.55 507.391C426 498.151 438.15 491.941 451.27 487.511C473.06 480.161 495.63 477.811 518.46 477.291C525.9 477.121 533.35 477.241 540.78 477.591C551.19 478.091 561.59 478.921 571.99 479.621C574.35 479.781 576.71 480.001 579.5 480.221L579.49 480.211ZM402.79 544.121C459.13 531.341 515.03 518.811 570.84 505.511C569.52 504.311 568.23 503.431 566.86 502.671C559.58 498.631 551.79 495.891 543.72 493.951C528.01 490.181 512.08 488.751 495.93 489.281C482.93 489.711 470.1 491.251 457.52 494.581C443.68 498.241 430.59 503.581 419.59 513.081C410.89 520.601 405.01 529.841 402.98 541.301C402.85 542.021 402.87 542.761 402.79 544.131V544.121ZM185.73 582.501C186.9 583.751 187.62 584.911 188.65 585.521C190.39 586.561 192.27 587.501 194.21 588.041C198.66 589.281 203.25 589.291 207.83 588.981C218.63 588.251 229.25 586.311 239.67 583.521C261.13 577.771 282.5 571.721 303.91 565.801C315.61 562.571 327.26 559.051 339.35 557.691C346.73 556.861 353.97 555.621 361.04 553.461C363.49 552.711 365.92 551.721 368.13 550.461C370.86 548.901 370.77 546.621 367.91 545.391C365.03 544.151 361.99 543.011 358.91 542.541C351.68 541.441 344.4 540.441 337.11 540.011C329.52 539.561 321.87 539.601 314.27 539.891C309.86 540.061 305.36 540.741 301.11 541.911C277.38 548.481 253.72 555.291 230.51 563.551C216.25 568.621 202.23 574.281 188.6 580.881C187.78 581.281 187.01 581.781 185.72 582.511L185.73 582.501Z" fill="#FFD234"/>
<path d="M565.9 113.781C564.58 110.161 562.55 107.301 560.26 104.651C549.74 92.4312 531.39 89.5212 517.75 98.1112C508.16 104.141 504.36 113.201 504.94 124.341C505.18 128.951 505.74 133.651 505.15 138.181C503.47 151.241 495.27 159.301 482.23 161.451C470.54 163.381 459.47 161.021 448.82 156.351C438.42 151.791 429.49 145.311 423.28 135.571C416.47 124.891 416.93 113.991 422.87 103.241C427.02 95.7212 434.92 92.4112 443.4 93.9812C452.39 95.6412 459.24 100.731 465.05 107.461C468.57 111.531 471.17 116.191 473.4 121.051C475.03 124.601 474.47 128.281 473.89 131.951C473.26 135.941 472.62 139.931 472 143.921C471.62 146.361 472.72 147.851 474.89 148.931C479 150.981 483.19 152.451 487.88 151.811C493.95 150.991 498.22 146.111 498.21 139.971C498.19 129.991 498.46 120.041 500.68 110.251C501.91 104.841 503.81 99.7012 506.95 95.0612C510.09 90.4012 514.2 86.8312 519.45 84.9212C523.67 83.3812 528.04 82.0612 532.46 81.2912C539.07 80.1312 545.01 82.3812 550.23 86.3512C553.53 88.8612 556.58 91.7212 559.63 94.5512C564.27 98.8512 568.76 103.311 573.4 107.621C578.48 112.351 584.58 114.241 591.49 114.581C602.43 115.121 613.36 115.981 624.26 117.041C635.12 118.101 645.67 120.511 655.28 126.011C661.57 129.611 666.95 134.271 671.33 140.031C672.43 141.471 673.69 142.311 675.42 142.791C679.57 143.941 683.46 145.711 686.83 148.471C691.44 152.251 693.8 157.181 694.37 163.051C695.17 171.171 693.12 178.871 690.91 186.551C690.72 187.231 690.51 187.901 690.27 188.561C688.02 194.921 686.52 201.211 687.21 208.221C688.41 220.431 684.29 231.201 675.9 240.231C670.1 246.471 663.04 250.921 655.3 254.361C643.82 259.461 631.71 262.051 619.26 263.211C601.3 264.891 583.54 263.611 566.05 259.221C553.33 256.021 541.25 251.291 530.73 243.221C524.29 238.281 519.1 232.301 516.44 224.481C513.35 215.401 514.82 206.681 518.73 198.181C521.92 191.241 526.46 185.221 531.44 179.481C532.21 178.591 532.84 177.431 533.15 176.301C534.81 170.111 535.86 163.821 535.88 157.381C535.9 152.871 536.06 148.361 535.82 143.861C535.29 133.731 539.88 126.631 548.57 122.021C553.43 119.441 558.5 117.271 563.48 114.921C564.21 114.581 564.94 114.241 565.89 113.791L565.9 113.781ZM540.16 154.671C540.06 155.681 539.9 156.361 539.93 157.041C540.14 161.071 540.08 165.151 540.69 169.121C543.86 189.801 554.8 204.851 574.01 213.391C590.09 220.541 606.63 220.851 623.26 215.341C632.95 212.131 641.35 206.771 648.14 199.071C658.89 186.891 662.74 172.361 662.45 156.461C662.44 155.811 662.19 155.151 662.02 154.341C661.12 154.591 660.45 154.751 659.8 154.971C655.87 156.331 651.98 157.831 648.01 159.061C626.84 165.651 605.23 167.601 583.2 165.071C569.27 163.471 555.79 160.021 542.62 155.271C541.9 155.011 541.12 154.891 540.16 154.661V154.671ZM540.85 185.631C540.28 185.881 539.98 185.951 539.76 186.111C533.37 190.951 527.41 196.241 523.36 203.291C518.22 212.231 518.99 220.661 525.85 228.031C528.22 230.571 531.03 232.811 533.96 234.701C543.08 240.601 553.27 243.961 563.77 246.381C580.18 250.181 596.81 251.721 613.66 251.071C624.71 250.641 635.59 249.241 646.32 246.501C660.1 242.971 671.45 236.021 679.16 223.811C680.46 221.751 681.66 219.521 682.35 217.211C685.12 207.931 679.83 199.021 670.61 197.601C663.65 196.531 657.51 198.841 652.33 203.491C649.59 205.951 647.16 208.761 644.49 211.301C637.74 217.721 630.25 223.131 621.83 227.181C611.53 232.141 600.74 234.331 589.38 232.231C576.64 229.881 566.72 222.751 558.33 213.241C551.65 205.661 546.51 197.081 542.16 188.001C541.79 187.231 541.33 186.501 540.84 185.631H540.85ZM678.11 184.861C678.47 184.631 678.79 184.481 679.04 184.251C681.24 182.151 683.51 180.111 685.59 177.891C687.26 176.101 688.85 174.181 690.17 172.131C692.35 168.761 691.81 166.081 688.75 163.461C688.48 163.231 688.22 163.001 687.92 162.811C682.93 159.641 677.93 156.471 672.93 153.331C672.56 153.101 672.09 153.041 671.7 152.911C662.92 165.421 665.1 177.701 678.11 184.871V184.861ZM456.63 116.971C450.67 125.391 444.68 133.851 438.69 142.311C438.79 142.581 438.89 142.841 438.99 143.111C443.96 144.091 448.89 145.321 453.9 145.961C456.57 146.301 458.82 144.701 460.3 142.311C461.5 140.371 462.79 138.491 463.95 136.531C464.72 135.231 465.51 133.891 466.01 132.471C468.28 126.091 463.72 118.331 456.62 116.981L456.63 116.971Z" fill="#FFD234"/>
<path d="M676.61 45.2607C676.81 43.6707 676.88 42.0507 677.22 40.5007C678.79 33.3807 682.33 27.1907 686.54 21.3507C691.79 14.0607 697.96 7.6907 705.58 2.8207C706.86 2.0007 708.25 1.3607 709.6 0.660702C709.84 0.540702 710.15 0.560703 710.69 0.470703C710.69 1.9307 710.87 3.3107 710.66 4.6307C709.73 10.5207 707.27 15.8307 704.21 20.8707C698.67 30.0107 691.84 37.9507 682.46 43.3907C680.83 44.3407 679.01 44.9707 677.28 45.7507C677.06 45.5907 676.83 45.4307 676.61 45.2607Z" fill="#FFD234"/>
<path d="M-24.6801 362.36C-11.2601 344.81 17.2099 334.6 37.2299 340.88C16.3899 348.29 -4.02005 355.54 -24.4401 362.8C-24.5201 362.65 -24.6001 362.5 -24.6801 362.35V362.36Z" fill="#FFD234"/>
<path d="M33.96 268.981C33.09 268.871 32.13 268.961 31.36 268.631C27.03 266.721 22.6 264.951 18.46 262.671C7.89999 256.841 -2.52001 250.751 -12.99 244.761C-13.24 244.621 -13.46 244.441 -14.01 244.051C-13.25 243.851 -12.8 243.681 -12.33 243.621C-5.13001 242.551 1.77999 243.841 8.52999 246.301C14.51 248.481 19.81 251.711 24.19 256.381C27.19 259.581 30.23 262.751 33.18 265.991C33.75 266.621 34 267.551 34.4 268.341C34.26 268.551 34.11 268.771 33.97 268.981H33.96Z" fill="#FFD234"/>
<path d="M84.0399 205.661C84.1899 203.471 83.9099 201.101 86.4499 200.061C88.2999 199.301 92.2299 200.991 93.3699 203.261C95.1899 206.861 96.8499 210.561 98.3099 214.321C99.6299 217.701 100.61 221.211 101.7 224.681C102.64 227.661 100.01 230.621 96.9799 229.731C95.3899 229.261 93.7299 228.221 92.6299 226.971C87.2999 220.891 84.9199 213.561 84.0399 205.671V205.661Z" fill="#FFD234"/>
<path d="M792.9 179.29C786.61 180.47 780.38 181.74 774.11 182.78C771.65 183.19 769.09 183.34 766.6 183.2C765.11 183.12 763.46 182.53 762.23 181.68C759.78 179.98 759.88 177.78 762.23 175.99C766.96 172.39 772.42 171.64 778.09 172.32C783.38 172.95 788.1 175.13 792.22 178.54C792.51 178.78 792.74 179.1 792.92 179.29H792.9Z" fill="#FFD234"/>
<path d="M776.58 97.4807C775.7 98.1007 775.06 98.6807 774.32 99.0507C769.23 101.551 764.12 104.011 759.01 106.471C757.22 107.331 755.42 108.191 753.62 109.021C752.13 109.711 750.14 108.681 749.14 106.721C748.49 105.461 748.89 104.331 750.61 103.501C752.12 102.771 753.74 102.161 755.38 101.801C762.33 100.311 769.31 98.9407 776.59 97.4707L776.58 97.4807Z" fill="#FFD234"/>
<path d="M255.72 495.54C255.74 504.24 252.16 509.87 247.01 514.65C239.72 521.41 230.92 525.76 221.92 529.65C215.19 532.56 208.6 535.66 202.42 539.67C198.86 541.98 194.89 543.46 190.62 544C185.54 544.64 181.39 543 178.27 538.9C174.91 534.47 173.3 529.27 172.55 523.93C171.41 515.82 170.74 507.64 169.97 499.48C169.04 489.51 168.25 479.53 167.31 469.56C167.18 468.13 167.71 467.28 168.8 466.68C174.39 463.61 179.82 460.17 185.65 457.64C196.95 452.72 208.82 450.11 221.25 450.82C227.13 451.16 232.72 452.54 237.8 455.62C245.87 460.52 249.5 468.14 250.67 477.16C251.05 480.07 251.47 482.85 252.89 485.55C254.72 489.04 255.78 492.85 255.71 495.54H255.72ZM230.36 458.33C229.7 458.49 229.14 458.63 228.58 458.77C223.98 459.93 219.41 461.22 214.78 462.21C207.68 463.73 200.5 464.9 193.42 466.51C188.25 467.69 183.33 469.67 179.33 473.33C178.5 474.09 177.69 475.33 177.64 476.39C177.16 485.57 176.65 494.75 176.56 503.94C176.5 509.87 177.43 515.74 179.85 521.27C182.61 527.59 188.01 530.74 194.79 529.88C196.64 529.65 198.48 529.22 200.27 528.68C205.7 527.05 210.57 524.23 215.41 521.34C219.62 518.83 223.97 516.54 228.24 514.11C232.67 511.6 237.21 509.26 241.44 506.44C245.79 503.54 247.47 499.12 246.46 494C245.73 490.28 244.63 486.61 243.46 483C240.74 474.66 237.28 466.67 231.6 459.83C231.2 459.34 230.8 458.85 230.36 458.31V458.33Z" fill="#FFD234"/>
<path d="M144.2 340.311C145.2 339.421 145.88 338.471 146.81 338.051C152.07 335.621 157.24 332.921 162.7 331.031C189.15 321.891 216.28 315.521 244.05 311.991C253.25 310.821 262.5 310.181 271.75 311.221C274.52 311.531 277.23 312.381 279.94 313.101C280.8 313.331 281.57 313.911 282.74 314.521C281.81 315.491 281.24 316.441 280.4 316.921C276.79 318.951 273.25 321.261 269.4 322.711C256.41 327.601 242.98 330.451 229 330.041C227.71 330.001 226.42 329.951 225.15 329.771C221.52 329.281 218.12 328.311 215.84 324.831C215.04 325.091 214.25 325.271 213.53 325.591C206.34 328.891 199.19 332.291 191.96 335.501C183.63 339.201 174.94 341.431 165.77 341.641C160.39 341.761 155.01 342.131 149.62 342.251C147.85 342.291 146 342.131 144.19 340.301L144.2 340.311Z" fill="#FFD234"/>
<path d="M200.78 428.181C199.77 428.411 198.99 428.581 198.2 428.771C188.24 431.201 178.29 433.661 168.32 436.031C167.21 436.291 165.97 436.071 164.8 436.071C164.72 435.871 164.63 435.671 164.55 435.471C165.23 434.921 165.84 434.221 166.6 433.841C170.47 431.891 174.3 429.821 178.29 428.161C198.92 419.641 220.06 412.701 242.02 408.481C248.6 407.221 255.24 406.481 261.95 406.891C262.96 406.951 264.6 407.371 264.79 407.981C265.12 409.041 264.97 410.781 264.27 411.521C262.24 413.661 260.05 415.811 257.54 417.321C247.4 423.431 236.32 427.271 224.83 429.811C219.71 430.941 214.42 431.311 209.2 431.991C208.51 432.081 207.79 431.991 207.1 431.901C204.54 431.581 202.05 431.121 200.78 428.181Z" fill="#FFD234"/>
<path d="M148.7 393.021C149.48 391.651 149.97 389.961 151.09 388.971C153.53 386.821 156.09 384.651 158.95 383.171C172.01 376.421 185.99 372.701 200.62 371.431C202.46 371.271 204.37 371.501 206.2 371.841C208.63 372.301 209.14 374.091 207.47 375.941C206.97 376.491 206.36 377.031 205.69 377.341C193.36 383.211 181.05 389.111 167.87 392.881C163.17 394.221 158.4 395.131 153.48 394.721C152.02 394.601 150.58 394.131 149.14 393.821C148.99 393.551 148.85 393.281 148.7 393.011V393.021Z" fill="#FFD234"/>
<path d="M315.51 438.691C314.27 440.091 313.47 441.161 312.51 442.041C307.29 446.831 300.88 449.211 294.15 450.811C284.1 453.201 273.88 453.701 263.59 453.091C263.31 453.071 263.03 452.971 262.3 452.801C263.08 451.641 263.55 450.471 264.41 449.741C267.21 447.371 269.93 444.751 273.09 442.971C282.71 437.551 293.11 434.701 304.22 435.071C306.7 435.151 309.19 435.831 311.6 436.501C312.83 436.841 313.89 437.761 315.5 438.691H315.51Z" fill="#FFD234"/>
<path d="M284.86 492.371C283.48 492.111 281.12 491.931 278.93 491.211C275.96 490.221 275.57 488.421 277.49 485.991C279.8 483.081 282.79 481.071 286.19 479.631C292.36 477.021 298.92 476.161 305.46 475.111C309.96 474.391 314.44 473.481 318.91 472.581C320.89 472.181 323.19 473.071 324.16 474.871C325.12 476.661 324.29 478.241 322.97 479.221C320.22 481.261 317.4 483.331 314.34 484.831C305.36 489.231 295.84 491.761 284.85 492.361L284.86 492.371Z" fill="#FFD234"/>
<path d="M232.48 372.311C233.44 371.421 234.16 370.441 235.12 369.941C238.7 368.091 242.32 366.331 245.99 364.661C249.02 363.281 252.2 362.221 255.19 360.741C256.8 359.951 258.59 360.841 260.31 362.741C261.52 364.091 261.54 365.571 260.27 367.021C259.44 367.971 258.42 368.841 257.32 369.461C251.42 372.771 245.01 374.181 238.3 374.251C236.36 374.271 234.35 374.091 232.49 372.301L232.48 372.311Z" fill="#FFD234"/>
<path d="M289.26 409.101C290.43 408.211 291.38 407.261 292.52 406.651C296.69 404.391 300.92 402.241 305.13 400.061C306.95 399.121 308.81 398.251 310.61 397.281C311.69 396.701 312.47 396.941 313.22 397.821C314.94 399.831 315.24 402.201 313.52 404.231C312.22 405.761 310.61 407.151 308.87 408.151C304.37 410.751 299.47 412.021 294.21 411.611C292.42 411.471 290.76 411.021 289.24 409.101H289.26Z" fill="#FFD234"/>
<path d="M278.72 363.35C280.49 362.35 281.87 361.51 283.31 360.77C287.23 358.77 291.23 356.99 295.64 356.38C297.27 356.16 299.16 355.84 300.05 357.56C300.94 359.27 299.55 360.74 298.36 361.61C294.51 364.42 290.5 367.03 286.48 369.61C286.02 369.9 284.86 369.75 284.45 369.36C282.56 367.55 280.83 365.59 278.73 363.35H278.72Z" fill="#FFD234"/>
<path d="M471.64 379.262C471.64 381.732 471.48 383.712 471.67 385.662C472.23 391.502 475.23 395.322 480.97 397.132C486.55 398.892 491.66 401.652 495.88 405.812C502.63 412.482 504.12 421.362 499.43 429.652C493.12 440.812 483.34 446.652 470.49 446.712C462.68 446.752 456.24 443.232 451.08 437.472C449.98 436.242 449.53 434.462 448.6 433.052C442.78 424.192 437.13 415.212 431.02 406.552C419.44 390.122 407.45 373.982 395.91 357.532C390.12 349.282 385.01 340.562 381.49 331.032C380.16 327.432 379.16 323.742 379.67 319.862C379.84 318.562 380.26 317.212 380.88 316.052C382.42 313.162 384.06 312.652 387.07 313.832C396.09 317.362 403.93 322.732 411.12 329.122C422.78 339.482 431.87 352.012 441.14 364.402C445.55 370.312 449.79 376.392 455.47 381.222C456.23 381.862 457.03 382.462 457.87 382.992C462.04 385.632 465.81 385.212 469.3 381.712C469.96 381.052 470.59 380.362 471.65 379.252L471.64 379.262ZM423.12 357.412C417.01 357.372 414.88 359.522 415.01 365.202C415.11 369.642 416.79 373.672 418.62 377.602C423.18 387.382 429.13 396.292 436.16 404.442C439.28 408.062 442.81 411.342 446.33 414.582C447.43 415.592 449.1 416.542 450.51 416.542C454.33 416.542 458.01 415.462 460.62 412.462C461.57 411.362 462.11 409.662 462.27 408.172C462.61 405.032 461.31 402.202 459.79 399.532C454.78 390.762 447.68 383.622 441.23 375.982C436.86 370.802 432.68 365.442 428.64 359.992C427.55 358.522 426.52 357.612 424.75 357.522C424.05 357.482 423.35 357.442 423.12 357.432V357.412ZM471.58 408.522C473.24 412.662 474.79 416.432 476.25 420.242C478.1 425.102 479.82 430.022 481.71 434.872C482.23 436.222 483.03 437.492 483.89 438.662C485.37 440.662 487.04 440.602 488.33 438.462C489.07 437.222 489.46 435.782 490.05 434.442C490.71 432.962 491.3 431.442 492.14 430.062C493.49 427.842 493.96 425.532 493.44 423.002C492.69 419.382 490.75 416.392 488.3 413.752C485.12 410.312 481.51 407.452 476.74 406.532C474.28 406.052 472.48 406.882 471.58 408.532V408.522ZM475.89 427.292C470.14 426.502 464.88 425.692 459.61 425.132C458.23 424.982 456.69 425.422 455.35 425.922C453.42 426.652 452.53 428.862 452.74 431.192C452.93 433.292 454.52 433.362 455.99 433.692C461.18 434.862 466.37 436.052 471.57 437.212C472.28 437.372 473.02 437.372 474.01 437.482C474.65 434.042 475.24 430.812 475.89 427.292Z" fill="#FFD234"/>
<path d="M461.07 276.01C464.2 276.39 467.35 276.67 470.45 277.2C472.54 277.56 472.81 278.23 472.4 280.3C471.78 283.43 469.79 285.46 467.13 286.96C463.22 289.17 458.91 290.09 454.53 290.54C446.67 291.35 438.78 291.97 430.91 292.69C429.69 292.8 428.43 292.89 427.27 293.27C421.79 295.04 416.25 294.23 410.73 293.66C409.41 293.53 408.08 293.11 406.86 292.59C405.56 292.03 405.35 290.87 406.38 289.91C407.35 289.01 408.5 288.24 409.69 287.64C417.02 283.94 424.92 281.91 432.86 280.07C442.12 277.92 451.47 276.33 461.06 276L461.07 276.01Z" fill="#FFD234"/>
<path d="M441.69 330.761C440.26 330.531 438.38 330.381 436.59 329.891C435.27 329.521 433.95 328.871 432.86 328.031C430.68 326.351 430.63 324.851 432.84 323.211C434.7 321.831 436.76 320.621 438.91 319.751C447.76 316.151 456.98 313.951 466.55 313.641C469.9 313.531 473.3 313.931 476.62 314.471C478.78 314.821 479.9 316.291 479.66 317.951C479.52 318.911 478.89 320.231 478.11 320.591C467.97 325.271 457.5 328.971 446.34 330.341C444.95 330.511 443.54 330.601 441.7 330.761H441.69Z" fill="#FFD234"/>
<path d="M430.46 444.571C429.63 445.501 428.97 446.681 427.96 447.271C426.26 448.261 424.4 449.161 422.49 449.581C415.63 451.101 408.72 452.381 401.84 453.791C399.2 454.331 396.58 454.941 393.96 455.571C392.11 456.011 389.58 454.771 388.41 452.761C387.5 451.201 387.66 449.781 389.4 448.231C390.91 446.881 392.58 445.581 394.41 444.741C403.32 440.641 412.68 438.511 422.53 438.861C425.22 438.961 427.64 439.671 429.25 442.031C429.7 442.681 429.95 443.471 430.47 444.571H430.46Z" fill="#FFD234"/>
<path d="M457.8 358.911C459.99 357.711 461.62 356.711 463.34 355.891C469.56 352.901 476.24 351.681 483.03 350.971C486.58 350.601 490.15 350.401 493.72 350.131C496.43 349.921 498.44 351.291 500.12 353.171C501.17 354.351 501.08 355.811 499.94 356.811C498.46 358.111 496.89 359.441 495.11 360.221C486.21 364.111 476.87 365.381 467.26 363.981C464.95 363.641 462.72 362.531 460.56 361.531C459.64 361.111 458.99 360.071 457.8 358.911Z" fill="#FFD234"/>
<path d="M358.64 393.83C359.84 392.88 360.66 392.15 361.57 391.52C368.21 386.96 375.44 383.68 383.32 382.04C385.91 381.5 388.65 381.62 391.33 381.58C392.17 381.57 393.06 381.91 393.85 382.26C397.25 383.74 397.77 386.13 395.18 388.77C390.74 393.31 385.09 395.54 379.01 396.63C372.83 397.74 366.65 397.86 360.77 395.05C360.16 394.76 359.58 394.37 358.64 393.83Z" fill="#FFD234"/>
<path d="M339.28 301.62C339.69 301.16 340.04 300.61 340.53 300.25C345.89 296.34 351.7 293.36 358.26 292.1C359.9 291.78 361.65 291.75 363.32 291.89C366.46 292.15 368.62 294.35 369.04 297.66C368.5 298.03 367.9 298.58 367.19 298.91C359.49 302.45 351.36 303.87 342.93 303.49C341.71 303.43 340.51 302.77 339.3 302.39C339.3 302.13 339.3 301.87 339.29 301.62H339.28Z" fill="#FFD234"/>
</g>
</svg>
