<svg xmlns="http://www.w3.org/2000/svg" viewBox="0 0 485.74 599.98"><defs><style>.cls-1{fill:#ef5dbf;opacity:0.1;isolation:isolate;}</style></defs><g id="Layer_2" data-name="Layer 2"><g id="Layer_1-2" data-name="Layer 1"><path class="cls-1" d="M235,333.55c1.24-3.35,2.56-6.67,3.7-10.06,11.66-34.88,23.92-69.56,29.73-106.13,1.71-10.79-1.74-18.56-9.47-25.09-18.83-15.9-31.85-36.17-42.53-57.89C204.49,110,198.89,84.16,206,57.31c4.93-18.65,14.3-35.52,26.48-50.57,7.13-8.81,9.32-8.31,18.75-2.35,15.37,9.71,24.43,23.27,29.91,40.53,7.39,23.27,15.29,46.2,13.9,71.15C292,171.46,286,226.44,268.9,279.5c-6.4,19.82-14.86,39-22.14,58.52-3.37,9.06-6.25,18.31-9.18,27.52-.65,2-.6,4.3-.87,6.46l1.76.69c1.23-2.06,2.48-4.1,3.68-6.17,18.29-31.69,35.75-63.9,55.08-94.94,21.36-34.29,49-62.76,85.2-81.93,23.75-12.57,47.41-25.29,71.13-37.91,18.32-9.74,26-6.43,28.35,13.86,2.18,18.75,5,37.91,3.33,56.53-3.64,41.42-27.84,69.62-64.36,87.21-34.36,16.56-70.09,17.76-106.2,5.65-4.45-1.49-8.51-4.1-12.82-6.06-5.3-2.41-9.47-1.53-12.42,4-15.34,28.9-30.82,57.71-46.16,86.61-3.78,7.12-6.13,14.49-4.84,22.94.55,3.56-1.14,7.58-2.23,11.26-6.15,20.85-12.45,41.65-18.62,62.49a46.72,46.72,0,0,0-1.79,8.83c-.64,6.85,1.52,9.17,8.38,8.89,24.31-1,48.63-1.84,72.91-3.28,11.58-.69,23.06-2.95,34.64-3.86,10.34-.81,14.41,2.29,16,12.55,3.72,24.14,1.82,48.11-3.52,71.84a20.75,20.75,0,0,1-3.35,6.9c-.7,1-3.08,2.19-3.63,1.8-4-2.87-9.81-5.43-11.15-9.4-2.12-6.27-5.62-6.72-10.63-6.43-17.63,1-35.25,2.4-52.89,2.86-43.7,1.15-87.4,1.84-131.1,2.79-12.86.28-25.72.67-38.57,1.25-8.57.39-11.75-1.11-13.46-9.36-2.79-13.44-5.79-27-6.83-40.6C71.48,526.6,75,522.63,89.2,521.21c23.1-2.31,46.3-3.75,69.48-5.16,9.45-.57,19,0,28.45-.11,11.57-.11,13.73-2.34,12.24-13.91-2-15.77,3.72-30.22,7.17-45,7.33-31.38,13.13-63,10.65-95.31a528.72,528.72,0,0,0-7.75-56.84c-2.06-11-5.05-11.85-16-11.1-41.84,2.88-79.36-9.78-114.21-32a287,287,0,0,1-57-47.41C8.57,199.56-.39,182.47,0,161.58c.35-18.47.56-37,1.44-55.41.19-4,2.38-8.31,4.71-11.77,2.89-4.29,5.34-3.14,8.45,1a31.9,31.9,0,0,0,10.52,8.73c3.7,2,8.18,2.65,12.41,3.35,32.64,5.38,58.78,24,84.5,42.68a560.14,560.14,0,0,1,51.55,43c23.75,22.11,36.08,51.14,44.89,81.65,5,17.35,8.65,35.09,12.93,52.65.49,2,1.11,4,1.67,6ZM182.73,285c3.27-.48,8.45-.78,13.38-2.09,4.53-1.2,6.64-4.33,4.72-9.41-3.74-9.84-6.5-20.11-11-29.58-9.33-19.77-20.86-38.23-37.52-52.8a379.78,379.78,0,0,0-29.78-23.79c-19.09-13.56-38.24-27.11-58.11-39.46A69.07,69.07,0,0,0,25.6,117.61c-5.06.15-7.3,1.83-7.46,7.17q-.55,18.39-2,36.76a53.47,53.47,0,0,0,12,39c21,26.38,46.86,46.58,76.39,62.61C128.44,276.17,153.84,283,182.73,285Zm172.18,21.59a147.21,147.21,0,0,0,57.22-10.63c18.26-7.28,35.54-16.06,44.66-34.91a273,273,0,0,0,12.46-29c7.84-22.49.19-44.75-2-67.07-.38-3.84-3.6-4.3-6.39-2.84-6.82,3.57-13.62,7.25-20.07,11.43-16.24,10.51-32.21,21.43-48.46,31.92-3.37,2.17-7.55,3.05-11.25,4.76-5.43,2.51-11.4,4.41-16,8-24.79,19.26-44.1,43.43-60.62,69.91-3.29,5.27-2.3,7.7,3.62,9.64C323.84,302.94,339.83,307.25,354.91,306.56ZM82.94,528.9c2.28,13.78,4.29,25.39,6.08,37,1.06,6.85,4.9,9.16,11.66,9,25.39-.66,50.8-.85,76.2-1.4q70.37-1.51,140.73-3.22c8.91-.21,11.47-2.32,12.29-11.37.94-10.49,1.33-21,1.86-31.56.22-4.37-2.57-5.59-6.29-5.33-6.44.46-12.86,1.35-19.31,1.56-54.84,1.83-109.69,3.7-164.54,5.22C122.72,529.34,103.8,528.9,82.94,528.9ZM220.07,79.06c1.56,9.3,2.45,18.77,4.81,27.87,6.67,25.82,22.26,46.81,37.9,67.69a13,13,0,0,0,3.4,2.93c4.81,3.07,7.58,2,8.92-3.46a29.07,29.07,0,0,0,.6-4.48c1.71-19.51,3.65-39,4.95-58.54a59.21,59.21,0,0,0-1.57-19.16c-4.18-15.34-8.55-30.72-14.38-45.48-3.13-7.92-8.75-15.2-14.5-21.65-5.22-5.86-8.27-5-12.93,1.38C225.77,41.86,220.73,59.55,220.07,79.06Z"/><path class="cls-1" d="M162.13,440.12c-3.06-3.28-6.06-6.62-9.2-9.83-6.73-6.89-14.76-8.92-24.21-7-18.33,3.72-36.67,7.46-55.13,10.42a59.3,59.3,0,0,1-33.52-4.28c-16.45-7.24-19.76-20.57-8-34,18-20.67,41.07-22.09,65.66-15.81,13,3.32,23.76,10.93,34,19.32,6,4.92,11.75,10.1,17.69,15.08C157.37,420.76,159.63,430.45,162.13,440.12Zm-33.68-26.49c-.45-1.4-.46-2.22-.86-2.55-17.16-14.28-36-24.62-59.21-22.95-13,.94-24.31,5.93-31.49,17.52-4.59,7.42-2.84,14,5.14,16.74a92.35,92.35,0,0,0,22.53,4.78c16.67,1.38,32.24-4.41,48-8.82C117.82,416.88,123.07,415.24,128.45,413.63Z"/><path class="cls-1" d="M336.35,419.88c4.31-9.94,11.45-16.95,20.25-22,25.76-14.84,53-19.55,82-10.86,12.39,3.72,18.86,22.56,11.47,33.24-3.38,4.88-8.31,5.61-13.76,5-22.86-2.7-45.76-5.12-68.58-8.14C357,415.65,346.52,413.8,336.35,419.88Zm74.27-27.95c-10.67,2.1-22.12,4-33.38,6.76-3.31.8-6.08,3.84-9.1,5.86,3.38,1.28,6.68,3.31,10.16,3.7q27.26,3.11,54.58,5.41c2.69.23,6.69-.27,8-2s1.27-6.25-.08-8.26c-2.11-3.13-5.45-6.35-8.93-7.46C425.37,393.87,418.41,393.3,410.62,391.93Z"/></g></g></svg>