<svg width="542" height="601" viewBox="0 0 542 601" fill="none" xmlns="http://www.w3.org/2000/svg">
<g opacity="0.1">
<path d="M0.490177 339.199C1.48018 337.109 2.47018 335.009 3.24018 333.379C2.51018 330.919 1.02018 328.539 1.29018 326.349C2.44018 317.049 7.56018 310.879 18.4302 310.129C13.6102 300.169 17.5602 295.209 29.2102 295.779C30.3102 295.829 31.5602 292.479 32.8302 290.759C36.3602 285.979 39.5102 280.879 43.6202 276.579C47.7502 272.259 52.6102 268.429 57.6402 264.989C60.7702 262.839 64.9402 262.019 68.3702 260.179C70.2102 259.189 72.1502 257.549 72.9002 255.789C86.7702 223.309 87.5502 189.679 83.1802 155.549C81.3102 140.939 82.6802 126.669 97.4102 117.729C102.73 114.499 110.22 114.359 116.7 112.719C117.75 112.449 118.84 111.849 119.58 111.109C138.07 92.849 160.62 86.629 179.81 94.979C198.2 102.979 206.26 118.389 210.87 135.249C214.8 149.599 218.96 164.369 219.06 178.979C219.15 192.739 228.76 201.499 233.33 212.759C235.83 218.929 238.96 224.869 241.02 229.239C250.38 218.489 259.69 205.479 271.52 194.849C283.55 184.049 298.47 176.339 315.24 173.839C315.59 171.639 315.92 169.529 316.26 167.419C317.05 162.549 316.98 157.349 318.99 152.959C319.97 150.829 324.99 148.909 327.95 149.159C343.95 150.499 359.84 153.609 375.84 154.059C393.47 154.549 409.38 149.149 420.8 135.609C421.28 135.049 421.66 134.419 422.22 133.629C414.03 132.889 407.25 129.839 407.54 121.739C407.66 118.339 411.72 113.539 415.29 112.079C422.3 109.209 428.56 112.049 432.61 118.269C441.16 111.329 443.45 93.129 436.95 83.899C429.93 87.759 422.08 91.369 416.09 83.949C413.81 81.129 414.47 74.029 416.82 70.729C421.76 63.809 429.42 65.079 438.73 69.879C439.79 59.969 440.76 50.939 441.73 41.919C434.33 46.419 428.15 48.459 422.36 44.369C418.96 41.969 415.08 36.409 415.97 33.439C417.28 29.059 422.66 25.719 427.02 21.189C423.32 14.639 395.51 9.15904 382.17 14.579C384.72 21.059 384.25 27.469 376.97 30.349C373.5 31.719 367.04 30.749 364.18 28.449C358.67 24.019 360.04 17.959 364.15 12.649C346.4 2.26904 310.16 15.439 303 32.539C306.68 38.299 310.37 42.229 311.55 46.729C312.1 48.809 308.01 53.999 305.61 54.239C300.66 54.739 295.42 52.859 288.59 51.669C284.61 55.359 281.26 75.159 285.35 82.169C285.56 82.529 286.72 82.689 287.32 82.549C293.53 81.029 298.94 81.949 300.67 88.219C301.18 90.059 298.64 93.389 296.54 94.919C289.38 100.139 289.23 106.239 293.95 112.369C302.26 123.159 311.22 133.519 319.83 144.099C320.93 145.459 321.64 147.089 322.53 148.589C320.65 148.279 318.48 148.429 316.93 147.589C294.7 135.589 281.04 118.639 279.37 94.049C278.92 87.369 274.04 80.969 273.39 74.259C272.02 60.229 275.49 47.439 288.75 38.289C290.71 36.939 291.04 33.609 292.2 31.219C305.35 4.14904 344.32 -7.78096 373.03 5.57904C377.18 7.50904 384.09 3.99903 389.77 3.58903C407.4 2.33903 425.49 4.12903 436.4 17.599C446.23 29.729 454.74 44.109 451.06 60.969C450.62 62.999 449.38 64.889 448.57 66.859C446.32 72.319 444.77 76.949 448.25 83.399C456.85 99.339 450.36 118.579 434.8 129.069C433.77 129.759 433.12 131.099 432.61 132.259C426.79 145.349 415.52 152.839 404.1 157.139C405.25 160.459 406.01 163.579 407.49 166.359C407.96 167.249 410.4 167.649 411.91 167.599C433.23 166.979 453.3 171.479 471.83 180.979C490.15 190.379 499.41 207.029 508.95 223.169C523.38 247.599 533.36 273.639 541 300.489C541.27 301.419 541.46 302.379 541.68 303.319V311.289C540.23 317.829 538.89 324.399 537.29 330.919C534.42 342.659 533.01 354.979 528.1 365.959C518.09 388.369 506.38 410.149 494.91 431.989C490.57 440.259 483.76 446.889 485.34 457.749C488.79 481.509 490.43 505.499 492.69 529.409C492.76 530.109 491.48 531.499 490.69 531.599C485.06 532.299 479.39 532.739 473.63 533.279C475.62 537.049 478.23 540.309 479.04 543.919C480.28 549.439 479.89 555.249 480.9 560.829C482.66 570.499 485.06 580.069 486.89 589.739C487.1 590.839 485.57 593.109 484.49 593.329C482.73 593.689 479.33 593.239 478.98 592.359C477.15 587.659 475.83 582.759 474.76 577.849C473.3 571.139 472.42 564.329 470.93 557.629C469.22 549.919 467.13 542.279 465.51 535.789H274.32C274.44 537.129 274.68 540.799 275.09 544.449C276.46 556.819 277.93 569.179 279.22 581.559C279.32 582.529 278.5 584.229 277.68 584.499C276.21 584.989 273.11 585.029 272.96 584.609C271.59 580.539 270.4 576.369 269.73 572.159C268.76 566.069 268.69 559.839 267.48 553.789C265.87 545.729 263.47 537.799 261.55 529.789C260 523.369 258.65 516.909 257.2 510.399C195.27 535.009 131.64 541.579 66.1702 530.829C65.3802 536.029 65.3502 540.969 63.7802 545.429C61.5702 551.689 57.5002 557.409 55.4902 563.709C51.9202 574.869 49.4202 586.309 46.0902 597.539C45.7202 598.779 42.7002 600.299 41.2302 600.049C39.8602 599.819 37.7402 597.199 37.9902 595.989C39.7402 587.469 41.9702 579.029 44.1302 570.579C46.1102 562.829 47.7902 554.979 50.3602 547.389C52.3902 541.399 55.5702 535.749 58.2402 529.939C57.1902 529.909 56.1402 529.879 55.1002 529.849C54.8602 527.809 54.5002 525.779 54.4402 523.739C54.4102 522.789 55.4202 521.739 55.2002 520.889C53.1402 512.779 51.3202 504.589 48.6602 496.649C44.0702 482.959 38.7702 469.479 34.1002 455.819C31.9302 449.459 30.5802 442.869 28.8502 436.389C26.1502 426.269 22.6102 416.259 20.9802 405.989C19.6902 397.839 20.7202 389.379 20.7202 380.829C9.29018 377.899 6.00017 373.789 4.69017 362.219C3.93017 355.539 1.89018 348.989 0.430176 342.389C0.430176 341.329 0.430176 340.269 0.430176 339.199H0.490177ZM483.83 435.909C492.56 419.269 501.16 405.299 507.35 390.479C514.66 372.979 520.7 354.929 525.76 336.749C529.77 322.349 535.98 307.969 528.45 292.369C519.15 273.109 511.68 253.109 502.77 233.679C499.55 226.669 494.02 220.599 490.32 213.739C482.75 199.729 471.46 189.119 455.6 184.139C442.61 180.059 428.76 178.279 415.27 175.569C413.48 175.209 410.75 174.689 409.83 175.529C404.5 180.419 400.54 187.259 394.32 190.459C385.03 195.239 374.31 197.729 364.04 200.739C361.76 201.409 358.84 200.209 356.22 199.899C352.04 199.399 347.61 199.559 343.73 198.279C338.93 196.689 334.19 194.379 330.17 191.489C326.09 188.569 322.91 184.579 318.49 180.219C311.91 182.849 302.17 185.649 293.67 190.349C274.86 200.749 262.44 217.009 251.83 234.089C238.14 256.139 234.37 281.159 229.77 305.759C228.46 312.769 227.62 319.859 226.74 327.339C226.32 330.879 221.72 331.969 219.76 328.989C219.43 328.479 219.09 327.989 218.75 327.499C217.96 326.369 216.43 325.689 215.24 324.799C214.23 326.019 213.33 327.329 212.18 328.419C211.1 329.449 209.79 330.999 208.53 331.049C195.39 331.569 182.23 331.559 169.1 332.239C142.58 333.609 116.07 335.269 89.5702 336.999C88.1302 337.089 86.0502 338.659 85.5702 339.959C80.8902 352.549 76.4702 365.219 72.0302 377.879C71.8402 378.419 71.9302 379.569 72.1602 379.639C76.2802 380.849 80.3802 382.409 84.6102 382.909C90.1002 383.559 95.7202 383.279 101.27 383.499C117.66 384.149 134.04 385.289 150.43 385.369C160.31 385.419 170.2 383.859 180.09 382.979C191.9 381.939 203.7 380.889 215.5 379.789C225.13 378.889 234.74 377.799 244.37 377.019C250.56 376.509 263.96 367.559 266.22 362.419C269.64 354.659 273.26 346.969 276.93 339.309C278.87 335.269 281.32 331.429 283.15 327.359C285.38 322.399 287.02 317.209 289.35 312.289C289.76 311.419 292.37 310.949 293.82 311.159C294.96 311.319 296.87 312.979 296.74 313.689C295.58 319.759 295.79 326.969 292.16 331.479C287.75 336.939 289.79 341.229 292.63 344.329C300.49 352.909 308.64 361.649 318.29 368.329C328.47 375.369 339.97 381.559 351.91 385.419C364.08 389.359 377.46 390.199 390.37 392.069C400.69 393.559 412.08 392.439 417.63 402.419C422.46 399.559 427.43 396.659 432.35 393.699C439.93 389.139 447.19 392.639 448.73 401.259C448.95 402.499 451.81 404.299 453.32 404.209C458.73 403.859 464.09 402.809 469.76 401.979C469.79 401.689 470.14 400.239 470.06 398.809C469.19 382.449 468.21 366.089 467.37 349.729C466.62 335.139 465.78 320.549 465.41 305.949C465.15 295.699 465.45 285.419 465.92 275.169C466 273.349 468.15 271.619 469.35 269.839C470.31 271.699 471.97 273.509 472.13 275.429C473.07 286.739 473.57 298.079 474.38 309.409C476.2 335.039 478.09 360.659 480 386.279C481.16 401.939 482.41 417.599 483.82 435.919L483.83 435.909ZM66.2202 521.229C66.5702 521.359 66.8302 521.519 67.1002 521.539C87.1002 523.189 107.07 525.529 127.11 526.319C170.49 528.019 211.26 517.329 250.99 502.429C251.37 502.289 251.8 501.589 251.74 501.209C248.01 477.409 244.27 453.609 240.46 429.819C238.06 414.849 235.57 399.889 233.19 385.359C224.38 386.599 215.4 388.309 206.32 389.059C183.3 390.969 160.23 392.469 137.18 394.089C129.64 394.619 122.08 395.479 114.54 395.349C106.16 395.199 97.8202 393.789 89.4402 393.489C78.6102 393.099 66.8902 386.099 65.4502 380.119C53.7802 380.539 42.4702 380.929 31.1602 381.379C30.5502 381.399 29.4602 381.939 29.4302 382.279C29.2002 385.549 28.6302 388.909 29.1702 392.099C30.6802 401.099 32.4002 410.099 34.5502 418.989C36.3102 426.309 38.7902 433.479 40.9802 440.699C43.9002 450.329 46.6902 459.999 49.8302 469.569C51.8302 475.669 54.6902 481.539 56.5802 487.659C58.0902 492.549 58.7202 497.669 59.7402 502.689C62.9502 492.119 65.0502 481.559 66.5302 470.939C68.1402 459.279 69.6302 447.579 70.3402 435.859C71.1402 422.629 70.8602 409.339 71.4102 396.089C71.4902 394.159 73.5302 392.309 74.6602 390.419C75.7202 392.229 77.5702 393.979 77.7002 395.849C78.5202 406.929 79.5502 418.049 79.3702 429.129C79.1002 445.859 79.0202 462.709 76.7502 479.249C74.8102 493.369 69.8802 507.129 66.2402 521.199L66.2202 521.229ZM475.39 451.149C452.2 463.269 430.3 462.019 408.72 449.389C408.43 449.219 407.97 449.189 407.62 449.239C402.5 450.019 397.29 451.819 392.28 451.429C381.28 450.589 369.97 449.869 359.52 446.909C335.9 440.209 312.52 432.679 289.46 424.479C278.95 420.749 269.14 415.059 259.57 409.449C253.8 406.069 249.11 401.119 243.56 396.569C247.12 417.059 250.08 437.189 254.24 457.099C258.38 476.949 263.39 496.669 268.77 516.269C270.27 521.719 271.99 526.879 282.1 526.599C306.11 525.919 330.21 528.589 354.26 528.439C385.85 528.239 417.43 526.649 449.01 525.589C460.2 525.209 471.39 524.609 481.28 524.159C479.26 499.079 477.32 474.969 475.4 451.139L475.39 451.149ZM242.01 384.799C250.31 391.139 256.54 397.529 264.24 401.429C280.05 409.429 296.55 416.309 312.98 423.219C321.03 426.609 329.48 429.279 337.91 431.809C345.52 434.099 353.32 435.919 361.12 437.629C370.79 439.739 380.48 441.929 390.29 443.229C393.81 443.699 400.2 442.569 401 440.649C404.16 433.069 404.83 424.609 407.95 416.999C410.67 410.359 406.92 403.219 399.24 402.529C386.87 401.419 374.36 400.609 362.26 398.189C352.67 396.269 343.28 392.759 334.41 388.799C325.88 384.989 317.7 380.199 310.16 374.869C303.84 370.409 298.51 364.699 293.07 359.259C289.79 355.979 287.14 352.169 284.12 348.479C279.44 356.629 275.14 364.939 270.04 372.809C264.27 381.699 254.99 385.099 242.01 384.779V384.799ZM65.3502 373.269C68.4302 363.889 72.0402 352.879 75.6102 341.869C75.7502 341.449 75.6902 340.779 75.4002 340.469C71.6802 336.299 68.3802 331.669 64.0402 328.129C56.1402 321.679 47.6902 315.789 39.3102 309.859C37.3002 308.439 34.6602 307.759 32.3202 306.739C32.0602 307.139 31.8102 307.539 31.5502 307.939L42.3702 316.089C45.7002 318.599 43.1802 323.839 39.1402 322.839C35.0002 321.819 30.9102 320.939 26.7602 320.349C22.0802 319.679 16.8302 322.469 11.8402 323.699C13.7202 326.849 15.6002 330.009 17.4902 333.149C17.6402 333.399 17.9002 333.589 18.0302 333.719C15.2802 336.789 8.26018 337.069 13.0602 344.169C15.7502 348.159 14.0602 354.489 15.3202 359.549C16.3802 363.789 18.1002 370.669 20.8402 371.269C29.6902 373.209 39.1502 372.889 48.3802 373.239C53.9102 373.449 59.4602 373.279 65.3502 373.279V373.269ZM78.5102 331.029C79.8402 330.449 81.1102 329.539 82.4802 329.359C87.4502 328.709 92.4502 328.099 97.4602 327.829C127.59 326.189 157.75 324.849 187.86 322.909C195.17 322.439 203.82 325.089 209.27 317.179C210.28 315.719 213.97 315.839 216.41 315.219C217.03 315.059 218.1 314.919 218.16 314.629C220.12 304.749 221.98 294.859 223.69 285.809C218.61 292.359 213.61 299.949 207.4 306.569C192.76 322.199 173.44 322.529 161.29 307.909C153.6 317.039 144.01 323.029 131.06 320.169C117.43 317.159 113.99 306.819 113.19 295.529C109.03 299.939 105.25 304.479 100.88 308.469C94.6102 314.199 87.1902 317.829 78.1002 314.889C69.1302 311.989 63.7702 305.389 63.4402 297.089C63.0802 288.119 65.0802 279.059 65.9702 270.839C65.8302 270.959 64.6502 272.019 63.4102 273.019C58.4502 276.999 53.0102 280.579 48.6502 285.059C45.0002 288.809 42.6002 293.599 39.7602 297.999C39.6002 298.249 40.4202 299.329 41.0202 299.679C47.0302 303.199 53.8902 305.879 58.9502 310.309C66.3102 316.739 72.3802 324.429 78.4902 331.029H78.5102ZM326.24 173.239C325.68 173.999 325.11 174.759 324.55 175.529C340.11 187.579 357.11 196.669 378.89 188.279C387.45 184.979 394.6 178.549 400.92 174.489C398.88 170.919 397.12 169.229 397.06 167.499C396.89 161.999 396.18 159.399 388.46 160.899C367.43 164.979 347.18 160.439 327.74 153.769C327.23 160.309 326.73 166.769 326.23 173.239H326.24ZM461.36 412.729C457.88 413.359 454.1 414.099 450.29 414.719C439.94 416.409 435.23 411.479 438.51 402.539C438.69 402.049 438.41 400.989 438.06 400.859C437.52 400.659 436.64 400.899 436.06 401.199C430.51 404.069 424.98 406.989 419.5 409.869C416.62 419.869 413.47 430.819 410.37 441.779C410.23 442.259 410.61 443.309 410.93 443.379C421.51 445.669 432.04 449.059 442.75 449.709C450.83 450.189 459.17 447.149 467.39 445.669C467.25 444.659 467.1 443.639 466.96 442.629H452.02C448.69 442.629 446.96 438.669 449.21 436.219L449.26 436.159C448.82 436.139 451.53 431.269 453.39 429.129C449.46 428.639 448.03 423.679 451.09 421.159L461.36 412.729ZM433.38 33.839C430.73 33.359 429.23 32.869 427.75 32.909C426.89 32.939 426.06 33.829 425.22 34.329C426.39 35.469 427.5 37.419 428.76 37.509C429.91 37.589 431.23 35.649 433.38 33.839ZM424.11 124.949C424.43 124.199 424.76 123.449 425.08 122.699C422.8 121.889 420.52 121.059 418.2 120.379C418.13 120.359 417.55 121.769 417.21 122.509C419.51 123.329 421.81 124.139 424.11 124.959V124.949ZM472.1 418.259C469.96 419.969 468.01 421.519 466 423.119C468.23 423.859 470.36 424.559 472.74 425.349C472.51 422.879 472.31 420.619 472.09 418.259H472.1ZM373.51 18.429C372.95 18.269 372.39 18.109 371.83 17.939C371.41 19.339 370.94 20.739 370.65 22.159C370.61 22.369 371.5 22.739 371.95 23.029L373.5 18.419L373.51 18.429ZM429.88 77.079L429.62 75.509C428.09 75.829 426.54 76.079 425.06 76.529C424.8 76.609 424.82 77.499 424.72 78.019C426.44 77.709 428.17 77.389 429.89 77.079H429.88Z" fill="#FFD234"/>
</g>
</svg>
