<svg width="785" height="496" viewBox="0 0 785 496" fill="none" xmlns="http://www.w3.org/2000/svg">
<g opacity="0.1">
<path d="M549 175.32C620.89 204.67 693.83 225.56 771.69 224.83L772.03 226.15C758.14 236.67 744.25 247.19 730.02 257.97C734.88 259.9 739.4 261.68 743.9 263.5C781.47 278.69 805.68 305.34 813.03 345.66C818.43 375.29 807.46 399.39 785.4 418.89C770 432.5 751.74 441.05 732.54 447.8C706.59 456.93 679.77 461.94 652.51 465.19C628.45 468.06 604.36 469.63 580.19 468.44C549.04 466.9 517.77 465.35 487.9 455.14C477.42 451.56 467.43 446.54 456.84 442.01C449.81 447.21 442.41 452.89 434.79 458.26C417.76 470.27 400.68 482.21 383.44 493.92C381.51 495.23 378.29 495.63 375.94 495.15C362.8 492.48 349.76 489.38 336.67 486.49C304.48 479.36 272.23 472.48 240.09 465.11C193.82 454.5 147.48 444.1 101.45 432.53C75.8601 426.1 51.6401 415.73 31.4401 397.98C11.5601 380.51 0.370102 358.54 0.680102 331.94C1.2201 284.85 34.0501 239.06 77.8301 221.73C88.3901 217.55 97.9301 210.86 108.15 205.75C140.72 189.47 173.33 173.27 206.03 157.25C250.76 135.34 295.59 113.63 340.36 91.8096C354.64 84.8496 368.76 77.5196 383.19 70.8796C413.63 56.8796 445.16 46.4396 479.17 47.9596C511.68 49.4096 539.93 60.8396 559.33 88.4196C568.14 100.95 570.76 115.23 569.76 130.76C568.83 145.21 564.99 157.94 555.76 169C553.95 171.17 551.62 172.92 549.04 175.31L549 175.32ZM452.18 438.33C452.18 438.33 451.48 437.9 450.86 437.33C442.96 430.15 434.24 423.66 427.33 415.62C402.84 387.13 399.63 353.66 416.69 320.35C430.82 292.76 453.23 274.52 480.98 262.24C512.34 248.36 545.43 242.46 579.61 242.41C586.97 242.41 594.67 240.76 600.53 244.99C621.85 240.23 642.7 239.94 663.26 242.59C683.81 245.25 704.04 250.35 725.1 254.51C732.37 247.87 740.7 240.27 749.12 232.58C741.57 232.01 734 231.9 726.57 230.8C702.11 227.2 677.48 224.24 653.31 219.19C611.97 210.55 571.92 197.55 533.74 179.23C532.98 178.87 531.79 178.63 531.13 178.97C522.45 183.48 513.8 188.06 505.19 192.7C500.27 195.35 495.4 198.12 490.54 200.89C480.57 206.57 470.82 212.69 460.6 217.88C446.7 224.94 432.4 231.2 418.36 237.99C398.45 247.61 378.57 257.31 358.76 267.12C332.76 279.99 306.81 292.96 280.89 305.98C273.13 309.88 265.62 314.25 257.88 318.18C239.82 327.36 221.77 336.56 203.58 345.48C183.64 355.25 163.43 364.47 143.57 374.38C128.42 381.94 112.73 385.67 96.0101 382.19C71.1701 377.01 55.0001 361.98 48.0901 337.54C41.2601 313.4 52.1701 295.32 69.0601 279.74C73.5001 275.65 78.8401 272.52 83.8801 269.1C87.7401 266.48 91.7101 264.04 95.7101 261.64C102.67 257.46 109.68 253.35 116.69 249.27C120.6 246.99 124.49 244.65 128.55 242.66C132.19 240.87 136.04 239.51 140.82 237.54C137.1 235.36 134.55 233.41 131.68 232.25C110.38 223.57 89.8001 225.97 69.7701 236.53C45.4901 249.34 29.1801 269.25 18.0201 293.88C7.23013 317.68 6.3901 341.91 17.8601 365.25C28.0801 386.06 45.8501 400.27 66.9801 409.04C84.6701 416.39 103.06 422.5 121.64 427.18C160.13 436.89 198.95 445.32 237.64 454.21C255.76 458.37 273.93 462.32 292.05 466.46C319.99 472.85 347.91 479.35 375.86 485.68C377.34 486.02 379.39 485.7 380.65 484.88C404.54 469.44 428.35 453.87 452.19 438.33H452.18ZM107.29 216.74C140.78 220.14 162.4 238.61 175.5 267.54C188.79 296.89 184.4 325.28 167.81 353.09C180.14 346.95 191.7 341.31 203.15 335.46C223.95 324.83 244.63 313.98 265.46 303.42C275.32 298.42 285.57 294.19 295.38 289.09C306.77 283.17 317.63 276.24 329.13 270.56C347.42 261.53 366.16 253.41 384.5 244.46C399.6 237.08 414.31 228.91 429.33 221.38C437.86 217.1 446.69 213.43 455.35 209.41C456.96 208.66 458.39 207.54 459.91 206.59C463.78 204.17 467.49 201.41 471.56 199.38C481.44 194.47 491.42 189.75 501.48 185.22C513.21 179.94 523.59 171.19 537.37 171.02C537.92 171.02 538.48 170.4 539.01 170.05C552.88 160.8 559.16 147.35 559.97 131.19C560.75 115.69 559.52 100.46 547.85 88.5696C542.43 83.0496 536.43 77.9796 530.13 73.4896C525.08 69.8996 519.45 66.7296 513.61 64.6896C491.21 56.8796 468.17 55.5196 444.93 60.0196C419.29 64.9796 395.43 75.0396 372.16 86.6096C342.91 101.15 313.7 115.8 284.38 130.19C250.68 146.74 216.86 163.04 183.12 179.5C159.6 190.97 136.13 202.54 112.64 214.07C111.07 214.84 109.5 215.63 107.27 216.74H107.29ZM431.2 314.29C431.16 314.34 430.72 314.79 430.38 315.31C418.34 334.25 413.58 354.54 418.45 376.81C423.02 397.74 436 412.78 452.08 425.7C468.43 438.84 487.84 445.91 507.72 450.76C523.07 454.5 539.13 455.5 554.95 457.02C567.27 458.2 579.7 458.96 592.06 458.74C611.46 458.4 630.99 458.28 650.18 455.87C675.59 452.68 701.03 449.26 725.41 440.02C736.95 435.65 748.2 431.12 758.98 425.18C780.5 413.31 796.71 397.36 802.51 372.45C807.85 349.52 800.18 329.8 788.52 310.86C788.48 310.79 788.27 310.82 787.68 310.75C784.01 324.44 772.13 330.06 760.82 334.94C745.85 341.4 731.02 348.62 714.24 350.28C691.46 352.54 668.83 356.5 646.03 358.32C630.48 359.56 614.73 358.7 599.09 358.2C579.69 357.59 560.23 357.22 540.95 355.22C518.79 352.92 496.31 351.07 475.33 342.73C463.74 338.12 452.41 332.6 441.59 326.39C437.26 323.9 434.64 318.45 431.2 314.29ZM598.43 247.01C592.16 247.82 582.59 249.46 572.94 250.2C552.34 251.79 531.92 254.24 511.93 259.76C484.48 267.34 460.05 279.97 440.85 301.46C439.53 302.94 438.76 305.68 439.01 307.68C439.89 314.73 444.52 319.66 450.37 322.81C456.29 326 462.79 328.15 469.16 330.43C476.02 332.89 482.88 335.83 489.99 337.07C510.07 340.55 530.24 343.51 550.45 346.18C561.28 347.61 572.23 348.2 583.15 348.82C588.22 349.11 593.33 348.4 598.42 348.39C617.02 348.36 635.66 349.06 654.22 348.23C666.16 347.7 677.96 344.62 689.89 343.29C703.17 341.82 716.47 340.86 729.19 336.25C738.32 332.94 747.71 330.31 756.73 326.74C768.24 322.18 777.76 314.96 783.77 303.6C783.51 303.2 783.29 302.64 782.89 302.27C778.19 298.05 773.85 293.3 768.67 289.8C759.32 283.48 749.95 276.82 739.72 272.23C704.46 256.39 667.09 250 628.58 249.3C619.66 249.14 610.75 247.97 598.43 247V247.01ZM135.45 345.92C135.33 345.73 135.22 345.55 135.1 345.36C134.48 346.25 134.05 347.5 133.2 347.97C126.93 351.38 120.92 355.84 114.2 357.71C92.9001 363.63 75.3101 348.83 78.3201 327.6C81.2501 306.88 100.6 302.38 117.94 309.67C119.61 310.37 122.14 310.91 123.47 310.15C126.65 308.31 129.36 305.65 132.17 303.39C130.46 297.23 123.91 290.03 116.97 285.62C98.1901 273.67 66.8301 286.62 58.9601 308.14C47.0801 340.63 78.8301 378.57 113.63 373.32C144.15 368.72 163.53 351.11 170.92 321.26C171.21 320.1 171.36 318.9 171.56 317.82C159.4 327.28 147.43 336.6 135.46 345.92H135.45ZM134.05 308.05C132.86 309.35 132.31 309.88 131.83 310.48C127.2 316.18 122.32 319.23 113.45 315.85C106.37 313.15 98.1801 312.91 91.6201 318.66C85.6501 323.9 84.3001 333.54 88.1401 341.08C91.8901 348.43 100.86 352.21 110.16 350.4C118.2 348.83 123.9 344.46 128.77 337.71C135.31 328.65 135.24 319.1 134.04 308.05H134.05Z" fill="#FFD234"/>
<path d="M782.32 0.00976562C788.25 2.21977 793.83 3.55977 798.64 6.26977C804.79 9.72977 807.73 15.7998 810.74 22.2998C815.98 33.6098 816.51 45.3098 815.81 57.0198C815.42 63.5998 811.86 69.9898 809.67 76.4498C809.29 77.5698 808.57 78.5798 807.68 80.2398C819.28 81.4998 829.95 84.2598 839.5 91.3998C839.68 94.4398 839.88 97.7298 840.08 101.02C840.05 107 833.17 114.33 830.08 113.76C812.54 117.55 797.1 120.33 781.42 119.94C766.03 119.56 750.67 117.84 739.32 117C724.97 113.35 714.51 110.69 703.22 107.81C703.57 113.7 702.72 119.91 704.52 125.22C707.62 134.36 711.63 143.4 716.65 151.63C721.82 160.12 731.04 164.01 740.47 165.8C752.33 168.05 764.37 169.86 776.41 170.51C784.24 170.93 792.87 170.41 799.55 165.86C807.13 160.7 814 154.31 820.47 147.76C829.3 138.82 830.09 126.51 832.8 115.04C833.17 113.46 835.09 112.25 836.29 110.87C837.12 111.13 837.94 111.39 838.77 111.65C838.93 115.75 839.93 120.04 839.07 123.91C837.43 131.28 835.4 138.72 832.31 145.59C826.61 158.27 817.63 168.52 805.07 174.75C800.02 177.26 794 177.97 788.34 179.02C783.81 179.86 779.14 180.36 774.54 180.3C768.24 180.21 761.87 179.88 755.67 178.85C749.27 177.79 743.09 175.42 736.7 174.28C727.58 172.65 719.11 169.41 713.09 162.49C708.3 156.99 705.02 150.16 701.14 143.87C699.93 141.91 698.77 139.87 697.93 137.73C693.37 126.12 693.79 114.12 695.31 102.05C695.41 101.29 695.36 100.46 695.18 99.7198C692.99 90.9298 699.43 81.3198 708.42 79.7898C709.94 79.5298 711.28 78.1998 712.8 77.9198C715.51 77.4098 718.3 77.2798 721.06 77.0598C722.93 76.9098 724.8 76.8798 726.95 76.7798C723.83 65.1998 730.54 57.7698 736.14 50.0098C738.85 46.2498 741.99 42.7998 744.79 39.0998C747.44 35.5998 747.85 31.9698 745.06 28.2198C743.49 26.1098 742.15 23.8198 740.6 21.4498C748.26 20.0498 755.38 19.8498 761.58 25.0898C767.53 30.1298 770.23 36.5298 769.31 45.7098C775.96 39.1298 781.46 33.2898 782.21 25.0198C782.91 17.2898 782.36 9.43977 782.36 0.00976562H782.32ZM831.43 97.3598C827.1 95.2898 823.76 93.2498 820.14 92.0898C816.6 90.9498 812.78 90.4798 809.05 90.1398C803.55 89.6398 798.42 89.7898 793.44 93.5798C784.47 100.42 773.81 102.9 762.68 101.35C758.32 100.74 754.23 98.1098 750.06 96.3098C745.17 94.1898 739.43 92.9598 735.67 89.5598C730.13 84.5598 723.73 85.9898 718.31 86.5798C712.74 87.1798 707.58 91.5898 702.34 94.2898C703.03 97.0098 703.33 98.2198 703.45 98.6898C707.01 99.6598 710 100.64 713.05 101.27C720.06 102.73 727.1 104.09 734.15 105.35C740.27 106.45 746.4 107.59 752.57 108.28C760.55 109.18 768.57 110.1 776.59 110.19C785.12 110.29 793.67 109.49 802.21 108.98C809.95 108.52 817.68 107.93 825.83 107.37C827.59 104.22 829.33 101.1 831.43 97.3498V97.3598Z" fill="#FFD234"/>
<path d="M598.86 304.41C598.4 303.49 597.76 302.23 596.55 299.8C596.95 298.67 597.78 296.32 598.46 294.41H607.39C607.39 294.56 607.37 294.7 607.36 294.85C609.25 294.67 611.14 294.48 612.96 294.3C613.63 296.28 614.2 297.95 614.9 299.99C615.78 298.05 616.4 296.69 616.81 295.76C620.24 293.78 623.32 292 627.56 289.55C627.4 289.57 628.73 289.43 630.63 289.23C631.74 291.15 632.99 293.32 634.19 295.39C631.55 297.85 629.26 299.99 626.09 302.93C632.54 305.11 638.33 306.3 643.27 309.03C646.18 310.64 647.74 314.69 649.9 317.64C647.82 319.09 645.75 320.54 643.67 321.98C643.61 321.41 643.55 320.83 643.49 320.26C639.84 318.53 636.19 316.8 632.54 315.07C632.43 315.28 632.31 315.48 632.2 315.69C628.38 313.96 624.57 312.24 620.87 310.56C616.07 316.02 610.82 321.99 605.19 328.4C602.59 325.99 600.72 324.26 598.93 322.62C601.47 318.77 603.67 315.41 605.88 312.06C605.67 311.85 605.46 311.64 605.24 311.43C602.46 313.04 599.68 314.65 596.86 316.28H588.75C588.52 313.97 588.26 311.43 588.03 309.1C591.74 307.49 594.88 306.13 598.83 304.41H598.86Z" fill="#FFD234"/>
</g>
</svg>
