<svg width="41" height="42" viewBox="0 0 41 42" fill="none" xmlns="http://www.w3.org/2000/svg">
<path d="M20.6603 41.0293C31.7557 41.0293 40.7503 32.0349 40.7503 20.9395C40.7503 9.84405 31.7557 0.849609 20.6603 0.849609C9.56488 0.849609 0.570312 9.84405 0.570312 20.9395C0.570312 32.0349 9.56488 41.0293 20.6603 41.0293Z" fill="#231F20"/>
<path fill-rule="evenodd" clip-rule="evenodd" d="M15.2805 9.33984H26.0405C29.5005 9.33984 32.3405 12.1801 32.3405 15.6401V26.3501C32.3405 29.8101 29.5005 32.6499 26.0405 32.6499H15.2805C11.8205 32.6499 8.98047 29.8101 8.98047 26.3501V15.6401C8.98047 12.1801 11.8205 9.33984 15.2805 9.33984ZM26.9405 13.4102C27.6705 13.4102 28.2805 14.02 28.2805 14.75C28.2805 15.48 27.6705 16.0898 26.9405 16.0898C26.1605 16.0898 25.6005 15.48 25.6005 14.75C25.6005 14.02 26.1605 13.4102 26.9405 13.4102ZM20.6405 14.6401H20.7005C24.1605 14.6401 27.0605 17.54 27.0605 21C27.0605 24.51 24.1605 27.3599 20.7005 27.3599H20.6405C17.1805 27.3599 14.3405 24.52 14.3405 21C14.3405 17.54 17.1805 14.6401 20.6405 14.6401ZM20.6405 16.8198H20.7005C22.9905 16.8198 24.8805 18.72 24.8805 21C24.8805 23.34 22.9805 25.2402 20.7005 25.2402H20.6405C18.3505 25.2402 16.4605 23.34 16.4605 21C16.4605 18.71 18.3605 16.8198 20.6405 16.8198ZM15.3405 11.3501H25.9905C28.3905 11.3501 30.3405 13.3002 30.3405 15.7002V26.2998C30.3405 28.6998 28.3905 30.6499 25.9905 30.6499H15.3405C12.9405 30.6499 10.9905 28.6998 10.9905 26.2998V15.7002C10.9905 13.3002 12.9405 11.3501 15.3405 11.3501Z" fill="#FF978C"/>
</svg>
