<svg width="41" height="41" viewBox="0 0 41 41" fill="none" xmlns="http://www.w3.org/2000/svg">
<path d="M20.66 40.4102C31.7554 40.4102 40.7501 31.4152 40.7501 20.3198C40.7501 9.22442 31.7554 0.22998 20.66 0.22998C9.56463 0.22998 0.570068 9.22442 0.570068 20.3198C0.570068 31.4152 9.56463 40.4102 20.66 40.4102Z" fill="#231F20"/>
<path fill-rule="evenodd" clip-rule="evenodd" d="M15.27 8.72998H26.03C29.49 8.72998 32.33 11.5698 32.33 15.0298V25.7402C32.33 29.2002 29.49 32.04 26.03 32.04H15.27C11.81 32.04 8.96997 29.2002 8.96997 25.7402V15.0298C8.96997 11.5698 11.81 8.72998 15.27 8.72998ZM26.93 12.7998C27.66 12.7998 28.27 13.4101 28.27 14.1401C28.27 14.8701 27.66 15.48 26.93 15.48C26.15 15.48 25.59 14.8701 25.59 14.1401C25.59 13.4101 26.15 12.7998 26.93 12.7998ZM20.63 14.0298H20.69C24.15 14.0298 27.05 16.9301 27.05 20.3901C27.05 23.9001 24.15 26.75 20.69 26.75H20.63C17.17 26.75 14.33 23.9101 14.33 20.3901C14.33 16.9301 17.17 14.0298 20.63 14.0298ZM20.63 16.21H20.69C22.98 16.21 24.87 18.1101 24.87 20.3901C24.87 22.7301 22.97 24.6299 20.69 24.6299H20.63C18.34 24.6299 16.45 22.7301 16.45 20.3901C16.45 18.1001 18.35 16.21 20.63 16.21ZM15.33 10.7402H25.98C28.38 10.7402 30.33 12.6898 30.33 15.0898V25.6899C30.33 28.0899 28.38 30.04 25.98 30.04H15.33C12.93 30.04 10.98 28.0899 10.98 25.6899V15.0898C10.98 12.6898 12.93 10.7402 15.33 10.7402Z" fill="white"/>
</svg>
