<svg width="41" height="42" viewBox="0 0 41 42" fill="none" xmlns="http://www.w3.org/2000/svg">
<path d="M20.9103 41.0293C32.0057 41.0293 41.0003 32.0349 41.0003 20.9395C41.0003 9.84405 32.0057 0.849609 20.9103 0.849609C9.81488 0.849609 0.820312 9.84405 0.820312 20.9395C0.820312 32.0349 9.81488 41.0293 20.9103 41.0293Z" fill="#231F20"/>
<path fill-rule="evenodd" clip-rule="evenodd" d="M10.9401 17.3491H14.9301V30.749H10.9401V17.3491ZM12.91 10.5488C14.24 10.5488 15.3201 11.629 15.3201 12.959C15.3201 14.289 14.24 15.3691 12.91 15.3691C11.58 15.3691 10.54 14.289 10.54 12.959C10.54 11.629 11.57 10.5488 12.91 10.5488ZM17.3 17.3491H21.2401V19.2192C22.0801 17.9892 23.4601 17.1992 25.0301 17.1992H26.11C28.62 17.1992 30.6401 19.269 30.6401 21.729V30.749H26.7001V29.519V23.5088C26.6501 21.9788 25.6201 20.7988 24.0901 20.7988C22.5601 20.7988 21.28 21.9788 21.23 23.5088V30.749H17.29V17.3491H17.3Z" fill="#FF978C"/>
</svg>
