<svg width="41" height="41" viewBox="0 0 41 41" fill="none" xmlns="http://www.w3.org/2000/svg">
<path d="M20.91 40.4102C32.0054 40.4102 41.0001 31.4152 41.0001 20.3198C41.0001 9.22442 32.0054 0.22998 20.91 0.22998C9.81463 0.22998 0.820068 9.22442 0.820068 20.3198C0.820068 31.4152 9.81463 40.4102 20.91 40.4102Z" fill="#231F20"/>
<path fill-rule="evenodd" clip-rule="evenodd" d="M10.9401 16.7402H14.9301V30.1401H10.9401V16.7402ZM12.91 9.93994C14.24 9.93994 15.3201 11.0201 15.3201 12.3501C15.3201 13.6801 14.24 14.7598 12.91 14.7598C11.58 14.7598 10.54 13.6801 10.54 12.3501C10.54 11.0201 11.57 9.93994 12.91 9.93994ZM17.3 16.7402H21.2401V18.6099C22.0801 17.3799 23.4601 16.5898 25.0301 16.5898H26.11C28.62 16.5898 30.6401 18.6601 30.6401 21.1201V30.1401H26.7001V28.9102V22.8999C26.6501 21.3699 25.6201 20.1899 24.0901 20.1899C22.5601 20.1899 21.28 21.3699 21.23 22.8999V30.1401H17.29V16.7402H17.3Z" fill="white"/>
</svg>
