<svg width="41" height="41" viewBox="0 0 41 41" fill="none" xmlns="http://www.w3.org/2000/svg">
<path d="M20.16 40.4102C31.2554 40.4102 40.2501 31.4152 40.2501 20.3198C40.2501 9.22442 31.2554 0.22998 20.16 0.22998C9.06463 0.22998 0.0700684 9.22442 0.0700684 20.3198C0.0700684 31.4152 9.06463 40.4102 20.16 40.4102Z" fill="#231F20"/>
<path fill-rule="evenodd" clip-rule="evenodd" d="M27.2402 13.6499C25.9802 12.8699 25.0102 11.42 24.7602 9.95996C24.7102 9.61996 24.6602 9.33023 24.6602 8.99023H20.8202V24.29C20.8202 26.09 19.3602 27.54 17.5702 27.54C16.9902 27.54 16.5002 27.3899 16.0202 27.1499C15.0002 26.6199 14.2702 25.4998 14.2702 24.2798C14.2702 22.4798 15.7302 21.0298 17.5702 21.0298C17.9102 21.0298 18.2002 21.0802 18.5402 21.1802V17.29C18.2002 17.24 17.9102 17.1899 17.5702 17.1899C13.6402 17.1899 10.4302 20.3498 10.4302 24.2798C10.4302 26.6598 11.6402 28.8001 13.4902 30.0601C14.6602 30.8401 16.0602 31.3198 17.5702 31.3198C21.5002 31.3198 24.6602 28.1598 24.6602 24.2798V16.3101C26.1202 17.6201 28.0602 18.2499 30.0002 18.1099V14.27C29.0302 14.46 28.0602 14.1701 27.2302 13.6401L27.2402 13.6499Z" fill="white"/>
</svg>
