<svg width="41" height="42" viewBox="0 0 41 42" fill="none" xmlns="http://www.w3.org/2000/svg">
<path d="M20.1603 41.0293C31.2557 41.0293 40.2503 32.0349 40.2503 20.9395C40.2503 9.84405 31.2557 0.849609 20.1603 0.849609C9.06488 0.849609 0.0703125 9.84405 0.0703125 20.9395C0.0703125 32.0349 9.06488 41.0293 20.1603 41.0293Z" fill="#231F20"/>
<path fill-rule="evenodd" clip-rule="evenodd" d="M27.2407 14.2593C25.9807 13.4793 25.0107 12.0293 24.7607 10.5693C24.7107 10.2293 24.6606 9.93961 24.6606 9.59961H20.8207V24.8994C20.8207 26.6994 19.3607 28.1494 17.5707 28.1494C16.9907 28.1494 16.5007 27.9993 16.0207 27.7593C15.0007 27.2293 14.2707 26.1096 14.2707 24.8896C14.2707 23.0896 15.7307 21.6396 17.5707 21.6396C17.9107 21.6396 18.2006 21.6896 18.5406 21.7896V17.8994C18.2006 17.8494 17.9107 17.7993 17.5707 17.7993C13.6407 17.7993 10.4307 20.9596 10.4307 24.8896C10.4307 27.2696 11.6407 29.4094 13.4907 30.6694C14.6607 31.4494 16.0607 31.9297 17.5707 31.9297C21.5007 31.9297 24.6606 28.7696 24.6606 24.8896V16.9194C26.1206 18.2294 28.0607 18.8597 30.0007 18.7197V14.8794C29.0307 15.0694 28.0607 14.7795 27.2307 14.2495L27.2407 14.2593Z" fill="#FF978C"/>
</svg>
