<svg width="25" height="27" viewBox="0 0 25 27" fill="none" xmlns="http://www.w3.org/2000/svg">
<path d="M10.7001 13.72H9.6001C9.5101 13.72 9.42009 13.75 9.34009 13.8L7.54016 14.98C7.41016 15.07 7.33008 15.21 7.33008 15.37V16.37C7.33008 16.37 7.35013 16.44 7.38013 16.46C7.41013 16.48 7.45011 16.48 7.49011 16.46L9.3501 15.24V22.08C9.3501 22.14 9.40007 22.18 9.45007 22.18H10.7001C10.7601 22.18 10.8002 22.13 10.8002 22.08V13.83C10.8002 13.77 10.7501 13.73 10.7001 13.73V13.72Z" fill="black"/>
<path d="M18.2101 13.72H12.7501C12.6901 13.72 12.6501 13.77 12.6501 13.82V14.89C12.6501 14.95 12.7001 14.99 12.7501 14.99H16.7802L13.2201 22.02C13.2001 22.05 13.2001 22.09 13.2201 22.12C13.2401 22.15 13.2702 22.17 13.3102 22.17H14.3901C14.5701 22.17 14.7302 22.07 14.8102 21.91L18.2601 15.04C18.2901 14.98 18.3102 14.9 18.3102 14.83V13.81C18.3102 13.75 18.2601 13.71 18.2101 13.71V13.72Z" fill="black"/>
<path d="M5.87013 1.98002L6.23012 1.27002C6.46012 0.800021 7.1401 0.830022 7.3401 1.31002L7.55018 1.81002C7.64018 2.04002 7.87012 2.19002 8.11012 2.19002H17.4901C17.7201 2.19002 17.9402 2.06002 18.0402 1.85002L18.3102 1.29002C18.5402 0.820022 19.2202 0.840023 19.4202 1.33002L19.6702 1.95002C19.7702 2.18002 19.9901 2.33002 20.2401 2.33002C20.6501 2.33002 21.1801 2.31002 21.7001 2.35002C23.7201 2.49002 24.8601 3.60002 24.8801 5.63002C24.9201 11.46 24.9201 17.29 24.8801 23.11C24.8701 25.24 23.7101 26.41 21.6101 26.42C15.7301 26.46 9.8401 26.46 3.9601 26.42C1.8101 26.41 0.750125 25.29 0.740125 23.11C0.710125 17.38 0.720125 11.65 0.740125 5.93002C0.740125 3.45002 1.8201 2.40002 4.3401 2.33002C4.6901 2.33002 5.04019 2.33002 5.31019 2.33002C5.54019 2.33002 5.75012 2.20002 5.86012 1.99002L5.87013 1.98002ZM1.98012 10.89C1.98012 15.14 1.96013 19.3 1.99013 23.46C1.99013 24.61 2.73009 25.22 3.83009 25.23C9.81009 25.26 15.7902 25.25 21.7702 25.23C22.9102 25.23 23.6201 24.55 23.6402 23.47C23.7001 19.31 23.6602 15.15 23.6602 10.89H1.98012ZM17.9801 3.70002H7.74013L7.28016 4.79002C7.11016 5.19002 6.54011 5.20002 6.35011 4.81002L5.80018 3.63002C5.18018 3.63002 4.27016 3.42002 3.53016 3.69002C2.91016 3.92002 2.15018 4.64002 2.05018 5.24002C1.83018 6.59002 1.98012 8.01002 1.98012 9.44002H23.6702C23.6702 8.03002 23.7102 6.73002 23.6602 5.44002C23.6102 4.34002 22.9801 3.67002 21.8601 3.59002C21.1201 3.53002 20.3801 3.58002 19.8601 3.58002L19.2601 4.88002C19.0901 5.25002 18.5602 5.23002 18.4202 4.85002L17.9801 3.71002V3.70002Z" fill="black"/>
</svg>
