<svg width="25" height="27" viewBox="0 0 25 27" fill="none" xmlns="http://www.w3.org/2000/svg">
<path d="M5.79003 21.7C2.70003 21.17 1.60995 20.3 1.57995 18.4C1.54995 16.4 2.66999 15.51 6.11999 14.92C5.16999 11.14 4.26 7.36998 3.26 3.61998C2.89 2.24998 1.65999 2.27998 0.49999 2.18998C0.00999013 2.14998 0.0199901 0.979981 0.49999 0.949981C2.12999 0.859981 3.54002 1.23998 4.41002 2.88998C4.61002 3.27998 5.46001 3.48998 6.02001 3.49998C11.59 3.53998 17.17 3.51998 22.75 3.52998C24.78 3.52998 24.85 3.62998 24.34 5.66998C23.73 8.10998 23.14 10.56 22.51 12.99C21.84 15.55 20.8199 16.35 18.1899 16.37C14.1199 16.39 10.04 16.37 5.96996 16.38C5.43996 16.38 4.88999 16.4 4.37999 16.51C3.33999 16.73 2.67995 17.5 2.95995 18.47C3.14995 19.14 3.91005 19.73 4.56005 20.14C4.95005 20.39 5.6 20.23 6.14 20.23C11.61 20.23 17.08 20.23 22.54 20.23C23.02 20.23 23.52 20.2 23.98 20.31C24.22 20.37 24.39 20.71 24.59 20.92C24.38 21.11 24.18 21.45 23.96 21.47C23.28 21.54 22.58 21.5 21.73 21.5C22.25 23.42 22.43 25.31 20.47 26.18C19.55 26.59 18.0799 26.53 17.1899 26.06C15.4499 25.14 15.58 23.37 16.15 21.61H11.4399C11.9699 23.44 12.14 25.32 10.18 26.19C9.26004 26.6 7.79 26.54 6.89 26.07C5.14 25.15 5.28994 23.38 5.81994 21.7H5.79003ZM4.95995 4.88998C5.76995 8.12998 6.51999 11.23 7.36999 14.31C7.45999 14.65 8.09998 15.07 8.48998 15.08C11.86 15.14 15.24 15.17 18.61 15.06C19.35 15.03 20.52 14.52 20.71 13.97C21.68 11.02 22.41 7.98998 23.24 4.89998H4.96996L4.95995 4.88998ZM8.43993 21.75C7.39993 21.72 6.70997 22.58 6.72997 23.53C6.75997 24.64 7.42005 25.33 8.56005 25.34C9.79005 25.35 10.41 24.62 10.39 23.44C10.37 22.39 9.36993 21.78 8.43993 21.75ZM20.79 23.47C20.66 22.23 19.96 21.57 18.77 21.63C17.64 21.69 17.02 22.4 17.06 23.54C17.1 24.66 17.74 25.34 18.88 25.35C20.1 25.35 20.7 24.63 20.79 23.47Z" fill="black"/>
</svg>
