<svg width="41" height="41" viewBox="0 0 41 41" fill="none" xmlns="http://www.w3.org/2000/svg">
<path d="M20.53 40.4102C31.6254 40.4102 40.6199 31.4152 40.6199 20.3198C40.6199 9.22442 31.6254 0.22998 20.53 0.22998C9.43457 0.22998 0.439941 9.22442 0.439941 20.3198C0.439941 31.4152 9.43457 40.4102 20.53 40.4102Z" fill="#231F20"/>
<path fill-rule="evenodd" clip-rule="evenodd" d="M13.6598 12.3999C15.8998 12.2199 18.5498 12.1299 20.5598 12.1299C22.5798 12.1299 25.1798 12.2199 27.4598 12.3999C30.1098 12.6199 31.4498 13.0702 31.8098 15.7202C31.9898 16.9302 32.0798 18.59 32.0798 20.29C32.0798 21.99 31.9898 23.6999 31.8098 24.8599C31.4498 27.5499 30.1098 27.9502 27.4598 28.1802C25.1698 28.4002 22.5698 28.4502 20.5598 28.4502C18.5398 28.4502 15.8998 28.4102 13.6598 28.1802C11.0098 27.9602 9.62984 27.5499 9.26984 24.8599C9.13984 23.6899 9.0498 21.99 9.0498 20.29C9.0498 18.59 9.13984 16.9302 9.26984 15.7202C9.62984 13.0702 11.0198 12.6299 13.6598 12.3999Z" fill="white"/>
<path fill-rule="evenodd" clip-rule="evenodd" d="M18.2297 16.8398L24.2397 20.29L18.2297 23.79V16.8398Z" fill="#231F20"/>
</svg>
