<svg width="41" height="42" viewBox="0 0 41 42" fill="none" xmlns="http://www.w3.org/2000/svg">
<path d="M20.5402 41.0293C31.6356 41.0293 40.6302 32.0349 40.6302 20.9395C40.6302 9.84405 31.6356 0.849609 20.5402 0.849609C9.44476 0.849609 0.450195 9.84405 0.450195 20.9395C0.450195 32.0349 9.44476 41.0293 20.5402 41.0293Z" fill="#231F20"/>
<path fill-rule="evenodd" clip-rule="evenodd" d="M13.6598 13.02C15.8998 12.84 18.5498 12.75 20.5598 12.75C22.5798 12.75 25.1798 12.84 27.4598 13.02C30.1098 13.24 31.4498 13.6898 31.8098 16.3398C31.9898 17.5498 32.0798 19.2102 32.0798 20.9102C32.0798 22.6102 31.9898 24.32 31.8098 25.48C31.4498 28.17 30.1098 28.5698 27.4598 28.7998C25.1698 29.0198 22.5698 29.0698 20.5598 29.0698C18.5398 29.0698 15.8998 29.0298 13.6598 28.7998C11.0098 28.5798 9.62984 28.17 9.26984 25.48C9.13984 24.31 9.0498 22.6102 9.0498 20.9102C9.0498 19.2102 9.13984 17.5498 9.26984 16.3398C9.62984 13.6898 11.0198 13.25 13.6598 13.02Z" fill="#FF978C"/>
<path fill-rule="evenodd" clip-rule="evenodd" d="M18.2402 17.46L24.2402 20.9102L18.2402 24.4102V17.46Z" fill="#231F20"/>
</svg>
