<svg width="290" height="230" viewBox="0 0 290 230" fill="none" xmlns="http://www.w3.org/2000/svg">
<path d="M216.445 190.114C233.726 187.057 251.021 184 268.317 181.032C275.828 179.741 277.687 175.156 273.032 169.058C272.883 168.865 273.017 168.405 273.076 168.078C273.597 165.378 275.143 162.38 274.415 160.08C273.27 156.445 271.946 153.047 271.931 149.129C271.931 147.482 270.385 145.85 273.299 145.375C273.641 145.316 273.969 144.811 274.221 144.455C276.839 140.819 276.348 136.368 273.061 133.341C272.719 133.029 272.273 132.406 272.377 132.124C274.385 127.153 273.76 124.586 269.567 121.099C269.403 120.965 269.314 120.772 269.18 120.609C269.388 120.55 269.581 120.446 269.79 120.446C277.002 120.758 283.71 120.194 286.491 111.81C287.011 110.252 288.439 109.035 289.168 107.521C289.465 106.898 289.361 105.592 288.9 105.147C268.719 85.6491 248.493 66.1956 228.238 46.7866C226.721 45.3324 224.936 44.1749 223.3 42.8543C222.899 42.5278 222.304 42.0678 222.304 41.6524C222.245 35.0491 222.363 28.4607 222.2 21.8575C222.155 19.7356 222.706 19.0678 224.802 19.3053C226.513 19.513 228.401 19.6762 228.297 16.9162C228.193 14.2749 228.461 11.604 228.163 8.97752C228.074 8.11688 226.736 6.75172 225.948 6.72204C217.738 6.55882 209.529 6.61817 201.32 6.61817C193.066 6.61817 184.797 6.55881 176.543 6.7072C175.8 6.7072 174.506 8.01301 174.447 8.78462C174.194 11.782 174.209 14.824 174.447 17.8214C174.506 18.6672 175.666 19.424 176.335 20.2253C176.856 20.8485 177.852 21.4272 177.867 22.0504C177.986 27.2291 177.852 32.4078 177.986 37.5717C178.031 39.3672 177.436 39.5453 175.874 39.4266C160.601 38.2691 145.328 37.1711 130.039 36.073C115.272 35.0046 100.519 33.8917 85.7363 32.9124C83.4461 32.764 79.8025 32.3633 78.9845 33.5801C59.5768 62.1149 40.4666 90.8427 21.4158 119.6C21.1035 120.075 22.0107 122.167 22.6055 122.301C26.9927 123.236 31.4543 123.844 35.8861 124.616C36.2132 124.675 36.7486 125.283 36.6891 125.432C35.4696 128.429 35.9753 131.085 38.0425 133.519C38.2061 133.697 38.1763 134.261 38.0127 134.454C35.3507 137.525 35.3507 141.265 37.9978 144.336C38.1614 144.529 38.1763 145.123 37.9978 145.316C35.3507 148.387 35.3507 152.141 37.9978 155.198C38.1614 155.391 38.1317 156.014 37.9532 156.222C35.3953 159.145 35.3655 163.048 37.8937 165.941C38.102 166.179 38.102 166.891 37.8937 167.114C34.5327 171.016 35.9009 176.774 40.6748 178.673C40.9127 178.762 41.1358 178.91 41.3737 179.029C41.1061 179.089 40.8384 179.192 40.5707 179.207C27.4091 180.231 15.7348 181.24 2.5881 182.353C1.94862 182.412 1.39836 183.451 0.818359 184.045C1.65118 184.609 2.57323 185.751 3.30195 185.647C28.123 182.116 51.4866 181.656 76.3671 184.638C115.941 189.372 152.526 202.37 185.942 224.139C186.612 224.569 187.861 224.139 188.828 224.109C188.486 223.145 188.426 221.661 187.757 221.29C176.157 214.835 164.482 208.528 152.823 202.178C152.57 202.044 152.332 201.866 152.094 201.718C152.377 201.614 152.63 201.45 152.927 201.391C174.105 197.622 195.282 193.853 216.459 190.114H216.445ZM188.783 191.583C177.153 193.245 165.598 195.559 154.028 197.607C153.775 197.652 153.507 197.607 153.239 197.607C153.314 197.37 153.329 197.103 153.448 196.88C155.098 193.675 154.86 190.559 153.016 187.502C152.912 187.324 153.239 186.597 153.433 186.567C166.535 184.772 179.652 183.036 192.769 181.299C193.245 181.24 193.75 181.389 194.092 181.418C194.092 182.991 193.943 184.134 194.122 185.232C194.776 189.446 193.096 190.959 188.783 191.583ZM194.925 157.454C194.588 160.926 192.119 162.939 187.519 163.493C176.261 164.843 165.003 166.194 153.745 167.529C153.522 167.559 153.284 167.485 153.061 167.455C153.135 167.232 153.18 166.995 153.299 166.787C154.905 163.864 154.979 160.926 153.477 157.914C153.388 157.736 153.76 157.053 153.953 157.023C165.241 155.94 176.529 154.887 187.816 153.848C189.452 153.699 191.118 153.699 192.724 153.358C194.821 152.913 195.475 153.61 194.94 155.525C194.94 156.222 194.985 156.83 194.94 157.439L194.925 157.454ZM235.094 182.294C235.094 182.65 234.662 183.258 234.35 183.318C222.349 185.484 210.332 187.606 198.316 189.698C198.093 189.743 197.572 189.283 197.572 189.06C197.885 177.056 198.241 165.066 198.583 153.061C198.717 148.491 198.851 143.921 199.059 139.35C199.074 139.009 199.639 138.43 199.981 138.416C211.403 137.852 222.839 137.332 234.261 136.872C234.529 136.872 235.079 137.466 235.079 137.792C235.124 145.227 235.109 152.646 235.109 160.08C235.109 167.514 235.109 174.889 235.079 182.294H235.094ZM271.812 173.91C272.006 174.77 271.039 176.699 270.34 176.833C260.123 178.821 249.876 180.602 239.615 182.383C239.362 182.427 238.782 181.952 238.737 181.67C238.633 180.721 238.693 179.756 238.693 178.421C237.503 172.797 242.5 174.859 244.924 174.444C253.029 173.079 261.194 172.129 269.373 171.283C270.132 171.209 271.559 172.856 271.797 173.895L271.812 173.91ZM241.266 160.466C250.293 159.472 259.29 158.21 268.332 157.513C269.15 157.454 271.039 160.852 271.054 162.662C271.113 168.434 266.325 167.959 262.473 168.479C254.858 169.503 247.244 170.497 239.63 171.461C239.362 171.491 238.767 170.957 238.752 170.675C238.693 167.188 238.708 163.716 238.708 160.229C238.708 156.994 238.648 153.759 238.767 150.524C238.782 149.99 239.615 149.099 240.12 149.055C248.374 148.209 256.628 147.304 264.897 146.918C266.116 146.859 267.886 149.233 268.63 150.836C269.388 152.468 268.659 153.818 266.265 154.056C257.788 154.916 249.341 155.985 240.909 157.142C240.18 157.246 239.6 158.552 238.96 159.294C239.719 159.709 240.537 160.555 241.251 160.481L241.266 160.466ZM271.426 141.799C270.89 142.422 269.7 142.645 268.793 142.748C258.933 143.743 249.073 144.678 239.213 145.598C239.065 145.598 238.752 145.212 238.752 145.004C238.722 142.452 238.678 139.899 238.782 137.362C238.782 136.976 239.436 136.308 239.823 136.279C248.835 135.759 257.862 135.314 267.247 134.825C271.217 134.008 273.909 138.95 271.44 141.799H271.426ZM269.15 130.165C268.778 130.714 268.169 131.085 268.02 131.219C249.891 132.183 232.461 133.118 215.047 134.038C201.483 134.75 187.935 135.448 174.372 136.16C167.531 136.516 160.69 136.858 153.849 137.214C153.596 137.214 153.343 137.154 153.091 137.11C153.165 136.887 153.284 136.665 153.299 136.442C153.403 133.563 153.477 130.67 153.581 127.791C153.581 127.554 153.775 127.123 153.894 127.109C164.587 126.53 175.294 126.025 185.987 125.417C198.881 124.69 211.76 123.874 224.654 123.102C237.488 122.33 250.337 121.559 263.172 120.802C263.856 120.758 265.135 120.832 265.15 120.936C265.507 124.467 272.586 125.09 269.18 130.15L269.15 130.165ZM204.889 10.0162C210.689 10.3724 216.534 10.1943 222.363 10.0608C224.282 10.0162 224.713 10.4911 224.832 12.4349C225.011 15.2246 224.252 16.1298 221.397 15.833C218.497 15.5362 215.552 15.7737 212.622 15.7737C209.083 15.7737 205.543 15.833 202.004 15.7143C201.528 15.6995 200.785 14.8982 200.666 14.3491C199.818 10.7878 201.26 9.77881 204.889 10.0162ZM218.66 67.7388C218.66 68.1691 217.902 68.9556 217.486 68.9556C212.176 69.0001 206.867 68.9556 201.573 68.8666C201.246 68.8666 200.666 68.3027 200.666 67.9911C200.621 52.084 200.621 36.162 200.666 20.2549C200.666 19.9433 201.305 19.3795 201.647 19.3795C206.986 19.3201 212.31 19.3201 217.649 19.3795C218.006 19.3795 218.675 20.062 218.675 20.433C218.735 28.3569 218.72 36.2659 218.72 44.1898C218.72 52.0395 218.735 59.8743 218.675 67.724L218.66 67.7388ZM84.7845 50.2291C86.6584 47.1724 88.5173 44.1304 90.4358 41.1033C90.5399 40.9549 91.2389 40.9104 91.343 41.0588C93.6481 44.1453 95.9086 47.2466 98.1691 50.3627C98.3178 50.5556 98.3625 50.8375 98.4517 51.0749C98.2137 51.1343 97.9907 51.2233 97.7527 51.2233C93.663 51.2233 89.5584 51.2233 85.4686 51.2233C85.4686 51.342 85.4686 51.4459 85.4686 51.5646L84.2937 51.3272C84.4573 50.9562 84.5912 50.5704 84.7994 50.2291H84.7845ZM76.9173 62.9904C77.9435 61.284 79.1778 59.6814 79.9958 57.8859C81.0666 55.4969 82.7322 54.8291 85.2604 54.933C89.9748 55.1111 94.6891 54.9775 99.4035 54.9775L99.7753 54.2208C100.653 54.8737 101.694 55.3782 102.378 56.1943C103.776 57.8711 104.995 59.6962 106.274 61.462C106.601 61.9072 106.869 62.3969 107.167 62.8717C106.601 62.9608 106.036 63.124 105.471 63.1388C96.1614 63.4504 86.8666 63.7324 77.5568 64.0143C77.2296 64.0143 76.9025 63.9104 76.5753 63.8362C76.6943 63.5543 76.7686 63.2427 76.9173 62.9756V62.9904ZM71.3107 72.042C73.0209 66.433 77.7055 67.5162 81.825 67.3827C91.0009 67.0711 100.177 66.7001 109.368 66.6704C110.364 66.6704 111.405 68.644 112.342 69.7866C113.026 70.6324 113.561 71.5969 114.171 72.502C113.115 72.5911 112.059 72.7098 111.003 72.7543C98.1691 73.1995 85.3348 73.6298 71.9948 74.0898C71.7866 74.0601 71.0727 73.9859 70.3589 73.9117C70.6861 73.2885 71.1471 72.7098 71.3404 72.0569L71.3107 72.042ZM65.0348 82.2362C67.1763 75.6478 72.8276 77.6659 77.3189 77.4582C90.0491 76.8498 102.794 76.464 115.525 76.3304C116.893 76.3304 118.365 78.5414 119.659 79.8472C120.447 80.6485 120.968 81.7169 121.607 82.6666C120.507 82.7408 119.391 82.8595 118.291 82.8891C107.494 83.1859 96.6968 83.542 85.885 83.7498C79.3414 83.8685 72.783 83.7795 66.2245 83.7795C66.2245 83.9872 66.2245 84.2098 66.2245 84.4175C65.4809 84.3582 64.7373 84.284 63.9937 84.2246C64.3507 83.5569 64.8117 82.9337 65.0348 82.2362ZM59.3984 91.3472C60.5286 87.8453 63.2204 87.8453 66.2394 87.7859C84.2045 87.4149 102.17 86.9104 120.15 86.4653C123.957 86.3762 128.076 89.3588 129.281 93.0388C129.311 93.113 128.894 93.4691 128.686 93.4691C114.662 93.6917 100.638 93.9291 86.6137 94.0627C78.1368 94.1517 69.6748 94.0775 61.1979 94.0775C61.1979 94.2408 61.1979 94.404 61.1979 94.582C60.0676 94.5079 58.9225 94.4337 57.7922 94.3446C58.3425 93.3504 59.0712 92.4008 59.4132 91.3472H59.3984ZM56.5132 98.2472C81.3937 97.6537 106.274 97.2679 131.155 97.1491C132.508 97.1491 133.861 99.7904 135.215 101.2C134.932 101.304 134.65 101.512 134.367 101.512C122.797 101.645 111.227 101.808 99.6563 101.853C85.0373 101.912 70.4184 101.853 55.7994 101.853C55.7994 102.105 55.7696 102.358 55.7696 102.61C54.8178 102.417 53.8512 102.224 52.8994 102.031C54.104 100.71 55.2789 98.262 56.5281 98.2324L56.5132 98.2472ZM47.1737 111.231C48.8096 106.705 52.0517 105.741 56.7066 105.77C76.382 105.859 96.0573 105.503 115.733 105.281C122.023 105.207 128.314 105.236 134.59 104.939C137.208 104.821 138.933 105.503 140.167 107.818C140.985 109.347 142.115 110.727 143.097 112.166C141.342 112.21 139.587 112.299 137.832 112.299C124.953 112.299 112.074 112.299 99.1953 112.299V112.403C82.063 112.403 64.9455 112.403 47.8132 112.403C47.4414 112.403 47.0696 112.27 46.6978 112.21C46.8466 111.884 47.025 111.572 47.144 111.231H47.1737ZM41.225 125.506C41.2399 125.358 41.7604 125.298 42.0578 125.194C42.1173 125.461 42.1768 125.743 42.1768 125.803C42.0727 127.539 41.9835 129.052 41.8645 130.566C41.8348 130.952 41.6861 131.338 41.582 131.723C41.225 131.486 40.5558 131.219 40.5707 131.011C40.7045 129.171 40.9425 127.331 41.2102 125.506H41.225ZM41.4481 136.279C41.582 137.303 41.7307 138.312 41.8943 139.469C41.7307 140.419 41.5522 141.458 41.3737 142.496C40.8235 141.472 39.8271 140.449 39.842 139.439C39.8717 138.371 40.8681 137.332 41.4481 136.279ZM41.7158 175.275C41.0466 174.236 39.8271 173.168 39.8717 172.159C39.9163 171.016 41.0912 169.918 41.7604 168.805C41.9537 169.829 42.1322 170.838 42.3404 171.936C42.1322 173.049 41.924 174.162 41.7158 175.275ZM39.8717 161.119C39.8717 160.05 41.0912 158.982 41.7753 157.914C41.9537 158.982 42.1471 160.065 42.3404 161.178C42.1471 162.232 41.9537 163.27 41.7604 164.324C41.0763 163.256 39.8717 162.187 39.8717 161.119ZM41.7753 153.477C41.0912 152.364 40.0055 151.296 39.842 150.094C39.723 149.203 40.764 148.15 41.2994 147.17C41.6563 148.758 41.9984 150.346 42.3404 151.904C42.1173 152.512 41.9389 153.002 41.7753 153.477ZM42.0876 121.366C41.8943 121.366 41.463 120.683 41.5522 120.446C42.8907 116.662 45.523 115.712 49.5384 115.787C64.7671 116.068 80.0107 115.905 95.2543 115.905C110.87 115.89 126.47 115.979 142.086 115.801C145.06 115.772 147.053 116.469 148.421 119.096C149.135 120.476 150.101 121.722 150.949 123.013C149.462 122.879 147.96 122.627 146.473 122.612C134.308 122.434 122.157 122.271 109.992 122.138C87.3573 121.885 64.7373 121.648 42.1025 121.351L42.0876 121.366ZM144.748 137.481C141.565 137.392 139.275 134.958 139.379 131.768C139.483 128.444 141.922 126.099 145.164 126.218C148.51 126.337 151.128 128.904 151.023 131.99C150.934 135.181 148.183 137.57 144.748 137.466V137.481ZM151.023 147.037C151.023 150.168 148.391 152.646 145.045 152.646C141.684 152.646 139.364 150.331 139.379 147.022C139.394 143.728 141.714 141.428 145.015 141.413C148.302 141.413 151.023 143.936 151.023 147.037ZM136.628 166.06C136.687 166.209 136.256 166.772 136.107 166.743C129.712 165.897 123.317 165.051 116.952 164.042C116.461 163.968 116.164 162.662 116.105 162.558C116.313 159.294 116.447 156.801 116.67 154.308C116.685 154.085 117.369 153.744 117.726 153.774C124.269 154.367 130.813 155.005 137.356 155.643C137.609 155.673 137.862 155.777 138.115 155.851C138.011 156.074 137.936 156.341 137.788 156.534C135.631 159.487 135.215 162.647 136.628 166.045V166.06ZM137.029 136.472C137.103 136.605 136.761 137.184 136.628 137.169C130.619 136.902 124.611 136.605 118.603 136.264C118.306 136.249 117.8 135.834 117.77 135.552C117.517 132.866 117.235 130.18 117.22 127.494C117.22 126.916 118.187 125.996 118.841 125.832C119.956 125.55 121.176 125.758 122.366 125.758C122.366 125.818 122.366 125.862 122.366 125.921C127.125 125.921 131.898 125.921 136.657 125.921C136.97 125.921 137.267 126.04 137.579 126.099C137.475 126.381 137.401 126.678 137.237 126.93C135.393 130.061 135.319 133.222 136.999 136.457L137.029 136.472ZM117.532 140.671C117.562 140.345 118.276 139.825 118.648 139.84C124.73 140.107 130.813 140.449 136.895 140.79C137.222 140.805 137.55 140.923 137.877 140.998C137.743 141.279 137.639 141.561 137.475 141.814C135.512 144.841 135.289 147.987 136.806 151.266C136.88 151.414 136.479 152.023 136.33 152.008C130.114 151.459 123.912 150.865 117.711 150.212C117.309 150.168 116.967 149.574 116.803 149.426C117.056 146.176 117.235 143.416 117.532 140.671ZM112.52 142.437C108.535 142.318 104.534 142.066 100.549 141.769C100.266 141.754 99.7604 141.161 99.7753 140.864C100.028 135.923 100.34 130.996 100.682 126.07C100.682 125.907 101.099 125.639 101.322 125.625C103.181 125.595 105.055 125.61 106.914 125.61C113.799 125.625 113.844 125.625 114.127 133.623C114.216 136.116 114.127 138.623 113.933 141.101C113.889 141.606 112.996 142.452 112.52 142.437ZM113.338 146.888C113.071 152.928 112.862 157.899 112.595 162.855C112.595 163.063 112.104 163.449 111.881 163.419C107.717 162.885 103.568 162.321 99.4184 161.712C99.1358 161.668 98.7045 161.163 98.7194 160.881C99.0168 156.118 99.3589 151.37 99.7753 146.621C99.805 146.265 100.489 145.657 100.861 145.672C104.415 145.746 107.97 145.879 111.524 146.117C112.282 146.176 113.011 146.74 113.338 146.888ZM96.2209 140.404C96.2209 140.552 95.8194 140.79 95.6261 140.775C91.1794 140.285 86.7178 139.781 82.2712 139.247C82.0332 139.217 81.6763 138.876 81.6614 138.668C81.4235 134.602 81.0814 130.521 81.1855 126.47C81.1855 125.877 83.3271 125.343 84.4722 124.779C84.5466 125.016 84.6358 125.254 84.7102 125.476C88.4876 125.476 92.265 125.447 96.0573 125.521C96.4589 125.521 97.1876 126.174 97.1727 126.5C96.9348 131.13 96.5927 135.759 96.2358 140.389L96.2209 140.404ZM96.5035 148.298C96.0425 152.646 95.6855 156.311 95.2096 159.976C95.165 160.362 94.2876 160.956 93.8563 160.911C90.183 160.496 86.465 160.139 82.8661 159.323C81.8548 159.101 80.4568 157.439 80.4568 156.43C80.4568 152.201 80.8881 147.972 81.2302 143.743C81.2599 143.431 81.8994 142.867 82.1968 142.897C86.5096 143.342 90.8522 143.669 95.0758 144.574C95.8789 144.752 96.1466 147.319 96.4886 148.298H96.5035ZM75.2666 134.053C65.5553 133.311 55.8143 132.91 46.0732 132.361C45.865 132.361 45.4784 132.243 45.4784 132.198C45.5825 129.913 45.642 127.613 45.9543 125.358C45.9989 125.061 47.382 124.942 48.1404 124.749C48.1404 124.942 48.1702 125.135 48.185 125.328C57.6732 125.328 67.1466 125.328 76.6348 125.358C76.9025 125.358 77.3635 125.788 77.4081 126.07C77.6609 127.687 77.7055 129.349 78.0178 130.952C78.464 133.281 78.1517 134.276 75.2666 134.053ZM48.8394 135.997C58.2532 136.739 67.7117 137.065 77.1553 137.614C77.4676 137.629 77.9881 138.208 77.9881 138.519C77.9584 140.864 77.8394 143.223 77.6609 145.568C77.6312 145.85 76.962 146.325 76.6199 146.295C66.403 145.36 56.1861 144.41 45.9989 143.238C45.4932 143.179 45.2404 141.012 44.8686 139.825C44.4522 136.531 45.5973 135.745 48.8691 136.012L48.8394 135.997ZM76.9025 158.166C76.9025 158.299 76.3968 158.552 76.1738 158.522C66.2543 157.172 56.3496 155.807 46.4302 154.382C46.1178 154.338 45.6866 153.788 45.6568 153.447C45.5378 152.379 45.8502 151.221 45.5378 150.227C44.5712 147.17 45.6568 146.74 48.5568 147.067C57.7922 148.135 67.0573 148.907 76.3076 149.827C76.7091 149.871 77.0809 150.272 76.9471 150.183C76.9471 153.284 76.9471 155.718 76.9173 158.166H76.9025ZM138.189 186.419C137.505 189.164 136.776 191.909 136.018 194.625C135.958 194.847 135.542 195.203 135.423 195.159C114.29 187.547 92.5327 182.635 70.1655 180.558C62.1496 179.816 54.0891 179.682 46.0435 179.207C45.7014 179.192 45.1214 178.436 45.1363 178.035C45.2255 175.305 45.4337 172.574 45.6271 169.844C45.6568 169.503 45.8353 169.161 45.9394 168.85C55.1302 170.512 64.0384 172.129 72.9614 173.732C94.6148 177.649 116.253 181.567 137.907 185.514C138.055 185.543 138.263 186.122 138.189 186.374V186.419ZM137.832 171.699C135.72 174.518 135.259 177.56 136.479 180.869C136.553 181.092 136.568 181.329 136.598 181.552C136.36 181.552 136.122 181.581 135.884 181.552C106.17 176.18 76.4414 170.823 46.7425 165.407C46.2963 165.333 45.6866 164.606 45.6568 164.146C45.5378 162.336 45.5825 160.525 45.6271 158.7C45.6271 158.403 45.8948 158.121 46.0137 157.899C62.9676 160.243 79.6537 162.558 96.3399 164.858C110.007 166.743 123.674 168.642 137.341 170.541C137.698 170.586 138.04 170.719 138.397 170.809C138.204 171.105 138.04 171.432 137.832 171.714V171.699ZM145.06 156.682C148.376 156.682 150.994 159.116 151.023 162.217C151.053 165.348 148.406 167.826 145.06 167.826C141.654 167.826 139.364 165.585 139.364 162.247C139.364 158.908 141.654 156.667 145.06 156.667V156.682ZM151.023 177.545C150.934 180.632 148.228 183.125 145 183.08C141.654 183.036 139.305 180.661 139.379 177.382C139.453 173.939 141.803 171.773 145.357 171.847C148.495 171.921 151.113 174.548 151.038 177.545H151.023ZM145.03 198.275C141.729 198.275 139.349 195.886 139.379 192.592C139.394 189.283 141.743 186.983 145.105 187.012C148.376 187.027 151.038 189.55 151.038 192.621C151.038 195.708 148.302 198.29 145.045 198.275H145.03ZM148.347 112.27C148.005 112.285 147.529 111.958 147.306 111.647C140.807 102.788 134.322 93.8995 127.853 85.0111C127.705 84.8033 127.63 84.5362 127.526 84.3137C127.779 84.2543 128.032 84.1801 128.285 84.1504C129.623 83.9872 131.021 84.0317 132.27 83.6162C132.895 83.4085 133.519 82.3846 133.594 81.6872C133.638 81.2717 132.538 80.2924 132.032 80.3517C129.876 80.5891 127.749 81.1085 125.593 81.4943C125.414 81.524 125.132 81.2717 124.998 81.0937C123.6 79.1943 122.202 77.2949 120.834 75.3808C120.685 75.173 120.596 74.9208 120.492 74.6833C120.759 74.6091 121.027 74.4756 121.295 74.4459C124.567 74.1936 127.868 74.0453 131.125 73.6298C131.794 73.5407 132.315 72.413 132.91 71.7601C132.27 71.2556 131.616 70.3059 130.976 70.3208C126.827 70.4246 122.693 70.7808 118.543 70.9737C118.068 70.9885 117.398 70.6472 117.116 70.2614C113.071 64.8007 109.07 59.3104 105.085 53.7904C104.98 53.6569 105.263 52.9891 105.397 52.9743C109.04 52.6924 112.699 52.5588 116.328 52.1285C117.101 52.0395 117.77 50.9562 118.484 50.3182C117.755 49.7543 117.012 48.7008 116.298 48.7156C111.717 48.8046 107.137 49.1459 102.541 49.3537C102.185 49.3685 101.679 49.1311 101.456 48.8343C98.764 45.2137 96.102 41.5633 93.4548 37.8982C93.3061 37.6904 93.2317 37.4233 93.1276 37.1859C93.3804 37.1414 93.6332 37.0375 93.8861 37.0524C109.873 38.2098 125.86 39.3672 141.848 40.5246C153.581 41.3704 165.3 42.2162 177.034 43.0917C177.332 43.1066 177.852 43.4775 177.837 43.5666C176.053 50.9117 181.511 54.6659 185.541 59.1175C189.14 63.1091 192.694 67.1453 196.412 71.033C197.171 71.8195 198.509 72.4278 199.595 72.4427C206.451 72.5762 213.307 72.5762 220.162 72.4278C220.861 72.413 222.096 71.1666 222.126 70.4395C222.319 66.6259 222.215 62.7975 222.215 58.9691C222.215 55.0517 222.215 51.1195 222.23 47.202C222.23 46.9498 222.363 46.6975 222.438 46.4601C222.616 46.564 222.839 46.6382 222.988 46.7717C232.283 55.6749 241.563 64.5782 250.828 73.5111C250.917 73.6001 250.679 74.2827 250.531 74.2975C247.69 74.6982 244.835 74.9504 242.024 75.4846C241.266 75.633 240.671 76.5827 240.001 77.1762C240.671 77.7549 241.399 78.8827 241.994 78.8085C245.846 78.3485 249.668 77.6214 253.49 77.0278C253.892 76.9685 254.487 77.0575 254.769 77.3246C257.193 79.5801 259.573 81.8949 261.922 84.2246C262.027 84.3285 261.729 85.1446 261.536 85.1891C255.542 86.4801 249.519 87.6375 243.556 89.0324C242.678 89.2401 242.054 90.442 241.31 91.1988C242.143 91.6143 243.065 92.5046 243.794 92.3562C250.427 91.0653 257.03 89.5369 263.662 88.2162C264.599 88.0233 265.982 88.1866 266.607 88.7653C272.006 93.7808 277.285 98.9149 282.579 104.019C282.832 104.272 283.04 104.569 283.263 104.85C282.892 104.939 282.535 105.088 282.163 105.103C271.768 105.667 261.372 106.216 250.977 106.779C230.424 107.892 209.886 109.005 189.333 110.118C175.681 110.86 162.014 111.587 148.361 112.285L148.347 112.27ZM152.392 152.972C155.158 149.114 155.262 145.612 152.719 141.561C152.645 141.443 152.957 140.849 153.12 140.849C166.996 140.092 180.856 139.35 194.732 138.742C195.044 138.742 195.416 140.122 195.758 140.864C195.55 140.908 195.341 140.953 195.148 140.998C195.148 143.639 195.178 146.28 195.103 148.921C195.103 149.189 194.583 149.663 194.286 149.693C180.44 151.028 166.594 152.319 152.734 153.61C152.555 153.625 152.362 153.566 152.169 153.536C152.243 153.343 152.273 153.121 152.392 152.958V152.972ZM152.987 171.254C166.624 169.577 180.261 167.93 193.914 166.312C194.122 166.283 194.598 166.772 194.598 167.01C194.553 170.215 194.494 173.435 194.286 176.625C194.256 177.026 193.497 177.649 193.007 177.708C179.8 179.519 166.594 181.255 153.091 183.065C153.076 182.813 152.972 182.546 153.046 182.398C155.188 178.807 154.965 175.319 152.674 171.892C152.6 171.788 152.853 171.269 152.987 171.254Z" fill="white"/>
</svg>
