<svg width="260" height="230" viewBox="0 0 260 230" fill="none" xmlns="http://www.w3.org/2000/svg">
<path d="M219.589 109.718C216.9 109.881 212.977 110.178 209.055 110.341C204.702 110.519 200.349 110.623 195.981 110.682C176.325 110.979 156.654 111.157 136.998 111.543C125.305 111.765 113.628 112.062 101.935 111.914C86.2013 111.706 70.4825 111.513 54.7487 111.261C50.663 111.187 46.5773 110.86 42.4916 110.727C40.471 110.667 38.4505 110.816 36.4448 110.845C35.6722 110.845 34.8996 110.875 34.1419 110.771C32.4036 110.564 31.111 109.584 30.0562 108.249C27.159 104.569 25.495 100.325 24.3808 95.8287C22.9396 89.9822 22.5533 84.0319 23.1179 78.0519C23.623 72.6655 24.7968 67.4422 27.7533 62.8274C29.3579 60.3048 31.2002 57.9158 33.0425 55.5564C36.623 50.9416 40.6642 46.7719 45.6116 43.5816C48.9396 41.43 52.5202 39.8274 56.4425 39.1745C59.3396 38.6848 62.2665 38.3138 65.1636 37.8687C67.4962 37.5126 69.1156 36.3848 69.8733 33.9809C71.1213 29.9745 72.7853 26.1461 74.895 22.4958C79.159 15.0616 85.5476 10.3429 93.6745 7.98352C103.673 5.07513 113.524 5.75771 123.151 9.64545C125.186 10.4616 127.103 11.5596 129.109 12.45C130.238 12.9545 131.426 13.3403 132.615 13.6519C133.016 13.7558 133.61 13.5184 133.982 13.2513C137.057 11.0403 140.088 8.72545 143.178 6.54416C145.838 4.67448 148.661 3.10158 151.781 2.10739C155.956 0.757065 160.101 0.712549 164.276 2.21126C170.218 4.34803 175.82 7.07836 180.589 11.2925C186.264 16.3229 189.652 22.6293 191.004 30.0487C191.672 33.6842 191.925 37.3642 191.687 41.059C191.613 42.2758 191.806 42.6319 193.024 42.9138C193.975 43.1364 194.97 43.2255 195.936 43.2255C197.392 43.2255 198.863 43.1364 200.319 43.0622C204.033 42.8842 207.688 43.1513 210.957 45.0951C212.472 46.0003 213.839 47.1726 215.191 48.3151C223.184 55.0667 228.652 63.5842 232.455 73.2442C234.312 77.948 235.605 82.8003 236.645 87.7267C237.269 90.6648 236.526 93.4693 235.575 96.2145C234.832 98.3364 234.03 100.444 233.436 102.61C233.124 103.753 233.064 105.014 233.109 106.216C233.198 108.783 232.024 110.089 229.424 110.029C226.557 109.955 223.689 109.836 219.574 109.688L219.589 109.718ZM127.549 18.8009C127.46 18.7267 127.415 18.6525 127.356 18.6229C121.175 14.7796 114.445 12.7467 107.18 12.5093C100.004 12.2719 93.2436 13.7855 87.167 17.7177C85.4585 18.8306 83.6756 19.9287 82.5762 21.7093C80.9568 24.3506 79.4116 27.0513 77.9408 29.7816C76.9305 31.6513 76.0985 33.61 76.039 35.7913C75.9945 37.1713 76.5293 37.839 77.8516 38.1951C79.8276 38.7293 81.7888 39.2635 83.7648 39.8125C90.1682 41.6229 95.487 44.8874 99.0973 50.6745C102.158 55.5861 104.238 60.75 103.644 66.6558C103.153 71.4784 100.895 75.2029 96.3933 77.31C93.9716 78.4526 91.3716 78.7938 88.6973 78.6158C86.0379 78.4377 83.4676 77.8293 80.9568 76.9093C77.7476 75.7371 74.8208 74.1345 72.4882 71.5822C68.7739 67.5313 66.8425 62.7087 66.3522 57.3074C66.1145 54.6809 65.8173 52.0248 66.3522 49.3687C66.5453 48.4042 66.679 47.4396 66.7682 46.4603C66.9316 44.65 66.0996 43.7448 64.3316 43.7596C58.9385 43.7893 53.9613 45.3029 49.3853 48.0777C41.4219 52.9151 35.8802 59.9338 31.735 68.1248C29.863 71.8048 29.5065 75.8409 29.551 79.9067C29.5807 82.5629 29.8185 85.2042 29.8036 87.8603C29.7888 90.7984 30.0265 93.6919 30.4722 96.5706C30.799 98.7222 31.2299 100.859 32.359 102.773C33.3842 104.524 34.8699 105.37 36.9648 105.311C46.7408 105.014 56.5168 104.747 66.2928 104.494C81.5362 104.124 96.7945 103.96 112.023 103.233C121.234 102.788 130.461 102.714 139.672 102.625C151.84 102.506 164.008 102.194 176.161 101.542C182 101.23 187.809 100.592 193.648 100.28C196.233 100.132 198.848 100.34 201.433 100.503C202.726 100.577 203.112 101.007 203.29 102.091C203.484 103.337 204.271 104.034 205.415 104.272C206.292 104.45 207.213 104.494 208.104 104.494C211.284 104.494 214.478 104.435 217.657 104.42C220.079 104.42 222.486 104.42 224.804 103.53C225.294 103.337 225.546 103.07 225.68 102.536C225.962 101.512 226.289 100.503 226.735 99.5532C227.344 98.2325 228.102 96.9713 228.756 95.6803C229.513 94.1816 230.093 92.6087 230.018 90.8874C229.81 86.2874 229.023 81.7764 227.626 77.3842C224.863 68.748 220.287 61.1951 214.002 54.6513C211.789 52.3364 209.501 50.1106 206.336 49.1313C204.598 48.5822 202.845 48.0184 201.062 47.6474C198.714 47.1577 196.322 46.9945 193.96 47.6177C192.103 48.1074 191.048 49.3538 190.9 51.1493C190.677 53.7906 190.469 56.4319 190.246 59.088C189.756 64.9196 187.096 69.5345 182.297 72.8584C181.332 73.5261 180.217 74.0603 179.088 74.3719C175.834 75.2919 173.398 73.8525 172.789 70.5287C172.477 68.8816 172.447 67.1455 172.61 65.4687C173.071 60.9429 174.393 56.6693 177.365 53.108C178.806 51.3867 180.44 49.8138 182.06 48.2409C184.66 45.6887 185.937 42.6171 185.982 38.9816C186.041 34.9603 185.12 31.1022 184.288 27.2145C183.59 23.9351 182.119 21.1603 179.831 18.7713C179.534 18.4596 179.252 18.148 178.954 17.8364C174.438 13.1771 169.223 9.63061 162.849 8.04287C157.233 6.64803 151.944 7.33061 147.116 10.6693C145.496 11.7822 143.906 12.9396 142.317 14.0822C141.158 14.928 139.999 15.7738 138.87 16.6493C137.637 17.5842 137.607 18.0887 138.706 19.2164C139.167 19.6913 139.702 20.1067 140.133 20.5964C141.306 21.9616 142.658 23.2229 143.565 24.7513C147.621 31.5919 149.032 38.9964 147.814 46.8609C147.324 50.0216 146.165 52.9745 143.892 55.319C140.994 58.3016 137.429 59.7558 133.284 58.91C127.772 57.7971 124.25 54.2061 122.2 49.1313C120.061 43.819 119.972 38.3138 120.997 32.779C121.933 27.719 123.849 23.0745 127.385 19.2164C127.489 19.1125 127.534 18.9493 127.608 18.8158L127.549 18.8009ZM71.879 52.6629C71.879 56.1351 72.4287 59.4442 73.8253 62.6196C76.8413 69.5048 83.5419 74.6687 91.7579 73.5706C93.3327 73.3629 94.9225 73.1551 96.2299 72.0867C98.6219 70.1429 99.2162 67.5313 98.9487 64.6525C98.5625 60.5571 96.8539 56.9661 94.5659 53.6274C92.8128 51.0751 90.8368 48.5971 87.9693 47.3209C84.671 45.8519 81.2242 44.6351 77.7773 43.5519C75.1773 42.7358 73.5876 43.7003 72.9339 46.3267C72.4139 48.3893 72.2356 50.5409 71.9088 52.6629H71.879ZM125.469 38.2248C125.469 43.0622 126.85 47.3951 129.332 50.9416C131.025 53.3603 133.209 54.31 136.121 53.8351C139.301 53.3158 141.039 51.7726 141.529 48.79C141.693 47.7958 141.722 46.7867 141.826 45.7777C142.257 41.4893 141.93 37.2603 140.757 33.1054C139.642 29.1732 137.726 25.7603 134.383 23.2822C132.734 22.0506 132.407 22.0803 131.01 23.5938C127.177 27.719 125.484 32.6603 125.454 38.2396L125.469 38.2248ZM184.615 56.0461C184.615 55.4674 184.674 54.8738 184.6 54.2951C184.541 53.8797 184.392 53.2861 184.11 53.1674C183.724 53.0042 183.07 53.0635 182.713 53.3009C182.089 53.7164 181.495 54.2655 181.064 54.8738C179.103 57.6338 177.736 60.6906 177.261 64.0442C177.082 65.3203 177.29 66.7003 177.528 67.9764C177.736 69.0745 178.538 69.3861 179.415 68.7629C180.188 68.199 180.945 67.5016 181.48 66.7151C183.679 63.51 184.511 59.8596 184.63 56.0313L184.615 56.0461Z" fill="white"/>
<path d="M131.501 137.777C131.337 135.566 132.11 133.489 132.481 131.367C133.031 128.221 134.784 125.832 137.251 123.903C137.889 123.413 138.647 123.012 139.405 122.745C140.861 122.226 142.064 122.76 142.48 124.244C142.792 125.342 143.045 126.589 142.822 127.657C141.737 132.954 139.628 137.851 136.329 142.184C135.943 142.703 135.423 143.163 134.873 143.534C133.863 144.232 132.927 144.039 132.496 142.881C132.036 141.605 131.843 140.225 131.56 138.89C131.486 138.534 131.516 138.148 131.501 137.777Z" fill="white"/>
<path d="M176.206 141.62C176.934 136.62 177.558 131.99 179.697 127.746C180.158 126.841 180.797 125.98 181.495 125.238C182.476 124.2 183.798 124.081 185.076 124.734C187.72 126.069 188.671 128.013 187.735 130.847C187.096 132.762 186.116 134.587 185.15 136.367C183.976 138.504 182.639 140.552 181.421 142.659C181.049 143.297 180.827 144.024 180.455 144.662C179.504 146.324 178.182 146.354 177.291 144.662C176.756 143.623 176.503 142.451 176.221 141.635L176.206 141.62Z" fill="white"/>
<path d="M46.0127 134.29C46.4584 130.298 46.7258 126.248 47.959 122.36C48.4344 120.876 49.0584 119.496 50.351 118.502C50.7521 118.19 51.1087 118.116 51.5841 118.338C52.5201 118.769 53.5007 119.11 54.4367 119.54C55.6401 120.104 56.2493 121.084 55.9521 122.389C55.2241 125.595 54.5407 128.8 53.5898 131.946C52.8767 134.29 51.8367 136.546 50.8413 138.786C50.5144 139.498 49.8904 140.107 49.3258 140.686C48.8207 141.19 48.2413 141.057 47.8104 140.522C47.5876 140.255 47.3796 139.973 47.2458 139.662C46.5178 137.97 46.1316 136.189 46.0127 134.305V134.29Z" fill="white"/>
<path d="M150.072 167.336C150.206 166.297 150.399 164.443 150.726 162.632C151.276 159.65 153.103 157.528 155.599 155.955C157.441 154.797 159.388 154.931 160.769 156.163C161.111 156.474 161.23 156.726 160.963 157.172C157.961 162.291 156.104 167.87 154.515 173.539C154.203 174.622 153.712 175.097 152.761 175.186C152.033 175.245 151.365 174.741 150.949 173.761C150.206 171.951 150.132 170.052 150.072 167.321V167.336Z" fill="white"/>
<path d="M106.645 166.134C106.645 164.294 106.541 162.692 106.675 161.119C106.823 159.309 107.432 157.602 108.502 156.103C109.691 154.441 111.503 153.729 113.048 154.293C115.218 155.094 116.347 156.816 116.139 159.027C115.916 161.356 114.906 163.404 113.687 165.348C112.335 167.5 110.864 169.592 109.453 171.699C109.408 171.758 109.364 171.847 109.304 171.892C108.844 172.159 108.279 172.723 107.952 172.619C107.536 172.471 107.106 171.803 107.046 171.313C106.838 169.532 106.764 167.722 106.66 166.164L106.645 166.134Z" fill="white"/>
<path d="M88.5342 138.386C89.1285 134.098 90.6439 129.987 93.541 126.471C94.165 125.714 95.101 125.076 96.0073 124.69C97.2553 124.156 99.365 125.521 99.6028 126.842C99.6473 127.064 99.573 127.317 99.4988 127.539C97.597 132.644 95.413 137.615 92.3079 142.111C91.877 142.734 91.3273 143.298 90.7479 143.787C90.005 144.426 89.3513 144.233 89.0393 143.298C88.8462 142.734 88.7719 142.111 88.7273 141.502C88.6382 140.523 88.6085 139.544 88.5342 138.371V138.386Z" fill="white"/>
<path d="M174.393 190.291C174.14 191.345 173.962 192.413 173.635 193.437C172.61 196.553 171.303 199.521 169.342 202.162C168.762 202.949 168.064 203.646 167.321 204.284C166.95 204.596 166.37 204.714 165.865 204.789C165.375 204.863 165.063 204.596 165.152 204.017C165.791 199.862 166.37 195.693 167.128 191.552C167.321 190.469 167.99 189.46 168.495 188.451C168.673 188.11 168.97 187.813 169.267 187.546C170.07 186.849 170.946 186.27 172.075 186.671C173.249 187.071 173.962 187.917 174.17 189.149C174.23 189.505 174.259 189.876 174.289 190.247C174.319 190.247 174.348 190.262 174.378 190.276L174.393 190.291Z" fill="white"/>
<path d="M61.583 165.911C61.7167 165.214 61.7761 164.695 61.9247 164.235C62.8459 161.445 64.3167 158.982 66.471 156.964C68.1796 155.346 69.9476 154.901 70.5419 158.106C70.6013 158.447 70.6756 158.789 70.7944 159.1C71.6562 161.4 70.9876 163.418 69.4721 165.14C67.9864 166.831 66.367 168.404 64.7327 169.962C63.7521 170.897 63.0093 170.719 62.5636 169.487C62.1179 168.271 61.8802 166.995 61.583 165.911Z" fill="white"/>
<path d="M120.283 199.106C120.461 195.397 121.665 192.919 123.997 191.004C124.161 190.871 124.339 190.752 124.517 190.633C126.642 189.298 128.41 189.995 129.064 192.414C129.391 193.66 129.45 194.803 128.707 195.975C127.578 197.771 126.657 199.685 125.543 201.495C125.023 202.341 124.339 203.113 123.596 203.795C122.69 204.626 121.784 204.463 121.397 203.32C120.848 201.733 120.536 200.071 120.298 199.091L120.283 199.106Z" fill="white"/>
<path d="M138.038 218.515C138.32 219.272 138.543 220.043 138.899 220.755C139.999 222.922 139.999 223.337 138.127 224.881C136.894 225.904 135.512 226.78 134.13 227.611C133.521 227.967 132.734 228.13 132.02 228.204C131.01 228.308 130.356 227.492 130.446 226.483C130.49 225.994 130.505 225.489 130.475 224.984C130.342 221.438 131.768 218.648 134.62 216.601C135.972 215.621 137.176 215.755 137.904 216.868C138.186 217.298 138.231 217.892 138.379 218.396L138.052 218.515H138.038Z" fill="white"/>
<path d="M193.291 169.057C193.692 165.511 195.193 162.573 198.179 160.54C199.68 159.516 201.195 159.842 202.176 161.341C202.488 161.816 202.71 162.602 202.547 163.107C202.131 164.457 201.581 165.793 200.898 167.024C199.873 168.864 198.55 170.482 196.901 171.832C196.441 172.218 195.906 172.544 195.356 172.796C194.598 173.153 193.945 172.885 193.752 172.069C193.529 171.09 193.44 170.081 193.291 169.072V169.057Z" fill="white"/>
<path d="M85.2207 191.775C85.4138 190.618 85.5624 189.105 85.9487 187.665C86.4093 185.944 87.687 185.276 89.4401 185.588C91.1487 185.899 92.0401 186.953 91.9658 188.704C91.8321 191.523 91.1041 194.194 89.6481 196.628C89.2916 197.236 88.8013 197.8 88.2813 198.26C87.5087 198.928 86.7956 198.779 86.335 197.859C86.023 197.251 85.7704 196.583 85.6664 195.915C85.4733 194.654 85.399 193.393 85.2356 191.761L85.2207 191.775Z" fill="white"/>
<path d="M104.237 226.824C104.52 223.827 105.47 221.631 107.536 219.999C108.798 219.004 110.18 219.004 111.577 219.643C112.542 220.088 112.944 220.963 112.691 222.091C112.542 222.699 112.334 223.323 112.037 223.872C110.849 226.008 109.259 227.804 107.224 229.184C106.377 229.748 105.827 229.748 105.248 228.917C104.742 228.19 104.475 227.299 104.252 226.81L104.237 226.824Z" fill="white"/>
</svg>
