<svg width="260" height="230" viewBox="0 0 260 230" fill="none" xmlns="http://www.w3.org/2000/svg">
<path d="M131.219 41.8604C129.168 41.9494 127.207 42.1423 125.246 42.0978C123.894 42.0681 122.512 41.8752 121.22 41.5191C118.546 40.7623 117.639 38.8926 118.501 36.2365C119.125 34.3075 120.239 32.6604 121.517 31.132C125.603 26.2946 130.416 22.3178 136.018 19.3352C136.107 19.2907 136.181 19.2313 136.389 19.0978C136.032 18.9346 135.765 18.8159 135.512 18.6823C134.517 18.1481 133.477 17.703 132.556 17.0649C129.718 15.0765 128.946 11.9901 130.55 8.9036C132.288 5.56489 135.111 3.3836 138.662 2.38941C141.01 1.72167 143.506 1.43973 145.942 1.30618C151.127 1.00941 156.327 0.727474 161.512 0.816506C171.883 0.994571 182.075 2.47844 191.717 6.47005C197.541 8.88876 203.335 11.4559 208.773 14.6759C211.507 16.2933 213.869 18.3707 215.355 21.2791C215.503 21.5759 215.637 21.8726 215.637 22.3178C214.746 21.8726 213.824 21.4572 212.948 20.9823C211.804 20.3591 210.645 19.721 209.546 19.0088C205.668 16.4862 201.3 15.0172 197.11 13.1623C191.138 10.521 184.972 8.35457 178.524 7.18231C175.998 6.72231 173.443 6.45522 170.887 6.20296C166.742 5.78747 162.582 5.37199 158.422 5.13457C152.509 4.79328 146.611 4.98618 140.906 6.85586C139.717 7.24167 138.573 7.7907 137.429 8.29522C136.211 8.82941 135.334 9.76425 134.651 10.8772C133.789 12.272 134.056 13.4294 135.542 14.112C136.597 14.5868 137.771 14.9133 138.915 15.0765C142.302 15.581 145.719 15.4772 149.122 15.3288C150.176 15.2842 151.216 15.2397 152.271 15.2694C153.787 15.2991 154.574 15.9965 154.886 17.4804C155.272 19.2462 154.96 19.721 153.178 20.1365C152.821 20.2107 152.45 20.2997 152.093 20.2849C147.205 20.0178 142.748 21.5907 138.365 23.4901C132.808 25.8939 128.322 29.7223 124.221 34.0404C123.523 34.7675 122.958 35.6578 122.512 36.563C121.933 37.6907 122.334 38.3139 123.582 38.4475C125.35 38.6255 127.029 38.1952 128.678 37.6907C132.125 36.6223 135.542 35.4352 139.004 34.3965C140.415 33.9662 141.916 33.7139 143.387 33.5359C144.412 33.4172 144.575 33.6546 144.843 34.6488C144.991 35.1978 145.17 35.7468 145.363 36.2959C145.556 36.8301 145.407 37.2159 144.932 37.4978C144.679 37.6462 144.427 37.7797 144.174 37.9133C139.509 40.1094 135.631 43.2849 132.303 47.1875C130.268 49.5913 128.411 52.0546 127.534 55.141C126.762 57.8417 126.301 60.5572 126.836 63.3617C127.415 66.4481 129.48 67.8281 132.556 67.1752C134.116 66.8488 135.542 66.2107 136.686 65.0384C140.935 60.6462 145.17 56.2539 149.434 51.8617C151.008 50.2442 152.568 48.6268 154.173 47.0391C154.931 46.2972 155.54 46.401 155.733 47.3952C156.015 48.8643 156.981 49.4875 158.199 49.9623C159.269 50.3778 159.819 51.1197 160.027 52.2771C160.918 57.1739 161.973 62.0262 162.82 66.9378C163.533 71.063 164.023 75.2326 164.662 79.3726C165.316 83.5572 166.014 87.7417 166.712 91.9262C166.802 92.4604 166.95 93.0094 167.173 93.4991C167.574 94.3894 168.139 94.6713 169.015 94.2707C170.293 93.692 171.541 93.0094 172.744 92.2675C174.914 90.9468 177.053 89.5668 179.192 88.2017C180.158 87.5933 181.124 87.2817 182.238 87.7862C183.204 88.2165 183.575 88.7952 183.442 89.8339C183.308 90.8133 183.56 91.6442 184.155 92.401C186.651 95.5765 189.147 98.752 191.643 101.927C192.296 102.744 193.203 102.966 194.183 102.922C197.274 102.803 199.963 101.542 202.474 99.8352C202.607 99.7462 202.726 99.6423 202.86 99.5533C205.178 98.0694 206.114 95.8584 206.099 93.2023C206.099 91.3178 205.95 89.4333 205.846 87.5636C205.802 86.7326 205.995 86.4062 206.827 86.243C207.362 86.1391 207.926 86.0946 208.461 85.9907C209.219 85.8423 209.739 86.1688 209.887 86.881C210.11 87.9791 210.318 89.1068 210.348 90.2197C210.526 97.0455 207.421 101.482 200.854 103.901C199.651 104.346 198.403 104.687 197.214 105.162C196.635 105.4 196.13 105.845 195.595 106.186C196.026 106.661 196.367 107.269 196.887 107.566C198.462 108.486 200.082 109.362 201.746 110.148C203.781 111.113 205.831 112.033 207.926 112.878C208.832 113.249 209.828 113.457 210.808 113.635C212.562 113.947 213.973 113.279 214.983 111.855C215.726 110.816 216.38 109.703 217.019 108.59C218.92 105.296 220.882 102.017 223.898 99.583C224.923 98.752 226.052 97.9655 227.24 97.3868C230.004 96.0365 232.188 96.8675 233.555 99.6275C233.792 100.102 233.956 100.607 234.164 101.082C234.075 101.141 234 101.215 233.911 101.275C233.599 101.052 233.228 100.859 232.96 100.577C231.237 98.663 229.291 98.8114 227.612 100.503C225.992 102.135 224.522 103.931 223.229 105.815C221.699 108.041 220.466 110.46 219.039 112.73C218.49 113.606 218.49 114.318 219.128 115.075C219.247 115.208 219.307 115.386 219.396 115.549C219.307 115.638 219.247 115.742 219.158 115.787C216.469 117.122 215.162 119.556 214.374 122.227C213.483 125.284 212.77 128.415 212.22 131.546C211.18 137.422 210.095 143.298 208.491 149.055C208.342 149.589 208.253 150.124 208.194 150.673C207.986 152.231 208.446 153.121 209.962 153.537C211.7 154.026 213.483 154.338 215.266 154.635C218.445 155.169 221.639 155.644 224.819 156.118C225.799 156.267 226.81 156.311 227.79 156.4C229.35 156.534 229.766 157.009 229.662 158.552C229.662 158.76 229.647 158.967 229.632 159.175C229.558 160.451 229.187 160.748 227.909 160.674C221.907 160.288 216.068 159.146 210.378 157.217C209.976 157.083 209.575 156.979 209.159 156.89C207.614 156.564 206.842 156.86 206.143 158.3C205.326 159.991 204.583 161.727 203.915 163.493C201.85 168.909 198.432 173.376 194.198 177.219C189.221 181.73 183.501 184.876 176.875 186.167C173.383 186.849 169.818 187.176 166.267 187.532C154.544 188.675 142.792 188.719 131.04 189.001C124.34 189.164 117.728 188.511 111.117 187.636C103.911 186.686 96.7353 185.558 89.4404 185.44C83.8987 185.351 78.4313 185.87 73.1273 187.547C72.6964 187.68 72.2804 187.814 71.8644 187.992C71.6119 188.096 71.4039 188.289 71.181 188.437C71.3593 188.704 71.493 189.09 71.7456 189.224C72.637 189.698 73.5433 190.247 74.5239 190.47C77.9707 191.286 81.4324 191.954 84.8942 192.711C88.3707 193.467 91.8473 194.224 95.309 195.085C96.3044 195.337 97.2404 195.871 98.1467 196.391C98.6667 196.687 99.1422 197.162 98.9639 197.875C98.7856 198.527 98.2507 198.809 97.597 198.884C94.0907 199.299 90.5844 199.774 87.0633 200.1C82.9627 200.471 79.0256 201.258 75.4599 203.424C75.1627 203.602 74.8359 203.736 74.5833 203.944C74.2119 204.255 73.8999 204.611 73.573 204.953C74.0484 205.175 74.509 205.546 75.0142 205.591C77.317 205.813 79.6199 205.873 81.9227 206.11C85.2507 206.466 88.5787 206.897 91.9067 207.357C93.0804 207.52 94.0462 208.187 94.893 208.989C95.7399 209.805 95.7102 210.517 94.6256 211.007C93.5707 211.482 92.4119 211.853 91.2679 212.046C89.173 212.402 87.0187 212.431 84.9536 212.877C83.1262 213.277 81.3879 214.034 79.6199 214.672C79.3079 214.776 79.0404 215.013 78.7582 215.221C77.4953 216.186 77.5696 217.091 78.981 217.847C80.333 218.56 81.8336 218.767 83.3193 218.797C85.3993 218.842 87.405 219.153 89.4404 219.673C91.6542 220.251 93.9867 220.385 96.2747 220.711C100.762 221.364 105.248 222.032 109.735 222.67C115.812 223.531 121.933 224.08 128.069 224.347C137.444 224.762 146.804 224.703 156.179 224.466C163.414 224.287 170.664 223.976 177.9 223.724C182.283 223.575 186.666 223.486 191.034 223.219C198.269 222.759 205.46 221.958 212.339 219.48C215.384 218.382 218.341 217.031 220.792 214.88C224.314 211.793 226.468 207.802 227.731 203.32C228.147 201.866 228.399 200.353 228.845 198.913C229.083 198.157 229.558 197.474 230.019 196.806C230.405 196.257 230.97 195.916 231.712 195.99C231.891 196.005 232.114 196.035 232.262 195.946C233.094 195.411 233.525 195.946 234.015 196.495C235.471 198.112 235.754 199.967 235.219 202C235.011 202.786 234.788 203.587 234.387 204.285C232.663 207.267 231.029 210.354 229.038 213.158C226.052 217.387 221.758 220.044 217.093 222.106C211.759 224.466 206.158 225.86 200.423 226.825C194.956 227.745 189.459 228.398 183.917 228.561C174.943 228.843 165.97 228.991 156.996 229.199C145.942 229.451 134.903 228.977 123.864 228.695C119.615 228.591 115.381 228.16 111.147 227.864C108.458 227.671 105.739 227.611 103.079 227.196C99.1719 226.587 95.309 225.682 91.4164 225C88.0142 224.406 84.5822 223.946 81.165 223.397C79.085 223.056 77.1684 222.299 75.5342 220.949C72.5479 218.486 72.9342 214.657 76.3216 212.743C77.1387 212.283 78.0153 211.897 78.8176 211.422C79.2336 211.17 79.5902 210.799 79.9764 210.487C79.9467 210.398 79.917 210.309 79.8724 210.206C79.4416 210.146 79.0256 210.117 78.5947 210.042C76.3216 209.671 74.0336 209.389 71.7902 208.87C70.8096 208.647 69.8439 208.084 69.0267 207.475C68.0313 206.733 67.8827 205.769 68.6256 204.775C69.3982 203.751 70.3193 202.771 71.3593 202C74.1524 199.922 77.3319 198.527 80.5559 197.266C80.9719 197.103 81.3879 196.94 81.9673 196.717C81.5067 196.495 81.1799 196.287 80.8382 196.183C78.0302 195.337 75.2073 194.521 72.4142 193.646C70.869 193.156 69.309 192.651 68.165 191.39C67.7787 190.96 67.4073 190.515 67.1102 190.025C66.4416 188.912 66.4564 187.695 67.3627 186.76C68.1353 185.974 69.0416 185.232 70.0222 184.727C73.1719 183.095 76.6039 182.294 80.1102 181.878C85.741 181.211 91.3867 181.344 97.0176 181.834C105.323 182.546 113.628 183.437 121.933 184.164C125.112 184.446 128.322 184.549 131.531 184.594C139.227 184.683 146.908 184.757 154.604 184.683C161.75 184.609 168.867 184.134 175.835 182.353C182.684 180.602 188.894 177.664 193.871 172.5C197.883 168.331 200.438 163.345 202.176 157.869C203.781 152.809 204.762 147.616 205.668 142.407C206.723 136.324 207.629 130.195 209.456 124.275C210.006 122.479 210.69 120.713 211.328 118.947C211.834 117.582 211.611 117.226 210.184 117.197C206.767 117.137 203.632 115.995 200.423 114.941C193.648 112.73 188.879 108.086 184.853 102.491C183.055 99.9984 181.317 97.4759 179.564 94.9681C178.776 93.8404 178.464 93.603 177.216 94.2262C175.374 95.1462 173.636 96.2739 171.838 97.3126C170.768 97.921 169.728 98.5739 168.614 99.0933C167.292 99.7017 166.816 99.5681 165.836 98.5294C163.786 96.3926 162.671 93.7365 161.75 90.9913C160.22 86.5101 159.328 81.8804 158.6 77.2359C157.501 70.143 156.491 63.0352 155.421 55.9423C155.139 54.043 154.886 53.9391 153.356 55.0965C150.444 57.2926 148.052 60.023 145.571 62.6494C143.52 64.8307 141.44 66.9823 138.915 68.6294C135.884 70.603 132.63 71.4933 129.035 70.6178C128.381 70.4546 127.712 70.1875 127.192 69.8017C124.414 67.7094 122.943 64.8901 122.691 61.4326C122.616 60.3049 122.928 59.2662 123.567 58.3165C123.716 58.0939 123.835 57.7081 123.746 57.4855C123.226 56.1055 123.419 54.7552 123.864 53.4049C124.756 50.7191 126.405 48.4784 128.054 46.2526C129.02 44.9468 130 43.6559 130.966 42.3501C131.07 42.2165 131.159 42.0533 131.263 41.8901L131.219 41.8604Z" fill="white"/>
<path d="M64.6134 101.616C64.3163 102.284 64.0191 102.966 63.722 103.649C62.9345 105.459 62.0728 107.21 60.7208 108.694C57.3185 112.404 51.7917 112.27 48.5677 108.397C46.9334 106.424 45.9825 104.109 45.1357 101.735C44.6454 100.355 44.1997 98.9598 43.5311 97.5353C43.2785 98.1437 42.9665 98.7224 42.7734 99.3456C42.3277 100.8 41.986 102.284 41.4957 103.708C40.738 105.919 39.5048 106.824 37.3357 106.898C36.1471 106.943 35.018 106.631 34.0671 105.934C33.1163 105.237 32.21 104.48 31.4225 103.619C28.2283 100.117 26.6534 95.8733 25.7471 91.303C24.4694 84.863 24.0385 78.3785 24.5734 71.8346C24.7368 69.8759 24.5734 67.9024 24.6625 65.9437C24.9597 58.9398 26.282 52.1733 29.5357 45.8817C32.1951 40.7475 35.9391 36.5185 40.5003 32.9869C45.0168 29.4998 50.098 27.0217 55.3128 24.7811C62.6671 21.6204 70.1848 18.9495 77.9848 17.0798C87.0774 14.9133 96.274 13.8301 105.619 14.5127C109.987 14.8391 114.325 15.4624 118.664 16.0411C120.402 16.2785 121.947 17.0798 123.24 18.3114C123.477 18.5488 123.685 18.8011 123.983 19.1275C123.745 19.1869 123.611 19.2759 123.477 19.2611C115.44 18.6378 107.402 18.252 99.3345 18.3856C82.0408 18.6824 65.7425 22.852 50.4545 30.954C45.2694 33.6991 40.6043 37.1714 36.9345 41.8159C33.3688 46.3417 31.3334 51.5353 30.1597 57.1146C28.8968 63.154 28.674 69.2824 28.4214 75.4108C28.3471 77.132 28.0945 78.883 28.2728 80.5895C28.5551 83.4237 29.1345 86.2282 29.5803 89.0475C29.8774 90.932 30.0705 92.8462 30.4865 94.7011C31.3037 98.2327 33.1163 101.186 35.9243 103.5C36.8751 104.287 37.514 104.287 37.9894 103.189C38.6728 101.631 39.282 99.9688 39.5494 98.292C40.2477 93.974 40.7825 89.6262 41.3025 85.2933C41.5848 82.934 41.7037 80.5449 41.9563 78.1856C42.0751 77.0133 42.714 76.1378 43.8134 75.6482C45.1208 75.0843 46.2054 75.5295 46.5471 76.9243C46.8294 78.0669 47.0077 79.2391 47.1117 80.4114C47.5128 84.6701 47.8545 88.9288 48.2408 93.1727C48.5677 96.8082 48.9985 100.444 50.9448 103.649C51.5094 104.584 52.178 105.474 52.9357 106.275C54.4363 107.878 56.4271 107.789 57.8831 106.171C59.0123 104.91 59.5768 103.352 60.0374 101.764C61.1071 98.0695 61.5677 94.2708 61.7608 90.4424C61.9094 87.7417 61.9094 85.0411 62.1174 82.3553C62.1768 81.4798 62.5631 80.5746 62.994 79.7882C63.6625 78.5862 64.762 78.5269 65.7128 79.5508C66.842 80.7675 67.1837 82.3256 67.2728 83.8985C67.5254 87.7417 67.674 91.5998 67.9117 95.443C68.0751 98.0695 68.61 100.637 69.8134 103.011C70.7643 104.895 72.146 106.424 73.8397 107.655C75.682 108.991 76.6923 108.16 77.1528 106.364C77.3608 105.563 77.4945 104.702 77.4945 103.871C77.4648 95.7249 77.4054 87.5637 77.346 79.4172C77.3311 76.8798 77.1083 74.3275 77.2271 71.8049C77.3757 68.5998 78.8168 66.0327 81.5208 64.1482C88.3403 59.3553 95.8134 56.1204 104 54.6217C107.09 54.0579 110.24 53.8353 113.36 53.4791C114.266 53.3753 115.068 53.7166 115.752 54.2953C116.287 54.7404 116.316 55.2449 115.796 55.7049C115.365 56.0759 114.86 56.3875 114.355 56.6249C112.661 57.3817 110.893 57.7972 109.021 57.7379C103.435 57.5895 98.4134 59.3404 93.7185 62.2488C93.1243 62.6198 92.3368 62.6643 91.6534 62.872C90.9403 63.0798 90.1528 63.1985 89.5288 63.5695C87.8945 64.5191 86.3197 65.5578 84.7597 66.6114C82.546 68.0804 81.6248 70.054 81.7288 72.814C82.0111 81.5391 82.0854 90.2643 82.2488 99.0043C82.2934 101.586 82.2488 104.138 81.506 106.646C81.1048 108.041 80.5551 109.377 79.53 110.445C78.178 111.84 76.618 112.122 74.7163 111.662C69.962 110.504 67.466 107.062 65.4603 103.026C65.2374 102.58 64.9997 102.15 64.7768 101.72C64.7768 101.705 64.7323 101.72 64.6283 101.675L64.6134 101.616Z" fill="white"/>
<path d="M190.498 66.8929C188.864 67.0264 187.378 66.5516 186.026 65.6909C183.099 63.8361 181.034 61.2393 179.652 58.0935C179.474 57.678 179.37 57.1884 179.325 56.7284C179.281 56.1942 179.608 55.9716 180.068 56.2535C180.633 56.58 181.212 56.9361 181.658 57.3961C182.95 58.7613 184.198 60.1858 185.432 61.6103C187.318 63.8064 190.929 64.5632 193.544 63.2722C195.49 62.3077 196.218 60.5271 195.624 58.1529C195.282 56.7877 194.465 55.7193 193.633 54.6361C193.068 53.9238 192.578 53.1522 192.132 52.3509C191.85 51.8464 191.716 51.2232 192.221 50.7484C192.771 50.2438 193.455 50.1103 194.123 50.4367C194.628 50.689 195.163 50.9858 195.535 51.4013C198.209 54.3393 199.442 57.7671 198.818 61.729C198.387 64.4445 195.98 66.3735 192.86 66.6851C192.073 66.7593 191.285 66.8187 190.513 66.8929H190.498Z" fill="white"/>
</svg>
