<svg width="261" height="230" viewBox="0 0 261 230" fill="none" xmlns="http://www.w3.org/2000/svg">
<path d="M173.647 140.018C184.132 135.121 186.339 134.78 193.915 143.95C206.786 159.516 218.628 175.943 230.888 191.998C231.216 192.428 231.32 193.052 231.678 193.437C235.437 197.563 240.045 200.872 239.359 207.816C239.15 209.983 242.834 212.98 245.28 214.879C248.919 217.699 249.486 220.637 246.22 224.05C241.417 229.08 227.413 231.751 221.134 228.665C219.896 228.056 218.792 226.869 217.987 225.697C203.371 204.507 188.815 183.273 174.214 162.068C172.439 159.501 170.157 157.201 168.8 154.441C167.771 152.349 167.935 149.708 167.368 147.348C166.876 145.256 166.637 142.763 165.31 141.354C164.475 140.463 161.566 140.641 160.075 141.354C141.402 150.197 122.431 150.657 102.998 144.114C71.9762 133.667 57.4944 94.122 74.2133 65.2162C89.0083 39.6639 120.477 27.0065 149.053 34.7968C175.123 41.9046 198.106 72.2349 185.936 105.993C182.759 114.822 177.346 122.939 172.409 131.056C169.59 135.7 169.128 135.67 173.617 139.974L173.647 140.018ZM127.293 39.7678C108.919 41.1033 90.3506 50.1845 77.7032 69.92C62.0134 94.4039 75.481 128.859 99.8361 137.97C106.503 140.463 113.587 142.541 120.641 143.238C158.017 146.977 185.265 121.455 181.656 80.6781C179.657 58.1084 156.003 39.7233 127.278 39.7678H127.293ZM206.249 198.868C210.619 195.129 215.049 191.419 219.329 187.561C219.926 187.012 220.194 185.543 219.941 184.697C218.032 178.495 213.11 177.471 208.695 182.249C207.83 183.199 207.01 184.193 206.1 185.098C200.03 191.271 200.03 192.28 206.249 198.868ZM203.013 163.641C199.523 160.57 196.719 156.252 194.303 156.459C191.141 156.726 187.174 160.021 185.683 163.063C184.669 165.14 187.293 168.983 188.472 172.559C193.632 169.399 197.629 166.95 203.013 163.641ZM219.821 218.174C225.071 216.334 230.321 214.494 236.779 212.223C234.706 209.448 233.453 206.065 231.141 205.026C226.742 203.068 218.464 212.98 219.821 218.174ZM210.425 172.5C208.129 170.957 205.056 168.078 204.37 168.568C200.746 171.12 197.361 174.236 194.736 177.783C193.945 178.851 195.839 181.908 196.704 184.712C201.641 180.32 205.534 176.848 210.425 172.5ZM190.47 149.916C187.308 147.66 184.713 144.366 182.059 144.306C179.568 144.262 177.017 147.645 174.109 149.812C176.331 152.542 178.33 155.005 180.478 157.646C183.311 155.732 185.593 154.248 187.815 152.661C188.531 152.156 189.068 151.399 190.47 149.916ZM227.696 197.414C225.31 191.271 224.385 190.856 220.433 194.283C217.555 196.791 214.676 199.462 212.484 202.548C211.455 204.003 212.051 206.585 211.902 208.662C212.543 208.84 213.185 209.018 213.841 209.196C216.063 202.37 221.104 198.809 227.696 197.429V197.414Z" fill="white"/>
<path d="M40.9546 154.99C40.4773 153.284 39.2544 151.444 39.7615 150.39C43.7137 142.006 50.0821 135.818 58.4341 131.767C59.329 131.337 60.9994 131.767 61.9092 132.391C62.3715 132.702 62.3715 134.72 61.8495 135.284C56.1075 141.427 50.2462 147.452 44.3401 153.447C43.7436 154.055 42.6996 154.218 40.9695 154.975L40.9546 154.99Z" fill="white"/>
<path d="M45.8312 92.1336C35.9877 99.909 25.503 103.292 14.0488 105.904C15.5104 98.0394 37.3449 88.4832 45.8312 92.1336Z" fill="white"/>
<path d="M184.505 40.9255C184.505 33.0016 198.39 21.3977 209.725 19.3203C203.729 29.6332 196.615 37.5274 184.505 40.9255Z" fill="white"/>
<path d="M147.01 182.293C139.508 177.693 137.942 164.665 143.401 159.664C146.07 157.216 147.905 158.596 148.755 161.222C151.037 168.256 149.963 175.052 147.01 182.308V182.293Z" fill="white"/>
<path d="M20.7611 43.4779C22.9088 43.1959 25.4889 41.994 27.1146 42.7804C33.0356 45.6295 38.7776 48.9237 44.2511 52.5591C45.489 53.3901 45.3249 56.3133 45.8171 58.272C43.9826 57.9456 41.9096 58.0643 40.3734 57.2037C33.7216 53.4495 27.2339 49.4133 20.6865 45.4811C20.7164 44.8133 20.7462 44.1456 20.776 43.4779H20.7611Z" fill="white"/>
<path d="M83.177 178.836C81.8496 173.316 87.0845 161.371 91.9317 159.724C92.9011 159.397 95.4663 160.777 95.7497 161.786C97.1367 166.831 88.7698 177.871 83.1919 178.836H83.177Z" fill="white"/>
<path d="M80.9543 38.6697C77.5389 37.3639 74.392 37.0968 72.9603 35.3903C70.7082 32.7194 69.1869 29.2174 68.2026 25.8194C67.7403 24.2316 69.2764 22.08 69.9028 20.1807C71.782 21.3381 74.5263 22.0652 75.3764 23.7271C77.4793 27.8671 78.7172 32.4226 80.9543 38.6549V38.6697Z" fill="white"/>
<path d="M117.748 22.7924C112.051 17.495 109.874 11.3073 109.396 4.51115C109.203 1.70663 110.948 0.475017 113.677 2.43373C117.719 5.34211 120.508 17.2428 117.748 22.7924Z" fill="white"/>
<path d="M209.128 113.709C214.631 108.501 224.102 110.014 230.097 117.033C223.968 119.422 212.499 117.597 209.128 113.709Z" fill="white"/>
<path d="M230.247 75.7957C224.132 76.3744 217.913 81.0337 211.902 75.3357C218.017 72.5905 224.132 73.5105 230.247 75.7957Z" fill="white"/>
<path d="M155.884 20.4036C156.451 16.412 156.853 12.3907 157.733 8.47328C157.942 7.55328 159.791 7.01909 160.88 6.29199C161.417 7.36038 162.595 8.57715 162.386 9.46748C161.447 13.3701 160.119 17.1836 158.926 21.0268C157.912 20.8191 156.898 20.6113 155.884 20.4036Z" fill="white"/>
<path d="M147.845 44.9017C148.308 47.5579 148.397 50.3624 149.382 52.8108C149.978 54.3095 151.798 55.8527 153.379 56.2978C156.227 57.0991 159.3 57.0695 161.745 57.3366C161.417 61.8178 161.164 65.3049 160.925 68.8069C160.344 77.2798 156.719 84.4024 150.709 90.2191C136.466 103.989 119.135 110.133 99.4485 109.806C98.0913 109.777 95.5112 107.195 95.6603 106.067C96.406 100.265 96.0481 95.8133 88.5313 95.9617C88.2032 95.9617 87.8601 95.1604 86.667 93.6172C89.1875 92.8753 91.2308 91.703 93.2144 91.792C98.8669 92.0146 98.151 87.2811 99.5529 84.2688C101.119 80.9153 98.3598 79.9507 96.242 78.4224C94.7654 77.354 93.8408 75.5288 92.6625 74.0301C94.6461 74.3566 96.6745 74.5495 98.5984 75.0837C99.7766 75.4101 100.791 76.2856 102.804 77.4579C104.012 75.8849 104.967 73.9262 106.533 72.7688C110.381 69.9198 111.231 67.0708 108.158 63.0495C107.383 62.0404 107.98 59.9927 107.935 58.4198C109.277 58.954 111.112 59.1024 111.842 60.0817C113.811 62.6933 115.258 65.4682 119.255 62.9604C122.745 60.7643 126.712 59.0727 123.64 53.7753C123.147 52.9295 123.341 51.683 124.355 49.3682C125.936 50.7185 127.965 51.7869 129.009 53.4785C130.977 56.6688 141.462 58.1972 143.714 55.1553C144.326 54.3391 143.878 52.7959 144.012 51.594C144.281 49.3237 144.624 47.0682 144.937 44.7979C145.907 44.8424 146.876 44.872 147.83 44.9166L147.845 44.9017ZM142.103 89.2843C149.501 84.3875 154.542 77.443 155.556 67.8424C155.899 64.6224 154.93 62.6933 151.514 61.9366C142.67 59.9482 134.587 62.1443 127.159 65.2604C132.17 73.303 136.928 80.9746 142.118 89.2991L142.103 89.2843ZM111.365 75.0095C109.307 77.3985 106.906 79.1495 105.951 81.494C103.475 87.5778 101.701 93.9436 99.538 100.161C98.0466 104.464 100.254 105.77 103.878 105.073C111.037 103.693 118.106 101.897 125.056 100.309C120.269 91.4656 116.033 83.6456 111.38 75.0095H111.365Z" fill="white"/>
</svg>
