<svg width="260" height="230" viewBox="0 0 260 230" fill="none" xmlns="http://www.w3.org/2000/svg">
<g clip-path="url(#clip0_767_2338)">
<path d="M258.336 119.867C257.623 117.716 256.019 116.365 253.864 115.608C251.859 114.911 249.853 114.184 247.907 113.338C247.045 112.952 246.228 112.314 245.559 111.632C244.088 110.133 242.826 108.441 241.325 106.972C237.759 103.5 233.376 102.639 228.592 103.367C225.012 103.916 221.699 105.221 218.49 106.868C217.866 107.18 217.167 107.403 216.484 107.521C209.872 108.649 203.707 110.919 198.15 114.674C190.603 119.793 185.596 126.53 184.556 135.878C183.902 141.725 185.878 146.191 190.811 149.352C193.53 151.088 196.546 151.993 199.77 152.097C200.602 152.127 201.136 152.468 201.404 153.195C201.627 153.833 201.864 154.501 201.924 155.168C202.266 159.249 204.301 162.618 206.544 165.838C209.144 169.562 213.052 170.808 218.296 170.838C219.158 170.705 220.882 170.586 222.531 170.17C231.326 167.9 238.458 163.107 243.866 155.836C245.708 153.358 246.956 150.583 247.357 147.467C247.565 145.85 247.981 145.39 249.556 145.019C249.734 144.974 249.912 144.959 250.091 144.9C254.37 143.728 256.999 140.805 258.559 136.828C260.788 131.145 260.223 125.461 258.351 119.823L258.336 119.867ZM255.083 134.261C254.191 137.036 252.616 139.306 249.942 140.686C248.026 141.68 246.703 141.517 245.143 139.988C244.267 139.128 243.554 138.074 242.662 137.228C241.771 136.398 240.79 135.626 239.735 135.003C238.77 134.424 237.73 134.691 236.868 135.388C235.991 136.086 235.546 137.006 235.739 138.163C236.08 140.27 237.21 141.873 239.007 142.956C240.107 143.624 241.28 144.173 242.439 144.737C243.732 145.375 244.192 146.191 243.91 147.616C243.42 150.079 242.157 152.171 240.656 154.13C238.131 157.439 234.936 159.991 231.252 161.831C227.85 163.538 224.358 165.125 220.778 166.401C215.607 168.256 210.17 166.016 207.362 161.163C206.128 159.041 205.519 156.756 205.49 154.308C205.49 153.239 205.876 152.423 206.708 151.785C207.376 151.281 208.09 150.806 208.728 150.257C210.17 149.04 210.214 146.399 208.832 145.093C208.238 144.544 207.525 144.425 206.767 144.574C205.712 144.781 204.717 145.212 204.063 146.087C202.756 147.838 201.032 148.105 199.056 147.645C197.541 147.289 196.026 146.978 194.525 146.562C191.509 145.701 190.038 143.505 189.548 140.552C188.642 135.107 189.979 130.136 193.039 125.639C197.006 119.808 202.518 115.831 208.788 112.834C208.877 112.789 208.981 112.774 209.263 112.715C208.639 115.074 207.911 117.3 207.956 119.734C208.966 119.63 209.278 118.873 209.605 118.235C210.511 116.41 211.834 114.97 213.483 113.828C214.448 113.16 215.474 112.522 216.543 112.047C219.277 110.83 222.026 109.628 224.834 108.575C228.043 107.373 231.371 106.943 234.773 107.714C237.299 108.293 239.304 109.658 240.79 111.765C240.998 112.062 241.102 112.448 241.31 112.908C240.805 112.997 240.448 113.041 240.107 113.116C239.616 113.219 239.111 113.264 238.651 113.442C237.254 113.976 236.66 115.193 237.224 116.558C238.368 119.348 240.523 120.995 243.435 121.633C244.252 121.811 244.935 121.455 245.485 120.861C246.05 120.268 246.57 119.63 247.104 119.021C247.832 118.205 248.679 117.819 249.794 118.161C250.299 118.309 250.819 118.383 251.324 118.532C253.612 119.155 255.023 120.505 255.454 122.954C256.108 126.767 256.256 130.551 255.068 134.276L255.083 134.261Z" fill="white"/>
<path d="M139.301 119.986C138.558 119.11 137.993 119.17 137.488 120.223C137.102 121.025 136.79 121.885 136.641 122.746C136.047 126.04 135.512 129.364 134.963 132.673C134.651 134.528 134.041 136.264 132.585 137.555C131.709 138.341 131.129 138.327 130.401 137.407C129.911 136.798 129.421 136.086 129.228 135.344C128.366 131.946 127.579 128.533 126.821 125.12C126.643 124.334 126.494 123.577 125.588 123.547C124.741 123.518 124.592 124.334 124.399 124.987C124.384 125.046 124.384 125.105 124.369 125.165C123.939 128.889 124.429 132.539 125.454 136.116C125.974 137.941 126.791 139.632 128.232 140.938C129.51 142.096 131.011 142.481 132.689 142.036C134.799 141.487 136.315 140.092 137.548 138.401C140.192 134.795 141.262 130.67 141.247 126.248C141.247 125.758 141.247 125.268 141.247 124.764C141.217 122.924 140.46 121.366 139.301 119.986Z" fill="white"/>
<path d="M34.9592 66.6408C35.6129 65.8247 36.2369 64.9789 36.8461 64.133C36.3261 65.8395 35.8209 67.5608 35.3009 69.2672C33.9341 73.8227 31.7055 78.9718 33.0278 83.7943C34.1421 87.8898 38.6735 89.7743 42.1501 86.9995C46.2655 83.7201 47.0975 77.013 48.0929 72.235C48.9695 67.9466 49.5787 63.6137 49.9352 59.2659C51.3318 62.8272 53.0255 66.2698 55.0312 69.5343C56.8141 72.4427 58.8347 75.2176 61.0484 77.8292C63.1284 80.2776 65.3867 83.1414 68.7147 83.7943C74.4644 84.9369 77.5844 79.5356 78.0152 74.5647C78.5055 68.9408 76.0838 62.8866 72.8152 58.435C71.1958 56.2388 69.2941 54.2801 67.1695 52.6182C69.5318 52.9298 71.9089 53.1672 74.2861 53.3601C77.5547 53.6124 80.8381 53.7608 84.1215 53.6569C86.6324 53.5827 89.9009 53.7014 92.1444 52.4105C96.6758 49.7988 95.6507 43.5221 91.2232 41.5485C86.3501 39.3821 80.9867 38.2543 75.6827 37.7498C76.3215 37.5569 76.9752 37.3788 77.6141 37.1859C82.4724 35.7763 89.3958 34.515 91.7878 29.3511C92.7238 27.333 92.4118 24.9588 90.9707 23.2524C89.4998 21.5163 87.1969 20.9079 85.0129 20.8337C82.2644 20.7298 79.4861 21.4717 76.8712 22.2137C73.9741 23.0298 71.1364 24.0834 68.3878 25.3001C67.3924 25.7453 66.4118 26.2201 65.4312 26.7098C66.6644 25.4337 67.8975 24.1576 69.1307 22.8814C73.0975 18.7859 78.9958 14.1563 79.5307 8.01304C79.7387 5.59433 78.7135 3.27949 76.6038 1.98852C74.4198 0.653039 71.8495 1.03885 69.6655 2.13691C67.1844 3.38336 65.1638 5.47562 63.5444 7.68659C61.4941 10.4911 59.6072 13.4588 57.8095 16.4266C56.3387 18.8601 54.9272 21.3234 53.5901 23.8311C53.7387 22.5847 53.8724 21.3382 53.9467 20.0917C54.1547 16.9756 54.1547 13.8447 53.9467 10.7285C53.8427 9.21497 53.6792 7.70143 53.4861 6.18788C53.3227 4.91175 53.2632 3.56143 52.4907 2.46336C51.3912 0.905297 49.1627 0.326587 47.4541 1.17239C45.4781 2.15175 44.1855 4.82272 43.1604 6.67756C41.2289 10.1498 39.9067 13.9188 39.1787 17.8066C37.2621 13.3105 34.7512 8.30981 30.5169 5.90594C25.7627 3.2053 21.2758 6.4253 20.9341 11.5447C20.5924 16.5453 22.6724 22.0208 25.0198 26.3537C27.0404 30.1079 29.7295 33.4317 32.9089 36.2363C27.8129 36.1769 22.7169 36.5776 17.6804 37.4085C14.3672 37.9576 11.0244 38.655 7.83008 39.6937C5.64608 40.3911 3.40266 41.4595 1.85751 43.1956C-1.41106 46.8608 0.639226 51.5943 4.97751 53.004C9.65751 54.5324 15.3478 53.1524 19.9832 52.0692C23.9055 51.164 27.6941 49.7989 31.4678 48.3892C28.2289 52.1582 25.0049 55.9272 21.7661 59.6963C19.5375 62.293 17.1752 64.8305 15.0804 67.5459C13.6244 69.4453 12.2575 71.7898 12.2575 74.2679C12.2575 76.553 13.7729 78.7047 16.0015 79.3724C18.3044 80.055 20.8004 79.1943 22.8209 78.0518C27.5307 75.3659 31.6461 70.8401 34.9889 66.6556L34.9592 66.6408ZM44.9432 71.3743C44.4232 73.9266 42.5512 87.044 37.6187 84.9518C35.8209 84.1801 35.8507 81.3905 35.9398 79.8027C36.1181 76.9834 37.2175 74.2234 38.0347 71.5376C40.1741 64.3705 42.3284 57.2182 44.4678 50.0511C44.4678 50.0066 44.4975 49.9621 44.4975 49.9176C45.2404 49.9472 45.9684 49.8434 46.6667 49.6505C46.7855 49.7098 46.9192 49.7543 47.0529 49.7989C47.0678 57.055 46.3992 64.2814 44.9432 71.3892V71.3743ZM41.1249 42.973C41.1992 45.0059 42.4918 46.4008 44.0667 47.0092C44.2004 47.2614 44.3489 47.5137 44.5124 47.7659C43.7249 47.7363 42.9672 47.5137 42.2838 47.0537C40.6941 45.9853 40.5455 44.4272 41.1249 42.973ZM46.8598 47.3059C46.8598 47.3059 46.8301 47.2763 46.8152 47.2614C46.8895 47.2466 46.9787 47.2317 47.0529 47.2021C46.9935 47.2317 46.9192 47.2614 46.8598 47.2911V47.3059ZM46.1467 43.0918C46.0724 43.4182 45.9832 43.6853 45.8644 43.8782C45.7307 43.7892 45.6118 43.6705 45.5078 43.5518C45.5078 43.4182 45.5375 43.2698 45.5672 43.1511C45.7752 42.3498 46.3547 41.6821 47.2164 41.6227C47.3947 41.6227 47.5729 41.6227 47.7067 41.6672C47.7512 41.7563 47.7809 41.8601 47.8107 41.964C47.0381 41.4447 45.7307 42.0234 46.1318 43.0769L46.1467 43.0918ZM80.5855 24.6027C82.5169 24.1576 84.5969 23.7717 86.5581 24.2911C88.4152 24.7659 89.7078 26.3982 88.6678 28.253C87.6575 30.0485 85.4141 31.2208 83.5718 31.9627C80.9272 33.0311 78.0747 33.6395 75.3409 34.4408C71.4929 35.5537 67.6301 36.6814 63.7821 37.7943C60.5432 38.2247 57.3935 39.0705 54.4964 40.5395C52.8324 41.3853 53.9912 44.0266 55.7592 43.5221C58.6564 42.6911 61.5387 41.8453 64.4358 41.0143C66.4267 40.7769 68.4472 40.7027 70.4084 40.7176C75.6381 40.7621 80.8975 41.5188 85.9044 43.0621C87.5981 43.5814 90.6289 44.1601 91.5501 45.8517C92.4415 47.4692 91.4609 49.3982 89.7672 49.8879C87.5238 50.5259 84.8495 50.4221 82.5467 50.4518C79.7832 50.4814 77.0198 50.3479 74.2712 50.1253C68.2838 49.6505 62.3261 48.7898 56.4575 47.4988C54.4072 47.0537 53.5455 50.1698 55.5958 50.6447C65.3867 52.8853 73.3649 61.4027 74.6575 71.4189C75.0884 74.7872 74.2267 81.7021 69.2941 80.6337C66.5604 80.0401 64.4507 76.9092 62.7718 74.8763C60.8998 72.6059 59.2061 70.1872 57.6907 67.6795C54.2438 61.9963 51.7775 55.8234 50.2621 49.3685C50.2472 49.2943 50.2175 49.235 50.2027 49.1756C51.6735 47.8995 52.1935 45.4066 52.4907 43.6705C52.7135 42.3647 52.6987 40.9401 52.2827 39.6788C52.6541 39.6788 53.0404 39.5453 53.3821 39.2188C60.9889 32.0518 70.4084 26.9769 80.6004 24.6621L80.5855 24.6027ZM57.9284 22.5995C59.3844 20.0176 60.8998 17.4801 62.5044 14.9872C64.0198 12.6279 65.5204 10.0756 67.4221 7.9982C68.8632 6.41046 70.9135 4.52594 73.1718 4.37756C75.6975 4.21433 76.6335 6.6182 76.0838 8.7253C75.4895 11.0253 73.9741 13.0879 72.3695 14.7943C70.3044 17.0053 68.1501 19.1569 66.0552 21.3382C61.0484 26.5169 56.0564 31.6956 51.0495 36.8743C50.9009 37.0376 50.7821 37.2008 50.7078 37.3788C50.6929 37.3788 50.6781 37.3492 50.6632 37.3343C52.8175 32.304 55.2392 27.3924 57.9284 22.6143V22.5995ZM47.3947 5.95046C47.7809 5.38659 48.7021 3.45756 49.6529 4.16981C50.4998 4.80788 50.3512 7.3453 50.4552 8.38401C50.7969 11.7079 50.9009 15.0614 50.7524 18.4001C50.4849 24.4988 49.3409 30.5085 47.4541 36.3105C46.4289 36.3105 45.3889 36.533 44.4381 36.904C43.9329 32.7195 43.0564 28.6092 41.7787 24.6176C41.7787 18.0292 43.7249 11.4259 47.3947 5.93562V5.95046ZM25.6289 71.7601C23.6381 73.5259 21.3947 75.6776 18.7055 76.2414C17.3832 76.5234 15.9124 76.2711 15.5409 74.7576C15.2438 73.5853 15.9569 72.1756 16.5067 71.1963C18.2598 68.1247 21.0381 65.513 23.3261 62.8272C28.1992 57.1588 33.0575 51.4905 37.9307 45.8072C38.8964 44.6943 38.0049 42.4834 36.3409 43.0918C30.9627 45.0505 25.6438 47.3059 20.0724 48.7008C17.0861 49.4427 14.0255 50.0214 10.9649 50.2885C8.8998 50.4666 6.0918 50.5408 4.38323 49.1459C2.06551 47.2466 4.4278 44.8724 6.28494 43.8485C9.13751 42.2756 12.6587 41.6969 15.8084 41.0588C23.1032 39.5898 30.5467 39.1743 37.9604 39.7085C39.6689 39.8272 40.0404 37.4976 38.7775 36.6666C34.0975 33.6098 30.2792 29.3956 27.6644 24.4692C26.3569 22.0059 25.3912 19.3943 24.7524 16.6937C24.2472 14.5272 23.4747 11.3072 24.8267 9.27433C26.6541 6.51433 29.9672 9.25949 31.4232 10.9066C33.4438 13.2214 34.8404 16.2485 36.1181 19.0234C37.0244 20.9969 37.8267 23.0447 38.5249 25.1072C38.5992 29.7963 39.6095 34.3963 41.4964 38.7292C38.4358 41.593 37.4552 46.8311 41.3775 49.0569C41.3627 49.1014 41.3329 49.1459 41.3181 49.1905C39.1044 54.9034 35.9844 60.3047 32.0918 65.0382C30.1158 67.4421 27.9615 69.6976 25.6289 71.7601Z" fill="white"/>
<path d="M117.044 162.262C115.202 155.139 114.266 147.883 113.612 140.582C113.285 136.902 112.869 133.237 112.349 129.572C112.052 127.48 110.7 126.812 108.695 127.45C107.967 127.687 107.521 128.118 107.536 128.919C107.565 132.792 107.387 136.694 107.684 140.552C108.264 148.283 109.972 155.822 112.112 163.256C112.602 164.932 111.919 166.045 110.165 166.342C109.571 166.446 108.932 166.505 108.323 166.416C106.124 166.105 103.94 165.763 101.771 165.348C99.3345 164.873 96.9277 164.651 94.6545 165.912C94.0751 166.238 93.2728 166.802 93.2431 167.292C93.2134 167.782 93.9265 168.509 94.4911 168.805C97.7002 170.571 101.192 171.358 104.535 171.64C107.877 171.358 110.923 171.15 113.776 169.918C116.732 168.657 117.772 166.787 117.356 163.612C117.297 163.152 117.178 162.707 117.059 162.262H117.044Z" fill="white"/>
<path d="M107.417 185.973C103.406 189.268 98.5324 192.799 93.0501 191.078C87.1667 189.238 84.3438 183.095 82.1598 177.857C80.6147 174.177 76.009 175.72 77.569 179.474C80.4513 186.359 84.0913 193.586 91.3564 196.687C98.5473 199.759 105.203 195.945 110.715 191.419C113.107 189.46 110.091 183.777 107.417 185.959V185.973Z" fill="white"/>
<path d="M172.343 111.988C172.313 107.789 171.838 103.634 170.991 99.5085C168.851 89.1808 164.795 79.6246 159.224 70.6917C158.689 69.8459 158.006 69.0446 157.248 68.4066C148.586 61.1801 138.602 58.8059 127.578 60.4975C120.58 61.5659 114.073 64.0588 107.892 67.4124C100.776 71.2704 94.0902 75.7814 87.9096 81.0343C82.5164 85.6046 77.1827 90.2788 72.7553 95.7988C66.8124 103.203 61.6867 111.216 56.8136 119.363C50.0536 130.685 43.977 142.378 38.4353 154.338C34.617 162.588 30.769 170.823 27.2776 179.222C27.3964 179.296 27.5153 179.385 27.6342 179.459C24.6033 184.742 21.8993 190.618 23.6079 196.821C23.8307 197.622 24.1279 198.364 24.4696 199.061C25.3164 201.807 28.1393 204.151 30.7542 205.368C34.5576 207.134 38.6284 207.935 42.7736 208.425C46.681 208.885 50.6033 208.899 54.5107 208.484C54.5404 208.484 54.5702 208.484 54.6147 208.484C55.1942 209.879 55.833 211.244 56.5313 212.594C58.4627 216.111 61.9244 221.023 67.3473 223.753C69.249 224.718 70.7793 225.638 72.0273 226.498C75.3256 228.205 78.817 229.347 82.665 229.303C84.329 229.288 85.9782 229.006 87.6273 228.902C89.4399 228.783 91.2673 228.798 93.0799 228.62C97.7302 228.16 102.068 226.587 106.422 225.014C106.422 225.014 114.697 220.207 121.576 217.372C122.452 218.767 123.73 219.969 125.216 220.8C128.93 222.878 133.15 223.931 137.324 224.465C142.034 225.059 146.774 224.718 151.424 223.842C152.078 223.723 152.627 223.352 153.043 222.863C154.544 222.314 155.955 221.646 157.174 220.845C160.977 218.367 163.74 214.716 164.988 210.472C165.672 208.603 167.113 203.929 167.217 203.32C168.019 199.002 168.643 194.639 169.594 190.351C170.991 184.03 172.417 177.723 172.417 171.209C172.417 161.876 172.417 152.527 172.417 143.194C172.417 132.807 172.462 122.419 172.402 112.032L172.343 111.988ZM156.312 115.46C155.851 121.485 155.554 127.524 154.915 133.519C153.444 147.527 150.473 161.163 144.203 173.91C141.232 179.964 137.458 185.514 133.491 190.945C128.886 197.251 123.983 203.305 118.233 208.647C112.81 213.678 106.897 217.951 99.929 220.622C93.377 223.145 86.6319 223.961 79.7679 222.521C72.8742 221.082 67.793 216.957 64.1976 210.962C61.4193 206.318 59.9336 201.228 59.0273 195.945C57.5713 187.443 57.7496 178.896 58.329 170.319C58.9976 160.451 61.5084 150.954 64.0936 141.487C66.0399 134.379 68.5062 127.465 71.641 120.787C71.7896 120.461 71.9827 120.164 72.1462 119.838C72.2502 119.852 72.3542 119.882 72.4582 119.897C72.5473 120.802 72.6959 121.707 72.7107 122.627C72.7404 125.15 72.7107 127.687 72.7107 130.21C72.7404 136.427 77.7027 138.208 81.833 137.599C85.3987 137.065 88.0433 135.285 89.7667 132.079C92.2182 127.554 93.9862 122.85 94.2239 117.656C94.2684 116.529 93.7039 115.43 92.6639 115.104C92.2033 114.956 91.401 115.074 91.089 115.401C90.3462 116.158 89.6627 117.048 89.2319 117.998C87.8056 121.099 86.5279 124.274 85.1016 127.376C84.4924 128.711 83.705 129.972 82.9027 131.219C82.5313 131.798 81.9667 132.302 81.3873 132.688C80.3473 133.4 79.2479 133.267 78.6982 132.139C78.0742 130.863 77.4799 129.453 77.3907 128.073C77.1976 125.506 77.3759 122.909 77.3907 120.327C77.3907 119.986 77.4502 119.645 77.465 119.318C77.5096 117.894 76.9302 116.914 75.5782 116.365C74.241 115.816 74.0182 115.371 74.2262 113.932C74.3153 113.353 74.4044 112.745 74.6867 112.24C75.6227 110.549 76.5736 108.872 77.6284 107.254C78.5942 105.756 80.1839 105.563 81.833 105.37C101.742 102.981 120.625 97.3272 138.275 87.6821C141.351 86.0053 144.5 84.4324 147.665 82.904C148.616 82.444 149.7 82.2214 150.755 82.0434C152.122 81.8208 153.132 82.5034 153.846 83.6311C154.9 85.3227 155.242 87.2517 155.465 89.1659C156.46 97.9059 156.98 106.661 156.297 115.46H156.312Z" fill="white"/>
</g>
<defs>
<clipPath id="clip0_767_2338">
<rect width="260" height="230" fill="white"/>
</clipPath>
</defs>
</svg>
