<svg width="290" height="230" viewBox="0 0 290 230" fill="none" xmlns="http://www.w3.org/2000/svg">
<path d="M108.772 211.689C108.162 211.6 107.553 211.511 106.958 211.407C104.816 211.051 102.853 210.235 101.113 208.929C98.808 207.193 97.2614 204.893 96.3393 202.192C95.4767 199.684 95.1198 197.073 95.2834 194.431C95.4916 190.944 96.5773 187.71 98.4957 184.757C99.4029 183.362 100.399 182.041 101.574 180.869C102.377 180.068 103.106 179.192 103.924 178.406C105.694 176.729 107.508 175.097 109.293 173.435C109.605 173.138 109.902 172.841 110.2 172.544C110.438 172.307 110.438 172.07 110.304 171.773C109.798 170.704 109.739 170.645 108.594 170.779C107.984 170.853 107.374 170.986 106.794 171.179C103.18 172.366 99.5962 173.583 95.9824 174.755C94.3167 175.29 92.6511 175.853 90.8962 176.076C87.8178 176.462 85.349 175.438 83.4455 173.034C82.0029 171.239 81.0808 169.161 80.248 167.039C79.2962 164.606 78.6716 162.053 78.508 159.457C78.3147 156.444 78.4039 153.432 79.2219 150.509C79.6531 148.966 80.1737 147.437 80.7537 145.939C81.1701 144.87 81.9434 144.01 82.7167 143.164C83.966 141.828 85.3788 140.671 86.8065 139.528C87.7434 138.786 88.8142 138.757 89.8255 139.202C90.6434 139.558 91.4465 140.033 92.1157 140.611C95.9229 143.906 98.466 148.016 99.8639 152.868C100.563 155.287 101.054 157.75 101.217 160.258C101.351 162.528 101.336 164.799 101.396 167.069C101.411 167.633 101.5 168.182 101.559 168.835C101.916 168.775 102.199 168.775 102.452 168.701C104.935 168.004 107.434 167.321 109.917 166.594C113.992 165.392 118.052 164.16 122.127 162.944C125.577 161.905 129.028 160.866 132.493 159.842C137.207 158.462 141.921 157.082 146.636 155.732C149.253 154.975 151.871 154.174 154.518 153.551C157.105 152.942 159.723 152.453 162.34 152.067C165.077 151.666 167.858 151.459 170.609 151.177C172.84 150.954 175.041 150.657 177.108 149.752C178.744 149.04 180.276 148.15 181.614 146.948C184.693 144.173 186.611 140.73 187.503 136.724C188.173 133.667 187.712 130.699 186.507 127.835C185.704 125.951 184.633 124.23 183.369 122.612C182.789 121.87 182.298 121.054 181.793 120.253C181.332 119.526 181.436 118.813 181.941 118.116C182.447 118.071 182.834 118.353 183.191 118.665C184.633 119.971 185.763 121.499 186.685 123.206C188.143 125.862 188.976 128.726 189.199 131.723C189.511 135.893 188.901 139.929 187.072 143.757C185.972 146.042 184.529 148.075 182.715 149.841C181.897 150.628 181.153 151.488 180.365 152.319C180.261 152.438 180.201 152.571 180.053 152.809C180.499 152.898 180.856 152.987 181.228 153.031C183.875 153.417 186.537 153.759 189.184 154.204C192.099 154.693 194.835 155.643 197.215 157.468C198.97 158.819 200.189 160.57 200.977 162.632C201.661 164.428 201.914 166.282 201.944 168.197C202.003 171.565 201.528 174.844 200.427 178.035C199.758 179.993 198.776 181.789 197.319 183.243C195.609 184.935 193.526 185.988 191.102 186.27C187.146 186.745 183.295 186.27 179.517 185.098C174.803 183.614 170.237 181.744 165.657 179.904C160.853 177.975 156.079 176.002 151.276 174.102C150.294 173.717 149.238 173.45 148.197 173.271C146.16 172.93 144.479 173.672 143.304 175.334C142.293 176.759 141.356 178.242 140.449 179.741C138.56 182.842 136.761 185.973 134.857 189.06C132.046 193.615 129.191 198.141 126.336 202.667C125.785 203.557 125.22 204.433 124.655 205.308C123.361 207.341 121.458 208.647 119.316 209.641C117.145 210.635 114.855 211.229 112.475 211.526C112.014 211.585 111.538 211.644 111.077 211.719H108.802L108.772 211.689ZM119.331 177.812C119.331 177.812 119.197 177.708 119.123 177.664C119.197 177.426 119.257 177.189 119.346 176.951C120.655 173.731 121.963 170.497 123.272 167.277C123.376 167.01 123.451 166.728 123.555 166.371C122.811 166.327 122.216 166.49 121.681 166.802C120.863 167.277 120.03 167.751 119.286 168.33C117.502 169.695 115.717 171.075 113.992 172.515C112.683 173.598 111.419 174.755 110.155 175.883C109.084 176.848 108.014 177.812 106.958 178.806C106.259 179.474 105.56 180.157 104.905 180.884C103.939 181.937 103.046 183.035 102.08 184.074C100.459 185.825 99.269 187.828 98.4511 190.039C97.529 192.502 97.2019 195.07 97.2316 197.711C97.2762 201.702 99.849 205.293 103.463 206.881C105.366 207.712 107.404 207.979 109.441 207.979C111.092 207.979 112.758 207.786 114.394 207.504C116.848 207.104 119.182 206.317 121.16 204.73C121.592 204.388 122.008 203.943 122.276 203.468C122.692 202.682 123.064 201.851 123.302 200.99C123.763 199.343 123.912 197.666 123.763 195.93C123.629 194.239 123.332 192.591 122.766 191.004C121.859 188.496 120.521 186.315 118.171 184.875C116.253 183.703 114.2 183.184 111.984 183.495C108.4 184 105.872 185.959 104.504 189.297C103.537 191.657 103.745 193.971 105.024 196.197C105.456 196.954 106.095 197.444 106.928 197.711C108.266 198.126 109.605 197.963 110.914 197.562C112.356 197.132 112.862 196.271 112.52 194.817C112.386 194.268 112.222 193.719 112.044 193.185C111.88 192.681 111.97 192.206 112.237 191.76C112.505 191.3 112.698 191.241 113.159 191.538C113.695 191.864 113.948 192.413 114.171 192.962C114.87 194.773 114.751 196.568 114.037 198.364C113.174 200.486 111.509 201.51 109.322 201.717C107.374 201.895 105.723 201.257 104.549 199.625C104.34 199.343 104.102 199.076 103.909 198.779C102.928 197.266 102.095 195.708 102.273 193.823C102.362 192.814 102.511 191.79 102.749 190.811C103.195 188.941 103.745 187.101 104.221 185.246C104.37 184.697 104.623 184.252 105.039 183.866C106.541 182.546 108.118 181.344 109.992 180.587C111.538 179.979 113.159 179.667 114.795 180.008C119.004 180.884 121.904 183.451 123.703 187.279C125.042 190.113 125.369 193.185 125.592 196.257C125.666 197.266 125.637 197.266 126.603 197.444C126.678 197.444 126.737 197.473 126.812 197.488C127.674 197.622 127.674 197.637 128.105 196.88C130.113 193.363 132.121 189.846 134.129 186.33C136.002 183.035 137.891 179.756 139.765 176.462C140.732 174.77 141.698 173.093 142.665 171.402C143.022 170.779 142.962 170.63 142.293 170.467C140.865 170.111 139.438 169.77 138.01 169.443C137.014 169.206 136.984 169.235 136.791 170.215C136.761 170.333 136.746 170.452 136.716 170.556C135.943 174.681 134.262 178.346 131.377 181.433C131.154 181.67 130.916 181.863 130.634 182.101C130.366 181.655 130.44 181.284 130.485 180.913C130.782 178.628 131.511 176.477 132.76 174.533C133.786 172.915 134.961 171.387 136.062 169.814C136.166 169.666 136.24 169.517 136.389 169.28C134.828 168.523 133.4 167.692 131.734 167.41C131.154 167.306 130.574 167.44 130.128 167.811C129.533 168.3 128.938 168.835 128.418 169.399C127.302 170.586 126.261 171.847 125.131 173.034C124.179 174.028 123.183 174.978 122.142 175.868C121.279 176.595 120.298 177.189 119.376 177.827L119.331 177.812ZM132.151 162.884C132.522 163.062 132.731 163.181 132.969 163.27C136.374 164.591 139.78 165.911 143.185 167.232C150.398 170.022 157.611 172.811 164.809 175.616C168.111 176.892 171.397 178.168 174.699 179.444C174.877 179.519 175.085 179.548 175.338 179.608C175.338 179.355 175.383 179.192 175.368 179.044C175.234 177.797 175.071 176.551 174.966 175.304C174.773 173.153 174.743 171.001 175.011 168.864C175.309 166.475 176.082 164.25 177.465 162.276C178.64 160.584 180.142 159.219 181.837 158.047C182.045 157.899 182.239 157.735 182.551 157.498C182.209 157.35 182.016 157.246 181.793 157.186C181.153 156.993 180.514 156.815 179.874 156.622C177.227 155.866 174.595 155.109 171.829 154.827C169.33 154.575 166.965 154.946 164.631 155.806C164.259 155.94 163.917 156.148 163.456 156.37C165.106 157.869 166.653 159.293 168.215 160.718C168.185 160.777 168.155 160.822 168.111 160.881C167.873 160.807 167.635 160.748 167.397 160.673C166.951 160.525 166.49 160.377 166.043 160.228C164.199 159.605 162.385 158.922 160.749 157.81C160.273 157.483 159.708 157.231 159.143 157.053C157.507 156.519 155.871 156.652 154.25 157.171C152.584 157.706 150.904 158.255 149.238 158.804C149.119 158.848 149.015 158.937 148.852 159.041C149.045 159.175 149.179 159.279 149.313 159.338C151.543 160.451 153.774 161.534 155.975 162.691C157.715 163.611 159.336 164.739 160.823 166.03C161.18 166.342 161.582 166.653 161.835 167.158C161.626 167.188 161.493 167.232 161.359 167.232C160.124 167.173 158.89 167.188 157.671 167.024C154.057 166.55 150.755 165.214 147.736 163.196C146.68 162.484 145.654 161.712 144.628 160.955C143.706 160.258 142.71 159.961 141.55 160.258C141.326 160.317 141.089 160.347 140.851 160.406C138.159 161.148 135.452 161.89 132.76 162.632C132.597 162.677 132.433 162.766 132.106 162.899L132.151 162.884ZM90.3311 172.485C92.309 172.574 94.1234 172.07 95.8932 171.431C97.648 170.793 98.7485 169.562 99.1649 167.722C99.5665 166 99.6408 164.25 99.6557 162.513C99.6557 161.504 99.5219 160.48 99.4029 159.471C98.9865 155.821 97.886 152.393 95.9824 149.248C94.9711 147.571 93.8855 145.924 92.3388 144.648C90.5393 143.164 88.4573 142.733 86.3306 143.92C83.6537 145.419 81.9731 147.779 81.066 150.642C80.2034 153.388 79.8465 156.207 80.1439 159.115C80.5157 162.751 81.6311 166.09 83.6685 169.117C84.427 170.244 85.4234 171.164 86.6726 171.758C87.8475 172.322 89.0967 172.574 90.3311 172.485ZM200.249 169.651C200.174 168.85 200.159 168.048 200.011 167.262C199.431 164.057 197.854 161.534 194.924 159.961C193.705 159.308 192.426 159.011 191.013 159.204C188.069 159.605 185.258 160.451 182.581 161.682C179.606 163.048 177.629 165.288 176.796 168.479C176.082 171.209 176.275 173.924 176.959 176.625C177.584 179.088 179.056 180.913 181.436 181.893C184.365 183.095 187.399 183.659 190.552 183.08C192.872 182.664 194.88 181.596 196.412 179.815C198.925 176.907 200.189 173.509 200.234 169.651H200.249Z" fill="white"/>
<path d="M216.058 103.366C215.284 103.455 214.511 103.559 213.738 103.648C211.477 103.93 209.291 103.648 207.179 102.803C204.681 101.808 202.465 100.399 200.546 98.4993C198.955 96.9412 197.632 95.2051 196.754 93.1425C195.787 90.8574 195.698 88.5277 196.501 86.2129C197.245 84.0464 196.784 82.2361 195.401 80.5296C194.211 79.0754 193.185 77.5174 192.293 75.8703C191.876 75.0987 191.683 74.2825 191.891 73.4071C192.01 72.9025 192.322 72.5761 192.813 72.4277C193.467 72.2348 194.107 72.1309 194.746 72.4722C196.115 73.1845 197.483 73.8967 198.836 74.6238C199.877 75.1877 200.903 75.7961 201.944 76.3451C204.116 77.4877 206.421 77.8141 208.845 77.3987C209.99 77.2058 211.135 77.0129 212.28 76.8348C212.474 76.8051 212.652 76.7754 212.845 76.7754C214.868 76.6716 215.745 77.2058 216.385 79.1051C216.816 80.3664 217.604 81.2716 218.69 81.9838C219.984 82.8296 221.278 83.6606 222.512 84.5806C223.449 85.2929 224.326 86.109 225.129 86.9548C226.022 87.8896 226.379 89.0619 226.126 90.3677C225.873 91.6438 225.62 92.92 225.278 94.1664C225.04 95.0271 225.174 95.8283 225.591 96.5554C225.799 96.9264 226.171 97.2529 226.542 97.4754C229.085 98.9593 231.524 100.592 233.829 102.417C236.149 104.257 238.44 106.126 240.626 108.115C243.154 110.4 245.608 112.774 248.002 115.193C250.04 117.241 251.958 119.392 253.936 121.499C254.769 122.375 255.602 123.25 256.42 124.141C258.189 126.04 259.944 127.969 261.744 129.854C263.201 131.382 264.718 132.851 266.205 134.335C268.54 136.664 271.009 138.831 273.522 140.953C275.872 142.941 278.207 144.944 280.557 146.933C281.375 147.615 282.178 148.313 282.996 148.995C283.754 149.619 284.617 150.049 285.554 150.346C286.699 150.717 287.71 151.295 288.543 152.201C289.227 152.943 289.614 153.833 289.703 154.812C289.852 156.608 289.554 158.344 288.974 160.05C288.84 160.451 288.602 160.748 288.245 160.97C287.368 161.519 286.446 161.653 285.39 161.579C282.877 161.401 280.467 160.837 278.147 159.902C275.857 158.982 273.775 157.721 271.946 156.074C270.102 154.412 268.258 152.735 266.533 150.939C264.644 148.981 262.785 146.977 261.089 144.855C258.74 141.917 256.509 138.875 254.293 135.834C252.717 133.682 251.021 131.649 249.058 129.854C246.991 127.954 244.731 126.322 242.277 124.942C238.499 122.805 234.484 121.247 230.349 119.956C227.524 119.081 224.713 118.101 221.947 117.077C218.987 115.979 216.325 114.347 213.991 112.195C213.381 111.632 212.801 111.038 212.161 110.519C211.343 109.866 211.076 109.02 211.001 108.041C210.912 106.854 210.972 106.705 212.146 106.631C212.845 106.586 213.574 106.646 214.243 106.854C217.619 107.833 220.965 108.872 224.326 109.895C224.639 109.984 224.966 110.074 225.278 110.177C225.665 110.281 225.903 110.148 226.066 109.777C226.632 108.515 226.617 108.397 225.472 107.581C224.252 106.72 223.047 105.844 221.783 105.043C220.043 103.96 218.155 103.277 216.043 103.352L216.058 103.366ZM232.61 117.255C232.982 117.374 233.22 117.463 233.458 117.523C235.688 118.042 237.83 118.799 239.882 119.778C242.857 121.203 245.534 123.043 248.002 125.224C250.114 127.094 252.077 129.126 253.862 131.308C255.676 133.519 257.416 135.804 259.156 138.089C261.238 140.819 263.201 143.639 265.596 146.117C267.722 148.313 269.894 150.464 272.05 152.631C272.08 152.661 272.124 152.69 272.169 152.72C274.236 154.026 276.288 155.332 278.356 156.637C278.668 156.83 278.891 156.771 279.025 156.43C279.426 155.391 279.873 154.367 280.2 153.313C280.572 152.082 280.348 150.939 279.352 149.99C277.969 148.684 276.616 147.363 275.247 146.043C273.745 144.588 272.228 143.164 270.756 141.695C265.075 136.012 259.424 130.314 253.758 124.601C252.062 122.879 250.412 121.114 248.686 119.422C246.411 117.181 244.076 114.985 241.771 112.774C239.629 110.726 237.369 108.812 235.019 107.002C231.286 104.108 227.375 101.467 223.077 99.4638C222.854 99.36 222.616 99.2709 222.229 99.0929C222.304 99.6567 222.348 100.057 222.408 100.473C222.542 101.259 222.914 101.883 223.553 102.357C224.445 103.025 225.308 103.723 226.185 104.42C228.877 106.557 231.554 108.694 234.246 110.845C235.094 111.513 235.644 112.359 235.912 113.427C236.075 114.065 235.912 114.51 235.391 114.896C234.662 115.43 233.963 115.994 233.264 116.558C233.056 116.721 232.893 116.944 232.595 117.241L232.61 117.255ZM215.284 83.349C215.151 83.6309 215.032 83.8387 214.942 84.0464C214.02 85.9754 212.875 87.7858 211.373 89.3141C209.707 91.0354 207.744 92.3709 205.454 93.1277C204.562 93.4245 203.625 93.6471 202.718 93.8845C202.063 94.0477 202.004 94.1516 202.093 94.8193C202.167 95.3535 202.346 95.8283 202.777 96.1696C203.669 96.8671 204.502 97.6535 205.484 98.2322C209.008 100.295 212.726 100.651 216.548 99.1374C220.014 97.7574 222.259 95.1754 223.627 91.7774C223.851 91.2135 223.836 90.62 223.702 90.0264C223.508 89.1064 222.958 88.4535 222.215 87.949C220.088 86.48 217.946 85.0406 215.805 83.5864C215.671 83.4974 215.507 83.4529 215.269 83.3341L215.284 83.349Z" fill="white"/>
<path d="M6.48385 157.261C6.48385 155.569 7.22743 154.263 8.49154 153.195C10.0085 151.919 11.57 150.672 12.9977 149.292C15.63 146.755 17.8905 143.891 20.0023 140.908C24.1218 135.106 27.8397 129.067 31.5428 122.998C34.8444 117.582 38.1608 112.166 41.5367 106.794C43.9162 102.995 46.5931 99.4193 49.4782 95.9767C51.3967 93.6916 53.4044 91.4806 55.5459 89.4032C56.1556 88.8096 56.81 88.2606 57.4197 87.6671C57.8213 87.2664 58.1633 86.8064 58.5351 86.3909C58.8028 86.0793 58.8326 85.7825 58.5797 85.4412C58.0592 84.7438 57.509 84.0464 57.048 83.3045C56.6315 82.6219 56.2449 81.9096 55.9474 81.1677C55.3823 79.7729 55.6054 78.378 56.3638 77.1464C57.0331 76.0632 57.8659 75.0838 58.669 74.0896C59.368 73.229 60.1264 72.4129 60.8551 71.567C61.6285 70.647 62.1341 69.5787 62.61 68.4954C63.0264 67.5606 63.4279 66.6258 64.1567 65.8838C64.6326 65.3941 65.1382 64.9341 65.6736 64.5038C66.209 64.0883 66.8336 64.2367 67.4582 64.2664C68.8264 64.3109 70.2095 64.4148 71.5628 64.2664C74.4182 63.9548 76.8423 62.6045 78.969 60.7645C80.129 59.7554 81.17 58.6277 82.2408 57.5296C83.1331 56.5948 84.1444 55.8083 85.2598 55.1851C85.7059 54.9477 86.2413 54.8587 86.7469 54.7548C87.1039 54.6806 87.312 54.8587 87.3864 55.2445C87.5203 55.9716 87.5797 56.6987 87.2674 57.4109C86.5982 58.9838 85.9438 60.5567 85.3044 62.1296C85.1854 62.4116 85.0962 62.7083 84.9772 62.9903C84.0403 65.3645 84.3228 67.6793 85.3936 69.9348C86.1074 71.4483 86.5833 73.0212 86.6726 74.7129C86.7767 76.8941 86.0926 78.8677 85.0813 80.7522C84.1295 82.518 82.91 84.0909 81.4377 85.4561C78.1956 88.4535 74.4331 90.3677 70.0162 90.9167C68.7074 91.08 67.4433 91.2432 66.2238 91.7774C64.5433 92.5193 63.309 93.7954 62.1341 95.1309C61.2567 96.1251 60.4387 97.1638 59.591 98.1877C59.2192 98.6329 59.2044 98.7516 59.5167 99.2561C59.5762 99.36 59.6505 99.449 59.71 99.5528C60.2305 100.399 60.2454 100.414 61.0931 99.9683C63.2941 98.7961 65.4654 97.5793 67.6664 96.4367C69.6295 95.4277 71.6223 94.478 73.6003 93.5283C74.0018 93.3354 74.448 93.2316 74.8941 93.1574C75.4146 93.0535 75.6972 93.2167 75.9203 93.6916C76.2474 94.3445 76.2177 95.0419 75.9203 95.6948C75.7269 96.1399 75.489 96.6148 75.1469 96.9561C73.3474 98.8109 71.5479 100.666 69.6741 102.432C68.1274 103.886 66.5064 105.281 64.8408 106.601C62.8331 108.204 60.5726 109.421 58.3567 110.712C55.8731 112.151 53.3746 113.575 50.9803 115.119C49.5972 116.009 48.3331 117.107 47.0838 118.19C43.4997 121.292 40.8079 125.075 38.7705 129.319C37.5956 131.768 36.51 134.275 35.3649 136.739C34.8146 137.941 34.2495 139.143 33.6844 140.344C31.6915 144.648 29.5946 148.892 26.65 152.646C23.7203 156.4 20.1808 159.397 15.9126 161.564C14.3362 162.365 12.6408 162.81 11.0346 163.493C9.97872 163.938 9.26487 163.641 8.5659 162.706C7.65872 161.504 6.98949 160.184 6.64743 158.7C6.54333 158.24 6.51359 157.765 6.4541 157.305L6.48385 157.261ZM63.2049 89.789C62.7587 89.3883 62.4018 89.0471 62.03 88.7206C61.6582 88.3941 61.5095 88.3645 61.1079 88.6909C59.829 89.7148 58.4905 90.6645 57.3008 91.7922C55.07 93.8845 52.9285 96.0658 50.9505 98.3954C48.0654 101.793 45.3885 105.355 42.9495 109.079C40.0941 113.427 37.3131 117.849 34.4874 122.226C31.0521 127.554 27.5869 132.881 24.1367 138.208C23.8987 138.579 23.6459 138.964 23.3931 139.335C21.8464 141.635 20.3146 143.935 18.7679 146.25C17.8459 147.63 16.9238 149.01 16.0315 150.405C15.3474 151.459 15.3177 152.557 16.0018 153.61C16.5372 154.441 17.1469 155.228 17.7269 156.044C17.9649 156.385 18.2623 156.4 18.5895 156.207C18.7085 156.133 18.8423 156.059 18.9613 155.999C21.8315 154.337 24.0623 152.008 25.9213 149.307C27.7505 146.666 29.1336 143.772 30.6208 140.953C31.8403 138.653 32.9408 136.279 34.071 133.949C34.4577 133.163 34.7849 132.346 35.1567 131.56C36.1828 129.423 37.1346 127.257 38.2797 125.194C40.6444 120.95 43.589 117.137 47.292 113.932C48.7495 112.67 50.2664 111.513 51.8726 110.459C53.0623 109.673 54.2223 108.857 55.3823 108.041C55.5459 107.922 55.6649 107.759 55.9028 107.536C55.5608 107.388 55.3377 107.254 55.0997 107.18C54.1926 106.883 53.2854 106.616 52.3931 106.319C51.8428 106.126 51.7536 105.978 51.8131 105.429C51.9618 104.064 52.4228 102.803 53.2854 101.719C54.2521 100.488 55.2038 99.2412 56.2003 98.0393C57.8808 96.0212 59.591 94.0329 61.2864 92.0296C61.8813 91.3322 62.4762 90.6348 63.1751 89.8187L63.2049 89.789ZM82.4044 78.7787C81.9731 78.749 81.7203 78.7193 81.4674 78.7193C80.6346 78.7193 79.8018 78.7193 78.9838 78.7193C75.8905 78.6748 73.05 77.8141 70.4474 76.167C68.3356 74.8316 66.6105 73.0954 65.0936 71.1219C64.9449 70.929 64.7515 70.7658 64.5582 70.5432C64.3946 70.7509 64.2905 70.8696 64.2013 71.0032C62.9818 73.0658 61.6433 75.0393 59.8885 76.7012C59.3531 77.2206 58.8623 77.829 58.4459 78.4522C57.7618 79.4761 57.851 80.4109 58.7285 81.2716C59.368 81.8948 60.0521 82.5032 60.7659 83.0225C62.4315 84.2245 64.0674 85.5006 66.0008 86.2871C69.6592 87.7709 73.1838 87.5335 76.5597 85.4709C78.7608 84.1354 80.3818 82.2361 81.7054 80.0696C81.9285 79.6987 82.1218 79.298 82.4044 78.749V78.7787Z" fill="white"/>
<path d="M92.9932 120.579C92.9932 116.261 93.9896 112.151 95.5362 108.174C97.0383 104.316 98.7337 100.532 100.325 96.7038C101.559 93.7213 102.645 90.6942 103.151 87.489C103.627 84.5064 103.522 81.5535 102.809 78.6155C102.69 78.1406 102.645 77.6361 102.69 77.1464C102.749 76.3748 103.165 76.0484 103.924 76.0929C104.549 76.1225 105.129 76.3155 105.604 76.7755C106.75 77.8735 107.895 78.9716 109.04 80.0696C110.17 81.1529 111.3 82.2361 112.431 83.3045C112.862 83.72 112.966 83.6903 113.338 83.26C115.539 80.6335 117.428 77.7993 118.84 74.6684C120.342 71.3296 121.458 67.8722 122.261 64.2961C123.094 60.6161 123.659 56.9064 124.105 53.1671C124.283 51.7574 124.402 50.3477 124.566 48.938C124.625 48.4929 124.73 48.0477 124.878 47.6322C125.116 46.9496 125.577 46.7419 126.217 47.0684C126.812 47.3651 127.392 47.7064 127.897 48.1219C129.399 49.3535 130.916 50.5703 132.314 51.9206C134.129 53.6864 135.75 55.6451 137.237 57.7077C139.453 60.7793 141.297 64.0438 142.888 67.4716C144.732 71.4038 146.16 75.4993 147.32 79.669C148.316 83.2451 149.164 86.8658 149.848 90.5309C149.997 91.3174 150.369 92 150.755 92.6677C150.919 92.9496 151.142 92.9942 151.41 92.8903C151.856 92.7271 152.302 92.5638 152.733 92.3709C155.128 91.3026 157.269 89.878 159.054 87.9638C160.124 86.8064 161.032 85.4858 162.028 84.2542C162.459 83.72 162.905 83.2006 163.381 82.7109C163.813 82.2658 164.006 82.3103 164.274 82.8742C164.779 83.9425 165.285 85.0109 165.746 86.109C166.98 89.0322 168.215 91.9554 169.375 94.9084C171.025 99.1225 172.646 103.337 174.208 107.581C175.041 109.851 175.442 112.225 175.561 114.659C175.725 118.22 175.175 121.648 173.821 124.927C172.78 127.464 171.353 129.764 169.538 131.842C167.441 134.246 164.958 136.145 162.296 137.852C159.693 139.514 157.046 141.072 154.28 142.452C149.744 144.707 145.044 146.532 140.122 147.764C137.029 148.535 133.905 149.084 130.738 149.366C128.581 149.559 126.44 149.708 124.283 149.619C120.729 149.485 117.175 149.277 113.754 148.164C111.538 147.437 109.412 146.503 107.419 145.301C105.173 143.965 103.106 142.363 101.277 140.493C97.1721 136.249 94.4506 131.248 93.4691 125.402C93.2014 123.829 93.1419 122.212 92.9932 120.609V120.579ZM126.529 51.2232C126.44 51.5645 126.336 51.8167 126.291 52.0838C126.038 53.4787 125.815 54.8884 125.577 56.2832C124.759 61.2393 123.941 66.1806 122.469 71.0032C121.205 75.0987 119.524 79.0013 117.16 82.5774C116.149 84.1058 115.033 85.5303 113.799 86.8806C113.189 87.5632 112.55 88.1716 111.702 88.5425C111.152 88.7948 111.062 88.7355 110.78 88.1864C109.739 86.0051 108.683 83.8387 107.627 81.6722C107.582 81.5684 107.523 81.4645 107.463 81.3606C107.344 81.138 107.181 81.0787 106.928 81.138C105.783 81.4051 105.381 81.8354 105.248 83.0077C105.218 83.2451 105.233 83.4825 105.218 83.72C105.158 84.7142 105.143 85.7084 105.039 86.6877C104.757 89.4329 104.132 92.1038 103.27 94.7155C102.05 98.3806 100.399 101.868 98.8229 105.399C97.7075 107.892 96.6665 110.4 95.9229 113.026C94.9116 116.588 94.6588 120.208 95.1645 123.859C95.8783 128.978 98.2429 133.311 101.797 137.021C103.314 138.594 105.024 139.944 106.869 141.131C111.776 144.336 117.19 145.939 123.034 146.191C125.622 146.31 128.21 146.102 130.753 145.716C135.333 145.034 139.854 144.054 144.286 142.719C149.402 141.19 154.295 139.157 158.86 136.397C162.311 134.305 165.642 132.05 168.304 128.948C169.895 127.094 171.219 125.09 172.126 122.835C173.45 119.585 173.955 116.202 173.583 112.685C173.36 110.548 172.974 108.456 172.171 106.483C171.234 104.183 170.193 101.927 169.167 99.6567C168.616 98.4548 168.036 97.2529 167.471 96.0658C166.46 93.929 165.463 91.7774 164.422 89.6554C164.289 89.3735 164.051 89.1064 163.813 88.8838C163.56 88.6464 163.262 88.6464 162.965 88.8838C162.459 89.2696 161.969 89.6703 161.433 90.0413C158.831 91.8516 156.228 93.6767 153.596 95.4574C152.733 96.0361 151.811 96.5555 150.889 97.0006C150.041 97.4161 149.58 97.1935 149.194 96.3329C149.06 96.0361 148.956 95.7096 148.881 95.3832C148.748 94.7896 148.614 94.1813 148.51 93.5729C147.394 87.2367 145.952 81.0045 143.736 74.9651C142.159 70.6767 140.211 66.5961 137.713 62.7677C135.764 59.7851 133.534 57.0251 130.887 54.6064C129.637 53.4638 128.224 52.4696 126.901 51.4161C126.827 51.3567 126.737 51.3419 126.514 51.2529L126.529 51.2232Z" fill="white"/>
<path d="M237.22 85.5752C237.071 84.8778 236.893 84.2398 236.818 83.5869C236.789 83.3198 236.937 82.9785 237.086 82.7411C238.573 80.4856 239.51 78.0223 239.823 75.3514C240.179 72.2798 239.704 69.3417 238.097 66.6707C235.971 63.0946 232.773 60.8985 228.832 59.7114C228.089 59.4888 227.315 59.3404 226.542 59.2365C225.709 59.1178 225.025 58.7469 224.4 58.2127C224.192 58.0198 223.969 57.8417 223.746 57.6636C223.3 57.2927 223.285 57.2333 223.627 56.7288C223.806 56.4469 224.029 56.1946 224.207 55.9127C224.49 55.4972 224.876 55.2894 225.337 55.1114C226.289 54.7701 227.271 54.4436 228.163 53.954C231.628 52.0398 233.011 48.6269 232.565 44.8282C232.134 41.1482 230.453 38.1211 227.866 35.4946C225.189 32.7791 221.947 31.1023 218.318 30.1082C216.132 29.5146 213.916 29.2327 211.655 29.0991C207.268 28.832 203.059 29.5146 198.985 31.1172C195.594 32.4527 192.575 34.3817 189.853 36.7856C188.976 37.5572 188.173 38.4772 187.013 38.8927C186.864 38.952 186.715 39.0114 186.477 39.1004C186.15 38.1507 185.987 37.2307 186.225 36.2514C186.686 34.4262 186.715 32.6011 186.239 30.7759C185.139 26.5172 181.495 23.0153 176.722 22.6294C173.554 22.3772 170.803 23.4159 168.483 25.5972C166.044 27.8823 164.884 30.7165 164.884 34.0256C164.884 34.5598 164.988 35.1088 165.047 35.643C165.136 36.3701 164.794 36.9043 164.348 37.4088C163.917 37.2901 163.679 37.0082 163.59 36.6669C163.382 35.8952 163.114 35.1236 163.054 34.3223C162.861 32.0669 163.322 29.8856 164.214 27.823C165.122 25.7159 166.267 23.772 167.947 22.1694C171.397 18.8901 175.368 18.0146 179.815 19.7062C183.577 21.1456 185.957 23.9649 187.28 27.6894C187.756 29.0101 188.128 30.3456 188.545 31.6811C188.589 31.8443 188.634 31.9927 188.693 32.1559C188.961 32.972 189.05 32.9869 189.779 32.5565C191.92 31.2804 194.017 29.9301 196.218 28.8023C199.565 27.0811 203.134 25.9385 206.896 25.4785C210.629 25.0185 214.288 25.3894 217.872 26.4727C220.653 27.3185 223.3 28.4907 225.724 30.0933C229.769 32.7494 232.714 36.2365 234.097 40.9256C234.558 42.4836 234.662 44.0714 234.677 45.6888C234.707 48.5527 233.71 51.1049 232.535 53.6423C232.164 54.4585 231.792 55.2894 231.45 56.1204C231.227 56.6694 231.242 56.7436 231.747 57.0404C233.13 57.8862 234.439 58.8211 235.614 59.9191C236.283 60.5424 236.923 61.2249 237.503 61.9372C239.391 64.2817 240.655 66.9378 241.22 69.9056C241.563 71.6714 241.815 73.452 241.741 75.2623C241.607 78.4972 240.759 81.5094 238.96 84.2398C238.484 84.9669 238.291 85.1004 237.235 85.5604L237.22 85.5752Z" fill="white"/>
<path d="M219.612 158.729C219.3 157.601 219.211 156.563 219.85 155.554C221.055 153.654 222.631 152.23 224.817 151.518C226.766 150.894 228.744 150.835 230.707 151.369C233.101 152.022 234.722 153.58 235.912 155.702C236.774 157.23 237.206 158.892 237.622 160.569C237.86 161.563 237.875 161.593 238.871 161.534C240.12 161.445 241.37 161.296 242.619 161.178C244.879 160.955 247.155 160.792 249.43 161.103C252.524 161.519 254.933 163.136 256.673 165.659C258.547 168.404 259.543 171.476 259.513 174.814C259.498 177.574 258.547 180.052 256.881 182.249C256.524 182.723 256.048 183.005 255.468 183.139C255.186 183.198 255.007 183.109 254.918 182.827C254.635 181.907 254.457 181.032 255.215 180.171C256.45 178.761 257.149 177.1 257.431 175.245C257.848 172.455 257.074 170.007 255.2 167.959C253.193 165.763 250.605 164.59 247.66 164.205C244.567 163.804 241.682 164.576 238.901 165.852C238.053 166.238 237.25 166.683 236.313 166.816C235.689 166.905 235.614 166.846 235.406 166.238C235.064 165.243 235.317 164.279 235.376 163.285C235.451 162.246 235.48 161.192 235.332 160.183C235.064 158.269 233.993 156.83 232.357 155.806C229.874 154.278 227.301 154.189 224.669 155.331C223.39 155.88 222.289 156.696 221.308 157.676C220.653 158.329 220.341 158.521 219.612 158.7V158.729Z" fill="white"/>
<path d="M2.92949 99.909C2.33462 99.449 1.94795 99.0038 1.78436 98.3806C1.13 95.9619 1.04077 93.4987 1.63564 91.0799C2.73616 86.5393 5.50231 83.5567 10.1126 82.3399C12.031 81.8354 13.9197 82.0728 15.8233 82.3399C17.5633 82.5774 19.3033 82.8296 21.0285 83.1412C21.7869 83.2748 22.248 83.1116 22.6346 82.3993C23.5567 80.6928 25.0141 79.5503 26.769 78.749C27.6464 78.3483 28.5685 78.1257 29.5203 78.0812C31.1562 77.9922 32.7921 78.0664 34.3685 78.6451C35.7069 79.1348 36.3018 80.1735 36.4803 81.509C36.51 81.687 36.4803 81.8948 36.4356 82.0728C36.3464 82.5477 36.1233 82.7258 35.6326 82.6516C35.1715 82.5774 34.7105 82.4438 34.2495 82.3103C32.8367 81.8799 31.409 81.5832 29.9218 81.5535C28.3156 81.5238 26.9623 82.1025 25.8172 83.2006C24.91 84.0612 24.3003 85.1296 23.7351 86.2277C23.4377 86.7916 23.1849 87.3851 22.8577 87.9341C22.471 88.6019 22.1885 88.6909 21.5341 88.2903C20.8797 87.9045 20.27 87.4445 19.6305 87.0587C17.6228 85.8419 15.4367 85.2928 13.1018 85.4709C12.1946 85.5451 11.2726 85.7825 10.41 86.0793C8.13462 86.8657 6.09718 88.038 4.66949 90.0709C3.49462 91.7328 2.95923 93.5877 3.00385 95.6206C3.01872 96.3922 3.04846 97.1638 3.25667 97.9354C3.43513 98.5883 3.25667 99.2412 2.94436 99.9387L2.92949 99.909Z" fill="white"/>
<path d="M85.2305 158.537C85.2453 156.43 85.6023 154.382 86.4648 152.453C86.7474 151.83 87.0894 151.222 87.5059 150.687C87.7438 150.361 88.1602 150.168 88.5171 149.945C88.7253 149.812 88.9484 149.856 89.0525 150.094C89.3648 150.821 89.6623 151.607 89.1715 152.334C88.2048 153.744 87.9223 155.391 87.4464 156.964C87.1787 157.854 87.0746 158.774 87.1638 159.694C87.2084 160.229 87.3125 160.778 87.491 161.282C87.8776 162.351 88.7253 162.825 89.8407 162.647C90.1828 162.588 90.5248 162.469 90.8371 162.291C91.7592 161.787 91.8187 161.624 91.6551 160.585C91.4915 159.561 91.3279 158.522 91.1941 157.498C91.1494 157.216 91.1643 156.934 91.1643 156.653C91.1643 156.296 91.3725 156.104 91.6997 155.985C92.0269 155.866 92.3392 155.896 92.5176 156.193C93.2166 157.335 93.9453 158.478 94.57 159.68C94.7484 160.021 94.5997 160.555 94.5551 161C94.3766 162.454 93.9305 163.82 92.9787 164.962C91.5659 166.654 89.1715 167.01 87.4761 165.348C86.3161 164.191 85.6915 162.796 85.4833 161.208C85.3643 160.318 85.3346 159.427 85.2602 158.522L85.2305 158.537Z" fill="white"/>
<path d="M183.815 174.088C183.919 170.987 185.169 168.434 187.608 166.49C187.845 166.298 188.113 166.149 188.396 166.016C189.526 165.452 190.433 165.986 190.493 167.262C190.508 167.752 190.493 168.256 190.493 168.746C190.508 169.473 190.582 169.518 191.266 169.681C192.188 169.903 193.11 170.126 193.988 170.467C195.906 171.194 196.783 172.886 196.382 174.904C196.025 176.685 195.014 178.02 193.512 178.955C191.801 180.023 189.957 180.454 187.935 179.934C185.347 179.281 184.053 177.293 183.8 174.845C183.771 174.592 183.8 174.325 183.8 174.058L183.815 174.088Z" fill="white"/>
<path d="M152.868 116.587C152.823 120.594 152.02 124.407 150.205 127.984C148.867 130.625 146.993 132.836 144.703 134.691C141.758 137.095 138.412 138.638 134.694 139.409C131.839 139.988 128.998 139.869 126.158 139.231C123.585 138.653 121.042 137.985 118.618 136.931C116.447 135.996 114.409 134.839 112.788 133.073C111.063 131.204 110.022 129.022 109.754 126.485C109.427 123.384 110.379 120.668 112.149 118.16C113.279 116.543 114.766 115.311 116.298 114.109C118.365 112.492 120.507 110.934 122.321 109.02C124.879 106.319 126.797 103.277 127.481 99.5526C127.779 97.95 127.749 96.3623 127.66 94.7448C127.63 94.1958 127.809 93.6319 127.942 93.0978C128.017 92.7861 128.299 92.6823 128.612 92.6526C129.251 92.6081 129.846 92.7268 130.396 93.0384C131.988 93.9287 133.222 95.1752 134.114 96.7629C135.081 98.4842 135.587 100.354 135.81 102.298C135.988 103.782 136.122 105.265 136.241 106.749C136.285 107.224 136.449 107.536 136.895 107.744C138.501 108.515 138.085 108.53 139.081 107.269C140.554 105.429 141.907 103.529 143.141 101.526C143.379 101.155 143.677 100.799 143.989 100.487C144.733 99.7752 145.372 99.701 146.235 100.28C147.305 101.007 148.138 101.971 148.897 103.025C150.89 105.8 151.96 108.945 152.466 112.284C152.689 113.709 152.749 115.148 152.882 116.587H152.868Z" fill="white"/>
</svg>
