<svg width="260" height="230" viewBox="0 0 260 230" fill="none" xmlns="http://www.w3.org/2000/svg">
<path d="M124.815 229.555C124.74 229.555 124.666 229.525 124.607 229.466L122.868 227.76C121.487 226.409 120.105 225.044 118.753 223.664C117.223 222.106 115.767 220.489 114.415 218.975C114.014 218.53 113.746 217.966 113.508 217.461C113.36 217.135 112.884 216.156 113.687 215.384C114.147 214.939 114.652 214.716 115.172 214.716C115.47 214.716 115.752 214.79 116.019 214.939C116.673 215.31 117.297 215.74 117.906 216.17C117.906 216.17 118.664 216.705 118.694 216.72C118.694 216.69 118.694 216.675 118.694 216.645C118.619 216.126 118.545 215.666 118.56 215.206C118.604 213.618 118.619 212.016 118.634 210.428C118.679 206.481 118.723 202.4 119.139 198.423C119.511 195.025 120.298 191.612 121.071 188.318C121.412 186.849 121.754 185.395 122.066 183.926C123.136 178.836 124.666 174.355 126.761 170.26C130.446 163.048 135.482 157.023 139.464 152.601C146.684 144.559 155.435 137.288 166.994 129.72C174.319 124.927 180.782 120.446 186.799 116.024C193.871 110.816 199.308 105.118 203.409 98.6182C205.771 94.8789 207.628 91.7182 208.356 87.9937C211.551 71.4782 208.134 57.0253 198.209 45.0505C196.218 42.6466 193.856 40.584 191.167 38.9073C189.874 38.106 188.596 37.2157 187.363 36.3699C185.892 35.3608 184.362 34.3073 182.817 33.3873C181.376 32.5266 179.801 31.844 178.271 31.1911C177.691 30.9389 177.097 30.6866 176.518 30.4195C176.384 30.3602 176.206 30.3453 175.953 30.3305C175.908 30.3305 175.864 30.3305 175.819 30.3305C175.938 31.0576 176.042 31.7699 176.146 32.4821C176.414 34.2776 176.651 35.9692 177.008 37.6608C179.028 47.3653 177.855 56.9066 173.412 66.8189C168.094 78.7047 160.264 88.3053 150.146 95.3537C146.774 97.6982 143.193 99.5086 139.479 100.74C138.944 100.918 138.513 101.007 138.142 101.007C137.28 101.007 136.656 100.562 136.21 99.5976C135.304 97.6686 134.784 96.066 134.576 94.5821C134.16 91.5995 133.878 88.3647 133.699 84.6699L133.67 83.8686C133.402 77.9182 133.12 71.7602 133.774 65.706C133.982 63.7621 134.323 61.8182 134.65 59.9189L134.739 59.3847C134.784 59.1324 134.888 58.4944 134.769 58.346C134.724 58.3015 134.62 58.2718 134.442 58.2718C134.249 58.2718 134.026 58.3015 133.729 58.346L132.154 58.5982C130.089 58.9247 127.95 59.266 125.825 59.4589C123.73 59.6666 121.695 59.7705 119.763 59.7705C119.392 59.7705 119.035 59.7705 118.664 59.7705C115.098 59.6963 111.488 59.5479 107.982 59.3995L104.876 59.266C103.926 59.2215 102.975 59.177 102.024 59.1176C100.806 59.0434 99.5724 58.9841 98.3393 58.9395C97.4478 58.9099 96.8238 58.5092 96.4078 57.6486C95.9473 56.7137 96.4673 56.0757 96.8833 55.5711L97.1656 55.2299C97.745 54.5176 98.3541 53.7905 98.7553 52.9892C100.419 49.6505 102.722 46.8163 104.951 44.2344C105.619 43.4628 106.288 42.6911 106.942 41.9195C108.457 40.1537 109.972 38.3879 111.532 36.6666C112.231 35.895 113.018 35.2124 113.776 34.5447C114.118 34.2479 114.444 33.9511 114.771 33.6544L115.618 32.8976C116.198 32.3782 116.777 31.8737 117.327 31.3247C117.594 31.0576 118.055 30.5976 118.04 30.464C118.025 30.3305 117.535 30.0337 117.134 29.7815C116.168 29.1879 115.217 28.6092 114.251 28.0157C111.755 26.5021 109.17 24.9292 106.734 23.2376C102.856 20.5221 99.1267 17.5989 95.6798 14.824C93.3918 12.984 91.6238 10.9363 90.4204 8.74018C89.7667 7.5234 89.2467 6.20276 89.9747 4.71889C90.2273 4.19953 90.5541 3.6505 91.1633 3.6505C91.4307 3.6505 91.7278 3.75437 92.129 3.99179C92.4856 4.19953 92.8124 4.28856 93.169 4.28856C93.5256 4.28856 93.8821 4.19953 94.3427 4.00663C99.8696 1.66211 104.995 0.519531 110.032 0.519531C110.403 0.519531 110.775 0.519531 111.131 0.53437C112.275 0.578886 113.419 0.593725 114.563 0.608564C117.416 0.667918 120.358 0.712434 123.24 1.05372C130.802 1.94405 137.993 4.09566 144.025 6.08405L145.674 6.61824C148.854 7.65695 152.152 8.72534 155.227 10.1499C161.972 13.266 167.113 18.5337 170.471 25.8195C170.604 26.1015 170.991 26.4131 171.169 26.4131H171.481C175.671 26.4131 179.742 27.4666 183.916 29.6182C189.859 32.6899 195.119 35.5982 199.531 40.035C207.168 47.7066 212.145 57.2479 214.344 68.4066C215.295 73.1995 215.503 78.0666 214.998 82.8595C214.166 90.7241 211.15 97.906 206.054 104.212C200.972 110.504 195 116.187 188.284 121.084C181.108 126.322 173.739 131.412 166.177 136.605C153.979 144.974 143.654 155.02 135.452 166.431C130.312 173.598 126.702 181.3 124.696 189.327C122.363 198.69 121.516 206.377 122.036 213.529C122.111 214.464 122.289 215.414 122.467 216.334C122.66 217.343 122.868 218.396 122.913 219.45C123.032 221.631 123.671 223.649 124.948 225.816C125.275 226.365 125.498 226.988 125.587 227.581C125.647 227.997 125.587 228.412 125.543 228.813C125.528 228.976 125.498 229.14 125.483 229.303C125.483 229.451 125.35 229.57 125.186 229.57H124.859L124.815 229.555ZM171.318 38.3286C170.783 38.8924 170.248 39.4563 169.728 40.035C168.465 41.3853 167.172 42.7802 165.806 44.0711C160.546 49.0124 155.673 52.2176 150.473 54.1911C148.497 54.9331 146.387 55.4673 144.367 55.9866L143.252 56.2686C141.395 56.7434 140.37 57.7228 139.895 59.4441C138.587 64.2666 137.934 68.6589 137.934 72.8582C137.934 77.6511 138.112 82.3847 138.335 87.6376C138.424 89.6705 138.632 91.7331 138.825 93.7363L139.018 95.7395C139.092 96.4963 139.523 96.8821 140.37 96.9563C140.489 96.9563 140.608 96.9563 140.712 96.9563C141.752 96.9563 142.777 96.5853 143.743 95.8434C145.748 94.3002 147.665 92.7273 149.433 91.1544C155.807 85.5008 161.051 79.0163 165.018 71.8492C170.248 62.4415 172.595 53.5828 172.194 44.7686C172.12 43.2847 171.912 41.7563 171.704 40.2873C171.615 39.6492 171.526 39.026 171.451 38.3879L171.303 38.3286H171.318ZM108.873 55.2595C109.274 55.2595 109.66 55.2595 110.062 55.2744C112.246 55.3634 114.415 55.4821 116.465 55.6008L118.887 55.7344C119.763 55.6899 120.625 55.675 121.472 55.6453C123.284 55.586 125.008 55.5266 126.716 55.3782C130.698 55.037 133.803 54.2802 136.478 52.9744C137.295 52.5886 138.067 51.9653 138.602 51.2976C140.548 48.864 142.51 46.2821 144.441 43.626C145.956 41.5337 147.353 39.4415 148.586 37.4234C148.824 37.0376 148.898 36.7111 148.794 36.5182C148.675 36.2957 148.334 36.1621 147.814 36.1473C147.531 36.1473 147.249 36.1324 146.967 36.1324C146.224 36.1324 145.481 36.1769 144.753 36.2215C143.55 36.3105 142.361 36.3402 141.217 36.3402C135.601 36.3402 130.624 35.3757 125.974 33.4021C125.023 33.0015 124.102 32.7937 123.225 32.7937C121.992 32.7937 120.818 33.2092 119.734 34.0105C117.876 35.3905 116.183 36.9189 114.712 38.5363C111.636 41.9047 108.71 45.377 105.456 49.235C104.356 50.5408 103.346 51.9357 102.47 53.375C102.232 53.7608 101.994 54.2802 102.172 54.6363C102.321 54.9331 102.767 55.1408 103.45 55.215C104.074 55.2892 104.683 55.3041 105.411 55.3041H106.095C106.555 55.3041 107.016 55.304 107.491 55.2892C107.952 55.2892 108.427 55.2744 108.888 55.2744L108.873 55.2595ZM168.896 31.4434C168.807 31.4434 168.688 31.4434 168.584 31.4731C163.666 32.1408 160.056 33.5802 157.248 35.9989C155.42 37.5718 153.519 39.2782 151.974 41.2221C150.072 43.5963 148.274 46.1189 146.536 48.5524C145.852 49.5021 145.184 50.4518 144.486 51.4015C144.56 51.4015 144.604 51.3866 144.649 51.3718C150.844 50.0808 156.579 47.1873 161.72 42.7505C165.375 39.6047 167.856 36.2511 169.312 32.5118C169.475 32.0963 169.505 31.7699 169.401 31.6215C169.312 31.4879 169.074 31.4582 168.896 31.4582V31.4434ZM130.817 30.1524C131.471 30.4047 132.139 30.657 132.823 30.835C136.24 31.6957 139.82 31.755 143.267 31.8144C143.267 31.8144 145.659 31.8589 145.912 31.8589C150.087 31.8589 154.529 31.0576 159.863 29.3511C160.606 29.1137 161.378 28.7428 162.24 28.2234C162.492 28.0602 162.552 27.9415 162.552 27.8969C162.552 27.8524 162.463 27.7337 162.166 27.615C161.556 27.3776 160.903 27.155 160.279 27.1402L158.095 27.0808C155.614 27.0215 153.147 26.9473 150.666 26.9473C149.76 26.9473 148.839 26.9473 147.932 26.977C143.238 27.0808 138.766 27.6299 134.62 28.624C133.536 28.8763 132.466 29.1879 131.396 29.5144C130.966 29.6331 130.535 29.7666 130.104 29.8853C130.356 29.9892 130.594 30.0782 130.832 30.1673L130.817 30.1524ZM111.874 5.35695C109.675 5.35695 107.655 5.4905 105.694 5.77243C103.361 6.11373 101.014 6.70727 98.7404 7.28598L97.5964 7.58276C97.0913 7.70147 96.7941 7.87953 96.7347 8.07243C96.6753 8.26534 96.8387 8.57695 97.1953 8.96276C98.2798 10.135 99.2307 11.0253 100.152 11.7376C101.459 12.7466 102.782 13.7111 104.119 14.6757C105.084 15.3731 106.05 16.0853 107.016 16.7976L108.16 17.6582C112.067 20.5963 116.108 23.6382 120.462 26.1015C121.724 26.8137 123.062 27.1699 124.547 27.1699C125.171 27.1699 125.81 27.1105 126.508 26.9918C128.024 26.7247 129.524 26.2944 130.995 25.8789C133.12 25.2853 135.304 24.6621 137.577 24.4989C139.003 24.395 140.444 24.2021 141.841 24.0092C143.148 23.8311 144.515 23.6382 145.852 23.5344C147.576 23.4008 149.374 23.3266 151.171 23.3266C154.618 23.3266 158.184 23.564 162.106 24.0686L165.211 24.4692C165.122 24.306 165.048 24.1724 164.974 24.0537C163.874 22.2137 162.374 20.5815 160.234 18.9344C155.302 15.1208 149.582 12.8802 145.154 11.3666C138.513 9.08147 131.56 7.43437 124.473 6.45502C120.67 5.92082 116.242 5.37179 111.874 5.37179V5.35695Z" fill="white"/>
<path d="M109.987 0.74177C110.358 0.74177 110.715 0.74177 111.086 0.756609C115.113 0.890158 119.169 0.815964 123.165 1.27596C130.252 2.10693 137.131 4.06564 143.891 6.30629C147.65 7.55274 151.468 8.71016 155.064 10.3573C162.032 13.5773 166.949 18.934 170.173 25.8785C170.337 26.2198 170.812 26.6502 171.139 26.6502C171.243 26.6502 171.347 26.6502 171.451 26.6502C175.819 26.6502 179.905 27.8373 183.753 29.8256C189.309 32.7044 194.821 35.6869 199.293 40.1831C207.123 48.0624 211.892 57.5592 214.017 68.4063C214.953 73.1547 215.176 77.9476 214.67 82.7702C213.824 90.7237 210.822 97.7424 205.801 103.975C200.63 110.37 194.702 115.964 188.091 120.787C180.826 126.099 173.412 131.204 165.984 136.308C154.009 144.529 143.653 154.411 135.185 166.208C130.178 173.197 126.464 180.824 124.369 189.208C122.378 197.191 121.1 205.249 121.709 213.499C121.858 215.488 122.482 217.431 122.586 219.42C122.705 221.809 123.477 223.901 124.666 225.919C124.963 226.424 125.186 227.002 125.26 227.581C125.334 228.115 125.201 228.694 125.156 229.243C125.052 229.243 124.933 229.243 124.829 229.243C122.868 227.314 120.892 225.415 118.976 223.441C117.49 221.928 116.064 220.355 114.652 218.767C114.281 218.351 114.028 217.832 113.79 217.328C113.508 216.749 113.36 216.111 113.909 215.591C114.281 215.235 114.726 214.998 115.187 214.998C115.425 214.998 115.648 215.057 115.885 215.191C116.777 215.68 117.594 216.319 118.441 216.897C118.604 217.016 118.768 217.15 119.08 217.402C118.976 216.541 118.827 215.859 118.842 215.191C118.99 209.597 118.827 203.973 119.421 198.438C119.941 193.556 121.323 188.778 122.333 183.955C123.314 179.237 124.8 174.681 126.998 170.363C130.326 163.849 134.798 158.18 139.657 152.764C147.694 143.802 157.084 136.501 167.128 129.928C173.843 125.52 180.484 120.98 186.947 116.217C193.499 111.379 199.249 105.681 203.632 98.7366C205.756 95.3831 207.851 91.9553 208.624 88.0082C211.699 72.116 208.936 57.5295 198.417 44.8127C196.396 42.3792 194.019 40.3018 191.315 38.6102C188.477 36.8444 185.818 34.7966 182.95 33.0753C180.96 31.8882 178.746 31.0573 176.621 30.0927C176.339 29.9592 175.982 30.0037 175.433 29.9295C175.864 32.6153 176.161 35.1527 176.666 37.6456C178.761 47.7211 177.245 57.3366 173.1 66.6108C167.945 78.1553 160.368 87.756 149.938 95.0269C146.669 97.2973 143.148 99.1224 139.36 100.384C138.884 100.547 138.483 100.636 138.112 100.636C137.384 100.636 136.864 100.28 136.448 99.4044C135.72 97.8463 135.081 96.1547 134.843 94.4631C134.382 91.1985 134.13 87.8747 133.966 84.5805C133.684 78.274 133.342 71.9676 134.041 65.6611C134.264 63.554 134.65 61.4618 135.006 59.3695C135.2 58.2714 135.125 57.9153 134.412 57.9153C134.219 57.9153 133.966 57.945 133.654 57.9895C131.025 58.3902 128.41 58.8353 125.765 59.1024C123.76 59.2953 121.724 59.3992 119.718 59.3992C119.362 59.3992 119.005 59.3992 118.649 59.3992C114.058 59.3102 109.452 59.0727 104.861 58.8947C102.677 58.8056 100.508 58.6424 98.3241 58.5831C97.4921 58.5534 97.0018 58.1676 96.6453 57.4702C96.2887 56.7431 96.6452 56.2534 97.0761 55.7192C97.7595 54.8882 98.5024 54.0424 98.9778 53.0927C100.582 49.8727 102.796 47.0979 105.144 44.3973C107.342 41.8747 109.497 39.3076 111.74 36.8295C112.721 35.7463 113.88 34.8263 114.964 33.8321C115.811 33.0456 116.702 32.3037 117.52 31.4876C118.649 30.3747 118.604 30.3005 117.282 29.4844C113.805 27.3327 110.24 25.285 106.897 22.9405C103.108 20.2992 99.4681 17.4353 95.8578 14.5418C93.7778 12.8798 91.9652 10.9063 90.6727 8.54693C90.0338 7.37467 89.5732 6.14306 90.227 4.80758C90.5241 4.19919 90.7767 3.90242 91.1481 3.90242C91.371 3.90242 91.6235 4.00629 91.9653 4.19919C92.3813 4.43661 92.7675 4.54048 93.1538 4.54048C93.5698 4.54048 93.9858 4.42177 94.4464 4.22887C99.4235 2.10693 104.579 0.771448 110.017 0.771448M124.592 27.496C125.26 27.496 125.929 27.4218 126.597 27.3031C130.312 26.6502 133.818 25.0921 137.636 24.8102C140.4 24.6173 143.148 24.0534 145.912 23.8308C147.68 23.6824 149.448 23.6231 151.216 23.6231C154.856 23.6231 158.481 23.905 162.106 24.365C163.28 24.5134 164.453 24.6766 165.79 24.8398C165.553 24.4244 165.404 24.1573 165.256 23.8902C164.022 21.8127 162.344 20.1508 160.442 18.6966C155.881 15.165 150.666 12.9392 145.273 11.0844C138.528 8.76951 131.604 7.13725 124.532 6.1579C120.328 5.57919 116.123 5.05983 111.889 5.05983C109.809 5.05983 107.744 5.17854 105.664 5.47532C102.93 5.86113 100.226 6.60306 97.5367 7.28564C96.2738 7.61209 96.1104 8.1908 97.0018 9.14048C97.9378 10.1495 98.9184 11.114 100.003 11.9598C102.246 13.696 104.594 15.3134 106.867 17.0198C111.235 20.2992 115.558 23.6379 120.342 26.3534C121.724 27.1398 123.136 27.4514 124.577 27.4514M145.912 32.1405C150.74 32.1405 155.39 31.0869 159.966 29.6179C160.813 29.3508 161.645 28.9205 162.403 28.4605C163.057 28.0598 162.982 27.585 162.269 27.3179C161.63 27.0805 160.947 26.8431 160.278 26.8282C157.069 26.754 153.845 26.6502 150.636 26.6502C149.73 26.6502 148.824 26.6502 147.917 26.6798C143.416 26.7837 138.944 27.2882 134.546 28.3269C132.956 28.7127 131.396 29.2024 129.806 29.6476C129.806 29.796 129.806 29.9444 129.792 30.0927C130.787 30.4489 131.753 30.8792 132.763 31.1314C136.834 32.1553 141.009 32.0514 145.169 32.1553C145.421 32.1553 145.674 32.1553 145.926 32.1553M144.292 51.7276C144.441 51.6979 144.589 51.6831 144.738 51.6534C151.245 50.3031 156.936 47.2908 161.942 42.9727C165.27 40.094 168.004 36.7702 169.609 32.6153C169.98 31.6656 169.742 31.1611 168.91 31.1611C168.806 31.1611 168.688 31.1611 168.554 31.1908C164.349 31.7695 160.338 32.9715 157.054 35.776C155.168 37.3934 153.281 39.0998 151.736 41.0289C149.032 44.4121 146.595 47.9882 144.054 51.4902C144.129 51.5644 144.203 51.6385 144.277 51.7276M105.352 55.5856H105.664C105.753 55.5856 105.842 55.5856 105.931 55.5856C105.99 55.5856 106.05 55.5856 106.094 55.5856C107.03 55.5856 107.952 55.556 108.888 55.556C109.274 55.556 109.66 55.556 110.046 55.5708C113.107 55.7043 116.168 55.8824 118.872 56.0308C121.724 55.9121 124.235 55.8824 126.731 55.6747C130.133 55.3779 133.491 54.7547 136.596 53.2411C137.428 52.8405 138.245 52.2024 138.825 51.4753C140.83 48.9676 142.777 46.4005 144.664 43.7889C146.12 41.7708 147.516 39.6934 148.824 37.5714C149.462 36.5327 149.032 35.8947 147.813 35.8353C147.531 35.8353 147.234 35.8205 146.952 35.8205C146.209 35.8205 145.466 35.865 144.723 35.9095C143.549 35.9837 142.376 36.0282 141.202 36.0282C136.002 36.0282 130.936 35.1824 126.077 33.105C125.082 32.6747 124.131 32.4669 123.21 32.4669C121.917 32.4669 120.684 32.8973 119.54 33.7431C117.728 35.0934 116.004 36.6366 114.474 38.2985C111.294 41.7856 108.249 45.3914 105.218 48.9973C104.118 50.3031 103.108 51.7127 102.217 53.1669C101.4 54.5173 101.83 55.274 103.42 55.4669C104.059 55.5411 104.713 55.556 105.366 55.556M140.741 97.2231C141.945 97.2231 143.029 96.7482 143.95 96.0508C145.912 94.5521 147.813 92.994 149.656 91.3469C155.955 85.7676 161.214 79.3276 165.3 71.9676C170.01 63.4947 172.952 54.5469 172.506 44.7237C172.402 42.5276 172.001 40.3463 171.748 38.1502L171.243 37.9573C169.371 39.916 167.573 41.9637 165.597 43.8185C161.096 48.0327 156.178 51.6682 150.354 53.8792C148.036 54.7547 145.585 55.3185 143.163 55.9418C141.306 56.4166 140.117 57.396 139.597 59.325C138.394 63.7469 137.636 68.2431 137.621 72.8134C137.621 77.7398 137.814 82.6811 138.022 87.6076C138.141 90.3231 138.468 93.0237 138.721 95.7244C138.81 96.674 139.419 97.134 140.355 97.2082C140.474 97.2082 140.608 97.2231 140.726 97.2231M109.987 0.148222C104.921 0.148222 99.7504 1.2908 94.1938 3.665C93.7778 3.84306 93.4361 3.93209 93.139 3.93209C92.8418 3.93209 92.5595 3.84306 92.2475 3.665C91.8018 3.41274 91.4601 3.29403 91.1332 3.29403C90.2715 3.29403 89.8852 4.09532 89.6772 4.52564C88.8898 6.12822 89.4692 7.59725 90.1378 8.81403C91.371 11.0844 93.1093 13.1024 95.4715 14.9869C98.9333 17.7618 102.662 20.685 106.54 23.4005C108.992 25.1069 111.577 26.6798 114.073 28.1934C115.038 28.7721 116.004 29.3656 116.955 29.9592C117.193 30.1076 117.505 30.3005 117.668 30.434C117.534 30.6121 117.252 30.894 117.089 31.0424C116.554 31.5766 115.974 32.096 115.41 32.6005C115.128 32.8527 114.83 33.105 114.548 33.3721C114.221 33.6689 113.88 33.9656 113.553 34.2624C112.78 34.9302 111.993 35.6276 111.28 36.414C109.72 38.1353 108.189 39.916 106.704 41.6521C106.035 42.4385 105.366 43.2102 104.683 43.9966C102.425 46.5934 100.107 49.4573 98.443 52.8108C98.0567 53.5824 97.4624 54.2947 96.8978 54.9921L96.6304 55.3185C96.2144 55.8379 95.5755 56.6095 96.1252 57.7076C96.5858 58.6573 97.3138 59.1321 98.3092 59.1618C99.5424 59.2063 100.761 59.2656 101.994 59.3398C102.945 59.3992 103.896 59.4437 104.846 59.4882L107.922 59.6218C111.428 59.7702 115.068 59.9334 118.649 59.9927C119.005 59.9927 119.362 59.9927 119.733 59.9927C121.68 59.9927 123.745 59.8889 125.84 59.6811C127.964 59.4734 130.104 59.1469 132.169 58.8205L133.758 58.5682C134.056 58.5237 134.278 58.494 134.427 58.494C134.457 58.494 134.486 58.494 134.516 58.494C134.516 58.5979 134.516 58.8205 134.427 59.2508L134.338 59.7702C134.011 61.6695 133.669 63.6282 133.461 65.5721C132.793 71.656 133.075 77.8289 133.342 83.794L133.372 84.5805C133.536 88.2902 133.833 91.5398 134.249 94.5224C134.457 96.0508 134.992 97.6682 135.913 99.6269C136.403 100.695 137.131 101.215 138.112 101.215C138.528 101.215 138.973 101.126 139.538 100.933C143.267 99.6863 146.877 97.8611 150.28 95.5018C160.442 88.4237 168.316 78.7934 173.65 66.8482C178.107 56.8766 179.296 47.2908 177.26 37.5121C176.918 35.8353 176.666 34.1437 176.398 32.3631C176.309 31.7695 176.22 31.176 176.131 30.5824C176.235 30.5824 176.309 30.6121 176.369 30.6269C176.948 30.894 177.542 31.1463 178.122 31.3985C179.637 32.0514 181.212 32.734 182.638 33.5798C184.184 34.4998 185.699 35.5534 187.17 36.5624C188.403 37.4082 189.696 38.2985 190.988 39.0998C193.648 40.7618 195.995 42.7947 197.956 45.1689C207.821 57.0844 211.209 71.4482 208.044 87.8747C207.331 91.5547 205.489 94.6856 203.141 98.3953C199.056 104.865 193.648 110.533 186.605 115.712C180.603 120.134 174.14 124.615 166.816 129.408C155.227 136.991 146.461 144.291 139.226 152.349C135.229 156.8 130.178 162.825 126.478 170.081C124.369 174.206 122.838 178.702 121.769 183.822C121.457 185.291 121.115 186.775 120.788 188.214C120.016 191.523 119.228 194.936 118.857 198.364C118.426 202.355 118.381 206.451 118.352 210.398C118.337 211.986 118.322 213.573 118.277 215.161C118.277 215.458 118.292 215.755 118.322 216.051L118.099 215.888C117.49 215.458 116.866 215.013 116.197 214.642C115.885 214.464 115.544 214.375 115.202 214.375C114.608 214.375 114.028 214.642 113.508 215.131C112.869 215.755 112.78 216.556 113.256 217.55C113.508 218.07 113.79 218.648 114.206 219.123C115.544 220.637 117.014 222.239 118.545 223.812C119.897 225.192 121.293 226.572 122.66 227.893C123.24 228.471 123.834 229.035 124.413 229.614C124.517 229.718 124.666 229.777 124.829 229.792H124.978H125.156C125.468 229.792 125.721 229.555 125.75 229.243C125.75 229.08 125.78 228.917 125.81 228.768C125.869 228.338 125.929 227.908 125.854 227.448C125.765 226.824 125.528 226.157 125.186 225.578C123.938 223.456 123.299 221.468 123.195 219.346C123.136 218.277 122.942 217.209 122.734 216.185C122.556 215.28 122.378 214.33 122.318 213.41C121.798 206.302 122.645 198.646 124.963 189.312C126.954 181.314 130.564 173.642 135.675 166.52C143.846 155.124 154.157 145.108 166.325 136.753C173.873 131.575 181.242 126.485 188.433 121.217C195.163 116.306 201.15 110.608 206.246 104.286C211.372 97.9353 214.403 90.694 215.25 82.7702C215.77 77.9476 215.547 73.0508 214.596 68.2282C212.382 57.0102 207.376 47.4095 199.709 39.7082C195.267 35.2566 189.978 32.3334 184.02 29.2469C179.801 27.0656 175.685 25.9973 171.451 25.9973H171.139C171.139 25.9973 170.797 25.745 170.723 25.5669C167.321 18.2069 162.15 12.8947 155.331 9.74887C152.241 8.32435 148.928 7.24113 145.748 6.20242L144.114 5.66822C138.067 3.67983 130.861 1.51338 123.269 0.623061C120.372 0.28177 117.416 0.222416 114.563 0.177899C113.419 0.163061 112.29 0.133383 111.146 0.103706C110.774 0.103706 110.403 0.0888672 110.032 0.0888672L109.987 0.148222ZM97.0315 8.14629C97.0315 8.14629 97.1504 8.01274 97.6852 7.87919L98.8292 7.58242C101.088 7.00371 103.42 6.41016 105.738 6.06887C107.684 5.78693 109.69 5.65338 111.889 5.65338C116.227 5.65338 120.654 6.21725 124.443 6.73661C131.515 7.71596 138.453 9.36306 145.08 11.6334C149.492 13.1469 155.168 15.3727 160.085 19.1566C162.15 20.7592 163.606 22.3173 164.691 24.0831H164.557C163.725 23.9644 162.953 23.8605 162.18 23.7566C158.258 23.2521 154.662 23.0147 151.216 23.0147C149.403 23.0147 147.59 23.0889 145.867 23.2224C144.515 23.3263 143.148 23.5192 141.826 23.6973C140.429 23.8902 139.003 24.0831 137.592 24.1869C135.289 24.3502 133.075 24.9734 130.95 25.5818C129.494 25.9973 127.994 26.4127 126.493 26.6798C125.81 26.7985 125.186 26.8579 124.592 26.8579C123.165 26.8579 121.873 26.5166 120.654 25.834C116.316 23.3856 112.29 20.3437 108.382 17.4056L107.238 16.545C106.288 15.8327 105.307 15.1205 104.341 14.4231C103.034 13.4734 101.682 12.494 100.389 11.485C99.4681 10.7727 98.547 9.89725 97.4624 8.73983C97.0761 8.32435 97.0613 8.14629 97.0613 8.13145L97.0315 8.14629ZM131.01 29.9147L131.441 29.796C132.496 29.4844 133.595 29.1727 134.665 28.9056C138.78 27.9263 143.237 27.3773 147.917 27.2734C148.824 27.2585 149.715 27.2437 150.621 27.2437C153.088 27.2437 155.613 27.3031 158.05 27.3773L160.264 27.4366C160.843 27.4366 161.467 27.674 162.046 27.8966C162.076 27.8966 162.106 27.9263 162.136 27.9411C162.121 27.9411 162.091 27.9708 162.076 27.9856C161.244 28.4902 160.486 28.8611 159.773 29.0837C154.454 30.7902 150.057 31.5766 145.912 31.5766C145.659 31.5766 145.421 31.5766 145.169 31.5766C144.545 31.5766 143.906 31.5469 143.282 31.5469C139.85 31.4876 136.299 31.4431 132.912 30.5824C132.288 30.4192 131.678 30.1966 131.04 29.9444L131.01 29.9147ZM145.169 50.9411C145.704 50.1992 146.238 49.4573 146.758 48.7153C148.497 46.2818 150.294 43.7592 152.181 41.3998C153.712 39.4856 155.598 37.7792 157.411 36.2211C160.174 33.8469 163.74 32.4373 168.598 31.7695C168.702 31.7695 168.792 31.7547 168.866 31.7547C169.059 31.7547 169.133 31.7992 169.133 31.7992C169.133 31.7992 169.178 31.9624 169.014 32.4076C167.573 36.1024 165.122 39.4114 161.512 42.5276C156.579 46.7863 151.082 49.6205 145.154 50.956L145.169 50.9411ZM105.337 54.9921C104.683 54.9921 104.059 54.9921 103.45 54.9179C102.885 54.8437 102.484 54.6953 102.395 54.5024C102.306 54.3243 102.425 53.9534 102.692 53.5231C103.569 52.0985 104.564 50.7185 105.649 49.4276C108.902 45.5695 111.829 42.1121 114.89 38.7437C116.361 37.1411 118.025 35.6276 119.867 34.2624C120.922 33.476 122.006 33.0902 123.195 33.0902C124.027 33.0902 124.918 33.2831 125.825 33.6837C130.505 35.6721 135.526 36.6515 141.187 36.6515C142.346 36.6515 143.549 36.6069 144.753 36.5327C145.406 36.4882 146.179 36.4437 146.937 36.4437C147.219 36.4437 147.501 36.4437 147.769 36.4585C148.259 36.4882 148.467 36.6069 148.497 36.6811C148.526 36.7405 148.526 36.9334 148.304 37.2895C147.07 39.2927 145.689 41.385 144.173 43.4773C142.257 46.1334 140.296 48.7153 138.349 51.1489C137.844 51.7869 137.101 52.3656 136.329 52.7514C133.684 54.0276 130.624 54.7844 126.672 55.1256C124.993 55.274 123.284 55.3334 121.472 55.3927C120.625 55.4224 119.748 55.4521 118.842 55.4966L116.524 55.3631C114.459 55.2444 112.26 55.1256 110.061 55.0366C109.66 55.0218 109.274 55.0218 108.873 55.0218C108.397 55.0218 107.937 55.0218 107.461 55.0366C107.001 55.0366 106.54 55.0514 106.08 55.0514H105.916H105.649H105.337V54.9921ZM140.712 96.6592C140.608 96.6592 140.489 96.6592 140.385 96.6592C139.508 96.585 139.345 96.1695 139.3 95.7095C139.241 95.0418 139.166 94.374 139.107 93.7063C138.914 91.7179 138.706 89.6553 138.617 87.6373C138.394 82.3844 138.201 77.6656 138.216 72.8727C138.216 68.7031 138.869 64.3405 140.177 59.5327C140.622 57.9005 141.558 57.0102 143.326 56.565L144.426 56.2831C146.461 55.7637 148.571 55.2295 150.577 54.4727C155.821 52.4843 160.724 49.2644 166.013 44.2934C167.38 43.0024 168.688 41.6076 169.95 40.2573C170.381 39.7973 170.812 39.3373 171.243 38.8773C171.302 39.3669 171.377 39.8566 171.436 40.3463C171.644 41.8005 171.852 43.314 171.912 44.7979C172.313 53.5527 169.98 62.3669 164.78 71.7302C160.813 78.8527 155.598 85.3224 149.254 90.9463C147.501 92.5043 145.585 94.0773 143.579 95.6205C142.673 96.3179 141.707 96.674 140.726 96.674L140.712 96.6592Z" fill="white"/>
<path d="M46.9932 165.823C46.6069 165.823 46.1463 165.541 45.9235 165.274C45.136 164.368 44.928 163.434 45.2698 162.469C45.9532 160.584 46.2355 158.477 46.1463 155.821C46.0423 152.72 46.488 149.604 47.4835 146.295C47.8698 145.019 48.2412 143.743 48.6275 142.452C49.3852 139.899 50.1578 137.258 51.0046 134.676C54.6892 123.473 62.4892 115.668 74.1966 111.483C79.5452 109.569 85.2503 108.604 91.1486 108.604C93.3772 108.604 95.6652 108.738 97.9829 109.005C106.065 109.94 113.063 112.284 119.392 116.128C122.438 117.983 125.186 120.475 128.306 124.23C129.198 125.313 130.104 126.381 131.01 127.45C131.902 128.503 132.808 129.572 133.685 130.625C134.234 131.278 134.858 132.064 135.438 132.925C136.552 134.572 136.968 136.323 136.701 138.282C136.552 139.395 136.537 140.552 136.507 141.665C136.507 142.155 136.493 142.644 136.478 143.134C136.478 143.327 136.478 143.535 136.478 143.802V144.306C136.478 144.425 136.403 144.529 136.299 144.574C136.255 144.588 136.225 144.603 136.181 144.603C136.106 144.603 136.032 144.574 135.987 144.529L135.571 144.158C135.319 143.935 135.126 143.757 134.933 143.564C134.784 143.401 134.695 143.386 134.68 143.386C134.635 143.386 134.546 143.446 134.472 143.564C134.427 143.624 134.368 143.683 134.323 143.743C134.279 143.787 134.234 143.846 134.19 143.891C131.352 148.075 126.954 149.752 122.616 150.954C120.64 151.503 118.545 151.785 116.391 151.785C113.613 151.785 110.701 151.34 107.477 150.42C103.658 149.337 99.8252 148.09 96.1258 146.888L94.1646 146.25C90.0046 144.915 85.8149 144.232 81.7292 144.232C80.288 144.232 78.832 144.321 77.3909 144.484C68.6846 145.494 61.7612 148.224 56.1898 152.854C52.2229 156.148 49.4892 160.169 48.0332 164.828C47.9143 165.229 47.528 165.734 47.1269 165.823C47.112 165.823 46.9932 165.837 46.9783 165.837L46.9932 165.823ZM91.9955 112.804C87.1966 112.804 82.3086 113.472 77.4355 114.807C67.8526 117.419 60.736 123.117 56.264 131.753C54.0503 136.026 52.3863 140.745 51.0046 146.621C50.4252 149.07 49.9349 151.563 49.504 153.759C49.4743 153.922 49.5189 154.13 49.5783 154.337V154.367C49.5783 154.367 49.5932 154.367 49.608 154.367C49.816 154.308 50.024 154.248 50.1429 154.159C51.1086 153.314 51.8812 152.572 52.5795 151.83C56.0709 148.105 60.3943 145.301 65.4012 143.475C69.784 141.873 74.6423 141.057 80.6743 140.894C81.328 140.879 81.9818 140.864 82.6206 140.864C86.6023 140.864 89.7818 141.264 92.6492 142.14C95.7098 143.075 98.6812 144.069 101.177 144.93L101.92 145.182C105.827 146.517 109.854 147.912 114.058 148.357C114.935 148.446 115.797 148.491 116.629 148.491C121.309 148.491 125.498 147.022 129.094 144.128C130.074 143.342 131.01 142.274 131.961 140.894C132.838 139.617 132.957 138.163 132.318 136.798C130.134 132.139 127.237 128.904 123.448 126.886C115.514 122.657 107.848 120.461 100.018 120.149C99.216 120.119 98.4286 120.104 97.6263 120.104C92.3223 120.104 87.6572 120.832 83.3932 122.33C77.896 124.259 72.4435 127.197 66.2629 131.56L65.6092 132.005C65.6092 132.005 65.5052 132.064 65.4458 132.064C65.3863 132.064 65.3269 132.05 65.2675 132.005C65.1635 131.931 64.9555 131.664 65 131.545C65.0446 131.441 65.0743 131.337 65.104 131.234C65.1783 130.966 65.2675 130.684 65.4458 130.462C65.6538 130.21 65.8469 129.943 66.0549 129.675C66.7383 128.785 67.4366 127.865 68.2686 127.094C70.824 124.734 73.8995 123.043 76.856 121.41C82.6652 118.205 88.3406 116.439 94.1943 116.039C95.2789 115.964 96.3783 115.92 97.4629 115.92C102.351 115.92 107.462 116.692 112.647 118.205C114.088 118.635 115.514 119.125 117 119.644C117.134 119.689 117.253 119.734 117.386 119.778C114.831 118.101 112.394 116.855 109.973 115.994C104.074 113.887 98.0275 112.834 91.9955 112.834V112.804Z" fill="white"/>
<path d="M91.1636 108.901C93.4219 108.901 95.6802 109.035 97.9533 109.302C105.545 110.192 112.692 112.403 119.244 116.38C122.705 118.487 125.513 121.321 128.084 124.408C129.866 126.559 131.679 128.667 133.477 130.818C134.086 131.545 134.68 132.302 135.215 133.088C136.255 134.647 136.686 136.323 136.433 138.237C136.21 139.855 136.27 141.502 136.21 143.134C136.21 143.446 136.21 143.757 136.21 144.321C135.75 143.906 135.438 143.654 135.185 143.372C135.022 143.194 134.858 143.09 134.71 143.09C134.561 143.09 134.413 143.179 134.264 143.372C134.175 143.49 134.056 143.594 133.967 143.713C131.218 147.749 126.999 149.426 122.572 150.657C120.521 151.221 118.471 151.474 116.436 151.474C113.464 151.474 110.522 150.954 107.596 150.123C103.124 148.847 98.711 147.393 94.2836 145.968C90.1682 144.648 86.0082 143.936 81.759 143.936C80.303 143.936 78.847 144.025 77.391 144.188C69.5167 145.093 62.2219 147.482 56.0264 152.616C52.1339 155.851 49.2962 159.843 47.7807 164.725C47.6767 165.036 47.3647 165.452 47.0824 165.511C47.0527 165.511 47.023 165.511 46.9933 165.511C46.7259 165.511 46.3396 165.288 46.1464 165.066C45.5224 164.354 45.1956 163.523 45.5522 162.558C46.3544 160.377 46.5327 158.092 46.4584 155.807C46.3544 152.587 46.8596 149.456 47.7956 146.369C48.9693 142.496 50.039 138.608 51.3019 134.765C55.0904 123.25 63.0242 115.787 74.3007 111.765C79.8127 109.792 85.4287 108.901 91.1636 108.901ZM49.3556 154.738C49.6824 154.619 50.0836 154.575 50.3213 154.367C51.1682 153.625 52.0002 152.839 52.7727 152.023C56.3384 148.239 60.6024 145.523 65.4756 143.743C70.3784 141.947 75.4744 141.324 80.6596 141.176C81.3133 141.161 81.9522 141.146 82.6059 141.146C85.9636 141.146 89.2916 141.428 92.5453 142.407C95.3979 143.283 98.2356 144.217 101.073 145.197C105.308 146.651 109.512 148.165 114.014 148.639C114.89 148.728 115.767 148.788 116.629 148.788C121.264 148.788 125.528 147.378 129.287 144.351C130.416 143.431 131.382 142.259 132.214 141.042C133.12 139.721 133.298 138.148 132.6 136.65C130.609 132.406 127.801 128.83 123.597 126.589C116.228 122.657 108.442 120.149 100.033 119.823C99.231 119.793 98.4287 119.778 97.6264 119.778C92.7533 119.778 87.9693 120.387 83.3042 122.019C77.079 124.2 71.463 127.509 66.0996 131.293C65.8916 131.441 65.6687 131.59 65.4607 131.738C65.4013 131.694 65.3567 131.664 65.2973 131.619C65.431 131.278 65.4756 130.877 65.6984 130.61C66.5899 129.468 67.4367 128.251 68.4916 127.272C71.0173 124.942 74.0333 123.28 77.0344 121.633C82.4127 118.665 88.0882 116.721 94.2539 116.306C95.3384 116.232 96.423 116.187 97.4927 116.187C102.618 116.187 107.64 117.018 112.588 118.472C114.697 119.096 116.762 119.867 119.08 120.654C118.605 120.283 118.308 120.001 117.981 119.778C115.514 118.116 112.914 116.692 110.106 115.697C104.119 113.561 98.1019 112.507 92.0253 112.507C87.167 112.507 82.279 113.175 77.3762 114.51C67.8082 117.122 60.6024 122.746 56.0116 131.605C53.5602 136.338 51.9407 141.368 50.7224 146.547C50.1727 148.921 49.6973 151.31 49.2219 153.699C49.1624 154.026 49.311 154.397 49.3704 154.753M91.1784 108.323C85.2356 108.323 79.5007 109.302 74.1224 111.216C62.3259 115.43 54.4664 123.295 50.7522 134.602C49.9053 137.184 49.1179 139.84 48.375 142.392C48.0036 143.668 47.6322 144.945 47.2459 146.206C46.2356 149.559 45.7899 152.705 45.8939 155.836C45.983 158.448 45.7007 160.525 45.0322 162.365C44.7647 163.092 44.6607 164.235 45.7304 165.467C46.0127 165.793 46.5476 166.119 47.023 166.119C47.0973 166.119 47.1716 166.119 47.2459 166.09C47.7807 165.971 48.2264 165.392 48.375 164.903C49.8013 160.317 52.5202 156.326 56.4276 153.076C61.9544 148.491 68.8333 145.776 77.4802 144.781C78.9064 144.618 80.3624 144.529 81.7887 144.529C85.8447 144.529 90.0047 145.197 94.135 146.532L96.007 147.141C99.751 148.343 103.614 149.604 107.462 150.702C110.716 151.637 113.657 152.082 116.465 152.082C118.634 152.082 120.759 151.8 122.765 151.251C127.148 150.049 131.605 148.343 134.502 144.069C134.532 144.025 134.576 143.995 134.606 143.95C134.665 143.891 134.725 143.832 134.769 143.757C134.769 143.757 134.769 143.772 134.799 143.787C134.977 143.98 135.185 144.173 135.453 144.396C135.572 144.499 135.705 144.618 135.869 144.767C135.988 144.87 136.121 144.915 136.27 144.915C136.344 144.915 136.433 144.9 136.508 144.87C136.716 144.781 136.864 144.559 136.864 144.321V143.802C136.864 143.55 136.864 143.357 136.864 143.149C136.879 142.659 136.894 142.17 136.894 141.665C136.909 140.552 136.924 139.41 137.072 138.312C137.34 136.294 136.924 134.468 135.765 132.762C135.185 131.901 134.532 131.1 133.982 130.447C133.105 129.394 132.214 128.34 131.337 127.301C130.416 126.218 129.51 125.135 128.604 124.037C125.454 120.253 122.69 117.745 119.615 115.876C113.241 112.003 106.199 109.658 98.087 108.708C95.7693 108.441 93.4516 108.293 91.223 108.293L91.1784 108.323ZM49.8162 154.011C49.8162 154.011 49.8013 153.877 49.8162 153.833C50.3362 151.177 50.7819 148.981 51.3167 146.71C52.6836 140.864 54.3476 136.16 56.5464 131.901C60.9739 123.339 68.0459 117.686 77.5396 115.104C82.383 113.783 87.2562 113.116 92.0253 113.116C98.0276 113.116 104.045 114.169 109.898 116.261C111.577 116.855 113.241 117.641 114.965 118.606C114.222 118.354 113.494 118.116 112.751 117.908C107.551 116.38 102.41 115.608 97.4927 115.608C96.3933 115.608 95.2939 115.653 94.2093 115.727C88.311 116.128 82.6059 117.908 76.7522 121.128C73.7659 122.776 70.6904 124.467 68.1053 126.856C67.2584 127.643 66.5453 128.577 65.8619 129.468C65.6539 129.735 65.4607 130.002 65.2527 130.254C65.0299 130.536 64.9407 130.848 64.8516 131.13C64.8219 131.234 64.7922 131.323 64.7624 131.412C64.6733 131.664 64.7624 131.946 64.9704 132.094L65.1339 132.213C65.2379 132.287 65.3716 132.332 65.4904 132.332C65.6093 132.332 65.7282 132.302 65.8322 132.228L66.0253 132.094C66.1739 131.99 66.3373 131.887 66.4859 131.783C72.6516 127.435 78.0596 124.512 83.5419 122.583C87.7762 121.099 92.3967 120.372 97.671 120.372C98.4584 120.372 99.2607 120.387 100.048 120.416C107.848 120.713 115.47 122.909 123.359 127.108C127.088 129.097 129.941 132.302 132.095 136.887C132.689 138.163 132.57 139.514 131.753 140.701C130.817 142.066 129.896 143.105 128.945 143.876C125.409 146.725 121.279 148.179 116.673 148.179C115.841 148.179 114.994 148.135 114.133 148.046C109.973 147.601 105.946 146.221 102.054 144.885L101.326 144.633C98.815 143.772 95.8436 142.778 92.783 141.843C89.8859 140.968 86.6767 140.552 82.6653 140.552C82.0116 140.552 81.3579 140.552 80.7042 140.582C74.6424 140.745 69.7544 141.576 65.3419 143.179C60.2904 145.019 55.9373 147.853 52.4162 151.607C51.7327 152.334 50.9602 153.061 50.0093 153.907C49.9796 153.937 49.935 153.952 49.8756 153.981L49.8162 154.011Z" fill="white"/>
<path d="M144.292 206.273C144.292 206.273 144.203 206.273 144.174 206.244L143.876 206.11C143.728 206.051 143.668 205.887 143.728 205.739C143.862 205.383 143.995 205.027 144.114 204.671C144.396 203.869 144.679 203.083 145.035 202.311C146.699 198.631 149.418 195.589 151.81 192.918L152.702 191.924C155.807 188.437 159.031 184.831 162.834 181.893C171.095 175.513 180.395 171.447 190.483 169.77C192.192 169.488 193.707 169.354 195.104 169.354C197.124 169.354 198.982 169.636 200.75 170.215C207.48 172.396 211.67 178.836 210.704 185.514C210.184 189.179 208.267 191.984 205.043 193.838C202.726 195.174 200.244 195.842 197.659 195.842C196.976 195.842 196.278 195.797 195.579 195.708C189.102 194.833 183.471 193.705 178.39 192.251C176.354 191.672 174.319 190.93 172.372 190.218L171.852 190.04C170.218 189.446 168.554 189.149 166.92 189.149C162.819 189.149 159.075 191.019 156.401 194.402C156.104 194.773 155.762 195.159 155.302 195.456C155.257 195.485 155.198 195.5 155.138 195.5C155.079 195.5 155.019 195.485 154.975 195.441C154.871 195.382 154.826 195.263 154.856 195.144L155.168 193.556C151.498 196.673 148.631 200.605 145.852 204.389L144.545 206.154C144.486 206.229 144.396 206.273 144.307 206.273H144.292ZM166.296 184.297C166.548 184.327 166.801 184.371 167.068 184.416C167.737 184.534 168.406 184.638 169.074 184.727C170.56 184.95 172.09 185.187 173.576 185.573C176.324 186.285 179.043 187.042 181.777 187.799C184.169 188.467 186.561 189.134 188.968 189.773C192.519 190.707 195.862 191.167 199.16 191.167C199.784 191.167 200.408 191.153 201.032 191.123C202.532 191.049 203.632 190.47 204.39 189.372C205.177 188.229 205.935 186.968 206.618 185.647C207.45 184.045 207.45 182.279 206.648 180.409C205.786 178.421 204.315 176.863 202.012 175.527C199.932 174.325 197.63 173.732 194.955 173.732C193.886 173.732 192.771 173.821 191.538 174.014C184.867 175.038 178.226 177.278 171.823 180.676C170.426 181.418 169.059 182.324 167.752 183.199C167.202 183.555 166.652 183.926 166.103 184.282L166.296 184.327V184.297Z" fill="white"/>
<path d="M195.089 169.666C196.946 169.666 198.803 169.903 200.645 170.512C207.212 172.649 211.342 178.896 210.406 185.484C209.886 189.075 208.014 191.805 204.894 193.601C202.636 194.907 200.214 195.574 197.674 195.574C197.005 195.574 196.322 195.53 195.638 195.441C189.844 194.669 184.109 193.601 178.493 191.983C176.294 191.345 174.125 190.559 171.971 189.772C170.277 189.164 168.584 188.867 166.934 188.867C162.804 188.867 158.956 190.722 156.178 194.224C155.881 194.595 155.569 194.936 155.153 195.203C155.286 194.536 155.42 193.868 155.554 193.2C155.45 193.185 155.331 193.156 155.227 193.141C150.859 196.791 147.68 201.465 144.322 205.991C144.218 205.947 144.129 205.902 144.025 205.858C144.456 204.73 144.827 203.558 145.317 202.46C146.922 198.898 149.462 196.02 152.033 193.141C155.494 189.268 158.867 185.336 163.012 182.145C171.184 175.839 180.321 171.773 190.528 170.081C192.073 169.829 193.588 169.666 195.104 169.666M199.174 191.464C199.798 191.464 200.422 191.449 201.046 191.42C202.577 191.331 203.795 190.752 204.642 189.535C205.474 188.333 206.217 187.072 206.885 185.781C207.806 183.985 207.717 182.116 206.915 180.291C205.934 178.035 204.241 176.477 202.146 175.26C199.843 173.925 197.436 173.42 194.94 173.42C193.796 173.42 192.637 173.524 191.478 173.702C184.481 174.771 177.899 177.085 171.674 180.394C169.609 181.492 167.707 182.872 165.731 184.119C165.776 184.252 165.82 184.401 165.865 184.534C166.251 184.594 166.622 184.638 167.009 184.698C169.178 185.069 171.377 185.306 173.501 185.855C178.657 187.176 183.753 188.704 188.893 190.054C192.266 190.945 195.683 191.449 199.16 191.449M195.089 169.058C193.662 169.058 192.132 169.191 190.424 169.473C180.291 171.15 170.946 175.245 162.641 181.641C158.822 184.594 155.598 188.2 152.478 191.701L151.572 192.711C149.165 195.411 146.432 198.453 144.753 202.178C144.396 202.949 144.114 203.765 143.832 204.552C143.698 204.908 143.579 205.264 143.445 205.62C143.341 205.917 143.475 206.243 143.757 206.362L143.906 206.436L144.054 206.511C144.129 206.54 144.218 206.57 144.307 206.57C144.485 206.57 144.664 206.481 144.782 206.332C145.213 205.739 145.659 205.145 146.09 204.552C148.69 201.005 151.379 197.34 154.707 194.343L154.558 195.07C154.514 195.307 154.603 195.545 154.811 195.678C154.915 195.752 155.034 195.782 155.153 195.782C155.257 195.782 155.376 195.752 155.465 195.693C155.97 195.381 156.341 194.966 156.653 194.58C159.283 191.271 162.938 189.446 166.949 189.446C168.554 189.446 170.188 189.743 171.778 190.321L172.283 190.5C174.244 191.212 176.28 191.954 178.33 192.532C183.441 194.001 189.072 195.129 195.564 196.005C196.277 196.094 196.99 196.153 197.689 196.153C200.318 196.153 202.844 195.471 205.206 194.105C208.52 192.206 210.481 189.327 211.016 185.558C211.996 178.732 207.717 172.174 200.853 169.948C199.041 169.354 197.169 169.072 195.104 169.072L195.089 169.058ZM166.89 184.074C167.232 183.852 167.573 183.629 167.915 183.407C169.222 182.546 170.574 181.641 171.971 180.914C178.345 177.531 184.941 175.305 191.582 174.281C192.801 174.088 193.9 173.999 194.955 173.999C197.57 173.999 199.828 174.578 201.864 175.75C204.107 177.056 205.548 178.569 206.38 180.498C207.153 182.279 207.153 183.956 206.365 185.484C205.682 186.805 204.939 188.051 204.152 189.179C203.438 190.203 202.413 190.737 201.017 190.811C200.408 190.841 199.784 190.856 199.174 190.856C195.906 190.856 192.593 190.411 189.057 189.476C186.665 188.852 184.243 188.17 181.91 187.517C179.221 186.76 176.428 185.989 173.665 185.276C172.164 184.891 170.619 184.653 169.118 184.431C168.45 184.327 167.781 184.223 167.128 184.119C167.053 184.119 166.979 184.089 166.905 184.089L166.89 184.074Z" fill="white"/>
</svg>
