<svg width="242" height="228" viewBox="0 0 242 228" fill="none" xmlns="http://www.w3.org/2000/svg">
<path d="M233.533 168.532C232.612 167.805 231.334 167.983 230.591 168.903C215.541 187.6 192.617 202.809 165.636 211.965C143.439 219.473 119.772 222.04 106.921 218.375C106.371 218.197 106.193 217.826 106.193 217.455C106.193 217.084 106.371 216.728 106.921 216.535C110.59 215.808 119.401 213.597 121.778 209.754C122.327 208.656 122.506 207.558 122.149 206.46C120.871 202.795 114.26 202.067 106.549 201.325C99.3881 200.598 91.3206 199.678 87.4726 196.191C86.7446 195.464 86.7446 194.544 86.9229 193.995C87.1012 193.446 87.8441 192.897 88.7503 192.897C90.5778 193.075 92.9698 193.446 95.7183 193.995C105.078 195.464 116.815 197.482 121.035 194.173C121.956 193.446 122.506 192.526 122.506 191.428C123.055 185.938 112.225 183 102.686 180.611C96.8178 178.964 91.3058 177.495 90.3995 175.847C90.2212 175.669 90.2212 175.476 90.3995 175.298C91.4989 172.553 99.5663 174.378 108.02 176.218C118.108 178.415 129.489 180.982 134.436 177.316C135.907 176.218 136.635 174.571 136.828 172.553C137.006 167.968 130.766 164.852 126.369 162.656C124.898 161.929 123.798 161.38 123.07 160.831C122.521 160.46 122.149 159.911 122.342 159.555C122.535 159.198 122.892 159.005 123.442 159.005C161.06 159.733 195.365 146.541 217.562 122.725C235.539 103.479 243.799 79.1139 241.229 52.5377C239.03 28.3506 222.702 8.92677 199.763 2.87258C197.014 2.14548 193.894 1.40354 190.225 1.04742C184.163 0.676447 178.116 0.869351 172.604 1.96742C152.057 5.63258 136.457 20.2932 128.018 43.2042C123.427 33.6777 117.009 25.4274 109.847 19.5661C96.6395 8.39258 75.8989 4.72741 59.5709 10.7668C46.9126 15.53 38.6521 25.2494 36.6315 38.2481C34.8041 49.6145 38.6521 60.061 47.4623 67.5694C60.4921 78.7429 81.9606 81.1319 103.429 73.9797C104.707 73.6087 105.628 73.6087 105.821 73.9797C105.999 74.3506 105.821 74.8997 105.093 75.6268C103.622 77.4519 100.695 79.1139 98.1252 80.761C94.2772 83.15 90.236 85.5242 89.508 88.4623C89.3298 89.7384 89.6863 91.0294 90.6075 92.4984C94.6486 97.8106 106.386 93.7745 116.845 90.1094C125.106 87.1713 132.995 84.4261 134.466 87.3642C134.644 87.7352 134.644 88.0913 134.466 88.2842C133.545 90.4803 127.305 92.6764 121.079 94.6945C112.269 97.8106 103.102 100.927 104.023 105.512C104.395 107.337 105.494 108.806 106.965 109.904C112.462 113.198 124.021 109.904 131.554 107.886C132.831 107.515 133.946 107.159 135.045 106.966C137.987 106.239 140.186 106.966 140.735 107.693C140.914 108.064 140.735 108.42 140.186 108.791C135.788 112.635 127.899 114.104 120.916 115.395C113.577 116.864 107.337 117.962 105.316 121.256C104.588 122.354 104.588 123.823 104.945 125.292C106.415 129.506 113.755 129.877 125.314 129.135C130.261 128.764 130.633 129.684 130.633 129.684C130.633 129.862 129.905 130.782 128.241 131.509C107.693 138.469 82.5549 136.644 59.4372 126.746C36.4978 116.849 18.5206 99.9919 10.0818 80.1971C9.71034 79.099 8.43262 78.7281 7.33319 79.099L2.01434 81.4881C0.914909 82.0371 0.543481 83.3132 0.914909 84.2332C16.8715 115.929 44.4018 130.04 64.7709 136.465C90.8303 144.523 115.226 143.247 127.884 138.291C135.595 135.353 138.893 131.138 137.615 126.568C136.338 122.532 129.726 123.081 122.565 123.63C121.287 123.808 119.995 123.808 118.717 124.001C115.047 124.179 112.477 123.823 111.927 123.452C112.106 123.274 112.849 123.081 114.319 122.903C133.767 119.787 145.326 115.573 148.446 110.438C149.367 108.969 149.546 107.5 149.174 105.853C148.446 103.464 146.604 101.639 144.034 100.912C139.265 99.4429 132.297 101.09 125.507 102.737C122.758 103.464 120.188 104.013 117.796 104.384C115.404 104.755 114.305 104.755 113.755 104.562C113.933 104.562 113.933 104.384 114.305 104.384C131.361 98.701 142.919 93.7597 144.39 88.0764C144.94 86.0584 144.212 84.0403 142.191 82.0223C135.951 75.79 122.015 80.5532 110.813 84.5894C107.143 85.8655 103.652 87.1564 100.903 87.7055C99.4326 88.0764 98.5115 88.0764 98.1549 88.0764C111.913 81.2952 116.503 73.7868 115.033 69.3797C113.562 65.3436 107.693 63.8894 99.6258 65.8926C65.4989 74.1429 52.6623 61.8564 48.7995 56.1732C43.4806 48.4719 43.6589 38.2184 49.1709 30.1461C56.6886 19.1506 71.0109 14.9364 87.6955 18.7797C101.082 22.2668 112.834 33.2623 119.802 49.199V49.3771C119.98 49.7481 119.98 49.9261 120.173 50.2971L120.545 51.0242C121.466 53.4132 123.486 55.2384 125.863 55.7874C129.711 56.8855 133.753 55.0603 135.402 51.3952C135.773 50.4752 136.13 49.57 136.323 48.65C137.244 46.261 137.972 43.7087 139.071 41.3197C146.961 25.19 159.247 14.3874 173.926 11.4494C178.695 10.3513 184.207 10.1732 189.883 10.5294C206.211 12.3545 219.612 21.7029 226.58 35.8145C239.788 62.7468 229.522 96.4752 212.273 115.706C192.825 138.246 160.897 150.518 124.942 149.791C116.875 149.613 113.933 152.907 113.012 154.925C111.734 157.492 112.284 160.786 114.111 163.175C116.86 166.291 122.372 169.036 125.299 170.505C125.477 170.505 125.477 170.684 125.477 170.684C125.477 170.684 125.477 170.862 125.299 170.862C123.278 171.233 119.059 170.135 114.29 169.036C102.909 166.291 87.3241 162.626 82.9115 172.153C82.1835 173.978 82.3618 175.818 83.0898 177.465C85.6601 182.599 95.5698 185.344 101.988 187.184C103.815 187.733 105.479 188.104 106.386 188.46C104.737 188.638 101.617 188.282 98.3183 187.733C91.7069 186.813 84.3675 185.715 81.4406 188.653C80.3412 189.751 79.9698 191.042 80.1629 192.867C80.7126 198.002 85.3035 206.801 110.442 207.706C110.442 207.706 110.442 207.884 110.263 207.884C106.044 208.433 103.102 209.902 101.275 211C98.3332 212.647 96.5058 215.585 96.8772 218.331C97.0555 221.076 99.2692 223.465 102.567 224.563C109.357 226.952 117.246 227.857 125.507 227.857C162.575 227.857 210.638 206.415 238.718 174.898C239.446 173.978 239.446 172.702 238.347 171.96L233.578 168.473L233.533 168.532Z" fill="white"/>
<path d="M158.489 71.5916C156.097 72.6897 155.191 75.2568 155.919 77.6458C156.84 80.0348 159.41 81.311 161.787 80.5839C167.284 78.9368 180.136 74.9007 188.575 96.1645C189.303 97.9897 191.145 99.1026 192.972 99.1026C193.344 99.1026 193.894 99.1026 194.25 98.9245C196.642 98.1974 198.291 95.9865 197.742 93.4342L197.563 92.5142C196.286 84.8129 194.265 71.8142 211.692 62.4658C213.891 61.1897 214.812 58.4297 213.713 56.0555C212.614 53.6665 209.865 52.7613 207.473 53.6665C198.113 57.7026 190.967 59.3497 182.884 41.3948C181.963 39.1987 179.586 38.1006 177.387 38.6497C174.995 39.1987 173.539 41.2168 173.539 43.591C173.539 44.3181 173.718 45.2381 173.718 46.1581C174.817 53.8594 175.738 63.7568 158.489 71.6361V71.5916ZM182.528 57.3019C186.198 61.6942 190.417 64.2613 195.364 65.0032C191.516 69.7665 189.674 74.7226 188.946 79.4858C184.905 75.0936 180.329 72.1555 174.995 71.2355C179.586 66.4723 181.607 61.709 182.513 57.3019H182.528Z" fill="white"/>
</svg>
