<svg width="289" height="230" viewBox="0 0 289 230" fill="none" xmlns="http://www.w3.org/2000/svg">
<path d="M159.78 84.2989C159.098 85.9015 158.964 88.4834 160.18 89.8634C161.247 91.0802 164.418 91.5105 164.552 89.1808C164.626 87.7712 162.877 87.0144 162.136 86.0647C161.765 85.575 160.491 82.6815 159.794 84.2989H159.78Z" fill="white"/>
<path d="M180.796 74.5648C178.899 77.5474 177.669 81.4796 174.927 83.839C173.563 85.0112 172.941 84.7441 171.652 83.6758C170.392 82.637 168.421 81.4203 168.539 84.2099C168.702 87.8454 174.156 91.6738 176.661 88.1422C178.173 86.0054 179.373 83.4532 180.677 81.1828C182.041 78.8087 184.13 75.9151 182.411 73.2441C181.863 73.6448 181.181 74.0009 180.796 74.5796V74.5648Z" fill="white"/>
<path d="M180.959 54.6061C178.395 52.9294 174.601 52.6326 171.652 53.2113C168.776 53.79 167.783 56.1791 170.748 57.7668C172.837 58.8797 175.757 58.7313 178.024 58.4939C179.907 58.301 184.249 56.7429 180.944 54.5913L180.959 54.6061Z" fill="white"/>
<path d="M161.795 68.8067C161.143 70.8841 160.595 73.8073 161.588 75.8551C163.426 79.6241 168.583 77.8286 171.058 75.8254C172.229 74.8905 173.859 72.9318 173.8 71.2996C173.696 68.0944 170.925 70.6764 169.709 71.5667C168.539 72.4273 165.886 74.4899 164.359 73.5402C162.625 72.457 164.048 69.4447 164.27 67.9312C164.819 64.2809 162.329 67.1151 161.795 68.7918V68.8067Z" fill="white"/>
<path d="M198.965 65.1564C200.27 63.4797 197.869 60.8532 196.861 59.6661C195.972 58.6274 193.348 55.4371 192.044 57.6926C191.259 59.0577 193.111 61.61 193.986 62.5151C194.964 63.5093 197.439 67.1003 198.965 65.1416V65.1564Z" fill="white"/>
<path d="M189.391 78.4669C186.813 78.8082 187.731 75.3804 187.302 74.0746C186.487 71.6856 185.271 74.9353 185.064 75.8107C184.678 77.3985 184.678 79.2682 185.434 80.752C187.45 84.7288 191.511 82.5772 192.963 79.4314C193.615 78.0069 194.401 72.3236 191.866 75.3211C191.111 76.2114 190.814 78.2591 189.391 78.452V78.4669Z" fill="white"/>
<path d="M137.994 47.751C135.741 47.3058 132.599 48.4484 134.14 51.1342C135.445 53.3748 138.868 53.9535 141.165 54.5322C143.655 55.1555 144.87 54.2355 144.026 51.5052C143.196 48.849 140.424 48.2406 137.994 47.7658V47.751Z" fill="white"/>
<path d="M172.748 148.476C173.622 147.051 174.319 145.775 174.645 144.158C174.704 143.846 174.867 141.116 174.867 141.116C177.564 139.335 175.549 134.394 174.408 131.871C174.126 131.233 173.652 130.002 173.089 129.571C172.866 129.393 172.273 129.675 171.947 129.482C171.681 129.319 171.562 128.918 171.31 128.77C169.369 127.627 167.175 126.945 164.922 126.678C160.387 126.158 155.511 128.666 152.399 131.767C150.665 133.504 150.043 133.756 148.709 131.649C147.568 129.838 146.263 127.998 144.307 127.019C140.824 125.298 135.815 125.728 132.258 127.019C128.36 128.458 125.915 132.168 124.922 136.086C122.58 145.33 130.939 156.459 138.186 161.386C140.276 162.81 142.692 163.597 144.722 165.155C146.441 166.475 147.879 167.514 150.028 166.446C152.043 165.437 154.163 164.071 156.015 162.766C158.12 161.282 160.639 160.436 162.655 158.878C166.582 155.866 170.124 152.735 172.748 148.476Z" fill="white"/>
<path d="M263.954 133.385C246.228 115.92 222.53 105.37 198.699 98.796C198.98 98.7366 199.262 98.6921 199.544 98.6327C200.581 99.0631 201.737 99.256 202.863 99.1669C205.264 98.974 207.458 97.8018 209.473 96.5108C223.938 87.2218 233.053 70.1424 232.712 52.9443C232.43 38.3134 225.272 24.0385 214.023 14.7347C213.994 14.705 213.979 14.6753 213.949 14.6456C211.771 11.9895 208.554 10.4463 205.457 8.9624C197.913 5.38627 190.162 1.75079 181.863 0.949501C175.001 0.296597 168.08 1.6024 161.292 2.10692C152.029 2.77466 142.87 4.71853 134.363 8.47273C131.236 9.85273 128.153 11.4701 125.485 13.6366C122.507 16.0553 120.106 19.1269 118.253 22.4805C116.593 25.4779 115.348 28.6979 114.118 31.903C111.258 39.3372 108.383 46.8605 107.345 54.7695C106.323 62.6785 107.316 71.1069 111.702 77.7547C116.43 84.9069 124.389 89.1063 132.095 92.8456L132.199 92.534C132.007 94.285 131.918 96.0656 132.036 97.8166C132.214 100.606 133.37 101.037 135.267 102.743C135.267 94.2553 136.556 85.7972 139.283 77.7695C139.565 76.9237 142.336 69.7418 142.885 66.0766C143.581 64.0882 143.67 61.8772 143.063 59.8443C143.003 59.6514 142.781 59.4437 142.574 59.414C142.203 59.3695 141.818 59.3398 141.447 59.2953C141.24 59.2805 141.047 59.3398 140.854 59.414C140.099 59.3992 139.343 59.4585 138.928 59.4734C137.06 59.5179 135.267 59.6811 133.622 58.5979C130.969 56.8321 129.28 52.6476 130.228 49.576C131.221 46.356 135.178 43.8037 138.498 44.1153C141.625 44.3972 143.018 46.7269 145.597 47.914C146.19 48.1811 146.575 48.2405 146.812 48.1514C146.99 49.2643 146.931 50.4069 146.605 51.5198C146.101 53.1966 145.078 54.725 144.886 56.4611C144.693 58.1972 145.893 60.3043 147.627 60.1114C148.709 59.9927 149.495 59.0579 150.117 58.1824C153.704 53.1224 156.001 47.1869 160.032 42.4682C164.063 37.7643 170.807 34.4405 176.468 36.963C180.203 38.625 182.796 42.5424 186.798 43.4179C189.021 43.8927 191.348 43.3437 193.586 43.774C198.832 44.7682 201.618 50.6443 202.345 55.9566C202.804 59.325 202.715 62.7527 202.167 66.1063C201.633 67.9018 200.981 69.6824 200.211 71.4779C197.128 78.645 192.504 84.4024 185.627 88.2308C178.75 92.0592 169.339 94.9676 161.499 93.0979C157.453 92.1334 154.119 89.774 150.651 87.6076C148.265 86.1089 147.109 86.5985 148.294 89.3585C150.917 95.4276 158.787 98.3508 164.938 98.3656C168.569 98.3656 171.903 97.045 175.282 95.8876C180.351 96.6889 185.42 97.4902 190.473 98.2766C190.192 98.6327 189.984 99.0334 189.881 99.4192C182.055 108.797 170.392 114.644 158.268 115.801C151.718 116.424 144.648 115.697 138.587 112.997C132.436 110.251 126.76 104.568 127.353 97.4011C127.694 97.4011 128.035 97.4011 128.376 97.4011C130.524 97.4308 132.036 93.2611 129.398 93.2166C90.5832 92.5637 43.9282 104.613 18.6444 135.804C4.44637 153.328 -7.20255 184.089 9.73729 203.602C24.5726 220.681 51.9758 220.666 71.8649 214.345C83.1137 210.769 92.8655 204.759 101.654 196.969C106.649 192.532 111.643 188.095 116.652 183.673C118.979 181.611 123.322 179.118 124.078 175.839C124.211 175.26 124.166 174.399 123.588 174.043C122.655 173.45 122.403 173.583 121.395 173.405C120.639 173.271 120.076 173.331 119.661 173.464C120.847 171.995 122.106 170.704 122.195 168.671C122.225 167.974 121.84 167.455 121.232 167.188C119.972 166.639 119.32 167.158 118.031 167.232C117.542 167.262 116.415 167.41 115.363 167.603C117.097 165.882 118.742 163.893 118.831 161.682C118.861 161.089 118.505 160.347 117.868 160.199C113.466 159.204 106.337 165.125 102.632 167.113C93.4287 172.07 84.4623 177.916 74.5474 181.344C62.2019 185.602 33.1537 189.787 41.4235 167.47C44.9508 157.973 52.9984 150.806 61.5053 145.716C65.2698 143.475 89.3827 130.848 91.9022 137.688C93.0879 140.923 89.4272 149.752 88.7306 153.135C87.871 157.29 87.0263 161.445 86.1667 165.6C85.559 168.523 89.442 167.885 89.9163 165.555C91.013 160.213 92.1097 154.886 93.2064 149.544C94.0215 145.597 96.1409 140.374 95.8148 136.308C94.5551 121.128 57.8002 143.282 51.872 148.164C43.5281 155.035 29.33 172.737 38.4743 183.866C47.1887 194.476 68.3524 187.977 78.6082 183.837C89.5902 179.4 99.7571 172.722 110.206 167.188C110.265 167.158 110.828 166.802 111.569 166.312C110.265 167.722 109.213 168.731 108.99 170.779C108.916 171.476 109.376 171.995 109.954 172.262C111.614 173.019 114.237 172.426 116.489 171.788C116.119 172.262 115.793 172.752 115.6 173.138C115.081 174.221 114.681 174.651 114.578 175.913C114.548 176.299 114.77 176.981 115.141 177.189C115.778 177.545 116.43 177.768 117.127 177.842C114.415 180.097 111.702 183.436 109.583 185.306C102.721 191.389 96.0668 198.097 88.1971 202.904C69.1231 214.568 40.6529 219.301 20.7341 206.911C-3.45296 191.879 5.27632 159.323 19.5337 140.255C34.784 119.882 59.2082 108.812 83.3211 102.951C96.4373 99.7605 110.206 97.6385 123.796 97.416C123.411 103.01 125.619 108.515 129.62 112.462C134.081 116.855 140.247 119.11 146.323 120.119C157.661 121.989 169.591 119.451 179.432 113.62C184.634 110.548 189.11 106.527 192.874 101.838C235.305 112.878 285.073 140.448 284.939 190.484C284.88 211.377 269.867 224.049 249.741 224.999C230.667 225.904 211 218.144 196.98 205.323C190.681 199.551 185.405 192.532 179.877 186.048C178.617 184.579 176.527 181.151 174.497 178.88C174.645 178.836 174.823 178.821 174.956 178.762C176.053 178.331 176.853 177.411 176.913 176.195C176.972 174.978 176.261 173.91 175.52 172.871C177.372 173.776 179.299 175.022 181.211 174.459C182.307 174.132 183.137 173.019 183.167 171.891C183.197 170.853 182.722 169.903 182.055 168.983C185.271 171.461 188.606 174.666 190.058 175.735C195.587 179.815 200.952 184.237 206.702 188.036C214.779 193.363 224.249 197.592 233.883 198.987C251.489 201.524 258.811 188.822 252.497 172.871C248.57 162.944 240.715 154.916 232.164 148.802C226.68 144.885 211.044 133.43 204.019 137.095C198.966 139.736 201.026 147.289 201.322 151.726C201.752 158.329 202.182 164.947 202.611 171.55C202.789 174.399 206.643 172.678 206.494 170.452C206.242 166.52 205.991 162.588 205.724 158.655C205.501 155.242 203.101 145.716 204.686 142.704C207.458 137.451 226.517 150.316 230.489 153.254C238.359 159.086 245.665 166.639 249.133 175.987C252.453 184.95 251.919 194.906 240.507 195.233C232.46 195.47 224.146 192.25 217.047 188.733C208.243 184.356 200.714 177.931 192.83 172.114C189.451 169.621 181.388 161.237 176.927 161.608C175.534 161.727 174.601 162.914 174.467 164.25C174.275 166.342 176.053 167.974 177.505 169.606C175.742 168.731 173.904 167.648 172.126 168.137C170.984 168.449 170.273 169.577 170.169 170.704C170.036 172.188 171.044 173.39 171.903 174.592C170.896 174.355 169.843 174.162 168.791 174.637C168.02 174.978 167.25 176.135 167.324 176.996C167.813 182.501 177.165 189.817 180.559 193.793C185.553 199.655 190.34 205.739 196.224 210.739C211.43 223.619 232.712 231.187 252.69 228.872C269.496 226.913 283.946 216.764 287.726 199.669C293.017 175.749 280.656 149.871 263.939 133.385H263.954ZM141.269 64.5927L141.403 64.1772C141.403 64.2811 141.358 64.3998 141.343 64.5037C141.314 64.5334 141.299 64.563 141.269 64.5779V64.5927Z" fill="white"/>
</svg>
