<svg width="261" height="230" viewBox="0 0 261 230" fill="none" xmlns="http://www.w3.org/2000/svg">
<path d="M2.47566 108.634C2.47566 106.453 2.46075 104.287 2.49058 102.105C2.49058 101.734 2.66955 101.26 2.92309 101.007C7.56143 96.5705 12.6472 92.6976 18.2848 89.5963C26.4131 85.1298 35.1529 82.6963 44.355 81.7911C49.5899 81.2718 54.8397 81.1531 60.0896 81.2273C64.6981 81.2866 69.3066 81.3905 73.9002 81.5389C80.0598 81.7466 86.1896 81.4944 92.3193 80.7524C93.1396 80.6486 93.8257 80.3963 94.467 79.8473C100.477 74.8169 107.532 72.2647 115.243 71.3744C120.806 70.7363 126.384 70.7215 131.976 71.1666C136.123 71.4931 140.194 70.8253 144.236 69.9498C148.158 69.104 152.081 68.2137 156.033 67.4866C159.314 66.8782 162.64 66.8189 165.936 67.5163C166.831 67.7092 167.353 68.1247 167.711 68.9853C177.047 91.1989 186.593 113.338 195.69 135.656C199.478 144.945 203.893 153.952 207.711 163.211C209.531 167.603 211.082 172.085 211.962 176.759C212.215 178.08 211.917 178.673 210.664 179.148C209.918 179.43 209.128 179.563 208.367 179.801C207.562 180.053 206.727 180.276 205.981 180.676C205.012 181.196 204.892 182.041 205.519 182.947C205.593 183.05 205.668 183.154 205.742 183.258C207.144 185.291 206.98 187.398 205.28 189.209C203.55 191.034 201.373 192.191 199.106 193.215C194.795 195.159 190.276 196.494 185.713 197.681C174.795 200.53 163.684 202.46 152.573 204.433C144.355 205.887 136.152 207.371 127.95 208.914C125.19 209.434 122.431 210.027 119.791 210.932C116.853 211.927 113.885 212.565 110.828 213.025C104.191 214.019 97.763 215.933 91.3201 217.699C81.3424 220.429 71.3797 223.219 61.3722 225.86C56.3162 227.196 51.1708 228.19 45.9359 228.501C43.5943 228.65 41.2081 228.472 38.8665 228.205C37.7181 228.071 36.5846 227.448 35.5257 226.884C35.1379 226.676 34.8098 226.068 34.7353 225.593C34.258 222.403 33.4377 221.661 30.2162 221.646C28.9336 221.646 27.6211 221.691 26.3683 221.453C25.5331 221.29 24.7576 220.711 24.0566 220.192C23.7285 219.954 23.5346 219.42 23.475 219.005C21.7897 207.252 19.1647 195.678 16.3012 184.163C13.2885 172.025 10.246 159.902 7.36755 147.734C5.4436 139.632 3.96709 131.427 3.13189 123.132C2.63972 118.324 2.43092 113.487 2.08789 108.664H2.46075L2.47566 108.634ZM124.832 203.35C124.728 202.86 124.683 202.578 124.594 202.296C122.312 194.654 120.03 187.027 117.733 179.385C114.333 168.093 111.052 156.771 107.502 145.523C103.475 132.762 98.8518 120.194 93.1247 108.07C90.0822 101.616 86.7115 95.3389 82.7593 89.3737C82.3417 88.7505 81.8346 88.4092 81.0889 88.2905C79.0754 87.9937 77.0769 87.6376 75.0635 87.3408C65.5482 85.9608 56.0179 84.9815 46.3684 85.4118C41.9836 85.6047 37.6436 86.0498 33.3631 86.9995C28.3669 88.1124 23.6241 89.8634 19.4183 92.8163C13.4675 97.0008 9.90298 102.773 8.12818 109.732C6.23406 117.107 6.30863 124.601 6.93503 132.109C7.47195 138.445 8.41155 144.737 9.78366 150.94C12.0954 161.445 14.5711 171.921 17.0022 182.412C19.3735 192.651 21.7598 202.875 24.1312 213.114C24.4146 214.316 24.4593 214.449 25.6972 214.449C28.1431 214.449 30.5891 214.449 33.0201 214.241C38.3893 213.767 43.5794 212.461 48.6503 210.68C54.6906 208.558 60.6861 206.273 66.6817 204.032C73.4378 201.51 80.2238 199.076 87.323 197.667C93.2887 196.48 99.2992 196.02 105.369 196.761C111.961 197.563 118.091 199.685 123.848 202.934C124.102 203.083 124.385 203.172 124.832 203.365V203.35ZM209.083 175.987C208.919 175.394 208.845 174.978 208.695 174.578C203.595 159.561 197.525 144.93 191.276 130.358C183.132 111.394 174.601 92.5937 166.98 73.4073C166.757 72.8582 166.399 72.606 165.847 72.5021C163.267 72.0273 160.657 71.8195 158.076 72.1608C154.094 72.6653 150.127 73.3034 146.175 74.0008C141.074 74.906 136.003 75.9595 130.783 75.7815C128.755 75.7073 126.727 75.7073 124.698 75.7518C119.747 75.8705 114.825 76.3157 109.978 77.3098C105.429 78.2447 101.044 79.5653 97.1963 82.2808C94.0792 84.4769 91.9166 87.3408 90.9174 91.0357C90.6937 91.8666 90.634 92.6531 90.9174 93.5137C93.8853 102.224 96.8085 110.949 99.7914 119.66C104.758 134.142 109.739 148.61 114.75 163.063C118.494 173.865 122.312 184.638 126.13 195.426C126.503 196.465 126.95 197.474 127.457 198.453C127.83 199.18 128.352 199.21 128.829 198.557C129.366 197.83 129.814 197.058 130.261 196.272C132.081 193.111 134.303 190.277 137.047 187.858C141.641 183.822 146.98 181.107 152.737 179.163C162.312 175.958 172.23 174.919 182.252 174.696C185.519 174.622 188.8 174.667 192.051 174.83C196.63 175.052 201.194 175.409 205.757 175.72C206.801 175.794 207.83 175.883 209.053 175.987H209.083ZM131.469 203.914C156.212 198.334 180.776 192.859 205.28 187.042C204.698 186.523 204.132 186.137 203.535 185.796C200.329 184.03 196.913 182.828 193.379 181.982C186.473 180.335 179.478 179.712 172.394 179.934C166.682 180.127 161.044 180.795 155.526 182.249C149.441 183.852 143.699 186.181 138.867 190.336C135.049 193.616 132.469 197.652 131.574 202.667C131.514 202.979 131.529 203.305 131.484 203.899L131.469 203.914ZM36.1223 220.681C36.6443 221.23 36.9575 221.735 37.4049 222.002C38.1656 222.462 39.0007 222.863 39.8509 223.1C41.8046 223.649 43.8181 223.649 45.8315 223.516C50.5742 223.204 55.2424 222.358 59.8211 221.127C69.2469 218.619 78.628 215.963 88.0389 213.381C93.1694 211.971 98.2999 210.428 103.609 209.834C106.846 209.478 110.037 208.929 113.14 207.98C114.213 207.653 115.287 207.223 116.257 206.674C117.45 205.991 117.42 204.997 116.152 204.463C114.885 203.914 113.557 203.424 112.2 203.216C109.023 202.741 105.832 202.296 102.625 202.103C99.2843 201.91 95.9286 201.925 92.5878 202.059C90.6489 202.133 88.6802 202.43 86.801 202.949C76.3759 205.828 65.9807 208.796 55.7942 212.401C49.5302 214.612 43.3706 217.09 37.39 219.969C37.0321 220.147 36.689 220.355 36.1223 220.681Z" fill="white"/>
<path d="M203.103 15.8624C202.522 14.2747 201.627 13.0282 200.627 11.8708C196.004 6.52886 187.95 5.25273 181.955 9.00693C177.749 11.6482 176.078 15.5953 176.332 20.4772C176.436 22.4953 176.675 24.5431 176.422 26.5314C175.676 32.2443 172.081 35.7611 166.354 36.696C161.224 37.5418 156.362 36.5031 151.679 34.4702C147.115 32.4818 143.192 29.6476 140.463 25.3889C137.48 20.7295 137.674 15.9514 140.284 11.2624C142.104 7.98306 145.579 6.52886 149.307 7.21144C153.26 7.93854 156.257 10.1643 158.823 13.1024C160.374 14.8831 161.507 16.916 162.492 19.0379C163.207 20.5811 162.954 22.1985 162.715 23.8011C162.447 25.5521 162.163 27.2882 161.88 29.0392C161.716 30.1076 162.193 30.7605 163.148 31.2205C164.952 32.1108 166.802 32.7637 168.86 32.4818C171.53 32.1256 173.409 29.9889 173.394 27.3031C173.394 22.9405 173.498 18.5927 174.483 14.3192C175.02 11.9598 175.855 9.70434 177.242 7.68628C178.629 5.65338 180.419 4.09531 182.73 3.24951C184.58 2.58176 186.504 2.00305 188.442 1.66176C191.351 1.15725 193.961 2.1366 196.243 3.87273C197.689 4.9708 199.032 6.21725 200.374 7.44886C202.417 9.33338 204.386 11.2772 206.414 13.1618C208.651 15.2243 211.321 16.0553 214.363 16.2037C219.166 16.4411 223.968 16.8121 228.756 17.2721C233.528 17.7321 238.152 18.7856 242.387 21.1895C245.147 22.7624 247.518 24.7953 249.442 27.3179C249.919 27.9411 250.471 28.3121 251.232 28.5198C253.051 29.0243 254.766 29.796 256.243 30.9979C258.271 32.645 259.3 34.8114 259.554 37.3637C259.912 40.9102 259.002 44.2785 258.032 47.6321C257.943 47.9289 257.854 48.2256 257.749 48.5076C256.765 51.2824 256.109 54.0424 256.407 57.0992C256.929 62.4411 255.124 67.145 251.44 71.0921C248.89 73.8224 245.788 75.7663 242.387 77.265C237.346 79.4908 232.022 80.6185 226.548 81.1379C218.659 81.865 210.859 81.316 203.178 79.3869C197.585 77.9921 192.29 75.9295 187.667 72.3979C184.833 70.2314 182.551 67.6198 181.388 64.2069C180.031 60.245 180.672 56.4314 182.387 52.7218C183.789 49.6798 185.788 47.0534 187.965 44.5456C188.308 44.1598 188.577 43.6553 188.711 43.1508C189.442 40.4502 189.904 37.6902 189.919 34.8856C189.919 32.9121 189.994 30.9385 189.889 28.9798C189.65 24.5579 191.679 21.4418 195.497 19.4385C197.63 18.3108 199.852 17.3611 202.044 16.3372C202.357 16.1889 202.686 16.0405 203.103 15.8476V15.8624ZM191.798 33.7282C191.753 34.1734 191.679 34.4702 191.694 34.7669C191.783 36.5327 191.768 38.3134 192.022 40.0495C193.409 49.0863 198.211 55.6598 206.653 59.3992C213.707 62.5302 220.985 62.6637 228.278 60.2598C232.529 58.8502 236.228 56.5205 239.211 53.1521C243.938 47.825 245.624 41.474 245.49 34.5295C245.49 34.2476 245.37 33.9656 245.296 33.6095C244.908 33.7134 244.61 33.7876 244.326 33.8914C242.596 34.485 240.896 35.1379 239.151 35.6869C229.845 38.5656 220.359 39.4263 210.68 38.3134C204.565 37.616 198.644 36.1024 192.857 34.025C192.544 33.9063 192.201 33.8618 191.783 33.7579L191.798 33.7282ZM192.096 47.2611C191.843 47.365 191.709 47.3947 191.619 47.4689C188.815 49.5908 186.19 51.8908 184.416 54.9772C182.164 58.8798 182.492 62.5747 185.504 65.7798C186.548 66.8927 187.786 67.8721 189.069 68.6882C193.081 71.2702 197.555 72.7392 202.164 73.7927C209.367 75.4547 216.675 76.1224 224.073 75.8405C228.935 75.6476 233.707 75.0392 238.42 73.8372C244.475 72.294 249.457 69.2521 252.842 63.925C253.409 63.0198 253.946 62.0553 254.244 61.0463C255.467 56.9953 253.141 53.0927 249.084 52.4843C246.026 52.0243 243.327 53.0185 241.06 55.0514C239.852 56.1198 238.793 57.3514 237.615 58.4643C234.647 61.2689 231.366 63.6282 227.667 65.4089C223.148 67.5753 218.405 68.5398 213.409 67.6198C207.816 66.596 203.461 63.4798 199.777 59.325C196.839 56.016 194.587 52.2618 192.678 48.2998C192.514 47.9585 192.305 47.6469 192.096 47.2611ZM252.395 46.9198C252.544 46.816 252.693 46.7566 252.798 46.6527C253.767 45.7327 254.766 44.8424 255.676 43.8779C256.407 43.0914 257.108 42.2605 257.689 41.3553C258.644 39.8863 258.405 38.714 257.063 37.5714C256.944 37.4676 256.824 37.3637 256.705 37.2895C254.513 35.9095 252.32 34.5147 250.113 33.1495C249.949 33.0456 249.74 33.016 249.576 32.9714C245.728 38.4321 246.683 43.8037 252.395 46.9347V46.9198ZM155.109 17.2424C152.484 20.9224 149.859 24.6173 147.234 28.3121C147.279 28.4308 147.324 28.5495 147.368 28.6534C149.546 29.0837 151.723 29.6179 153.916 29.8998C155.094 30.0482 156.078 29.3508 156.735 28.3121C157.257 27.4663 157.823 26.6353 158.345 25.7895C158.688 25.2256 159.031 24.6321 159.255 24.0089C160.254 21.2192 158.256 17.8211 155.124 17.2424H155.109Z" fill="white"/>
<path d="M66.8612 182.694C66.8612 186.493 65.2952 188.956 63.0282 191.048C59.8216 194.001 55.9588 195.9 52.0065 197.607C49.0535 198.883 46.1601 200.233 43.4457 201.984C41.8797 202.993 40.1348 203.646 38.2705 203.869C36.0333 204.151 34.2138 203.438 32.8417 201.643C31.3652 199.714 30.6642 197.429 30.3361 195.099C29.829 191.553 29.5456 187.976 29.2026 184.415C28.7999 180.053 28.442 175.69 28.0393 171.342C27.9796 170.719 28.2183 170.348 28.6955 170.081C31.1564 168.745 33.5427 167.232 36.093 166.134C41.0595 163.982 46.2645 162.84 51.7381 163.151C54.3183 163.3 56.7791 163.908 59.0013 165.258C62.5509 167.395 64.1468 170.734 64.6539 174.666C64.8179 175.942 65.0118 177.159 65.6233 178.331C66.4287 179.86 66.891 181.522 66.8612 182.694ZM55.7202 166.431C55.4368 166.505 55.1833 166.564 54.9447 166.623C52.9312 167.128 50.9178 167.692 48.8895 168.122C45.7724 168.79 42.6105 169.294 39.5084 170.007C37.2414 170.526 35.0788 171.387 33.3189 172.989C32.961 173.316 32.6031 173.865 32.5732 174.325C32.3644 178.331 32.1407 182.353 32.096 186.359C32.0661 188.956 32.4837 191.523 33.5427 193.927C34.7507 196.687 37.1221 198.067 40.1049 197.696C40.9103 197.592 41.7306 197.399 42.5061 197.176C44.8924 196.464 47.0252 195.233 49.1579 193.971C51.0073 192.873 52.9163 191.879 54.7955 190.811C56.7344 189.713 58.7329 188.689 60.5972 187.457C62.5062 186.196 63.237 184.267 62.8045 182.026C62.4764 180.394 61.9991 178.791 61.492 177.218C60.2989 173.568 58.7776 170.081 56.2869 167.098C56.108 166.891 55.929 166.668 55.7351 166.431H55.7202Z" fill="white"/>
<path d="M17.8818 114.852C18.3144 114.466 18.6276 114.051 19.0302 113.858C21.342 112.789 23.6089 111.617 26.0101 110.786C37.6284 106.794 49.5449 104.005 61.7448 102.462C65.7865 101.957 69.8432 101.675 73.9148 102.12C75.1378 102.254 76.3309 102.625 77.5092 102.936C77.882 103.04 78.225 103.293 78.7321 103.56C78.3294 103.99 78.0759 104.405 77.703 104.613C76.1221 105.504 74.5561 106.513 72.8708 107.136C67.1586 109.273 61.2675 110.519 55.1228 110.341C54.5561 110.326 53.9893 110.296 53.4375 110.222C51.8417 110.014 50.3502 109.584 49.351 108.071C48.993 108.189 48.65 108.264 48.3368 108.412C45.175 109.851 42.043 111.335 38.8662 112.745C35.2122 114.362 31.3942 115.342 27.3673 115.431C24.996 115.49 22.6395 115.638 20.2681 115.698C19.4926 115.713 18.6723 115.638 17.8818 114.852Z" fill="white"/>
<path d="M42.729 153.254C42.2815 153.358 41.9385 153.432 41.5955 153.506C37.2256 154.575 32.8557 155.643 28.4709 156.682C27.9787 156.8 27.4418 156.697 26.9198 156.697C26.89 156.608 26.8453 156.519 26.8154 156.43C27.1137 156.192 27.3822 155.881 27.7103 155.717C29.4105 154.871 31.0958 153.951 32.8408 153.239C41.9087 149.515 51.1854 146.488 60.8349 144.648C63.7283 144.099 66.6366 143.772 69.5896 143.95C70.037 143.98 70.7529 144.158 70.8424 144.425C70.9915 144.885 70.917 145.657 70.6187 145.968C69.7238 146.903 68.7693 147.838 67.6657 148.506C63.2063 151.177 58.3442 152.853 53.3032 153.966C51.0511 154.456 48.7245 154.619 46.4426 154.916C46.1443 154.961 45.8311 154.916 45.5179 154.871C44.3994 154.738 43.2957 154.53 42.7439 153.239L42.729 153.254Z" fill="white"/>
<path d="M19.8509 137.881C20.1939 137.287 20.4027 136.545 20.8949 136.115C21.9687 135.18 23.0873 134.231 24.355 133.578C30.097 130.625 36.2417 129.007 42.6548 128.444C43.4602 128.369 44.3103 128.473 45.1007 128.622C46.1746 128.814 46.3983 129.601 45.6526 130.417C45.4289 130.654 45.1604 130.892 44.877 131.025C39.4631 133.593 34.0493 136.174 28.2625 137.822C26.2043 138.4 24.1014 138.801 21.9389 138.623C21.2975 138.564 20.6711 138.371 20.0298 138.237C19.9702 138.118 19.8956 138 19.8359 137.881H19.8509Z" fill="white"/>
<path d="M93.1246 157.854C92.5728 158.462 92.2297 158.937 91.8121 159.323C89.5153 161.415 86.6965 162.454 83.7435 163.151C79.3289 164.205 74.8397 164.413 70.3207 164.146C70.2013 164.146 70.082 164.086 69.7539 164.012C70.0969 163.507 70.3057 162.988 70.6786 162.677C71.9165 161.638 73.0947 160.495 74.4966 159.724C78.7174 157.349 83.2961 156.103 88.173 156.266C89.2618 156.296 90.3505 156.593 91.4095 156.889C91.9464 157.038 92.4087 157.438 93.1246 157.839V157.854Z" fill="white"/>
<path d="M79.6573 181.315C79.0459 181.196 78.0168 181.122 77.0473 180.81C75.7498 180.38 75.5708 179.593 76.421 178.525C77.4351 177.249 78.7476 176.373 80.239 175.75C82.9534 174.608 85.8319 174.237 88.7103 173.777C90.6939 173.465 92.6477 173.064 94.6164 172.679C95.4814 172.5 96.4956 172.886 96.9281 173.688C97.3457 174.474 96.9877 175.157 96.4061 175.587C95.198 176.477 93.9601 177.382 92.6179 178.035C88.6805 179.964 84.4896 181.062 79.6573 181.329V181.315Z" fill="white"/>
<path d="M56.6592 128.844C57.0768 128.458 57.39 128.028 57.8225 127.805C59.3885 126.989 60.9843 126.232 62.5951 125.505C63.9224 124.897 65.3244 124.437 66.6368 123.799C67.3378 123.458 68.1283 123.843 68.8889 124.674C69.4258 125.268 69.4258 125.906 68.874 126.544C68.5011 126.96 68.0686 127.345 67.5764 127.612C64.9814 129.067 62.1625 129.675 59.2244 129.705C58.3743 129.705 57.4944 129.63 56.6741 128.859L56.6592 128.844Z" fill="white"/>
<path d="M81.5957 144.915C82.1028 144.529 82.5353 144.113 83.0275 143.846C84.8619 142.867 86.7113 141.917 88.5756 140.968C89.381 140.552 90.1863 140.181 90.9917 139.751C91.469 139.499 91.812 139.602 92.1401 139.988C92.9007 140.864 93.02 141.902 92.2743 142.793C91.7076 143.46 90.9917 144.069 90.2311 144.499C88.2475 145.627 86.0998 146.191 83.7881 146.013C82.9976 145.953 82.2668 145.76 81.6106 144.915H81.5957Z" fill="white"/>
<path d="M76.9573 124.928C77.7328 124.497 78.3443 124.126 78.9707 123.8C80.6859 122.924 82.4458 122.153 84.3846 121.886C85.1005 121.782 85.9357 121.648 86.3235 122.405C86.7112 123.147 86.0998 123.8 85.5778 124.171C83.8775 125.402 82.1176 126.545 80.3578 127.673C80.149 127.806 79.6419 127.732 79.4629 127.569C78.6277 126.782 77.8671 125.922 76.9424 124.942L76.9573 124.928Z" fill="white"/>
<path d="M161.701 131.871C161.701 132.955 161.626 133.815 161.701 134.661C161.94 137.213 163.267 138.89 165.788 139.677C168.233 140.448 170.486 141.65 172.335 143.475C175.303 146.384 175.959 150.271 173.901 153.892C171.127 158.774 166.832 161.326 161.194 161.341C157.764 161.356 154.93 159.813 152.663 157.305C152.186 156.771 151.977 155.984 151.574 155.376C149.024 151.503 146.533 147.586 143.849 143.802C138.763 136.62 133.498 129.571 128.427 122.375C125.892 118.769 123.64 114.955 122.089 110.8C121.507 109.227 121.06 107.61 121.283 105.918C121.358 105.355 121.537 104.761 121.82 104.257C122.491 102.995 123.222 102.773 124.535 103.277C128.502 104.82 131.932 107.165 135.094 109.955C140.21 114.48 144.207 119.956 148.278 125.372C150.217 127.954 152.081 130.61 154.572 132.717C154.9 132.999 155.258 133.266 155.631 133.489C157.465 134.646 159.121 134.453 160.657 132.925C160.94 132.643 161.224 132.331 161.686 131.842L161.701 131.871ZM140.389 122.33C137.704 122.315 136.764 123.25 136.824 125.728C136.869 127.672 137.6 129.423 138.405 131.144C140.403 135.418 143.013 139.306 146.116 142.867C147.488 144.455 149.039 145.879 150.59 147.304C151.067 147.749 151.813 148.164 152.424 148.164C154.095 148.164 155.72 147.689 156.869 146.384C157.286 145.909 157.525 145.152 157.6 144.514C157.749 143.134 157.182 141.902 156.511 140.73C154.304 136.902 151.186 133.786 148.353 130.432C146.429 128.162 144.594 125.832 142.82 123.443C142.342 122.805 141.88 122.404 141.104 122.36C140.791 122.345 140.493 122.33 140.389 122.315V122.33ZM161.671 144.662C162.402 146.473 163.088 148.12 163.714 149.782C164.535 151.904 165.28 154.055 166.116 156.177C166.339 156.771 166.697 157.32 167.07 157.839C167.726 158.715 168.457 158.685 169.024 157.75C169.352 157.216 169.516 156.578 169.785 155.999C170.068 155.346 170.336 154.693 170.709 154.085C171.306 153.12 171.515 152.111 171.276 150.998C170.948 149.411 170.098 148.105 169.024 146.947C167.622 145.449 166.041 144.188 163.953 143.787C162.864 143.579 162.074 143.935 161.686 144.662H161.671ZM163.565 152.868C161.045 152.527 158.733 152.171 156.406 151.918C155.795 151.859 155.124 152.037 154.542 152.26C153.692 152.571 153.304 153.551 153.394 154.56C153.483 155.48 154.169 155.509 154.826 155.658C157.107 156.162 159.389 156.682 161.671 157.201C161.984 157.275 162.313 157.275 162.745 157.32C163.028 155.821 163.282 154.411 163.565 152.868Z" fill="white"/>
<path d="M157.062 86.7475C158.435 86.9107 159.822 87.0294 161.179 87.2668C162.103 87.43 162.223 87.712 162.029 88.6171C161.76 89.9823 160.88 90.8726 159.717 91.5255C158.002 92.49 156.108 92.8907 154.184 93.0836C150.724 93.4397 147.264 93.7068 143.804 94.0184C143.267 94.0629 142.715 94.1075 142.208 94.2707C139.792 95.0423 137.361 94.6862 134.945 94.4487C134.363 94.3894 133.781 94.2113 133.244 93.9739C132.678 93.7216 132.573 93.2171 133.036 92.8016C133.468 92.401 133.96 92.0745 134.482 91.8075C137.704 90.19 141.179 89.2997 144.669 88.4984C148.74 87.5636 152.842 86.8662 157.062 86.7178V86.7475Z" fill="white"/>
<path d="M148.546 110.682C147.92 110.578 147.085 110.519 146.309 110.296C145.727 110.133 145.146 109.851 144.669 109.48C143.714 108.738 143.684 108.085 144.669 107.373C145.489 106.765 146.399 106.245 147.338 105.859C151.231 104.287 155.273 103.322 159.478 103.188C160.955 103.144 162.446 103.322 163.908 103.559C164.862 103.708 165.355 104.346 165.235 105.088C165.176 105.503 164.892 106.082 164.549 106.245C160.09 108.293 155.496 109.91 150.589 110.504C149.978 110.578 149.367 110.623 148.546 110.682Z" fill="white"/>
<path d="M143.609 160.422C143.251 160.822 142.953 161.342 142.506 161.594C141.76 162.024 140.94 162.425 140.105 162.603C137.092 163.271 134.049 163.82 131.037 164.443C129.873 164.68 128.725 164.947 127.577 165.214C126.771 165.407 125.653 164.858 125.131 163.983C124.728 163.3 124.803 162.677 125.563 162.009C126.234 161.416 126.965 160.852 127.77 160.481C131.678 158.685 135.794 157.751 140.119 157.914C141.298 157.958 142.372 158.27 143.073 159.294C143.266 159.576 143.386 159.917 143.609 160.407V160.422Z" fill="white"/>
<path d="M155.631 122.983C156.585 122.464 157.301 122.018 158.062 121.662C160.791 120.356 163.729 119.822 166.712 119.511C168.278 119.347 169.844 119.258 171.41 119.14C172.603 119.051 173.483 119.644 174.229 120.475C174.691 120.995 174.647 121.633 174.154 122.063C173.513 122.627 172.812 123.22 172.037 123.547C168.129 125.253 164.028 125.802 159.807 125.194C158.793 125.046 157.808 124.556 156.869 124.126C156.466 123.947 156.183 123.487 155.661 122.983H155.631Z" fill="white"/>
<path d="M112.066 138.238C112.588 137.822 112.961 137.496 113.349 137.229C116.272 135.24 119.434 133.801 122.909 133.089C124.043 132.851 125.251 132.911 126.429 132.881C126.802 132.881 127.189 133.029 127.533 133.178C129.024 133.831 129.248 134.869 128.114 136.027C126.16 138.015 123.685 138.98 121.015 139.454C118.301 139.944 115.586 139.989 113.006 138.772C112.738 138.638 112.484 138.475 112.066 138.238Z" fill="white"/>
<path d="M103.565 97.9353C103.744 97.7275 103.893 97.4901 104.117 97.3417C106.473 95.6353 109.023 94.3294 111.902 93.7804C112.618 93.6469 113.393 93.632 114.124 93.6914C115.496 93.8101 116.451 94.7598 116.63 96.214C116.391 96.3772 116.123 96.6146 115.809 96.763C112.424 98.3062 108.859 98.9294 105.146 98.7662C104.609 98.7365 104.087 98.4546 103.55 98.2914C103.55 98.1727 103.55 98.0688 103.55 97.9501L103.565 97.9353Z" fill="white"/>
</svg>
