<svg width="290" height="230" viewBox="0 0 290 230" fill="none" xmlns="http://www.w3.org/2000/svg">
<path d="M108.638 129.453C103.299 126.767 98.2427 124.289 93.2457 121.662C84.858 117.255 76.5298 112.7 68.1421 108.278C59.918 103.96 51.6345 99.7307 43.3657 95.472C42.9791 95.2791 42.5329 95.1456 42.2206 94.8785C39.6775 92.6675 37.1493 93.0088 34.5914 94.8637C32.435 96.4217 30.1001 96.8966 27.0216 95.5611C27.2298 97.6978 27.3786 99.4637 27.5868 101.244C28.0775 105.666 24.8206 109.391 20.4632 109.376C18.3663 109.376 16.9386 108.337 15.957 106.616C15.4514 105.711 15.1093 104.731 14.797 104.049C13.1016 104.598 11.5252 105.369 9.87446 105.562C6.72164 105.948 4.04471 104.049 3.13753 101.155C2.27497 98.3953 3.59856 94.9082 6.12676 93.4095C7.50984 92.5933 8.96728 91.8959 10.3504 91.0501C11.0493 90.6198 11.6293 89.9966 12.5068 89.2546C8.96728 87.7708 5.79959 86.4353 2.49805 85.0404C3.5242 82.8443 4.46112 80.8559 5.38317 78.8378C9.08625 70.7953 12.7893 62.7527 16.4924 54.7101C16.7452 54.1462 17.117 53.6269 17.3104 53.0482C17.9201 51.2675 18.9314 51.2527 20.4037 52.1282C23.3334 53.8495 26.3227 55.452 29.7729 57.3662C29.7729 55.2443 30.1001 53.523 29.7134 51.9649C28.7468 48.1069 29.5796 45.2133 32.435 43.8482C35.0375 42.6166 38.6365 43.8778 40.6739 46.7714C41.0904 47.3649 41.4473 48.0178 41.8637 48.7004C42.1165 48.5817 42.3396 48.5075 42.5478 48.3888C45.8345 46.7417 48.8832 47.2759 50.7124 49.8133C52.616 52.4695 52.3334 56.3127 49.835 58.6127C48.5857 59.7701 47.0391 60.6159 45.6114 61.5656C44.615 62.2333 43.5739 62.8417 42.1909 63.7024C47.515 65.7204 47.6042 69.623 46.8457 73.852C46.6524 74.9501 46.5632 76.0927 46.1616 77.1166C45.4924 78.8527 46.2806 79.3869 47.7678 80.0398C58.8027 84.9514 69.8673 89.8333 80.7832 94.9972C93.4539 100.992 105.991 107.254 118.572 113.397C118.84 113.531 119.152 113.605 119.42 113.709C120.387 111.409 121.071 108.99 122.335 106.942C125.384 101.971 130.336 100.25 135.839 100.102C145.014 99.8643 153.015 103.069 160.213 108.678C167.932 114.703 176.528 119.066 186.299 120.668C189.451 121.188 192.723 121.247 195.921 121.232C206.777 121.173 216.741 123.858 225.084 130.951C232.178 136.961 236.06 144.959 237.413 154.055C239.926 170.853 235.688 186.211 226.899 200.471C222.065 208.32 215.879 214.938 208.041 219.909C200.888 224.435 193.095 227.225 184.559 227.24C177.242 227.24 170.936 224.213 165.314 219.791C157.938 213.989 152.525 206.377 146.74 199.106C142.769 194.105 138.843 189 133.593 185.291C130.172 182.872 126.261 181.151 122.677 178.94C118.052 176.076 113.114 173.509 109.069 169.962C101.678 163.493 98.1534 154.99 99.0457 145.093C99.5514 139.617 102.124 134.958 106.333 131.308C107.017 130.714 107.746 130.15 108.608 129.423L108.638 129.453ZM121.071 114.48C127.778 117.686 134.381 120.802 140.954 123.992C144.063 125.506 147.349 125.624 150.725 125.713C156.376 125.862 161.775 127.123 166.593 130.284C171.724 133.652 173.955 138.593 173.791 144.514C173.628 150.197 170.133 154.248 164.526 155.94C158.295 157.824 152.079 157.335 145.788 156.073C141.906 155.302 139.125 153.209 137.058 150.019C136.151 148.624 135.363 147.14 134.619 145.642C132.596 141.546 129.414 138.86 125.116 137.273C122.469 136.293 119.97 134.913 117.412 133.697C115.955 133.014 114.572 132.064 113.04 131.693C111.969 131.426 110.497 131.56 109.575 132.124C104.965 134.943 103.492 140.137 105.946 145.078C110.051 153.343 116.029 159.724 124.923 162.973C129.518 164.665 134.143 166.268 138.679 168.137C143.081 169.948 147.096 172.47 149.863 176.462C152.852 180.78 155.663 185.231 158.444 189.683C161.18 194.046 163.842 198.557 168.11 201.569C171.828 204.195 175.799 206.659 179.978 208.424C188.812 212.164 198.003 213.291 207.402 210.338C209.335 209.73 211.343 209.151 213.335 208.988C214.406 208.899 215.15 208.78 215.908 208.009C225.917 197.844 232.133 185.691 234.334 171.669C235.926 161.564 234.513 151.755 229.129 142.837C223.775 133.964 216.429 127.628 205.766 126.188C200.07 125.417 194.285 125.298 188.574 124.571C184.737 124.081 180.692 123.651 177.227 122.122C171.531 119.6 166.177 116.291 160.793 113.13C155.127 109.806 149.625 106.215 143.319 104.108C133.385 100.799 125.607 104.82 121.086 114.48H121.071ZM66.5806 91.8069C65.1827 91.0946 63.5468 90.234 61.8662 89.4475C58.0591 87.652 54.118 86.0791 50.4596 84.0462C46.2806 81.7314 43.3657 78.4224 44.1093 73.1249C44.5406 70.0533 43.3657 68.2133 40.3616 66.8185C34.1304 63.9101 28.137 60.512 22.0842 57.2475C20.5524 56.4166 19.7939 56.5501 19.0355 58.2714C15.496 66.4327 11.8078 74.5346 8.13446 82.7404C10.4396 83.7495 12.7001 84.6991 14.9309 85.723C18.0242 87.1475 21.0283 88.7946 24.196 90.0262C28.1816 91.5695 32.2862 92.2817 35.9447 89.1508C37.0304 88.2159 37.8632 88.2011 39.0678 88.8243C44.6001 91.7624 50.1473 94.6559 55.7093 97.5198C57.9252 98.6624 60.2006 99.7011 62.3124 100.725C63.7996 97.6088 65.138 94.8043 66.5657 91.8069H66.5806ZM102.57 147.318C102.57 149.01 102.481 150.286 102.585 151.533C103.076 157.557 105.872 162.543 110.616 166.045C115.881 169.918 121.621 173.153 127.124 176.699C131.169 179.311 135.705 181.462 139.095 184.771C144.286 189.861 148.539 195.9 153.447 201.302C157.968 206.302 162.623 211.214 167.59 215.755C172.126 219.895 177.539 222.699 183.8 223.456C191.578 224.391 198.3 221.631 204.591 217.446C206.257 216.348 207.803 215.087 209.409 213.9C208.77 213.588 208.339 213.603 207.937 213.692C201.289 215.324 194.567 215.636 187.815 214.538C180.097 213.291 173.003 210.546 166.846 205.605C161.329 201.183 157.388 195.515 153.833 189.535C152.346 187.027 150.963 184.475 149.417 181.997C146.338 177.085 142.308 173.257 136.686 171.372C133.519 170.304 130.306 169.369 127.109 168.389C120.045 166.208 114.111 162.291 109.441 156.608C107.136 153.803 105.113 150.776 102.57 147.304V147.318ZM105.158 123.502C105.218 122.582 105.054 121.766 105.366 121.247C106.437 119.451 107.582 117.686 108.906 116.053C109.724 115.044 109.59 114.48 108.608 113.857C105.396 111.78 102.318 109.42 98.9416 107.655C93.0673 104.598 86.9996 101.897 81.0211 99.0482C77.1842 97.223 73.3473 95.383 69.7632 93.6766C68.4991 96.6443 67.2498 99.5972 65.9114 102.728C73.6893 106.868 81.3186 110.919 88.7545 114.866C89.7062 112.626 90.6134 110.563 91.476 108.471C91.937 107.373 92.6806 107.106 93.6919 107.714C94.6883 108.308 95.7144 109.02 95.0155 110.355C93.9744 112.344 92.7698 114.243 91.5206 116.35C95.9227 118.665 100.548 121.098 105.158 123.502ZM139.229 127.746C136.939 126.633 134.946 125.609 132.939 124.675C126.975 121.915 120.996 119.199 115.048 116.439C114.126 116.009 113.59 116.113 112.921 117.048C111.107 119.57 109.099 121.959 107.032 124.571C116.044 129.067 125.205 133.637 134.56 138.311C135.898 134.513 135.928 130.551 139.229 127.761V127.746ZM16.8791 98.2914C20.0765 97.8462 22.3965 96.5107 24.2406 93.8398C21.8165 92.8604 19.556 91.9553 16.8791 90.8869V98.3062V98.2914ZM12.9975 93.9882C11.2278 95.0714 9.56215 95.8282 8.25343 96.9707C7.49497 97.6236 6.95959 98.9295 6.97446 99.9088C6.98933 100.577 8.1642 101.719 8.83343 101.734C9.82984 101.749 11.1832 101.215 11.778 100.443C13.1165 98.692 13.4586 96.5553 12.9975 93.9882ZM42.0719 59.0578C42.2801 59.2211 42.5032 59.3695 42.7114 59.5327C44.5406 57.663 46.4145 55.823 48.1842 53.9088C48.3924 53.6714 48.318 52.9443 48.1098 52.603C47.158 51.0449 45.2247 50.8817 44.035 52.2617C42.3396 54.2204 41.6852 56.5204 42.057 59.0578H42.0719ZM35.1416 54.1166C35.8257 52.8553 36.8073 51.5049 37.2683 50.0062C37.4765 49.3385 36.8816 47.9882 36.257 47.632C35.5878 47.2611 34.1452 47.3649 33.6247 47.8695C33.1934 48.2849 33.4462 49.6204 33.6693 50.4811C33.9668 51.6237 34.5319 52.692 35.1268 54.1166H35.1416ZM23.5863 100.398C22.5006 100.695 21.4001 100.977 20.3145 101.318C19.1247 101.704 18.5298 103.129 19.0206 104.346C19.5857 105.74 20.6268 105.696 21.757 105.177C23.378 104.449 24.0324 102.624 23.5714 100.398H23.5863ZM37.2683 61.6695C37.4914 61.5359 37.7145 61.4024 37.9227 61.2688V56.8172C37.6847 56.7133 37.4319 56.6243 37.1939 56.5204C36.5693 57.4701 35.5283 58.3901 35.4391 59.3843C35.3796 60.0817 36.5991 60.8978 37.2534 61.6695H37.2683Z" fill="white"/>
<path d="M211.567 54.8139C207.923 56.1197 204.993 55.8675 204.25 53.701C203.09 50.3326 206.109 49.4868 208.161 48.1514C204.056 43.7739 203.134 38.6546 205.305 33.3126C208.548 25.3443 214.823 20.9817 223.315 20.0023C227.078 19.572 230.513 20.9223 233.517 23.252C234.201 23.7862 234.856 24.3352 235.228 24.632C236.67 24.3352 238.142 23.5339 238.886 23.9791C240.016 24.6468 240.79 26.101 241.414 27.3623C241.756 28.0597 241.801 29.2617 241.414 29.8849C240.358 31.6062 241.236 32.823 242.009 34.2475C243.883 37.7197 244.389 41.4888 244.225 45.4062C244.18 46.3707 244.418 47.5281 244.969 48.2849C251.423 57.0694 256.167 66.8036 261.268 76.3597C264.48 82.3546 268.02 88.1714 271.396 94.0772C272.407 95.843 273.359 97.6236 274.325 99.4043C274.415 99.5675 274.549 99.7604 274.519 99.9236C273.983 103.351 276.645 103.93 278.906 104.88C279.412 105.087 279.902 105.325 280.557 105.622C279.545 106.927 278.623 108.115 277.597 109.435C278.073 109.836 278.475 110.192 278.876 110.533C281.657 112.789 282.802 115.742 281.91 119.125C281.048 122.389 279.56 125.506 278.579 128.74C277.85 131.129 277.121 133.622 277.062 136.1C276.988 139.424 279.992 141.813 283.1 141.472C285.896 141.16 286.892 139.098 285.39 136.768C285.122 136.353 284.87 135.922 284.721 135.447C284.364 134.275 284.899 133.8 286.059 133.964C288.424 134.275 289.718 136.071 289.465 138.667C289.123 142.214 286.892 144.796 283.487 145.642C280.914 146.28 276.854 144.351 275.099 141.546C272.898 138.044 272.229 134.424 273.969 130.432C275.426 127.093 276.675 123.636 277.791 120.164C278.519 117.864 278.103 115.519 276.913 113.382C276.527 112.685 276.036 112.062 275.604 111.409C275.456 111.409 275.307 111.364 275.218 111.409C273.032 112.789 273.047 112.774 271.5 110.533C270.221 108.693 268.763 107.12 266.637 106.111C260.777 103.351 257.163 98.2617 253.728 93.0681C247.229 83.2301 239.853 74.0894 231.718 65.572C231.42 65.2604 231.123 64.9339 230.885 64.5778C229.338 62.2778 227.331 61.4172 224.445 61.5359C220.757 61.6991 217.262 60.3933 214.243 58.2268C213.188 57.4701 212.563 56.1197 211.567 54.8436V54.8139ZM234.142 27.1249C232.848 26.5314 231.748 26.1307 230.736 25.5668C224.951 22.332 215.151 24.0088 210.972 30.701C209.187 33.5501 207.67 36.6959 208.652 40.4204C209.247 42.6907 209.306 45.0946 209.633 47.6468C219.27 42.7055 226.81 35.2268 234.142 27.1249ZM238.336 35.0339C234.514 38.6249 231.004 42.4088 226.989 45.5843C222.973 48.7597 218.452 51.3417 214.303 54.0868C223.94 59.2804 231.242 58.6423 237.101 51.8907C241.117 47.2462 241.697 39.4114 238.336 35.0488V35.0339Z" fill="white"/>
<path d="M117.473 18.4744C119.897 14.8093 122.737 10.9215 125.132 6.78155C126.634 4.18477 128.864 2.55251 131.244 1.09832C132.121 0.564127 133.653 0.935095 134.843 1.09832C140.955 2.00348 147.053 3.02735 153.18 3.91768C155.678 4.2738 158.221 4.39251 161.077 4.65961C159.932 6.44026 159.009 8.08735 157.894 9.6009C153.224 15.9222 148.629 22.3177 143.706 28.4312C142.234 30.2712 139.855 31.5028 137.683 32.6157C135.958 33.5061 133.95 33.5061 132.285 32.0222C130.247 30.2267 130.158 27.8822 130.649 25.5228C131.318 22.3325 134.545 20.1957 137.832 20.7893C139.408 21.0712 140.91 21.7241 142.457 22.1248C142.963 22.2583 143.825 22.3177 144.034 22.0357C145.164 20.5222 146.145 18.8899 147.32 17.0944C145.432 16.3822 143.781 15.7144 142.115 15.1357C140.152 14.4532 138.189 13.8299 136.211 13.2067C133.787 12.4499 131.318 11.797 128.924 10.9809C127.764 10.5951 127.169 10.8028 126.574 11.9157C123.986 16.7235 121.086 21.3828 116.937 25.0035C115.034 26.6654 112.669 28.0009 110.304 28.8615C107.717 29.8112 105.263 28.8615 103.627 26.5022C102.065 24.2467 101.753 21.7686 103.017 19.2906C104.326 16.7383 106.765 16.0112 109.353 16.397C111.955 16.7828 114.468 17.6583 117.487 18.4448L117.473 18.4744ZM154.28 8.65122C154.132 8.47316 153.983 8.29509 153.819 8.11703C152.585 7.98348 151.35 7.9538 150.131 7.71638C144.807 6.69251 139.423 5.81703 134.174 4.49638C131.214 3.75445 130.277 4.03638 129.92 7.22671C133.46 8.44348 137.014 9.67509 140.568 10.8919C143.349 11.8564 146.13 12.8209 148.926 13.7409C149.283 13.8596 149.923 13.8744 150.101 13.6667C151.529 12.0344 152.897 10.328 154.265 8.65122H154.28ZM115.063 21.7538C113.16 19.6022 110.037 18.979 107.999 20.077C106.527 20.8783 105.947 22.7183 106.69 24.2319C107.375 25.6119 108.847 26.0422 110.498 25.048C112.059 24.1132 113.472 22.9112 115.048 21.739L115.063 21.7538ZM141.193 25.7009C141.119 25.3744 141.044 25.0332 140.97 24.7067C139.438 24.5435 137.892 24.2022 136.36 24.2467C135.066 24.2912 133.37 26.5319 133.594 27.5261C133.846 28.6686 135.854 29.3215 137.445 28.4906C138.814 27.7635 139.959 26.6506 141.193 25.7009Z" fill="white"/>
<path d="M268.258 169.31C269.343 172.99 270.354 176.418 271.381 179.831C273.195 185.9 271.277 191.152 267.35 195.634C263.766 199.714 257.58 199.032 254.055 194.565C250.337 189.876 251.616 185.039 257.327 183.199C259.87 182.368 262.651 182.279 265.343 181.893C266.057 181.789 266.8 181.878 267.871 181.878C267.529 180.528 267.35 179.445 266.979 178.436C265.358 174.147 263.603 169.918 262.056 165.615C261.372 163.716 261.03 161.683 260.658 159.68C260.494 158.819 260.807 158.151 261.997 158.225C264.317 158.374 266.666 158.136 268.942 158.478C272.526 159.012 276.11 159.709 279.59 160.718C281.776 161.341 282.743 163.463 283.174 165.585C283.665 167.974 281.612 170.631 279.144 170.541C276.184 170.423 273.254 169.889 270.31 169.547C269.67 169.473 269.016 169.399 268.243 169.31H268.258ZM268.317 184.371C266.919 184.609 266.086 184.801 265.224 184.876C264.302 184.95 263.35 184.801 262.443 184.935C261.417 185.083 260.301 185.261 259.439 185.781C257.951 186.686 256.152 187.428 256.107 189.639C256.078 191.449 257.282 193.126 259.305 194.016C261.283 194.877 263.171 194.684 264.406 193.141C265.64 191.598 266.756 189.936 267.633 188.185C268.139 187.161 268.079 185.855 268.317 184.371ZM265.209 162.395C265.283 164.369 266.116 165.541 268.332 165.808C271.916 166.238 275.545 166.342 279.188 166.58C278.921 163.686 270.786 161.341 265.224 162.395H265.209Z" fill="white"/>
<path d="M30.2342 177.634C28.3455 170.408 24.6573 164.442 20.4188 158.774C20.2404 158.522 19.9281 158.314 19.8686 158.032C19.7347 157.394 19.4522 156.548 19.7347 156.148C19.9876 155.777 20.9988 155.643 21.5342 155.836C22.3819 156.118 23.3635 156.593 23.8394 157.275C26.4568 161.089 29.1337 164.902 31.4091 168.924C33.6547 172.9 34.7999 177.293 34.5024 181.937C34.2942 185.098 33.2532 187.991 31.1117 190.395C29.1783 192.562 24.1517 193.511 21.5788 192.235C17.9204 190.425 17.1173 184.95 19.9578 181.626C22.1142 179.118 24.8358 177.916 28.0927 177.768C28.7619 177.738 29.4311 177.693 30.2342 177.649V177.634ZM30.6506 180.854C27.8696 181.047 25.4604 181.448 23.4527 183.095C21.8317 184.43 21.5937 186.241 22.7686 187.665C24.0327 189.193 26.2783 189.579 27.7655 188.318C29.9814 186.448 30.8886 183.985 30.6655 180.854H30.6506Z" fill="white"/>
<path d="M106.705 73.5557C109.516 77.2357 112.357 80.886 115.138 84.5957C115.718 85.3821 116.164 86.2873 116.521 87.2073C117.309 89.255 116.55 90.3531 114.454 89.9673C113.264 89.7447 111.91 89.2105 111.107 88.3647C107.984 85.0557 105.144 81.4944 105.248 76.5976C105.263 75.5737 105.768 74.5647 106.036 73.5557C106.259 73.5557 106.482 73.5557 106.72 73.5705L106.705 73.5557Z" fill="white"/>
<path d="M166.103 76.9088C165.166 80.6779 163.337 84.5359 160.154 87.652C159.842 87.9637 158.875 88.1862 158.726 88.0082C158.072 87.2662 157.12 86.3017 157.195 85.5153C157.328 83.972 157.775 82.2656 158.667 81.034C160.228 78.8675 162.072 76.8495 164.095 75.1133C165.359 74.0301 166.251 74.7275 166.103 76.9385V76.9088Z" fill="white"/>
<path d="M135.422 73.689C131.392 71.3148 129.132 64.7264 130.485 60.9426C130.738 60.2451 131.526 59.251 132.047 59.2658C132.954 59.2955 134.01 59.8148 134.679 60.4677C135.229 61.0019 135.541 62.0258 135.556 62.8419C135.601 66.4477 135.482 70.0684 135.437 73.6742L135.422 73.689Z" fill="white"/>
<path d="M202.524 149.366C202.018 158.21 199.282 166.49 193.586 173.657C190.805 177.159 184.946 178.569 180.886 176.818C177.435 175.319 176.231 172.352 178.134 169.102C179.443 166.876 181.153 164.888 182.819 162.899C184.827 160.495 186.522 158.003 187.266 154.872C188.188 150.969 189.645 147.23 189.705 143.119C189.734 140.612 190.909 140.285 193.11 141.383C194.984 142.318 197.021 142.912 198.97 143.713C201.691 144.826 202.583 146.221 202.524 149.366ZM193.437 145.642C193.304 146.339 193.155 147.111 193.006 147.883C191.489 156.355 188.262 163.997 182.194 170.274C180.514 172.025 180.796 173.049 183.191 173.672C183.89 173.85 184.663 173.895 185.407 173.835C188.887 173.568 190.894 171.224 192.664 168.597C195.995 163.641 196.992 157.854 198.405 152.23C199.728 147.007 199.327 146.577 193.988 145.538C193.884 145.523 193.75 145.583 193.437 145.642Z" fill="white"/>
<path d="M30.4718 80.975C27.8098 80.1292 25.4749 79.4169 23.1698 78.6453C22.4708 78.4079 21.5339 78.1556 21.2513 77.6215C20.5226 76.2711 21.7867 74.5053 23.2739 74.8763C26.1441 75.5885 28.94 76.5531 31.7211 77.5769C32.1226 77.7253 32.5539 78.9569 32.3457 79.3427C31.9739 80.0253 31.1113 80.4556 30.4867 80.975H30.4718Z" fill="white"/>
</svg>
