<svg width="260" height="230" viewBox="0 0 260 230" fill="none" xmlns="http://www.w3.org/2000/svg">
<path d="M129.451 127.568C129.926 126.292 130.431 125.031 130.862 123.74C135.304 110.459 139.984 97.2529 142.198 83.3194C142.852 79.2091 141.529 76.2562 138.588 73.7633C131.412 67.7091 126.449 59.9929 122.364 51.7129C117.803 42.4387 115.663 32.5858 118.367 22.362C120.254 15.2542 123.82 8.82907 128.47 3.10133C131.189 -0.252221 132.021 -0.0593171 135.616 2.21101C141.47 5.90584 144.932 11.0697 147.027 17.6433C149.849 26.502 152.851 35.242 152.331 44.7387C151.157 65.8394 148.899 86.7768 142.361 106.987C139.925 114.54 136.701 121.826 133.923 129.275C132.63 132.732 131.545 136.249 130.416 139.751C130.164 140.523 130.193 141.383 130.089 142.214L130.758 142.481C131.233 141.695 131.709 140.923 132.155 140.137C139.123 128.073 145.793 115.801 153.163 103.975C161.304 90.9168 171.838 80.0697 185.655 72.7691C194.703 67.9762 203.736 63.1388 212.784 58.331C219.767 54.6213 222.694 55.8826 223.6 63.6136C224.432 70.751 225.502 78.0517 224.878 85.1446C223.496 100.918 214.255 111.661 200.334 118.368C187.23 124.675 173.606 125.135 159.833 120.52C158.14 119.956 156.58 118.962 154.945 118.205C152.925 117.285 151.335 117.626 150.206 119.734C144.352 130.744 138.454 141.71 132.6 152.72C131.159 155.436 130.268 158.24 130.758 161.46C130.966 162.81 130.327 164.339 129.911 165.748C127.564 173.687 125.157 181.611 122.809 189.55C122.483 190.648 122.23 191.776 122.126 192.918C121.888 195.53 122.705 196.405 125.32 196.301C134.591 195.93 143.862 195.604 153.118 195.055C157.531 194.788 161.913 193.927 166.326 193.586C170.278 193.274 171.823 194.461 172.417 198.364C173.844 207.549 173.116 216.69 171.08 225.726C170.872 226.661 170.352 227.552 169.803 228.353C169.535 228.739 168.629 229.184 168.421 229.036C166.891 227.937 164.677 226.973 164.172 225.459C163.369 223.07 162.032 222.907 160.116 223.011C153.4 223.382 146.67 223.931 139.955 224.094C123.285 224.539 106.63 224.792 89.9602 225.148C85.0574 225.252 80.1545 225.4 75.2517 225.623C71.9831 225.771 70.7648 225.192 70.1111 222.061C69.0414 216.942 67.9122 211.793 67.5111 206.599C67.0951 201.109 68.4471 199.596 73.8402 199.061C82.6505 198.186 91.4905 197.637 100.331 197.103C103.941 196.88 107.566 197.103 111.176 197.058C115.589 197.014 116.406 196.168 115.841 191.761C115.069 185.751 117.253 180.246 118.575 174.622C121.368 162.677 123.582 150.643 122.631 138.326C122.081 131.07 121.012 123.829 119.675 116.677C118.887 112.492 117.743 112.166 113.583 112.448C97.6265 113.546 83.3191 108.723 70.0368 100.28C62.0288 95.1904 54.7488 89.1807 48.3008 82.2213C43.0711 76.5678 39.6539 70.0536 39.8025 62.1C39.9362 55.0665 40.0105 48.0181 40.3522 40.9994C40.4265 39.471 41.2585 37.8387 42.1499 36.5181C43.2494 34.8858 44.1854 35.3162 45.3739 36.9039C46.3842 38.2691 47.8699 39.4265 49.3854 40.2278C50.7968 40.9697 52.5054 41.2368 54.1248 41.5039C66.5751 43.5517 76.5442 50.6297 86.3499 57.7523C93.2437 62.7678 99.7659 68.3323 106.006 74.1491C115.069 82.5775 119.764 93.6323 123.121 105.251C125.038 111.854 126.42 118.621 128.054 125.298C128.247 126.055 128.47 126.812 128.693 127.568C128.945 127.568 129.198 127.568 129.451 127.583V127.568ZM109.497 109.065C110.745 108.886 112.721 108.768 114.593 108.263C116.317 107.803 117.134 106.616 116.391 104.687C114.965 100.948 113.91 97.0304 112.201 93.4246C108.651 85.9013 104.238 78.8678 97.8939 73.3181C94.2539 70.1278 90.4802 67.0562 86.5431 64.2517C79.2631 59.0878 71.9534 53.9239 64.3762 49.22C59.9785 46.4897 54.9122 45.1691 49.5637 45.3175C47.6322 45.3768 46.7854 46.0149 46.7111 48.0478C46.5774 52.722 46.3099 57.3962 45.9534 62.0555C45.5225 67.6497 47.0231 72.5168 50.5294 76.9239C58.5374 86.9697 68.4025 94.6562 79.6642 100.77C88.7865 105.711 98.4734 108.323 109.483 109.065H109.497ZM175.151 117.285C183.144 117.359 190.187 115.935 196.976 113.234C203.944 110.459 210.526 107.121 214.003 99.9387C215.741 96.3329 217.435 92.6678 218.757 88.8988C221.743 80.3368 218.831 71.8491 217.984 63.3613C217.836 61.9071 216.617 61.7291 215.548 62.2781C212.948 63.6433 210.348 65.0381 207.896 66.6258C201.701 70.6323 195.609 74.7871 189.414 78.7787C188.136 79.6097 186.532 79.9362 185.12 80.5891C183.055 81.5387 180.782 82.2658 179.014 83.631C169.565 90.9613 162.196 100.176 155.896 110.252C154.648 112.255 155.02 113.19 157.278 113.917C163.31 115.876 169.401 117.523 175.151 117.256V117.285ZM71.4334 201.97C72.2951 207.223 73.0676 211.645 73.7511 216.066C74.1522 218.678 75.6231 219.554 78.1934 219.494C87.8802 219.242 97.5671 219.168 107.254 218.96C125.142 218.574 143.03 218.144 160.918 217.728C164.32 217.654 165.286 216.853 165.598 213.396C165.955 209.404 166.103 205.383 166.311 201.376C166.4 199.714 165.331 199.239 163.919 199.343C161.468 199.521 159.016 199.863 156.55 199.937C135.631 200.634 114.727 201.346 93.8082 201.925C86.6025 202.118 79.3968 201.955 71.4334 201.955V201.97ZM123.745 30.642C124.34 34.1884 124.681 37.7942 125.573 41.2516C128.113 51.0897 134.056 59.0729 140.029 67.0413C140.371 67.4865 140.846 67.8575 141.321 68.1542C143.164 69.3265 144.219 68.911 144.724 66.8336C144.857 66.2846 144.902 65.7058 144.947 65.1271C145.6 57.6929 146.343 50.2736 146.833 42.8394C146.997 40.4207 146.863 37.8684 146.239 35.5387C144.649 29.6923 142.985 23.8458 140.757 18.222C139.568 15.2097 137.414 12.4349 135.23 9.97165C133.239 7.74584 132.08 8.08713 130.297 10.5058C125.915 16.4858 123.983 23.2226 123.745 30.642Z" fill="white"/>
<path d="M101.652 168.152C100.478 166.906 99.3344 165.63 98.1458 164.413C95.5756 161.786 92.515 161.015 88.9196 161.742C81.9367 163.152 74.939 164.591 67.8967 165.704C63.5584 166.401 59.1904 165.867 55.1196 164.072C48.8498 161.312 47.587 156.237 52.0441 151.117C58.923 143.253 67.7036 142.704 77.0784 145.093C82.0407 146.354 86.1413 149.262 90.0338 152.453C92.3218 154.322 94.5207 156.296 96.779 158.195C99.8396 160.762 100.701 164.457 101.652 168.137V168.152ZM88.8007 158.062C88.6224 157.528 88.6224 157.216 88.4738 157.097C81.9218 151.666 74.7607 147.719 65.891 148.357C60.9287 148.713 56.6201 150.613 53.8864 155.035C52.1333 157.854 52.8018 160.362 55.8476 161.415C58.5961 162.365 61.5378 163.003 64.435 163.241C70.7938 163.76 76.7367 161.564 82.7241 159.887C84.7447 159.323 86.7356 158.7 88.8007 158.092V158.062Z" fill="white"/>
<path d="M168.094 160.436C169.743 156.652 172.462 153.981 175.819 152.052C185.64 146.398 196.04 144.603 207.079 147.912C211.803 149.336 214.27 156.503 211.447 160.569C210.154 162.424 208.282 162.706 206.202 162.454C197.481 161.43 188.745 160.51 180.054 159.352C175.983 158.818 171.986 158.106 168.109 160.421L168.094 160.436ZM196.411 149.796C192.341 150.598 187.973 151.34 183.679 152.378C182.416 152.69 181.361 153.847 180.202 154.604C181.495 155.094 182.743 155.865 184.08 156.014C191.003 156.8 197.942 157.468 204.895 158.076C205.92 158.165 207.45 157.972 207.926 157.32C208.446 156.622 208.416 154.945 207.896 154.174C207.094 152.987 205.816 151.755 204.494 151.34C202.027 150.553 199.368 150.331 196.397 149.811L196.411 149.796Z" fill="white"/>
</svg>
