<svg width="290" height="230" viewBox="0 0 290 230" fill="none" xmlns="http://www.w3.org/2000/svg">
<path d="M181.614 7.31543C185.481 7.96833 186.002 11.6928 187.414 14.7051C186.195 24.3354 179.696 11.3664 181.614 7.31543Z" fill="white"/>
<path d="M230.468 17.2134C238.305 12.9398 239.064 17.4656 244.477 18.8159C246.351 17.3914 248.314 16.1598 250.723 15.8334C254.873 15.2843 259.394 18.1482 260.866 22.0656C264.45 20.3592 268.183 19.6024 272.005 21.0418C277.002 22.8224 279.828 28.4166 278.474 33.5359C284.527 33.8772 288.572 40.4953 285.598 45.9559C291.368 48.7605 290.61 57.3372 284.869 59.7114C289.256 63.614 286.758 70.8405 280.928 71.3301C281.463 73.2888 281.181 75.1437 280.289 76.9243C277.731 84.4327 268.079 79.5508 266.592 83.483C263.245 101.853 244.7 119.897 226.066 107.848C217.381 103.04 214.942 92.4011 213.678 83.3792C206.093 87.7121 196.947 80.4263 200.011 72.0721C191.251 71.9682 187.667 58.9101 197.497 56.4469C194.969 51.654 196.605 47.7514 200.234 44.3237C196.352 41.6676 196.04 35.1237 202.286 32.6753C199.802 25.1818 208.086 19.365 214.525 23.6979C215.983 16.783 224.965 9.71982 230.453 17.2134H230.468ZM249.162 44.6056C246.292 48.1521 240.774 48.2114 237.77 44.8579C234.707 48.0185 231.435 47.7663 227.776 44.1308C224.594 47.7218 221.53 43.6559 218.273 45.7185C217.574 50.0069 220.073 59.4592 216.265 61.4179C207.952 60.8392 210.064 71.6269 217.872 69.965C207.997 115.935 259.78 123.384 264.673 77.1469C264.42 73.1998 267.335 71.1966 270.443 69.4605C272.793 67.3682 271.395 62.5753 267.618 63.614C263.528 63.1985 265.164 53.1824 264.51 49.2947C261.788 49.1611 259.587 48.1372 257.817 46.223C255.051 48.2411 252.91 47.8553 249.147 44.6353L249.162 44.6056Z" fill="white"/>
<path d="M43.7977 62.5452C38.8007 6.82586 119.064 -17.8806 144.911 33.951C159.009 63.1833 148.971 71.4484 119.614 76.0039C107.613 89.1362 84.7695 91.1097 73.3628 76.3601C61.9859 76.3304 39.931 80.3813 43.7828 62.5452H43.7977ZM73.1992 44.1897C71.8607 55.6897 70.8197 69.5639 79.9212 78.2891C90.8669 87.4594 109.412 84.462 117.547 73.051C123.912 64.2517 124.269 52.5588 126.351 43.1955C130.753 43.1065 134.084 40.5097 131.422 36.0433C106.14 33.1349 107.821 14.2452 86.1823 19.7059C79.1479 21.902 75.7423 28.1788 73.0356 34.5297C72.4259 35.9394 70.7751 35.5239 69.5259 35.613C62.3874 37.0523 67.4884 45.5994 73.2141 44.1749L73.1992 44.1897Z" fill="white"/>
<path d="M70.507 140.686C71.8008 143.594 69.9865 144.87 68.3506 146.191C76.649 153.373 80.4265 164.161 79.3706 174.904C83.3562 174.993 86.8362 176.892 87.9367 180.839C90.3311 189.921 81.9285 188.823 78.5526 193.244C74.909 202.355 67.0121 209.344 57.747 212.49C39.529 220.429 17.5337 209.701 11.808 190.915C9.41366 181.492 8.29827 187.992 2.79571 183.347C-1.63609 178.777 3.07827 170.63 9.39879 172.381C10.4101 168.672 11.4808 164.962 13.8157 161.846C19.6752 150.969 31.5131 141.977 43.9013 140.344C48.7347 138.504 55.9624 143.283 56.6316 136.412C58.4014 134.335 61.4947 134.557 63.8742 135.492C64.9152 124.259 78.0619 121.633 87.3716 123.74C96.9788 126.455 105.233 132.658 111.583 140.241C116.372 144.855 124.596 161.608 111.315 158.225C110.899 162.321 105.337 164.606 102.481 161.786C100.503 171.877 88.606 167.321 87.3865 159.219C84.888 150.524 81.9285 139.439 70.5219 140.686H70.507ZM12.4921 180.201C13.5778 209.463 51.2629 223.115 70.3434 200.634C74.7901 196.45 75.0726 188.363 82.1814 187.68C89.647 184.015 82.8357 175.186 76.2772 179.014C75.846 174.652 77.0803 169.458 75.3106 165.63C67.9937 162.068 60.3049 159.041 52.1255 158.195C35.6921 156.355 10.9603 154.753 11.5849 177.144C1.17468 168.612 2.26032 189.164 12.507 180.186L12.4921 180.201ZM59.1747 138.074C56.1111 142.541 63.1603 142.793 66.1049 144.44C70.9085 141.012 62.268 137.451 59.1747 138.074Z" fill="white"/>
<path d="M175.829 88.1867C175.264 92.6234 156.614 98.7963 162.875 91.0802C166.459 90.6351 174.074 83.4234 175.829 88.1867Z" fill="white"/>
<path d="M123.778 187.784C122.455 191.375 116.372 186.152 113.844 185.41C110.855 184.149 113.844 180.038 116.149 181.671C118.499 183.778 123.778 184.104 123.778 187.784Z" fill="white"/>
<path d="M132.254 111.973C128.09 113.338 121.502 108.278 118.438 105.562C117.65 100.532 132.507 109.613 132.254 111.973Z" fill="white"/>
<path d="M274.845 111.632C272.57 114.585 268.376 119.467 264.494 119.051C263.052 114.704 270.726 109.184 274.845 111.632Z" fill="white"/>
<path d="M16.1953 106.735C16.8794 102.937 18.8871 96.5262 23.1404 96.0811C26.3676 99.7611 19.6604 105.4 16.1953 106.735Z" fill="white"/>
<path d="M168.066 29.6925C166.831 27.9563 163.827 22.0357 167.753 21.6647C170.445 21.5608 172.735 33.8918 168.066 29.6925Z" fill="white"/>
<path d="M271.47 144.351C268.109 143.416 265.417 137.926 267.618 135.166C271.47 133.014 273.433 141.74 271.47 144.351Z" fill="white"/>
<path d="M156.823 117.73C156.035 122.538 147.603 113.264 148.882 111.557C152.198 109.257 155.857 115.059 156.823 117.73Z" fill="white"/>
<path d="M43.4846 121.544C40.4508 121.707 33.5205 117.048 40.0641 117.894C41.2241 119.081 44.9718 119.496 43.4846 121.544Z" fill="white"/>
<path d="M232.223 78.9416C232.922 76.4932 233.68 61.8771 237.205 66.6997C237.904 74.2674 231.241 79.6094 242.707 78.0661C243.302 75.5732 241.324 71.0326 243.927 69.9642C246.5 70.8694 245.027 75.5287 245.786 77.7694C246.024 81.0487 242.618 81.4642 240.149 80.9003C237.517 80.9745 233.383 82.0577 232.223 78.9416Z" fill="white"/>
<path d="M247.213 65.6765C246.143 64.2075 246.128 59.7114 248.864 61.4326C251.065 68.0952 253.935 72.4875 257.713 63.5101C265.238 58.5094 254.159 83.023 247.228 65.6765H247.213Z" fill="white"/>
<path d="M221.159 66.5364C219.077 64.8299 220.683 60.0073 223.003 63.257C225.873 72.5312 228 67.1596 230.112 61.3131C237.309 57.6183 226.2 81.8944 221.159 66.5364Z" fill="white"/>
<path d="M232.475 92.6232C229.798 91.8665 228.519 87.5929 232.297 88.8987C234.394 90.1303 236.773 91.5994 239.257 91.6291C242.112 91.8516 245.369 87.6374 247.689 89.1065C247.541 94.9232 236.699 96.0658 232.49 92.6232H232.475Z" fill="white"/>
<path d="M100.37 45.2435C104.668 45.6442 107.434 52.188 102.913 54.1764C100.786 56.1945 93.8558 53.1971 98.9568 52.01C103.24 53.2712 102.719 46.8609 98.6891 48.6119C96.6963 47.9293 97.0681 40.688 96.6963 38.21C96.2799 36.6074 95.6404 31.6067 98.5999 33.0016C100.206 36.8596 99.9086 41.148 100.37 45.2583V45.2435Z" fill="white"/>
<path d="M91.5952 62.59C89.6768 62.0855 87.6393 57.0552 91.1491 57.9752C93.0081 59.8449 94.8522 62.0262 97.5291 62.7533C102.571 65.0978 104.504 57.7526 107.999 57.3965C110.155 59.9487 104.98 64.6823 102.288 65.2313C98.7634 66.9823 94.0193 65.6468 91.5804 62.59H91.5952Z" fill="white"/>
<path d="M105.738 43.0022C104.191 40.8654 105.113 35.7015 107.731 39.4557C109.634 46.7119 115.211 46.8751 116.089 39.0551C119.926 33.8912 118.944 46.519 115.404 46.8899C111.791 50.199 107.047 46.4893 105.738 43.0022Z" fill="white"/>
<path d="M79.1324 41.8747C75.8755 38.9515 79.2217 34.4257 81.4078 40.0495C87.8622 47.6618 87.6688 37.6457 90.5688 36.4141C95.9376 42.7205 82.4934 50.2883 79.1324 41.8747Z" fill="white"/>
<path d="M39.7376 180.854C43.5002 179.415 38.7412 162.514 44.095 167.277C44.4073 172.293 46.1919 180.202 41.2248 183.318C37.6555 184.935 42.4294 188.437 44.7196 187.027C50.5196 188.378 41.4776 191.39 39.5145 189.06C35.6032 187.71 36.1981 182.175 39.7525 180.854H39.7376Z" fill="white"/>
<path d="M18.932 178.984C17.2812 178.302 14.1582 174.859 17.653 174.726C20.2854 176.106 22.9325 177.916 25.9069 178.48C29.372 179.444 33.1048 174.829 35.9454 176.432C37.0905 178.91 31.9002 179.682 30.3833 181.017C26.3679 181.922 22.4269 181.24 18.932 178.984Z" fill="white"/>
<path d="M34.4426 198.809C30.799 196.91 32.3605 191.76 35.6174 196.004C39.722 199.58 44.8825 199.907 48.7195 195.708C56.6164 195.455 40.8672 207.579 34.4426 198.794V198.809Z" fill="white"/>
<path d="M55.2935 177.991C60.1417 182.086 67.0125 177.278 69.4663 179.742C69.7935 182.294 63.9043 182.635 61.852 182.709C59.8145 183.585 57.8069 181.834 55.6504 181.671C50.7279 180.602 48.0807 174.934 55.2786 177.991H55.2935Z" fill="white"/>
<path d="M252.806 180.899C252.226 178.495 251.66 176.076 251.095 173.658C250.262 170.111 249.4 166.431 248.493 162.84C247.273 157.988 244.596 155.391 240.313 154.872L239.882 154.812L239.822 154.382C238.216 143.491 235.376 131.62 222.11 128.459C207.179 124.912 196.516 127.613 188.53 136.962L188.351 137.169L187.578 137.125C187.147 137.095 186.626 137.065 186.091 137.051C175.859 136.739 167.412 142.852 165.121 152.305C164.125 156.371 164.363 160.926 164.675 165.229L164.705 165.674C164.958 169.087 165.211 172.307 162.638 175.231C152.941 186.182 154.577 199.225 156.868 210.606C157.284 212.698 158.355 214.345 159.946 215.399C161.731 216.571 164.11 216.927 166.653 216.408C168.304 216.067 169.88 215.503 171.546 214.924C172.304 214.657 173.063 214.39 173.821 214.153L174.178 214.034L174.431 214.316C178.253 218.738 182.492 221.616 187.399 223.085C188.857 223.531 190.374 223.887 191.846 224.243C192.5 224.406 193.17 224.554 193.824 224.732H198.167C198.256 224.688 198.33 224.658 198.419 224.614C198.717 224.465 199.059 224.287 199.445 224.243C204.532 223.605 208.859 221.631 212.31 218.396C214.377 216.452 216.132 216.601 218.452 217.521C218.928 217.714 219.418 217.907 219.894 218.1C222.854 219.287 225.917 220.503 229.011 221.112C237.532 222.759 245.384 218.055 246.887 210.398C247.229 208.692 247.303 206.718 247.154 204.344C246.857 199.878 247.972 195.931 250.56 192.295C253.029 188.823 253.787 184.994 252.806 180.929V180.899ZM201.334 219.613C199.148 220.103 197.036 220.355 194.984 220.355C187.801 220.355 181.525 217.343 176.573 211.467C170.029 203.706 168.676 194.773 172.528 184.935L175.16 178.228L175.472 178.169C180.499 177.189 184.603 174.311 187.34 169.859L187.712 169.265L188.217 169.74C189.214 170.675 190.18 171.64 191.132 172.56C193.199 174.607 195.162 176.536 197.363 178.228C204.204 183.466 212.562 185.484 222.943 184.386C224.4 184.238 225.962 184.267 227.568 184.49C232.044 185.113 235.168 188.66 234.811 192.755C234.469 196.672 230.78 199.462 226.215 199.21C225.01 199.151 223.716 198.839 222.229 198.26C221.262 197.889 220.207 197.503 219.864 197.711C219.537 197.904 219.359 198.883 219.225 199.922C217.857 210.027 211.179 217.387 201.379 219.613H201.334ZM245.95 202.727C246.143 207.653 244.804 211.6 242.053 214.153C239.822 216.23 236.729 217.298 233.026 217.298C232.253 217.298 231.464 217.254 230.647 217.165C227.702 216.838 224.757 215.963 221.917 215.117C220.608 214.731 219.27 214.331 217.916 213.974L217.307 213.811L221.337 203.454H221.694C222.631 203.38 223.553 203.365 224.46 203.365C226.408 203.35 228.252 203.335 229.948 202.86C235.123 201.436 237.904 196.48 237.027 190.247C236.194 184.312 232 180.216 226.601 180.068C224.817 180.023 222.973 180.068 221.203 180.127C218.704 180.202 216.102 180.276 213.559 180.068C203.565 179.237 195.475 174.236 189.481 165.214C189.124 164.68 188.753 164.176 188.277 163.538C188.158 163.389 188.039 163.226 187.92 163.048C187.801 163.196 187.682 163.345 187.578 163.478C187.117 164.072 186.745 164.532 186.507 165.036C184.068 170.319 179.844 173.302 173.985 173.88C172.557 174.014 171.724 174.34 171.368 174.86C171.026 175.394 171.055 176.269 171.501 177.649C171.754 178.421 171.873 179.534 171.501 180.335C166.906 190.158 166.891 200.1 171.427 209.879L171.635 210.339L171.204 210.606C167.694 212.787 164.289 213.262 161.612 211.956C159.039 210.695 157.388 207.891 156.972 204.047C156.63 200.946 156.585 197.845 156.585 194.951C156.585 189.58 158.147 185.054 161.27 181.507C165.85 176.299 167.322 170.438 165.761 163.597C164.482 157.973 165.835 152.498 169.583 148.165C173.702 143.387 180.097 140.834 186.656 141.324C188.292 141.443 189.169 141.265 190.076 139.811C192.441 135.997 196.278 133.608 201.453 132.718C205.424 132.035 210.659 131.278 215.909 131.456C227.791 131.887 236.045 139.588 237.993 152.052C238.261 153.774 238.439 155.51 238.633 157.202C238.692 157.825 238.767 158.433 238.826 159.042C244.804 159.427 246.247 160.778 247.734 166.936C248.998 172.218 250.218 176.833 251.437 181.062C252.3 184.06 251.72 186.834 249.653 189.505C246.901 193.067 245.727 197.266 245.935 202.712L245.95 202.727Z" fill="white"/>
<path d="M189.689 181.211L189.57 181.523C189.362 182.057 189.169 182.546 188.976 183.036C188.604 184.045 188.232 185.054 187.875 186.048C187.072 188.259 186.239 190.559 185.317 192.77C184.469 194.788 183.889 196.94 185.272 198.958C186.641 200.961 188.723 201.288 191.652 201.169C192.917 201.124 193.333 200.516 193.259 198.78C193.229 198.112 193.08 197.667 192.783 197.415C192.485 197.148 191.995 197.044 191.31 197.103C190.463 197.163 189.63 197.103 188.886 197.044C188.589 197.014 188.306 196.999 188.053 196.984L187.325 196.955L187.548 196.257C187.935 195.026 188.306 193.809 188.678 192.637C189.57 189.788 190.418 187.102 191.206 184.386C191.638 182.873 191.191 181.908 189.689 181.226V181.211Z" fill="white"/>
<path d="M195.995 203.825C195.995 203.825 195.921 203.84 195.891 203.855C195.772 203.885 195.608 203.944 195.564 203.974C190.433 208.247 189.675 208.306 183.904 204.745C183.696 204.686 182.834 204.953 182.477 205.146C182.432 206.006 182.387 207.476 182.938 208.173C184.469 210.117 186.834 211.23 189.466 211.23C189.496 211.23 189.526 211.23 189.57 211.23C192.277 211.2 194.805 209.968 196.337 207.921C197.512 206.348 197.408 205.042 195.98 203.825H195.995Z" fill="white"/>
<path d="M180.826 187.814L180.29 188.214L179.978 187.636C179.829 187.354 179.666 187.057 179.517 186.76C179.175 186.077 178.833 185.439 178.446 184.846C178.179 184.445 177.837 184.089 177.465 183.718C177.435 183.688 177.39 183.644 177.361 183.614C177.316 183.659 177.271 183.703 177.227 183.748C176.81 184.148 176.409 184.519 176.141 184.965C176.052 185.113 176.052 185.454 176.052 185.81C176.052 186.033 176.052 186.256 176.037 186.493C176.067 186.671 176.097 186.879 176.126 187.087C176.186 187.591 176.26 188.155 176.424 188.659C177.227 191.182 179.205 192.458 181.599 192.028C183.681 191.642 185.778 189.09 185.629 187.146C185.585 186.552 185.035 185.87 184.529 185.247C184.261 185.365 183.83 185.603 183.503 185.825C182.863 186.256 182.239 186.745 181.629 187.22C181.376 187.428 181.108 187.621 180.856 187.828L180.826 187.814Z" fill="white"/>
<path d="M200.605 186.953C200.531 186.908 200.457 186.879 200.382 186.834C200.323 186.953 200.263 187.057 200.189 187.16C199.877 187.709 199.579 188.229 199.579 188.659C199.609 191.078 202.211 193.571 206.509 193.63C206.703 193.497 206.926 193.348 207.164 193.185C208.086 192.591 209.35 191.76 210.212 190.677C210.45 190.38 210.212 189.371 210.034 188.629C209.974 188.392 209.93 188.155 209.87 187.917C209.781 187.947 209.692 187.962 209.603 187.991C208.978 188.169 208.398 188.333 207.967 188.644C205.751 190.217 203.684 189.92 201.84 187.739C201.557 187.413 201.096 187.175 200.59 186.938L200.605 186.953Z" fill="white"/>
</svg>
