<svg width="260" height="230" viewBox="0 0 260 230" fill="none" xmlns="http://www.w3.org/2000/svg">
<path d="M68.0901 108.249C66.6935 109.584 65.4455 110.757 64.1975 111.929C63.9598 111.81 63.7221 111.706 63.4844 111.588C63.7072 109.822 63.7369 108.011 64.1975 106.32C66.1289 99.1675 68.7587 92.2527 72.1907 85.6643C72.5324 85.0114 72.8592 84.314 73.3644 83.8094C80.0798 76.954 87.2855 70.8553 97.1507 69.0746C98.1758 68.8965 99.2158 68.7185 100.241 68.6888C111.859 68.3475 123.388 68.9262 134.769 71.4636C143.327 73.3778 150.503 77.4585 156.713 83.7056C166.86 93.8998 174.898 105.311 178.969 119.244C181.316 127.257 181.97 135.433 180.098 143.565C177.78 153.7 171.124 160.6 162.151 165.437C152.048 170.868 141.128 172.916 129.762 173.124C111.547 173.465 96.2741 166.713 83.7049 153.833C73.8101 143.698 68.1347 131.531 67.5255 117.241C67.4215 114.882 67.8078 112.493 67.9564 110.118C68.0009 109.54 68.0307 108.976 68.0752 108.234L68.0901 108.249ZM117.743 83.3049C113.315 83.0477 109.438 83.572 106.11 84.8778C105.649 85.0559 105.174 85.2043 104.683 85.2488C98.4729 85.7236 93.8227 89.0178 89.8261 93.4843C85.6809 98.114 83.0809 103.649 80.4067 109.154C76.8855 116.395 76.7964 123.785 79.3964 131.264C82.7541 140.924 89.4249 147.972 97.7301 153.581C107.907 160.466 119.11 163.894 131.53 163.271C138.379 162.929 145.08 162.069 151.439 159.442C160.041 155.881 166.311 150.02 168.732 140.775C170.798 132.881 169.431 125.254 166.519 117.79C162.923 108.605 156.817 101.156 150.28 93.9591C146.58 89.8933 142.108 87.2075 136.864 85.7088C130.327 83.8391 123.596 83.4533 117.758 83.3198L117.743 83.3049Z" fill="white"/>
<path d="M213.943 108.931C211.596 106.408 211.418 103.648 212.131 100.725C213.022 97.0895 214.954 93.9585 217.271 91.0947C224.15 82.6069 232.574 76.1818 242.855 72.3237C245.619 71.285 248.486 70.6766 251.487 71.2553C254.637 71.8785 257.029 74.0598 257.46 77.1611C257.579 78.0218 257.059 79.1792 256.45 79.8914C252.661 84.3134 247.996 87.6669 242.944 90.4863C239.26 92.534 235.546 94.5521 231.816 96.5108C225.398 99.8644 219.203 103.53 213.958 108.931H213.943Z" fill="white"/>
<path d="M79.456 173.643C79.1588 177.634 77.7771 181.3 75.816 184.698C71.7748 191.672 67.6445 198.587 63.336 205.398C62.3405 206.971 60.6171 208.217 58.9977 209.256C57.0068 210.532 55.4617 209.894 54.3177 207.816C53.2777 205.947 52.0148 204.196 51.1234 202.267C50.5737 201.065 49.9794 199.432 50.3657 198.334C53.2034 190.262 56.0411 182.175 61.1668 175.171C63.5143 171.966 66.5154 169.577 69.9325 167.485C73.9291 165.036 79.872 168.687 79.4708 173.628L79.456 173.643Z" fill="white"/>
<path d="M125.989 207.193C125.914 212.817 124.949 218.292 122.512 223.382C121.636 225.222 120.373 226.958 118.946 228.412C117.312 230.089 115.292 229.97 114.133 227.952C112.736 225.504 111.652 222.788 110.909 220.058C108.65 211.778 109.423 203.587 112.216 195.545C113.108 192.992 114.846 191.657 117.55 191.538C120.402 191.419 122.928 192.844 123.909 195.322C125.409 199.121 126.048 203.097 125.989 207.178V207.193Z" fill="white"/>
<path d="M231.296 182.323C228.027 182.101 224.402 180.498 220.97 178.436C217.984 176.64 215.042 174.771 212.189 172.752C208.624 170.23 206.87 166.446 205.726 162.395C205.281 160.792 205.637 159.145 207.108 158.121C209.054 156.756 211.238 156.118 213.497 157.231C216.557 158.745 219.633 160.288 222.515 162.098C228.072 165.585 232.841 169.933 236.08 175.75C238.264 179.652 236.6 182.353 231.266 182.323H231.296Z" fill="white"/>
<path d="M107.091 42.7353C107.001 44.2043 106.957 46.1037 106.764 47.9734C106.511 50.3921 105.352 51.4011 103.064 50.6592C101.475 50.1547 99.87 49.0418 98.7854 47.7656C95.6505 44.0411 94.0905 39.4856 92.9911 34.8411C92.1145 31.176 91.5054 27.4069 91.134 23.6527C90.7328 19.6314 92.1443 18.0882 96.1111 17.3908C96.5271 17.3166 96.958 17.3018 97.3888 17.2424C101.593 16.634 101.668 16.6043 103.153 20.6998C105.679 27.6592 106.363 34.9747 107.076 42.7056L107.091 42.7353Z" fill="white"/>
<path d="M180.158 22.0062C180.693 17.2726 180.99 12.5094 181.837 7.83521C182.907 2.03327 187.631 -0.370601 192.594 1.95908C194.896 3.0423 196.055 4.92682 196.055 7.33069C196.055 9.63069 195.862 11.9752 195.372 14.2159C194.183 19.6468 191.762 24.5881 188.359 28.9804C187.26 30.4049 185.819 31.6217 184.348 32.6604C182.981 33.6249 181.733 33.1797 181.094 31.6068C180.648 30.4939 180.396 29.2623 180.336 28.0604C180.218 26.0571 180.307 24.0242 180.307 22.021C180.262 22.021 180.203 22.0062 180.158 21.9913V22.0062Z" fill="white"/>
<path d="M23.489 118.695C17.2193 119.14 11.3507 117.612 5.67529 115.104C4.84329 114.733 4.05586 114.229 3.34272 113.665C0.817006 111.647 1.26272 108.902 4.32329 107.774C5.45243 107.358 6.70044 107.136 7.90386 107.062C17.0261 106.513 25.8513 107.863 34.2901 111.394C35.6124 111.943 36.7564 112.938 37.9004 113.828C38.8067 114.525 38.6581 115.49 37.6924 115.861C35.553 116.692 33.3839 117.538 31.1404 117.968C28.6296 118.443 26.0296 118.473 23.4593 118.695H23.489Z" fill="white"/>
<path d="M176.235 208.632C176.087 210.398 176.146 212.95 173.873 213.959C171.882 214.85 170.01 213.336 168.406 212.134C165.88 210.235 163.815 207.964 162.938 204.789C162.403 202.845 162.938 201.332 164.454 200.07C166.177 198.631 167.826 197.088 169.624 195.767C170.01 195.485 171.11 195.708 171.555 196.079C174.378 198.453 176.25 203.498 176.235 208.632Z" fill="white"/>
</svg>
