<svg width="260" height="230" viewBox="0 0 260 230" fill="none" xmlns="http://www.w3.org/2000/svg">
<path d="M88.7267 109.717C96.8388 105.117 105.441 106.809 113.954 107.803C115.648 107.996 117.312 108.426 118.976 108.797C121.398 109.346 123.537 109.332 126.018 108.233C131.545 105.77 138.751 105.592 143.936 112.522C157.174 104.034 171.05 104.984 185.625 110.489C185.046 107.551 184.644 105.028 184.065 102.55C182.327 95.0864 180.588 87.6373 176.874 80.8264C176.666 80.4406 176.473 80.0251 176.22 79.6541C173.65 75.8257 171.169 75.9741 168.866 79.9954C168.48 80.678 167.678 81.1232 167.083 81.6722C166.489 80.9006 165.449 80.1438 165.404 79.3425C165.345 78.1257 165.627 76.5973 166.37 75.6922C170.53 70.469 175.463 70.647 179.4 76.0928C183.961 82.3844 185.967 89.7148 187.631 97.1193C188.656 101.66 189.012 106.349 189.934 110.934C190.364 113.086 191.375 115.133 192.162 117.226C194.272 122.775 195.847 128.399 194.227 134.394C192.058 142.422 184.466 147.882 175.894 146.74C161.378 144.826 150.8 136.961 143.891 124.155C143.163 122.805 142.599 121.232 142.465 119.719C141.782 112.092 133.699 110.385 128.811 112.106C128.187 112.329 127.608 112.641 126.91 112.937C127.4 114.881 128.068 116.706 128.291 118.576C128.99 124.259 126.449 128.681 122.438 132.376C116.836 137.54 109.943 140.33 102.871 142.763C100.479 143.579 98.057 144.292 95.6056 144.93C90.7473 146.191 86.5576 144.93 83.4079 141.027C78.1336 134.513 75.6079 127.034 76.7073 118.635C77.2125 114.837 79.5896 112.047 82.7987 109.955C83.4227 109.539 84.1359 108.901 84.3142 108.233C87.1073 97.698 93.0056 88.9283 99.825 80.6631C101.534 78.6006 103.302 76.5973 105.084 74.5941C108.264 71.0477 116.495 71.6264 119.124 75.6328C119.451 76.1373 119.422 77.2206 119.095 77.7399C118.842 78.1406 117.594 78.4225 117.238 78.1554C113.196 75.1431 109.675 76.8496 106.867 79.7432C103.524 83.1709 100.345 86.9102 97.8342 90.9761C94.2387 96.8373 91.3119 103.099 88.1027 109.198C88.3256 109.361 88.5336 109.539 88.7565 109.703L88.7267 109.717ZM172.774 138.401C172.848 138.222 172.907 138.03 172.982 137.852C178.612 138.415 181.792 134.691 184.852 130.907C185.655 129.928 185.996 128.533 184.615 127.553C183.515 126.782 182.49 126.841 181.465 127.939C180.514 128.963 179.355 129.824 178.271 130.714C175.953 132.599 173.546 133.697 170.471 132.302C169.446 131.842 168.079 131.664 167.009 131.901C165.954 132.139 165.078 133.088 164.112 133.726C164.647 134.528 165.018 135.715 165.761 136.041C168.019 137.006 170.426 137.629 172.774 138.386V138.401ZM94.0308 136.308C94.9816 136.249 95.3233 136.308 95.5759 136.204C100.82 133.979 106.11 131.857 111.235 129.393C112.246 128.904 112.78 127.138 113.196 125.847C113.39 125.268 112.944 124.081 112.424 123.799C111.8 123.443 110.537 123.399 110.002 123.799C105.159 127.524 99.6765 129.883 93.9713 131.886C93.2136 132.153 92.5599 133.712 92.5153 134.691C92.4856 135.299 93.7039 135.967 94.0456 136.308H94.0308Z" fill="white"/>
<path d="M47.4681 82.5329C38.3607 77.0278 29.8624 72.131 21.6761 66.7891C19.1653 65.1568 17.427 62.2929 15.4213 59.9187C14.3664 58.6723 14.7676 57.7671 16.2533 56.9955C21.4979 54.2949 26.4899 55.4968 31.1253 58.2271C38.539 62.5897 43.9767 68.7626 46.651 77.0574C47.1561 78.6007 47.1561 80.322 47.4533 82.5181L47.4681 82.5329Z" fill="white"/>
<path d="M244.741 204.967C244.518 207.104 244.236 209.226 244.102 211.378C244.013 212.758 243.3 212.98 242.171 212.758C238.977 212.164 236.496 210.339 234.876 207.683C232.098 203.127 229.602 198.394 226.987 193.749C226.616 193.096 226.318 192.414 225.858 191.835C224.402 189.965 224.387 188.036 225.472 186.003C225.888 185.217 226.259 184.401 226.66 183.614C227.968 181.047 229.929 180.558 232.128 182.427C233.361 183.466 234.475 184.698 235.441 186.003C237.848 189.298 240.225 192.621 242.424 196.049C244.147 198.735 244.964 201.732 244.741 204.997V204.967Z" fill="white"/>
<path d="M194.718 229.362C193.589 227.64 192.802 226.542 192.118 225.37C189.682 221.171 187.379 216.912 187.498 211.867C187.587 208.38 189.325 205.857 192.192 203.987C193.5 203.127 194.258 203.468 195.09 204.7C199.012 210.516 198.774 216.734 196.947 223.1C196.397 224.984 195.639 226.809 194.718 229.376V229.362Z" fill="white"/>
<path d="M131.471 36.9632C132.05 33.4613 132.585 30.1523 133.165 26.8432C133.803 23.2819 134.487 19.7206 135.17 16.1593C135.482 14.5419 135.765 12.8948 137.755 12.4052C139.717 11.9303 141.158 12.9245 142.153 14.3342C142.926 15.4323 143.565 16.8271 143.683 18.1477C144.293 24.4393 137.859 34.411 131.456 36.9632H131.471Z" fill="white"/>
<path d="M70.6305 23.549C69.0111 20.1361 67.4065 16.8122 65.8317 13.4735C64.8957 11.4554 64.0785 9.37801 63.0831 7.38962C62.162 5.54962 62.3403 3.72446 63.722 2.46317C64.7471 1.52833 66.4408 0.786394 67.778 0.860588C69.7391 0.94962 71.0317 2.34446 71.3437 4.52575C72.0271 9.28897 72.9631 14.0077 73.5277 18.7709C73.7654 20.7296 72.9631 22.5399 70.6157 23.549H70.6305Z" fill="white"/>
<path d="M151.81 205.517C153.058 207.045 154.217 208.217 155.079 209.582C155.495 210.235 155.777 211.526 155.421 212.031C153.994 213.99 152.449 215.933 150.651 217.551C149.151 218.886 147.665 218.07 147.784 216.052C147.977 212.431 149.389 209.211 151.825 205.531L151.81 205.517Z" fill="white"/>
</svg>
