<svg width="290" height="230" viewBox="0 0 290 230" fill="none" xmlns="http://www.w3.org/2000/svg">
<path d="M28.2559 174.756C23.4523 173.865 21.9354 172.114 20.7159 167.633C19.6898 163.849 18.7826 162.484 14.6928 162.276C10.6923 162.069 5.87388 163.003 3.04823 159.398C0.296952 155.896 1.45695 150.717 4.22311 147.616C6.51336 145.049 14.4549 142.867 15.3621 139.647C16.4328 135.893 5.88875 136.398 3.65798 133.756C-4.53638 124.067 14.797 119.081 19.3477 114.6C26.5605 107.462 26.3077 96.0067 29.3713 86.9254C32.2564 78.3486 39.2016 73.0809 47.9908 71.3892C58.178 69.4305 70.938 73.2738 78.8498 79.9363C87.6539 87.326 86.8657 97.9357 87.4159 108.441C87.7877 115.431 87.6836 118.636 95.0898 118.443C97.96 118.369 98.5698 117.582 98.4657 120.149C98.3764 122.464 96.0862 126.04 94.7031 127.865C93.2605 129.765 91.2677 130.551 89.7359 132.228C88.2934 133.801 88.1 135.863 86.1816 137.095C81.7795 139.914 74.4923 137.6 69.6739 137.54C71.2354 141.191 74.76 144.425 78.2846 146.147C79.5636 146.77 82.1959 146.933 82.5677 148.358C82.9098 149.634 80.0246 152.824 79.2364 153.7C75.0426 158.374 61.7323 164.309 57.479 157.231C61.9257 155.569 67.0862 156.831 71.6667 155.436C73.3621 154.916 79.2662 151.726 78.2698 149.307C78.017 148.699 74.3734 147.408 73.6298 146.889C72.2913 145.939 71.057 144.796 70.0011 143.535C68.0082 141.146 66.8185 138.401 65.7328 135.567C65.3164 134.454 66.3723 133.341 67.5026 133.712C72.3211 135.255 77.3626 136.828 82.419 135.745C84.6052 135.27 85.6908 134.38 86.8657 132.48C88.4272 129.928 90.5687 128.652 92.5764 126.381C93.4836 125.358 96.0118 121.841 95.2236 120.936C94.3016 119.897 89.7508 120.743 88.1298 119.6C83.2816 116.158 85.2744 106.379 85.0216 101.349C84.858 98.0544 84.5754 94.5821 83.5195 91.4363C82.8205 89.3738 81.0062 85.115 79.177 83.8538C76.7231 82.177 69.7631 88.2312 67.3687 90.1157C58.1334 97.3867 54.1626 106.052 50.1472 116.722C47.7975 114.303 44.8231 112.24 41.9826 115.564C39.6328 118.324 41.0308 122.657 43.9159 124.408C49.4631 127.761 59.5611 125.862 59.0405 134.914C58.1185 150.643 44.6 168.731 30.2339 174.578L28.3005 174.771L28.2559 174.756Z" fill="white"/>
<path d="M288.513 90.7834C288.379 90.9615 288.245 91.1247 288.126 91.3027C284.914 86.0498 283.486 79.6395 280.661 74.1492C278.296 69.5789 275.262 65.3498 271.604 61.7144C267.603 57.7376 263.008 54.6066 257.595 52.8705C254.174 51.7724 245.727 48.9234 245.296 54.7105C244.954 59.1918 253.222 60.5124 252.018 63.2131C251.185 65.0679 240.001 61.1802 237.696 60.8834C235.257 60.5718 222.006 59.2511 228.52 64.6969C230.26 66.1511 232.744 66.2105 234.766 67.086C235.659 67.4718 241.176 70.944 240.343 72.2498C239.734 73.1995 232.788 72.7544 231.524 72.9918C227.896 73.6447 224.222 74.8466 220.995 76.6569C214.451 80.3221 216.95 87.2814 224.356 87.0589C227.479 86.9698 240.12 81.5685 241.459 85.1298C242.054 86.7027 238.142 93.2021 237.458 94.8789C235.807 98.8556 234.142 102.847 232.476 106.824C231.807 108.412 227.539 115.549 228.163 116.736C229.279 118.858 236.268 116.781 237.666 118.68C238.767 120.179 236.878 126.04 236.596 127.91C235.867 132.718 236.596 132.228 241.429 133.356C245.474 134.29 247.095 133.756 250.411 131.293C252.479 129.765 256.672 127.539 254.085 131.753C252.657 134.083 249.564 135.923 246.931 136.427C245.296 136.739 237.83 134.78 237.057 135.418C235.763 136.487 239.287 141.428 240.09 142.437C242.187 145.063 245.028 147.156 248.24 148.18C251.289 149.159 254.68 149.159 257.699 148.061C261.104 146.829 262.859 143.728 265.923 142.229C264.48 149.752 254.471 152.542 248.017 150.583C240.195 148.209 234.915 140.76 233.74 132.91C233.398 130.64 233.532 128.429 233.844 126.174C233.978 125.135 235.212 121.618 234.38 120.743C232.075 118.324 225.412 121.826 225.189 116.529C225.1 114.436 227.003 111.691 227.851 109.807C228.981 107.314 230.097 104.821 231.227 102.328C233.443 97.4163 236.536 92.2079 237.889 86.9847C231.331 87.2814 217.961 94.0034 214.734 84.1208C211.269 73.4666 227.36 71.5673 233.889 69.9647C231.495 67.3679 220.638 65.8395 224.817 59.5479C227.747 55.1408 239.332 58.8505 243.6 59.0137C241.816 53.6866 242.128 50.0808 248.166 48.1963C248.567 48.1963 248.969 48.1963 249.37 48.1963C254.367 49.3685 259.141 49.8137 263.751 52.2918C267.871 54.5027 271.515 57.5892 274.638 61.0318C281.419 68.555 286.654 78.1408 288.543 88.1273V90.7537L288.513 90.7834Z" fill="white"/>
<path d="M122.484 134.869C126.336 134.543 130.574 133.652 134.426 133.979C130.173 140.122 118.751 147.17 124.135 155.925C128.849 163.597 139.408 160.777 145.461 156.845C150.22 153.759 147.32 154.545 144.821 151.073C142.828 148.298 142.799 144.574 145.386 142.125C147.751 139.899 151.752 139.321 154.384 141.339C158.459 144.455 156.853 148.669 155.068 152.438C159.619 151.845 163.039 148.906 166.192 145.82C167.203 144.826 168.423 142.615 170.044 143.698C171.784 144.87 169.285 147.23 168.928 148.714C166.876 157.513 177.465 160.881 184.291 160.095C192.084 159.19 199.654 153.462 200.531 145.286C201.007 140.879 199.312 136.501 196.278 133.311C192.723 129.586 187.697 129.661 183.815 126.782C188.827 125.55 193.943 126.114 198.851 124.066C202.851 122.405 207.818 119.244 210.153 115.475C205.929 116.706 202.851 118.992 198.196 119.452C194.047 119.867 188.5 120.134 184.544 118.68C189.63 113.946 197.527 110.578 195.415 102.046C194.85 99.7903 192.991 96.1994 190.552 95.3536C187.34 94.2407 185.704 98.989 183.101 100.814C180.603 102.565 176.364 104.554 174.461 100.874C173.003 98.0542 175.219 94.7155 177.554 93.1723C178.863 92.2968 180.469 91.7626 182.001 91.4361C182.997 91.2136 185.332 91.5103 186.15 91.0058C187.89 89.9374 187.578 87.4445 187.28 85.5007C185.079 71.4632 165.404 70.4394 156.466 78.1407C153.402 80.7819 151.811 82.6961 151.142 77.6955C150.666 74.0897 148.896 71.2852 145.922 69.1484C143.26 67.2194 140.137 66.3587 136.865 66.4774C132.954 66.611 128.537 69.6381 124.848 69.1187C127.109 65.1568 135.184 63.6432 139.304 64.0142C144.524 64.4742 149.461 67.4123 152.213 71.9084C153.462 73.9561 152.941 76.0187 155.261 75.4994C157.284 75.0394 159.604 72.6652 161.671 71.8787C166.326 70.1129 171.531 69.8458 176.305 71.2407C180.841 72.5613 185.094 75.3807 187.726 79.3574C189.199 81.5684 189.957 84.0316 190.091 86.6878C190.24 89.789 189.035 90.7536 191.31 92.5936C195.147 95.6949 198.211 97.8613 198.464 103.292C198.732 109.272 195.519 113.575 191.073 117.152C195.118 118.146 199.758 117.033 203.699 115.979C206.123 115.326 208.874 114.985 211.194 114.035C211.848 113.768 212.533 114.392 212.28 115.045C211.06 118.25 206.762 122.152 204.606 123.755C201.066 126.396 197.467 126.708 193.541 128.221C198.375 131.842 201.944 134.379 203.044 140.805C204.13 147.17 201.869 153.343 197.006 157.602C192.009 161.979 184.812 163.79 178.283 162.706C170.847 161.475 167.248 157.454 165.627 150.494C163.024 151.741 161.165 153.595 158.295 154.456C155.113 155.406 153.03 154.99 150.324 156.979C145.223 160.718 139.453 163.908 132.894 163.389C127.302 162.944 121.978 159.739 120.655 154.041C119.97 151.103 120.402 148.12 121.636 145.39C123.004 142.392 125.86 140.345 127.213 137.466C122.662 136.991 118.394 138.015 113.843 136.724C110.809 135.863 106.214 134.023 103.21 131.827C102.57 131.352 102.913 130.343 103.701 130.358C111.345 130.492 119.048 131.056 125.309 125.877C127.421 124.141 127.942 123.829 125.384 122.523C123.718 121.677 122.067 120.936 120.536 119.837C117.487 117.656 114.661 114.54 114.26 110.667C114.096 109.035 114.334 107.447 115.003 105.963C115.643 104.524 117.784 103.248 118.216 102.016C118.736 100.532 117.769 100.503 116.461 99.0632C115.197 97.6832 114.156 96.0807 113.427 94.3594C110.319 86.9548 113.189 78.1852 119.584 73.6742C116.565 79.3129 113.174 85.3968 115.003 92.0148C116.565 97.6387 121.13 99.449 125.533 102.461C121.041 103.455 116.52 103.93 116.55 109.777C116.58 115.163 122.514 118.309 126.767 120.342C128.135 120.995 131.228 121.47 131.333 123.176C131.407 124.482 127.629 127.435 126.693 128.192C122.87 131.293 118.587 132.495 113.962 133.815C116.386 134.839 119.881 134.646 122.484 134.928V134.869ZM150.592 142.882C144.271 142.882 145.104 151.978 150.666 151.978C154.458 151.978 156.51 142.897 150.592 142.882ZM184.559 93.8548C180.32 93.9587 177.599 95.9174 176.87 99.9536C180.989 100.087 183.622 97.6239 185.421 94.0032C185.049 93.9439 184.693 93.8845 184.559 93.8697V93.8548Z" fill="white"/>
<path d="M75.6526 113.101C75.8311 111.988 75.6824 109.465 77.4224 109.673C78.1065 109.747 78.8947 112.107 78.9542 112.552C79.2813 114.971 77.0952 121.47 75.2213 123.087C70.269 127.376 61.9557 116.573 66.2239 112.834C67.2947 114.896 68.4547 120.847 71.3398 121.366C74.7157 121.975 75.5634 115.342 76.2475 113.279C76.0542 113.22 75.8608 113.16 75.6675 113.116L75.6526 113.101Z" fill="white"/>
<path d="M253.252 102.031C253.044 104.836 254.219 107.878 257.431 107.982C262.309 108.13 261.357 102.951 262.443 99.9094C267.707 103.307 262.948 110.504 257.684 110.608C252.151 110.727 248.404 104.153 251.943 99.8945C252.374 100.607 252.806 101.319 253.237 102.031H253.252Z" fill="white"/>
</svg>
