<svg width="261" height="230" viewBox="0 0 261 230" fill="none" xmlns="http://www.w3.org/2000/svg">
<path d="M27.3975 129.973C27.7703 129.171 28.1581 128.37 28.4564 127.762C28.173 126.827 27.6063 125.922 27.7107 125.076C28.1581 121.529 30.1119 119.185 34.2729 118.903C32.4236 115.104 33.9448 113.22 38.4042 113.442C38.8218 113.457 39.2991 112.181 39.7912 111.528C41.1484 109.703 42.3416 107.774 43.9225 106.127C45.5034 104.48 47.3677 103.026 49.2916 101.705C50.4848 100.889 52.0806 100.577 53.3931 99.865C54.094 99.494 54.8397 98.8559 55.1231 98.1882C60.4326 85.8127 60.7309 73.0069 59.0605 60.0082C58.3446 54.4437 58.8666 49.0127 64.5042 45.5998C66.5325 44.3682 69.411 44.3237 71.8868 43.6856C72.2895 43.5817 72.7071 43.3591 72.9904 43.0772C80.0598 36.1179 88.6952 33.7585 96.0479 36.934C103.087 39.9759 106.175 45.8521 107.935 52.2772C109.441 57.7379 111.037 63.3766 111.067 68.9411C111.096 74.1792 114.78 77.5179 116.525 81.8063C117.48 84.1508 118.688 86.4211 119.463 88.083C123.043 83.9875 126.607 79.0314 131.141 74.9804C135.75 70.8701 141.462 67.9321 147.875 66.9824C148.009 66.1366 148.129 65.3353 148.263 64.534C148.561 62.6792 148.531 60.6908 149.307 59.0288C149.68 58.2127 151.604 57.4856 152.737 57.5746C158.867 58.0792 164.952 59.2663 171.067 59.4443C177.823 59.6372 183.908 57.5746 188.278 52.4108C188.457 52.203 188.606 51.9508 188.815 51.654C185.683 51.3721 183.088 50.2146 183.192 47.1282C183.237 45.8372 184.788 43.9972 186.16 43.4482C188.845 42.3501 191.246 43.4482 192.797 45.8075C196.063 43.1662 196.943 36.2366 194.452 32.7198C191.768 34.1888 188.755 35.5688 186.458 32.7346C185.578 31.6662 185.832 28.9508 186.742 27.7043C188.636 25.063 191.559 25.5527 195.124 27.3779C195.526 23.6088 195.899 20.1662 196.272 16.7237C193.438 18.4301 191.067 19.2166 188.86 17.6585C187.562 16.7385 186.071 14.6314 186.414 13.4888C186.921 11.8269 188.979 10.5508 190.649 8.81463C189.232 6.32173 178.584 4.22947 173.483 6.29205C174.452 8.75528 174.273 11.2037 171.499 12.3017C170.172 12.8211 167.696 12.4501 166.607 11.5746C164.49 9.88302 165.026 7.58302 166.607 5.55012C159.806 1.60302 145.936 6.61851 143.192 13.1327C144.594 15.3288 146.011 16.8275 146.473 18.534C146.682 19.3204 145.116 21.3088 144.206 21.3979C142.312 21.5908 140.299 20.8785 137.689 20.4185C136.167 21.8282 134.885 29.3662 136.451 32.0372C136.525 32.1708 136.973 32.2301 137.196 32.1856C139.568 31.6069 141.641 31.963 142.312 34.3521C142.506 35.0495 141.536 36.3256 140.731 36.9043C137.987 38.8927 137.927 41.2224 139.747 43.5521C142.924 47.6624 146.354 51.6095 149.65 55.6308C150.067 56.1501 150.336 56.7733 150.679 57.3372C149.963 57.2185 149.128 57.2779 148.531 56.9514C140.015 52.3811 134.795 45.9262 134.154 36.563C133.975 34.0108 132.111 31.5772 131.872 29.025C131.35 23.683 132.677 18.8159 137.748 15.3288C138.494 14.8095 138.628 13.5482 139.076 12.643C144.102 2.33012 159.031 -2.21053 170.023 2.87915C171.619 3.62108 174.258 2.27076 176.436 2.12237C183.192 1.64754 190.112 2.33012 194.288 7.46431C198.047 12.0791 201.313 17.5546 199.896 23.9798C199.732 24.7514 199.255 25.4785 198.942 26.2204C198.077 28.2979 197.495 30.0637 198.822 32.5269C202.118 38.5959 199.628 45.9262 193.677 49.9179C193.289 50.185 193.036 50.6895 192.842 51.1346C190.619 56.1204 186.294 58.9695 181.924 60.6166C182.372 61.8779 182.655 63.065 183.222 64.1333C183.401 64.4746 184.34 64.623 184.907 64.6082C193.065 64.3708 200.746 66.0921 207.845 69.6979C214.855 73.274 218.405 79.625 222.059 85.7682C227.577 95.0721 231.395 104.984 234.333 115.223C234.438 115.579 234.512 115.935 234.587 116.306V119.348C234.035 121.841 233.513 124.349 232.901 126.827C231.798 131.293 231.261 135.997 229.382 140.167C225.549 148.699 221.059 156.994 216.675 165.319C215.019 168.464 212.409 170.987 213.006 175.127C214.333 184.178 214.96 193.319 215.825 202.415C215.854 202.682 215.362 203.217 215.064 203.246C212.916 203.513 210.739 203.677 208.531 203.884C209.292 205.324 210.291 206.57 210.605 207.935C211.082 210.042 210.933 212.253 211.32 214.375C211.992 218.055 212.916 221.706 213.617 225.386C213.692 225.801 213.11 226.662 212.693 226.751C212.021 226.884 210.709 226.721 210.59 226.38C209.889 224.584 209.382 222.729 208.979 220.86C208.427 218.308 208.084 215.711 207.517 213.159C206.861 210.22 206.071 207.312 205.444 204.834H132.26C132.305 205.339 132.394 206.733 132.558 208.128C133.08 212.847 133.647 217.551 134.139 222.269C134.184 222.64 133.871 223.293 133.557 223.397C132.991 223.59 131.812 223.605 131.753 223.442C131.231 221.899 130.768 220.311 130.515 218.693C130.142 216.379 130.112 214.004 129.65 211.704C129.038 208.633 128.114 205.62 127.383 202.564C126.786 200.115 126.279 197.652 125.712 195.174C101.999 204.552 77.6437 207.045 52.5877 202.949C52.2894 204.938 52.2745 206.808 51.6779 208.514C50.8278 210.903 49.2767 213.084 48.5012 215.473C47.1291 219.717 46.1745 224.08 44.9068 228.353C44.7726 228.828 43.6093 229.407 43.0425 229.303C42.5205 229.214 41.7003 228.22 41.8047 227.76C42.4758 224.51 43.3259 221.305 44.1611 218.085C44.9217 215.132 45.5631 212.149 46.5474 209.256C47.3229 206.971 48.5459 204.819 49.5601 202.608C49.1574 202.608 48.7547 202.579 48.352 202.579C48.2625 201.807 48.1283 201.035 48.0985 200.249C48.0985 199.893 48.4713 199.492 48.3968 199.166C47.6063 196.079 46.9053 192.963 45.8912 189.936C44.1313 184.728 42.1029 179.593 40.3132 174.385C39.478 171.966 38.9709 169.458 38.2998 166.98C37.2707 163.122 35.9135 159.309 35.2871 155.406C34.7949 152.305 35.1827 149.085 35.1827 145.82C30.8128 144.708 29.5451 143.135 29.0529 138.728C28.7696 136.19 27.9791 133.697 27.4273 131.175C27.4273 130.774 27.4273 130.359 27.4273 129.958L27.3975 129.973ZM212.424 166.802C215.765 160.466 219.061 155.139 221.432 149.5C224.236 142.838 226.548 135.953 228.487 129.038C230.023 123.548 232.394 118.072 229.516 112.137C225.951 104.806 223.103 97.1791 219.687 89.7895C218.449 87.1185 216.332 84.8037 214.915 82.1921C212.021 76.8501 207.696 72.814 201.626 70.9146C196.645 69.3566 191.35 68.6888 186.19 67.6501C185.504 67.5166 184.46 67.3088 184.102 67.6353C182.059 69.4901 180.552 72.1017 178.166 73.3185C174.616 75.1437 170.5 76.0785 166.578 77.2359C165.698 77.4882 164.594 77.0282 163.58 76.9095C161.984 76.7166 160.284 76.7759 158.807 76.2862C156.973 75.6779 155.153 74.8024 153.617 73.7043C152.051 72.5914 150.843 71.0779 149.143 69.4159C146.622 70.4101 142.894 71.4785 139.642 73.274C132.439 77.2359 127.681 83.4237 123.624 89.9379C118.39 98.3366 116.943 107.863 115.183 117.226C114.676 119.897 114.363 122.598 114.02 125.447C113.856 126.797 112.096 127.213 111.35 126.07C111.216 125.877 111.096 125.684 110.962 125.506C110.664 125.076 110.067 124.809 109.62 124.482C109.232 124.942 108.889 125.447 108.442 125.862C108.024 126.263 107.532 126.842 107.04 126.871C102.014 127.064 96.9726 127.064 91.9465 127.317C81.7899 127.836 71.6481 128.474 61.5064 129.127C60.9546 129.157 60.1641 129.765 59.9703 130.255C58.1805 135.048 56.4952 139.87 54.7801 144.693C54.7055 144.9 54.7353 145.331 54.8248 145.36C56.4057 145.82 57.9717 146.414 59.5974 146.607C61.7003 146.859 63.848 146.755 65.9807 146.829C72.2596 147.082 78.5236 147.512 84.8025 147.542C88.5908 147.557 92.379 146.963 96.1523 146.637C100.671 146.236 105.19 145.835 109.709 145.42C113.393 145.079 117.077 144.663 120.761 144.366C123.132 144.173 128.263 140.76 129.128 138.802C130.44 135.849 131.827 132.911 133.229 130.002C133.975 128.459 134.915 127.005 135.616 125.447C136.466 123.562 137.092 121.574 137.987 119.704C138.151 119.378 139.15 119.2 139.702 119.274C140.135 119.333 140.865 119.971 140.821 120.239C140.373 122.553 140.463 125.299 139.061 127.02C137.375 129.097 138.151 130.729 139.24 131.917C142.252 135.181 145.369 138.52 149.068 141.057C152.961 143.743 157.361 146.088 161.939 147.571C166.592 149.07 171.723 149.397 176.66 150.109C180.612 150.673 184.967 150.257 187.1 154.056C188.949 152.973 190.843 151.86 192.737 150.732C195.646 148.996 198.42 150.331 199.016 153.611C199.106 154.086 200.194 154.768 200.776 154.738C202.849 154.605 204.892 154.204 207.07 153.893C207.07 153.789 207.219 153.225 207.189 152.691C206.861 146.459 206.488 140.226 206.16 133.994C205.877 128.444 205.549 122.88 205.414 117.315C205.31 113.413 205.414 109.495 205.608 105.593C205.638 104.895 206.458 104.242 206.921 103.56C207.294 104.272 207.92 104.955 207.98 105.682C208.338 109.985 208.531 114.303 208.845 118.621C209.546 128.385 210.262 138.134 210.992 147.898C211.44 153.863 211.917 159.828 212.454 166.802H212.424ZM52.5579 199.299C52.6921 199.344 52.7965 199.418 52.9009 199.418C60.5519 200.041 68.2029 200.946 75.8689 201.243C92.4685 201.896 108.084 197.815 123.296 192.147C123.445 192.088 123.61 191.82 123.58 191.687C122.148 182.62 120.716 173.554 119.255 164.502C118.33 158.804 117.375 153.106 116.466 147.571C113.095 148.046 109.65 148.699 106.175 148.981C97.3604 149.708 88.5311 150.287 79.7019 150.895C76.8085 151.103 73.9151 151.429 71.0367 151.37C67.8301 151.311 64.6384 150.777 61.4319 150.658C57.2857 150.509 52.7965 147.839 52.2447 145.568C47.7704 145.731 43.4452 145.88 39.1201 146.043C38.8815 146.043 38.4639 146.251 38.4639 146.384C38.3744 147.631 38.1656 148.907 38.3595 150.124C38.9411 153.551 39.5973 156.979 40.4176 160.362C41.0888 163.152 42.0433 165.882 42.8785 168.628C43.9971 172.293 45.056 175.973 46.264 179.623C47.0247 181.953 48.1283 184.179 48.8442 186.508C49.4259 188.363 49.6645 190.322 50.0523 192.236C51.2752 188.215 52.0806 184.193 52.6473 180.142C53.2588 175.706 53.8405 171.239 54.1089 166.788C54.4072 161.742 54.3028 156.682 54.5116 151.637C54.5415 150.91 55.317 150.198 55.7495 149.471C56.1522 150.153 56.8681 150.821 56.9128 151.533C57.226 155.748 57.6287 159.991 57.5541 164.206C57.4497 170.571 57.4199 176.997 56.5549 183.303C55.8092 188.675 53.93 193.928 52.528 199.284L52.5579 199.299ZM209.188 172.604C200.314 177.219 191.932 176.744 183.669 171.937C183.565 171.877 183.386 171.862 183.252 171.877C181.298 172.174 179.299 172.857 177.376 172.708C173.17 172.382 168.83 172.115 164.833 170.987C155.795 168.435 146.846 165.571 138.017 162.44C133.99 161.015 130.231 158.849 126.577 156.712C124.37 155.421 122.58 153.537 120.448 151.815C121.805 159.62 122.938 167.277 124.534 174.875C126.115 182.442 128.039 189.951 130.097 197.415C130.664 199.492 131.335 201.451 135.198 201.347C144.385 201.095 153.617 202.104 162.819 202.044C174.915 201.97 186.995 201.362 199.091 200.961C203.371 200.813 207.652 200.59 211.44 200.412C210.664 190.856 209.918 181.686 209.188 172.604ZM119.851 147.334C123.028 149.753 125.414 152.186 128.367 153.67C134.422 156.712 140.731 159.339 147.025 161.965C150.112 163.256 153.334 164.28 156.57 165.244C159.478 166.12 162.461 166.817 165.459 167.455C169.158 168.257 172.871 169.088 176.63 169.592C177.972 169.77 180.418 169.34 180.731 168.613C181.939 165.719 182.193 162.499 183.386 159.606C184.43 157.083 182.998 154.353 180.06 154.1C175.317 153.67 170.53 153.373 165.906 152.453C162.238 151.726 158.643 150.391 155.243 148.877C151.976 147.423 148.844 145.598 145.966 143.565C143.55 141.859 141.507 139.692 139.419 137.615C138.166 136.368 137.152 134.914 135.988 133.504C134.199 136.606 132.558 139.781 130.604 142.764C128.397 146.147 124.847 147.438 119.881 147.319L119.851 147.334ZM52.2297 142.942C53.408 139.366 54.795 135.181 56.1522 130.982C56.2119 130.818 56.182 130.566 56.0776 130.448C54.6608 128.86 53.3931 127.094 51.7227 125.744C48.6951 123.28 45.4587 121.04 42.2521 118.784C41.4765 118.235 40.4773 117.983 39.5824 117.597C39.478 117.746 39.3885 117.909 39.2841 118.057L43.4303 121.159C44.698 122.108 43.7435 124.111 42.1924 123.726C40.6413 123.34 39.0455 122.998 37.4497 122.776C35.66 122.524 33.6465 123.592 31.7375 124.052C32.4534 125.254 33.1693 126.456 33.9001 127.658C33.9597 127.747 34.0641 127.821 34.1089 127.88C33.0649 129.053 30.3654 129.157 32.1999 131.857C33.2289 133.371 32.5876 135.789 33.0649 137.718C33.4676 139.336 34.1238 141.948 35.1827 142.185C38.5683 142.927 42.1924 142.808 45.7271 142.942C47.8449 143.016 49.9628 142.942 52.2148 142.942H52.2297ZM57.2708 126.857C57.7779 126.634 58.27 126.293 58.792 126.218C60.7011 125.966 62.6101 125.744 64.534 125.64C76.0628 125.017 87.6064 124.512 99.1352 123.77C101.939 123.592 105.25 124.601 107.323 121.589C107.711 121.04 109.128 121.084 110.052 120.847C110.291 120.788 110.694 120.728 110.724 120.624C111.469 116.855 112.185 113.101 112.841 109.644C110.903 112.137 108.979 115.03 106.607 117.553C100.999 123.503 93.602 123.637 88.9636 118.057C86.0255 121.529 82.3417 123.815 77.3901 122.731C72.1701 121.589 70.8577 117.642 70.5445 113.353C68.9487 115.03 67.502 116.766 65.8316 118.28C63.4304 120.461 60.5967 121.841 57.1067 120.728C53.6764 119.63 51.6183 117.108 51.4989 113.947C51.3647 110.534 52.1253 107.077 52.4684 103.946C52.4236 103.99 51.9613 104.391 51.484 104.777C49.5899 106.29 47.5019 107.655 45.8315 109.362C44.4296 110.786 43.5198 112.611 42.4311 114.288C42.3714 114.392 42.6846 114.793 42.9083 114.926C45.2051 116.262 47.83 117.286 49.7689 118.977C52.5877 121.426 54.9143 124.349 57.2559 126.871L57.2708 126.857ZM152.096 66.7598C151.887 67.0566 151.663 67.3385 151.454 67.6353C157.405 72.2204 163.923 75.6927 172.26 72.4875C175.541 71.2262 178.27 68.7779 180.686 67.2346C179.911 65.8695 179.225 65.2314 179.21 64.5637C179.15 62.4714 178.867 61.4772 175.914 62.0411C167.86 63.5992 160.105 61.863 152.677 59.3256C152.484 61.8185 152.29 64.2817 152.096 66.745V66.7598ZM203.819 157.973C202.491 158.211 201.044 158.493 199.583 158.73C195.616 159.368 193.811 157.498 195.079 154.086C195.153 153.893 195.034 153.492 194.9 153.448C194.691 153.373 194.363 153.448 194.139 153.581C192.006 154.679 189.904 155.792 187.801 156.89C186.697 160.704 185.489 164.873 184.311 169.043C184.266 169.221 184.4 169.622 184.519 169.651C188.576 170.527 192.603 171.818 196.704 172.055C199.792 172.233 202.983 171.076 206.13 170.512C206.071 170.126 206.026 169.74 205.966 169.355H200.254C198.986 169.355 198.315 167.841 199.18 166.921H199.195C199.031 166.891 200.06 165.037 200.776 164.22C199.27 164.028 198.718 162.143 199.896 161.193L203.833 157.988L203.819 157.973ZM193.11 13.6669C192.096 13.4888 191.514 13.2959 190.962 13.3108C190.634 13.3108 190.321 13.6669 189.993 13.845C190.44 14.2753 190.858 15.0172 191.35 15.0617C191.798 15.0914 192.29 14.3495 193.125 13.6669H193.11ZM189.56 48.3598C189.68 48.0779 189.814 47.7811 189.933 47.4991C189.053 47.1875 188.188 46.8759 187.294 46.6088C187.264 46.6088 187.04 47.143 186.921 47.425C187.801 47.7366 188.681 48.0482 189.56 48.3598ZM207.935 160.066C207.115 160.719 206.369 161.312 205.593 161.92C206.443 162.202 207.264 162.469 208.174 162.766C208.084 161.831 208.009 160.971 207.92 160.066H207.935ZM170.187 7.8056C169.978 7.74625 169.754 7.68689 169.546 7.6127C169.381 8.14689 169.202 8.68108 169.098 9.21528C169.083 9.28947 169.426 9.43786 169.59 9.54173L170.187 7.79076V7.8056ZM191.768 30.1379L191.663 29.5443C191.082 29.663 190.485 29.7669 189.918 29.9301C189.814 29.9598 189.829 30.3011 189.784 30.494C190.44 30.3753 191.097 30.2566 191.768 30.1379Z" fill="white"/>
</svg>
