<svg width="260" height="230" viewBox="0 0 260 230" fill="none" xmlns="http://www.w3.org/2000/svg">
<path d="M131.813 0.326172C133.447 0.726817 135.156 0.934559 136.359 2.24037C136.79 2.68553 137.251 2.93778 137.845 2.7894C143.283 2.59649 148.958 3.11585 154.054 5.16359C156.283 5.68295 157.219 8.14617 159.224 8.75456C161.245 8.75456 162.79 9.6894 163.994 11.2623C166.059 15.2836 169.104 20.1359 167.262 24.7359C168.376 31.9178 163.592 40.5539 155.272 38.4765C151.023 51.2971 147.22 43.21 147.354 55.0958C162.642 57.4404 168.614 75.6771 165.554 89.1655C164.543 95.3681 161.839 101.051 160.131 107.076C158.912 109.287 159.596 111.349 160.458 113.56C161.245 115.994 160.368 117.359 158.318 118.695C159.15 121.618 158.972 124.689 159.551 127.672C160.368 133.459 160.443 139.365 161.037 145.196C162.107 151.147 159.611 154.797 153.356 154.916C154.054 160.926 152.91 166.92 153.014 172.96C152.36 179.696 153.683 186.463 153.757 193.2C154.515 193.155 155.228 193.111 155.986 193.066C157.872 197.384 151.811 215.695 159.403 213.455C162.968 212.935 167.634 211.392 170.248 214.79C177.335 225.756 146.046 229.807 139.568 228.62C131.872 226.824 133.328 217.06 132.571 211.006C132.08 206.065 131.947 200.99 132.526 196.286C135.587 195.262 133.343 182.175 134.666 178.495C134.472 172.322 135.156 166.06 135.587 159.916C134.68 156.964 136.879 153.254 135.29 150.761C132.244 154.664 127.341 153.358 123.062 153.477C121.205 160.48 124.622 170.14 117.506 174.829C108.903 177.827 99.0085 177.693 90.0348 176.862C87.8508 184.237 79.4713 179.889 74.197 181.195C71.7308 181.759 71.4336 184.445 70.4976 186.418C68.2245 191.345 60.6028 189.401 59.325 184.608C57.037 178.109 61.3308 171.921 61.613 165.451C61.9102 162.306 62.8759 158.774 66.3079 157.898C73.4393 156.281 80.8233 155.747 88.0885 154.931C90.213 154.53 89.797 157.097 90.0496 158.477C95.9776 157.646 104.476 160.97 107.418 153.996C107.863 153.284 109.052 153.58 109.022 154.441C107.195 163.196 96.5868 159.635 90.2576 160.332C89.901 165.451 89.6633 170.793 89.9902 175.972C96.8988 173.924 116.079 177.693 118.976 170.126C121.264 164.902 119.303 159.056 121.502 153.818C114.43 153.328 107.462 153.298 100.286 153.239C102.01 144.41 104.119 135.922 105.471 126.975C99.677 119.318 93.853 111.216 92.0108 101.6C88.6382 84.9365 95.2348 66.0171 109.75 56.5946C112.439 53.6268 126.048 46.9197 129.05 49.5907C89.3811 60.9571 82.4873 100.25 109.572 129.23C111.28 126.871 112.796 124.452 114.341 122.018C109.26 113.175 105.1 103.515 106.095 93.1423C107.64 79.832 112.454 72.2346 111.578 91.8365C110.746 93.8991 111.578 103.144 109.691 103.144C107.165 102.105 110.434 90.59 109.453 87.0881C105.62 98.1429 109.824 110.504 115.485 120.208C115.871 119.125 117.55 118.784 117.565 120.193C116.792 122.998 114.787 125.164 113.108 127.464C111.741 129.764 110.582 132.257 108.562 134.082C106.437 133.726 108.205 131.901 108.784 130.788C108.175 130.135 107.596 129.527 106.912 128.8C105.991 136.323 104.506 143.757 102.916 151.176C112.454 151.058 122.156 152.497 131.59 151.043C135.037 149.722 135.646 136.026 136.448 132.079C134.68 133.177 133.106 133.682 131.026 133.756C129.555 131.545 133.596 131.56 134.859 130.714C135.542 130.298 136.107 129.838 136.983 129.824C137.325 128.191 138.766 129.319 139.702 128.458C140.341 127.969 141.53 127.212 141.931 128.325C142.614 130.536 138.41 130.313 138.291 132.257C138.41 136.842 133.343 149.737 138.632 151.191C144.56 154.04 152.42 154.189 158.318 151.458C159.923 148.476 158.853 144.232 158.675 140.908C158.095 133.578 157.323 126.544 156.981 119.14C144.486 121.202 131.917 119.718 119.6 117.24C118.011 116.573 114.846 117.107 114.326 115.222C121.22 114.836 128.099 117.478 135.067 117.715C139.256 117.315 159.061 120.267 158.615 114.525C155.614 104.39 152.524 94.3442 151.722 83.7642C151.84 78.9417 150.206 73.3178 152.45 68.9255C154.218 81.4494 153.98 94.4036 158.407 106.556C165.36 88.7055 170.115 64.3849 147.116 56.6539C146.997 57.4255 146.893 58.0933 146.789 58.85C118.754 66.1062 137.28 40.4204 127.029 43.5068C123.983 43.9371 119.987 43.5513 118.902 40.1236C118.843 39.7378 118.456 39.8417 118.13 39.8268C110.255 40.3907 112.632 30.4784 114.549 25.8784C111.102 23.4597 112.974 18.1771 116.57 16.5449C114.504 7.46359 123.315 0.11843 131.887 0.341011L131.813 0.326172ZM156.684 9.21456C151.93 4.52553 144.278 4.42166 137.964 4.51069C139.152 8.54682 133.536 12.1229 131.085 8.29456C129.51 5.75714 131.531 3.39778 134.19 2.93778C126.45 -0.371248 116.109 7.21133 118.13 15.7881C120.655 14.7346 125.424 16.7526 121.621 18.9636C118.546 20.2991 116.822 16.2036 114.698 20.5662C114.059 21.8571 114.326 23.9642 115.96 24.3352C117.015 23.4894 118.189 22.7771 119.645 22.6733C120.091 25.7004 117.357 25.5371 115.842 27.0359C114.698 29.7365 112.395 36.8294 115.99 38.2391C118.902 39.812 118.976 35.4346 121.562 35.8649C124.384 36.6365 122.037 39.1739 120.15 39.4113C121.19 43.5365 126.821 41.9784 129.986 42.1713C130.55 35.5384 125.93 38.892 123.805 33.8913C121.19 28.3417 130.624 22.5546 132.571 29.8107C133.432 28.49 132.214 27.6739 132.08 26.6204C135.379 26.1455 136.508 22.97 136.448 19.9429C139.494 21.8275 142.599 21.961 145.407 19.6165C146.002 22.8513 149.701 24.7804 151.974 21.8126C153.252 23.0888 155.421 23.6378 155.674 25.552C156.119 29.7365 156.075 33.832 155.376 38.0017C160.948 38.2836 166.594 33.0159 165.658 27.4068C160.695 28.8313 161.334 22.2281 165.806 23.9197C166.638 19.9429 163.919 11.01 159.299 10.461C159.299 15.981 152.45 12.85 156.669 9.17004L156.684 9.21456ZM151.84 193.586C150.771 180.75 150.444 167.989 152.019 155.198C146.923 156.058 142.139 155.272 137.607 152.69C137.176 166.891 136.508 181.121 135.572 195.336C141.024 194.758 146.373 194.209 151.84 193.586ZM131.085 35.9539C132.184 42.1417 133.284 49.1455 130.728 55.0958C134.695 58.9984 140.088 58.9836 145.125 57.4107C145.452 53.8197 145.779 50.3029 146.091 46.8752C151.528 44.4862 154.143 38.1649 153.712 32.5113C151.885 34.6926 147.859 33.1197 148.26 30.3004C149.567 29.9294 150.251 30.9088 151.261 31.621C152.034 31.2352 152.895 30.9236 153.891 31.4133C153.727 29.0391 154.946 23.3262 150.934 24.8694C148.423 25.9081 146.002 24.9288 144.397 22.8365C133.759 23.8455 141.232 22.4062 134.814 27.7481C135.884 31.25 132.912 34.752 129.317 33.9804C129.51 32.2591 131.248 31.2352 130.015 29.5288C126.672 25.0623 121.725 35.7017 131.1 35.9539H131.085ZM135.854 4.46617C132.363 3.81327 130.535 8.20553 134.502 8.26488C136.226 7.81972 136.864 6.09843 135.854 4.46617ZM163.845 25.7746C164.32 26.0713 164.588 25.9526 164.826 25.4926C164.35 25.1959 164.068 25.2997 163.845 25.7746Z" fill="white"/>
<path d="M52.6386 52.6036C48.85 51.8617 39.1483 54.0282 37.2169 50.9417C32.834 43.3591 38.3906 32.4972 47.2157 31.963C51.0192 30.9243 49.3403 24.143 56.9769 23.1636C59.9632 22.6443 62.8157 23.0598 65.4603 24.5585C70.6603 25.5824 71.2843 17.7624 79.4557 23.6533C86.0077 27.8824 80.6443 34.4411 86.4237 33.3875C93.6591 34.5301 97.626 44.5759 95.3083 51.0604C95.3677 53.4346 83.9129 51.8469 81.5951 52.4107C71.938 52.4849 62.2957 52.9598 52.6534 52.6036H52.6386ZM65.3266 26.4875C60.6169 22.8075 52.1929 24.4101 50.7814 30.7017C50.5586 31.3991 50.7369 31.7404 51.4203 32.0224C55.298 32.7346 58.8043 35.7172 58.522 39.9462C58.4477 42.4243 56.0854 43.5965 53.842 43.2553C44.6752 42.2759 50.9449 31.9778 45.9677 33.6546C38.9849 35.2127 36.4443 42.2907 37.9003 48.7159C38.0786 50.734 38.45 51.0456 40.4854 51.0011C44.9129 50.8972 49.3254 50.7636 53.738 50.6598C64.3609 50.4669 74.9689 50.0811 85.562 49.6211C96.9574 55.2598 95.7986 42.0533 89.722 36.4295C87.1071 33.8327 82.338 33.1946 82.9472 38.1359C83.17 40.3172 78.9506 44.294 78.1929 40.8069C77.3014 36.8004 82.0854 35.2572 81.9517 31.5772C81.8329 23.9204 72.562 20.2849 68.2831 26.2353C70.7197 28.8172 72.1163 32.7791 70.3632 36.0882C64.6134 42.2462 61.0774 30.2862 65.3117 26.4727L65.3266 26.4875ZM54.5849 42.0236C61.7757 41.7862 53.1883 30.0785 49.8009 34.3075C48.746 37.6759 50.8409 42.0978 54.5849 42.0236ZM64.6729 32.0075C64.7174 33.8475 65.6683 37.023 68.09 36.3553C72.6809 33.5507 65.8466 21.1604 64.6729 32.0075ZM79.842 40.7178C81.194 39.9166 81.9369 37.6314 81.3277 36.1178C79.9757 37.0082 78.5049 39.3527 79.842 40.7178Z" fill="white"/>
<path d="M210.125 134.246C214.181 134.128 219.336 131.991 222.575 135.374C223.511 136.309 223.734 137.6 222.456 138.357C218.341 140.122 213.453 139.128 209.085 138.906C206.5 138.609 203.692 138.742 201.716 140.671C197.348 144.96 192.029 148.402 188.211 153.151C192.861 152.246 197.719 149.293 202.251 152.171C204.316 153.106 205.608 156.089 202.785 156.994C197.229 159.546 186.784 153.982 183.055 158.597C181.852 161.015 178.836 162.944 178.821 165.734C186.131 157.35 198.091 168.227 184.125 170.75C171.437 170.453 175.835 183.066 183.798 187.072C185.67 188.007 187.572 188.571 189.161 190.04C177.677 188.779 177.157 180.32 173.368 181.033C168.347 184.357 161.334 179.371 166.133 174.652C168.688 172.04 173.844 176.715 174.156 174.073C173.992 166.476 182.951 160.437 174.78 154.16C169.996 144.886 182.847 142.986 181.183 157.335C185.7 153.7 188.924 148.655 193.678 145.227C195.268 143.98 195.966 142.363 195.847 140.33C196.04 136.324 195.015 131.397 197.348 127.97C197.987 127.391 198.269 127.346 199.012 127.791C202.681 130.077 201.552 134.795 201.092 138.401C222.887 122.746 216.35 118.933 212.576 96.7043C211.893 92.594 213.765 81.2276 219.782 85.8573C231.029 101.111 219.797 121.544 210.11 134.261L210.125 134.246ZM219.069 116.484C223.452 108.382 224.061 98.4553 220.852 89.8489C215.161 78.9127 212.487 94.3005 214.389 99.3605C215.934 105.073 217.152 110.89 219.069 116.484ZM206.589 137.11C210.214 138.609 218.564 138.757 222.07 136.799C218.905 132.54 210.541 134.751 206.589 137.11ZM174.527 179.504C173.68 176.047 170.115 175.008 167.975 175.542C162.894 177.828 167.856 184.728 174.527 179.504ZM189.399 154.976C192.727 156.341 197.021 155.421 200.691 155.911C201.953 156 203.38 154.813 202.072 153.73C198.566 151.637 192.564 152.513 189.399 154.991V154.976ZM179.252 169.088C182.238 169.013 188.136 169.77 188.939 166.016C186.992 161.653 180.455 165.882 179.252 169.088ZM197.853 140.79C200.809 139.499 201.136 131.264 198.447 129.706C197.14 133.356 197.184 137.021 197.853 140.79ZM179.059 156.044C180.916 154.961 179.281 151.133 178.449 149.59C176.919 146.696 173.68 150.673 175.671 152.513C176.771 153.7 177.84 154.991 179.059 156.044Z" fill="white"/>
<path d="M196.337 80.9157C206.871 72.517 214.596 100.206 203.231 92.9647C200.244 89.4183 199.442 84.4918 196.337 80.9157ZM197.63 81.1234C199.338 83.9725 201.507 86.4208 202.517 89.6557C203.052 91.095 204.048 92.1337 205.251 92.9796C210.213 95.0867 206.054 77.9331 197.63 81.1086V81.1234Z" fill="white"/>
<path d="M145.942 36.2514C147.026 33.2243 144.203 29.6482 145.823 26.4579C148.512 25.805 147.041 30.8947 147.814 32.4972C150.83 43.463 138.171 34.8121 145.942 36.2514Z" fill="white"/>
<path d="M145.481 40.1242C147.383 41.3559 144.723 42.9139 143.223 42.1275C141.232 41.2223 139.048 40.0055 139.092 37.5423C141.544 36.0584 141.128 40.9849 145.481 40.1242Z" fill="white"/>
<path d="M140.98 33.4611C136.864 32.6153 136.79 27.9708 141.113 31.4579C142.198 30.8199 143.015 29.8405 144.367 30.6863C143.847 32.4224 142.658 33.1941 140.98 33.4611Z" fill="white"/>
</svg>
