<svg width="260" height="230" viewBox="0 0 260 230" fill="none" xmlns="http://www.w3.org/2000/svg">
<path d="M209.337 131.961C209.055 124.334 208.654 116.603 208.268 109.109C207.807 100.236 207.332 91.0506 207.049 82.0138C206.826 74.6093 206.886 67.0712 206.945 59.7854C206.975 55.5119 207.02 51.0751 207.005 46.7273C206.975 39.397 204.048 36.2957 196.917 36.0138C189.622 35.7319 182.193 35.6428 175.017 35.5686C172.061 35.539 169.089 35.5093 166.133 35.4648L147.517 35.1828C135.364 35.0048 123.21 34.8119 111.042 34.619C110.255 34.619 109.453 34.5299 108.532 34.4261C108.056 34.3815 107.536 34.3222 106.957 34.2777L106.452 34.2332L106.793 33.8622C107.284 33.328 107.744 32.8532 108.205 32.3932C109.111 31.4732 109.884 30.6867 110.433 29.7667C110.894 29.0099 111.176 28.1493 111.488 27.259C111.726 26.5319 111.978 25.7899 112.32 25.1073C113.449 22.8815 114.029 21.6796 113.732 20.9228C113.449 20.1661 112.201 19.6467 110.032 18.7861L109.794 18.697L109.898 18.4596C110.121 17.9254 110.359 17.3764 110.612 16.8422C111.176 15.5809 111.756 14.2751 112.112 12.9544C112.276 12.3312 112.112 11.6041 111.919 10.8473C111.86 10.5802 111.785 10.3132 111.741 10.0461C111.533 10.0906 111.34 10.1202 111.132 10.1499C110.508 10.2538 109.913 10.3577 109.423 10.6248C106.838 12.0493 103.748 13.5183 100.405 13.6519H100.182L100.137 13.4441C100.048 12.9693 100.004 12.4796 99.9739 12.0048C99.8996 11.0402 99.8105 10.1202 99.3647 9.64541C98.9636 9.21509 98.0722 9.15573 97.1362 9.09638C96.6905 9.0667 96.215 9.03702 95.7693 8.96283L95.5019 8.91831L95.5762 8.65122C95.695 8.22089 95.8288 7.80541 95.9476 7.38993C96.2299 6.46993 96.5122 5.60928 96.5419 4.74864C96.5716 4.06606 96.319 3.3538 96.0516 2.61186C95.9625 2.37444 95.8733 2.13702 95.799 1.88477C95.6208 1.9738 95.4276 2.04799 95.2345 2.13702C94.6402 2.38928 94.0905 2.6267 93.6893 3.01251C72.087 23.6532 49.0882 42.8693 25.3316 60.1415C23.9647 61.1357 22.6127 62.2041 21.2905 63.2428C20.6962 63.7028 20.1167 64.1628 19.5225 64.6228V66.4332C20.1019 67.4422 20.9339 67.7686 22.375 67.5757C23.8756 67.3828 25.4207 67.3086 27.0402 67.2344C27.7682 67.2048 28.511 67.1602 29.2985 67.1157L29.7442 67.0861L29.5362 67.4867C29.3133 67.917 29.1053 68.2732 28.927 68.6144C28.5705 69.2673 28.2882 69.7867 28.0356 70.3209C27.887 70.6325 27.7236 70.959 27.5602 71.2706C27.1293 72.1164 26.6687 72.9919 26.535 73.8673C26.3716 74.9209 26.4756 75.6183 26.847 75.9151C27.2185 76.2267 27.9613 76.1822 29.0459 75.7815C30.2642 75.3364 31.4825 74.8764 32.8493 74.3719L35.5979 73.348L34.647 74.9951C34.3202 75.559 34.0676 75.9893 33.8299 76.4196C33.6219 76.7906 33.399 77.1615 33.1613 77.5325C32.6116 78.4228 32.047 79.3428 31.7499 80.3222C31.5122 81.0641 31.8539 82.1622 32.2847 82.8744C32.4185 82.9931 33.3396 82.9338 34.2013 82.6964C35.0036 82.4738 35.791 82.1473 36.6082 81.8061C36.9647 81.6577 37.3362 81.5093 37.7225 81.3609L38.0493 81.2422V81.5835C38.1236 82.8596 37.7373 84.0912 37.351 85.2783C36.6973 87.3409 36.0733 89.2996 37.5887 91.5254L61.0333 75.4699L60.9887 75.9893C59.2653 99.4641 58.983 123.073 58.7156 145.894L58.6562 151.029C58.463 166.817 58.0025 182.858 57.5568 198.379C57.423 202.934 57.2893 207.475 57.1705 212.031C57.111 214.449 56.9179 216.883 56.7545 219.257C56.6208 221.142 56.4722 223.085 56.383 225.014C56.3236 226.483 56.4573 227.27 56.8733 227.7C57.2893 228.131 58.0322 228.309 59.5327 228.323L64.0493 228.368C68.0756 228.412 72.2207 228.442 76.3065 228.502C76.8116 228.502 77.3167 228.635 77.7922 228.754C78.0002 228.798 78.2082 228.858 78.4162 228.902H127.474C127.638 228.858 127.786 228.813 127.95 228.754C128.336 228.635 128.737 228.502 129.138 228.502C133.031 228.427 136.924 228.368 140.816 228.323C148.319 228.22 156.074 228.101 163.696 227.863L166.697 227.774C174.497 227.537 182.55 227.285 190.38 226.291C201.968 224.807 208.55 218.011 209.961 206.095C210.689 199.952 211.001 193.838 210.882 187.918C210.541 168.909 210.021 150.079 209.352 131.931L209.337 131.961ZM43.3533 83.1119C42.8927 83.4086 42.4322 83.7054 41.8825 84.0615L40.3522 85.0261L40.9019 82.9783C41.1396 82.088 41.3476 81.3015 41.5705 80.5299C42.2242 78.2448 42.2985 77.1022 41.823 76.6125C41.3476 76.108 40.1887 76.1228 37.8265 76.657L37.2619 76.7906L37.559 76.2861C37.8413 75.8112 38.1236 75.3512 38.391 74.9061C39.015 73.897 39.6093 72.9325 40.0996 71.9383C40.6345 70.8699 40.9019 69.9944 40.9019 69.2525C40.9019 68.7331 40.8127 68.0654 40.3522 67.7538C39.9956 67.5164 39.4756 67.5164 38.7922 67.7835C37.4253 68.3028 36.0436 68.8222 34.4836 69.4009L31.6013 70.4841L31.9133 69.9054C32.1659 69.4454 32.3739 69.0448 32.5819 68.659C32.9682 67.9467 33.295 67.3531 33.607 66.7448C34.335 65.3202 34.4985 64.2815 34.0973 63.6286C33.6962 62.9906 32.6859 62.6938 31.111 62.7383C30.6505 62.7383 30.1007 62.7383 29.4025 62.5157L28.9419 62.3673L29.3282 62.0854C52.0893 45.0209 72.4288 27.9564 91.4905 9.92735L91.9065 9.54154V10.1054C91.9659 12.4104 93.5308 13.637 96.6013 13.7854H96.839V14.0377C96.839 14.2157 96.839 14.379 96.839 14.557C96.839 14.928 96.839 15.299 96.839 15.6699C96.8985 16.7828 97.0767 17.3912 97.4482 17.7028C97.8196 18.0144 98.4585 18.0738 99.5282 17.9254C101.207 17.688 102.916 17.3467 104.565 17.0054C105.293 16.857 106.021 16.7086 106.764 16.5751L107.135 16.5009L107.061 16.8719C106.338 20.1759 106.986 22.2682 109.007 23.1486L109.141 23.208V23.3564C109.364 25.9977 107.789 27.7041 106.244 29.3512L105.932 29.6925C87.063 50.0957 66.0253 68.0654 43.3682 83.1119H43.3533ZM207.391 197.073C207.332 200.471 206.916 203.973 206.188 207.52C204.91 213.678 201.077 217.862 194.777 219.984C188.389 222.136 181.792 222.254 175.404 222.358C148.126 222.833 120.417 223.189 93.0356 223.456C91.5945 223.456 90.1533 223.471 88.7122 223.471C82.9476 223.471 77.1533 223.367 71.5076 223.278C68.5065 223.234 65.4905 223.174 62.4893 223.145C61.999 223.145 61.4939 223.085 60.9739 223.026C60.7065 222.996 60.4242 222.967 60.127 222.937L59.8893 222.907V222.67C59.9933 220.993 60.0825 219.346 60.1716 217.714C60.3796 214.049 60.5727 210.591 60.7213 207.06C60.8253 204.641 60.9293 202.237 61.0333 199.818C61.3602 192.533 61.7019 184.994 61.8059 177.59C61.9099 169.681 61.9396 161.623 61.9545 153.848C61.9842 143.268 62.0139 132.332 62.2516 121.574C62.5042 110.949 63.0687 100.176 63.6185 89.7448C63.8859 84.7886 64.1533 79.6693 64.3762 74.639C64.4505 73.1254 65.0002 72.0719 66.2333 71.1222C77.5396 62.3525 88.5339 52.5738 99.8402 41.2222C100.687 40.3764 102.113 39.768 103.213 39.7828C127.474 40.0648 152.048 40.4506 175.805 40.8215C182.758 40.9254 189.83 41.0738 196.828 41.237C202.25 41.3706 203.974 43.1215 203.914 48.4635C203.885 51.3867 203.796 54.3693 203.721 57.248C203.573 62.5603 203.424 68.0506 203.573 73.4519C203.944 85.9461 204.509 98.648 205.058 110.934C205.296 116.083 205.519 121.233 205.742 126.382C205.92 130.536 206.113 134.691 206.292 138.861C206.737 148.521 207.183 158.507 207.45 168.345C207.703 177.723 207.569 186.923 207.376 197.103L207.391 197.073Z" fill="white"/>
<path d="M182.371 195.025C171.228 195.648 160.293 196.212 149.715 196.746L140.741 197.206L130.921 196.939C121.011 196.672 111.666 196.42 102.395 196.138C102.276 196.138 102.172 196.138 102.053 196.138C101.4 196.138 100.776 196.212 100.404 196.568C100.122 196.835 99.9883 195.782 99.9883 196.405C99.9883 198.037 100.657 198.72 102.291 198.764C105.56 198.853 108.888 198.987 112.112 199.12C116.762 199.298 121.561 199.491 126.285 199.566C144.114 199.818 162.581 199.195 182.728 197.681C184.644 197.533 185.372 198.364 185.298 196.776C185.268 196.108 185.105 195.648 184.808 195.381C184.303 194.921 183.411 194.98 182.386 195.025H182.371Z" fill="white"/>
<path d="M95.7092 61.3579C95.2932 61.625 95.1595 62.3224 95.0704 62.9901C94.7287 65.5276 94.3721 68.1095 94.0007 70.6024C93.8521 71.5966 93.7184 72.6056 93.5698 73.5998L93.4361 74.5643L93.0944 73.6592C92.4704 72.0121 92.0098 70.3056 91.5641 68.6585C91.3561 67.8869 91.1481 67.1005 90.9252 66.3437C90.7767 65.8689 90.0932 65.216 89.7961 65.2605C89.4395 65.2901 88.8304 65.9282 88.667 66.4327C88.3401 67.5308 88.1024 68.6734 87.8498 70.0089C87.731 70.5876 87.6121 71.2108 87.4635 71.8934L87.2555 72.8579L86.9732 71.9082C86.7801 71.2553 86.6018 70.6321 86.4384 70.0534C86.0521 68.7031 85.7252 67.5308 85.2795 66.4179C85.1755 66.1656 84.7595 65.9579 84.3435 65.765C84.2098 65.7056 84.0761 65.6463 83.9572 65.5721C83.8829 65.6908 83.8087 65.8095 83.7344 65.9282C83.5115 66.2695 83.259 66.6702 83.3184 66.8927C84.4475 71.285 85.5618 75.2914 86.7504 79.1198C86.8395 79.4314 87.2852 79.6985 87.7309 79.9656C87.8795 80.0547 88.0281 80.1437 88.1767 80.2476C88.2807 80.114 88.3847 79.9953 88.4887 79.8766C88.8155 79.4908 89.1275 79.1198 89.1869 78.734C89.3504 77.6063 89.3801 76.434 89.4098 75.2914C89.4098 74.8166 89.4395 74.3566 89.4544 73.8818L89.4841 73.1992L89.9001 73.7482C91.0144 75.2024 91.6532 76.8643 92.2772 78.4669C92.9012 80.0992 93.4955 81.6424 94.5504 82.9482L94.7881 82.7553L95.3081 78.3631C95.9024 73.4366 96.5115 68.3321 97.0612 63.3018C97.1504 62.5301 96.8532 61.4321 96.6601 61.3431C96.2589 61.2095 95.9469 61.2243 95.7092 61.3579Z" fill="white"/>
<path d="M169.372 81.4349C169.312 82.1175 169.253 82.7555 169.312 83.3788C169.401 84.4026 169.401 85.4413 169.401 86.4504C169.401 87.5633 169.401 88.7207 169.52 89.8336C169.55 90.1601 170.011 90.5162 170.456 90.8575C170.605 90.9762 170.753 91.0949 170.902 91.2136C170.991 91.1097 171.08 90.991 171.169 90.8872C171.481 90.5013 171.793 90.1452 171.868 89.7446C172.046 88.8691 172.091 87.8749 171.987 86.5988C171.793 84.1949 172.581 82.2955 174.705 80.0846C176.31 78.4078 177.796 76.1375 179.103 73.333C179.608 72.2497 179.445 70.0684 178.836 69.6084C178.078 69.0594 176.622 69.2375 175.344 69.3859C175.107 69.4155 174.869 69.4452 174.646 69.4749C174.289 69.5194 173.933 69.7865 173.547 70.0684C173.309 70.2465 173.071 70.4246 172.819 70.5581C172.388 70.7955 171.942 70.9588 171.675 71.0775C171.6 71.1072 171.541 71.1368 171.496 71.1517L171.422 71.1814H171.333C170.605 70.9884 170.1 70.9884 169.788 71.1814C169.476 71.3891 169.327 71.8194 169.223 72.3981C169.104 73.0659 168.852 73.7039 168.614 74.3123C168.48 74.6684 168.332 75.0246 168.213 75.3955L168.168 75.5143C168.094 75.7517 167.916 76.3155 167.931 76.4936C169.654 77.933 169.505 79.6988 169.357 81.4201L169.372 81.4349ZM174.884 71.5375C175.255 71.3594 175.671 71.3446 176.072 71.3297C176.251 71.3297 176.414 71.3297 176.577 71.3001L176.83 71.2704L176.86 71.5226C176.875 71.6859 176.919 71.8491 176.949 72.0123C177.038 72.413 177.112 72.8284 177.008 73.2143C176.251 76.0039 174.304 77.7846 172.477 79.1646L172.15 79.4168L172.076 79.0162C171.273 74.6388 171.897 72.9768 174.869 71.5523L174.884 71.5375Z" fill="white"/>
<path d="M146.893 78.3488C146.908 78.6307 146.923 78.9126 146.923 79.1946C146.952 80.0552 146.982 80.9604 147.249 81.732C147.353 82.0436 147.814 82.3107 148.245 82.563C148.393 82.652 148.527 82.7262 148.676 82.8152C148.735 82.7262 148.795 82.6372 148.854 82.563C149.077 82.2365 149.3 81.9249 149.389 81.5836C149.612 80.723 149.82 79.8326 150.013 78.972C150.325 77.6217 150.637 76.212 151.068 74.8617C151.231 74.3423 151.766 74.001 152.271 73.6597C152.494 73.5114 152.702 73.3778 152.88 73.2294L153.103 73.0365L153.252 73.2888C153.371 73.4817 153.519 73.6894 153.668 73.8972C154.009 74.372 154.381 74.8617 154.411 75.4107C154.485 76.5385 154.47 77.681 154.455 78.7939C154.455 79.6397 154.425 80.5152 154.455 81.361C154.455 81.5836 154.678 81.8507 154.871 82.1178C154.931 82.192 154.99 82.2662 155.035 82.3404C155.124 82.2959 155.213 82.2365 155.302 82.192C155.495 82.0733 155.837 81.8804 155.881 81.7914C155.867 81.1236 155.852 80.4262 155.852 79.7139C155.822 77.0726 155.792 74.3572 155.361 71.7455C155.228 70.9443 154.856 70.3952 154.292 70.2023C153.623 69.9649 152.747 70.232 151.959 70.9294C151.38 71.4488 150.86 72.072 150.265 72.7991C149.953 73.1701 149.627 73.5855 149.24 74.0159L148.824 74.4907L148.795 73.8675C148.75 72.7397 148.705 71.6417 148.661 70.5733C148.542 67.6204 148.438 64.8455 148.2 62.0855C148.171 61.6552 147.74 61.2101 147.324 60.7649C147.205 60.6314 147.071 60.4978 146.952 60.3643C146.863 60.5126 146.759 60.6462 146.655 60.7946C146.328 61.2694 145.987 61.7591 146.001 62.1746C146.18 66.552 146.447 71.0184 146.729 75.3217L146.923 78.3488H146.893Z" fill="white"/>
<path d="M121.16 82.9933C121.16 83.7056 121.219 84.5662 121.65 84.952C121.873 85.1449 122.185 85.2043 122.601 85.1449C122.898 85.1004 123.493 83.8539 123.597 82.8746C123.73 81.5836 123.701 80.2778 123.671 78.8978C123.671 78.3191 123.641 77.7404 123.641 77.1468V76.8649L123.923 76.8946C124.547 76.9539 125.157 77.0281 125.751 77.1023C127.251 77.2804 128.663 77.4436 130.074 77.4881C130.401 77.4881 130.787 77.2656 131.189 77.0281C131.293 76.9688 131.397 76.9094 131.486 76.8501C131.397 76.7462 131.307 76.6423 131.233 76.5385C130.921 76.1675 130.609 75.7817 130.267 75.7075C129.153 75.4552 127.994 75.3365 126.657 75.203C126.078 75.1436 125.454 75.0843 124.77 74.9952L124.31 74.9359L126.152 72.6952C127.341 71.2559 128.44 69.9204 129.539 68.5701C129.629 68.4662 129.718 68.3475 129.822 68.2436C130.193 67.8133 130.594 67.3681 130.55 66.9378C130.52 66.7004 130.371 66.463 130.059 66.2107C129.703 65.9288 129.421 65.8249 129.168 65.8546C128.767 65.9139 128.455 66.3888 128.143 66.8339C128.009 67.0268 127.89 67.2049 127.742 67.3681C126.969 68.303 126.182 69.2378 125.246 70.3359L123.463 72.4578L123.433 71.8198C123.403 71.3746 123.389 71.0333 123.374 70.7662C123.344 70.2914 123.329 70.0094 123.329 69.7127C123.329 69.1043 123.329 68.4959 123.329 67.8727C123.344 66.4333 123.374 64.9346 123.225 63.4952C123.195 63.1688 122.735 62.8127 122.304 62.4565C122.17 62.3527 122.022 62.2339 121.888 62.1152C121.829 62.2191 121.754 62.323 121.695 62.412C121.457 62.7681 121.205 63.1391 121.19 63.4656C121.13 69.401 121.145 75.4404 121.145 81.272V82.9636L121.16 82.9933Z" fill="white"/>
<path d="M160.293 82.9185C162.18 83.5418 163.428 82.3843 164.543 81.1527C166.563 78.9121 166.994 76.4192 165.895 73.3179C165.285 71.5966 163.933 71.3443 162.507 71.0921C161.631 70.9289 160.709 70.7656 159.967 70.2314C159.699 70.3798 159.09 70.8843 159.031 71.1218C158.674 73.0211 158.421 74.9798 158.154 76.8643C158.065 77.4876 157.991 78.096 157.901 78.7192C157.901 80.7224 158.867 82.4437 160.279 82.9185H160.293ZM161.185 74.2527C161.512 73.7185 162.403 73.1547 162.997 73.2585C163.621 73.3624 164.201 74.2082 164.394 74.7721C165.137 77.0276 163.933 79.2237 161.096 80.8114L160.828 80.9598L160.739 80.6779C159.922 78.2443 160.071 76.1521 161.2 74.2676L161.185 74.2527Z" fill="white"/>
<path d="M101.281 82.8152C102.336 83.3049 103.673 83.112 104.773 82.2811C106.778 80.7823 107.863 78.8681 107.982 76.5978C107.848 74.4462 107.566 72.4133 105.649 71.3598C104.535 70.7514 103.183 70.4991 101.875 70.2469L101.593 70.1875C101.593 70.1875 101.563 70.1875 101.549 70.1875C101.281 70.1875 100.672 70.5733 100.627 70.7514C100.538 71.4933 100.434 72.2352 100.315 72.9772C99.9737 75.3959 99.6022 77.9185 99.7359 80.3372C99.7954 81.4649 100.36 82.3701 101.266 82.7856L101.281 82.8152ZM102.856 73.8675C103.51 73.1256 104.104 73.0514 104.475 73.1256C104.877 73.1998 105.441 73.5114 105.842 74.5649C106.674 76.7462 105.545 79.0314 102.841 80.6488L102.618 80.7823L102.485 80.5598C101.311 78.5417 101.474 75.4107 102.856 73.8675Z" fill="white"/>
<path d="M135.66 77.6951C136.7 77.799 137.77 77.6802 139.003 77.5319C139.568 77.4577 140.177 77.3835 140.831 77.339L141.41 77.2944L141.054 77.7544C140.712 78.1848 140.385 78.5706 140.088 78.9415C139.404 79.7577 138.825 80.4699 138.364 81.2267C138.216 81.4641 138.275 81.8944 138.335 82.3099C138.35 82.4286 138.364 82.5622 138.379 82.6809C138.513 82.6809 138.647 82.6661 138.795 82.6512C139.211 82.6364 139.672 82.6067 139.835 82.4286C141.187 80.9299 142.361 79.4164 143.327 77.9177C143.743 77.2648 144.025 76.1519 143.758 75.7067C143.52 75.2912 142.406 75.0241 141.618 75.0686C140.459 75.128 139.286 75.3357 137.934 75.5731C137.324 75.677 136.686 75.7957 135.987 75.8996L135.348 76.0035L135.75 75.499C137.785 72.9467 139.761 71.2254 142.807 71.1512C142.926 70.5873 142.881 70.2015 142.703 69.979C142.435 69.6525 141.826 69.6673 141.217 69.697C138.454 69.8602 136.582 71.6854 134.784 73.4364C134.561 73.659 134.338 73.8815 134.1 74.0893C133.476 74.6828 132.927 76.0035 133.046 76.226C133.595 76.9531 134.724 77.5912 135.66 77.6802V77.6951Z" fill="white"/>
<path d="M105.322 106.156L105.04 105.963C104.119 105.296 103.673 104.287 103.242 103.307C102.722 102.12 102.232 100.992 100.925 100.473C100.271 104.999 100.657 109.925 101.757 111.854L102.143 104.479L105.605 108.946L105.931 108.827L107.803 101.779L107.967 103.04C108.056 103.767 108.145 104.45 108.234 105.088C108.457 106.809 108.635 108.308 108.903 109.777C108.933 109.955 109.23 110.178 109.482 110.356C109.542 110.4 109.601 110.445 109.661 110.489C109.69 110.43 109.72 110.385 109.75 110.326C109.898 110.044 110.062 109.747 110.032 109.51C109.75 106.245 109.438 103.337 109.081 100.621C109.022 100.147 108.799 99.6866 108.561 99.2117C108.472 99.0337 108.398 98.8556 108.323 98.6924L107.833 98.7221L105.307 106.171L105.322 106.156Z" fill="white"/>
<path d="M130.238 100.651C130.193 101.333 130.238 102.061 130.297 102.773C130.386 103.826 130.46 104.895 130.208 105.904C129.836 107.388 130.46 108.471 131.129 109.599C131.545 110.311 131.976 111.053 132.139 111.899C132.228 111.943 132.451 112.002 132.659 112.062C132.793 112.092 132.956 112.136 133.12 112.181L131.753 106.824L135.036 104.791L135.066 105.192C135.452 109.51 135.75 111.513 136.478 111.899C136.894 112.121 137.577 111.839 138.543 111.335L138.706 111.246L140.132 112.67L140.34 112.537C140.251 111.602 140.266 110.667 140.266 109.747C140.281 107.788 140.296 105.919 139.523 104.138C139.345 104.761 139.256 105.384 139.167 105.993C139.107 106.408 139.048 106.824 138.959 107.239C138.795 108.026 138.498 108.797 138.201 109.539C138.067 109.866 137.948 110.192 137.83 110.519L137.755 110.726L136.314 110.444V110.222C136.344 109.792 136.374 109.361 136.403 108.931C136.463 107.892 136.537 106.809 136.567 105.755V105.518C136.596 105.162 136.626 104.346 136.507 104.212C135.928 103.93 135.096 103.841 134.398 104.004C133.863 104.123 133.358 104.42 132.763 104.746C132.481 104.91 132.169 105.088 131.842 105.251L131.515 105.414L131.486 105.043C131.456 104.732 131.411 104.42 131.382 104.108C131.144 102.09 130.906 100.176 132.882 98.796C131.976 98.5289 131.352 98.5289 130.966 98.796C130.55 99.0631 130.327 99.6567 130.267 100.651H130.238Z" fill="white"/>
<path d="M111.236 81.5982C111.28 81.9247 111.771 82.2957 112.335 82.7111C112.573 82.8892 112.826 83.0821 113.093 83.2898C113.138 83.0524 113.167 82.8595 113.212 82.6963C113.286 82.355 113.316 82.1769 113.286 82.0434C112.32 76.5234 114.163 72.2053 118.902 68.8369C119.051 68.7331 119.066 68.2137 119.08 67.8279C119.08 67.6795 119.08 67.5311 119.095 67.3828C118.932 67.3679 118.754 67.3382 118.59 67.3234C118.085 67.2492 117.58 67.1898 117.342 67.3679C116.243 68.2137 115.232 69.1931 114.178 70.2318C113.762 70.6324 113.331 71.0479 112.885 71.4634L112.588 71.7453L112.469 71.3595C112.365 70.9886 112.32 70.5731 112.276 70.1576C112.202 69.4305 112.127 68.7331 111.667 68.4215C111.325 68.184 110.79 68.1395 110.018 68.3027C110.107 69.3563 110.196 70.4098 110.27 71.4634C110.552 74.9505 110.82 78.2447 111.221 81.5982H111.236Z" fill="white"/>
<path d="M158.778 126.47C158.986 127.286 159.105 128.087 159.209 128.874C159.432 130.476 159.64 131.99 160.605 133.325C160.858 132.94 160.977 132.554 160.932 132.212C160.68 129.438 160.412 126.47 160.041 123.547C159.981 123.087 159.759 122.627 159.521 122.152C159.461 122.033 159.417 121.929 159.357 121.811C159.253 121.914 159.164 122.003 159.06 122.107C158.644 122.508 158.258 122.879 158.08 123.324C157.604 124.496 157.248 125.743 156.861 127.049C156.698 127.612 156.52 128.206 156.326 128.814L156.163 129.349L152.196 122.805C151.156 126.989 151.468 132.672 152.79 134.468V126.663L156.698 131.975L158.555 125.609L158.778 126.5V126.47Z" fill="white"/>
<path d="M155.613 104.539C155.703 106.958 155.851 109.065 156.074 110.979C156.104 111.202 156.356 111.454 156.683 111.78C156.802 111.899 156.921 112.018 157.04 112.151L158.674 106.913L158.956 107.462C159.313 108.174 159.461 108.857 159.58 109.525C159.64 109.851 159.714 110.163 159.803 110.474C159.877 110.712 160.145 110.949 160.397 111.172C160.472 111.231 160.531 111.291 160.605 111.35C160.65 111.305 160.709 111.261 160.754 111.216C160.977 111.009 161.2 110.801 161.289 110.578C161.512 110.014 161.675 109.436 161.868 108.694C161.957 108.353 162.061 107.982 162.18 107.566L162.388 106.824L164.201 111.691L164.944 111.483C164.855 110.994 164.765 110.504 164.676 110.014C164.439 108.679 164.186 107.284 163.874 105.949C163.725 105.355 163.458 104.806 163.161 104.227C163.072 104.049 162.983 103.886 162.908 103.708L161.333 104.91L161.185 104.836C160.917 104.687 160.635 104.494 160.353 104.316C160.011 104.094 159.432 103.708 159.283 103.738C158.808 104.005 158.466 104.569 158.154 105.058C158.035 105.251 157.916 105.444 157.812 105.593L157.604 105.86L156.163 103.901C156.163 103.901 156.074 103.975 156.029 104.02C155.866 104.168 155.599 104.405 155.599 104.509L155.613 104.539Z" fill="white"/>
<path d="M188.79 173.702C188.701 173.004 188.225 172.159 187.869 172.04C187.349 171.877 186.279 172.203 186.012 172.619C185.061 174.117 184.169 175.839 183.219 178.05C183.085 178.361 183.382 179.222 183.679 179.43C184.006 179.637 184.808 179.608 185.239 179.341C185.759 179.029 186.22 178.584 186.74 178.064C186.992 177.827 187.245 177.56 187.542 177.293L187.884 176.981L187.958 177.441C188.017 177.857 188.077 178.243 188.136 178.614C188.255 179.355 188.359 180.008 188.448 180.661C188.79 183.243 188.953 184.549 188.329 185.321C187.735 186.063 186.487 186.211 184.08 186.419C185.521 187.65 186.948 187.339 187.943 186.819C188.82 186.359 189.875 185.009 189.86 184.104C189.785 180.943 189.34 177.738 188.924 174.637L188.805 173.717L188.79 173.702Z" fill="white"/>
<path d="M176.577 137.555C176.339 134.395 175.864 131.249 175.418 128.192C175.329 127.584 174.898 126.782 174.616 126.723C173.992 126.589 173.026 126.827 172.669 127.213C171.57 128.415 170.827 129.557 170.456 130.64C170.04 131.842 169.891 133.608 170.307 133.935C171.377 134.78 172.209 133.964 173.293 132.703L173.412 132.569C173.531 132.421 173.724 132.362 173.932 132.288C174.036 132.258 174.14 132.213 174.274 132.154L174.571 132.02L175.032 134.855C175.448 137.407 175.685 138.817 175.061 139.677C174.467 140.493 173.189 140.731 170.901 141.102C170.901 141.117 170.931 141.146 170.946 141.161C171.065 141.354 171.198 141.547 171.302 141.577C172.966 142.096 174.408 141.962 175.373 141.206C176.294 140.479 176.74 139.173 176.606 137.555H176.577Z" fill="white"/>
<path d="M138.974 160.466C138.677 157.112 138.186 153.759 137.741 150.865C137.651 150.242 137.221 149.426 136.968 149.381C136.329 149.248 135.378 149.485 134.992 149.886C133.967 150.954 133.254 152.067 132.912 153.091C132.451 154.486 132.229 156.251 132.645 156.593C133.729 157.468 134.502 156.726 135.557 155.48C135.675 155.346 135.779 155.213 135.883 155.094C136.002 154.96 136.151 154.946 136.344 154.931C136.433 154.931 136.522 154.901 136.641 154.886L136.894 154.842L137.117 156.103C137.235 156.815 137.354 157.513 137.473 158.225C137.859 160.644 137.934 161.771 137.339 162.513C136.76 163.24 135.631 163.433 133.298 163.597C133.269 163.626 133.239 163.686 133.209 163.73C133.179 163.775 133.15 163.819 133.12 163.864C134.398 164.873 135.839 164.606 137.206 164.146C138.573 163.7 139.137 162.499 138.959 160.495L138.974 160.466Z" fill="white"/>
<path d="M157.516 160.451C157.219 157.142 156.728 153.759 156.283 150.851C156.194 150.272 155.807 149.486 155.451 149.352C154.975 149.174 154.039 149.352 153.712 149.708C152.91 150.584 151.915 151.771 151.454 153.091C150.994 154.397 150.771 156.237 151.202 156.579C152.286 157.439 153.059 156.697 154.099 155.466C154.218 155.332 154.322 155.199 154.44 155.08C154.559 154.946 154.723 154.931 154.901 154.917C154.99 154.917 155.079 154.902 155.198 154.887L155.451 154.842L155.495 155.095C155.57 155.466 155.629 155.851 155.703 156.222C155.852 157.039 156 157.869 156.134 158.7C156.431 160.57 156.476 161.802 155.837 162.559C155.198 163.315 153.965 163.493 152.034 163.553C151.989 163.553 151.87 163.642 151.751 163.716C151.722 163.746 151.677 163.76 151.647 163.79C153.014 164.814 154.44 164.562 155.792 164.117C157.159 163.671 157.709 162.499 157.531 160.451H157.516Z" fill="white"/>
<path d="M123.834 106.052C123.388 106.245 123.032 107.076 122.853 107.521L122.705 107.863C122.155 109.154 121.62 110.37 122.898 111.29C124.012 112.106 124.74 111.498 125.81 110.4C125.914 110.281 126.033 110.177 126.137 110.059C126.256 109.94 126.434 109.91 126.568 109.881C126.612 109.881 126.657 109.881 126.687 109.851L126.939 109.777L126.999 110.029C127.92 113.932 127.994 114.258 128.96 114.288L128.677 111.528C128.276 107.506 127.86 103.366 127.4 99.2858C127.385 99.1375 127.147 98.9297 126.88 98.6774C126.776 98.5884 126.672 98.4994 126.568 98.3955C126.538 98.5587 126.508 98.7071 126.479 98.8407C126.389 99.2562 126.33 99.5381 126.36 99.7755C126.642 101.942 126.984 104.643 123.849 106.008L123.834 106.052Z" fill="white"/>
<path d="M120.981 183.362C121.041 183.792 121.234 184.222 121.427 184.667C121.487 184.801 121.546 184.949 121.605 185.083L122.051 184.949C122.081 184.489 122.096 184.015 122.111 183.54C122.14 182.323 122.17 181.062 122.631 179.978C123.121 178.821 124.027 177.842 124.889 176.877C125.26 176.462 125.661 176.031 126.003 175.601C126.048 175.542 126.181 175.393 126.181 175.304C126.241 174.473 126.285 173.642 126.33 172.797L126.36 172.292C126.137 172.292 125.929 172.307 125.706 172.322C124.889 172.351 124.042 172.396 123.225 172.47C123.165 172.47 123.032 172.589 122.943 172.663C122.764 172.811 122.571 172.975 122.333 172.96C122.229 172.96 122.125 172.96 122.021 172.96C121.501 172.96 121.1 173.093 120.818 173.346C120.253 173.865 120.239 174.874 120.224 175.616C120.224 175.824 120.224 176.017 120.209 176.18C120.06 177.975 120.387 179.86 120.699 181.685C120.803 182.249 120.892 182.827 120.981 183.391V183.362Z" fill="white"/>
<path d="M166.533 109.391C166.682 109.969 166.83 110.563 166.875 111.156C166.92 111.794 166.875 112.462 166.816 113.1C166.712 114.525 166.608 115.875 167.499 117.003L167.974 116.973C168.004 116.795 168.034 116.632 168.064 116.454C168.168 115.934 168.257 115.43 168.242 114.94C168.168 112.759 168.777 111.201 170.188 109.895C171.035 109.109 171.763 107.951 172.476 106.23C172.729 105.607 172.595 104.434 172.209 104.108C171.837 103.781 170.812 103.841 169.965 104.049C169.237 104.227 168.539 104.553 167.856 104.865C167.588 104.983 167.336 105.102 167.083 105.206C165.805 106.527 166.162 107.907 166.533 109.376V109.391Z" fill="white"/>
<path d="M114.593 178.598C115.128 178.079 115.558 177.441 115.974 176.818C116.153 176.565 116.316 176.313 116.48 176.091L116.658 175.838L116.866 176.076C117.326 176.58 117.401 177.218 117.475 177.842C117.579 178.747 117.668 179.533 118.827 180.008C118.797 179.266 118.768 178.554 118.738 177.842C118.649 175.749 118.574 173.791 118.396 171.847C118.337 171.09 117.846 170.111 117.594 170.066C116.896 169.947 115.93 170.348 115.365 170.793C113.107 172.603 112.929 175.378 112.765 177.827C112.736 178.227 112.973 178.88 113.092 179.014C113.568 179.058 114.266 178.925 114.593 178.598Z" fill="white"/>
<path d="M128.574 153.031L128.93 152.527L129.019 153.135C129.524 156.533 129.569 156.771 130.758 156.979C130.728 156.34 130.698 155.702 130.654 155.064C130.564 153.195 130.475 151.251 130.282 149.366C130.208 148.565 129.792 147.497 129.406 147.378C128.9 147.2 127.92 147.63 127.207 148.135C125.632 149.262 124.102 153.937 124.681 155.836C124.785 156.148 124.963 156.533 125.275 156.608C125.558 156.667 125.959 156.474 126.345 156.088C126.865 155.554 127.296 154.916 127.801 154.174C128.039 153.818 128.291 153.447 128.574 153.061V153.031Z" fill="white"/>
<path d="M166.518 130.225L166.593 130.625C167.202 133.608 167.261 133.89 168.42 134.557C168.376 133.756 168.331 132.97 168.301 132.198C168.197 130.195 168.108 128.31 167.93 126.441C167.841 125.417 167.544 124.764 167.098 124.571C166.637 124.363 165.909 124.601 165.003 125.268C162.968 126.767 161.913 130.685 162.685 133.726C163.993 133.845 164.483 132.999 165.033 132.005C165.345 131.441 165.672 130.863 166.177 130.462L166.489 130.21L166.518 130.225Z" fill="white"/>
<path d="M178.375 177.411C178.717 176.833 179.058 176.239 179.623 175.927L179.905 175.779L181.124 180.023L181.777 179.845C181.748 179.177 181.718 178.495 181.688 177.827C181.599 175.898 181.525 173.909 181.346 171.965C181.287 171.194 180.871 170.229 180.589 170.14C179.994 169.977 178.954 170.259 178.405 170.734C175.968 172.856 175.612 175.631 175.879 179.133C177.29 179.251 177.825 178.346 178.375 177.411Z" fill="white"/>
<path d="M111.948 134.898C112.424 135.447 112.929 136.011 113.494 136.442C113.672 136.575 113.999 136.605 114.326 136.62C114.385 136.62 114.43 136.62 114.489 136.62C114.489 136.59 114.489 136.546 114.489 136.516C114.459 136.234 114.415 135.952 114.296 135.804C113.464 134.824 112.558 133.86 111.577 132.94C110.418 131.842 110.002 130.669 110.18 128.993C110.552 125.491 110.567 125.431 106.436 124.007C106.288 124.823 106.124 125.624 105.961 126.411C105.56 128.384 105.174 130.239 105.129 132.124C105.099 133.103 105.396 133.8 105.961 134.082C106.6 134.409 107.521 134.171 108.442 133.474C108.635 133.326 108.828 133.162 109.081 132.94C109.215 132.821 109.378 132.673 109.571 132.509L109.764 132.346L109.928 132.539C110.121 132.762 110.299 132.984 110.478 133.207C110.864 133.667 111.22 134.112 111.607 134.527L111.948 134.913V134.898ZM108.264 130.892C107.907 131.545 107.566 132.168 107.372 132.836L107.164 133.548L106.897 132.851C105.812 129.942 106.466 127.375 108.695 125.787L108.947 125.609L109.066 125.906C109.898 127.909 109.066 129.423 108.264 130.892Z" fill="white"/>
<path d="M117.966 102.832L116.629 104.865L115.217 103.025L114.965 103.129V111.706C116.198 111.231 116.465 110.148 116.733 109.005C116.956 108.07 117.193 107.091 118.025 106.512L118.233 106.364L118.382 106.571C118.828 107.209 118.976 107.966 119.125 108.693C119.377 109.925 119.6 110.993 121.056 111.498L118.679 103.01L117.966 102.847V102.832Z" fill="white"/>
<path d="M143.178 148.594C143.178 149.188 143.178 149.767 143.178 150.36C143.178 152.082 143.164 153.847 143.223 155.584C143.223 155.94 143.416 156.325 143.609 156.711C143.639 156.785 143.684 156.86 143.713 156.934C143.773 156.874 143.832 156.8 143.892 156.741C144.218 156.4 144.516 156.088 144.679 155.717C145.036 154.886 145.333 154.011 145.63 153.091C145.764 152.675 145.897 152.26 146.046 151.829L146.194 151.384L146.477 151.77C147.041 152.512 147.234 153.373 147.442 154.204C147.74 155.45 148.022 156.622 149.448 157.379C149.314 156.83 149.181 156.296 149.047 155.776C148.453 153.417 147.933 151.369 147.309 149.336C147.116 149.218 146.209 149.099 145.764 149.262C145.585 149.322 145.422 149.737 145.318 150.034C145.244 150.212 145.184 150.375 145.11 150.509L144.887 150.924L143.58 148.461L143.178 148.594Z" fill="white"/>
<path d="M111.265 151.059C111.22 150.984 111.176 150.895 111.131 150.821L107.164 156.415L105.827 155.881L105.857 155.688C105.946 155.095 106.035 154.486 106.124 153.893C106.407 152.038 106.689 150.124 107.075 148.269C107.164 147.839 107.863 147.601 108.947 147.364C109.274 147.289 109.616 147.364 109.943 147.453C110.002 147.468 110.076 147.482 110.136 147.497L110.27 147.2C110.091 147.097 109.913 146.993 109.75 146.874C109.289 146.577 108.814 146.266 108.442 146.266C108.412 146.266 108.383 146.266 108.368 146.266C107.61 146.355 106.466 146.993 106.318 147.542C105.486 150.762 105.055 153.225 104.921 155.54C104.876 156.326 105.203 156.964 105.798 157.231C106.422 157.513 107.179 157.335 107.803 156.742C109.007 155.599 109.943 154.115 110.849 152.691C111.087 152.335 111.31 151.964 111.547 151.608C111.547 151.563 111.354 151.251 111.235 151.044L111.265 151.059Z" fill="white"/>
<path d="M137.77 179.92C138.023 179.994 138.335 179.92 138.677 179.846C138.914 179.786 139.182 179.727 139.449 179.727C139.88 179.727 140.296 179.875 140.608 180.439C140.638 180.395 140.682 180.365 140.712 180.32C140.95 180.053 141.202 179.771 141.202 179.564C141.202 177.279 141.084 175.023 140.95 173.124C140.92 172.797 140.801 172.456 140.608 171.996C140.563 171.877 140.519 171.759 140.46 171.625C140.103 172.441 139.999 173.317 139.88 174.148C139.672 175.765 139.449 177.427 137.458 178.48L137.042 178.703L137.087 178.243C137.131 177.783 137.176 177.338 137.221 176.878C137.34 175.72 137.473 174.533 137.503 173.361C137.503 173.094 137.31 172.768 137.102 172.456C137.042 172.367 136.983 172.278 136.938 172.189C136.879 172.219 136.805 172.263 136.745 172.293C136.567 172.382 136.285 172.545 136.24 172.619C136.181 174.548 136.106 176.551 136.329 178.48C136.389 178.97 137.146 179.727 137.756 179.905L137.77 179.92Z" fill="white"/>
<path d="M110.032 170.126C109.348 169.251 108.576 168.746 107.892 168.746C107.833 168.746 107.788 168.746 107.729 168.746C107.194 168.805 106.778 169.206 106.54 169.904C105.574 172.738 105.233 175.869 104.995 178.569C104.95 179.074 105.099 179.474 105.426 179.742C105.812 180.053 106.436 180.098 107.105 179.875C108.858 179.282 110.968 176.344 111.25 173.584L107.016 179.118L105.782 178.495L107.238 169.577L110.002 170.126H110.032Z" fill="white"/>
<path d="M156.341 174.77C156.297 174.637 156.252 174.488 156.223 174.369L155.866 174.117L152.612 178.554C153.86 177.604 155.123 176.566 156.505 175.364C156.505 175.245 156.401 174.963 156.341 174.785V174.77Z" fill="white"/>
<path d="M152.226 175.424C152.627 175.142 152.999 174.889 153.236 174.548C153.563 174.073 153.637 172.931 153.355 172.619C153.162 172.396 152.523 172.263 152.048 172.248C151.795 172.248 151.602 172.248 151.528 172.322L151.483 172.396C150.146 174.266 148.764 176.21 149.522 178.614C149.656 179.044 150.74 179.682 151.023 179.712C151.29 179.534 151.557 179.341 151.81 179.148L150.8 178.169V178.094C150.503 176.625 151.424 176.002 152.226 175.438V175.424Z" fill="white"/>
<path d="M166.608 180.039L166.965 180.009V176.106L171.838 172.901L171.615 172.545L167.113 174.37L167.009 174.148C166.044 171.922 167.411 171.12 168.614 170.408C169.387 169.948 170.129 169.518 170.323 168.731L165.152 170.379C165.316 171.432 165.36 172.53 165.405 173.613C165.494 175.78 165.583 178.006 166.608 180.053V180.039Z" fill="white"/>
<path d="M121.472 133.727C121.724 134.202 122.021 134.498 122.274 134.558C122.928 134.691 124.28 133.935 125.632 132.688C127.088 131.353 128.053 129.898 128.024 129.127C128.009 129.127 127.994 129.097 127.964 129.082C127.92 129.053 127.845 129.008 127.771 128.949L123.136 133.252L121.962 132.273L122.155 132.08C122.437 131.783 122.735 131.471 123.017 131.175C123.656 130.492 124.324 129.795 125.008 129.127C125.394 128.741 125.587 128.385 125.557 128.044C125.543 127.702 125.305 127.346 124.874 126.99C124.503 126.693 124.161 126.545 123.849 126.545C123.789 126.545 123.73 126.545 123.671 126.56C123.314 126.619 123.002 126.886 122.735 127.331C122.007 128.548 121.472 129.587 121.085 130.581C120.729 131.471 121.026 132.866 121.487 133.727H121.472Z" fill="white"/>
<path d="M80.6746 179.785C81.1797 179.118 81.15 178.331 81.1203 177.485C81.0757 176.343 81.0163 175.067 82.5169 174.251C81.0311 173.687 81.0163 172.47 81.0014 171.387C81.0014 170.689 80.9866 170.036 80.6597 169.487C79.1146 170.467 78.3123 171.936 77.4803 173.494C77.0791 174.221 76.678 174.978 76.1729 175.72H79.798L80.6746 179.771V179.785Z" fill="white"/>
<path d="M118.396 126.589C118.262 127.153 118.218 127.746 118.188 128.37C118.069 130.091 117.95 131.871 115.781 133.103L115.38 133.326L115.41 132.866C115.44 132.42 115.484 131.975 115.514 131.53C115.603 130.447 115.707 129.319 115.707 128.221C115.707 127.865 115.529 127.494 115.336 127.093C115.306 127.034 115.276 126.975 115.246 126.9C115.202 126.96 115.142 127.019 115.098 127.079C114.816 127.405 114.533 127.731 114.489 128.043C114.31 129.586 114.177 131.07 114.459 132.42C114.652 133.326 115.722 134.483 116.004 134.468C116.39 134.409 116.777 134.364 117.133 134.364C117.861 134.364 118.53 134.542 119.109 135.18C119.882 132.257 119.392 127.895 118.396 126.589Z" fill="white"/>
<path d="M131.173 131.411C131.708 130.803 132.258 130.165 132.733 129.497C133.001 129.111 133.64 128.221 133.536 127.672C133.461 127.301 132.644 126.663 132.258 126.663C132.258 126.663 132.228 126.663 132.213 126.663C131.783 126.722 131.203 127.197 130.639 127.984C130.044 128.8 129.732 129.512 129.703 130.091C129.703 130.328 129.673 130.566 129.658 130.818C129.584 132.094 129.495 133.533 130.089 134.201C130.327 134.483 130.579 134.617 130.861 134.646C131.5 134.691 132.243 134.023 132.897 133.444C133.031 133.326 133.149 133.207 133.283 133.103C133.447 132.955 133.625 132.806 133.788 132.673C134.546 132.02 135.333 131.352 135.972 130.595C136.136 130.402 136.151 129.987 136.151 129.586C136.151 129.497 136.151 129.408 136.151 129.334C136.076 129.349 136.002 129.364 135.928 129.379C135.541 129.468 135.17 129.542 134.977 129.735C134.16 130.551 133.387 131.456 132.644 132.331C132.347 132.673 132.05 133.029 131.753 133.37L131.589 133.563L130.312 132.391L130.46 132.213C130.683 131.946 130.921 131.679 131.159 131.411H131.173Z" fill="white"/>
<path d="M113.42 151.206C113.212 152.497 113.004 153.729 112.959 154.946C112.944 155.435 113.004 156.326 113.538 156.845C113.836 157.127 114.252 157.261 114.772 157.216C116.896 157.068 117.52 155.213 117.713 154.13C118.04 152.201 117.55 151.028 116.124 150.464C115.648 150.271 115.143 150.138 114.504 149.975C114.237 149.901 113.954 149.826 113.642 149.737C113.568 150.242 113.494 150.731 113.405 151.206H113.42Z" fill="white"/>
<path d="M182.03 111.706C182.297 111.587 182.564 111.483 182.847 111.379C183.619 111.083 184.332 110.801 184.793 110.296C185.417 109.614 185.729 108.441 185.58 107.314C185.462 106.468 185.12 105.8 184.63 105.488C184.035 105.118 183.322 104.895 182.49 104.658C182.148 104.554 181.792 104.45 181.42 104.331C181.346 104.806 181.257 105.266 181.168 105.711C180.945 106.898 180.737 107.907 180.796 108.931C180.841 109.599 181.212 110.267 181.628 110.964C181.762 111.201 181.911 111.454 182.044 111.706H182.03Z" fill="white"/>
<path d="M133.18 173.094C133.7 172.96 134.175 172.693 134.68 172.411C134.859 172.307 135.022 172.218 135.2 172.129L135.067 171.669L131.114 172.367L131.04 172.174C130.758 171.387 130.743 170.556 130.743 169.74C130.743 168.583 130.728 167.485 129.971 166.461C129.48 167.5 129.599 168.672 129.703 169.785C129.852 171.462 130.015 173.183 128.247 174.459C129.911 174.771 130.015 176.062 130.119 177.13C130.134 177.338 130.149 177.545 130.179 177.738C130.208 177.902 130.208 178.08 130.223 178.258C130.268 179.044 130.312 179.697 131.397 179.905C131.382 179.549 131.367 179.207 131.367 178.881C131.337 177.961 131.322 177.085 131.159 176.254C130.817 174.518 131.456 173.554 133.195 173.094H133.18Z" fill="white"/>
<path d="M181.019 133.237C181.494 133.727 182.208 134.483 182.43 134.498C183.352 134.038 184.184 133.237 184.986 132.451C185.238 132.198 185.506 131.946 185.758 131.709C184.644 130.433 184.481 128.86 184.332 127.45C184.317 127.405 184.169 127.272 184.094 127.242C183.976 127.272 183.842 127.287 183.708 127.316C183.262 127.405 182.698 127.509 182.549 127.747C181.925 128.682 181.405 129.691 180.811 130.863C180.588 131.308 180.336 131.783 180.083 132.287C180.395 132.584 180.722 132.925 181.034 133.252L181.019 133.237Z" fill="white"/>
<path d="M79.9757 127.182L80.8077 127.701L77.658 134.542L77.9552 134.75L84.1654 131.945L84.106 131.678L80.4214 132.049L80.5106 131.708C80.6294 131.248 80.7483 130.803 80.8672 130.343C81.1494 129.319 81.4317 128.28 81.5952 127.227C81.6843 126.648 81.5209 126.114 81.194 125.861C80.9414 125.669 80.5997 125.654 80.1986 125.832C79.2032 126.262 78.2672 126.96 77.3757 127.612C77.034 127.865 76.7072 128.117 76.3506 128.354L76.722 128.933L79.9609 127.167L79.9757 127.182Z" fill="white"/>
<path d="M82.2791 155.109C83.1259 153.165 82.7099 152.215 80.4665 150.835L80.3031 150.731L81.2242 147.763C79.0996 147.571 77.6139 148.075 76.4551 149.351L76.5442 149.648L79.4414 149.203L77.3316 152.883L77.5991 153.18L81.2985 152.156L82.0859 153.135L79.4859 156.874C80.7934 157.112 81.6254 156.578 82.2642 155.094L82.2791 155.109Z" fill="white"/>
<path d="M148.541 171.105C147.264 170.571 146.669 171.18 146.031 171.803C145.704 172.144 145.362 172.485 144.916 172.649L144.783 172.693L142.955 171.194C142.762 176.447 143.237 178.866 144.664 179.682C143.965 176.343 145.213 173.598 148.527 171.105H148.541Z" fill="white"/>
<path d="M192.281 103.634C192.281 103.634 192.162 103.693 192.103 103.723C191.865 103.827 191.597 103.96 191.538 104.094C191.167 104.969 190.869 105.904 190.557 106.883C190.439 107.269 190.305 107.67 190.171 108.085L190.008 108.59L187.259 104.079L186.68 104.391L189.8 112.047L190.26 111.958L190.795 110.296C191.419 108.367 192.058 106.379 192.623 104.391C192.652 104.272 192.504 104.005 192.4 103.797C192.37 103.738 192.34 103.693 192.311 103.634H192.281Z" fill="white"/>
<path d="M142.673 111.662C142.673 111.662 142.718 111.691 142.733 111.706C143.193 107.566 143.193 103.767 143.134 100.28C143.134 100.028 142.881 99.7313 142.644 99.4345C142.569 99.3306 142.48 99.2416 142.406 99.1377L142.079 99.2861V101.764C142.079 104.791 142.079 107.922 142.124 111.009C142.124 111.172 142.436 111.439 142.688 111.647L142.673 111.662Z" fill="white"/>
<path d="M119.927 156.964C120.031 157.083 120.15 157.202 120.254 157.335C121.116 153.076 120.551 146.547 119.229 144.826C119.229 145.642 119.229 146.444 119.229 147.23C119.229 150.257 119.214 153.121 119.288 156C119.288 156.252 119.585 156.578 119.927 156.949V156.964Z" fill="white"/>
<path d="M143.253 125.639C141.975 125.179 141.366 125.832 140.712 126.529C140.311 126.96 139.94 127.36 139.42 127.464L139.271 127.494L137.993 125.802C137.458 129.052 138.053 132.851 139.271 134.364C138.84 130.922 140.118 128.117 143.268 125.639H143.253Z" fill="white"/>
<path d="M173.992 167.292H173.413C173.413 167.292 173.339 167.351 173.294 167.381C173.22 167.44 173.116 167.529 173.086 167.574V167.886C173.086 171.521 173.101 175.26 173.22 178.955C173.22 179.163 173.532 179.445 173.814 179.697C173.918 179.786 174.022 179.89 174.126 179.994L174.408 179.846C174.408 178.777 174.408 177.709 174.408 176.64C174.423 173.569 174.438 170.378 173.992 167.292Z" fill="white"/>
<path d="M177.245 103.901C176.889 104.272 176.562 104.628 176.116 104.806L175.953 104.865L174.482 103.1L174.17 103.263C174.318 104.153 174.363 105.058 174.408 105.949C174.497 107.729 174.586 109.555 175.492 111.246C175.492 107.804 176.933 105.177 180.009 103.055C178.568 102.506 177.929 103.189 177.26 103.901H177.245Z" fill="white"/>
<path d="M122.587 144.588L122.186 144.722V147.022C122.186 150.093 122.186 153.269 122.23 156.4C122.23 156.518 122.483 156.756 122.661 156.919C122.706 156.964 122.765 157.008 122.81 157.053C122.869 156.993 122.928 156.934 122.973 156.875C123.181 156.652 123.419 156.4 123.419 156.222C123.419 152.809 123.33 149.366 123.181 145.998C123.181 145.656 122.973 145.3 122.765 144.929C122.706 144.811 122.631 144.692 122.572 144.573L122.587 144.588Z" fill="white"/>
<path d="M77.257 111.839L77.3758 109.94C77.5393 107.432 77.6878 104.835 77.8067 102.283C77.8067 102.164 77.6136 101.942 77.4501 101.764C77.3907 101.689 77.3164 101.615 77.257 101.541L77.0193 101.6L76.9301 102.357C76.5884 105.458 76.2318 108.664 76.841 111.809L77.257 111.839Z" fill="white"/>
<path d="M113.464 111.513C113.404 110.949 113.36 110.385 113.315 109.821C113.152 107.966 112.973 106.067 112.721 104.197C112.691 103.945 112.394 103.663 112.112 103.396L112.082 103.366C111.755 107.848 111.978 110.251 112.765 111.127C112.958 111.335 113.181 111.468 113.464 111.513Z" fill="white"/>
<path d="M178.85 134.439C178.925 134.528 178.999 134.602 179.058 134.691L179.415 134.498C179.37 133.904 179.326 133.326 179.266 132.732C179.103 130.729 178.94 128.651 178.702 126.619C178.687 126.485 178.345 126.262 178.122 126.114C178.048 126.069 177.974 126.025 177.914 125.98C177.885 126.025 177.855 126.069 177.825 126.129C177.677 126.366 177.528 126.619 177.543 126.797C177.766 129.304 178.018 131.56 178.33 133.652C178.375 133.904 178.598 134.171 178.836 134.439H178.85Z" fill="white"/>
<path d="M154.143 110.474C153.846 108.04 153.579 105.726 153.252 103.44C153.148 103.381 152.895 103.322 152.717 103.277C152.643 103.262 152.583 103.247 152.509 103.218C152.212 107.447 152.895 110.622 154.307 111.75L154.158 110.459L154.143 110.474Z" fill="white"/>
<path d="M141.618 156.949C142.02 153.002 141.173 149.604 140.088 148.832C139.672 152.69 140.534 156.148 141.618 156.949Z" fill="white"/>
<path d="M83.9874 190.633C83.6903 190.588 83.3337 190.559 82.9326 190.559C82.6057 190.559 82.1897 190.618 81.6846 190.737C81.1794 190.855 82.16 190.499 81.6251 190.677C81.0903 190.841 80.5851 191.033 80.1097 191.212C79.6343 191.404 79.248 191.568 78.9657 191.686C78.9063 191.686 78.8766 191.657 78.8468 191.612C78.832 191.568 78.7874 191.538 78.728 191.538C78.52 191.538 78.2526 191.671 77.9406 191.924C77.6137 192.176 77.3017 192.473 76.9897 192.799C76.6777 193.126 76.4103 193.467 76.1874 193.793C75.9646 194.12 75.8457 194.357 75.8457 194.491C75.8457 194.773 75.92 195.01 76.0686 195.188C76.2171 195.366 76.4103 195.5 76.6183 195.589C76.8411 195.678 77.064 195.737 77.2868 195.752C77.5097 195.782 77.7177 195.797 77.8811 195.797C78.1486 195.797 78.3417 195.797 78.4457 195.767C78.5646 195.752 78.6686 195.737 78.7874 195.737C78.8766 195.737 79.04 195.752 79.2628 195.797C79.4857 195.841 79.7086 195.886 79.9314 195.96C80.1543 196.034 80.3623 196.123 80.5406 196.212C80.7188 196.301 80.808 196.405 80.808 196.524C80.808 196.687 80.704 196.85 80.5108 196.984C80.3177 197.117 80.08 197.236 79.8274 197.34C79.5748 197.444 79.3371 197.518 79.0994 197.562C78.8766 197.607 78.7428 197.637 78.6983 197.637C78.5497 197.637 78.3863 197.607 78.2228 197.562C78.0594 197.518 77.9108 197.488 77.7771 197.488C77.6583 197.488 77.6137 197.533 77.6137 197.607C77.6137 197.963 77.7623 198.29 78.0446 198.586C78.3268 198.883 78.6537 199.032 79.0103 199.032C79.1291 199.032 79.3668 198.987 79.7383 198.898C80.1097 198.809 80.4811 198.69 80.8674 198.512C81.2537 198.349 81.6103 198.141 81.9223 197.889C82.2343 197.637 82.3977 197.355 82.3977 197.043C82.3977 196.509 82.2194 196.079 81.848 195.722C81.4766 195.366 81.0606 195.099 80.5851 194.921C80.1097 194.728 79.6491 194.595 79.1886 194.521C78.728 194.446 78.416 194.402 78.2228 194.402C78.104 194.402 78 194.402 77.9108 194.372C77.8217 194.357 77.7326 194.328 77.6583 194.313C77.584 194.298 77.5246 194.268 77.4948 194.224C77.584 194.075 77.7474 193.897 77.9554 193.704C78.1634 193.511 78.312 193.363 78.416 193.259C78.4308 193.259 78.4606 193.259 78.5051 193.304C78.5497 193.333 78.5794 193.348 78.624 193.348C78.6834 193.348 78.8766 193.23 79.1886 193.007C79.5154 192.784 80.0057 192.517 80.6594 192.206C81.3726 191.879 80.6 192.117 81.3428 191.909C82.0857 191.701 82.9028 191.449 83.8091 191.167C84.24 191.019 84.4628 190.9 84.4628 190.826C84.4628 190.707 84.3143 190.633 84.0023 190.588L83.9874 190.633Z" fill="white"/>
</svg>
