<svg width="290" height="230" viewBox="0 0 290 230" fill="none" xmlns="http://www.w3.org/2000/svg">
<path d="M151.335 85.0113C171.04 93.039 191.013 98.7519 212.354 98.5442L212.444 98.9003C208.636 101.779 204.829 104.658 200.933 107.596C202.256 108.13 203.506 108.605 204.74 109.109C215.031 113.264 221.664 120.55 223.687 131.575C225.159 139.677 222.155 146.265 216.117 151.593C211.893 155.317 206.896 157.647 201.632 159.502C194.523 161.994 187.176 163.36 179.711 164.25C173.123 165.036 166.519 165.467 159.902 165.14C151.365 164.725 142.799 164.294 134.619 161.505C131.749 160.525 129.013 159.16 126.113 157.914C124.179 159.338 122.157 160.882 120.075 162.351C115.405 165.63 110.735 168.894 106.006 172.1C105.471 172.456 104.593 172.574 103.954 172.441C100.355 171.714 96.7856 170.868 93.1866 170.067C84.3677 168.123 75.5338 166.238 66.7297 164.22C54.0441 161.327 41.3584 158.478 28.7472 155.317C21.7425 153.551 15.0948 150.717 9.56254 145.865C4.11946 141.087 1.05587 135.077 1.13023 127.806C1.27895 114.926 10.2764 102.417 22.2631 97.6835C25.163 96.5409 27.7656 94.7158 30.5764 93.3209C39.4995 88.8693 48.4374 84.4474 57.3902 80.07C69.6446 74.0751 81.9287 68.1396 94.1979 62.1745C98.1092 60.2751 101.976 58.2719 105.932 56.4467C114.275 52.6184 122.915 49.7693 132.225 50.1848C141.133 50.5854 148.867 53.7016 154.191 61.2396C156.6 64.6674 157.329 68.57 157.046 72.8138C156.793 76.7609 155.737 80.248 153.209 83.2751C152.718 83.8687 152.079 84.3435 151.365 84.9964L151.335 85.0113ZM124.804 156.92C124.804 156.92 124.611 156.801 124.447 156.653C122.276 154.694 119.896 152.913 117.993 150.717C111.286 142.927 110.408 133.771 115.078 124.675C118.945 117.137 125.087 112.151 132.686 108.783C141.282 104.984 150.339 103.382 159.708 103.367C161.731 103.367 163.828 102.922 165.434 104.064C171.278 102.758 176.989 102.684 182.626 103.411C188.262 104.138 193.794 105.533 199.565 106.676C201.557 104.865 203.833 102.788 206.153 100.681C204.086 100.533 202.004 100.488 199.981 100.191C193.274 99.2119 186.537 98.3958 179.904 97.0158C168.572 94.6564 157.611 91.0951 147.142 86.0945C146.933 85.9906 146.606 85.9313 146.428 86.0203C144.048 87.2519 141.684 88.4983 139.319 89.7745C137.966 90.5016 136.642 91.2583 135.304 92.0151C132.567 93.5732 129.905 95.2351 127.094 96.6596C123.287 98.5887 119.376 100.295 115.524 102.15C110.066 104.776 104.623 107.433 99.1948 110.118C92.0713 113.635 84.9625 117.182 77.8538 120.743C75.7271 121.811 73.6749 122.998 71.5482 124.082C66.5959 126.589 61.6584 129.112 56.6764 131.545C51.2184 134.216 45.6713 136.739 40.2282 139.44C36.0789 141.502 31.781 142.526 27.2005 141.576C20.3892 140.152 15.9574 136.056 14.0687 129.364C12.1948 122.761 15.1841 117.82 19.8092 113.561C21.0287 112.448 22.4861 111.587 23.8692 110.653C24.9251 109.94 26.0107 109.273 27.1113 108.62C29.0148 107.477 30.9333 106.349 32.8666 105.236C33.9374 104.613 35.0082 103.975 36.1087 103.426C37.1051 102.936 38.161 102.565 39.4697 102.031C38.4436 101.438 37.7446 100.904 36.9713 100.577C31.1415 98.2029 25.4902 98.8558 20.0174 101.749C13.3697 105.251 8.89331 110.697 5.84459 117.419C2.8851 123.933 2.66202 130.551 5.79997 136.932C8.59587 142.615 13.4738 146.503 19.2589 148.907C24.1072 150.91 29.1487 152.587 34.2348 153.863C44.7789 156.519 55.4123 158.819 66.0159 161.253C70.9831 162.395 75.9502 163.464 80.9174 164.606C88.5764 166.357 96.2205 168.123 103.879 169.859C104.281 169.948 104.846 169.859 105.188 169.636C111.732 165.407 118.26 161.164 124.789 156.905L124.804 156.92ZM30.3087 96.348C39.4846 97.2829 45.4036 102.328 49.0025 110.237C52.6461 118.265 51.4415 126.025 46.8907 133.623C50.2666 131.946 53.4343 130.403 56.5723 128.8C62.2682 125.892 67.9343 122.924 73.6451 120.045C76.3518 118.68 79.1625 117.523 81.8395 116.128C84.9625 114.511 87.9369 112.611 91.0897 111.068C96.1015 108.605 101.232 106.379 106.259 103.931C110.393 101.913 114.424 99.6867 118.543 97.6242C120.878 96.4519 123.302 95.4577 125.667 94.3596C126.113 94.1519 126.499 93.8551 126.916 93.588C127.972 92.9203 128.998 92.1784 130.113 91.6145C132.82 90.2642 135.556 88.988 138.308 87.7416C141.52 86.3022 144.36 83.9132 148.138 83.8538C148.287 83.8538 148.435 83.6906 148.584 83.5867C152.376 81.0642 154.102 77.3842 154.325 72.9622C154.533 68.7183 154.206 64.5635 151.008 61.3138C149.521 59.8003 147.885 58.4203 146.145 57.1887C144.762 56.2093 143.215 55.3338 141.624 54.7848C135.482 52.648 129.176 52.2771 122.811 53.5087C115.792 54.859 109.248 57.619 102.868 60.7796C94.8523 64.7564 86.8513 68.7629 78.8205 72.6951C69.5851 77.2209 60.32 81.6725 51.0697 86.1687C44.6302 89.2996 38.1907 92.4603 31.7661 95.6209C31.3348 95.8287 30.9036 96.0513 30.2938 96.348H30.3087ZM119.049 123.013C119.049 123.013 118.915 123.147 118.826 123.295C115.524 128.474 114.23 134.024 115.554 140.107C116.803 145.835 120.357 149.945 124.774 153.477C129.251 157.068 134.575 158.997 140.018 160.333C144.227 161.356 148.629 161.624 152.956 162.039C156.332 162.365 159.738 162.573 163.129 162.514C168.438 162.425 173.792 162.395 179.056 161.727C186.016 160.852 192.991 159.917 199.669 157.394C202.836 156.193 205.915 154.961 208.859 153.344C214.764 150.094 219.195 145.731 220.787 138.92C222.244 132.658 220.147 127.257 216.95 122.078C216.95 122.064 216.875 122.078 216.727 122.049C215.715 125.788 212.473 127.331 209.365 128.667C205.26 130.433 201.2 132.406 196.605 132.866C190.359 133.489 184.157 134.573 177.911 135.062C173.658 135.404 169.33 135.166 165.047 135.033C159.738 134.869 154.399 134.765 149.119 134.216C143.052 133.593 136.895 133.089 131.139 130.804C127.957 129.542 124.864 128.029 121.889 126.337C120.699 125.654 119.986 124.171 119.034 123.028L119.049 123.013ZM164.869 104.613C163.144 104.836 160.526 105.281 157.879 105.489C152.228 105.919 146.636 106.602 141.163 108.1C133.638 110.178 126.946 113.62 121.696 119.496C121.339 119.897 121.131 120.654 121.19 121.203C121.428 123.132 122.692 124.482 124.298 125.343C125.919 126.218 127.704 126.797 129.444 127.42C131.318 128.088 133.207 128.904 135.155 129.231C140.657 130.18 146.19 130.996 151.722 131.724C154.682 132.109 157.686 132.273 160.675 132.451C162.058 132.525 163.471 132.332 164.854 132.332C169.955 132.332 175.056 132.51 180.142 132.287C183.414 132.139 186.641 131.293 189.913 130.937C193.556 130.536 197.2 130.269 200.68 129.008C203.178 128.103 205.751 127.391 208.22 126.411C211.373 125.165 213.975 123.191 215.626 120.09C215.552 119.986 215.492 119.823 215.388 119.734C214.094 118.576 212.905 117.285 211.492 116.321C208.934 114.6 206.361 112.774 203.565 111.513C193.898 107.18 183.667 105.444 173.123 105.251C170.684 105.207 168.245 104.895 164.869 104.628V104.613ZM38.0272 131.649C38.0272 131.649 37.9677 131.545 37.9379 131.501C37.7595 131.738 37.6554 132.08 37.4174 132.213C35.7071 133.148 34.0564 134.365 32.2123 134.869C26.3825 136.487 21.5641 132.436 22.382 126.634C23.1851 120.965 28.4795 119.734 33.2384 121.737C33.6995 121.93 34.3836 122.078 34.7554 121.871C35.6328 121.366 36.3615 120.639 37.1348 120.016C36.6738 118.339 34.8743 116.365 32.9707 115.164C27.8251 111.899 19.2292 115.431 17.0728 121.322C13.8159 130.21 22.5159 140.567 32.0487 139.143C40.4066 137.882 45.7159 133.074 47.7384 124.913C47.8128 124.601 47.8574 124.274 47.9169 123.978C44.5856 126.56 41.3138 129.112 38.0272 131.664V131.649ZM37.6405 121.292C37.3133 121.648 37.1646 121.796 37.0307 121.96C35.7666 123.518 34.4282 124.349 31.9892 123.429C30.041 122.687 27.8102 122.627 26.0107 124.2C24.3748 125.64 24.003 128.266 25.0589 130.329C26.0851 132.332 28.5389 133.371 31.0969 132.881C33.2979 132.451 34.8595 131.264 36.1979 129.409C37.9825 126.931 37.9677 124.319 37.6405 121.307V121.292Z" fill="white"/>
<path d="M215.254 37.082C216.875 37.6904 218.407 38.0465 219.731 38.7885C221.411 39.7382 222.214 41.4001 223.047 43.1659C224.49 46.2524 224.624 49.4575 224.43 52.6627C224.326 54.4582 223.345 56.2091 222.75 57.9749C222.646 58.2865 222.452 58.5536 222.199 59.0136C225.382 59.3549 228.297 60.1117 230.914 62.0704C230.959 62.9014 231.018 63.8065 231.078 64.6969C231.078 66.3291 229.189 68.3324 228.342 68.184C223.538 69.2227 219.299 69.9795 215.002 69.8756C210.778 69.7717 206.584 69.2969 203.461 69.0743C199.535 68.0801 196.665 67.353 193.571 66.5665C193.661 68.184 193.437 69.8756 193.928 71.3298C194.776 73.8227 195.876 76.3007 197.245 78.5562C198.657 80.8711 201.186 81.9394 203.773 82.4291C207.03 83.0375 210.317 83.542 213.618 83.7201C215.76 83.8388 218.125 83.6904 219.954 82.444C222.036 81.0343 223.91 79.2833 225.679 77.5027C228.104 75.0543 228.312 71.6859 229.055 68.5549C229.159 68.1246 229.68 67.7982 230.007 67.4124C230.23 67.4865 230.453 67.5607 230.691 67.6201C230.736 68.7478 231.004 69.9053 230.766 70.9736C230.319 72.9917 229.754 75.0246 228.922 76.8943C227.36 80.3665 224.906 83.1562 221.456 84.8627C220.073 85.5453 218.422 85.7382 216.875 86.0349C215.641 86.2575 214.362 86.4059 213.098 86.3911C211.373 86.3614 209.633 86.2724 207.923 85.9904C206.168 85.7085 204.472 85.0556 202.717 84.744C200.219 84.2988 197.899 83.4085 196.248 81.524C194.939 80.0253 194.032 78.1556 192.976 76.4343C192.649 75.9001 192.322 75.3362 192.099 74.7575C190.85 71.582 190.969 68.3027 191.385 65.0085C191.415 64.8007 191.385 64.5782 191.355 64.3704C190.761 61.9665 192.515 59.3401 194.984 58.9246C195.401 58.8504 195.772 58.4943 196.189 58.4053C196.932 58.2717 197.691 58.2272 198.449 58.1678C198.955 58.1233 199.475 58.1233 200.055 58.0936C199.208 54.933 201.037 52.9001 202.569 50.7782C203.312 49.7543 204.175 48.8046 204.933 47.7956C205.662 46.8459 205.766 45.8517 205.008 44.8278C204.576 44.2491 204.205 43.6259 203.788 42.973C205.885 42.5872 207.833 42.5278 209.529 43.9672C211.165 45.3472 211.893 47.0982 211.641 49.6059C213.47 47.8104 214.972 46.2078 215.18 43.9524C215.373 41.8453 215.225 39.6936 215.225 37.1117L215.254 37.082ZM228.713 63.7027C227.524 63.1388 226.616 62.5749 225.62 62.2633C224.653 61.9517 223.597 61.8182 222.586 61.7291C221.084 61.5956 219.671 61.6401 218.303 62.664C215.849 64.5336 212.919 65.2162 209.871 64.7859C208.681 64.6227 207.551 63.8956 206.421 63.4059C205.082 62.8272 203.506 62.4859 202.479 61.5659C200.963 60.2007 199.208 60.5865 197.721 60.7498C196.189 60.913 194.776 62.1149 193.348 62.8569C193.542 63.5988 193.616 63.9253 193.646 64.0588C194.627 64.3259 195.445 64.593 196.278 64.7711C198.196 65.1717 200.13 65.5427 202.063 65.884C203.744 66.1807 205.424 66.4924 207.105 66.6853C209.291 66.9375 211.492 67.1749 213.678 67.2046C216.013 67.2343 218.363 67.0117 220.697 66.8782C222.824 66.7595 224.936 66.5962 227.167 66.433C227.643 65.5724 228.133 64.7265 228.698 63.6878L228.713 63.7027Z" fill="white"/>
<path d="M227.077 162.128C227.405 161.326 227.702 160.555 228.044 159.813C229.829 155.851 233.978 155.332 236.581 158.834C237.711 160.347 238.588 162.054 239.763 163.953C240.536 163.107 241.221 162.246 241.994 161.49C244.492 159.086 246.827 159.427 248.597 162.41C251.527 167.321 250.263 176.106 245.132 179.192C243.035 180.454 241.25 182.249 238.618 182.457C238.172 182.486 237.726 182.457 237.294 182.457C236.878 183.792 238.008 185.736 239.778 186.315C242.128 187.086 244.522 187.828 246.961 188.199C254.129 189.268 260.866 187.354 267.484 184.89C269.834 184.015 272.184 183.11 274.578 182.204C274.548 181.937 274.518 181.73 274.489 181.566C271.99 181.092 269.522 180.646 267.083 180.127C266.25 179.949 265.417 179.637 264.658 179.237C262.725 178.213 262.309 176.403 263.498 174.563C264.837 172.485 267.083 171.654 269.641 172.263C273.373 173.153 276.11 175.394 278.147 178.569C278.415 178.999 278.683 179.43 279.084 180.083C282.549 177.827 285.97 175.601 289.39 173.375L289.613 173.554C288.84 174.563 288.156 175.661 287.264 176.551C283.174 180.646 278.251 183.555 272.808 185.38C268.882 186.686 267.544 189.208 267.529 192.963C267.529 194.461 267.395 195.99 267.157 197.474C266.666 200.352 264.792 201.51 261.729 200.961C259.543 200.56 258.145 198.304 258.71 195.723C259.067 194.075 259.795 192.503 260.361 190.9C260.465 190.588 260.598 190.292 260.792 189.846C259.052 190.143 257.46 190.455 255.854 190.677C250.233 191.479 244.686 191.523 239.406 189.03C236.714 187.754 234.781 185.706 233.725 182.917C233.234 181.611 232.268 181.003 230.959 180.735C222.854 179.088 217.113 171.684 217.559 163.448C217.738 160.139 221.263 158.374 224.341 160.11C225.293 160.644 226.096 161.415 227.063 162.143L227.077 162.128ZM239.733 170.764C239.54 170.764 239.332 170.764 239.138 170.749C238.648 169.71 238.083 168.701 237.696 167.618C236.863 165.318 236.238 162.929 235.331 160.659C234.736 159.16 233.16 158.522 231.717 158.878C230.29 159.234 229.516 160.303 229.561 162.039C229.635 164.294 229.858 166.55 229.873 168.79C229.873 169.428 229.353 170.066 229.07 170.704C228.431 170.066 228.237 169.503 227.955 168.998C226.661 166.743 225.456 164.428 223.999 162.261C223.315 161.237 222.036 161.089 220.846 161.668C219.746 162.217 219.27 163.181 219.537 164.309C220.4 167.826 221.263 171.432 223.806 174.147C226.483 177.026 229.278 180.142 234.082 178.213C235.42 179.682 237.101 179.741 238.826 178.792C240.477 177.886 242.083 176.877 243.674 175.854C247.987 173.064 248.062 168.167 246.634 164.354C245.95 162.528 244.195 162.306 243.169 163.938C242.41 165.125 242.024 166.55 241.399 167.826C240.908 168.82 240.298 169.755 239.733 170.719V170.764ZM264.837 190.425C264.51 190.692 264.257 190.87 264.049 191.093C262.309 192.784 261.506 194.906 261.253 197.281C261.149 198.304 261.922 199.388 262.948 199.521C264.034 199.655 264.569 199.002 264.822 198.052C264.911 197.711 265.001 197.37 265.075 197.028C265.506 194.847 265.447 192.695 264.837 190.44V190.425ZM275.455 179.444C274.742 177.308 271.827 175.112 269.626 174.963C268.019 174.859 266.666 175.349 265.61 176.729C268.57 178.91 272.05 178.821 275.455 179.444Z" fill="white"/>
<path d="M273.388 152.112C272.883 152.186 272.436 152.245 271.99 152.319C266.413 153.981 260.598 154.456 254.903 154.056C249.236 153.655 243.645 152.112 237.904 151.043V154.605C237.384 156.074 236.863 156.385 235.465 155.703C235.361 154.456 235.242 153.21 235.123 151.948C235.183 151.948 235.242 151.948 235.302 151.963C235.302 150.791 235.212 149.619 235.316 148.461C235.495 146.681 235.956 144.945 237.532 143.846C238.231 143.357 239.079 143.075 239.882 142.734C242.187 141.769 244.582 142.466 246.902 142.274C247.467 142.14 248.032 142.006 248.597 141.873C248.478 141.309 248.314 140.671 248.225 140.033C247.824 137.228 249.772 135.463 251.185 133.459C252.493 131.605 253.861 129.794 255.096 127.88C255.408 127.405 255.185 126.619 255.334 125.996C255.408 125.714 255.765 125.328 256.033 125.313C256.836 125.254 257.654 125.357 258.457 125.387C258.501 125.61 258.561 125.728 258.531 125.788C257.624 127.895 258.264 129.943 258.725 132.005C259.319 134.661 259.944 137.317 260.465 139.988C260.658 140.953 260.598 141.977 260.658 143.075C265.744 143.045 270.756 143.001 275.098 146.146C275.634 148.239 275.649 150.197 273.671 151.681C275.589 152.156 275.768 152.364 275.173 154.961C274.637 157.305 273.953 159.635 273.18 161.905C272.912 162.692 272.169 163.315 271.648 163.997C271.157 164.65 270.726 165.363 270.131 165.912C269.179 166.757 268.213 167.648 267.097 168.241C265.476 169.087 263.736 169.681 261.996 170.156H259.171V170.378C257.282 170.378 255.378 170.423 253.49 170.334C253.252 170.334 252.925 169.651 252.895 169.265C252.865 168.998 253.237 168.494 253.49 168.434C254.531 168.197 255.587 168.093 256.643 167.93C257.163 167.841 257.669 167.677 258.189 167.633C259.394 167.529 260.628 167.588 261.803 167.351C264.926 166.728 267.722 165.63 269.477 162.647C271.291 159.546 272.838 156.4 273.195 152.779C273.21 152.572 273.314 152.379 273.388 152.141V152.112ZM260.212 145.034C259.617 147.319 258.383 148.906 256.271 149.574C255.661 149.767 254.843 149.604 254.233 149.352C253.936 149.233 253.891 148.521 253.653 147.883C252.449 147.348 250.872 146.859 250.292 145.063C250.188 144.737 249.504 144.366 249.117 144.41C248.404 144.485 247.719 144.826 246.976 145.078C243.451 143.906 239.941 144.811 237.8 147.526C237.874 147.808 237.964 148.135 238.008 148.268C238.975 148.521 239.823 148.773 240.685 148.951C242.44 149.322 244.195 149.663 245.965 149.975C248.508 150.435 251.036 151.162 253.594 151.266C257.579 151.414 261.565 151.117 265.566 151.014C266.309 150.999 267.053 151.058 267.781 150.984C268.986 150.865 270.176 150.657 271.41 150.479C271.812 150.034 272.243 149.545 272.615 149.129C272.645 148.639 272.659 148.268 272.689 147.734C268.986 145.152 264.391 146.265 260.242 145.019L260.212 145.034Z" fill="white"/>
<path d="M164.988 120.297C164.869 120.045 164.69 119.704 164.348 119.036C164.452 118.724 164.69 118.086 164.869 117.567H167.322C167.322 117.567 167.322 117.641 167.322 117.686C167.843 117.641 168.363 117.582 168.854 117.537C169.033 118.071 169.196 118.531 169.39 119.095C169.628 118.561 169.806 118.19 169.91 117.938C170.847 117.389 171.695 116.914 172.855 116.246C172.81 116.246 173.182 116.217 173.702 116.157C174 116.677 174.357 117.27 174.684 117.849C173.955 118.517 173.331 119.11 172.468 119.911C174.238 120.505 175.829 120.831 177.168 121.573C177.971 122.019 178.387 123.117 178.982 123.933C178.417 124.333 177.852 124.719 177.272 125.12C177.257 124.957 177.242 124.808 177.227 124.645C176.231 124.17 175.234 123.695 174.223 123.22C174.193 123.28 174.163 123.339 174.134 123.384C173.093 122.909 172.037 122.434 171.026 121.989C169.717 123.488 168.274 125.105 166.728 126.871C166.014 126.218 165.508 125.743 165.017 125.283C165.716 124.229 166.311 123.309 166.921 122.389C166.861 122.33 166.802 122.271 166.742 122.211C165.984 122.657 165.226 123.087 164.452 123.532H162.236C162.177 122.894 162.102 122.211 162.043 121.573C163.054 121.128 163.917 120.757 165.002 120.297H164.988Z" fill="white"/>
</svg>
