<svg width="13" height="13" viewBox="0 0 13 13" fill="none" xmlns="http://www.w3.org/2000/svg">
<path d="M4.71992 6.30014C4.66992 6.48014 4.81996 6.66014 5.00996 6.63014C7.34996 6.20014 9.00993 4.98014 10.3599 3.32014C10.9399 2.60014 10.7099 1.93014 9.59992 1.95014C8.05992 1.97014 5.31992 4.35014 4.71992 6.31014V6.30014Z" fill="#A4EDC6"/>
<path d="M2.31997 1.72021C2.30997 1.52021 2.1 1.32021 1.85 1.13021C1.47 0.840213 0.930016 0.920212 0.620016 1.29021C0.470016 1.47021 0.360016 1.66021 0.370016 1.83021C0.490016 3.42021 1.18004 4.74021 1.40004 6.32021C1.40004 6.38021 1.30999 6.67021 1.58999 6.70021C1.82999 6.72021 2.03008 6.55021 2.06008 6.31021C2.16008 5.36021 2.39008 2.98021 2.31008 1.73021L2.31997 1.72021Z" fill="#A4EDC6"/>
<path d="M6.92005 10.15C6.62005 10.15 6.46002 10.5 6.64002 10.74C7.18002 11.43 7.58001 12.06 8.13001 12.25C9.22001 12.63 10.48 12.68 11.65 12.58C12.09 12.54 12.49 12.06 12.9 11.66C13.05 11.51 13.04 11.28 12.9 11.13C12.43 10.7 11.97 10.18 11.46 10.13C10.11 9.99002 8.74006 10.1 6.93006 10.16L6.92005 10.15Z" fill="#A4EDC6"/>
</svg>
