<svg width="73" height="36" viewBox="0 0 73 36" fill="none" xmlns="http://www.w3.org/2000/svg">
<path d="M72.82 33.63C72.84 33.19 73.03 32.68 72.85 32.45C71.43 30.64 69.56 29.4901 67.32 28.9701C67.08 28.9101 66.7001 29.11 66.5201 29.31C66.4301 29.41 66.54 29.9001 66.69 30.0101C68.41 31.1801 70.16 32.3201 71.92 33.4401C72.1 33.5501 72.36 33.54 72.82 33.63Z" fill="#EF5DBF"/>
<path d="M65.1 35.8401C65.72 34.5701 65.1001 31.4001 64.0101 30.7401C63.7901 30.6101 63.1 30.8101 62.98 31.0401C62.38 32.1901 63.8 35.3101 65.1 35.8401Z" fill="#EF5DBF"/>
<path d="M10.5701 7.38C10.5201 7.56 10.2901 7.63 10.1501 7.5C8.38007 5.9 7.62009 3.99 7.35009 1.86C7.23009 0.939996 7.79008 0.499994 8.72008 1.09999C10.0201 1.92999 11.1001 5.39 10.5701 7.38Z" fill="#EF5DBF"/>
<path d="M15.0199 4.75002C15.1399 4.58002 15.4199 4.53002 15.7299 4.50002C16.2099 4.46002 16.6299 4.80002 16.6899 5.28002C16.7199 5.52002 16.7199 5.73002 16.6199 5.87002C15.6799 7.16002 14.3999 7.92002 13.3799 9.14002C13.3399 9.18002 13.2699 9.49002 13.0199 9.36002C12.8099 9.25002 12.7299 9.00002 12.8299 8.78002C13.2499 7.92002 14.3099 5.78002 15.0299 4.75002H15.0199Z" fill="#EF5DBF"/>
<path d="M6.66002 9.49005C6.91002 9.65005 6.87002 10.0301 6.59002 10.1401C5.76002 10.4501 5.10002 10.7601 4.53002 10.6401C3.41002 10.3901 2.30001 9.76005 1.37001 9.06005C1.02001 8.80005 0.930008 8.17005 0.800008 7.62005C0.750008 7.42005 0.880016 7.22005 1.09002 7.18005C1.72002 7.06005 2.38002 6.86005 2.84002 7.09005C4.06002 7.68005 5.16003 8.50005 6.67003 9.50005L6.66002 9.49005Z" fill="#EF5DBF"/>
</svg>
