<svg width="100" height="36" viewBox="0 0 100 36" fill="none" xmlns="http://www.w3.org/2000/svg">
<path d="M99.5083 33.0099C99.5283 32.5699 99.7182 32.0599 99.5382 31.8299C98.1182 30.0199 96.2483 28.8699 94.0083 28.3499C93.7683 28.2899 93.3883 28.4899 93.2083 28.6899C93.1183 28.7899 93.2283 29.2799 93.3783 29.3899C95.0983 30.5599 96.8482 31.6999 98.6082 32.8199C98.7882 32.9299 99.0483 32.9199 99.5083 33.0099Z" fill="#8ECCDC"/>
<path d="M91.789 35.2199C92.409 33.9499 91.789 30.7799 90.699 30.1199C90.479 29.9899 89.789 30.1899 89.669 30.4199C89.069 31.5699 90.489 34.6899 91.789 35.2199Z" fill="#8ECCDC"/>
<path d="M10.2596 6.76C10.2096 6.94 9.97959 7.01 9.83959 6.88C8.06959 5.28 7.30954 3.37 7.03954 1.24C6.91954 0.320001 7.47953 -0.120001 8.40953 0.479999C9.70953 1.31 10.7896 4.77 10.2596 6.76Z" fill="#8ECCDC"/>
<path d="M14.6996 4.1299C14.8196 3.9599 15.0996 3.9099 15.4096 3.8799C15.8896 3.8399 16.3096 4.1799 16.3696 4.6599C16.3996 4.8999 16.3996 5.1099 16.2996 5.2499C15.3596 6.5399 14.0796 7.2999 13.0596 8.5199C13.0196 8.5599 12.9496 8.8699 12.6996 8.7399C12.4896 8.6299 12.4096 8.3799 12.5096 8.1599C12.9296 7.2999 13.9896 5.1599 14.7096 4.1299H14.6996Z" fill="#8ECCDC"/>
<path d="M6.3492 8.87006C6.5992 9.03006 6.55925 9.41006 6.27925 9.52006C5.44925 9.83006 4.7892 10.1401 4.2192 10.0201C3.0992 9.77006 1.98922 9.14005 1.05922 8.44005C0.709222 8.18005 0.619215 7.55006 0.489215 7.00006C0.439215 6.80006 0.569254 6.60006 0.779254 6.56006C1.40925 6.44006 2.06925 6.24006 2.52925 6.47006C3.74925 7.06006 4.84921 7.88006 6.35921 8.88006L6.3492 8.87006Z" fill="#8ECCDC"/>
</svg>
