<svg width="150" height="26" viewBox="0 0 150 26" fill="none" xmlns="http://www.w3.org/2000/svg">
<path d="M0.539978 4.08008C0.569978 4.52008 0.450024 5.05008 0.650024 5.25008C2.28002 6.87008 4.29001 7.77007 6.57001 8.01007C6.81001 8.04007 7.17001 7.79008 7.32001 7.57008C7.40001 7.46008 7.23 6.99008 7.06 6.90008C5.2 5.96008 3.33 5.05008 1.44 4.15008C1.25 4.06008 0.990029 4.11008 0.530029 4.08008H0.539978Z" fill="#8ECCDC"/>
<path d="M7.93 0.910034C7.48 2.24003 8.50003 5.32004 9.65003 5.83004C9.88003 5.93004 10.54 5.65003 10.64 5.41003C11.09 4.19003 9.29 1.27003 7.93 0.910034Z" fill="#8ECCDC"/>
<path d="M140.87 19.81C140.82 19.63 140.97 19.45 141.16 19.48C143.5 19.91 145.16 21.13 146.51 22.79C147.09 23.51 146.86 24.18 145.75 24.16C144.21 24.14 141.47 21.76 140.87 19.8V19.81Z" fill="#8ECCDC"/>
<path d="M138.48 24.39C138.47 24.59 138.26 24.79 138.01 24.98C137.63 25.27 137.09 25.19 136.78 24.82C136.63 24.64 136.52 24.45 136.53 24.28C136.65 22.69 137.34 21.37 137.56 19.79C137.56 19.73 137.47 19.44 137.75 19.41C137.99 19.39 138.19 19.56 138.22 19.8C138.32 20.75 138.55 23.13 138.47 24.38L138.48 24.39Z" fill="#8ECCDC"/>
<path d="M143.08 15.95C142.78 15.95 142.62 15.6 142.8 15.36C143.34 14.67 143.74 14.04 144.29 13.85C145.38 13.47 146.64 13.42 147.81 13.52C148.25 13.56 148.65 14.04 149.06 14.44C149.21 14.59 149.2 14.82 149.06 14.97C148.59 15.4 148.13 15.92 147.62 15.97C146.27 16.11 144.9 16 143.09 15.94L143.08 15.95Z" fill="#8ECCDC"/>
</svg>
