<svg width="182" height="76" viewBox="0 0 182 76" fill="none" xmlns="http://www.w3.org/2000/svg">
<path d="M0.820068 61.0401C1.20007 59.6901 1.15006 57.94 1.92006 57.43C8.07006 53.38 14.9301 51.8101 22.2401 52.5201C23.0201 52.5901 23.9701 53.5799 24.3201 54.3799C24.5001 54.7899 23.6701 56.1601 23.0801 56.3201C16.6601 58.1101 10.2001 59.7799 3.73006 61.3999C3.08006 61.5599 2.31007 61.2401 0.820068 61.0501V61.0401Z" fill="black"/>
<path d="M21.99 75.61C21.41 71.14 26.54 62.1399 30.49 61.2499C31.29 61.0699 33.1799 62.3799 33.3099 63.1999C33.9699 67.3099 26.46 75.32 21.99 75.61Z" fill="black"/>
<path d="M168.63 20.39C168.2 20.54 167.76 20.1701 167.82 19.7201C168.65 14.0701 171.45 9.99023 175.34 6.62023C177.02 5.16023 178.64 5.67019 178.69 8.33019C178.76 12.0302 173.29 18.8 168.63 20.39Z" fill="black"/>
<path d="M179.81 25.7599C180.3 25.7699 180.78 26.26 181.26 26.84C181.98 27.73 181.85 29.0399 180.99 29.7899C180.56 30.1699 180.13 30.4398 179.72 30.4298C175.9 30.2798 172.67 28.73 168.87 28.32C168.73 28.3 168.03 28.5598 167.95 27.8898C167.88 27.3298 168.28 26.8199 168.84 26.7399C171.12 26.4199 176.81 25.6799 179.81 25.7599Z" fill="black"/>
<path d="M159.19 15.4299C159.19 16.1399 158.38 16.5598 157.81 16.1498C156.1 14.9098 154.57 14.0099 154.08 12.7099C153.09 10.1299 152.86 7.09998 153 4.28998C153.06 3.22998 154.18 2.22991 155.12 1.21991C155.46 0.849911 156.03 0.839891 156.38 1.19989C157.45 2.28989 158.74 3.36001 158.91 4.57001C159.35 7.79001 159.2 11.0899 159.2 15.4299H159.19Z" fill="black"/>
</svg>
