<svg width="182" height="75" viewBox="0 0 182 75" fill="none" xmlns="http://www.w3.org/2000/svg">
<path d="M0.399902 60.104C0.779902 58.754 0.729893 57.0039 1.49989 56.4939C7.64989 52.4439 14.5099 50.874 21.8199 51.584C22.5999 51.654 23.5499 52.6439 23.8999 53.4439C24.0799 53.8539 23.2499 55.2241 22.6599 55.3841C16.2399 57.1741 9.77989 58.8439 3.30989 60.4639C2.65989 60.6239 1.8899 60.3041 0.399902 60.1141V60.104Z" fill="white"/>
<path d="M21.5699 74.674C20.9899 70.204 26.1199 61.2039 30.0699 60.3139C30.8699 60.1339 32.7599 61.4438 32.8899 62.2638C33.5499 66.3738 26.0399 74.384 21.5699 74.674Z" fill="white"/>
<path d="M168.21 19.454C167.78 19.604 167.34 19.234 167.4 18.784C168.23 13.134 171.03 9.05419 174.92 5.68419C176.6 4.22419 178.22 4.73415 178.27 7.39415C178.34 11.0942 172.87 17.864 168.21 19.454Z" fill="white"/>
<path d="M179.39 24.8239C179.88 24.8339 180.36 25.324 180.84 25.904C181.56 26.794 181.43 28.1039 180.57 28.8539C180.14 29.2339 179.71 29.5038 179.3 29.4938C175.48 29.3438 172.25 27.7939 168.45 27.3839C168.31 27.3639 167.61 27.6238 167.53 26.9538C167.46 26.3938 167.86 25.8839 168.42 25.8039C170.7 25.4839 176.39 24.7439 179.39 24.8239Z" fill="white"/>
<path d="M158.77 14.4938C158.77 15.2038 157.96 15.6238 157.39 15.2138C155.68 13.9738 154.15 13.0739 153.66 11.7739C152.67 9.19387 152.44 6.16394 152.58 3.35394C152.64 2.29394 153.76 1.29388 154.7 0.283876C155.04 -0.0861244 155.61 -0.0961439 155.96 0.263856C157.03 1.35386 158.32 2.42397 158.49 3.63397C158.93 6.85397 158.78 10.1538 158.78 14.4938H158.77Z" fill="white"/>
</svg>
