<svg width="180" height="44" viewBox="0 0 180 44" fill="none" xmlns="http://www.w3.org/2000/svg">
<path d="M178.68 41.3799C177.8 42.0499 176.81 43.0802 176.29 43.1402C172.13 43.6602 169.16 42.52 167.36 39.94C167.16 39.67 167.44 38.8101 167.79 38.2501C167.97 37.9601 169 37.4101 169.27 37.5001C172.23 38.3701 175.13 39.3301 178.01 40.3101C178.3 40.4101 178.35 40.8199 178.69 41.3799H178.68Z" fill="black"/>
<path d="M179.75 25.48C178.72 28.94 172.04 33.86 168.86 33.23C168.22 33.1 167.26 31.5302 167.43 30.8902C168.28 27.6702 176.39 24.2503 179.75 25.4903V25.48Z" fill="black"/>
<path d="M1.37999 14.2301C0.199988 12.4601 1.02997 11.3799 2.79997 11.5699C6.89997 12.0099 10.61 13.4201 13.73 16.7501C13.98 17.0201 13.85 17.4601 13.5 17.5601C9.70998 18.6401 3.01998 16.6903 1.36998 14.2203L1.37999 14.2301Z" fill="black"/>
<path d="M13.6 23.5398C14 23.3398 14.5 23.4899 14.71 23.8899C14.96 24.3699 14.38 24.5196 14.3 24.5896C11.99 26.5996 10.57 29.0897 8.13003 30.9397C7.86003 31.1297 7.46002 31.1499 7.00002 31.0999C6.09002 30.9999 5.40999 30.1996 5.46999 29.2796C5.51999 28.6796 5.61001 28.14 5.93001 27.91C7.87001 26.49 11.95 24.3698 13.6 23.5398Z" fill="black"/>
<path d="M14.6002 11.3899C12.6202 8.52991 11.0103 6.42964 9.83026 4.10964C9.39026 3.23964 9.75026 1.94001 9.95026 0.740011C10.0203 0.340011 10.4002 0.0899526 10.7902 0.179953C11.8702 0.419953 13.0603 0.559757 13.5903 1.22976C14.9703 3.00976 16.2002 5.10954 16.7302 7.25954C17.0002 8.33954 16.4102 9.62976 15.8502 11.2298C15.6602 11.7598 14.9402 11.8499 14.6102 11.3899H14.6002Z" fill="black"/>
</svg>
