<svg width="22" height="22" viewBox="0 0 22 22" fill="none" xmlns="http://www.w3.org/2000/svg">
<path d="M18.0999 8.94985C16.1399 8.82985 14.1799 8.78985 12.2099 8.77985C12.1399 6.57985 12.0699 4.37986 11.9699 2.18986C11.9499 1.67986 11.8899 0.739853 11.5299 0.809853C10.8199 0.949853 9.83993 1.52986 9.62993 2.15986C8.87993 4.38986 8.42992 6.61985 8.25992 8.84985C6.85992 8.89985 5.45992 8.97985 4.05992 9.08985C2.77992 9.18985 1.62992 10.8599 0.419922 11.8099C0.639922 12.2299 0.86992 12.6499 1.08992 13.0699C3.48992 13.0999 5.89993 13.1399 8.29993 13.1799C8.50993 15.3299 8.99992 17.4799 9.78992 19.6099C10.0599 20.3299 10.5899 20.6199 11.6199 21.1799C12.0599 20.0099 12.4699 19.4399 12.4599 18.8799C12.4299 16.9899 12.3799 15.0999 12.3299 13.2099C14.0199 13.2099 15.7099 13.2099 17.3999 13.1899C18.6499 13.1699 19.8799 12.3499 21.1199 11.8899C20.1099 10.8599 19.1599 8.99986 18.0999 8.92986V8.94985Z" fill="white"/>
</svg>
