<svg width="105" height="129" viewBox="0 0 105 129" fill="none" xmlns="http://www.w3.org/2000/svg">
<path d="M37.4498 128.12L37.5299 127.73L37.3598 128.1C37.2598 128.08 37.0799 128 37.0199 127.91L36.2699 126.8C35.6699 125.91 35.0598 125.02 34.4798 124.12C33.8098 123.09 33.1999 122.06 32.6399 121.1C32.4599 120.79 32.3699 120.44 32.2899 120.13C32.1299 119.5 32.2698 119.04 32.7198 118.75C32.9898 118.58 33.2699 118.49 33.5399 118.49C33.8199 118.49 34.0899 118.59 34.3099 118.78C34.6399 119.06 34.9298 119.37 35.2098 119.67C35.2198 119.55 35.2399 119.44 35.2699 119.33C35.4599 118.48 35.6498 117.62 35.8298 116.76C36.2898 114.61 36.7499 112.4 37.4299 110.27C38.0099 108.45 38.8098 106.68 39.5898 104.97C39.9298 104.21 40.2798 103.46 40.5998 102.7C41.7398 100.03 43.0699 97.7602 44.6699 95.7402C47.4699 92.2102 50.8699 89.48 53.5299 87.5C58.3399 83.91 63.8899 80.9101 70.9999 78.0601C75.4799 76.2601 79.4798 74.54 83.2098 72.79C87.5798 70.75 91.1299 68.27 94.0399 65.21C95.7099 63.46 97.0498 61.9701 97.8298 60.0601C101.39 51.4001 101.13 43.4799 97.0399 35.8599C96.2399 34.3599 95.1998 33.0098 93.9398 31.8198C93.3298 31.2398 92.7399 30.63 92.1499 30.02C91.4599 29.31 90.7499 28.5802 90.0199 27.9102C89.3499 27.3002 88.5698 26.7602 87.8198 26.2402C87.5298 26.0402 87.2398 25.8299 86.9498 25.6299C86.9498 25.6299 86.9498 25.6299 86.9398 25.6299C86.9198 25.9299 86.9099 26.2298 86.8899 26.5298C86.8399 27.5298 86.7799 28.4699 86.7899 29.4199C86.8199 34.9599 85.1298 40.05 81.6098 44.98C77.3998 50.89 72.0799 55.27 65.7799 58C63.6799 58.91 61.5198 59.5098 59.3498 59.7798C59.1998 59.7998 59.0499 59.8101 58.9199 59.8101C58.1199 59.8101 57.6398 59.4201 57.4498 58.6201C57.1698 57.4501 57.0598 56.4999 57.1098 55.6499C57.2098 53.9799 57.4098 52.1799 57.7198 50.1499L57.7899 49.7202C58.2899 46.4502 58.8198 43.0698 59.8398 39.8398C60.1698 38.8098 60.5598 37.7898 60.9498 36.7998L61.0599 36.5098C61.1199 36.3498 61.1499 36.2499 61.1699 36.1899C61.1099 36.1799 60.9998 36.1702 60.8398 36.1602L59.9299 36.1201C58.7799 36.0701 57.5899 36.0199 56.4299 35.8999C55.0499 35.7599 53.7198 35.55 52.4898 35.27C50.5398 34.84 48.5799 34.3499 46.6799 33.8799L45.0698 33.48C44.5598 33.36 44.0499 33.2198 43.5499 33.0898C42.8899 32.9198 42.2298 32.7498 41.5698 32.5898C40.9998 32.4598 40.6498 32.1098 40.4898 31.5098C40.2998 30.8098 40.7699 30.4199 41.0499 30.1899L41.2298 30.04C41.6198 29.73 42.0199 29.3998 42.2999 29.0298C43.5799 27.3798 45.1499 26.0802 46.6599 24.9102L48.0299 23.8501C49.0299 23.0701 50.0398 22.2798 51.0698 21.5298C51.5398 21.1798 52.0499 20.8899 52.5399 20.6099C52.7499 20.4899 52.9599 20.3702 53.1699 20.2402L53.7198 19.9199C54.0898 19.7099 54.4499 19.4898 54.7999 19.2598C54.8699 19.2098 55.0198 19.12 55.1098 19.04C55.0298 18.96 54.9198 18.85 54.8298 18.77C54.3798 18.34 53.9198 17.92 53.4598 17.5C52.2698 16.4 51.0399 15.2701 49.8999 14.0801C48.0899 12.1901 46.3898 10.1798 44.8198 8.2998C43.7398 7.0098 43.0098 5.70984 42.5898 4.33984C42.3598 3.58984 42.2098 2.7099 42.8198 1.8999C43.0398 1.6099 43.2899 1.3501 43.6699 1.3501C43.9699 1.3501 44.2299 1.53996 44.4199 1.70996C44.6099 1.87996 44.7899 1.9502 45.0299 1.9502C45.1399 1.9502 45.2599 1.9299 45.4099 1.8999C47.2299 1.5299 48.8999 1.33984 50.5199 1.33984C52.0599 1.33984 53.5598 1.5101 54.9898 1.8501C55.5998 2.0001 56.2198 2.13002 56.8298 2.27002C58.3798 2.61002 59.9799 2.97021 61.5099 3.47021C65.5299 4.79022 69.2099 6.75023 72.2699 8.49023L73.0898 8.95996C74.7098 9.87996 76.3899 10.8199 77.9099 11.9399C81.2699 14.3999 83.5099 17.8702 84.5499 22.2402C84.5699 22.3202 84.6698 22.45 84.7098 22.48C87.0498 22.91 89.2298 23.9599 91.3298 25.6499C94.2298 27.9799 96.7798 30.1501 98.6998 33.0601C102.02 38.0901 103.69 43.8602 103.66 50.2002C103.65 52.9202 103.23 55.6102 102.42 58.1802C101.09 62.4002 98.6499 65.9999 95.1699 68.8999C91.7099 71.7699 87.8399 74.2099 83.6499 76.1499C79.1999 78.2099 74.6398 80.1702 69.9698 82.1602C62.4798 85.3602 55.7999 89.6602 50.1299 94.9502C46.5899 98.2602 43.7998 102.02 41.8498 106.13C39.5698 110.93 38.2799 114.99 37.7899 118.89C37.7299 119.39 37.7198 119.9 37.7198 120.43C37.7198 121.01 37.7099 121.61 37.6199 122.2C37.4499 123.36 37.5799 124.49 38.0199 125.77C38.1399 126.13 38.1998 126.53 38.1898 126.89C38.1798 127.15 38.0899 127.4 38.0199 127.62C37.9899 127.7 37.9598 127.79 37.9398 127.87C37.8898 128.05 37.7299 128.16 37.5599 128.16C37.5299 128.16 37.5098 128.16 37.4798 128.16L37.4498 128.12ZM82.4999 30.1299C81.6699 30.7299 80.8099 31.3401 79.9199 31.8901C76.4999 34.0101 73.4799 35.2302 70.4199 35.7402C69.2499 35.9302 68.0399 35.9898 66.8799 36.0498L66.2599 36.0801C65.2899 36.1301 64.6999 36.5001 64.2899 37.3101C63.0599 39.7701 62.2399 42.0598 61.7799 44.3198C61.2499 46.9098 60.8299 49.5001 60.3899 52.3701C60.2199 53.4701 60.0999 54.61 59.9999 55.71L59.8899 56.8301C59.8599 57.0901 59.9298 57.2699 60.3198 57.3799C60.5198 57.4399 60.7199 57.46 60.9199 57.46C61.2999 57.46 61.6998 57.3602 62.0998 57.1602C63.3598 56.5402 64.5699 55.9 65.6799 55.25C69.7299 52.89 73.2599 49.9598 76.1799 46.5298C80.0099 42.0298 82.2298 37.5202 82.9698 32.7402C83.0898 31.9402 83.1498 31.1 83.1998 30.29C83.2098 30.06 83.2299 29.8399 83.2398 29.6099C82.9998 29.7799 82.7499 29.9599 82.5099 30.1299H82.4999ZM57.3598 21.1001C56.9198 21.1001 56.4699 21.2099 56.0299 21.4199C54.8899 21.9599 53.8198 22.5898 52.8498 23.2998C50.8198 24.7898 48.8499 26.3501 46.6699 28.0801C45.9399 28.6601 45.2499 29.3002 44.6299 29.9702C44.4099 30.2102 44.3699 30.3602 44.3799 30.4102C44.3899 30.4602 44.5098 30.5902 44.8598 30.7002C45.1998 30.8202 45.5598 30.89 45.9398 30.96L46.1699 31.0098C46.4499 31.0698 46.7399 31.1199 47.0199 31.1699C47.4899 31.2599 47.9599 31.34 48.4199 31.46C49.5899 31.75 50.7699 32.0498 51.8699 32.3398L53.1599 32.6699C53.6199 32.7399 54.0999 32.8199 54.5599 32.8999C55.5499 33.0599 56.4799 33.2198 57.3999 33.3198C58.2399 33.4198 58.9998 33.46 59.7098 33.46C60.8598 33.46 61.8899 33.3398 62.8699 33.0898C63.3199 32.9698 63.7698 32.74 64.1098 32.46C65.4398 31.35 66.7798 30.1599 68.0998 28.9399C69.1498 27.9699 70.1299 27 71.0099 26.04C71.1399 25.9 71.1699 25.81 71.1699 25.79C71.1699 25.77 71.0798 25.7001 70.8498 25.6401C70.3098 25.5001 69.7398 25.4201 69.2098 25.3501C65.2998 24.8401 62.0398 23.66 59.2398 21.73C58.6098 21.3 57.9798 21.0801 57.3598 21.0801V21.1001ZM81.4498 25.3599C79.3698 25.3599 77.6299 25.7598 76.1599 26.5898C75.0099 27.2398 73.7999 27.9598 72.7699 28.8198C71.4899 29.8998 70.2399 31.0702 69.0299 32.2002C68.7099 32.5002 68.3899 32.8001 68.0599 33.1001C71.3299 32.9901 74.5499 32.0601 77.6199 30.3301C79.9099 29.0401 81.5899 27.5202 82.7699 25.6802C82.8599 25.5502 82.8799 25.4702 82.8899 25.4302C82.8899 25.4302 82.7999 25.4099 82.6699 25.3999C82.2599 25.3699 81.8498 25.3599 81.4498 25.3599ZM62.7198 20.2798C62.9698 20.4398 63.2198 20.59 63.4798 20.71C65.2098 21.54 67.1298 21.9599 68.9798 22.3599L69.9999 22.5898C71.3999 22.9098 72.8699 23.0601 74.4898 23.0601C75.6098 23.0601 76.8099 22.9898 78.1599 22.8398C78.5499 22.7998 78.9599 22.6998 79.4199 22.5298C79.1499 22.3598 78.8698 22.2099 78.5998 22.1499L77.4299 21.8799C75.6299 21.4699 73.7798 21.0502 71.9398 20.7202C69.7898 20.3402 67.6898 20.1401 65.6898 20.1401C65.3298 20.1401 64.9598 20.1402 64.5998 20.1602C63.9798 20.1802 63.3699 20.24 62.7499 20.29H62.7198V20.2798ZM65.1998 17.6802C65.7398 17.6802 66.2199 17.71 66.6799 17.77C67.4499 17.87 68.2499 17.9202 69.0299 17.9702C69.7799 18.0202 70.5299 18.0599 71.2699 18.1499C74.0399 18.4799 76.9098 19.16 80.0698 20.23L81.2499 20.6299C80.8599 19.6199 80.2598 18.6501 79.3598 17.6201C77.1298 15.0401 74.2898 13.2102 72.0698 11.9102C68.7398 9.96016 65.1598 8.30977 61.4398 7.00977C58.2698 5.89977 54.8899 4.79986 51.3999 4.60986C51.0099 4.58986 50.6198 4.58008 50.2198 4.58008C49.3198 4.58008 48.3999 4.62992 47.4999 4.66992L46.8298 4.7002C46.6298 4.7002 46.5399 4.73977 46.5099 4.75977C46.5299 4.77977 46.5499 4.87004 46.6599 5.04004C47.1199 5.79004 47.5198 6.35984 47.9398 6.83984C48.5298 7.51984 49.1399 8.17984 49.7499 8.83984C50.1999 9.32984 50.6598 9.83008 51.0998 10.3301L51.6199 10.9199C53.4099 12.9399 55.2698 15.0301 57.3398 16.8301C58.1598 17.5401 59.1199 17.8802 60.3699 17.9102H60.6799C61.4199 17.9102 62.1699 17.8498 62.8999 17.7998C63.6499 17.7398 64.4198 17.6802 65.1898 17.6802H65.1998Z" fill="black"/>
<path d="M50.5098 1.72021C51.9698 1.72021 53.4298 1.87021 54.8898 2.22021C57.0598 2.73021 59.2698 3.12982 61.3798 3.81982C65.1298 5.04982 68.6399 6.86006 72.0599 8.81006C73.9599 9.89006 75.9099 10.94 77.6699 12.23C81.0999 14.73 83.1799 18.1798 84.1599 22.2998C84.2099 22.4998 84.4198 22.7898 84.5998 22.8198C87.0398 23.2798 89.1798 24.3899 91.0798 25.9199C93.7798 28.0899 96.4398 30.31 98.3698 33.23C101.75 38.36 103.29 44.0299 103.27 50.1499C103.26 52.8299 102.86 55.4498 102.05 58.0098C100.72 62.2298 98.3299 65.71 94.9199 68.54C91.4199 71.45 87.5998 73.83 83.4898 75.73C78.9698 77.82 74.3998 79.7802 69.8198 81.7402C62.4298 84.8902 55.7398 89.1201 49.8598 94.6001C46.3798 97.8401 43.5398 101.58 41.4898 105.9C39.5398 110.01 37.9598 114.24 37.3898 118.79C37.2498 119.88 37.3798 121.01 37.2198 122.1C37.0298 123.41 37.2198 124.63 37.6298 125.86C37.7298 126.16 37.7898 126.51 37.7698 126.83C37.7498 127.13 37.6199 127.42 37.5299 127.72C37.4699 127.71 37.4098 127.7 37.3498 127.68C36.4998 126.42 35.6399 125.17 34.8099 123.9C34.1699 122.91 33.5698 121.9 32.9798 120.89C32.8298 120.63 32.7499 120.31 32.6699 120.01C32.5799 119.66 32.5699 119.31 32.9299 119.08C33.1199 118.96 33.3299 118.88 33.5299 118.88C33.7099 118.88 33.8799 118.94 34.0399 119.07C34.4699 119.44 34.8498 119.87 35.2398 120.27C35.3198 120.35 35.3899 120.44 35.5299 120.62C35.5699 120.14 35.5598 119.76 35.6398 119.4C36.3298 116.38 36.8599 113.32 37.7899 110.38C38.6099 107.79 39.8798 105.35 40.9498 102.84C41.9998 100.38 43.2998 98.08 44.9598 95.98C47.4698 92.81 50.5198 90.2201 53.7398 87.8101C59.0798 83.8301 64.9598 80.8899 71.1198 78.4199C75.2398 76.7699 79.3298 75.0199 83.3498 73.1499C87.4298 71.2399 91.1699 68.7702 94.2999 65.4902C95.8199 63.9002 97.3299 62.27 98.1699 60.21C101.57 51.92 101.67 43.7102 97.3598 35.6602C96.5298 34.1202 95.4698 32.74 94.1898 31.52C92.8498 30.25 91.6298 28.8499 90.2598 27.6099C89.3098 26.7499 88.1999 26.0498 87.1599 25.2998C87.0199 25.1998 86.8199 25.1801 86.5399 25.0801C86.4799 26.5801 86.3598 27.9899 86.3698 29.3999C86.3998 35.0899 84.5298 40.15 81.2698 44.73C77.2098 50.43 72.0598 54.8099 65.6098 57.6099C63.5898 58.4899 61.4799 59.0899 59.2899 59.3599C59.1499 59.3799 59.0299 59.3901 58.9099 59.3901C58.3299 59.3901 57.9798 59.1598 57.8298 58.5098C57.5998 57.5798 57.4398 56.6002 57.4998 55.6602C57.6098 53.8302 57.8298 52.0102 58.1098 50.2002C58.6398 46.7502 59.1498 43.2899 60.2198 39.9399C60.5798 38.8199 61.0099 37.7299 61.4299 36.6299C61.7199 35.8899 61.6398 35.77 60.8498 35.73C59.3798 35.66 57.9098 35.6202 56.4598 35.4702C55.1598 35.3402 53.8498 35.1401 52.5698 34.8501C50.0898 34.3001 47.6199 33.6698 45.1599 33.0698C43.9899 32.7798 42.8299 32.4602 41.6499 32.1802C41.1999 32.0702 40.9798 31.8101 40.8698 31.3901C40.7498 30.9601 40.9999 30.73 41.2999 30.48C41.7599 30.1 42.2498 29.7298 42.6198 29.2598C43.8398 27.6798 45.3399 26.4202 46.9099 25.2202C48.3699 24.0902 49.8199 22.9398 51.3099 21.8398C51.9599 21.3598 52.6898 20.9898 53.3898 20.5698C53.9398 20.2398 54.4999 19.9301 55.0299 19.5801C55.7599 19.1001 55.7498 19.05 55.1198 18.46C53.4698 16.91 51.7598 15.4098 50.1998 13.7798C48.4398 11.9298 46.7698 9.98002 45.1398 8.02002C44.1998 6.89002 43.4298 5.6302 42.9898 4.2002C42.7698 3.5002 42.6599 2.78012 43.1599 2.12012C43.3599 1.86012 43.5198 1.72021 43.6898 1.72021C43.8298 1.72021 43.9799 1.79998 44.1699 1.97998C44.4499 2.22998 44.7299 2.31982 45.0399 2.31982C45.1899 2.31982 45.3398 2.30002 45.4998 2.27002C47.1698 1.93002 48.8499 1.72021 50.5299 1.72021M60.7198 18.2998C62.2198 18.2998 63.7198 18.0698 65.2198 18.0698C65.6998 18.0698 66.1698 18.0899 66.6498 18.1499C68.1698 18.3399 69.7198 18.3398 71.2398 18.5298C74.2198 18.8898 77.1198 19.6298 79.9598 20.5898C80.5798 20.7998 81.1899 21.01 81.9099 21.25C81.8299 21 81.7798 20.8402 81.7198 20.6802C81.2798 19.4202 80.5499 18.3301 79.6799 17.3301C77.5999 14.9201 75.0099 13.14 72.2899 11.54C68.8899 9.55004 65.3098 7.9101 61.5898 6.6001C58.2898 5.4501 54.9598 4.37018 51.4398 4.18018C51.0398 4.16018 50.6398 4.1499 50.2398 4.1499C49.1098 4.1499 47.9698 4.21979 46.8398 4.27979C46.1198 4.31979 45.9698 4.61998 46.3398 5.22998C46.7298 5.87998 47.1599 6.51008 47.6599 7.08008C48.6899 8.27008 49.7798 9.40008 50.8198 10.5801C52.8298 12.8401 54.8098 15.1199 57.0998 17.1099C58.0698 17.9499 59.1698 18.26 60.3798 18.29C60.4898 18.29 60.5898 18.29 60.6998 18.29M74.4998 23.4302C75.7298 23.4302 76.9698 23.3402 78.2098 23.2002C78.6998 23.1502 79.1899 23.0098 79.6599 22.8398C80.0599 22.6898 80.0698 22.43 79.7198 22.21C79.3998 22.01 79.0598 21.81 78.6998 21.73C76.4798 21.23 74.2598 20.6998 72.0198 20.2998C69.9298 19.9298 67.8098 19.7202 65.6898 19.7202C65.3198 19.7202 64.9598 19.7202 64.5898 19.7402C63.6898 19.7702 62.7798 19.8699 61.8798 19.9399C61.8598 20.0199 61.8398 20.1002 61.8198 20.1802C62.3198 20.4802 62.7998 20.8198 63.3198 21.0698C65.4098 22.0698 67.6899 22.47 69.9299 22.98C71.4499 23.32 72.9798 23.46 74.5098 23.46M59.7298 33.8799C60.8198 33.8799 61.9098 33.77 62.9898 33.5C63.4898 33.37 63.9998 33.12 64.3898 32.79C65.7498 31.65 67.0898 30.4698 68.3998 29.2598C69.4098 28.3198 70.3998 27.3498 71.3298 26.3398C71.7898 25.8498 71.6298 25.45 70.9698 25.29C70.4198 25.15 69.8499 25.0602 69.2899 24.9902C65.7599 24.5302 62.4398 23.4599 59.4898 21.4399C58.7898 20.9599 58.0898 20.7202 57.3798 20.7202C56.8798 20.7202 56.3798 20.8401 55.8698 21.0801C54.7398 21.6101 53.6398 22.26 52.6298 23C50.5298 24.54 48.4798 26.17 46.4398 27.79C45.6998 28.38 44.9998 29.0302 44.3498 29.7202C43.7598 30.3602 43.9098 30.8201 44.7498 31.1001C45.1898 31.2501 45.6498 31.3299 46.1098 31.4199C46.8498 31.5699 47.6098 31.6799 48.3498 31.8599C49.9998 32.2599 51.6298 32.6998 53.0798 33.0698C54.6398 33.3098 55.9998 33.58 57.3798 33.73C58.1698 33.82 58.9498 33.8701 59.7398 33.8701M67.5599 33.5098C71.2399 33.4898 74.6398 32.4702 77.8298 30.6802C79.9498 29.4802 81.7898 27.9699 83.1198 25.8999C83.4598 25.3599 83.3298 25.0498 82.7098 25.0098C82.2898 24.9798 81.8798 24.9702 81.4598 24.9702C79.5498 24.9702 77.6898 25.29 75.9798 26.25C74.7798 26.92 73.5799 27.64 72.5299 28.52C70.6999 30.06 68.9798 31.7399 67.2198 33.3599C67.2498 33.4099 67.2798 33.4598 67.3198 33.5098C67.3998 33.5098 67.4799 33.5098 67.5599 33.5098ZM60.9299 57.8599C61.3999 57.8599 61.8599 57.73 62.2899 57.52C63.5099 56.92 64.7198 56.2801 65.8998 55.6001C69.9198 53.2601 73.4798 50.3398 76.4998 46.7998C79.9798 42.7198 82.5498 38.1901 83.3798 32.8101C83.5698 31.6101 83.5898 30.3802 83.6898 29.1602C83.6098 29.1102 83.5198 29.05 83.4398 29C82.2098 29.86 81.0098 30.7798 79.7398 31.5698C76.8398 33.3698 73.7798 34.7999 70.3798 35.3599C69.0198 35.5799 67.6398 35.6202 66.2598 35.7002C65.1998 35.7602 64.4498 36.1599 63.9598 37.1499C62.8198 39.4199 61.9199 41.77 61.4099 44.25C60.8599 46.92 60.4298 49.6198 60.0098 52.3198C59.7798 53.7998 59.6598 55.2998 59.4998 56.7998C59.4398 57.3298 59.7198 57.6398 60.2198 57.7798C60.4598 57.8498 60.6899 57.8799 60.9299 57.8799M50.5399 0.950195C48.8899 0.950195 47.1898 1.12977 45.3498 1.50977C45.2298 1.53977 45.1299 1.5498 45.0499 1.5498C44.9299 1.5498 44.8398 1.53016 44.7098 1.41016C44.4698 1.20016 44.1398 0.950195 43.6998 0.950195C43.0798 0.950195 42.6999 1.45016 42.5399 1.66016C41.7099 2.74016 42.0798 3.94996 42.2398 4.45996C42.6698 5.86996 43.4499 7.25006 44.5399 8.56006C46.1199 10.4501 47.8198 12.4599 49.6398 14.3599C50.7898 15.5699 52.0298 16.7101 53.2298 17.8101C53.6598 18.2101 54.0898 18.6 54.5198 19C54.2098 19.2 53.8899 19.3898 53.5499 19.5898C53.3599 19.6998 53.1798 19.8099 52.9998 19.9199C52.7898 20.0399 52.5798 20.16 52.3698 20.29C51.8698 20.58 51.3498 20.8802 50.8598 21.2402C49.8198 22.0102 48.7999 22.8101 47.7999 23.5801C47.3499 23.9301 46.8998 24.2799 46.4498 24.6299C44.9198 25.8099 43.3198 27.1298 42.0198 28.8198C41.7598 29.1498 41.3998 29.4498 41.0198 29.7598L40.8298 29.9199C40.5198 30.1699 39.8798 30.6999 40.1398 31.6499C40.3398 32.3899 40.7998 32.8398 41.5098 33.0098C42.1698 33.1598 42.8198 33.33 43.4698 33.5C43.9798 33.63 44.4898 33.7701 45.0098 33.8901L46.6799 34.2998C48.5599 34.7698 50.5098 35.2499 52.4398 35.6699C53.6898 35.9499 55.0299 36.1598 56.4199 36.2998C57.6099 36.4198 58.8198 36.47 59.9898 36.52L60.6599 36.5498L60.6298 36.6299C60.2398 37.6299 59.8398 38.6702 59.5098 39.7202C58.4698 42.9802 57.9498 46.3802 57.4398 49.6602L57.3698 50.1001C57.0498 52.1401 56.8498 53.9499 56.7498 55.6299C56.6998 56.5299 56.8098 57.5102 57.0998 58.7202C57.3398 59.7002 57.9798 60.21 58.9598 60.21C59.1098 60.21 59.2698 60.2002 59.4398 60.1802C61.6398 59.9102 63.8398 59.3001 65.9798 58.3701C72.3398 55.6101 77.7198 51.1802 81.9698 45.2202C85.5298 40.2102 87.2498 35.0499 87.2198 29.4199C87.2198 28.4899 87.2698 27.5498 87.3198 26.5698C87.3198 26.5098 87.3198 26.4501 87.3298 26.3901L87.6198 26.6001C88.3898 27.1401 89.1199 27.6502 89.7799 28.2402C90.5099 28.9002 91.2098 29.6301 91.8898 30.3301C92.4698 30.9301 93.0698 31.5501 93.6998 32.1401C94.9198 33.2901 95.9398 34.6201 96.7198 36.0801C100.75 43.5901 101 51.3999 97.4898 59.9399C96.7298 61.7799 95.4199 63.2502 93.7799 64.9702C90.8999 67.9902 87.3998 70.44 83.0698 72.46C79.3498 74.2 75.3598 75.9202 70.8798 77.7202C63.7298 80.5902 58.1498 83.6 53.3198 87.21C50.6498 89.2 47.2198 91.95 44.3898 95.52C42.7698 97.56 41.4298 99.8698 40.2698 102.57C39.9498 103.33 39.5998 104.08 39.2598 104.83C38.4798 106.55 37.6598 108.33 37.0798 110.18C36.3998 112.32 35.9298 114.54 35.4798 116.69C35.3298 117.42 35.1698 118.15 35.0098 118.87C34.8798 118.75 34.7498 118.62 34.6098 118.51C34.3198 118.26 33.9598 118.13 33.5798 118.13C33.2398 118.13 32.8799 118.24 32.5499 118.45C32.2099 118.67 31.6798 119.19 31.9498 120.25C32.0298 120.57 32.1298 120.97 32.3398 121.33C32.9098 122.3 33.5298 123.35 34.1898 124.37C34.7698 125.26 35.3698 126.15 35.9598 127.02C36.2198 127.4 36.4798 127.79 36.7398 128.17C36.8598 128.34 37.0398 128.47 37.2398 128.51L37.3298 128.53L37.4199 128.55C37.4699 128.56 37.5298 128.57 37.5798 128.57C37.9298 128.57 38.2498 128.34 38.3498 127.99C38.3698 127.91 38.3999 127.84 38.4199 127.76C38.4999 127.52 38.5998 127.24 38.6098 126.92C38.6298 126.5 38.5699 126.07 38.4199 125.65C37.9999 124.44 37.8799 123.36 38.0399 122.27C38.1299 121.65 38.1398 121.04 38.1398 120.44C38.1398 119.92 38.1498 119.42 38.2098 118.95C38.6998 115.09 39.9798 111.07 42.2398 106.31C44.1698 102.24 46.9299 98.52 50.4299 95.25C56.0699 90 62.6998 85.72 70.1498 82.54C74.8198 80.55 79.3798 78.59 83.8398 76.52C88.0598 74.57 91.9598 72.1102 95.4498 69.2202C98.9998 66.2702 101.48 62.6001 102.83 58.3101C103.65 55.7001 104.07 52.98 104.08 50.21C104.11 43.79 102.42 37.9501 99.0499 32.8501C97.0899 29.8901 94.5198 27.7001 91.5898 25.3501C89.5098 23.6801 87.2799 22.6001 84.9299 22.1201C83.8699 17.6801 81.5898 14.1399 78.1498 11.6299C76.6098 10.4999 74.9199 9.54988 73.2999 8.62988L72.4698 8.16016C69.3898 6.41016 65.6998 4.42986 61.6398 3.10986C60.0898 2.59986 58.4799 2.2499 56.9299 1.8999C56.3199 1.7599 55.6998 1.62998 55.0898 1.47998C53.6298 1.12998 52.0999 0.959961 50.5299 0.959961L50.5399 0.950195ZM47.1998 5.1001L47.5599 5.08008C48.4499 5.03008 49.3698 4.99023 50.2598 4.99023C50.6698 4.99023 51.0499 4.99002 51.4099 5.02002C54.8499 5.21002 58.1998 6.2999 61.3398 7.3999C65.0398 8.6899 68.5898 10.33 71.8998 12.27C74.0898 13.55 76.8898 15.3501 79.0898 17.8901C79.7098 18.6101 80.1799 19.2802 80.5399 19.9702L80.2298 19.8599C77.0498 18.7799 74.1398 18.1 71.3498 17.77C70.5898 17.68 69.8198 17.6298 69.0798 17.5898C68.3098 17.5398 67.5198 17.4899 66.7598 17.3999C66.2798 17.3399 65.7798 17.3101 65.2298 17.3101C64.4498 17.3101 63.6699 17.3702 62.9099 17.4302C62.1599 17.4902 61.4398 17.54 60.7198 17.54C60.6198 17.54 60.5199 17.54 60.4199 17.54C59.2699 17.51 58.3898 17.2001 57.6398 16.5601C55.5798 14.7801 53.7398 12.6999 51.9498 10.6899L51.4299 10.1001C50.9899 9.6001 50.5398 9.10988 50.0898 8.62988C49.4898 7.96988 48.8599 7.30012 48.2799 6.62012C47.9299 6.21012 47.5798 5.73012 47.1998 5.12012V5.1001ZM64.1699 20.5898C64.3299 20.5898 64.4798 20.5698 64.6398 20.5698C64.9998 20.5598 65.3498 20.5498 65.7098 20.5498C67.6898 20.5498 69.7698 20.7401 71.8998 21.1201C73.7198 21.4401 75.5598 21.87 77.3498 22.27L78.1398 22.4502C76.8098 22.6002 75.6299 22.6699 74.5299 22.6699C72.9399 22.6699 71.4898 22.52 70.1198 22.21C69.7798 22.13 69.4398 22.06 69.0998 21.98C67.3698 21.6 65.7299 21.2401 64.1699 20.5801V20.5898ZM44.9199 30.3101C44.9199 30.3101 44.9398 30.28 44.9598 30.27C45.5698 29.61 46.2498 28.9899 46.9598 28.4199C49.1398 26.6899 51.0998 25.1301 53.1198 23.6401C54.0598 22.9501 55.1098 22.3298 56.2298 21.7998C56.6298 21.6098 57.0098 21.52 57.3898 21.52C57.9398 21.52 58.4799 21.7101 59.0499 22.1001C61.8999 24.0601 65.2198 25.27 69.1998 25.79C69.6398 25.85 70.1099 25.91 70.5599 26.02C69.7299 26.9 68.8298 27.8002 67.8698 28.6802C66.5398 29.9102 65.2098 31.0899 63.8898 32.1899C63.5998 32.4399 63.1999 32.6402 62.7999 32.7402C61.8599 32.9802 60.8598 33.1001 59.7398 33.1001C59.0398 33.1001 58.2998 33.05 57.4698 32.96C56.5498 32.86 55.6299 32.7 54.6499 32.54C54.1999 32.46 53.7298 32.3901 53.2498 32.3101L52.0499 32C50.9299 31.71 49.7399 31.4001 48.5399 31.1001C48.0599 30.9801 47.5698 30.8901 47.0998 30.8101C46.8198 30.7601 46.5498 30.7099 46.2698 30.6499L46.0299 30.6001C45.6599 30.5301 45.3198 30.4601 44.9998 30.3501C44.9598 30.3401 44.9299 30.3201 44.8999 30.3101H44.9199ZM69.1799 32.6499C69.2299 32.5999 69.2798 32.55 69.3398 32.5C70.5398 31.37 71.7899 30.2101 73.0599 29.1401C74.0699 28.2901 75.2598 27.5902 76.3898 26.9502C77.8198 26.1502 79.4398 25.77 81.4798 25.77C81.7298 25.77 81.9898 25.77 82.2598 25.79C81.1298 27.43 79.5598 28.8102 77.4598 29.9902C74.7898 31.5002 72.0099 32.3901 69.1799 32.6401V32.6499ZM60.2999 56.9502C60.2999 56.9502 60.2999 56.9199 60.2999 56.8799C60.3399 56.5099 60.3799 56.14 60.4099 55.77C60.5199 54.67 60.6299 53.5402 60.7999 52.4502C61.2499 49.5802 61.6598 46.9999 62.1898 44.4199C62.6398 42.1999 63.4499 39.9398 64.6699 37.5098C65.0099 36.8298 65.4699 36.55 66.2999 36.5L66.9199 36.4702C68.0999 36.4102 69.3098 36.3502 70.5098 36.1602C73.6298 35.6502 76.6899 34.4098 80.1599 32.2598C81.0599 31.6998 81.9198 31.08 82.7598 30.48C82.7698 30.47 82.7899 30.4602 82.7999 30.4502C82.7499 31.2302 82.6998 31.9702 82.5898 32.7002C81.8598 37.4002 79.6698 41.8498 75.8898 46.2998C72.9998 49.6898 69.4998 52.6002 65.4998 54.9302C64.3898 55.5802 63.1898 56.2201 61.9398 56.8301C61.5898 57.0001 61.2499 57.0898 60.9299 57.0898C60.7699 57.0898 60.5998 57.07 60.4398 57.02C60.3598 57 60.3099 56.97 60.2899 56.96L60.2999 56.9502Z" fill="black"/>
<path d="M43.8498 85.23C41.4998 85.23 39.0798 84.57 36.4798 83.23C34.5198 82.22 32.5697 81.1201 30.6897 80.0601L29.7198 79.5098C26.8598 77.9098 23.9798 77.01 20.9198 76.75C20.0498 76.68 19.2098 76.6401 18.3998 76.6401C14.7098 76.6401 11.5198 77.3899 8.64982 78.9399C6.17982 80.2699 4.28981 82.1302 3.01981 84.4502C2.89981 84.6702 2.58977 84.9998 2.21977 85.0098C1.83977 85.0098 1.51982 84.68 1.39982 84.46C0.939819 83.65 1.11978 83.0199 1.35978 82.6299C1.91978 81.7099 2.29982 80.6202 2.52982 79.2002C2.81982 77.4802 3.40974 75.8201 4.31974 74.1001C4.66974 73.4401 5.01978 72.7899 5.35978 72.1299C6.03978 70.8299 6.74979 69.4899 7.48979 68.1899C10.7498 62.4399 15.8798 59.02 22.7598 58.02C24.0498 57.83 25.3799 57.73 26.6798 57.73C29.7298 57.73 32.8698 58.2498 36.0198 59.2798C40.3298 60.6798 43.8998 62.7298 46.9298 65.5298C48.3998 66.8798 49.6298 68.56 50.9198 70.96C51.2798 71.63 51.6498 72.3002 52.0198 72.9702C52.3998 73.6502 52.7698 74.33 53.1398 75.02C53.3498 75.41 53.6298 75.94 53.8498 76.48C54.2998 77.55 54.3298 78.5999 53.9598 79.6899C53.7598 80.2599 53.6298 80.85 53.4998 81.48C53.4398 81.75 53.3797 82.0198 53.3197 82.2798C53.2997 82.3798 53.1897 82.9102 53.1897 82.9102C53.1597 83.0702 53.0398 83.1902 52.8798 83.2202C52.8498 83.2202 52.8198 83.2202 52.7898 83.2202C52.6598 83.2202 52.5398 83.1601 52.4698 83.0601L52.2798 82.8101C52.1798 82.6801 52.0998 82.57 52.0298 82.46C52.0198 82.47 51.9998 82.49 51.9798 82.5C49.8698 84.56 47.2498 85.0002 44.7298 85.1802C44.4298 85.2002 44.1298 85.21 43.8398 85.21L43.8498 85.23ZM17.7598 74.1699C19.3898 74.1699 21.1498 74.3402 23.1098 74.6802C25.0798 75.0202 27.3798 75.5299 29.5398 76.6899C31.0998 77.5299 32.5998 78.4001 33.8698 79.1401L34.2298 79.3501C36.1898 80.5001 38.2198 81.6899 40.4198 82.3799C41.6398 82.7599 42.8398 82.96 43.9998 82.96C45.6698 82.96 47.3098 82.55 48.8498 81.75C49.4498 81.44 50.0497 80.9798 50.6997 80.3398C51.2497 79.7998 51.4598 79.1099 51.2798 78.3799C50.6198 75.6699 49.4298 73.6302 47.6398 72.1602C43.8298 69.0202 39.9498 67.01 35.7698 66C33.4798 65.45 31.4097 65.1802 29.4397 65.1802C28.4797 65.1802 27.5298 65.2501 26.6198 65.3701C23.4498 65.8101 20.1998 66.8102 16.3898 68.4902L16.0697 68.6201C16.0097 68.6501 15.9198 68.6602 15.8398 68.6602C15.7198 68.6602 15.5998 68.6298 15.5298 68.5498L15.8099 68.2598L15.4698 68.48C15.3498 68.35 15.3298 68.15 15.4198 68C15.4498 67.95 15.4698 67.9099 15.4998 67.8599C15.5798 67.7099 15.6698 67.5402 15.8298 67.4102L16.2498 67.0498C16.7198 66.6298 17.2098 66.2101 17.7598 65.8701C19.4298 64.8601 21.2898 64.2702 23.0898 63.7002C25.6498 62.8902 28.0698 62.5 30.4598 62.5C31.3698 62.5 32.2798 62.5602 33.1698 62.6802C36.4898 63.1102 39.7098 64.1699 42.9998 65.8999C43.1498 65.9799 43.2997 66.0601 43.4497 66.1401C42.8297 65.6401 42.1997 65.1998 41.5697 64.8198C36.9097 62.0098 31.7998 60.5898 26.3798 60.5898C25.6598 60.5898 24.9297 60.6102 24.1997 60.6602C18.7897 61.0202 14.3598 63.3102 11.0398 67.4502C9.40983 69.4802 7.95977 71.9199 6.59977 74.8999C6.03977 76.1299 5.49982 77.4201 5.02982 78.5601C5.60982 78.2301 6.09982 77.9099 6.52982 77.6099C8.85982 75.9499 11.5398 74.8802 14.4898 74.4302C15.5398 74.2702 16.6398 74.1899 17.7698 74.1899L17.7598 74.1699Z" fill="black"/>
<path d="M26.6799 58.1499C29.7999 58.1499 32.8699 58.6902 35.8999 59.6802C39.9199 60.9902 43.5499 62.9701 46.6599 65.8501C48.2999 67.3701 49.5098 69.2199 50.5698 71.1699C51.2998 72.5299 52.0599 73.87 52.7899 75.23C53.0399 75.69 53.2798 76.1699 53.4798 76.6499C53.8798 77.6099 53.9298 78.5598 53.5798 79.5698C53.2898 80.4198 53.1399 81.3202 52.9199 82.2002C52.8799 82.3702 52.8499 82.5398 52.7899 82.8398C52.5799 82.5598 52.4498 82.4002 52.3298 82.2202C52.2498 82.0902 52.1599 82.0098 52.0599 82.0098C51.9899 82.0098 51.9098 82.0501 51.8298 82.1201C51.7698 82.1701 51.6899 82.22 51.6299 82.27C49.6999 84.16 47.2298 84.61 44.6898 84.79C44.3998 84.81 44.1098 84.8198 43.8298 84.8198C41.2798 84.8198 38.8999 84.0299 36.6399 82.8599C34.3599 81.6799 32.1299 80.4099 29.8799 79.1499C27.0899 77.5899 24.1199 76.6098 20.9199 76.3398C20.0599 76.2698 19.2099 76.23 18.3699 76.23C14.9099 76.23 11.5699 76.8801 8.42991 78.5801C5.95991 79.9101 3.98987 81.77 2.63987 84.25C2.54987 84.41 2.33991 84.6001 2.17991 84.6001C2.02991 84.6001 1.80983 84.4098 1.71983 84.2598C1.45983 83.8098 1.3799 83.3198 1.6699 82.8398C2.3399 81.7398 2.68988 80.53 2.89988 79.27C3.19988 77.51 3.80988 75.8598 4.64988 74.2998C5.70988 72.3298 6.7198 70.3401 7.8198 68.3901C11.1298 62.5501 16.2399 59.3799 22.7999 58.4199C24.0999 58.2299 25.3799 58.1401 26.6599 58.1401M4.57981 79.0098C4.76981 78.9798 4.98988 79.0102 5.14988 78.9102C5.68988 78.6002 6.21984 78.2702 6.72984 77.9102C9.07984 76.2402 11.6799 75.2398 14.5199 74.7998C15.5999 74.6398 16.6698 74.5601 17.7398 74.5601C19.5098 74.5601 21.2699 74.7601 23.0299 75.0601C25.2199 75.4401 27.3598 75.9698 29.3298 77.0298C30.7798 77.8098 32.2199 78.6402 33.6399 79.4702C35.7799 80.7202 37.8899 82 40.2699 82.75C41.5199 83.14 42.7498 83.3501 43.9698 83.3501C45.6898 83.3501 47.3699 82.9398 49.0099 82.0898C49.7199 81.7198 50.3798 81.1801 50.9598 80.6201C51.5998 80.0001 51.8599 79.1698 51.6499 78.2798C51.0399 75.7598 49.8998 73.5198 47.8699 71.8398C44.3098 68.9098 40.3698 66.6901 35.8398 65.6001C33.7098 65.0901 31.5699 64.77 29.4099 64.77C28.4599 64.77 27.4999 64.8302 26.5299 64.9702C22.9199 65.4802 19.5098 66.6501 16.1998 68.1201C16.0698 68.1801 15.9399 68.23 15.7999 68.29C15.7799 68.26 15.7498 68.23 15.7298 68.21C15.8398 68.04 15.9099 67.83 16.0599 67.71C16.6699 67.19 17.2598 66.62 17.9398 66.21C19.5698 65.22 21.3799 64.6501 23.1799 64.0801C25.5599 63.3301 27.9798 62.8901 30.4398 62.8901C31.3198 62.8901 32.2098 62.9501 33.0998 63.0601C36.5298 63.5101 39.7499 64.6302 42.7999 66.2402C43.8799 66.8102 44.9098 67.4499 46.0798 68.1299C45.8598 67.8699 45.7298 67.69 45.5798 67.54C44.4198 66.37 43.1699 65.31 41.7599 64.46C36.9799 61.58 31.8298 60.1699 26.3598 60.1699C25.6298 60.1699 24.8999 60.1902 24.1599 60.2402C18.6899 60.6102 14.1698 62.8802 10.7098 67.1802C8.85982 69.4802 7.43982 72.03 6.20982 74.71C5.64982 75.94 5.12984 77.1799 4.60984 78.4199C4.53984 78.5899 4.58981 78.81 4.57981 79M26.6599 57.3301C25.3299 57.3301 23.9899 57.4301 22.6799 57.6201C15.6799 58.6401 10.4399 62.1302 7.11985 67.9902C6.37985 69.3002 5.66984 70.65 4.97984 71.96C4.63984 72.61 4.2898 73.2699 3.9398 73.9199C2.9998 75.6699 2.39983 77.3801 2.09983 79.1401C1.86983 80.5101 1.50984 81.5499 0.979836 82.4199C0.689836 82.8999 0.459875 83.6702 1.01988 84.6602C1.21988 85.0202 1.6699 85.4102 2.1699 85.4102C2.6999 85.4002 3.13982 85.0001 3.33982 84.6401C4.56982 82.3901 6.40991 80.59 8.80991 79.29C11.6199 77.77 14.7499 77.0298 18.3699 77.0298C19.1698 77.0298 19.9998 77.0701 20.8598 77.1401C23.8698 77.3901 26.6899 78.2801 29.4999 79.8501L30.4498 80.3901C32.3498 81.4501 34.3099 82.5598 36.2799 83.5698C38.9399 84.9498 41.4198 85.6201 43.8398 85.6201C44.1398 85.6201 44.4499 85.6098 44.7599 85.5898C47.2599 85.4098 49.8598 84.9798 51.9698 83.0698L52.1499 83.3101C52.2999 83.5201 52.5399 83.6401 52.7899 83.6401C52.8499 83.6401 52.9098 83.6401 52.9598 83.6201C53.2698 83.5501 53.5098 83.31 53.5698 83L53.6299 82.7202C53.6599 82.5902 53.6698 82.4901 53.6998 82.3901C53.7598 82.1201 53.8199 81.8501 53.8799 81.5801C54.0099 80.9701 54.1398 80.3901 54.3298 79.8301C54.7298 78.6601 54.6998 77.4898 54.2198 76.3398C53.9898 75.7898 53.7198 75.2698 53.4898 74.8398C53.1298 74.1698 52.7599 73.5098 52.3999 72.8398C52.0199 72.1498 51.6499 71.4698 51.2699 70.7798C49.9499 68.3398 48.6998 66.63 47.1998 65.25C44.1198 62.41 40.4999 60.3302 36.1399 58.9102C32.9499 57.8702 29.7599 57.3398 26.6699 57.3398L26.6599 57.3301ZM5.84983 77.54C6.21983 76.66 6.5698 75.85 6.9398 75.04C8.2998 72.05 9.69981 69.7102 11.3298 67.6802C14.5798 63.6302 18.9098 61.39 24.2098 61.04C24.9298 60.99 25.6498 60.9702 26.3598 60.9702C30.2298 60.9702 33.9398 61.7102 37.4398 63.1602C36.0398 62.7402 34.6298 62.4398 33.1998 62.2598C32.2898 62.1398 31.3598 62.0801 30.4398 62.0801C27.9998 62.0801 25.5498 62.4798 22.9398 63.2998C21.1198 63.8698 19.2299 64.4698 17.5199 65.5098C16.9399 65.8598 16.4398 66.3 15.9498 66.73C15.8098 66.85 15.6799 66.9698 15.5399 67.0898C15.3199 67.2698 15.2099 67.5002 15.1199 67.6602C15.0999 67.7002 15.0799 67.7398 15.0599 67.7798C14.8699 68.0798 14.8999 68.47 15.1399 68.73L15.1998 68.79C15.3598 68.97 15.5998 69.0801 15.8398 69.0801C15.9398 69.0801 16.0399 69.06 16.1299 69.02L16.2599 68.9702C16.3499 68.9302 16.4499 68.8901 16.5399 68.8501C20.3099 67.1801 23.5299 66.1998 26.6599 65.7598C27.5599 65.6298 28.4899 65.5698 29.4299 65.5698C31.3699 65.5698 33.4099 65.8399 35.6699 66.3799C39.7899 67.3799 43.6199 69.36 47.3799 72.46C49.0999 73.88 50.2499 75.8502 50.8899 78.4702C51.0699 79.2202 50.7399 79.7398 50.4199 80.0498C49.7999 80.6598 49.2199 81.1001 48.6599 81.3901C47.1699 82.1701 45.5998 82.5601 43.9898 82.5601C42.8698 82.5601 41.7099 82.37 40.5299 82C38.3699 81.32 36.4599 80.1998 34.4299 79.0098L34.0599 78.79C32.7999 78.05 31.2898 77.1801 29.7198 76.3301C27.5098 75.1401 25.1699 74.6198 23.1699 74.2798C21.1799 73.9298 19.4099 73.77 17.7499 73.77C16.5999 73.77 15.4799 73.85 14.4099 74.02C11.3999 74.48 8.65988 75.57 6.27988 77.27C6.14988 77.37 6.00984 77.4601 5.85984 77.5601L5.84983 77.54Z" fill="black"/>
<path d="M82.0398 117.91C81.1198 117.91 80.1898 117.75 79.2798 117.43C75.8498 116.24 72.9198 115.01 70.3098 113.66C69.2598 113.11 68.2298 112.49 67.2398 111.89L66.9898 111.74C65.7698 111 64.4297 110.61 63.1097 110.61C61.4198 110.61 59.7998 111.23 58.4198 112.4C58.1998 112.58 57.9598 112.77 57.6398 112.89C57.5898 112.91 57.5498 112.92 57.4998 112.92C57.3898 112.92 57.2897 112.88 57.2097 112.8C57.0997 112.69 57.0698 112.52 57.1298 112.37L57.2097 112.19C55.1597 113.44 53.3698 115.08 51.6298 116.67L50.7297 117.49C50.6497 117.56 50.5597 117.59 50.4597 117.59C50.3797 117.59 50.2997 117.56 50.2297 117.51L50.0797 117.4C49.9097 117.28 49.8697 117.04 49.9797 116.87C50.0897 116.69 50.1998 116.52 50.3098 116.34C50.5498 115.94 50.7997 115.53 51.0697 115.15C52.3897 113.31 54.2097 111.94 55.8197 110.74L56.4198 110.29C58.4898 108.73 60.6298 107.12 63.0298 105.94C67.8598 103.55 72.9797 102.34 78.2197 102.34C78.6297 102.34 79.0397 102.34 79.4497 102.36C81.7797 102.44 83.5197 102.87 85.0797 103.75C88.5897 105.73 90.1998 109.79 88.9098 113.42C88.1998 115.42 86.8098 116.79 84.7798 117.46C83.8798 117.76 82.9698 117.92 82.0598 117.92L82.0398 117.91ZM65.2798 107.77C65.6098 107.9 65.9398 108.02 66.2698 108.14C67.0598 108.43 67.8698 108.72 68.6398 109.1C70.0498 109.78 71.4397 110.49 72.8397 111.21C74.0597 111.83 75.2898 112.46 76.5198 113.06C78.6698 114.11 80.7297 114.78 82.8397 115.08C82.9797 115.1 83.1198 115.11 83.2598 115.11C83.8098 115.11 84.2698 114.93 84.6598 114.56C85.2098 114.03 85.7398 113.44 86.2598 112.8C86.8498 112.07 87.0198 111.2 86.7998 110.16C86.5598 109.04 85.9598 108.07 84.8898 107.13C83.5498 105.94 81.8398 105.33 79.5298 105.22C79.0298 105.2 78.5298 105.18 78.0398 105.18C74.8198 105.18 71.5097 105.68 68.1997 106.67C67.3697 106.92 66.5398 107.26 65.7398 107.58C65.5898 107.64 65.4398 107.7 65.2898 107.76L65.2798 107.77Z" fill="black"/>
<path d="M78.1996 102.73C78.5996 102.73 79.0097 102.73 79.4197 102.75C81.3497 102.82 83.1697 103.13 84.8597 104.09C88.1897 105.97 89.7397 109.81 88.5097 113.28C87.8397 115.17 86.5197 116.45 84.6297 117.08C83.7697 117.37 82.9097 117.51 82.0397 117.51C81.1697 117.51 80.2797 117.36 79.4097 117.06C76.3597 116 73.3597 114.8 70.4897 113.31C69.3697 112.73 68.2796 112.06 67.1996 111.4C65.8897 110.6 64.4897 110.21 63.1097 110.21C61.3597 110.21 59.6297 110.84 58.1597 112.09C57.9597 112.26 57.7497 112.41 57.4897 112.51L57.9298 111.46C57.8698 111.44 57.8097 111.41 57.7597 111.39C54.9897 112.89 52.7596 115.09 50.4496 117.18C50.3996 117.14 50.3497 117.11 50.2997 117.07C50.6597 116.5 50.9797 115.91 51.3797 115.37C52.6397 113.62 54.3297 112.33 56.0397 111.05C58.3397 109.33 60.5996 107.57 63.1896 106.28C67.9496 103.93 72.9296 102.72 78.1996 102.72M83.2597 115.5C83.8997 115.5 84.4598 115.29 84.9298 114.84C85.5098 114.28 86.0598 113.68 86.5598 113.05C87.2598 112.18 87.4098 111.16 87.1798 110.08C86.8998 108.75 86.1497 107.72 85.1497 106.83C83.5497 105.41 81.6097 104.92 79.5397 104.82C79.0397 104.8 78.5297 104.78 78.0297 104.78C74.6497 104.78 71.3297 105.31 68.0797 106.28C66.8397 106.65 65.6596 107.19 64.4496 107.65C64.4496 107.73 64.4697 107.81 64.4697 107.89C64.6697 107.96 64.8696 108.03 65.0696 108.11C66.1996 108.55 67.3697 108.91 68.4597 109.44C71.1097 110.72 73.6997 112.1 76.3397 113.4C78.3797 114.4 80.5097 115.13 82.7797 115.46C82.9397 115.48 83.0997 115.5 83.2597 115.5ZM78.1996 101.92C72.8897 101.92 67.7197 103.15 62.8297 105.56C60.3897 106.76 58.2297 108.39 56.1497 109.96L55.5598 110.41C53.9298 111.63 52.0897 113.01 50.7297 114.9C50.4397 115.3 50.1896 115.72 49.9496 116.12C49.8396 116.3 49.7397 116.47 49.6297 116.65C49.4097 117.01 49.4997 117.47 49.8397 117.72L49.9298 117.78L49.9897 117.82C50.1297 117.92 50.2997 117.97 50.4597 117.97C50.6497 117.97 50.8397 117.9 50.9997 117.76C51.2997 117.49 51.5997 117.21 51.8997 116.94C53.5197 115.46 55.0698 114.05 56.8098 112.89C56.8398 112.95 56.8798 113 56.9298 113.05C57.0798 113.21 57.2897 113.3 57.5097 113.3C57.5997 113.3 57.6997 113.28 57.7897 113.25C58.1697 113.11 58.4596 112.89 58.6896 112.69C59.9996 111.58 61.5297 111 63.1297 111C64.3797 111 65.6498 111.37 66.8098 112.07L67.0598 112.22C68.0498 112.83 69.0797 113.45 70.1497 114C72.7797 115.36 75.7297 116.6 79.1697 117.79C80.1297 118.12 81.0996 118.29 82.0696 118.29C83.0396 118.29 83.9697 118.13 84.9097 117.81C87.0297 117.1 88.5397 115.62 89.2897 113.52C90.6397 109.71 88.9497 105.44 85.2797 103.37C83.6597 102.46 81.8697 102.01 79.4697 101.93C79.0497 101.92 78.6397 101.91 78.2297 101.91L78.1996 101.92ZM66.3897 107.74C67.0397 107.48 67.6698 107.24 68.3098 107.04C71.5798 106.06 74.8497 105.57 78.0297 105.57C78.5197 105.57 79.0097 105.58 79.4997 105.6C81.7197 105.7 83.3497 106.28 84.6197 107.41C85.6097 108.29 86.1797 109.19 86.3997 110.22C86.5997 111.14 86.4396 111.9 85.9396 112.53C85.4396 113.15 84.9197 113.73 84.3797 114.25C84.0697 114.55 83.7097 114.69 83.2597 114.69C83.1497 114.69 83.0197 114.69 82.8997 114.66C80.8397 114.36 78.8097 113.71 76.6996 112.67C75.4797 112.07 74.2597 111.45 73.0497 110.83C71.6697 110.13 70.2396 109.4 68.8196 108.71C68.0296 108.33 67.2097 108.03 66.4097 107.74C66.4097 107.74 66.3997 107.74 66.3897 107.74Z" fill="black"/>
</svg>
