<svg width="136" height="127" viewBox="0 0 136 127" fill="none" xmlns="http://www.w3.org/2000/svg">
<path d="M31.0197 59.5498C30.2497 60.2798 29.5597 60.9301 28.8797 61.5801C28.7497 61.5201 28.6197 61.4502 28.4897 61.3902C28.6197 60.4202 28.6297 59.4203 28.8897 58.4903C29.9597 54.5403 31.3997 50.7301 33.2897 47.1001C33.4797 46.7401 33.6597 46.3598 33.9297 46.0698C37.6297 42.2898 41.5897 38.93 47.0297 37.94C47.5897 37.84 48.1597 37.75 48.7297 37.73C55.1197 37.55 61.4797 37.8598 67.7497 39.2598C72.4597 40.3098 76.4098 42.5698 79.8298 46.0098C85.4198 51.6298 89.8497 57.9199 92.0897 65.6099C93.3797 70.0299 93.7397 74.54 92.7097 79.02C91.4297 84.61 87.7597 88.4201 82.8197 91.0801C77.2597 94.0801 71.2497 95.1998 64.9897 95.3198C54.9597 95.5098 46.5497 91.7802 39.6297 84.6802C34.1797 79.1002 31.0597 72.3798 30.7197 64.5098C30.6597 63.2098 30.8697 61.8901 30.9597 60.5801C30.9797 60.2601 30.9997 59.9501 31.0197 59.5401V59.5498ZM58.3597 45.7998C55.9197 45.6598 53.7831 45.9499 51.9497 46.6699C51.6997 46.7699 51.4297 46.8501 51.1697 46.8701C47.7497 47.1301 45.1897 48.9502 42.9897 51.4102C40.7097 53.9602 39.2697 57.0098 37.7997 60.0498C35.8597 64.0398 35.8097 68.1203 37.2497 72.2403C39.0997 77.5603 42.7797 81.4501 47.3397 84.5401C52.9497 88.3301 59.1197 90.2299 65.9597 89.8799C69.7297 89.6899 73.4197 89.22 76.9197 87.77C81.6597 85.8 85.1097 82.57 86.4398 77.48C87.5798 73.13 86.8197 68.9201 85.2197 64.8101C83.2397 59.7401 79.8797 55.6299 76.2797 51.6699C74.2397 49.4299 71.7797 47.9501 68.8897 47.1201C65.2897 46.0901 61.5897 45.8798 58.3697 45.7998H58.3597Z" fill="black"/>
<path d="M111.34 59.93C110.05 58.54 109.95 57.02 110.34 55.41C110.83 53.4 111.89 51.6799 113.17 50.0999C116.96 45.4199 121.6 41.8798 127.26 39.7498C128.78 39.1798 130.36 38.84 132.01 39.16C133.75 39.5 135.06 40.7098 135.3 42.4198C135.36 42.8898 135.08 43.5398 134.74 43.9198C132.65 46.3598 130.09 48.2096 127.3 49.7596C125.27 50.8896 123.23 51.9999 121.17 53.0799C117.63 54.9299 114.22 56.9498 111.33 59.9198L111.34 59.93Z" fill="black"/>
<path d="M37.2798 95.61C37.1198 97.81 36.3598 99.8301 35.2798 101.71C33.0598 105.55 30.7798 109.37 28.4098 113.13C27.8598 114 26.9098 114.68 26.0198 115.26C24.9198 115.97 24.0698 115.61 23.4398 114.47C22.8698 113.44 22.1698 112.48 21.6798 111.41C21.3798 110.75 21.0498 109.85 21.2698 109.24C22.8298 104.79 24.3898 100.33 27.2198 96.4703C28.5098 94.7003 30.1698 93.3804 32.0398 92.2404C34.2398 90.8904 37.5098 92.9 37.2898 95.63L37.2798 95.61Z" fill="black"/>
<path d="M62.9 114.11C62.86 117.21 62.33 120.23 60.98 123.04C60.5 124.05 59.8 125.01 59.01 125.82C58.11 126.75 57 126.68 56.36 125.57C55.59 124.22 55 122.72 54.59 121.22C53.35 116.65 53.77 112.14 55.31 107.7C55.8 106.29 56.76 105.56 58.25 105.49C59.82 105.42 61.21 106.21 61.76 107.58C62.59 109.67 62.94 111.86 62.9 114.12V114.11Z" fill="black"/>
<path d="M120.9 100.39C119.1 100.27 117.1 99.3799 115.22 98.2499C113.58 97.2599 111.95 96.23 110.39 95.12C108.43 93.73 107.46 91.65 106.83 89.41C106.58 88.53 106.78 87.6197 107.59 87.0497C108.66 86.2997 109.87 85.9399 111.11 86.5599C112.79 87.3999 114.49 88.2499 116.08 89.2499C119.14 91.1699 121.77 93.5696 123.55 96.7796C124.75 98.9396 123.84 100.42 120.9 100.4V100.39Z" fill="black"/>
<path d="M52.4896 23.4301C52.4396 24.2401 52.4196 25.2797 52.3096 26.3197C52.1696 27.6597 51.5296 28.2097 50.2696 27.7997C49.3996 27.5197 48.5096 26.9098 47.9196 26.2098C46.1896 24.1598 45.3396 21.64 44.7296 19.08C44.2496 17.06 43.9196 14.98 43.7096 12.91C43.4896 10.7 44.2696 9.83984 46.4496 9.45984C46.6796 9.41984 46.9196 9.40977 47.1496 9.37977C49.4696 9.04977 49.5096 9.02992 50.3296 11.2899C51.7196 15.1299 52.0996 19.1601 52.4896 23.4301Z" fill="black"/>
<path d="M92.7397 11.9903C93.0397 9.38025 93.1997 6.75019 93.6697 4.18019C94.2597 0.980195 96.8597 -0.340039 99.5897 0.93996C100.86 1.53996 101.5 2.57018 101.5 3.91018C101.5 5.18018 101.4 6.47021 101.13 7.70021C100.47 10.7002 99.1397 13.4199 97.2697 15.8399C96.6697 16.6199 95.8697 17.3001 95.0597 17.8701C94.3097 18.4001 93.6197 18.1501 93.2697 17.2901C93.0197 16.6801 92.8897 15.9999 92.8497 15.3399C92.7797 14.2299 92.8298 13.1198 92.8298 12.0098C92.7998 12.0098 92.7797 12.01 92.7497 12L92.7397 11.9903Z" fill="black"/>
<path d="M6.45978 65.31C3.00978 65.56 -0.230218 64.71 -3.35022 63.33C-3.81022 63.13 -4.24022 62.85 -4.63022 62.54C-6.02022 61.43 -5.78022 59.92 -4.09022 59.29C-3.47022 59.06 -2.78022 58.9398 -2.11022 58.8998C2.90978 58.5998 7.77978 59.34 12.4198 61.29C13.1398 61.59 13.7798 62.1398 14.4098 62.6298C14.9098 63.0198 14.8298 63.5399 14.2998 63.7499C13.1198 64.2099 11.9198 64.6701 10.6898 64.9101C9.30978 65.1701 7.86978 65.19 6.45978 65.31Z" fill="black"/>
<path d="M90.5698 114.9C90.4898 115.87 90.5198 117.28 89.2698 117.84C88.1698 118.33 87.1499 117.5 86.2599 116.84C84.8699 115.79 83.7298 114.54 83.2498 112.79C82.9498 111.71 83.2499 110.89 84.0799 110.19C85.0299 109.4 85.9398 108.55 86.9298 107.82C87.1398 107.67 87.7498 107.78 87.9898 107.99C89.5398 109.3 90.5798 112.08 90.5698 114.91V114.9Z" fill="black"/>
</svg>
