<svg width="138" height="26" viewBox="0 0 138 26" fill="none" xmlns="http://www.w3.org/2000/svg">
<path d="M0.539978 4.07983C0.569978 4.51983 0.450024 5.04983 0.650024 5.24983C2.28002 6.86983 4.29001 7.76983 6.57001 8.00983C6.81001 8.03983 7.17001 7.78983 7.32001 7.56983C7.40001 7.45983 7.23 6.98983 7.06 6.89983C5.2 5.95983 3.33 5.04983 1.44 4.14983C1.25 4.05983 0.990029 4.10983 0.530029 4.07983H0.539978Z" fill="#9691D8"/>
<path d="M7.93 0.909912C7.48 2.23991 8.50003 5.31991 9.65003 5.82991C9.88003 5.92991 10.54 5.64991 10.64 5.40991C11.09 4.18991 9.29 1.26991 7.93 0.909912Z" fill="#9691D8"/>
<path d="M128.87 19.8099C128.82 19.6299 128.97 19.4499 129.16 19.4799C131.5 19.9099 133.16 21.1299 134.51 22.7899C135.09 23.5099 134.86 24.1799 133.75 24.1599C132.21 24.1399 129.47 21.7599 128.87 19.7999V19.8099Z" fill="#9691D8"/>
<path d="M126.48 24.3898C126.47 24.5898 126.26 24.7898 126.01 24.9798C125.63 25.2698 125.09 25.1898 124.78 24.8198C124.63 24.6398 124.52 24.4498 124.53 24.2798C124.65 22.6898 125.34 21.3698 125.56 19.7898C125.56 19.7298 125.47 19.4398 125.75 19.4098C125.99 19.3898 126.19 19.5598 126.22 19.7998C126.32 20.7498 126.55 23.1298 126.47 24.3798L126.48 24.3898Z" fill="#9691D8"/>
<path d="M131.08 15.9499C130.78 15.9499 130.62 15.5999 130.8 15.3599C131.34 14.6699 131.74 14.0399 132.29 13.8499C133.38 13.4699 134.64 13.4199 135.81 13.5199C136.25 13.5599 136.65 14.0399 137.06 14.4399C137.21 14.5899 137.2 14.8199 137.06 14.9699C136.59 15.3999 136.13 15.9199 135.62 15.9699C134.27 16.1099 132.9 15.9999 131.09 15.9399L131.08 15.9499Z" fill="#9691D8"/>
</svg>
