<svg width="16" height="31" viewBox="0 0 16 31" fill="none" xmlns="http://www.w3.org/2000/svg">
<path d="M0.550398 14.0684C-0.629602 12.2984 0.200381 11.2185 1.97038 11.4085C6.07038 11.8485 9.78037 13.2585 12.9004 16.5885C13.1504 16.8585 13.0204 17.2985 12.6704 17.3985C8.88039 18.4785 2.19039 16.5284 0.540389 14.0584L0.550398 14.0684Z" fill="black"/>
<path d="M12.7704 23.3785C13.1704 23.1785 13.6705 23.3286 13.8805 23.7286C14.1305 24.2086 13.5504 24.3585 13.4704 24.4285C11.1604 26.4385 9.74044 28.9284 7.30044 30.7784C7.03044 30.9684 6.63043 30.9885 6.17043 30.9385C5.26043 30.8385 4.5804 30.0385 4.6404 29.1185C4.6904 28.5185 4.78042 27.9786 5.10042 27.7486C7.04042 26.3286 11.1204 24.2085 12.7704 23.3785Z" fill="black"/>
<path d="M13.7721 11.2285C11.7921 8.36854 10.1821 6.26851 9.00214 3.94851C8.56214 3.07851 8.92213 1.77839 9.12213 0.57839C9.19213 0.17839 9.5721 -0.0716685 9.9621 0.0183315C11.0421 0.258332 12.2321 0.39838 12.7621 1.06838C14.1421 2.84838 15.3721 4.94841 15.9021 7.09841C16.1721 8.17841 15.5821 9.46838 15.0221 11.0684C14.8321 11.5984 14.1121 11.6885 13.7821 11.2285H13.7721Z" fill="black"/>
</svg>
