<svg width="251" height="57" viewBox="0 0 251 57" fill="none" xmlns="http://www.w3.org/2000/svg">
<path d="M42.2301 41.17C34.0501 43.44 25.4601 41.8 18.3101 36.12C18.0901 35.94 17.8601 35.76 17.6401 35.58C13.2201 31.9 9.68006 25.72 9.72006 18.9C9.76006 12.08 14.3601 6.14004 19.6201 6.14004C24.8801 6.14004 26.3301 10.66 30.0201 11.44C37.8701 13.1 42.2501 1.79004 51.5701 1.79004C58.2901 1.79004 63.7701 8.44004 63.2501 17.15C62.7201 25.85 57.5901 33.17 51.5901 37.09C48.6301 39.02 45.4601 40.28 42.2201 41.18L42.2301 41.17Z" fill="#B5E8BF"/>
<path d="M58.0698 42.07C57.8498 41.9 57.5398 41.94 57.3698 42.15C53.6698 46.76 48.0098 50.53 41.3798 52.79C35.8898 54.66 30.0898 55.28 26.9298 54.35C26.7998 54.31 26.7598 54.2 26.7598 54.11C26.7598 54.02 26.8198 53.91 26.9498 53.89C27.8598 53.71 30.0298 53.19 30.5998 52.21C30.7498 51.94 30.7798 51.66 30.6898 51.38C30.3898 50.49 28.7598 50.32 26.8598 50.11C25.0998 49.92 23.1098 49.71 22.1698 48.85C21.9798 48.67 21.9798 48.44 22.0498 48.29C22.1098 48.15 22.2698 48 22.5098 48.03C22.9598 48.08 23.5598 48.17 24.2398 48.28C26.5598 48.66 29.4398 49.12 30.4698 48.32C30.6998 48.14 30.8298 47.91 30.8498 47.62C30.9598 46.27 28.3098 45.56 25.9698 44.93C24.5198 44.54 23.1498 44.18 22.9298 43.77C22.8998 43.72 22.8998 43.67 22.9098 43.62C23.1698 42.95 25.1498 43.39 27.2598 43.86C29.7498 44.41 32.5698 45.04 33.7598 44.13C34.1198 43.86 34.3198 43.46 34.3398 42.95C34.3998 41.83 32.8698 41.06 31.7398 40.5C31.3998 40.33 31.1098 40.18 30.9398 40.06C30.7898 39.96 30.7298 39.84 30.7598 39.74C30.7898 39.65 30.8998 39.59 31.0398 39.59C40.2998 39.79 48.7498 36.53 54.2298 30.65C58.6598 25.89 60.6798 19.9 60.0698 13.34C59.5098 7.39003 55.4998 2.57003 49.8698 1.08003C49.2098 0.890033 48.4298 0.74003 47.5298 0.62003C46.0198 0.51003 44.5498 0.59003 43.1798 0.85003C38.1398 1.75003 34.2598 5.36003 32.2198 11.02C31.0898 8.69003 29.5098 6.63003 27.7498 5.20003C24.4798 2.43003 19.3898 1.54003 15.3798 3.02003C12.2398 4.18003 10.2298 6.59003 9.70983 9.80003C9.25983 12.62 10.2098 15.2 12.3898 17.05C15.6198 19.79 20.8998 20.4 26.1798 18.64C26.5098 18.53 26.7198 18.57 26.7698 18.65C26.8198 18.73 26.7698 18.89 26.6098 19.08C26.2298 19.52 25.5398 19.93 24.8698 20.33C23.8998 20.9 22.9098 21.5 22.7598 22.25C22.6998 22.57 22.7898 22.9 23.0398 23.24C24.0398 24.57 26.9398 23.55 29.4998 22.64C31.5498 21.91 33.4898 21.23 33.8498 21.97C33.8898 22.05 33.8898 22.13 33.8498 22.21C33.6298 22.74 32.0698 23.28 30.5698 23.81C28.3898 24.57 26.1298 25.37 26.3598 26.49C26.4598 26.96 26.7098 27.32 27.0998 27.56C28.4498 28.38 31.2798 27.58 33.1498 27.04C33.4598 26.95 33.7498 26.87 34.0098 26.8C34.7398 26.61 35.2898 26.78 35.3998 26.98C35.4398 27.06 35.3998 27.16 35.2798 27.26C34.2098 28.19 32.2498 28.56 30.5198 28.89C28.7298 29.23 27.1798 29.53 26.6998 30.34C26.5298 30.63 26.5098 30.97 26.6298 31.35C26.9698 32.41 28.7898 32.49 31.6298 32.29C32.8598 32.19 32.9198 32.41 32.9198 32.42C32.9398 32.49 32.7498 32.69 32.3298 32.86C27.2498 34.56 21.0698 34.14 15.3898 31.7C9.72983 29.28 5.31984 25.11 3.22984 20.21C3.11984 19.95 2.81983 19.83 2.55983 19.94L1.23983 20.52C0.979833 20.64 0.859833 20.95 0.989833 21.21C4.91983 29.01 11.6798 32.51 16.6998 34.07C23.0898 36.06 29.1198 35.73 32.2598 34.51C34.1398 33.78 34.9798 32.76 34.6398 31.63C34.3298 30.62 32.6798 30.76 30.9198 30.91C30.5998 30.94 30.2798 30.97 29.9598 30.99C29.0598 31.05 28.4398 30.94 28.2798 30.85C28.3398 30.82 28.4898 30.76 28.8698 30.69C33.6698 29.9 36.4998 28.87 37.2898 27.64C37.5198 27.28 37.5798 26.9 37.4698 26.51C37.2998 25.93 36.8198 25.45 36.2198 25.27C35.0398 24.92 33.3098 25.34 31.6398 25.74C30.9698 25.9 30.3298 26.06 29.7498 26.16C29.1498 26.26 28.8698 26.24 28.7698 26.21C28.7898 26.19 28.8298 26.18 28.8898 26.16C33.0798 24.76 35.9498 23.55 36.2998 22.15C36.4298 21.66 36.2498 21.16 35.7598 20.64C34.1998 19.09 30.7898 20.29 28.0398 21.26C27.1298 21.58 26.2698 21.88 25.6198 22.03C25.2398 22.12 25.0298 22.14 24.9198 22.14C28.3298 20.49 29.4598 18.63 29.0598 17.51C28.6998 16.5 27.2398 16.16 25.2598 16.64C16.8398 18.66 13.7098 15.65 12.7498 14.27C11.4398 12.38 11.4798 9.85003 12.8498 7.83003C14.6898 5.13003 18.2298 4.08003 22.3398 5.03003C25.6598 5.88003 28.5498 8.62003 30.2698 12.55L30.2898 12.59C30.3198 12.67 30.3598 12.74 30.3898 12.82L30.4698 13.02C30.6898 13.58 31.1998 14.05 31.7698 14.19C32.6998 14.46 33.7298 13.99 34.1198 13.11C34.1998 12.88 34.2798 12.65 34.3598 12.42C34.5698 11.83 34.7798 11.21 35.0498 10.63C36.7398 6.70003 39.7798 4.04003 43.3798 3.33003C44.5798 3.07003 45.8998 2.99003 47.3198 3.08003C51.3298 3.55003 54.6198 5.82003 56.3398 9.31003C59.5998 15.97 57.0398 24.27 52.8298 29.02C48.0198 34.56 40.1798 37.62 31.3298 37.42C29.3298 37.38 28.6398 38.2 28.3998 38.7C28.0898 39.35 28.1998 40.16 28.6798 40.73C29.3398 41.51 30.6898 42.19 31.4398 42.53C31.4798 42.55 31.4798 42.58 31.4798 42.6C31.4798 42.61 31.4698 42.65 31.4198 42.66C30.9098 42.74 29.8798 42.49 28.6898 42.2C25.8898 41.53 22.0498 40.6 20.9798 42.97C20.8098 43.43 20.8198 43.86 21.0298 44.27C21.6798 45.55 24.0898 46.21 25.6798 46.65C26.1298 46.77 26.5198 46.88 26.7598 46.98C26.3398 47.04 25.5798 46.93 24.7698 46.82C23.1598 46.59 21.3398 46.33 20.5998 47.05C20.3398 47.3 20.2298 47.65 20.2798 48.1C20.4098 49.37 21.5498 51.52 27.7198 51.77C27.7198 51.77 27.7198 51.81 27.6898 51.81C26.6498 51.96 25.9298 52.31 25.4798 52.56C24.7398 52.98 24.3198 53.67 24.3898 54.38C24.4598 55.07 24.9698 55.63 25.7898 55.9C27.4798 56.46 29.3898 56.73 31.4398 56.73C40.5698 56.73 52.3998 51.44 59.3198 43.68C59.5098 43.46 59.4798 43.13 59.2498 42.95L58.1098 42.05L58.0698 42.07Z" fill="black"/>
<path d="M39.5997 18.16C39.0297 18.42 38.7597 19.07 38.9897 19.65C39.2097 20.23 39.8497 20.55 40.4497 20.37C41.8097 19.96 44.9797 18.99 47.0497 24.22C47.2297 24.68 47.6697 24.96 48.1497 24.96C48.2497 24.96 48.3597 24.95 48.4597 24.92C49.0597 24.76 49.4297 24.18 49.3397 23.58L49.2997 23.36C48.9897 21.45 48.4697 18.25 52.7597 15.93C53.3197 15.63 53.5397 14.94 53.2597 14.36C52.9797 13.79 52.2997 13.54 51.7197 13.79C49.4197 14.81 47.6497 15.18 45.6597 10.77C45.4297 10.25 44.8497 9.96004 44.2897 10.1C43.7197 10.23 43.3297 10.75 43.3597 11.33C43.3597 11.52 43.3897 11.73 43.4097 11.96C43.5797 13.76 43.8197 16.22 39.5797 18.15L39.5997 18.16ZM45.4997 14.63C46.4297 15.73 47.4597 16.34 48.6597 16.51C47.6997 17.69 47.2497 18.92 47.0697 20.07C46.0997 18.96 44.9497 18.28 43.6297 18.03C44.7597 16.91 45.2797 15.72 45.4897 14.63H45.4997Z" fill="black"/>
<path d="M77.84 7.18005H75.36C75.1833 7.18005 75.04 7.32332 75.04 7.50005V25.5801C75.04 25.7568 75.1833 25.9001 75.36 25.9001H77.84C78.0168 25.9001 78.16 25.7568 78.16 25.5801V7.50005C78.16 7.32332 78.0168 7.18005 77.84 7.18005Z" fill="black"/>
<path d="M95.67 25.58V14.86C95.67 13.11 95.15 11.71 94.11 10.68C93.07 9.65002 91.66 9.14001 89.89 9.14001C88.12 9.14001 86.69 9.74002 85.76 10.93C85.74 10.97 85.71 10.98 85.68 10.96C85.65 10.94 85.63 10.91 85.63 10.86V9.69001C85.63 9.47001 85.52 9.37001 85.31 9.37001H82.84C82.62 9.37001 82.52 9.48001 82.52 9.69001V25.58C82.52 25.8 82.63 25.9 82.84 25.9H85.31C85.53 25.9 85.63 25.79 85.63 25.58V15.44C85.63 14.38 85.96 13.51 86.61 12.84C87.26 12.17 88.09 11.83 89.11 11.83C90.13 11.83 90.98 12.17 91.61 12.84C92.24 13.51 92.55 14.39 92.55 15.47V25.58C92.55 25.8 92.66 25.9 92.87 25.9H95.34C95.56 25.9 95.66 25.79 95.66 25.58H95.67Z" fill="black"/>
<path d="M102.33 25.64C102.4 25.81 102.51 25.9 102.69 25.9H105.26C105.45 25.9 105.57 25.8 105.62 25.61L108.64 14.66C108.64 14.66 108.69 14.59 108.72 14.59C108.75 14.59 108.78 14.61 108.8 14.66L111.99 25.64C112.06 25.81 112.17 25.9 112.35 25.9H114.88C115.05 25.9 115.17 25.81 115.24 25.64L119.95 9.75005C119.97 9.64005 119.95 9.56005 119.9 9.49005C119.85 9.42005 119.76 9.39005 119.66 9.39005L117.16 9.36005C116.96 9.36005 116.85 9.46005 116.8 9.65005L113.58 21.41C113.58 21.41 113.53 21.48 113.5 21.48C113.47 21.48 113.44 21.46 113.42 21.41L110.2 9.65005C110.16 9.46005 110.04 9.36005 109.84 9.36005H107.6C107.4 9.36005 107.29 9.46005 107.24 9.65005L104.09 21.45C104.09 21.45 104.04 21.52 104.01 21.52C103.98 21.52 103.95 21.5 103.93 21.45L100.84 9.65005C100.8 9.46005 100.68 9.36005 100.48 9.36005H97.9499C97.7299 9.36005 97.6299 9.45004 97.6299 9.62004L97.6599 9.72005L102.34 25.64H102.33Z" fill="black"/>
<path d="M135.19 25.58V14.6C135.19 13.54 134.92 12.59 134.39 11.76C133.86 10.93 133.1 10.28 132.12 9.81005C131.13 9.34005 129.98 9.11005 128.66 9.11005C126.86 9.11005 125.37 9.52005 124.18 10.33C122.99 11.14 122.31 12.19 122.13 13.47C122.11 13.6 122.21 13.69 122.42 13.73L125.05 14.09C125.25 14.11 125.37 14.01 125.44 13.8C125.57 13.19 125.92 12.71 126.5 12.35C127.07 11.99 127.82 11.81 128.73 11.81C129.86 11.81 130.7 12.08 131.25 12.61C131.8 13.14 132.08 13.88 132.08 14.84V15.72C132.08 15.81 132.04 15.85 131.95 15.85H128.31C126.19 15.85 124.54 16.33 123.35 17.3C122.17 18.26 121.58 19.59 121.58 21.28C121.58 22.97 122.1 24.16 123.16 24.97C124.21 25.78 125.54 26.19 127.14 26.19C128.14 26.19 129.04 26.03 129.85 25.72C130.66 25.41 131.35 24.96 131.91 24.37C132.02 24.31 132.07 24.33 132.07 24.44V25.61C132.07 25.83 132.18 25.93 132.39 25.93H134.86C135.08 25.93 135.18 25.82 135.18 25.61L135.19 25.58ZM132.07 20.32C132.07 21.25 131.65 22.02 130.8 22.63C129.95 23.24 128.96 23.54 127.81 23.54C126.88 23.54 126.12 23.33 125.55 22.92C124.98 22.51 124.69 21.9 124.69 21.1C124.69 20.21 125.07 19.52 125.83 19.02C126.59 18.52 127.61 18.27 128.88 18.27H131.93C132.02 18.27 132.06 18.31 132.06 18.4V20.32H132.07Z" fill="black"/>
<path d="M148.18 12.45L148.7 10.01C148.74 9.82001 148.69 9.69001 148.54 9.62001C147.98 9.34001 147.35 9.20001 146.66 9.20001C144.97 9.20001 143.64 9.96001 142.66 11.47C142.64 11.51 142.61 11.53 142.58 11.52C142.55 11.51 142.53 11.47 142.53 11.41V9.69001C142.53 9.47001 142.42 9.37001 142.21 9.37001H139.74C139.52 9.37001 139.42 9.48001 139.42 9.69001V25.58C139.42 25.8 139.53 25.9 139.74 25.9H142.21C142.43 25.9 142.53 25.79 142.53 25.58V16.09C142.53 15.03 142.86 14.17 143.52 13.51C144.18 12.85 145.02 12.5 146.04 12.45L146.5 12.42C147 12.42 147.43 12.5 147.8 12.65C148.04 12.71 148.17 12.65 148.19 12.46L148.18 12.45Z" fill="black"/>
<path d="M163.62 3.15002H161.15C160.93 3.15002 160.83 3.26002 160.83 3.47002V10.72C160.83 10.72 160.81 10.8 160.78 10.82C160.75 10.84 160.71 10.83 160.67 10.79C160.19 10.25 159.63 9.83002 158.96 9.54002C158.3 9.25002 157.6 9.10002 156.86 9.10002C155.23 9.10002 153.9 9.50002 152.86 10.3C151.82 11.1 151.07 12.22 150.62 13.65C150.27 14.75 150.1 16.07 150.1 17.58C150.1 19.2 150.31 20.59 150.72 21.74C151.2 23.15 151.95 24.24 152.98 25.01C154.01 25.78 155.3 26.16 156.86 26.16C157.62 26.16 158.32 26.01 158.97 25.7C159.62 25.39 160.18 24.97 160.66 24.43C160.7 24.39 160.74 24.38 160.77 24.4C160.8 24.42 160.82 24.45 160.82 24.5V25.57C160.82 25.79 160.93 25.89 161.14 25.89H163.61C163.83 25.89 163.94 25.78 163.94 25.57V3.47002C163.94 3.25002 163.83 3.15002 163.61 3.15002H163.62ZM160.01 21.7C159.36 22.87 158.41 23.45 157.15 23.45C155.72 23.45 154.69 22.85 154.06 21.66C153.52 20.64 153.25 19.3 153.25 17.63C153.25 15.85 153.6 14.42 154.29 13.34C154.92 12.3 155.88 11.78 157.18 11.78C158.39 11.78 159.31 12.33 159.94 13.44C160.48 14.39 160.75 15.78 160.75 17.6C160.75 19.42 160.5 20.78 160 21.69L160.01 21.7Z" fill="black"/>
<path d="M183.08 16.31C182.97 16.24 182.97 16.18 183.08 16.12C184.79 15.38 185.65 14.08 185.65 12.22C185.65 10.53 185.11 9.26002 184.02 8.42002C182.94 7.57002 181.4 7.15002 179.41 7.15002H172.55C172.33 7.15002 172.23 7.26002 172.23 7.47002V25.57C172.23 25.79 172.34 25.89 172.55 25.89H179.6C181.48 25.89 183.01 25.45 184.17 24.56C185.33 23.67 185.91 22.38 185.91 20.69C185.91 18.57 184.97 17.1 183.08 16.3V16.31ZM175.35 10.01C175.35 9.92002 175.39 9.88002 175.48 9.88002H179.61C180.5 9.88002 181.22 10.12 181.77 10.59C182.32 11.07 182.6 11.69 182.6 12.47C182.6 13.25 182.32 13.88 181.77 14.35C181.22 14.83 180.5 15.07 179.61 15.07H175.48C175.39 15.07 175.35 15.03 175.35 14.94V10V10.01ZM181.98 22.41C181.44 22.92 180.72 23.17 179.84 23.17H175.49C175.4 23.17 175.36 23.13 175.36 23.04V17.74C175.36 17.65 175.4 17.61 175.49 17.61H179.78C180.69 17.61 181.42 17.86 181.97 18.37C182.52 18.88 182.8 19.55 182.8 20.37C182.8 21.19 182.53 21.89 181.99 22.4L181.98 22.41Z" fill="black"/>
<path d="M199.38 10.32C198.22 9.51004 196.86 9.10004 195.3 9.10004C193.65 9.10004 192.23 9.51004 191.04 10.32C189.85 11.13 189.01 12.25 188.54 13.68C188.17 14.74 187.99 16.04 187.99 17.58C187.99 19.12 188.19 20.37 188.58 21.54C189.06 22.99 189.89 24.12 191.08 24.94C192.27 25.75 193.67 26.16 195.27 26.16C196.87 26.16 198.23 25.75 199.4 24.94C200.57 24.13 201.39 23 201.87 21.54C202.26 20.39 202.45 19.06 202.45 17.54C202.45 16.02 202.26 14.75 201.87 13.64C201.37 12.23 200.54 11.12 199.38 10.31V10.32ZM198.94 20.67C198.66 21.56 198.19 22.25 197.54 22.73C196.89 23.22 196.13 23.46 195.27 23.46C194.34 23.46 193.54 23.22 192.88 22.73C192.22 22.24 191.76 21.56 191.5 20.67C191.26 19.89 191.14 18.87 191.14 17.62C191.14 16.37 191.26 15.36 191.5 14.6C191.78 13.71 192.25 13.02 192.9 12.54C193.55 12.05 194.32 11.81 195.21 11.81C196.1 11.81 196.93 12.05 197.58 12.54C198.23 13.03 198.7 13.72 198.98 14.6C199.2 15.4 199.3 16.41 199.3 17.62C199.3 18.83 199.18 19.85 198.94 20.67Z" fill="black"/>
<path d="M218.18 25.58V9.68999C218.18 9.46999 218.07 9.37 217.86 9.37H215.42C215.2 9.37 215.1 9.47999 215.1 9.68999V19.8C215.1 20.9 214.78 21.79 214.13 22.45C213.48 23.11 212.61 23.44 211.53 23.44C210.45 23.44 209.61 23.12 209.01 22.47C208.41 21.82 208.12 20.93 208.12 19.81V9.7C208.12 9.48 208.01 9.38 207.8 9.38H205.36C205.14 9.38 205.03 9.49 205.03 9.7V20.78C205.03 21.93 205.3 22.9 205.84 23.7C206.38 24.5 207.1 25.11 208 25.52C208.9 25.93 209.88 26.14 210.94 26.14C212.74 26.14 214.07 25.54 214.94 24.35C214.98 24.31 215.02 24.29 215.05 24.3C215.08 24.31 215.1 24.34 215.1 24.38V25.58C215.1 25.8 215.21 25.9 215.42 25.9H217.86C218.08 25.9 218.18 25.79 218.18 25.58Z" fill="black"/>
<path d="M228.8 9.13C226.98 9.13 225.6 9.73 224.67 10.92C224.65 10.96 224.62 10.97 224.59 10.95C224.56 10.93 224.54 10.9 224.54 10.85V9.68C224.54 9.46 224.43 9.36 224.22 9.36H221.75C221.53 9.36 221.43 9.47 221.43 9.68V25.57C221.43 25.79 221.54 25.89 221.75 25.89H224.22C224.44 25.89 224.54 25.78 224.54 25.57V15.43C224.54 14.37 224.87 13.5 225.52 12.83C226.17 12.16 227 11.82 228.02 11.82C229.04 11.82 229.89 12.16 230.52 12.83C231.15 13.5 231.46 14.38 231.46 15.46V25.57C231.46 25.79 231.57 25.89 231.78 25.89H234.25C234.47 25.89 234.57 25.78 234.57 25.57V14.85C234.57 13.1 234.05 11.7 233.01 10.67C231.97 9.64 230.56 9.13 228.79 9.13H228.8Z" fill="black"/>
<path d="M250.61 3.15002H248.14C247.92 3.15002 247.82 3.26002 247.82 3.47002V10.72C247.82 10.72 247.8 10.8 247.77 10.82C247.74 10.84 247.7 10.83 247.66 10.79C247.18 10.25 246.62 9.83002 245.95 9.54002C245.29 9.25002 244.59 9.10002 243.85 9.10002C242.22 9.10002 240.89 9.50002 239.85 10.3C238.81 11.1 238.06 12.22 237.61 13.65C237.26 14.75 237.09 16.07 237.09 17.58C237.09 19.2 237.3 20.59 237.71 21.74C238.19 23.15 238.94 24.24 239.97 25.01C241 25.78 242.29 26.16 243.85 26.16C244.61 26.16 245.31 26.01 245.96 25.7C246.61 25.39 247.17 24.97 247.65 24.43C247.69 24.39 247.73 24.38 247.76 24.4C247.79 24.42 247.81 24.45 247.81 24.5V25.57C247.81 25.79 247.92 25.89 248.13 25.89H250.6C250.82 25.89 250.93 25.78 250.93 25.57V3.47002C250.93 3.25002 250.82 3.15002 250.6 3.15002H250.61ZM247 21.7C246.35 22.87 245.4 23.45 244.14 23.45C242.71 23.45 241.68 22.85 241.05 21.66C240.51 20.64 240.24 19.3 240.24 17.63C240.24 15.85 240.59 14.42 241.28 13.34C241.91 12.3 242.87 11.78 244.17 11.78C245.38 11.78 246.3 12.33 246.93 13.44C247.47 14.39 247.74 15.78 247.74 17.6C247.74 19.42 247.49 20.78 246.99 21.69L247 21.7Z" fill="black"/>
<path d="M90.44 35.13H87.97C87.82 35.13 87.69 35.21 87.58 35.36L83 42.38C83 42.38 82.95 42.41 82.9 42.41C82.85 42.41 82.82 42.4 82.8 42.38L78.22 35.36C78.11 35.21 77.98 35.13 77.83 35.13H75.36C75.14 35.13 75.04 35.24 75.04 35.45V53.55C75.04 53.77 75.15 53.87 75.36 53.87H77.83C78.05 53.87 78.15 53.76 78.15 53.55V40.32C78.15 40.26 78.17 40.21 78.22 40.19C78.26 40.17 78.3001 40.19 78.3201 40.26L81.9601 45.78C82.0501 45.91 82.1801 45.97 82.3501 45.97H83.4901C83.6401 45.97 83.7701 45.89 83.8801 45.74L87.4901 40.25C87.5101 40.18 87.54 40.16 87.59 40.18C87.63 40.2 87.66 40.25 87.66 40.31V53.54C87.66 53.76 87.77 53.86 87.98 53.86H90.45C90.67 53.86 90.7701 53.75 90.7701 53.54V35.44C90.7701 35.22 90.66 35.12 90.45 35.12L90.44 35.13Z" fill="black"/>
<path d="M97.53 37.34H95.05C94.8733 37.34 94.73 37.4833 94.73 37.66V53.53C94.73 53.7068 94.8733 53.85 95.05 53.85H97.53C97.7067 53.85 97.85 53.7068 97.85 53.53V37.66C97.85 37.4833 97.7067 37.34 97.53 37.34Z" fill="black"/>
<path d="M96.35 30.58C95.74 30.58 95.25 30.77 94.86 31.16C94.47 31.55 94.27 32.05 94.27 32.65C94.27 33.25 94.47 33.75 94.86 34.14C95.25 34.53 95.75 34.72 96.35 34.72C96.95 34.72 97.45 34.53 97.84 34.14C98.23 33.75 98.42 33.25 98.42 32.65C98.42 32.05 98.23 31.55 97.84 31.16C97.45 30.77 96.95 30.58 96.35 30.58Z" fill="black"/>
<path d="M109.48 37.11C107.66 37.11 106.28 37.71 105.35 38.9C105.33 38.94 105.3 38.95 105.27 38.93C105.24 38.91 105.22 38.88 105.22 38.83V37.66C105.22 37.44 105.11 37.34 104.9 37.34H102.43C102.21 37.34 102.11 37.45 102.11 37.66V53.55C102.11 53.77 102.22 53.87 102.43 53.87H104.9C105.12 53.87 105.22 53.76 105.22 53.55V43.41C105.22 42.35 105.55 41.48 106.2 40.81C106.85 40.14 107.68 39.8 108.7 39.8C109.72 39.8 110.57 40.14 111.2 40.81C111.83 41.48 112.14 42.36 112.14 43.44V53.55C112.14 53.77 112.25 53.87 112.46 53.87H114.93C115.15 53.87 115.25 53.76 115.25 53.55V42.83C115.25 41.08 114.73 39.68 113.69 38.65C112.65 37.62 111.24 37.11 109.47 37.11H109.48Z" fill="black"/>
<path d="M131.94 31.13H129.47C129.25 31.13 129.15 31.24 129.15 31.45V38.7C129.15 38.7 129.13 38.78 129.1 38.8C129.07 38.82 129.03 38.81 128.99 38.77C128.51 38.23 127.95 37.81 127.28 37.52C126.62 37.23 125.92 37.08 125.18 37.08C123.55 37.08 122.22 37.48 121.18 38.28C120.14 39.08 119.39 40.2 118.94 41.63C118.59 42.73 118.42 44.05 118.42 45.56C118.42 47.18 118.63 48.57 119.04 49.72C119.52 51.13 120.27 52.22 121.3 52.99C122.33 53.76 123.62 54.14 125.18 54.14C125.94 54.14 126.64 53.99 127.29 53.68C127.94 53.37 128.5 52.95 128.98 52.41C129.02 52.37 129.06 52.36 129.09 52.38C129.12 52.4 129.14 52.43 129.14 52.48V53.55C129.14 53.77 129.25 53.87 129.46 53.87H131.93C132.15 53.87 132.26 53.76 132.26 53.55V31.45C132.26 31.23 132.15 31.13 131.93 31.13H131.94ZM128.33 49.68C127.68 50.85 126.73 51.43 125.47 51.43C124.04 51.43 123.01 50.83 122.38 49.64C121.84 48.62 121.57 47.28 121.57 45.61C121.57 43.83 121.92 42.4 122.61 41.32C123.24 40.28 124.2 39.76 125.5 39.76C126.71 39.76 127.63 40.31 128.26 41.42C128.8 42.37 129.07 43.76 129.07 45.58C129.07 47.4 128.82 48.76 128.32 49.67L128.33 49.68Z" fill="black"/>
<path d="M144.25 31.13H143.15C141.7 31.13 140.57 31.3 139.77 31.63C138.97 31.97 138.4 32.52 138.06 33.3C137.72 34.08 137.56 35.18 137.56 36.61V37.19C137.56 37.28 137.52 37.32 137.43 37.32H135.25C135.03 37.32 134.93 37.43 134.93 37.64V39.85C134.93 40.07 135.04 40.17 135.25 40.17H137.43C137.52 40.17 137.56 40.21 137.56 40.3V53.53C137.56 53.75 137.67 53.85 137.88 53.85H140.35C140.57 53.85 140.67 53.74 140.67 53.53V40.3C140.67 40.21 140.71 40.17 140.8 40.17H144.21C144.43 40.17 144.53 40.06 144.53 39.85V37.64C144.53 37.42 144.42 37.32 144.21 37.32H140.8C140.71 37.32 140.67 37.28 140.67 37.19V36.8C140.67 35.65 140.86 34.87 141.25 34.46C141.64 34.05 142.38 33.84 143.46 33.84H144.24C144.46 33.84 144.56 33.73 144.56 33.52V31.44C144.56 31.22 144.45 31.12 144.24 31.12L144.25 31.13Z" fill="black"/>
<path d="M160.08 37.34H157.64C157.42 37.34 157.32 37.45 157.32 37.66V47.77C157.32 48.87 157 49.76 156.35 50.42C155.7 51.08 154.83 51.41 153.75 51.41C152.67 51.41 151.83 51.09 151.23 50.44C150.63 49.79 150.34 48.9 150.34 47.78V37.67C150.34 37.45 150.23 37.35 150.02 37.35H147.58C147.36 37.35 147.25 37.46 147.25 37.67V48.75C147.25 49.9 147.52 50.87 148.06 51.67C148.6 52.47 149.32 53.08 150.22 53.49C151.12 53.9 152.1 54.11 153.16 54.11C154.96 54.11 156.29 53.51 157.16 52.32C157.2 52.28 157.24 52.26 157.27 52.27C157.3 52.28 157.32 52.31 157.32 52.35V53.55C157.32 53.77 157.43 53.87 157.64 53.87H160.08C160.3 53.87 160.4 53.76 160.4 53.55V37.66C160.4 37.44 160.29 37.34 160.08 37.34Z" fill="black"/>
<path d="M167.1 31.13H164.62C164.443 31.13 164.3 31.2733 164.3 31.45V53.56C164.3 53.7367 164.443 53.88 164.62 53.88H167.1C167.277 53.88 167.42 53.7367 167.42 53.56V31.45C167.42 31.2733 167.277 31.13 167.1 31.13Z" fill="black"/>
<path d="M178.66 37.11C176.84 37.11 175.46 37.71 174.53 38.9C174.51 38.94 174.48 38.95 174.45 38.93C174.42 38.91 174.4 38.88 174.4 38.83V37.66C174.4 37.44 174.29 37.34 174.08 37.34H171.61C171.39 37.34 171.29 37.45 171.29 37.66V53.55C171.29 53.77 171.4 53.87 171.61 53.87H174.08C174.3 53.87 174.4 53.76 174.4 53.55V43.41C174.4 42.35 174.73 41.48 175.38 40.81C176.03 40.14 176.86 39.8 177.88 39.8C178.9 39.8 179.75 40.14 180.38 40.81C181.01 41.48 181.32 42.36 181.32 43.44V53.55C181.32 53.77 181.43 53.87 181.64 53.87H184.11C184.33 53.87 184.43 53.76 184.43 53.55V42.83C184.43 41.08 183.91 39.68 182.87 38.65C181.83 37.62 180.42 37.11 178.65 37.11H178.66Z" fill="black"/>
<path d="M199.46 38.72C198.38 37.63 196.74 37.08 194.55 37.08C192.88 37.08 191.46 37.51 190.29 38.38C189.12 39.25 188.34 40.43 187.95 41.92C187.71 42.74 187.59 43.95 187.59 45.53C187.59 47.35 187.85 48.9 188.37 50.18C188.91 51.46 189.72 52.44 190.81 53.14C191.89 53.83 193.23 54.18 194.81 54.18C196.22 54.18 197.48 53.9 198.6 53.34C199.72 52.78 200.58 52.01 201.18 51.03C201.27 50.88 201.23 50.74 201.08 50.61L199.23 49.37C199.06 49.22 198.92 49.25 198.81 49.47C197.94 50.79 196.71 51.45 195.11 51.45C194.01 51.45 193.09 51.21 192.36 50.72C191.63 50.23 191.15 49.56 190.91 48.69C190.78 48.3 190.72 47.74 190.72 47C190.72 46.91 190.76 46.87 190.85 46.87H201.22C201.44 46.87 201.54 46.76 201.54 46.55C201.56 45.45 201.53 44.45 201.44 43.56C201.2 41.44 200.54 39.83 199.46 38.73V38.72ZM198.29 44.29H190.85C190.76 44.29 190.72 44.25 190.72 44.16C190.76 43.42 190.86 42.82 191.01 42.34C191.23 41.56 191.64 40.94 192.24 40.47C192.85 40 193.62 39.77 194.55 39.77C195.48 39.77 196.3 40.03 196.94 40.53C197.58 41.04 198.01 41.72 198.22 42.56C198.31 42.91 198.37 43.44 198.42 44.15C198.42 44.24 198.38 44.28 198.29 44.28V44.29Z" fill="black"/>
<path d="M213.74 45.19C212.91 44.85 211.86 44.51 210.6 44.17C209.32 43.8 208.4 43.45 207.82 43.13C207.25 42.81 206.96 42.33 206.96 41.7C206.96 41.07 207.26 40.57 207.85 40.21C208.45 39.84 209.22 39.66 210.17 39.66C211.23 39.66 212.07 39.87 212.69 40.29C213.31 40.71 213.62 41.24 213.62 41.87V41.97C213.62 42.19 213.73 42.29 213.94 42.29H216.21C216.43 42.29 216.53 42.18 216.53 41.97V41.87C216.53 40.98 216.27 40.18 215.75 39.47C215.23 38.76 214.49 38.2 213.52 37.8C212.56 37.4 211.45 37.2 210.19 37.2C208.31 37.2 206.79 37.63 205.66 38.48C204.52 39.34 203.95 40.49 203.95 41.94C203.95 42.98 204.24 43.83 204.81 44.49C205.38 45.15 206.09 45.66 206.92 46.02C207.75 46.38 208.79 46.73 210.02 47.08C211.28 47.43 212.19 47.76 212.75 48.07C213.31 48.38 213.59 48.86 213.59 49.48C213.59 50.1 213.29 50.67 212.68 51.09C212.07 51.51 211.28 51.72 210.31 51.72C209.34 51.72 208.45 51.49 207.79 51.04C207.13 50.59 206.8 50.05 206.8 49.45V49.29C206.8 49.07 206.69 48.97 206.48 48.97H204.14C203.92 48.97 203.82 49.08 203.82 49.29V49.65C203.82 50.47 204.09 51.23 204.63 51.91C205.17 52.59 205.93 53.13 206.92 53.52C207.91 53.91 209.05 54.1 210.35 54.1C212.28 54.1 213.82 53.67 214.98 52.8C216.14 51.93 216.72 50.76 216.72 49.29C216.72 48.23 216.43 47.37 215.84 46.71C215.26 46.05 214.55 45.55 213.71 45.22L213.74 45.19Z" fill="black"/>
<path d="M227.88 45.19C227.05 44.85 226 44.51 224.74 44.17C223.46 43.8 222.54 43.45 221.96 43.13C221.39 42.81 221.1 42.33 221.1 41.7C221.1 41.07 221.4 40.57 221.99 40.21C222.59 39.84 223.36 39.66 224.31 39.66C225.37 39.66 226.21 39.87 226.83 40.29C227.45 40.71 227.76 41.24 227.76 41.87V41.97C227.76 42.19 227.87 42.29 228.08 42.29H230.35C230.57 42.29 230.67 42.18 230.67 41.97V41.87C230.67 40.98 230.41 40.18 229.89 39.47C229.37 38.76 228.63 38.2 227.66 37.8C226.7 37.4 225.59 37.2 224.33 37.2C222.45 37.2 220.93 37.63 219.8 38.48C218.66 39.34 218.09 40.49 218.09 41.94C218.09 42.98 218.38 43.83 218.95 44.49C219.52 45.15 220.23 45.66 221.06 46.02C221.89 46.38 222.93 46.73 224.16 47.08C225.42 47.43 226.33 47.76 226.89 48.07C227.45 48.38 227.73 48.86 227.73 49.48C227.73 50.1 227.43 50.67 226.82 51.09C226.21 51.51 225.42 51.72 224.45 51.72C223.48 51.72 222.59 51.49 221.93 51.04C221.27 50.59 220.94 50.05 220.94 49.45V49.29C220.94 49.07 220.83 48.97 220.62 48.97H218.28C218.06 48.97 217.96 49.08 217.96 49.29V49.65C217.96 50.47 218.23 51.23 218.77 51.91C219.31 52.59 220.07 53.13 221.06 53.52C222.05 53.91 223.19 54.1 224.49 54.1C226.42 54.1 227.96 53.67 229.12 52.8C230.28 51.93 230.86 50.76 230.86 49.29C230.86 48.23 230.57 47.37 229.98 46.71C229.4 46.05 228.69 45.55 227.85 45.22L227.88 45.19Z" fill="black"/>
</svg>
