<svg width="150" height="26" viewBox="0 0 150 26" fill="none" xmlns="http://www.w3.org/2000/svg">
<path d="M0.539246 4.07983C0.569246 4.51983 0.449292 5.04983 0.649292 5.24983C2.27929 6.86983 4.28927 7.76983 6.56927 8.00983C6.80927 8.03983 7.16927 7.78983 7.31927 7.56983C7.39927 7.45983 7.22927 6.98983 7.05927 6.89983C5.19927 5.95983 3.32927 5.04983 1.43927 4.14983C1.24927 4.05983 0.989297 4.10983 0.529297 4.07983H0.539246Z" fill="#FFB235"/>
<path d="M7.92902 0.909912C7.47902 2.23991 8.49905 5.31991 9.64905 5.82991C9.87905 5.92991 10.539 5.64991 10.639 5.40991C11.089 4.18991 9.28902 1.26991 7.92902 0.909912Z" fill="#FFB235"/>
<path d="M140.869 19.8099C140.819 19.6299 140.969 19.4499 141.159 19.4799C143.499 19.9099 145.159 21.1299 146.509 22.7899C147.089 23.5099 146.859 24.1799 145.749 24.1599C144.209 24.1399 141.469 21.7599 140.869 19.7999V19.8099Z" fill="#FFB235"/>
<path d="M138.48 24.3898C138.47 24.5898 138.26 24.7898 138.01 24.9798C137.63 25.2698 137.09 25.1898 136.78 24.8198C136.63 24.6398 136.52 24.4498 136.53 24.2798C136.65 22.6898 137.34 21.3698 137.56 19.7898C137.56 19.7298 137.47 19.4398 137.75 19.4098C137.99 19.3898 138.19 19.5598 138.22 19.7998C138.32 20.7498 138.55 23.1298 138.47 24.3798L138.48 24.3898Z" fill="#FFB235"/>
<path d="M143.08 15.9499C142.78 15.9499 142.62 15.5999 142.8 15.3599C143.34 14.6699 143.74 14.0399 144.29 13.8499C145.38 13.4699 146.64 13.4199 147.81 13.5199C148.25 13.5599 148.65 14.0399 149.06 14.4399C149.21 14.5899 149.2 14.8199 149.06 14.9699C148.59 15.3999 148.13 15.9199 147.62 15.9699C146.27 16.1099 144.9 15.9999 143.09 15.9399L143.08 15.9499Z" fill="#FFB235"/>
</svg>
