<svg width="100" height="36" viewBox="0 0 100 36" fill="none" xmlns="http://www.w3.org/2000/svg">
<path d="M99.51 33.0099C99.53 32.5699 99.7199 32.0599 99.5399 31.8299C98.1199 30.0199 96.25 28.8699 94.01 28.3499C93.77 28.2899 93.39 28.4899 93.21 28.6899C93.12 28.7899 93.23 29.2799 93.38 29.3899C95.1 30.5599 96.85 31.6999 98.61 32.8199C98.79 32.9299 99.05 32.9199 99.51 33.0099Z" fill="#FFB235"/>
<path d="M91.79 35.2199C92.41 33.9499 91.79 30.7799 90.7 30.1199C90.48 29.9899 89.79 30.1899 89.67 30.4199C89.07 31.5699 90.49 34.6899 91.79 35.2199Z" fill="#FFB235"/>
<path d="M10.2601 6.76C10.2101 6.94 9.98008 7.01 9.84008 6.88C8.07008 5.28 7.31003 3.37 7.04003 1.24C6.92003 0.320001 7.48002 -0.120001 8.41002 0.479999C9.71002 1.31 10.7901 4.77 10.2601 6.76Z" fill="#FFB235"/>
<path d="M14.7001 4.1299C14.8201 3.9599 15.1001 3.9099 15.4101 3.8799C15.8901 3.8399 16.3101 4.1799 16.3701 4.6599C16.4001 4.8999 16.4001 5.1099 16.3001 5.2499C15.3601 6.5399 14.0801 7.2999 13.0601 8.5199C13.0201 8.5599 12.9501 8.8699 12.7001 8.7399C12.4901 8.6299 12.4101 8.3799 12.5101 8.1599C12.9301 7.2999 13.9901 5.1599 14.7101 4.1299H14.7001Z" fill="#FFB235"/>
<path d="M6.34993 8.87006C6.59993 9.03006 6.55999 9.41006 6.27999 9.52006C5.44999 9.83006 4.78993 10.1401 4.21993 10.0201C3.09993 9.77006 1.98995 9.14005 1.05995 8.44005C0.709955 8.18005 0.619947 7.55006 0.489947 7.00006C0.439947 6.80006 0.569986 6.60006 0.779986 6.56006C1.40999 6.44006 2.06999 6.24006 2.52999 6.47006C3.74999 7.06006 4.84994 7.88006 6.35994 8.88006L6.34993 8.87006Z" fill="#FFB235"/>
</svg>
