<svg width="685" height="615" viewBox="0 0 685 615" fill="none" xmlns="http://www.w3.org/2000/svg">
<path d="M685.36 204.83C685.68 207.14 684.28 210.28 682.67 212.17C672.52 224.06 660.03 233.1 646.5 240.68C636.63 246.21 626.7 251.63 616.68 256.89C599.49 265.91 582.9 275.77 568.84 290.29C562.57 283.52 562.08 276.08 563.98 268.22C566.36 258.41 571.55 250.01 577.76 242.31C596.18 219.48 618.73 202.17 646.26 191.78C653.66 189 661.34 187.33 669.38 188.92C677.82 190.59 684.23 196.47 685.37 204.84L685.36 204.83Z" fill="#217490"/>
<path d="M628.2 470.1C634.04 480.62 629.59 487.86 615.32 487.78C606.56 487.18 596.85 482.86 587.68 477.32C579.69 472.49 571.79 467.45 564.18 462.03C554.64 455.23 549.93 445.07 546.89 434.15C545.68 429.83 546.66 425.41 550.59 422.64C555.8 418.98 561.66 417.23 567.7 420.25C575.89 424.35 584.12 428.49 591.86 433.36C606.75 442.74 619.51 454.47 628.18 470.09L628.2 470.1Z" fill="#217490"/>
<path d="M511.69 2.38978C517.87 5.31978 520.96 10.3598 520.95 16.8598C520.95 23.0398 520.45 29.3498 519.13 35.3798C515.94 50.0098 509.45 63.2798 500.36 75.1198C497.43 78.9498 493.56 82.2298 489.62 85.0398C485.96 87.6398 482.6 86.4298 480.91 82.1998C479.71 79.2098 479.05 75.8798 478.85 72.6598C478.53 67.2498 478.76 61.8098 478.76 56.3798C478.63 56.3598 478.5 56.3398 478.36 56.3198C479.81 43.5998 480.59 30.7598 482.88 18.1798C485.72 2.54978 498.4 -3.90022 511.69 2.37978V2.38978Z" fill="#217490"/>
<path d="M475.19 318.05C481.46 339.61 483.21 361.63 478.22 383.51C471.99 410.81 454.17 429.37 430.14 442.36C403.09 457 373.86 462.48 343.41 463.06C294.63 463.99 253.74 445.79 220.07 411.15C193.59 383.89 178.39 351.13 176.73 312.68C176.46 306.32 177.47 299.91 177.89 293.52C177.99 291.98 178.08 290.43 178.19 288.44C174.44 292.02 171.11 295.18 167.78 298.35C167.14 298.04 166.51 297.74 165.87 297.43C166.48 292.69 166.56 287.81 167.8 283.26C172.98 264 180.01 245.4 189.2 227.67C190.11 225.93 190.99 224.05 192.32 222.67C210.3 204.2 229.6 187.82 256.02 183.01C258.75 182.51 261.53 182.06 264.3 181.98C295.4 181.08 326.29 182.61 356.8 189.46C379.71 194.61 398.93 205.61 415.56 222.41C442.73 249.86 464.27 280.56 475.18 318.05H475.19Z" fill="#217490"/>
<path d="M455.3 524.81C462.85 531.21 467.89 544.75 467.84 558.6C467.46 563.33 467.6 570.2 461.5 572.92C456.16 575.3 451.16 571.26 446.87 568.02C440.09 562.91 434.55 556.8 432.22 548.26C430.78 543.01 432.2 538.96 436.27 535.57C440.9 531.7 445.3 527.56 450.13 523.98C451.15 523.22 454.11 523.8 455.3 524.81Z" fill="#217490"/>
<path d="M327.71 522.84C331.74 533.06 333.45 543.75 333.26 554.73C333.07 569.89 330.49 584.6 323.94 598.3C321.58 603.23 318.2 607.92 314.39 611.85C309.99 616.38 304.59 616.06 301.48 610.62C297.73 604.04 294.84 596.73 292.86 589.38C286.81 567.09 288.87 545.06 296.36 523.4C298.75 516.53 303.41 512.95 310.66 512.63C318.29 512.3 325.07 516.15 327.71 522.83V522.84Z" fill="#217490"/>
<path d="M282.64 112.129C282.41 116.079 282.3 121.189 281.76 126.239C281.07 132.759 277.98 135.469 271.84 133.469C267.6 132.099 263.29 129.119 260.39 125.689C251.98 115.679 247.83 103.389 244.88 90.8895C242.53 81.0195 240.92 70.9095 239.92 60.7995C238.86 49.9895 242.64 45.8095 253.27 43.9695C254.4 43.7695 255.56 43.7295 256.69 43.5695C267.95 41.9395 268.15 41.8695 272.14 52.8895C278.92 71.6295 280.75 91.2995 282.64 112.129Z" fill="#217490"/>
<path d="M183.1 447.879C193.81 441.299 209.73 451.109 208.63 464.429C207.85 475.159 204.16 485.059 198.89 494.189C188.06 512.949 176.99 531.579 165.45 549.919C162.78 554.169 158.15 557.489 153.82 560.299C148.5 563.749 144.35 561.999 141.27 556.419C138.5 551.389 135.08 546.679 132.71 541.489C131.23 538.259 129.66 533.869 130.69 530.889C138.29 509.179 145.88 487.399 159.64 468.539C165.94 459.919 173.96 453.479 183.1 447.869V447.879Z" fill="#217490"/>
<path d="M97.4101 303.42C99.8401 305.31 99.4501 307.88 96.8501 308.9C91.1301 311.15 85.3001 313.42 79.3001 314.57C72.5601 315.86 65.6101 315.93 58.7401 316.54C41.9401 317.73 26.2101 313.6 11.0401 306.86C8.8101 305.88 6.6901 304.52 4.7901 302.99C-1.9699 297.55 -0.789895 290.18 7.4401 287.13C10.4601 286 13.8101 285.4 17.0401 285.2C41.4601 283.74 65.1201 287.34 87.7301 296.88C91.2501 298.36 94.3301 301.03 97.4101 303.41V303.42Z" fill="#217490"/>
</svg>
