<svg width="14" height="19" viewBox="0 0 14 19" fill="none" xmlns="http://www.w3.org/2000/svg">
<path d="M12.1798 16.2086C11.2998 16.8786 10.3098 17.9086 9.78978 17.9686C5.62978 18.4886 2.65978 17.3484 0.859784 14.7684C0.659784 14.4984 0.939776 13.6384 1.28978 13.0784C1.46978 12.7884 2.49982 12.2384 2.76982 12.3284C5.72982 13.1984 8.62981 14.1585 11.5098 15.1385C11.7998 15.2385 11.8498 15.6486 12.1898 16.2086H12.1798Z" fill="black"/>
<path d="M13.25 0.3184C12.22 3.7784 5.54 8.6984 2.36 8.0684C1.72 7.9384 0.760004 6.36856 0.930004 5.72856C1.78 2.50856 9.89001 -0.91159 13.25 0.32841V0.3184Z" fill="black"/>
</svg>
