<svg width="211" height="175" viewBox="0 0 211 175" fill="none" xmlns="http://www.w3.org/2000/svg">
<g opacity="0.2">
<path d="M124.4 60.93C123.76 62.05 123.46 63.92 124.23 65.04C124.91 66.02 127.2 66.6 127.49 64.9C127.66 63.87 126.44 63.18 125.97 62.41C125.73 62.02 125.04 59.79 124.4 60.93Z" fill="black"/>
<path d="M140.61 55.5699C138.97 57.5899 137.74 60.37 135.53 61.87C134.43 62.61 134 62.37 133.14 61.47C132.3 60.6 130.96 59.55 130.82 61.6C130.64 64.28 134.32 67.53 136.45 65.15C137.73 63.72 138.83 61.94 139.97 60.39C141.16 58.77 142.94 56.83 141.9 54.72C141.46 54.96 140.93 55.1699 140.61 55.5699Z" fill="black"/>
<path d="M142.39 40.98C140.65 39.54 137.89 38.9999 135.68 39.1899C133.53 39.3699 132.6 41.0399 134.64 42.4499C136.08 43.4399 138.23 43.5699 139.92 43.5899C141.32 43.6099 144.63 42.83 142.39 40.98Z" fill="black"/>
<path d="M127.16 49.7701C126.5 51.2301 125.86 53.3301 126.42 54.9201C127.45 57.8401 131.38 56.95 133.37 55.69C134.3 55.1 135.66 53.8 135.76 52.6C135.95 50.25 133.71 51.9 132.74 52.45C131.81 52.98 129.69 54.28 128.65 53.45C127.47 52.51 128.76 50.43 129.05 49.34C129.76 46.71 127.69 48.5801 127.16 49.7701Z" fill="black"/>
<path d="M154.7 50.19C155.79 49.07 154.26 46.95 153.61 46C153.05 45.17 151.39 42.6201 150.25 44.1601C149.56 45.0901 150.7 47.12 151.27 47.85C151.9 48.66 153.42 51.5 154.7 50.19Z" fill="black"/>
<path d="M146.58 59.14C144.66 59.18 145.63 56.74 145.41 55.76C145.01 53.94 143.85 56.23 143.63 56.84C143.22 57.97 143.06 59.34 143.49 60.49C144.64 63.57 147.8 62.33 149.12 60.15C149.72 59.16 150.76 55.0601 148.66 57.0601C148.04 57.6501 147.64 59.13 146.58 59.15V59.14Z" fill="black"/>
<path d="M111.48 32.37C109.87 31.86 107.46 32.4301 108.38 34.5301C109.14 36.2801 111.61 36.99 113.25 37.6C115.02 38.26 115.99 37.7 115.6 35.62C115.21 33.61 113.23 32.9301 111.49 32.3801L111.48 32.37Z" fill="black"/>
<path d="M128.55 108.99C129.31 108.02 129.92 107.14 130.3 105.99C130.37 105.77 130.71 103.78 130.72 103.78C132.84 102.71 131.77 98.9199 131.15 96.9699C130.99 96.4799 130.75 95.54 130.37 95.18C130.22 95.04 129.77 95.18 129.55 95.02C129.37 94.88 129.32 94.5799 129.14 94.4499C127.81 93.4599 126.27 92.77 124.64 92.39C121.36 91.64 117.58 93.0599 115.04 95.0699C113.62 96.1899 113.15 96.33 112.35 94.67C111.66 93.25 110.87 91.79 109.5 90.92C107.09 89.37 103.38 89.26 100.67 89.92C97.6903 90.65 95.6003 93.1599 94.5403 95.9399C92.0503 102.51 97.2502 111.35 102.15 115.56C103.57 116.78 105.27 117.55 106.62 118.86C107.77 119.98 108.73 120.85 110.4 120.25C111.96 119.69 113.63 118.86 115.1 118.06C116.76 117.15 118.68 116.74 120.29 115.77C123.42 113.89 126.28 111.89 128.55 108.99Z" fill="black"/>
<path d="M196.65 105.55C185.12 91.29 168.62 81.59 151.72 74.8C151.93 74.78 152.14 74.77 152.35 74.75C153.07 75.15 153.91 75.39 154.73 75.42C156.5 75.48 158.21 74.8 159.8 74.02C171.17 68.43 179.27 56.6799 180.46 44.0699C181.47 33.3299 177.42 22.29 169.95 14.55C169.93 14.53 169.92 14.4999 169.91 14.4699C168.53 12.3499 166.31 10.94 164.16 9.60996C158.93 6.35996 153.56 3.06 147.53 1.78C142.56 0.730005 137.37 1.11001 132.36 0.91001C125.51 0.63001 118.64 1.27992 112.1 3.31992C109.7 4.06992 107.3 4.99996 105.16 6.35996C102.78 7.87996 100.76 9.92996 99.1201 12.23C97.6501 14.29 96.4702 16.54 95.3002 18.78C92.5902 23.98 89.8501 29.2499 88.4401 34.9499C87.0301 40.6499 87.0601 46.91 89.7201 52.14C92.5901 57.76 98.0702 61.51 103.41 64.89L103.51 64.67C103.22 65.94 103.01 67.23 102.95 68.53C102.85 70.59 103.66 71 104.91 72.41C105.62 66.2 107.27 60.1099 109.94 54.4599C110.22 53.8599 112.84 48.8399 113.55 46.2099C114.22 44.8099 114.48 43.21 114.2 41.66C114.17 41.52 114.02 41.34 113.88 41.31C113.61 41.25 113.34 41.19 113.07 41.13C112.92 41.1 112.77 41.13 112.62 41.16C112.07 41.08 111.51 41.07 111.21 41.04C109.84 40.92 108.51 40.8899 107.4 39.9599C105.61 38.4499 104.72 35.2399 105.67 33.0699C106.67 30.7999 109.78 29.26 112.19 29.76C114.45 30.23 115.28 32.05 117.07 33.14C117.48 33.39 117.76 33.46 117.94 33.41C117.97 34.24 117.84 35.07 117.5 35.86C116.99 37.04 116.11 38.0699 115.83 39.3299C115.55 40.5899 116.25 42.22 117.54 42.23C118.34 42.23 118.99 41.62 119.53 41.02C122.58 37.61 124.76 33.4599 128.11 30.35C131.46 27.24 136.67 25.3699 140.61 27.6999C143.21 29.2299 144.79 32.32 147.64 33.28C149.23 33.82 150.98 33.61 152.58 34.11C156.34 35.28 157.9 39.81 157.98 43.75C158.03 46.25 157.69 48.75 157.01 51.16C156.47 52.43 155.84 53.68 155.13 54.93C152.27 59.92 148.41 63.7399 143.05 65.9699C137.69 68.2 130.56 69.54 124.97 67.52C122.08 66.48 119.83 64.4799 117.48 62.5899C115.86 61.2899 114.96 61.56 115.61 63.68C117.02 68.34 122.55 71.14 127.06 71.66C129.72 71.97 132.27 71.2799 134.85 70.7099C138.5 71.7199 142.14 72.72 145.79 73.73C145.56 73.96 145.37 74.24 145.26 74.52C138.75 80.73 129.71 84.03 120.73 83.87C115.88 83.78 110.76 82.66 106.54 80.18C102.26 77.66 98.5801 73.0199 99.6001 67.8299C99.8501 67.8599 100.1 67.88 100.35 67.91C101.92 68.12 103.38 65.18 101.45 64.93C73.0601 61.22 37.8701 66.14 16.7501 86.87C4.88013 98.51 -6.20992 120.05 4.58008 135.75C14.0301 149.49 34.1101 151.76 49.2101 148.79C57.7501 147.11 65.4001 143.53 72.4901 138.55C76.5201 135.72 80.5501 132.89 84.5801 130.06C86.4501 128.75 89.8402 127.28 90.6702 124.94C90.8202 124.52 90.8501 123.9 90.4601 123.58C89.8201 123.07 89.6301 123.14 88.9001 122.93C88.3601 122.77 87.9401 122.76 87.6201 122.83C88.6101 121.85 89.6401 121.02 89.8801 119.54C89.9601 119.03 89.7202 118.62 89.2902 118.38C88.4102 117.88 87.8901 118.2 86.9401 118.14C86.5801 118.12 85.7401 118.14 84.9501 118.19C86.3601 117.07 87.7301 115.76 87.9901 114.15C88.0601 113.71 87.8601 113.14 87.4001 112.99C84.2501 111.9 78.5402 115.63 75.6602 116.78C68.5002 119.64 61.4501 123.17 53.8901 124.85C44.4901 126.94 22.8502 127.58 30.7802 111.94C34.1502 105.28 40.6502 100.71 47.3102 97.6999C50.2502 96.3699 68.9801 89.15 70.2501 94.36C70.8501 96.82 67.4301 102.98 66.6301 105.4C65.6601 108.37 64.6901 111.34 63.7101 114.3C63.0201 116.39 65.9201 116.25 66.4601 114.59C67.7101 110.78 68.9601 106.96 70.2101 103.15C71.1301 100.33 73.1301 96.69 73.2201 93.68C73.5701 82.46 44.7802 95.6099 40.0302 98.6899C33.3502 103.03 21.4701 114.79 27.2401 123.71C32.7401 132.2 48.7901 129.21 56.6502 127.03C65.0602 124.7 73.0701 120.66 81.1901 117.48C81.2301 117.46 81.6801 117.25 82.2701 116.95C81.2001 117.87 80.3401 118.52 80.0101 120C79.9001 120.5 80.1901 120.92 80.6001 121.16C81.7501 121.85 83.7202 121.64 85.4302 121.36C85.1202 121.67 84.8402 122 84.6702 122.27C84.2002 123.02 83.8801 123.31 83.6901 124.21C83.6301 124.49 83.7401 125 83.9901 125.19C84.4301 125.51 84.8901 125.73 85.3901 125.84C83.2101 127.27 80.9501 129.48 79.2401 130.67C73.7001 134.55 68.2701 138.9 62.1001 141.77C47.1501 148.72 25.9001 149.81 12.3301 139.08C-4.13992 126.06 4.97014 102.96 17.0101 90.1999C29.8801 76.5599 48.7001 70.4999 66.8601 68.2099C76.7301 66.9699 87.0001 66.56 96.9801 67.53C96.2301 71.59 97.3901 75.8 99.9901 79.03C102.89 82.62 107.22 84.79 111.59 86.03C119.74 88.34 128.69 87.48 136.39 84.04C140.45 82.22 144.07 79.66 147.22 76.53C177.4 88.15 211.56 112.47 207.3 149.08C205.52 164.37 193.46 172.39 178.64 171.41C164.59 170.48 150.82 163.17 141.61 152.61C137.47 147.86 134.2 142.28 130.68 137.08C129.88 135.9 128.63 133.22 127.34 131.39C127.46 131.38 127.59 131.37 127.69 131.34C128.53 131.11 129.19 130.51 129.34 129.62C129.49 128.73 129.05 127.89 128.6 127.07C129.88 127.88 131.19 128.96 132.64 128.71C133.47 128.56 134.17 127.82 134.29 126.99C134.4 126.23 134.13 125.49 133.72 124.77C135.86 126.86 138.04 129.47 139.02 130.38C142.74 133.82 146.3 137.52 150.19 140.76C155.67 145.33 162.25 149.22 169.19 151.04C181.88 154.37 188.3 145.68 185 133.48C182.95 125.89 177.87 119.36 172.1 114.17C168.41 110.85 157.91 101.16 152.45 103.26C148.52 104.77 149.41 110.47 149.25 113.74C149.01 118.61 148.78 123.48 148.54 128.36C148.44 130.46 151.4 129.52 151.48 127.88C151.62 124.98 151.76 122.08 151.9 119.18C152.02 116.67 151.06 109.49 152.47 107.42C154.94 103.81 167.84 114.81 170.5 117.29C175.78 122.21 180.51 128.35 182.27 135.48C183.96 142.31 182.74 149.55 174.35 148.84C168.44 148.34 162.6 145.3 157.7 142.13C151.61 138.19 146.63 132.86 141.34 127.95C139.07 125.85 133.86 119.04 130.56 118.93C129.53 118.9 128.75 119.7 128.54 120.66C128.22 122.18 129.39 123.52 130.32 124.83C129.1 124.05 127.84 123.09 126.5 123.3C125.64 123.44 125.02 124.2 124.85 125.02C124.63 126.09 125.27 127.06 125.79 128.01C125.07 127.75 124.32 127.52 123.5 127.78C122.91 127.97 122.24 128.74 122.23 129.39C122.13 133.46 128.37 139.59 130.53 142.79C133.71 147.49 136.7 152.35 140.6 156.5C150.67 167.2 165.63 174.51 180.46 174.48C192.93 174.45 204.37 168.22 208.57 156.03C214.44 138.96 207.53 118.99 196.66 105.54L196.65 105.55ZM112.48 44.9699L112.61 44.68C112.59 44.76 112.56 44.84 112.54 44.92C112.52 44.94 112.5 44.9599 112.48 44.9699Z" fill="black"/>
</g>
</svg>
