<svg width="125" height="165" viewBox="0 0 125 165" fill="none" xmlns="http://www.w3.org/2000/svg">
<g opacity="0.2">
<path d="M65.0101 88.64C65.0601 88.08 65.1301 87.53 65.1601 86.97C65.4501 82.1 65.5601 77.2 66.0501 72.35C66.9201 63.82 68.7901 55.5 74.0401 48.48C77.6501 43.64 81.5001 38.9201 85.6601 34.5501C91.5901 28.3301 97.6401 22.13 106.05 19.12C107.14 18.73 108.3 18.33 109.19 17.63C110.15 16.88 111.03 15.8801 111.57 14.8001C112.19 13.5401 112.79 13.12 113.77 14.12C114.56 14.93 115.35 15.96 115.59 17.02C116.72 21.88 117.66 26.7801 118.65 31.6801C119.76 37.2101 118.21 42.1901 115.28 46.7901C111.67 52.4701 107.36 57.57 102.42 62.14C94.2301 69.72 84.8701 74.9 73.6101 76.15C70.6701 76.48 69.9201 76.86 69.9001 79.87C69.8701 85.03 70.0501 90.22 70.5901 95.35C71.4901 104.06 74.5601 112.18 78.0301 120.17C79.6601 123.94 81.8901 127.5 82.1101 131.79C82.2701 134.94 82.9501 135.43 86.0401 134.9C88.5601 134.47 91.0701 133.86 93.6101 133.56C99.8401 132.81 106.07 132.08 112.33 131.57C116.16 131.26 117.3 132.14 117.7 136.03C118.08 139.7 117.94 143.44 117.85 147.15C117.79 149.42 117.02 149.98 114.72 150.29C111.28 150.76 107.84 151.27 104.41 151.82C92.7501 153.68 81.1001 155.61 69.4301 157.42C64.7201 158.15 59.9701 158.63 55.2401 159.22C53.8901 159.39 52.9801 159.67 52.7301 161.44C52.5701 162.56 51.1501 163.52 50.2201 164.48C50.0901 164.61 49.4001 164.41 49.1701 164.18C48.6901 163.69 48.2101 163.13 47.9501 162.51C45.3901 156.46 43.7201 150.18 43.5401 143.59C43.4601 140.78 44.3901 139.77 47.1801 139.48C50.3001 139.16 53.4601 139.21 56.5701 138.83C63.0901 138.04 69.6001 137.09 76.1101 136.18C77.9501 135.92 78.4101 135.2 77.9101 133.41C77.6901 132.63 77.3701 131.87 77.0101 131.15C74.3601 125.91 71.6801 120.69 69.0401 115.44C68.5701 114.51 67.9301 113.53 67.9001 112.55C67.8401 110.24 66.8601 108.4 65.5101 106.69C60.0401 99.75 54.5301 92.84 49.0601 85.9C48.0101 84.57 46.8601 84.5401 45.5701 85.4301C44.5201 86.1601 43.5701 87.0501 42.4601 87.6601C33.4501 92.6201 23.8901 94.0301 13.9601 91.2901C3.41013 88.3801 -4.38986 82.05 -7.35986 71.22C-8.68986 66.35 -8.87986 61.1201 -9.20986 56.0301C-9.55986 50.5201 -7.67986 49.27 -2.33986 50.98C4.57014 53.19 11.4801 55.43 18.4001 57.62C28.9601 60.97 37.6701 67.2001 45.0001 75.2801C51.6401 82.6001 57.8301 90.31 64.2301 97.85C64.6501 98.34 65.0801 98.8201 65.5101 99.3101L65.9401 99.0401C65.7601 98.4801 65.6701 97.88 65.4001 97.36C64.1701 95.05 62.9601 92.73 61.6301 90.49C58.7501 85.65 55.5801 80.97 52.9201 76.01C45.8001 62.73 41.5701 48.41 38.0801 33.84C36.5101 27.28 37.5001 20.8 38.3401 14.26C38.9601 9.41003 40.7201 5.37006 44.3301 2.04006C46.5501 6.04391e-05 47.1101 -0.239969 49.4301 1.76003C53.3901 5.17003 56.7001 9.20007 58.9101 13.9201C62.1001 20.7201 61.8601 27.8601 59.8501 34.9101C58.0601 41.2001 55.5801 47.22 51.3401 52.35C49.6001 54.46 49.0601 56.69 50.0301 59.48C53.3401 68.92 58.2701 77.54 63.0601 86.25C63.5201 87.1 64.0401 87.91 64.5301 88.75C64.7001 88.71 64.8801 88.68 65.0501 88.64H65.0101ZM95.7701 63.74C102.84 58.05 108.74 51.4401 113.05 43.4101C114.94 39.8901 115.37 36.3 114.35 32.46C113.51 29.25 112.73 26.0301 112.04 22.7901C111.74 21.3801 111.06 21.04 109.71 21.24C105.97 21.81 102.6 23.37 99.8801 25.84C95.2001 30.08 90.7601 34.61 86.3401 39.14C83.9501 41.59 81.7101 44.22 79.5801 46.9C75.8601 51.58 73.6801 57.04 72.1601 62.75C71.4301 65.48 71.1901 68.35 70.6701 71.14C70.4001 72.58 71.1201 73.3101 72.3801 73.4101C73.7501 73.5201 75.1501 73.35 76.0401 73.32C83.6201 71.41 90.0401 68.36 95.7701 63.75V63.74ZM43.3601 82.77C44.8401 81.97 44.9801 81.2701 43.8601 80.0301C38.1901 73.7901 31.8901 68.3 24.3701 64.38C22.9701 63.65 21.2901 63.4301 19.7301 63.0301C18.6601 62.7501 17.5101 62.7201 16.5101 62.3101C11.6801 60.3101 6.91014 58.1801 2.09014 56.1701C0.170135 55.3701 -1.80986 54.72 -3.79986 54.1C-4.60986 53.85 -5.43986 54.1201 -5.35986 55.1601C-4.86986 61.2001 -5.82986 67.48 -2.65986 73.08C-1.25986 75.55 0.380136 77.8901 2.05014 80.1801C5.39014 84.7501 10.4001 86.2501 15.6101 87.3001C20.6801 88.3201 25.7701 88.43 31.3301 87.36C35.3701 86.82 39.4101 84.9 43.3601 82.76V82.77ZM98.7601 136.13C84.1101 138.38 69.4401 140.53 54.7801 142.69C53.0601 142.94 51.3101 143.02 49.5701 143.21C48.5701 143.32 47.8901 143.78 48.1601 144.93C48.8101 147.7 49.4201 150.49 50.1801 153.23C50.8301 155.6 51.6201 156.03 53.9901 155.66C66.5101 153.68 79.0301 151.72 91.5501 149.72C98.3301 148.64 105.09 147.46 111.87 146.41C113.67 146.13 114.58 145.33 114.53 143.46C114.45 140.28 114.42 137.1 114.36 133.32C108.82 134.33 103.81 135.36 98.7601 136.13ZM49.0501 7.16006C47.5101 5.70006 46.6501 5.61007 45.5501 7.42007C44.3301 9.41007 43.1901 11.62 42.7401 13.87C41.9001 18.07 41.4901 22.37 41.1201 26.65C40.9701 28.35 41.2101 30.15 41.6301 31.82C42.9201 36.95 44.3801 42.04 45.7701 47.14C45.8801 47.53 45.9801 47.9301 46.1501 48.3001C46.7701 49.6901 47.5601 49.8401 48.6901 48.7901C48.9801 48.5201 49.2801 48.2 49.4501 47.85C52.6001 41.54 55.7301 35.21 56.2501 28.0301C56.4401 25.5 56.2201 22.94 56.1801 20.39C55.0601 15.24 52.8701 10.7801 49.0501 7.17007V7.16006Z" fill="black"/>
<path d="M91.16 106C92.5 104.39 93.78 102.73 95.13 101.14C97.44 98.42 99.93 95.88 103.22 94.36C109.45 91.5 115.65 90.77 121.44 95.39C125.2 98.39 124.97 102.1 120.94 104.81C118.32 106.58 115.35 107.5 112.24 107.57C107.19 107.68 102.14 107.57 97.09 107.47C94.48 107.42 92.45 108.34 90.99 110.5C90.31 111.5 89.68 112.54 89.02 113.56C89.22 110.87 89.35 108.18 91.16 106.01V106ZM101.15 105.37C105.54 105.78 109.96 106.57 114.33 105.39C116.32 104.86 118.29 104.04 120.09 103.03C122.08 101.91 122.23 100.08 120.65 98.3299C118.18 95.5899 114.94 94.8099 111.43 95.1899C105.17 95.8699 100.68 99.53 96.8 104.15C96.71 104.26 96.75 104.48 96.69 104.87C98.2 105.04 99.67 105.22 101.15 105.36V105.37Z" fill="black"/>
<path d="M33.2702 117.36C27.3502 119.26 21.3802 121.01 15.4402 122.84C14.0202 123.27 12.6802 123.32 11.5402 122.19C9.06025 119.71 9.87025 114.39 12.9802 112.8C20.2502 109.09 27.7202 109.03 35.2902 111.73C37.8702 112.65 40.1103 114.17 41.7402 116.6C38.7402 115.48 36.0502 116.47 33.2802 117.37L33.2702 117.36ZM15.2002 114.85C14.3302 115.31 13.6002 116.33 13.1902 117.26C12.9302 117.86 13.1202 119.04 13.5702 119.46C13.9902 119.86 15.0802 119.8 15.7802 119.61C20.5502 118.31 25.3002 116.96 30.0302 115.54C30.9402 115.27 31.7102 114.57 32.5502 114.06C31.6502 113.67 30.7702 113 29.8502 112.94C26.7302 112.76 23.5902 112.8 20.6502 112.76C18.6402 113.5 16.8202 113.99 15.2002 114.85Z" fill="black"/>
</g>
</svg>
