<svg width="14" height="13" viewBox="0 0 14 13" fill="none" xmlns="http://www.w3.org/2000/svg">
<path d="M8.66002 6.2999C8.71002 6.4799 8.55998 6.6599 8.36998 6.6299C6.02998 6.1999 4.37001 4.9799 3.02001 3.3199C2.44001 2.5999 2.67002 1.9299 3.78002 1.9499C5.32002 1.9699 8.06002 4.3499 8.66002 6.3099V6.2999Z" fill="#A4EDC6"/>
<path d="M11.06 1.71997C11.07 1.51997 11.28 1.31997 11.53 1.12997C11.91 0.839968 12.45 0.919968 12.76 1.28997C12.91 1.46997 13.02 1.65997 13.01 1.82997C12.89 3.41997 12.2 4.73997 11.98 6.31997C11.98 6.37997 12.07 6.66997 11.79 6.69997C11.55 6.71997 11.3499 6.54997 11.3199 6.30997C11.2199 5.35997 10.9899 2.97997 11.0699 1.72997L11.06 1.71997Z" fill="#A4EDC6"/>
<path d="M6.45998 10.15C6.75998 10.15 6.92001 10.5 6.74001 10.74C6.20001 11.43 5.80002 12.06 5.25002 12.25C4.16002 12.63 2.9 12.68 1.73 12.58C1.29 12.54 0.889998 12.06 0.479998 11.66C0.329998 11.51 0.339998 11.28 0.479998 11.13C0.949998 10.7 1.41006 10.18 1.92006 10.13C3.27006 9.99002 4.63997 10.1 6.44997 10.16L6.45998 10.15Z" fill="#A4EDC6"/>
</svg>
