<svg width="686" height="614" viewBox="0 0 686 614" fill="none" xmlns="http://www.w3.org/2000/svg">
<path d="M616.67 256.77C599.48 265.75 582.89 275.58 568.83 290.06C562.56 283.3 562.07 275.89 563.97 268.06C566.35 258.3 571.54 249.91 577.75 242.24C596.17 219.49 618.72 202.24 646.25 191.89C653.65 189.12 661.33 187.46 669.37 189.04C677.81 190.71 684.22 196.57 685.36 204.9C685.68 207.21 684.28 210.33 682.67 212.22C672.52 224.07 660.03 233.07 646.5 240.63C636.63 246.14 626.7 251.54 616.68 256.78L616.67 256.77Z" fill="#217490"/>
<path d="M546.91 433.41C545.7 429.11 546.68 424.71 550.61 421.95C555.82 418.3 561.68 416.55 567.72 419.55C575.91 423.63 584.14 427.76 591.88 432.62C606.77 441.96 619.53 453.65 628.2 469.22C634.04 479.7 629.59 486.92 615.32 486.84C606.56 486.24 596.85 481.94 587.68 476.42C579.69 471.61 571.79 466.6 564.18 461.19C554.64 454.41 549.93 444.29 546.89 433.41H546.91Z" fill="#217490"/>
<path d="M489.62 85.5402C485.96 88.1402 482.6 86.9301 480.91 82.7101C479.71 79.7401 479.05 76.4101 478.85 73.2101C478.53 67.8201 478.76 62.4002 478.76 57.0002C478.63 56.9702 478.5 56.9504 478.36 56.9304C479.81 44.2504 480.59 31.4604 482.88 18.9304C485.72 3.36035 498.4 -3.06988 511.69 3.19012C517.87 6.10012 520.96 11.14 520.95 17.61C520.95 23.77 520.45 30.06 519.13 36.07C515.94 50.64 509.45 63.8801 500.36 75.6701C497.43 79.4801 493.56 82.76 489.62 85.55V85.5402Z" fill="#217490"/>
<path d="M455.3 523.73C462.85 530.11 467.89 543.61 467.84 557.4C467.46 562.11 467.6 568.96 461.5 571.67C456.16 574.05 451.16 570.01 446.87 566.79C440.09 561.7 434.55 555.61 432.22 547.1C430.78 541.87 432.2 537.84 436.27 534.45C440.9 530.6 445.3 526.46 450.13 522.9C451.15 522.14 454.11 522.72 455.3 523.73Z" fill="#217490"/>
<path d="M292.85 588.09C286.8 565.88 288.86 543.93 296.35 522.34C298.74 515.49 303.4 511.93 310.65 511.61C318.28 511.28 325.06 515.11 327.7 521.77C331.73 531.95 333.44 542.6 333.25 553.55C333.06 568.65 330.48 583.31 323.93 596.97C321.57 601.89 318.19 606.55 314.38 610.47C309.98 614.98 304.58 614.66 301.47 609.24C297.72 602.68 294.83 595.4 292.85 588.08V588.09Z" fill="#217490"/>
<path d="M244.88 91.3702C242.53 81.5402 240.92 71.4602 239.92 61.3902C238.86 50.6202 242.64 46.4602 253.27 44.6202C254.4 44.4202 255.56 44.3803 256.69 44.2203C267.95 42.5903 268.15 42.5201 272.14 53.5001C278.92 72.1801 280.75 91.7699 282.64 112.53C282.41 116.46 282.3 121.55 281.76 126.59C281.07 133.09 277.98 135.78 271.84 133.8C267.6 132.43 263.29 129.47 260.39 126.04C251.98 116.07 247.83 103.82 244.88 91.36V91.3702Z" fill="#217490"/>
<path d="M167.79 298.08C167.15 297.77 166.52 297.47 165.88 297.16C166.49 292.44 166.57 287.58 167.81 283.04C172.99 263.85 180.02 245.32 189.21 227.65C190.12 225.91 191 224.05 192.33 222.67C210.31 204.26 229.61 187.94 256.03 183.15C258.76 182.65 261.54 182.2 264.31 182.12C295.41 181.22 326.3 182.75 356.81 189.58C379.72 194.71 398.94 205.67 415.57 222.41C442.74 249.76 464.28 280.35 475.19 317.71C481.46 339.19 483.21 361.14 478.22 382.94C471.99 410.14 454.17 428.63 430.14 441.59C403.09 456.16 373.86 461.63 343.41 462.21C294.63 463.13 253.74 444.99 220.07 410.48C193.59 383.32 178.39 350.67 176.73 312.36C176.46 306.03 177.47 299.63 177.89 293.27C177.99 291.73 178.08 290.2 178.19 288.21C174.44 291.77 171.11 294.93 167.78 298.08H167.79Z" fill="#217490"/>
<path d="M132.71 540.36C131.23 537.15 129.66 532.76 130.69 529.8C138.29 508.17 145.88 486.46 159.64 467.68C165.94 459.09 173.96 452.68 183.1 447.09C193.81 440.53 209.73 450.3 208.63 463.58C207.85 474.27 204.16 484.13 198.89 493.23C188.06 511.93 176.99 530.49 165.45 548.76C162.78 552.99 158.15 556.31 153.82 559.1C148.5 562.54 144.35 560.8 141.27 555.24C138.5 550.23 135.08 545.54 132.71 540.37V540.36Z" fill="#217490"/>
<path d="M97.4101 303.13C99.8401 305.02 99.4501 307.57 96.8501 308.59C91.1301 310.85 85.3001 313.09 79.3001 314.24C72.5601 315.53 65.6101 315.61 58.7401 316.21C41.9401 317.4 26.2101 313.29 11.0401 306.57C8.8101 305.59 6.6901 304.23 4.7901 302.72C-1.9699 297.31 -0.789894 289.95 7.44011 286.92C10.4601 285.79 13.8101 285.19 17.0401 284.99C41.4601 283.53 65.1201 287.13 87.7301 296.63C91.2501 298.11 94.3301 300.76 97.4101 303.14V303.13Z" fill="#217490"/>
</svg>
