<svg width="686" height="616" viewBox="0 0 686 616" fill="none" xmlns="http://www.w3.org/2000/svg">
<g clip-path="url(#clip0_768_2349)">
<path d="M686.36 204.83C686.68 207.14 685.28 210.28 683.67 212.17C673.52 224.06 661.03 233.1 647.5 240.68C637.63 246.21 627.7 251.63 617.68 256.89C600.49 265.91 583.9 275.77 569.84 290.29C563.57 283.52 563.08 276.08 564.98 268.22C567.36 258.41 572.55 250.01 578.76 242.31C597.18 219.48 619.73 202.17 647.26 191.78C654.66 189 662.34 187.33 670.38 188.92C678.82 190.59 685.23 196.47 686.37 204.84L686.36 204.83Z" fill="white"/>
<path d="M629.2 470.1C635.04 480.62 630.59 487.86 616.32 487.78C607.56 487.18 597.85 482.86 588.68 477.32C580.69 472.49 572.79 467.45 565.18 462.03C555.64 455.23 550.93 445.07 547.89 434.15C546.68 429.83 547.66 425.41 551.59 422.64C556.8 418.98 562.66 417.23 568.7 420.25C576.89 424.35 585.12 428.49 592.86 433.36C607.75 442.74 620.51 454.47 629.18 470.09L629.2 470.1Z" fill="white"/>
<path d="M512.69 2.38978C518.87 5.31978 521.96 10.3598 521.95 16.8598C521.95 23.0398 521.45 29.3498 520.13 35.3798C516.94 50.0098 510.45 63.2798 501.36 75.1198C498.43 78.9498 494.56 82.2298 490.62 85.0398C486.96 87.6398 483.6 86.4298 481.91 82.1998C480.71 79.2098 480.05 75.8798 479.85 72.6598C479.53 67.2498 479.76 61.8098 479.76 56.3798C479.63 56.3598 479.5 56.3398 479.36 56.3198C480.81 43.5998 481.59 30.7598 483.88 18.1798C486.72 2.54978 499.4 -3.90022 512.69 2.37978V2.38978Z" fill="white"/>
<path d="M476.19 318.05C482.46 339.61 484.21 361.63 479.22 383.51C472.99 410.81 455.17 429.37 431.14 442.36C404.09 457 374.86 462.48 344.41 463.06C295.63 463.99 254.74 445.79 221.07 411.15C194.59 383.89 179.39 351.13 177.73 312.68C177.46 306.32 178.47 299.91 178.89 293.52C178.99 291.98 179.08 290.43 179.19 288.44C175.44 292.02 172.11 295.18 168.78 298.35C168.14 298.04 167.51 297.74 166.87 297.43C167.48 292.69 167.56 287.81 168.8 283.26C173.98 264 181.01 245.4 190.2 227.67C191.11 225.93 191.99 224.05 193.32 222.67C211.3 204.2 230.6 187.82 257.02 183.01C259.75 182.51 262.53 182.06 265.3 181.98C296.4 181.08 327.29 182.61 357.8 189.46C380.71 194.61 399.93 205.61 416.56 222.41C443.73 249.86 465.27 280.56 476.18 318.05H476.19Z" fill="white"/>
<path d="M456.3 524.81C463.85 531.21 468.89 544.75 468.84 558.6C468.46 563.33 468.6 570.2 462.5 572.92C457.16 575.3 452.16 571.26 447.87 568.02C441.09 562.91 435.55 556.8 433.22 548.26C431.78 543.01 433.2 538.96 437.27 535.57C441.9 531.7 446.3 527.56 451.13 523.98C452.15 523.22 455.11 523.8 456.3 524.81Z" fill="white"/>
<path d="M328.71 522.84C332.74 533.06 334.45 543.75 334.26 554.73C334.07 569.89 331.49 584.6 324.94 598.3C322.58 603.23 319.2 607.92 315.39 611.85C310.99 616.38 305.59 616.06 302.48 610.62C298.73 604.04 295.84 596.73 293.86 589.38C287.81 567.09 289.87 545.06 297.36 523.4C299.75 516.53 304.41 512.95 311.66 512.63C319.29 512.3 326.07 516.15 328.71 522.83V522.84Z" fill="white"/>
<path d="M283.64 112.13C283.41 116.08 283.3 121.19 282.76 126.24C282.07 132.76 278.98 135.47 272.84 133.47C268.6 132.1 264.29 129.12 261.39 125.69C252.98 115.68 248.83 103.39 245.88 90.8904C243.53 81.0204 241.92 70.9104 240.92 60.8004C239.86 49.9904 243.64 45.8104 254.27 43.9704C255.4 43.7704 256.56 43.7304 257.69 43.5704C268.95 41.9404 269.15 41.8704 273.14 52.8904C279.92 71.6304 281.75 91.3004 283.64 112.13Z" fill="white"/>
<path d="M184.1 447.88C194.81 441.3 210.73 451.11 209.63 464.43C208.85 475.16 205.16 485.06 199.89 494.19C189.06 512.95 177.99 531.58 166.45 549.92C163.78 554.17 159.15 557.49 154.82 560.3C149.5 563.75 145.35 562 142.27 556.42C139.5 551.39 136.08 546.68 133.71 541.49C132.23 538.26 130.66 533.87 131.69 530.89C139.29 509.18 146.88 487.4 160.64 468.54C166.94 459.92 174.96 453.48 184.1 447.87V447.88Z" fill="white"/>
<path d="M98.4101 303.42C100.84 305.31 100.45 307.88 97.8501 308.9C92.1301 311.15 86.3001 313.42 80.3001 314.57C73.5601 315.86 66.6101 315.93 59.7401 316.54C42.9401 317.73 27.2101 313.6 12.0401 306.86C9.8101 305.88 7.6901 304.52 5.7901 302.99C-0.969895 297.55 0.210105 290.18 8.4401 287.13C11.4601 286 14.8101 285.4 18.0401 285.2C42.4601 283.74 66.1201 287.34 88.7301 296.88C92.2501 298.36 95.3301 301.03 98.4101 303.41V303.42Z" fill="white"/>
</g>
<defs>
<clipPath id="clip0_768_2349">
<rect width="686" height="616" fill="white"/>
</clipPath>
</defs>
</svg>
