<svg width="195" height="155" viewBox="0 0 195 155" fill="none" xmlns="http://www.w3.org/2000/svg">
<path d="M145.54 128.12C157.16 126.06 168.79 124 180.42 122C185.47 121.13 186.72 118.04 183.59 113.93C183.49 113.8 183.58 113.49 183.62 113.27C183.97 111.45 185.01 109.43 184.52 107.88C183.75 105.43 182.86 103.14 182.85 100.5C182.85 99.3901 181.81 98.2901 183.77 97.9701C184 97.9301 184.22 97.59 184.39 97.3501C186.15 94.9001 185.82 91.9001 183.61 89.8601C183.38 89.6501 183.08 89.2301 183.15 89.0401C184.5 85.6901 184.08 83.9601 181.26 81.6101C181.15 81.5201 181.09 81.3901 181 81.2801C181.14 81.2401 181.27 81.1701 181.41 81.1701C186.26 81.3801 190.77 81.0001 192.64 75.3501C192.99 74.3 193.95 73.48 194.44 72.4601C194.64 72.0401 194.57 71.1601 194.26 70.8601C180.69 57.7201 167.09 44.6101 153.47 31.5301C152.45 30.5501 151.25 29.77 150.15 28.88C149.88 28.66 149.48 28.35 149.48 28.07C149.44 23.62 149.52 19.18 149.41 14.73C149.38 13.3 149.75 12.85 151.16 13.01C152.31 13.1501 153.58 13.26 153.51 11.4C153.44 9.62005 153.62 7.82005 153.42 6.05005C153.36 5.47005 152.46 4.55005 151.93 4.53005C146.41 4.42005 140.89 4.46005 135.37 4.46005C129.82 4.46005 124.26 4.42005 118.71 4.52005C118.21 4.52005 117.34 5.40005 117.3 5.92005C117.13 7.94005 117.14 9.99005 117.3 12.01C117.34 12.58 118.12 13.09 118.57 13.63C118.92 14.05 119.59 14.44 119.6 14.86C119.68 18.35 119.59 21.84 119.68 25.32C119.71 26.53 119.31 26.65 118.26 26.57C107.99 25.79 97.7198 25.05 87.4398 24.31C77.5098 23.59 67.5898 22.84 57.6498 22.18C56.1098 22.08 53.6598 21.81 53.1098 22.63C40.0598 41.86 27.2098 61.2201 14.3998 80.6001C14.1898 80.9201 14.7998 82.3301 15.1998 82.4201C18.1498 83.05 21.1498 83.4601 24.1298 83.9801C24.3498 84.0201 24.7098 84.4301 24.6698 84.5301C23.8498 86.55 24.1898 88.3401 25.5798 89.9801C25.6898 90.1001 25.6698 90.4801 25.5598 90.6101C23.7698 92.6801 23.7698 95.2001 25.5498 97.2701C25.6598 97.4 25.6698 97.8001 25.5498 97.9301C23.7698 100 23.7698 102.53 25.5498 104.59C25.6598 104.72 25.6398 105.14 25.5198 105.28C23.7998 107.25 23.7798 109.88 25.4798 111.83C25.6198 111.99 25.6198 112.47 25.4798 112.62C23.2198 115.25 24.1398 119.13 27.3498 120.41C27.5098 120.47 27.6598 120.57 27.8198 120.65C27.6398 120.69 27.4598 120.76 27.2798 120.77C18.4298 121.46 10.5798 122.14 1.7398 122.89C1.3098 122.93 0.939805 123.63 0.549805 124.03C1.1098 124.41 1.7298 125.18 2.2198 125.11C18.9098 122.73 34.6198 122.42 51.3498 124.43C77.9598 127.62 102.56 136.38 125.03 151.05C125.48 151.34 126.32 151.05 126.97 151.03C126.74 150.38 126.7 149.38 126.25 149.13C118.45 144.78 110.6 140.53 102.76 136.25C102.59 136.16 102.43 136.04 102.27 135.94C102.46 135.87 102.63 135.76 102.83 135.72C117.07 133.18 131.31 130.64 145.55 128.12H145.54ZM126.94 129.11C119.12 130.23 111.35 131.79 103.57 133.17C103.4 133.2 103.22 133.17 103.04 133.17C103.09 133.01 103.1 132.83 103.18 132.68C104.29 130.52 104.13 128.42 102.89 126.36C102.82 126.24 103.04 125.75 103.17 125.73C111.98 124.52 120.8 123.35 129.62 122.18C129.94 122.14 130.28 122.24 130.51 122.26C130.51 123.32 130.41 124.09 130.53 124.83C130.97 127.67 129.84 128.69 126.94 129.11ZM131.07 106.11C130.843 108.45 129.183 109.807 126.09 110.18C118.52 111.09 110.95 112 103.38 112.9C103.23 112.92 103.07 112.87 102.92 112.85C102.97 112.7 103 112.54 103.08 112.4C104.16 110.43 104.21 108.45 103.2 106.42C103.14 106.3 103.39 105.84 103.52 105.82C111.11 105.09 118.7 104.38 126.29 103.68C127.39 103.58 128.51 103.58 129.59 103.35C131 103.05 131.44 103.52 131.08 104.81C131.08 105.28 131.11 105.69 131.08 106.1L131.07 106.11ZM158.08 122.85C158.08 123.09 157.79 123.5 157.58 123.54C149.51 125 141.43 126.43 133.35 127.84C133.2 127.87 132.85 127.56 132.85 127.41C133.06 119.32 133.3 111.24 133.53 103.15C133.62 100.07 133.71 96.9901 133.85 93.9101C133.86 93.6801 134.24 93.2901 134.47 93.2801C142.15 92.9001 149.84 92.55 157.52 92.2401C157.7 92.2401 158.07 92.6401 158.07 92.8601C158.1 97.8701 158.09 102.87 158.09 107.88C158.09 112.89 158.09 117.86 158.07 122.85H158.08ZM182.77 117.2C182.9 117.78 182.25 119.08 181.78 119.17C174.91 120.51 168.02 121.71 161.12 122.91C160.95 122.94 160.56 122.62 160.53 122.43C160.46 121.79 160.5 121.14 160.5 120.24C159.7 116.45 163.06 117.84 164.69 117.56C170.14 116.64 175.63 116 181.13 115.43C181.64 115.38 182.6 116.49 182.76 117.19L182.77 117.2ZM162.23 108.14C168.3 107.47 174.35 106.62 180.43 106.15C180.98 106.11 182.25 108.4 182.26 109.62C182.3 113.51 179.08 113.19 176.49 113.54C171.37 114.23 166.25 114.9 161.13 115.55C160.95 115.57 160.55 115.21 160.54 115.02C160.5 112.67 160.51 110.33 160.51 107.98C160.51 105.8 160.47 103.62 160.55 101.44C160.56 101.08 161.12 100.48 161.46 100.45C167.01 99.8801 172.56 99.2701 178.12 99.0101C178.94 98.9701 180.13 100.57 180.63 101.65C181.14 102.75 180.65 103.66 179.04 103.82C173.34 104.4 167.66 105.12 161.99 105.9C161.5 105.97 161.11 106.85 160.68 107.35C161.19 107.63 161.74 108.2 162.22 108.15L162.23 108.14ZM182.51 95.5601C182.15 95.98 181.35 96.1301 180.74 96.2001C174.11 96.87 167.48 97.5001 160.85 98.1201C160.75 98.1201 160.54 97.8601 160.54 97.7201C160.52 96.0001 160.49 94.2801 160.56 92.5701C160.56 92.3101 161 91.86 161.26 91.84C167.32 91.4901 173.39 91.1901 179.7 90.8601C182.37 90.3101 184.18 93.6401 182.52 95.5601H182.51ZM180.98 87.7201C180.73 88.0901 180.32 88.3401 180.22 88.4301C168.03 89.0801 156.31 89.7101 144.6 90.3301C135.48 90.8101 126.37 91.2801 117.25 91.7601C112.65 92.0001 108.05 92.2301 103.45 92.4701C103.28 92.4701 103.11 92.4301 102.94 92.4001C102.99 92.2501 103.07 92.1001 103.08 91.9501C103.15 90.01 103.2 88.0601 103.27 86.1201C103.27 85.9601 103.4 85.6701 103.48 85.6601C110.67 85.2701 117.87 84.9301 125.06 84.5201C133.73 84.0301 142.39 83.48 151.06 82.9601C159.69 82.4401 168.33 81.9201 176.96 81.4101C177.42 81.3801 178.28 81.4301 178.29 81.5001C178.53 83.8801 183.29 84.3 181 87.7101L180.98 87.7201ZM137.77 6.75005C141.67 6.99005 145.6 6.87005 149.52 6.78005C150.81 6.75005 151.1 7.07005 151.18 8.38005C151.3 10.26 150.79 10.87 148.87 10.67C146.92 10.47 144.94 10.63 142.97 10.63C140.59 10.63 138.21 10.67 135.83 10.59C135.51 10.58 135.01 10.04 134.93 9.67005C134.36 7.27005 135.33 6.59005 137.77 6.75005ZM147.03 45.6501C147.03 45.9401 146.52 46.4701 146.24 46.4701C142.67 46.5 139.1 46.4701 135.54 46.41C135.32 46.41 134.93 46.03 134.93 45.82C134.9 35.1 134.9 24.37 134.93 13.65C134.93 13.44 135.36 13.0601 135.59 13.0601C139.18 13.0201 142.76 13.0201 146.35 13.0601C146.59 13.0601 147.04 13.5201 147.04 13.7701C147.08 19.1101 147.07 24.4401 147.07 29.7801C147.07 35.07 147.08 40.35 147.04 45.64L147.03 45.6501ZM57.0098 33.85C58.2698 31.79 59.5198 29.7401 60.8098 27.7001C60.8798 27.6 61.3498 27.57 61.4198 27.67C62.9698 29.75 64.4898 31.84 66.0098 33.94C66.1098 34.07 66.1398 34.26 66.1998 34.42C66.0398 34.46 65.8898 34.5201 65.7298 34.5201C62.9798 34.5201 60.2198 34.5201 57.4698 34.5201C57.4698 34.6 57.4698 34.67 57.4698 34.75L56.6798 34.59C56.7898 34.34 56.8798 34.08 57.0198 33.85H57.0098ZM51.7198 42.4501C52.4098 41.3 53.2398 40.22 53.7898 39.01C54.5098 37.4 55.6298 36.9501 57.3298 37.0201C60.4998 37.14 63.6698 37.05 66.8398 37.05L67.0898 36.5401C67.6798 36.98 68.3798 37.32 68.8398 37.87C69.7798 39 70.5998 40.23 71.4598 41.42C71.6798 41.72 71.8598 42.05 72.0598 42.37C71.6798 42.43 71.2998 42.5401 70.9198 42.55C64.6598 42.76 58.4098 42.9501 52.1498 43.14C51.9298 43.14 51.7098 43.07 51.4898 43.0201C51.5698 42.8301 51.6198 42.62 51.7198 42.44V42.4501ZM47.9498 48.55C49.0998 44.7701 52.2498 45.5 55.0198 45.41C61.1898 45.2001 67.3598 44.9501 73.5398 44.93C74.2098 44.93 74.9098 46.26 75.5398 47.03C75.9998 47.6 76.3598 48.25 76.7698 48.8601C76.0598 48.9201 75.3498 49 74.6398 49.03C66.0098 49.33 57.3798 49.62 48.4098 49.93C48.2698 49.91 47.7898 49.8601 47.3098 49.8101C47.5298 49.3901 47.8398 49 47.9698 48.5601L47.9498 48.55ZM43.7298 55.42C45.1698 50.98 48.9698 52.34 51.9898 52.2001C60.5498 51.7901 69.1198 51.53 77.6798 51.44C78.5998 51.44 79.5898 52.93 80.4598 53.8101C80.9898 54.3501 81.3398 55.07 81.7698 55.71C81.0298 55.76 80.2798 55.84 79.5398 55.8601C72.2798 56.0601 65.0198 56.3 57.7498 56.44C53.3498 56.5201 48.9398 56.46 44.5298 56.46C44.5298 56.6 44.5298 56.75 44.5298 56.89C44.0298 56.85 43.5298 56.8 43.0298 56.76C43.2698 56.31 43.5798 55.89 43.7298 55.42ZM39.9398 61.5601C40.6998 59.2001 42.5098 59.2001 44.5398 59.16C56.6198 58.91 68.6998 58.57 80.7898 58.2701C83.3498 58.21 86.1198 60.2201 86.9298 62.7001C86.9498 62.75 86.6698 62.9901 86.5298 62.9901C77.0998 63.1401 67.6698 63.3 58.2398 63.39C52.5398 63.4501 46.8498 63.4001 41.1498 63.4001C41.1498 63.5101 41.1498 63.6201 41.1498 63.7401C40.3898 63.6901 39.6198 63.6401 38.8598 63.5801C39.2298 62.9101 39.7198 62.2701 39.9498 61.5601H39.9398ZM37.9998 66.21C54.7298 65.81 71.4598 65.5501 88.1898 65.4701C89.0998 65.4701 90.0098 67.25 90.9198 68.2C90.7298 68.27 90.5398 68.4101 90.3498 68.4101C82.5698 68.5001 74.7898 68.6101 67.0098 68.6401C57.1798 68.6801 47.3498 68.6401 37.5198 68.6401C37.5198 68.8101 37.4998 68.9801 37.4998 69.1501C36.8598 69.0201 36.2098 68.8901 35.5698 68.7601C36.3798 67.8701 37.1698 66.22 38.0098 66.2L37.9998 66.21ZM31.7198 74.9601C32.8198 71.91 34.9998 71.2601 38.1298 71.2801C51.3598 71.34 64.5898 71.1001 77.8198 70.9501C82.0498 70.9 86.2798 70.9201 90.4998 70.7201C92.2598 70.6401 93.4198 71.1001 94.2498 72.6601C94.7998 73.6901 95.5598 74.62 96.2198 75.59C95.0398 75.62 93.8598 75.6801 92.6798 75.6801C84.0198 75.6801 75.3598 75.6801 66.6998 75.6801V75.7501C55.1798 75.7501 43.6698 75.7501 32.1498 75.7501C31.8998 75.7501 31.6498 75.6601 31.3998 75.6201C31.4998 75.4001 31.6198 75.1901 31.6998 74.9601H31.7198ZM27.7198 84.5801C27.7298 84.4801 28.0798 84.4401 28.2798 84.3701C28.3198 84.5501 28.3598 84.7401 28.3598 84.7801C28.2898 85.9501 28.2298 86.9701 28.1498 87.9901C28.1298 88.2501 28.0298 88.51 27.9598 88.7701C27.7198 88.61 27.2698 88.4301 27.2798 88.2901C27.3698 87.0501 27.5298 85.8101 27.7098 84.5801H27.7198ZM27.8698 91.84C27.9598 92.5301 28.0598 93.2101 28.1698 93.9901C28.0598 94.6301 27.9398 95.3301 27.8198 96.0301C27.4498 95.34 26.7798 94.6501 26.7898 93.9701C26.8098 93.2501 27.4798 92.55 27.8698 91.84ZM28.0498 118.12C27.5998 117.42 26.7798 116.7 26.8098 116.02C26.8398 115.25 27.6298 114.51 28.0798 113.76C28.2098 114.45 28.3298 115.13 28.4698 115.87C28.3298 116.62 28.1898 117.37 28.0498 118.12ZM26.8098 108.58C26.8098 107.86 27.6298 107.14 28.0898 106.42C28.2098 107.14 28.3398 107.87 28.4698 108.62C28.3398 109.33 28.2098 110.03 28.0798 110.74C27.6198 110.02 26.8098 109.3 26.8098 108.58ZM28.0898 103.43C27.6298 102.68 26.8998 101.96 26.7898 101.15C26.7098 100.55 27.4098 99.8401 27.7698 99.1801C28.0098 100.25 28.2398 101.32 28.4698 102.37C28.3198 102.78 28.1998 103.11 28.0898 103.43ZM28.2998 81.7901C28.1698 81.7901 27.8798 81.3301 27.9398 81.1701C28.8398 78.62 30.6098 77.98 33.3098 78.0301C43.5498 78.2201 53.7998 78.1101 64.0498 78.1101C74.5498 78.1001 85.0398 78.1601 95.5398 78.0401C97.5398 78.0201 98.8798 78.4901 99.7998 80.2601C100.28 81.1901 100.93 82.0301 101.5 82.9001C100.5 82.8101 99.4898 82.6401 98.4898 82.6301C90.3098 82.51 82.1398 82.4 73.9598 82.3101C58.7398 82.1401 43.5298 81.98 28.3098 81.7801L28.2998 81.7901ZM97.3298 92.6501C95.1898 92.5901 93.6498 90.9501 93.7198 88.8001C93.7898 86.5601 95.4298 84.98 97.6098 85.0601C99.8598 85.1401 101.62 86.87 101.55 88.9501C101.49 91.1001 99.6398 92.7101 97.3298 92.6401V92.6501ZM101.55 99.09C101.55 101.2 99.7798 102.87 97.5298 102.87C95.2698 102.87 93.7098 101.31 93.7198 99.0801C93.7298 96.8601 95.2898 95.3101 97.5098 95.3001C99.7198 95.3001 101.55 97.0001 101.55 99.09ZM91.8698 111.91C91.9098 112.01 91.6198 112.39 91.5198 112.37C87.2198 111.8 82.9198 111.23 78.6398 110.55C78.3098 110.5 78.1098 109.62 78.0698 109.55C78.2098 107.35 78.2998 105.67 78.4498 103.99C78.4598 103.84 78.9198 103.61 79.1598 103.63C83.5598 104.03 87.9598 104.46 92.3598 104.89C92.5298 104.91 92.6998 104.98 92.8698 105.03C92.7998 105.18 92.7498 105.36 92.6498 105.49C91.1998 107.48 90.9198 109.61 91.8698 111.9V111.91ZM92.1398 91.9701C92.1898 92.0601 91.9598 92.4501 91.8698 92.4401C87.8298 92.2601 83.7898 92.0601 79.7498 91.8301C79.5498 91.8201 79.2098 91.5401 79.1898 91.3501C79.0198 89.5401 78.8298 87.73 78.8198 85.9201C78.8198 85.5301 79.4698 84.9101 79.9098 84.8001C80.6598 84.6101 81.4798 84.7501 82.2798 84.7501C82.2798 84.7901 82.2798 84.8201 82.2798 84.8601C85.4798 84.8601 88.6898 84.8601 91.8898 84.8601C92.0998 84.8601 92.2998 84.9401 92.5098 84.9801C92.4398 85.1701 92.3898 85.3701 92.2798 85.5401C91.0398 87.6501 90.9898 89.7801 92.1198 91.9601L92.1398 91.9701ZM79.0298 94.8001C79.0498 94.5801 79.5298 94.23 79.7798 94.2401C83.8698 94.4201 87.9598 94.65 92.0498 94.8801C92.2698 94.8901 92.4898 94.97 92.7098 95.0201C92.6198 95.2101 92.5498 95.4001 92.4398 95.5701C91.1198 97.6101 90.9698 99.7301 91.9898 101.94C92.0398 102.04 91.7698 102.45 91.6698 102.44C87.4898 102.07 83.3198 101.67 79.1498 101.23C78.8798 101.2 78.6498 100.8 78.5398 100.7C78.7098 98.51 78.8298 96.6501 79.0298 94.8001ZM75.6598 95.9901C72.9798 95.91 70.2898 95.7401 67.6098 95.5401C67.4198 95.5301 67.0798 95.1301 67.0898 94.9301C67.2598 91.6001 67.4698 88.2801 67.6998 84.9601C67.6998 84.8501 67.9798 84.6701 68.1298 84.6601C69.3798 84.6401 70.6398 84.6501 71.8898 84.6501C76.5198 84.6601 76.5498 84.6601 76.7398 90.0501C76.7998 91.7301 76.7398 93.4201 76.6098 95.09C76.5798 95.43 75.9798 96.0001 75.6598 95.9901ZM76.2098 98.9901C76.0298 103.06 75.8898 106.41 75.7098 109.75C75.7098 109.89 75.3798 110.15 75.2298 110.13C72.4298 109.77 69.6398 109.39 66.8498 108.98C66.6598 108.95 66.3698 108.61 66.3798 108.42C66.5798 105.21 66.8098 102.01 67.0898 98.8101C67.1098 98.5701 67.5698 98.16 67.8198 98.1701C70.2098 98.2201 72.5998 98.3101 74.9898 98.4701C75.4998 98.5101 75.9898 98.8901 76.2098 98.9901ZM64.6998 94.6201C64.6998 94.7201 64.4298 94.8801 64.2998 94.8701C61.3098 94.5401 58.3098 94.2001 55.3198 93.84C55.1598 93.8201 54.9198 93.59 54.9098 93.4501C54.7498 90.7101 54.5198 87.9601 54.5898 85.2301C54.5898 84.8301 56.0298 84.47 56.7998 84.09C56.8498 84.2501 56.9098 84.41 56.9598 84.5601C59.4998 84.5601 62.0398 84.54 64.5898 84.59C64.8598 84.59 65.3498 85.0301 65.3398 85.2501C65.1798 88.3701 64.9498 91.4901 64.7098 94.6101L64.6998 94.6201ZM64.8898 99.9401C64.5798 102.87 64.3398 105.34 64.0198 107.81C63.9898 108.07 63.3998 108.47 63.1098 108.44C60.6398 108.16 58.1398 107.92 55.7198 107.37C55.0398 107.22 54.0998 106.1 54.0998 105.42C54.0998 102.57 54.3898 99.7201 54.6198 96.8701C54.6398 96.6601 55.0698 96.2801 55.2698 96.3001C58.1698 96.6001 61.0898 96.8201 63.9298 97.4301C64.4698 97.5501 64.6498 99.2801 64.8798 99.9401H64.8898ZM50.6098 90.34C44.0798 89.84 37.5298 89.5701 30.9798 89.2001C30.8398 89.2001 30.5798 89.12 30.5798 89.09C30.6498 87.55 30.6898 86.0001 30.8998 84.4801C30.9298 84.2801 31.8598 84.2001 32.3698 84.0701C32.3698 84.2001 32.3898 84.3301 32.3998 84.4601C38.7798 84.4601 45.1498 84.4601 51.5298 84.4801C51.7098 84.4801 52.0198 84.7701 52.0498 84.9601C52.2198 86.05 52.2498 87.1701 52.4598 88.2501C52.7598 89.8201 52.5498 90.4901 50.6098 90.34ZM32.8398 91.6501C39.1698 92.1501 45.5298 92.37 51.8798 92.7401C52.0898 92.7501 52.4398 93.1401 52.4398 93.3501C52.4198 94.9301 52.3398 96.5201 52.2198 98.1001C52.1998 98.2901 51.7498 98.61 51.5198 98.59C44.6498 97.9601 37.7798 97.3201 30.9298 96.5301C30.5898 96.4901 30.4198 95.0301 30.1698 94.2301C29.8898 92.0101 30.6598 91.4801 32.8598 91.6601L32.8398 91.6501ZM51.7098 106.59C51.7098 106.68 51.3698 106.85 51.2198 106.83C44.5498 105.92 37.8898 105 31.2198 104.04C31.0098 104.01 30.7198 103.64 30.6998 103.41C30.6198 102.69 30.8298 101.91 30.6198 101.24C29.9698 99.1801 30.6998 98.8901 32.6498 99.1101C38.8598 99.8301 45.0898 100.35 51.3098 100.97C51.5798 101 51.8298 101.27 51.7398 101.21C51.7398 103.3 51.7398 104.94 51.7198 106.59H51.7098ZM92.9198 125.63C92.4598 127.48 91.9698 129.33 91.4598 131.16C91.4198 131.31 91.1398 131.55 91.0598 131.52C76.8498 126.39 62.2198 123.08 47.1798 121.68C41.7898 121.18 36.3698 121.09 30.9598 120.77C30.7298 120.76 30.3398 120.25 30.3498 119.98C30.4098 118.14 30.5498 116.3 30.6798 114.46C30.6998 114.23 30.8198 114 30.8898 113.79C37.0698 114.91 43.0598 116 49.0598 117.08C63.6198 119.72 78.1698 122.36 92.7298 125.02C92.8298 125.04 92.9698 125.43 92.9198 125.6V125.63ZM92.6798 115.71C91.2598 117.61 90.9498 119.66 91.7698 121.89C91.8198 122.04 91.8298 122.2 91.8498 122.35C91.6898 122.35 91.5298 122.37 91.3698 122.35C71.3898 118.73 51.3998 115.12 31.4298 111.47C31.1298 111.42 30.7198 110.93 30.6998 110.62C30.6198 109.4 30.6498 108.18 30.6798 106.95C30.6798 106.75 30.8598 106.56 30.9398 106.41C42.3398 107.99 53.5598 109.55 64.7798 111.1C73.9698 112.37 83.1598 113.65 92.3498 114.93C92.5898 114.96 92.8198 115.05 93.0598 115.11C92.9298 115.31 92.8198 115.53 92.6798 115.72V115.71ZM97.5398 105.59C99.7698 105.59 101.53 107.23 101.55 109.32C101.57 111.43 99.7898 113.1 97.5398 113.1C95.2498 113.1 93.7098 111.59 93.7098 109.34C93.7098 107.09 95.2498 105.58 97.5398 105.58V105.59ZM101.55 119.65C101.49 121.73 99.6698 123.41 97.4998 123.38C95.2498 123.35 93.6698 121.75 93.7198 119.54C93.7698 117.22 95.3498 115.76 97.7398 115.81C99.8498 115.86 101.61 117.63 101.56 119.65H101.55ZM97.5198 133.62C95.2998 133.62 93.6998 132.01 93.7198 129.79C93.7298 127.56 95.3098 126.01 97.5698 126.03C99.7698 126.04 101.56 127.74 101.56 129.81C101.56 131.89 99.7198 133.63 97.5298 133.62H97.5198ZM99.7498 75.6601C99.5198 75.6701 99.1998 75.4501 99.0498 75.2401C94.6798 69.2701 90.3198 63.2801 85.9698 57.2901C85.8698 57.1501 85.8198 56.9701 85.7498 56.82C85.9198 56.78 86.0898 56.73 86.2598 56.71C87.1598 56.6 88.0998 56.63 88.9398 56.35C89.3598 56.21 89.7798 55.5201 89.8298 55.05C89.8598 54.7701 89.1198 54.1101 88.7798 54.1501C87.3298 54.3101 85.8998 54.66 84.4498 54.92C84.3298 54.94 84.1398 54.7701 84.0498 54.6501C83.1098 53.3701 82.1698 52.09 81.2498 50.8C81.1498 50.66 81.0898 50.4901 81.0198 50.3301C81.1998 50.2801 81.3798 50.19 81.5598 50.17C83.7598 50 85.9798 49.9 88.1698 49.62C88.6198 49.56 88.9698 48.8 89.3698 48.3601C88.9398 48.0201 88.4998 47.3801 88.0698 47.39C85.2798 47.46 82.4998 47.7001 79.7098 47.8301C79.3898 47.84 78.9398 47.61 78.7498 47.35C76.0298 43.67 73.3398 39.9701 70.6598 36.25C70.5898 36.16 70.7798 35.7101 70.8698 35.7001C73.3198 35.51 75.7798 35.4201 78.2198 35.1301C78.7398 35.0701 79.1898 34.34 79.6698 33.91C79.1798 33.5301 78.6798 32.8201 78.1998 32.8301C75.1198 32.8901 72.0398 33.12 68.9498 33.26C68.7098 33.27 68.3698 33.1101 68.2198 32.91C66.4098 30.47 64.6198 28.01 62.8398 25.5401C62.7398 25.4001 62.6898 25.22 62.6198 25.06C62.7898 25.03 62.9598 24.96 63.1298 24.97C73.8798 25.75 84.6298 26.53 95.3798 27.31C103.27 27.88 111.15 28.4501 119.04 29.0401C119.24 29.0501 119.59 29.3001 119.58 29.3601C118.38 34.3101 122.05 36.84 124.76 39.84C127.18 42.53 129.57 45.25 132.07 47.87C132.58 48.4 133.48 48.8101 134.21 48.82C138.82 48.91 143.43 48.91 148.04 48.8101C148.51 48.8001 149.34 47.9601 149.36 47.4701C149.49 44.9001 149.42 42.3201 149.42 39.7401C149.42 37.1001 149.42 34.45 149.43 31.81C149.43 31.64 149.52 31.47 149.57 31.31C149.69 31.38 149.84 31.43 149.94 31.5201C156.19 37.5201 162.43 43.5201 168.66 49.5401C168.72 49.6001 168.56 50.0601 168.46 50.07C166.55 50.34 164.63 50.51 162.74 50.87C162.23 50.97 161.83 51.61 161.38 52.01C161.83 52.4 162.32 53.16 162.72 53.1101C165.31 52.8 167.88 52.3101 170.45 51.91C170.72 51.87 171.12 51.93 171.31 52.1101C172.94 53.6301 174.54 55.19 176.12 56.76C176.19 56.83 175.99 57.3801 175.86 57.41C171.83 58.28 167.78 59.0601 163.77 60C163.18 60.14 162.76 60.9501 162.26 61.46C162.82 61.74 163.44 62.34 163.93 62.2401C168.39 61.3701 172.83 60.34 177.29 59.4501C177.92 59.32 178.85 59.43 179.27 59.82C182.9 63.2001 186.45 66.6601 190.01 70.1001C190.18 70.2701 190.32 70.4701 190.47 70.6601C190.22 70.7201 189.98 70.8201 189.73 70.8301C182.74 71.2101 175.75 71.5801 168.76 71.9601C154.94 72.7101 141.13 73.4601 127.31 74.2101C118.13 74.7101 108.94 75.2001 99.7598 75.6701L99.7498 75.6601ZM102.47 103.09C104.33 100.49 104.4 98.1301 102.69 95.4001C102.64 95.3201 102.85 94.9201 102.96 94.9201C112.29 94.41 121.61 93.9101 130.94 93.5001C131.15 93.5001 131.4 94.4301 131.63 94.9301C131.49 94.9601 131.35 94.9901 131.22 95.0201C131.22 96.8 131.24 98.5801 131.19 100.36C131.19 100.54 130.84 100.86 130.64 100.88C121.33 101.78 112.02 102.65 102.7 103.52C102.58 103.53 102.45 103.49 102.32 103.47C102.37 103.34 102.39 103.19 102.47 103.08V103.09ZM102.87 115.41C112.04 114.28 121.21 113.17 130.39 112.08C130.53 112.06 130.85 112.39 130.85 112.55C130.82 114.71 130.78 116.88 130.64 119.03C130.62 119.3 130.11 119.72 129.78 119.76C120.9 120.98 112.02 122.15 102.94 123.37C102.93 123.2 102.86 123.02 102.91 122.92C104.35 120.5 104.2 118.15 102.66 115.84C102.61 115.77 102.78 115.42 102.87 115.41Z" fill="black"/>
</svg>
