<svg width="175" height="155" viewBox="0 0 175 155" fill="none" xmlns="http://www.w3.org/2000/svg">
<path d="M147.8 73.9404C145.99 74.0504 143.35 74.2504 140.71 74.3604C137.78 74.4804 134.85 74.5504 131.91 74.5904C118.68 74.7904 105.44 74.9104 92.21 75.1704C84.34 75.3204 76.48 75.5204 68.61 75.4204C58.02 75.2804 47.44 75.1504 36.85 74.9804C34.1 74.9304 31.35 74.7104 28.6 74.6204C27.24 74.5804 25.88 74.6804 24.53 74.7004C24.01 74.7004 23.49 74.7204 22.98 74.6504C21.81 74.5104 20.94 73.8504 20.23 72.9504C18.28 70.4704 17.16 67.6104 16.41 64.5804C15.44 60.6404 15.18 56.6304 15.56 52.6004C15.9 48.9704 16.69 45.4504 18.68 42.3404C19.76 40.6404 21 39.0304 22.24 37.4404C24.65 34.3304 27.37 31.5204 30.7 29.3704C32.94 27.9204 35.35 26.8404 37.99 26.4004C39.94 26.0704 41.91 25.8204 43.86 25.5204C45.43 25.2804 46.52 24.5204 47.03 22.9004C47.87 20.2004 48.99 17.6204 50.41 15.1604C53.28 10.1504 57.58 6.97043 63.05 5.38043C69.78 3.42043 76.41 3.88043 82.89 6.50043C84.26 7.05043 85.55 7.79043 86.9 8.39043C87.66 8.73043 88.46 8.99043 89.26 9.20043C89.53 9.27043 89.93 9.11043 90.18 8.93043C92.25 7.44043 94.29 5.88043 96.37 4.41043C98.16 3.15043 100.06 2.09043 102.16 1.42043C104.97 0.51043 107.76 0.48043 110.57 1.49043C114.57 2.93043 118.34 4.77043 121.55 7.61043C125.37 11.0004 127.65 15.2504 128.56 20.2504C129.01 22.7004 129.18 25.1804 129.02 27.6704C128.97 28.4904 129.1 28.7304 129.92 28.9204C130.56 29.0704 131.23 29.1304 131.88 29.1304C132.86 29.1304 133.85 29.0704 134.83 29.0204C137.33 28.9004 139.79 29.0804 141.99 30.3904C143.01 31.0004 143.93 31.7904 144.84 32.5604C150.22 37.1104 153.9 42.8504 156.46 49.3604C157.71 52.5304 158.58 55.8004 159.28 59.1204C159.7 61.1004 159.2 62.9904 158.56 64.8404C158.06 66.2704 157.52 67.6904 157.12 69.1504C156.91 69.9204 156.87 70.7704 156.9 71.5804C156.96 73.3104 156.17 74.1904 154.42 74.1504C152.49 74.1004 150.56 74.0204 147.79 73.9204L147.8 73.9404ZM85.85 12.6704C85.79 12.6204 85.76 12.5704 85.72 12.5504C81.56 9.96043 77.03 8.59043 72.14 8.43043C67.31 8.27043 62.76 9.29043 58.67 11.9404C57.52 12.6904 56.32 13.4304 55.58 14.6304C54.49 16.4104 53.45 18.2304 52.46 20.0704C51.78 21.3304 51.22 22.6504 51.18 24.1204C51.15 25.0504 51.51 25.5004 52.4 25.7404C53.73 26.1004 55.05 26.4604 56.38 26.8304C60.69 28.0504 64.27 30.2504 66.7 34.1504C68.76 37.4604 70.16 40.9404 69.76 44.9204C69.43 48.1704 67.91 50.6804 64.88 52.1004C63.25 52.8704 61.5 53.1004 59.7 52.9804C57.91 52.8604 56.18 52.4504 54.49 51.8304C52.33 51.0404 50.36 49.9604 48.79 48.2404C46.29 45.5104 44.99 42.2604 44.66 38.6204C44.5 36.8504 44.3 35.0604 44.66 33.2704C44.79 32.6204 44.88 31.9704 44.94 31.3104C45.05 30.0904 44.49 29.4804 43.3 29.4904C39.67 29.5104 36.32 30.5304 33.24 32.4004C27.88 35.6604 24.15 40.3904 21.36 45.9104C20.1 48.3904 19.86 51.1104 19.89 53.8504C19.91 55.6404 20.07 57.4204 20.06 59.2104C20.05 61.1904 20.21 63.1404 20.51 65.0804C20.73 66.5304 21.02 67.9704 21.78 69.2604C22.47 70.4404 23.47 71.0104 24.88 70.9704C31.46 70.7704 38.04 70.5904 44.62 70.4204C54.88 70.1704 65.15 70.0604 75.4 69.5704C81.6 69.2704 87.81 69.2204 94.01 69.1604C102.2 69.0804 110.39 68.8704 118.57 68.4304C122.5 68.2204 126.41 67.7904 130.34 67.5804C132.08 67.4804 133.84 67.6204 135.58 67.7304C136.45 67.7804 136.71 68.0704 136.83 68.8004C136.96 69.6404 137.49 70.1104 138.26 70.2704C138.85 70.3904 139.47 70.4204 140.07 70.4204C142.21 70.4204 144.36 70.3804 146.5 70.3704C148.13 70.3704 149.75 70.3704 151.31 69.7704C151.64 69.6404 151.81 69.4604 151.9 69.1004C152.09 68.4104 152.31 67.7304 152.61 67.0904C153.02 66.2004 153.53 65.3504 153.97 64.4804C154.48 63.4704 154.87 62.4104 154.82 61.2504C154.68 58.1504 154.15 55.1104 153.21 52.1504C151.35 46.3304 148.27 41.2404 144.04 36.8304C142.55 35.2704 141.01 33.7704 138.88 33.1104C137.71 32.7404 136.53 32.3604 135.33 32.1104C133.75 31.7804 132.14 31.6704 130.55 32.0904C129.3 32.4204 128.59 33.2604 128.49 34.4704C128.34 36.2504 128.2 38.0304 128.05 39.8204C127.72 43.7504 125.93 46.8604 122.7 49.1004C122.05 49.5504 121.3 49.9104 120.54 50.1204C118.35 50.7404 116.71 49.7704 116.3 47.5304C116.09 46.4204 116.07 45.2504 116.18 44.1204C116.49 41.0704 117.38 38.1904 119.38 35.7904C120.35 34.6304 121.45 33.5704 122.54 32.5104C124.29 30.7904 125.15 28.7204 125.18 26.2704C125.22 23.5604 124.6 20.9604 124.04 18.3404C123.57 16.1304 122.58 14.2604 121.04 12.6504C120.84 12.4404 120.65 12.2304 120.45 12.0204C117.41 8.88043 113.9 6.49043 109.61 5.42043C105.83 4.48043 102.27 4.94043 99.02 7.19043C97.93 7.94043 96.86 8.72043 95.79 9.49043C95.01 10.0604 94.23 10.6304 93.47 11.2204C92.64 11.8504 92.62 12.1904 93.36 12.9504C93.67 13.2704 94.03 13.5504 94.32 13.8804C95.11 14.8004 96.02 15.6504 96.63 16.6804C99.36 21.2904 100.31 26.2804 99.49 31.5804C99.16 33.7104 98.38 35.7004 96.85 37.2804C94.9 39.2904 92.5 40.2704 89.71 39.7004C86 38.9504 83.63 36.5304 82.25 33.1104C80.81 29.5304 80.75 25.8204 81.44 22.0904C82.07 18.6804 83.36 15.5504 85.74 12.9504C85.81 12.8804 85.84 12.7704 85.89 12.6804L85.85 12.6704ZM48.38 35.4904C48.38 37.8304 48.75 40.0604 49.69 42.2004C51.72 46.8404 56.23 50.3204 61.76 49.5804C62.82 49.4404 63.89 49.3004 64.77 48.5804C66.38 47.2704 66.78 45.5104 66.6 43.5704C66.34 40.8104 65.19 38.3904 63.65 36.1404C62.47 34.4204 61.14 32.7504 59.21 31.8904C56.99 30.9004 54.67 30.0804 52.35 29.3504C50.6 28.8004 49.53 29.4504 49.09 31.2204C48.74 32.6104 48.62 34.0604 48.4 35.4904H48.38ZM84.45 25.7604C84.45 29.0204 85.38 31.9404 87.05 34.3304C88.19 35.9604 89.66 36.6004 91.62 36.2804C93.76 35.9304 94.93 34.8904 95.26 32.8804C95.37 32.2104 95.39 31.5304 95.46 30.8504C95.75 27.9604 95.53 25.1104 94.74 22.3104C93.99 19.6604 92.7 17.3604 90.45 15.6904C89.34 14.8604 89.12 14.8804 88.18 15.9004C85.6 18.6804 84.46 22.0104 84.44 25.7704L84.45 25.7604ZM124.26 37.7704C124.26 37.3804 124.3 36.9804 124.25 36.5904C124.21 36.3104 124.11 35.9104 123.92 35.8304C123.66 35.7204 123.22 35.7604 122.98 35.9204C122.56 36.2004 122.16 36.5704 121.87 36.9804C120.55 38.8404 119.63 40.9004 119.31 43.1604C119.19 44.0204 119.33 44.9504 119.49 45.8104C119.63 46.5504 120.17 46.7604 120.76 46.3404C121.28 45.9604 121.79 45.4904 122.15 44.9604C123.63 42.8004 124.19 40.3404 124.27 37.7604L124.26 37.7704Z" fill="black"/>
<path d="M88.5102 92.8503C88.4002 91.3603 88.9202 89.9603 89.1702 88.5303C89.5402 86.4103 90.7202 84.8003 92.3802 83.5003C92.8102 83.1703 93.3202 82.9003 93.8302 82.7203C94.8102 82.3703 95.6202 82.7303 95.9002 83.7303C96.1102 84.4703 96.2802 85.3103 96.1302 86.0303C95.4002 89.6003 93.9802 92.9003 91.7602 95.8203C91.5002 96.1703 91.1502 96.4803 90.7802 96.7303C90.1002 97.2003 89.4702 97.0703 89.1802 96.2903C88.8702 95.4303 88.7402 94.5003 88.5502 93.6003C88.5002 93.3603 88.5202 93.1003 88.5102 92.8503Z" fill="black"/>
<path d="M118.6 95.4402C119.09 92.0702 119.51 88.9502 120.95 86.0902C121.26 85.4802 121.69 84.9002 122.16 84.4002C122.82 83.7002 123.71 83.6202 124.57 84.0602C126.35 84.9602 126.99 86.2702 126.36 88.1802C125.93 89.4702 125.27 90.7002 124.62 91.9002C123.83 93.3402 122.93 94.7202 122.11 96.1402C121.86 96.5702 121.71 97.0602 121.46 97.4902C120.82 98.6102 119.93 98.6302 119.33 97.4902C118.97 96.7902 118.8 96.0002 118.61 95.4502L118.6 95.4402Z" fill="black"/>
<path d="M30.9697 90.4997C31.2697 87.8097 31.4497 85.0797 32.2797 82.4597C32.5997 81.4597 33.0197 80.5297 33.8897 79.8597C34.1597 79.6497 34.3997 79.5997 34.7197 79.7497C35.3497 80.0397 36.0097 80.2697 36.6397 80.5597C37.4497 80.9397 37.8597 81.5997 37.6597 82.4797C37.1697 84.6397 36.7097 86.7997 36.0697 88.9197C35.5897 90.4997 34.8897 92.0197 34.2197 93.5297C33.9997 94.0097 33.5797 94.4197 33.1997 94.8097C32.8597 95.1497 32.4697 95.0597 32.1797 94.6997C32.0297 94.5197 31.8897 94.3297 31.7997 94.1197C31.3097 92.9797 31.0497 91.7797 30.9697 90.5097V90.4997Z" fill="black"/>
<path d="M101.01 112.77C101.1 112.07 101.23 110.82 101.45 109.6C101.82 107.59 103.05 106.16 104.73 105.1C105.97 104.32 107.28 104.41 108.21 105.24C108.44 105.45 108.52 105.62 108.34 105.92C106.32 109.37 105.07 113.13 104 116.95C103.79 117.68 103.46 118 102.82 118.06C102.33 118.1 101.88 117.76 101.6 117.1C101.1 115.88 101.05 114.6 101.01 112.76V112.77Z" fill="black"/>
<path d="M71.7798 111.96C71.7798 110.72 71.7098 109.64 71.7998 108.58C71.8998 107.36 72.3098 106.21 73.0298 105.2C73.8298 104.08 75.0498 103.6 76.0898 103.98C77.5498 104.52 78.3098 105.68 78.1698 107.17C78.0198 108.74 77.3398 110.12 76.5198 111.43C75.6098 112.88 74.6198 114.29 73.6698 115.71C73.6398 115.75 73.6098 115.81 73.5698 115.84C73.2598 116.02 72.8798 116.4 72.6598 116.33C72.3798 116.23 72.0898 115.78 72.0498 115.45C71.9098 114.25 71.8598 113.03 71.7898 111.98L71.7798 111.96Z" fill="black"/>
<path d="M59.5898 93.2602C59.9898 90.3702 61.0098 87.6002 62.9598 85.2302C63.3798 84.7202 64.0098 84.2902 64.6198 84.0302C65.4598 83.6702 66.8798 84.5902 67.0398 85.4802C67.0698 85.6302 67.0198 85.8002 66.9698 85.9502C65.6898 89.3902 64.2198 92.7402 62.1298 95.7702C61.8398 96.1902 61.4698 96.5702 61.0798 96.9002C60.5798 97.3302 60.1398 97.2002 59.9298 96.5702C59.7998 96.1902 59.7498 95.7702 59.7198 95.3602C59.6598 94.7002 59.6398 94.0402 59.5898 93.2502V93.2602Z" fill="black"/>
<path d="M117.38 128.24C117.21 128.95 117.09 129.67 116.87 130.36C116.18 132.46 115.3 134.46 113.98 136.24C113.59 136.77 113.12 137.24 112.62 137.67C112.37 137.88 111.98 137.96 111.64 138.01C111.31 138.06 111.1 137.88 111.16 137.49C111.59 134.69 111.98 131.88 112.49 129.09C112.62 128.36 113.07 127.68 113.41 127C113.53 126.77 113.73 126.57 113.93 126.39C114.47 125.92 115.06 125.53 115.82 125.8C116.61 126.07 117.09 126.64 117.23 127.47C117.27 127.71 117.29 127.96 117.31 128.21C117.33 128.21 117.35 128.22 117.37 128.23L117.38 128.24Z" fill="black"/>
<path d="M41.4502 111.81C41.5402 111.34 41.5802 110.99 41.6802 110.68C42.3002 108.8 43.2902 107.14 44.7402 105.78C45.8902 104.69 47.0802 104.39 47.4802 106.55C47.5202 106.78 47.5702 107.01 47.6502 107.22C48.2302 108.77 47.7802 110.13 46.7602 111.29C45.7602 112.43 44.6702 113.49 43.5702 114.54C42.9102 115.17 42.4102 115.05 42.1102 114.22C41.8102 113.4 41.6502 112.54 41.4502 111.81Z" fill="black"/>
<path d="M80.96 134.18C81.08 131.68 81.89 130.01 83.46 128.72C83.57 128.63 83.69 128.55 83.81 128.47C85.24 127.57 86.43 128.04 86.87 129.67C87.09 130.51 87.13 131.28 86.63 132.07C85.87 133.28 85.25 134.57 84.5 135.79C84.15 136.36 83.69 136.88 83.19 137.34C82.58 137.9 81.97 137.79 81.71 137.02C81.34 135.95 81.13 134.83 80.97 134.17L80.96 134.18Z" fill="black"/>
<path d="M92.9104 147.26C93.1004 147.77 93.2504 148.29 93.4904 148.77C94.2304 150.23 94.2304 150.51 92.9704 151.55C92.1404 152.24 91.2104 152.83 90.2804 153.39C89.8704 153.63 89.3404 153.74 88.8604 153.79C88.1804 153.86 87.7404 153.31 87.8004 152.63C87.8304 152.3 87.8404 151.96 87.8204 151.62C87.7304 149.23 88.6904 147.35 90.6104 145.97C91.5204 145.31 92.3304 145.4 92.8204 146.15C93.0104 146.44 93.0404 146.84 93.1404 147.18L92.9204 147.26H92.9104Z" fill="black"/>
<path d="M130.1 113.93C130.37 111.54 131.38 109.56 133.39 108.19C134.4 107.5 135.42 107.72 136.08 108.73C136.29 109.05 136.44 109.58 136.33 109.92C136.05 110.83 135.68 111.73 135.22 112.56C134.53 113.8 133.64 114.89 132.53 115.8C132.22 116.06 131.86 116.28 131.49 116.45C130.98 116.69 130.54 116.51 130.41 115.96C130.26 115.3 130.2 114.62 130.1 113.94V113.93Z" fill="black"/>
<path d="M57.3604 129.24C57.4904 128.46 57.5903 127.44 57.8503 126.47C58.1603 125.31 59.0204 124.86 60.2004 125.07C61.3504 125.28 61.9504 125.99 61.9004 127.17C61.8104 129.07 61.3204 130.87 60.3404 132.51C60.1004 132.92 59.7703 133.3 59.4203 133.61C58.9003 134.06 58.4204 133.96 58.1104 133.34C57.9004 132.93 57.7304 132.48 57.6604 132.03C57.5304 131.18 57.4803 130.33 57.3703 129.23L57.3604 129.24Z" fill="black"/>
<path d="M70.1602 152.86C70.3502 150.84 70.9901 149.36 72.3801 148.26C73.2301 147.59 74.1602 147.59 75.1002 148.02C75.7502 148.32 76.0202 148.91 75.8502 149.67C75.7502 150.08 75.6102 150.5 75.4102 150.87C74.6102 152.31 73.5402 153.52 72.1702 154.45C71.6002 154.83 71.2301 154.83 70.8401 154.27C70.5001 153.78 70.3202 153.18 70.1702 152.85L70.1602 152.86Z" fill="black"/>
</svg>
