<svg width="175" height="155" viewBox="0 0 175 155" fill="none" xmlns="http://www.w3.org/2000/svg">
<path d="M88.3199 28.2103C86.9399 28.2703 85.6199 28.4003 84.2999 28.3703C83.3899 28.3503 82.4599 28.2203 81.5899 27.9803C79.7899 27.4703 79.1799 26.2103 79.7599 24.4203C80.1799 23.1203 80.9299 22.0103 81.7899 20.9803C84.5399 17.7203 87.7799 15.0403 91.5499 13.0303C91.6099 13.0003 91.6599 12.9603 91.7999 12.8703C91.5599 12.7603 91.3799 12.6803 91.2099 12.5903C90.5399 12.2303 89.8399 11.9303 89.2199 11.5003C87.3099 10.1603 86.7899 8.08032 87.8699 6.00032C89.0399 3.75032 90.9399 2.28032 93.3299 1.61032C94.9099 1.16032 96.5899 0.970318 98.2299 0.880318C101.72 0.680318 105.22 0.490318 108.71 0.550318C115.69 0.670318 122.55 1.67032 129.04 4.36032C132.96 5.99032 136.86 7.72032 140.52 9.89032C142.36 10.9803 143.95 12.3803 144.95 14.3403C145.05 14.5403 145.14 14.7403 145.14 15.0403C144.54 14.7403 143.92 14.4603 143.33 14.1403C142.56 13.7203 141.78 13.2903 141.04 12.8103C138.43 11.1103 135.49 10.1203 132.67 8.87032C128.65 7.09032 124.5 5.63032 120.16 4.84032C118.46 4.53032 116.74 4.35032 115.02 4.18032C112.23 3.90032 109.43 3.62032 106.63 3.46032C102.65 3.23032 98.6799 3.36032 94.8399 4.62032C94.0399 4.88032 93.2699 5.25032 92.4999 5.59032C91.6799 5.95032 91.0899 6.58032 90.6299 7.33032C90.0499 8.27032 90.2299 9.05032 91.2299 9.51032C91.9399 9.83032 92.7299 10.0503 93.4999 10.1603C95.7799 10.5003 98.0799 10.4303 100.37 10.3303C101.08 10.3003 101.78 10.2703 102.49 10.2903C103.51 10.3103 104.04 10.7803 104.25 11.7803C104.51 12.9703 104.3 13.2903 103.1 13.5703C102.86 13.6203 102.61 13.6803 102.37 13.6703C99.0799 13.4903 96.0799 14.5503 93.1299 15.8303C89.3899 17.4503 86.3699 20.0303 83.6099 22.9403C83.1399 23.4303 82.7599 24.0303 82.4599 24.6403C82.0699 25.4003 82.3399 25.8203 83.1799 25.9103C84.3699 26.0303 85.4999 25.7403 86.6099 25.4003C88.9299 24.6803 91.2299 23.8803 93.5599 23.1803C94.5099 22.8903 95.5199 22.7203 96.5099 22.6003C97.1999 22.5203 97.3099 22.6803 97.4899 23.3503C97.5899 23.7203 97.7099 24.0903 97.8399 24.4603C97.9699 24.8203 97.8699 25.0803 97.5499 25.2703C97.3799 25.3703 97.2099 25.4603 97.0399 25.5503C93.8999 27.0303 91.2899 29.1703 89.0499 31.8003C87.6799 33.4203 86.4299 35.0803 85.8399 37.1603C85.3199 38.9803 85.0099 40.8103 85.3699 42.7003C85.7599 44.7803 87.1499 45.7103 89.2199 45.2703C90.2699 45.0503 91.2299 44.6203 91.9999 43.8303C94.8599 40.8703 97.7099 37.9103 100.58 34.9503C101.64 33.8603 102.69 32.7703 103.77 31.7003C104.28 31.2003 104.69 31.2703 104.82 31.9403C105.01 32.9303 105.66 33.3503 106.48 33.6703C107.2 33.9503 107.57 34.4503 107.71 35.2303C108.31 38.5303 109.02 41.8003 109.59 45.1103C110.07 47.8903 110.4 50.7003 110.83 53.4903C111.27 56.3103 111.74 59.1303 112.21 61.9503C112.27 62.3103 112.37 62.6803 112.52 63.0103C112.79 63.6103 113.17 63.8003 113.76 63.5303C114.62 63.1403 115.46 62.6803 116.27 62.1803C117.73 61.2903 119.17 60.3603 120.61 59.4403C121.26 59.0303 121.91 58.8203 122.66 59.1603C123.31 59.4503 123.56 59.8403 123.47 60.5403C123.38 61.2003 123.55 61.7603 123.95 62.2703C125.63 64.4103 127.31 66.5503 128.99 68.6903C129.43 69.2403 130.04 69.3903 130.7 69.3603C132.78 69.2803 134.59 68.4303 136.28 67.2803C136.37 67.2203 136.45 67.1503 136.54 67.0903C138.1 66.0903 138.73 64.6003 138.72 62.8103C138.72 61.5403 138.62 60.2703 138.55 59.0103C138.52 58.4503 138.65 58.2303 139.21 58.1203C139.57 58.0503 139.95 58.0203 140.31 57.9503C140.82 57.8503 141.17 58.0703 141.27 58.5503C141.42 59.2903 141.56 60.0503 141.58 60.8003C141.7 65.4003 139.61 68.3903 135.19 70.0203C134.38 70.3203 133.54 70.5503 132.74 70.8703C132.35 71.0303 132.01 71.3303 131.65 71.5603C131.94 71.8803 132.17 72.2903 132.52 72.4903C133.58 73.1103 134.67 73.7003 135.79 74.2303C137.16 74.8803 138.54 75.5003 139.95 76.0703C140.56 76.3203 141.23 76.4603 141.89 76.5803C143.07 76.7903 144.02 76.3403 144.7 75.3803C145.2 74.6803 145.64 73.9303 146.07 73.1803C147.35 70.9603 148.67 68.7503 150.7 67.1103C151.39 66.5503 152.15 66.0203 152.95 65.6303C154.81 64.7203 156.28 65.2803 157.2 67.1403C157.36 67.4603 157.47 67.8003 157.61 68.1203C157.55 68.1603 157.5 68.2103 157.44 68.2503C157.23 68.1003 156.98 67.9703 156.8 67.7803C155.64 66.4903 154.33 66.5903 153.2 67.7303C152.11 68.8303 151.12 70.0403 150.25 71.3103C149.22 72.8103 148.39 74.4403 147.43 75.9703C147.06 76.5603 147.06 77.0403 147.49 77.5503C147.57 77.6403 147.61 77.7603 147.67 77.8703C147.61 77.9303 147.57 78.0003 147.51 78.0303C145.7 78.9303 144.82 80.5703 144.29 82.3703C143.69 84.4303 143.21 86.5403 142.84 88.6503C142.14 92.6103 141.41 96.5703 140.33 100.45C140.23 100.81 140.17 101.17 140.13 101.54C139.99 102.59 140.3 103.19 141.32 103.47C142.49 103.8 143.69 104.01 144.89 104.21C147.03 104.57 149.18 104.89 151.32 105.21C151.98 105.31 152.66 105.34 153.32 105.4C154.37 105.49 154.65 105.81 154.58 106.85C154.58 106.99 154.57 107.13 154.56 107.27C154.51 108.13 154.26 108.33 153.4 108.28C149.36 108.02 145.43 107.25 141.6 105.95C141.33 105.86 141.06 105.79 140.78 105.73C139.74 105.51 139.22 105.71 138.75 106.68C138.2 107.82 137.7 108.99 137.25 110.18C135.86 113.83 133.56 116.84 130.71 119.43C127.36 122.47 123.51 124.59 119.05 125.46C116.7 125.92 114.3 126.14 111.91 126.38C104.02 127.15 96.1099 127.18 88.1999 127.37C83.6899 127.48 79.2399 127.04 74.7899 126.45C69.9399 125.81 65.1099 125.05 60.1999 124.97C56.4699 124.91 52.7899 125.26 49.2199 126.39C48.9299 126.48 48.6499 126.57 48.3699 126.69C48.1999 126.76 48.0599 126.89 47.9099 126.99C48.0299 127.17 48.1199 127.43 48.2899 127.52C48.8899 127.84 49.4999 128.21 50.1599 128.36C52.4799 128.91 54.8099 129.36 57.1399 129.87C59.4799 130.38 61.8199 130.89 64.1499 131.47C64.8199 131.64 65.4499 132 66.0599 132.35C66.4099 132.55 66.7299 132.87 66.6099 133.35C66.4899 133.79 66.1299 133.98 65.6899 134.03C63.3299 134.31 60.9699 134.63 58.5999 134.85C55.8399 135.1 53.1899 135.63 50.7899 137.09C50.5899 137.21 50.3699 137.3 50.1999 137.44C49.9499 137.65 49.7399 137.89 49.5199 138.12C49.8399 138.27 50.1499 138.52 50.4899 138.55C52.0399 138.7 53.5899 138.74 55.1399 138.9C57.3799 139.14 59.6199 139.43 61.8599 139.74C62.6499 139.85 63.2999 140.3 63.8699 140.84C64.4399 141.39 64.4199 141.87 63.6899 142.2C62.9799 142.52 62.1999 142.77 61.4299 142.9C60.0199 143.14 58.5699 143.16 57.1799 143.46C55.9499 143.73 54.7799 144.24 53.5899 144.67C53.3799 144.74 53.1999 144.9 53.0099 145.04C52.1599 145.69 52.2099 146.3 53.1599 146.81C54.0699 147.29 55.0799 147.43 56.0799 147.45C57.4799 147.48 58.8299 147.69 60.1999 148.04C61.6899 148.43 63.2599 148.52 64.7999 148.74C67.8199 149.18 70.8399 149.63 73.8599 150.06C77.9499 150.64 82.0699 151.01 86.1999 151.19C92.5099 151.47 98.8099 151.43 105.12 151.27C109.99 151.15 114.87 150.94 119.74 150.77C122.69 150.67 125.64 150.61 128.58 150.43C133.45 150.12 138.29 149.58 142.92 147.91C144.97 147.17 146.96 146.26 148.61 144.81C150.98 142.73 152.43 140.04 153.28 137.02C153.56 136.04 153.73 135.02 154.03 134.05C154.19 133.54 154.51 133.08 154.82 132.63C155.08 132.26 155.46 132.03 155.96 132.08C156.08 132.09 156.23 132.11 156.33 132.05C156.89 131.69 157.18 132.05 157.51 132.42C158.49 133.51 158.68 134.76 158.32 136.13C158.18 136.66 158.03 137.2 157.76 137.67C156.6 139.68 155.5 141.76 154.16 143.65C152.15 146.5 149.26 148.29 146.12 149.68C142.53 151.27 138.76 152.21 134.9 152.86C131.22 153.48 127.52 153.92 123.79 154.03C117.75 154.22 111.71 154.32 105.67 154.46C98.2299 154.63 90.7999 154.31 83.3699 154.12C80.5099 154.05 77.6599 153.76 74.8099 153.56C72.9999 153.43 71.1699 153.39 69.3799 153.11C66.7499 152.7 64.1499 152.09 61.5299 151.63C59.2399 151.23 56.9299 150.92 54.6299 150.55C53.2299 150.32 51.9399 149.81 50.8399 148.9C48.8299 147.24 49.0899 144.66 51.3699 143.37C51.9199 143.06 52.5099 142.8 53.0499 142.48C53.3299 142.31 53.5699 142.06 53.8299 141.85C53.8099 141.79 53.7899 141.73 53.7599 141.66C53.4699 141.62 53.1899 141.6 52.8999 141.55C51.3699 141.3 49.8299 141.11 48.3199 140.76C47.6599 140.61 47.0099 140.23 46.4599 139.82C45.7899 139.32 45.6899 138.67 46.1899 138C46.7099 137.31 47.3299 136.65 48.0299 136.13C49.9099 134.73 52.0499 133.79 54.2199 132.94C54.4999 132.83 54.7799 132.72 55.1699 132.57C54.8599 132.42 54.6399 132.28 54.4099 132.21C52.5199 131.64 50.6199 131.09 48.7399 130.5C47.6999 130.17 46.6499 129.83 45.8799 128.98C45.6199 128.69 45.3699 128.39 45.1699 128.06C44.7199 127.31 44.7299 126.49 45.3399 125.86C45.8599 125.33 46.4699 124.83 47.1299 124.49C49.2499 123.39 51.5599 122.85 53.9199 122.57C57.7099 122.12 61.5099 122.21 65.2999 122.54C70.8899 123.02 76.4799 123.62 82.0699 124.11C84.2099 124.3 86.3699 124.37 88.5299 124.4C93.7099 124.46 98.8799 124.51 104.06 124.46C108.87 124.41 113.66 124.09 118.35 122.89C122.96 121.71 127.14 119.73 130.49 116.25C133.19 113.44 134.91 110.08 136.08 106.39C137.16 102.98 137.82 99.4803 138.43 95.9703C139.14 91.8703 139.75 87.7403 140.98 83.7503C141.35 82.5403 141.81 81.3503 142.24 80.1603C142.58 79.2403 142.43 79.0003 141.47 78.9803C139.17 78.9403 137.06 78.1703 134.9 77.4603C130.34 75.9703 127.13 72.8403 124.42 69.0703C123.21 67.3903 122.04 65.6903 120.86 64.0003C120.33 63.2403 120.12 63.0803 119.28 63.5003C118.04 64.1203 116.87 64.8803 115.66 65.5803C114.94 65.9903 114.24 66.4303 113.49 66.7803C112.6 67.1903 112.28 67.1003 111.62 66.4003C110.24 64.9603 109.49 63.1703 108.87 61.3203C107.84 58.3003 107.24 55.1803 106.75 52.0503C106.01 47.2703 105.33 42.4803 104.61 37.7003C104.42 36.4203 104.25 36.3503 103.22 37.1303C101.26 38.6103 99.6499 40.4503 97.9799 42.2203C96.5999 43.6903 95.1999 45.1403 93.4999 46.2503C91.4599 47.5803 89.2699 48.1803 86.8499 47.5903C86.4099 47.4803 85.9599 47.3003 85.6099 47.0403C83.7399 45.6303 82.7499 43.7303 82.5799 41.4003C82.5299 40.6403 82.7399 39.9403 83.1699 39.3003C83.2699 39.1503 83.3499 38.8903 83.2899 38.7403C82.9399 37.8103 83.0699 36.9003 83.3699 35.9903C83.9699 34.1803 85.0799 32.6703 86.1899 31.1703C86.8399 30.2903 87.4999 29.4203 88.1499 28.5403C88.2199 28.4503 88.2799 28.3403 88.3499 28.2303L88.3199 28.2103Z" fill="black"/>
<path d="M43.49 68.4804C43.29 68.9304 43.09 69.3904 42.89 69.8504C42.36 71.0704 41.78 72.2504 40.87 73.2504C38.58 75.7504 34.86 75.6604 32.69 73.0504C31.59 71.7204 30.95 70.1604 30.38 68.5604C30.05 67.6304 29.75 66.6904 29.3 65.7304C29.13 66.1404 28.92 66.5304 28.79 66.9504C28.49 67.9304 28.26 68.9304 27.93 69.8904C27.42 71.3804 26.59 71.9904 25.13 72.0404C24.33 72.0704 23.57 71.8604 22.93 71.3904C22.29 70.9204 21.68 70.4104 21.15 69.8304C19 67.4704 17.94 64.6104 17.33 61.5304C16.47 57.1904 16.18 52.8204 16.54 48.4104C16.65 47.0904 16.54 45.7604 16.6 44.4404C16.8 39.7204 17.69 35.1604 19.88 30.9204C21.67 27.4604 24.19 24.6104 27.26 22.2304C30.3 19.8804 33.72 18.2104 37.23 16.7004C42.18 14.5704 47.24 12.7704 52.49 11.5104C58.61 10.0504 64.7999 9.32044 71.09 9.78044C74.0299 10.0004 76.95 10.4204 79.87 10.8104C81.04 10.9704 82.0799 11.5104 82.95 12.3404C83.11 12.5004 83.25 12.6704 83.45 12.8904C83.2899 12.9304 83.2 12.9904 83.11 12.9804C77.7 12.5604 72.29 12.3004 66.86 12.3904C55.22 12.5904 44.25 15.4004 33.96 20.8604C30.47 22.7104 27.33 25.0504 24.86 28.1804C22.46 31.2304 21.09 34.7304 20.3 38.4904C19.45 42.5604 19.3 46.6904 19.13 50.8204C19.08 51.9804 18.91 53.1604 19.03 54.3104C19.22 56.2204 19.61 58.1104 19.91 60.0104C20.11 61.2804 20.24 62.5704 20.52 63.8204C21.07 66.2004 22.29 68.1904 24.18 69.7504C24.82 70.2804 25.25 70.2804 25.57 69.5404C26.03 68.4904 26.44 67.3704 26.62 66.2404C27.09 63.3304 27.45 60.4004 27.8 57.4804C27.99 55.8904 28.07 54.2804 28.24 52.6904C28.32 51.9004 28.75 51.3104 29.49 50.9804C30.37 50.6004 31.1 50.9004 31.33 51.8404C31.52 52.6104 31.64 53.4004 31.71 54.1904C31.98 57.0604 32.21 59.9304 32.47 62.7904C32.69 65.2404 32.98 67.6904 34.29 69.8504C34.67 70.4804 35.12 71.0804 35.63 71.6204C36.64 72.7004 37.98 72.6404 38.96 71.5504C39.72 70.7004 40.1 69.6504 40.41 68.5804C41.13 66.0904 41.44 63.5304 41.57 60.9504C41.67 59.1304 41.67 57.3104 41.81 55.5004C41.85 54.9104 42.11 54.3004 42.4 53.7704C42.85 52.9604 43.59 52.9204 44.23 53.6104C44.99 54.4304 45.22 55.4804 45.28 56.5404C45.45 59.1304 45.55 61.7304 45.71 64.3204C45.82 66.0904 46.18 67.8204 46.99 69.4204C47.63 70.6904 48.56 71.7204 49.7 72.5504C50.94 73.4504 51.62 72.8904 51.93 71.6804C52.07 71.1404 52.16 70.5604 52.16 70.0004C52.14 64.5104 52.1 59.0104 52.06 53.5204C52.05 51.8104 51.9 50.0904 51.98 48.3904C52.08 46.2304 53.05 44.5004 54.87 43.2304C59.46 40.0004 64.49 37.8204 70 36.8104C72.08 36.4304 74.2 36.2804 76.3 36.0404C76.91 35.9704 77.45 36.2004 77.91 36.5904C78.27 36.8904 78.29 37.2304 77.94 37.5404C77.65 37.7904 77.31 38.0004 76.97 38.1604C75.83 38.6704 74.6399 38.9504 73.38 38.9104C69.62 38.8104 66.24 39.9904 63.08 41.9504C62.68 42.2004 62.15 42.2304 61.69 42.3704C61.21 42.5104 60.68 42.5904 60.26 42.8404C59.16 43.4804 58.1 44.1804 57.05 44.8904C55.56 45.8804 54.94 47.2104 55.01 49.0704C55.2 54.9504 55.25 60.8304 55.36 66.7204C55.39 68.4604 55.36 70.1804 54.86 71.8704C54.59 72.8104 54.22 73.7104 53.53 74.4304C52.62 75.3704 51.57 75.5604 50.29 75.2504C47.09 74.4704 45.41 72.1504 44.06 69.4304C43.91 69.1304 43.75 68.8404 43.6 68.5504C43.6 68.5404 43.57 68.5504 43.5 68.5204L43.49 68.4804Z" fill="black"/>
<path d="M128.22 45.08C127.12 45.17 126.12 44.85 125.21 44.27C123.24 43.02 121.85 41.27 120.92 39.15C120.8 38.87 120.73 38.54 120.7 38.23C120.67 37.87 120.89 37.72 121.2 37.91C121.58 38.13 121.97 38.37 122.27 38.68C123.14 39.6 123.98 40.56 124.81 41.52C126.08 43 128.51 43.51 130.27 42.64C131.58 41.99 132.07 40.79 131.67 39.19C131.44 38.27 130.89 37.55 130.33 36.82C129.95 36.34 129.62 35.82 129.32 35.28C129.13 34.94 129.04 34.52 129.38 34.2C129.75 33.86 130.21 33.77 130.66 33.99C131 34.16 131.36 34.36 131.61 34.64C133.41 36.62 134.24 38.93 133.82 41.6C133.53 43.43 131.91 44.73 129.81 44.94C129.28 44.99 128.75 45.03 128.23 45.08H128.22Z" fill="black"/>
</svg>
