<svg width="175" height="155" viewBox="0 0 175 155" fill="none" xmlns="http://www.w3.org/2000/svg">
<g clip-path="url(#clip0_444_4458)">
<path d="M116.43 94.3594C123.46 91.0594 124.94 90.8294 130.02 97.0094C138.65 107.499 146.59 118.569 154.81 129.389C155.03 129.679 155.1 130.099 155.34 130.359C157.86 133.139 160.95 135.369 160.49 140.049C160.35 141.509 162.82 143.529 164.46 144.809C166.9 146.709 167.28 148.689 165.09 150.989C161.87 154.379 152.48 156.179 148.27 154.099C147.44 153.689 146.7 152.889 146.16 152.099C136.36 137.819 126.6 123.509 116.81 109.219C115.62 107.489 114.09 105.939 113.18 104.079C112.49 102.669 112.6 100.889 112.22 99.2994C111.89 97.8894 111.73 96.2094 110.84 95.2594C110.28 94.6594 108.33 94.7794 107.33 95.2594C94.8096 101.219 82.0896 101.529 69.0596 97.1194C48.2596 90.0794 38.5496 63.4294 49.7596 43.9494C59.6796 26.7294 80.7796 18.1994 99.9396 23.4494C117.42 28.2394 132.83 48.6794 124.67 71.4294C122.54 77.3794 118.91 82.8494 115.6 88.3194C113.71 91.4494 113.4 91.4294 116.41 94.3294L116.43 94.3594ZM85.3496 26.7994C73.0296 27.6994 60.5796 33.8194 52.0996 47.1194C41.5796 63.6194 50.6096 86.8394 66.9396 92.9794C71.4096 94.6594 76.1596 96.0594 80.8896 96.5294C105.95 99.0494 124.22 81.8494 121.8 54.3694C120.46 39.1594 104.6 26.7694 85.3396 26.7994H85.3496ZM138.29 134.019C141.22 131.499 144.19 128.999 147.06 126.399C147.46 126.029 147.64 125.039 147.47 124.469C146.19 120.289 142.89 119.599 139.93 122.819C139.35 123.459 138.8 124.129 138.19 124.739C134.12 128.899 134.12 129.579 138.29 134.019ZM136.12 110.279C133.78 108.209 131.9 105.299 130.28 105.439C128.16 105.619 125.5 107.839 124.5 109.889C123.82 111.289 125.58 113.879 126.37 116.289C129.83 114.159 132.51 112.509 136.12 110.279ZM147.39 147.029C150.91 145.789 154.43 144.549 158.76 143.019C157.37 141.149 156.53 138.869 154.98 138.169C152.03 136.849 146.48 143.529 147.39 147.029ZM141.09 116.249C139.55 115.209 137.49 113.269 137.03 113.599C134.6 115.319 132.33 117.419 130.57 119.809C130.04 120.529 131.31 122.589 131.89 124.479C135.2 121.519 137.81 119.179 141.09 116.249ZM127.71 101.029C125.59 99.5094 123.85 97.2894 122.07 97.2494C120.4 97.2194 118.69 99.4994 116.74 100.959C118.23 102.799 119.57 104.459 121.01 106.239C122.91 104.949 124.44 103.949 125.93 102.879C126.41 102.539 126.77 102.029 127.71 101.029ZM152.67 133.039C151.07 128.899 150.45 128.619 147.8 130.929C145.87 132.619 143.94 134.419 142.47 136.499C141.78 137.479 142.18 139.219 142.08 140.619C142.51 140.739 142.94 140.859 143.38 140.979C144.87 136.379 148.25 133.979 152.67 133.049V133.039Z" fill="black"/>
<path d="M27.4601 104.45C27.1401 103.3 26.3201 102.06 26.6601 101.35C29.3101 95.6997 33.5801 91.5297 39.1801 88.7997C39.7801 88.5097 40.9001 88.7997 41.5101 89.2197C41.8201 89.4297 41.8201 90.7897 41.4701 91.1697C37.6201 95.3097 33.6901 99.3697 29.7301 103.41C29.3301 103.82 28.6301 103.93 27.4701 104.44L27.4601 104.45Z" fill="black"/>
<path d="M30.7299 62.09C24.1299 67.33 17.0999 69.61 9.41992 71.37C10.3999 66.07 25.0399 59.63 30.7299 62.09Z" fill="black"/>
<path d="M123.71 27.5795C123.71 22.2395 133.02 14.4195 140.62 13.0195C136.6 19.9695 131.83 25.2895 123.71 27.5795Z" fill="black"/>
<path d="M98.5696 122.849C93.5396 119.749 92.4896 110.969 96.1496 107.599C97.9396 105.949 99.1696 106.879 99.7396 108.649C101.27 113.389 100.55 117.969 98.5696 122.859V122.849Z" fill="black"/>
<path d="M13.9201 29.2995C15.3601 29.1095 17.0901 28.2995 18.1801 28.8295C22.1501 30.7495 26.0001 32.9695 29.6701 35.4195C30.5001 35.9795 30.3901 37.9495 30.7201 39.2695C29.4901 39.0495 28.1001 39.1295 27.0701 38.5495C22.6101 36.0195 18.2601 33.2995 13.8701 30.6495C13.8901 30.1995 13.9101 29.7495 13.9301 29.2995H13.9201Z" fill="black"/>
<path d="M55.7702 120.519C54.8802 116.799 58.3902 108.749 61.6402 107.639C62.2902 107.419 64.0102 108.349 64.2002 109.029C65.1302 112.429 59.5202 119.869 55.7802 120.519H55.7702Z" fill="black"/>
<path d="M54.2801 26.0596C51.9901 25.1796 49.8801 24.9996 48.9201 23.8496C47.4101 22.0496 46.3901 19.6896 45.7301 17.3996C45.4201 16.3296 46.4501 14.8796 46.8701 13.5996C48.1301 14.3796 49.9701 14.8696 50.5401 15.9896C51.9501 18.7796 52.7801 21.8496 54.2801 26.0496V26.0596Z" fill="black"/>
<path d="M78.9497 15.3598C75.1297 11.7898 73.6697 7.61982 73.3497 3.03982C73.2197 1.14982 74.3897 0.319823 76.2197 1.63982C78.9297 3.59982 80.7997 11.6198 78.9497 15.3598Z" fill="black"/>
<path d="M140.22 76.6302C143.91 73.1202 150.26 74.1402 154.28 78.8702C150.17 80.4802 142.48 79.2502 140.22 76.6302Z" fill="black"/>
<path d="M154.38 51.0796C150.28 51.4696 146.11 54.6096 142.08 50.7696C146.18 48.9196 150.28 49.5396 154.38 51.0796Z" fill="black"/>
<path d="M104.52 13.7502C104.9 11.0602 105.17 8.35023 105.76 5.71023C105.9 5.09023 107.14 4.73023 107.87 4.24023C108.23 4.96023 109.02 5.78023 108.88 6.38023C108.25 9.01023 107.36 11.5802 106.56 14.1702C105.88 14.0302 105.2 13.8902 104.52 13.7502Z" fill="black"/>
<path d="M99.1303 30.2595C99.4403 32.0495 99.5004 33.9395 100.16 35.5895C100.56 36.5995 101.78 37.6395 102.84 37.9395C104.75 38.4795 106.81 38.4595 108.45 38.6395C108.23 41.6595 108.06 44.0095 107.9 46.3695C107.51 52.0795 105.08 56.8795 101.05 60.7995C91.5004 70.0795 79.8804 74.2195 66.6804 73.9995C65.7704 73.9795 64.0404 72.2395 64.1404 71.4795C64.6404 67.5695 64.4004 64.5695 59.3604 64.6694C59.1404 64.6694 58.9104 64.1295 58.1104 63.0895C59.8004 62.5895 61.1704 61.7995 62.5004 61.8595C66.2904 62.0095 65.8104 58.8195 66.7504 56.7895C67.8004 54.5295 65.9503 53.8795 64.5303 52.8495C63.5403 52.1295 62.9204 50.8995 62.1304 49.8895C63.4604 50.1095 64.8204 50.2395 66.1104 50.5995C66.9004 50.8195 67.5804 51.4095 68.9304 52.1995C69.7404 51.1395 70.3804 49.8195 71.4304 49.0395C74.0104 47.1195 74.5803 45.1995 72.5203 42.4895C72.0003 41.8095 72.4004 40.4295 72.3704 39.3695C73.2704 39.7295 74.5003 39.8295 74.9903 40.4895C76.3103 42.2495 77.2803 44.1195 79.9604 42.4295C82.3004 40.9495 84.9604 39.8095 82.9004 36.2395C82.5704 35.6695 82.7003 34.8295 83.3803 33.2695C84.4403 34.1795 85.8004 34.8995 86.5004 36.0395C87.8204 38.1895 94.8504 39.2195 96.3604 37.1695C96.7704 36.6195 96.4703 35.5795 96.5603 34.7695C96.7403 33.2395 96.9704 31.7195 97.1804 30.1895C97.8304 30.2195 98.4804 30.2395 99.1204 30.2695L99.1303 30.2595ZM95.2803 60.1695C100.24 56.8695 103.62 52.1895 104.3 45.7195C104.53 43.5495 103.88 42.2495 101.59 41.7395C95.6603 40.3995 90.2404 41.8795 85.2604 43.9795C88.6204 49.3995 91.8104 54.5695 95.2904 60.1795L95.2803 60.1695ZM74.6703 50.5495C73.2903 52.1595 71.6804 53.3395 71.0404 54.9195C69.3804 59.0195 68.1903 63.3095 66.7403 67.4995C65.7403 70.3995 67.2204 71.2794 69.6504 70.8094C74.4504 69.8794 79.1903 68.6694 83.8503 67.5994C80.6404 61.6395 77.8004 56.3695 74.6804 50.5495H74.6703Z" fill="black"/>
</g>
<defs>
<clipPath id="clip0_444_4458">
<rect width="175" height="155" fill="white"/>
</clipPath>
</defs>
</svg>
