<svg width="175" height="155" viewBox="0 0 175 155" fill="none" xmlns="http://www.w3.org/2000/svg">
<g clip-path="url(#clip0_444_4520)">
<path d="M173.879 80.7798C173.399 79.3298 172.319 78.4198 170.869 77.9098C169.519 77.4398 168.169 76.9498 166.859 76.3798C166.279 76.1198 165.729 75.6898 165.279 75.2298C164.289 74.2198 163.439 73.0798 162.429 72.0898C160.029 69.7498 157.079 69.1698 153.859 69.6598C151.449 70.0298 149.219 70.9098 147.059 72.0198C146.639 72.2298 146.169 72.3798 145.709 72.4598C141.259 73.2198 137.109 74.7498 133.369 77.2798C128.289 80.7298 124.919 85.2698 124.219 91.5698C123.779 95.5098 125.109 98.5198 128.429 100.65C130.259 101.82 132.289 102.43 134.459 102.5C135.019 102.52 135.379 102.75 135.559 103.24C135.709 103.67 135.869 104.12 135.909 104.57C136.139 107.32 137.509 109.59 139.019 111.76C140.769 114.27 143.399 115.11 146.929 115.13C147.509 115.04 148.669 114.96 149.779 114.68C155.699 113.15 160.499 109.92 164.139 105.02C165.379 103.35 166.219 101.48 166.489 99.3798C166.629 98.2898 166.909 97.9798 167.969 97.7298C168.089 97.6998 168.209 97.6898 168.329 97.6498C171.209 96.8598 172.979 94.8898 174.029 92.2098C175.529 88.3798 175.149 84.5498 173.889 80.7498L173.879 80.7798ZM171.689 90.4798C171.089 92.3498 170.029 93.8798 168.229 94.8098C166.939 95.4798 166.049 95.3698 164.999 94.3398C164.409 93.7598 163.929 93.0498 163.329 92.4798C162.729 91.9198 162.069 91.3998 161.359 90.9798C160.709 90.5898 160.009 90.7698 159.429 91.2398C158.839 91.7098 158.539 92.3298 158.669 93.1098C158.899 94.5298 159.659 95.6098 160.869 96.3398C161.609 96.7898 162.399 97.1598 163.179 97.5398C164.049 97.9698 164.359 98.5198 164.169 99.4798C163.839 101.14 162.989 102.55 161.979 103.87C160.279 106.1 158.129 107.82 155.649 109.06C153.359 110.21 151.009 111.28 148.599 112.14C145.119 113.39 141.459 111.88 139.569 108.61C138.739 107.18 138.329 105.64 138.309 103.99C138.309 103.27 138.569 102.72 139.129 102.29C139.579 101.95 140.059 101.63 140.489 101.26C141.459 100.44 141.489 98.6598 140.559 97.7798C140.159 97.4098 139.679 97.3298 139.169 97.4298C138.459 97.5698 137.789 97.8598 137.349 98.4498C136.469 99.6298 135.309 99.8098 133.979 99.4998C132.959 99.2598 131.939 99.0498 130.929 98.7698C128.899 98.1898 127.909 96.7098 127.579 94.7198C126.969 91.0498 127.869 87.6998 129.929 84.6698C132.599 80.7398 136.309 78.0598 140.529 76.0398C140.589 76.0098 140.659 75.9998 140.849 75.9598C140.429 77.5498 139.939 79.0498 139.969 80.6898C140.649 80.6198 140.859 80.1098 141.079 79.6798C141.689 78.4498 142.579 77.4798 143.689 76.7098C144.339 76.2598 145.029 75.8298 145.749 75.5098C147.589 74.6898 149.439 73.8798 151.329 73.1698C153.489 72.3598 155.729 72.0698 158.019 72.5898C159.719 72.9798 161.069 73.8998 162.069 75.3198C162.209 75.5198 162.279 75.7798 162.419 76.0898C162.079 76.1498 161.839 76.1798 161.609 76.2298C161.279 76.2998 160.939 76.3298 160.629 76.4498C159.689 76.8098 159.289 77.6298 159.669 78.5498C160.439 80.4298 161.889 81.5398 163.849 81.9698C164.399 82.0898 164.859 81.8498 165.229 81.4498C165.609 81.0498 165.959 80.6198 166.319 80.2098C166.809 79.6598 167.379 79.3998 168.129 79.6298C168.469 79.7298 168.819 79.7798 169.159 79.8798C170.699 80.2998 171.649 81.2098 171.939 82.8598C172.379 85.4298 172.479 87.9798 171.679 90.4898L171.689 90.4798Z" fill="black"/>
<path d="M93.7598 80.8596C93.2598 80.2696 92.8798 80.3096 92.5398 81.0196C92.2798 81.5596 92.0698 82.1396 91.9698 82.7196C91.5698 84.9396 91.2098 87.1796 90.8398 89.4096C90.6298 90.6596 90.2198 91.8296 89.2398 92.6996C88.6498 93.2296 88.2598 93.2196 87.7698 92.5996C87.4398 92.1896 87.1098 91.7096 86.9798 91.2096C86.3998 88.9196 85.8698 86.6196 85.3598 84.3196C85.2398 83.7896 85.1398 83.2796 84.5298 83.2596C83.9598 83.2396 83.8598 83.7896 83.7298 84.2296C83.7198 84.2696 83.7198 84.3096 83.7098 84.3496C83.4198 86.8596 83.7498 89.3196 84.4398 91.7296C84.7898 92.9596 85.3398 94.0996 86.3098 94.9796C87.1698 95.7596 88.1798 96.0196 89.3098 95.7196C90.7298 95.3496 91.7498 94.4096 92.5798 93.2696C94.3598 90.8396 95.0798 88.0596 95.0698 85.0796C95.0698 84.7496 95.0698 84.4196 95.0698 84.0796C95.0498 82.8396 94.5398 81.7896 93.7598 80.8596Z" fill="black"/>
<path d="M23.5296 44.9096C23.9696 44.3596 24.3896 43.7896 24.7996 43.2196C24.4496 44.3696 24.1096 45.5296 23.7596 46.6796C22.8396 49.7496 21.3396 53.2196 22.2296 56.4696C22.9796 59.2296 26.0296 60.4996 28.3696 58.6296C31.1396 56.4196 31.6996 51.8996 32.3696 48.6796C32.9596 45.7896 33.3696 42.8696 33.6096 39.9396C34.5496 42.3396 35.6896 44.6596 37.0396 46.8596C38.2396 48.8196 39.5996 50.6896 41.0896 52.4496C42.4896 54.0996 44.0096 56.0296 46.2496 56.4696C50.1196 57.2396 52.2196 53.5996 52.5096 50.2496C52.8396 46.4596 51.2096 42.3796 49.0096 39.3796C47.9196 37.8996 46.6396 36.5796 45.2096 35.4596C46.7996 35.6696 48.3996 35.8296 49.9996 35.9596C52.1996 36.1296 54.4096 36.2296 56.6196 36.1596C58.3096 36.1096 60.5096 36.1896 62.0196 35.3196C65.0696 33.5596 64.3796 29.3296 61.3996 27.9996C58.1196 26.5396 54.5096 25.7796 50.9396 25.4396C51.3696 25.3096 51.8096 25.1896 52.2396 25.0596C55.5096 24.1096 60.1696 23.2596 61.7796 19.7796C62.4096 18.4196 62.1996 16.8196 61.2296 15.6696C60.2396 14.4996 58.6896 14.0896 57.2196 14.0396C55.3696 13.9696 53.4996 14.4696 51.7396 14.9696C49.7896 15.5196 47.8796 16.2296 46.0296 17.0496C45.3596 17.3496 44.6996 17.6696 44.0396 17.9996C44.8696 17.1396 45.6996 16.2796 46.5296 15.4196C49.1996 12.6596 53.1696 9.53962 53.5296 5.39962C53.6696 3.76962 52.9796 2.20962 51.5596 1.33962C50.0896 0.439624 48.3596 0.699624 46.8896 1.43962C45.2196 2.27962 43.8596 3.68962 42.7696 5.17962C41.3896 7.06962 40.1196 9.06962 38.9096 11.0696C37.9196 12.7096 36.9696 14.3696 36.0696 16.0596C36.1696 15.2196 36.2596 14.3796 36.3096 13.5396C36.4496 11.4396 36.4496 9.32962 36.3096 7.22962C36.2396 6.20962 36.1296 5.18962 35.9996 4.16962C35.8896 3.30962 35.8496 2.39962 35.3296 1.65962C34.5896 0.609624 33.0896 0.219624 31.9396 0.789624C30.6096 1.44962 29.7396 3.24962 29.0496 4.49962C27.7496 6.83962 26.8596 9.37962 26.3696 11.9996C25.0796 8.96962 23.3896 5.59962 20.5396 3.97962C17.3396 2.15962 14.3196 4.32962 14.0896 7.77962C13.8596 11.1496 15.2596 14.8396 16.8396 17.7596C18.1996 20.2896 20.0096 22.5296 22.1496 24.4196C18.7196 24.3796 15.2896 24.6496 11.8996 25.2096C9.66963 25.5796 7.41963 26.0496 5.26963 26.7496C3.79963 27.2196 2.28963 27.9396 1.24963 29.1096C-0.950371 31.5796 0.429629 34.7696 3.34963 35.7196C6.49963 36.7496 10.3296 35.8196 13.4496 35.0896C16.0896 34.4796 18.6396 33.5596 21.1796 32.6096C18.9996 35.1496 16.8296 37.6896 14.6496 40.2296C13.1496 41.9796 11.5596 43.6896 10.1496 45.5196C9.16963 46.7996 8.24963 48.3796 8.24963 50.0496C8.24963 51.5896 9.26963 53.0396 10.7696 53.4896C12.3196 53.9496 13.9996 53.3696 15.3596 52.5996C18.5296 50.7896 21.2996 47.7396 23.5496 44.9196L23.5296 44.9096ZM30.2496 48.0996C29.8996 49.8196 28.6396 58.6596 25.3196 57.2496C24.1096 56.7296 24.1296 54.8496 24.1896 53.7796C24.3096 51.8796 25.0496 50.0196 25.5996 48.2096C27.0396 43.3796 28.4896 38.5596 29.9296 33.7296C29.9296 33.6996 29.9496 33.6696 29.9496 33.6396C30.4496 33.6596 30.9396 33.5896 31.4096 33.4596C31.4896 33.4996 31.5796 33.5296 31.6696 33.5596C31.6796 38.4496 31.2296 43.3196 30.2496 48.1096V48.0996ZM27.6796 28.9596C27.7296 30.3296 28.5996 31.2696 29.6596 31.6796C29.7496 31.8496 29.8496 32.0196 29.9596 32.1896C29.4296 32.1696 28.9196 32.0196 28.4596 31.7096C27.3896 30.9896 27.2896 29.9396 27.6796 28.9596ZM31.5396 31.8796C31.5396 31.8796 31.5196 31.8596 31.5096 31.8496C31.5596 31.8396 31.6196 31.8296 31.6696 31.8096C31.6296 31.8296 31.5796 31.8496 31.5396 31.8696V31.8796ZM31.0596 29.0396C31.0096 29.2596 30.9496 29.4396 30.8696 29.5696C30.7796 29.5096 30.6996 29.4296 30.6296 29.3496C30.6296 29.2596 30.6496 29.1596 30.6696 29.0796C30.8096 28.5396 31.1996 28.0896 31.7796 28.0496C31.8996 28.0496 32.0196 28.0496 32.1096 28.0796C32.1396 28.1396 32.1596 28.2096 32.1796 28.2796C31.6596 27.9296 30.7796 28.3196 31.0496 29.0296L31.0596 29.0396ZM54.2396 16.5796C55.5396 16.2796 56.9396 16.0196 58.2596 16.3696C59.5096 16.6896 60.3796 17.7896 59.6796 19.0396C58.9996 20.2496 57.4896 21.0396 56.2496 21.5396C54.4696 22.2596 52.5496 22.6696 50.7096 23.2096C48.1196 23.9596 45.5196 24.7196 42.9296 25.4696C40.7496 25.7596 38.6296 26.3296 36.6796 27.3196C35.5596 27.8896 36.3396 29.6696 37.5296 29.3296C39.4796 28.7696 41.4196 28.1996 43.3696 27.6396C44.7096 27.4796 46.0696 27.4296 47.3896 27.4396C50.9096 27.4696 54.4496 27.9796 57.8196 29.0196C58.9596 29.3696 60.9996 29.7596 61.6196 30.8996C62.2196 31.9896 61.5596 33.2896 60.4196 33.6196C58.9096 34.0496 57.1096 33.9796 55.5596 33.9996C53.6996 34.0196 51.8396 33.9296 49.9896 33.7796C45.9596 33.4596 41.9496 32.8796 37.9996 32.0096C36.6196 31.7096 36.0396 33.8096 37.4196 34.1296C44.0096 35.6396 49.3796 41.3796 50.2496 48.1296C50.5396 50.3996 49.9596 55.0596 46.6396 54.3396C44.7996 53.9396 43.3796 51.8296 42.2496 50.4596C40.9896 48.9296 39.8496 47.2996 38.8296 45.6096C36.5096 41.7796 34.8496 37.6196 33.8296 33.2696C33.8196 33.2196 33.7996 33.1796 33.7896 33.1396C34.7796 32.2796 35.1296 30.5996 35.3296 29.4296C35.4796 28.5496 35.4696 27.5896 35.1896 26.7396C35.4396 26.7396 35.6996 26.6496 35.9296 26.4296C41.0496 21.5996 47.3896 18.1796 54.2496 16.6196L54.2396 16.5796ZM38.9896 15.2296C39.9696 13.4896 40.9896 11.7796 42.0696 10.0996C43.0896 8.50962 44.0996 6.78962 45.3796 5.38962C46.3496 4.31962 47.7296 3.04962 49.2496 2.94962C50.9496 2.83962 51.5796 4.45962 51.2096 5.87962C50.8096 7.42962 49.7896 8.81962 48.7096 9.96962C47.3196 11.4596 45.8696 12.9096 44.4596 14.3796C41.0896 17.8696 37.7296 21.3596 34.3596 24.8496C34.2596 24.9596 34.1796 25.0696 34.1296 25.1896C34.1196 25.1896 34.1096 25.1696 34.0996 25.1596C35.5496 21.7696 37.1796 18.4596 38.9896 15.2396V15.2296ZM31.8996 4.00962C32.1596 3.62962 32.7796 2.32962 33.4196 2.80962C33.9896 3.23962 33.8896 4.94962 33.9596 5.64962C34.1896 7.88962 34.2596 10.1496 34.1596 12.3996C33.9796 16.5096 33.2096 20.5596 31.9396 24.4696C31.2496 24.4696 30.5496 24.6196 29.9096 24.8696C29.5696 22.0496 28.9796 19.2796 28.1196 16.5896C28.1196 12.1496 29.4296 7.69962 31.8996 3.99962V4.00962ZM17.2496 48.3596C15.9096 49.5496 14.3996 50.9996 12.5896 51.3796C11.6996 51.5696 10.7096 51.3996 10.4596 50.3796C10.2596 49.5896 10.7396 48.6396 11.1096 47.9796C12.2896 45.9096 14.1596 44.1496 15.6996 42.3396C18.9796 38.5196 22.2496 34.6996 25.5296 30.8696C26.1796 30.1196 25.5796 28.6296 24.4596 29.0396C20.8396 30.3596 17.2596 31.8796 13.5096 32.8196C11.4996 33.3196 9.43963 33.7096 7.37963 33.8896C5.98963 34.0096 4.09963 34.0596 2.94963 33.1196C1.38963 31.8396 2.97963 30.2396 4.22963 29.5496C6.14963 28.4896 8.51963 28.0996 10.6396 27.6696C15.5496 26.6796 20.5596 26.3996 25.5496 26.7596C26.6996 26.8396 26.9496 25.2696 26.0996 24.7096C22.9496 22.6496 20.3796 19.8096 18.6196 16.4896C17.7396 14.8296 17.0896 13.0696 16.6596 11.2496C16.3196 9.78962 15.7996 7.61962 16.7096 6.24962C17.9396 4.38962 20.1696 6.23962 21.1496 7.34962C22.5096 8.90962 23.4496 10.9496 24.3096 12.8196C24.9196 14.1496 25.4596 15.5296 25.9296 16.9196C25.9796 20.0796 26.6596 23.1796 27.9296 26.0996C25.8696 28.0296 25.2096 31.5596 27.8496 33.0596C27.8396 33.0896 27.8196 33.1196 27.8096 33.1496C26.3196 36.9996 24.2196 40.6396 21.5996 43.8296C20.2696 45.4496 18.8196 46.9696 17.2496 48.3596Z" fill="black"/>
<path d="M78.7794 109.35C77.5394 104.55 76.9094 99.6598 76.4694 94.7398C76.2494 92.2598 75.9694 89.7898 75.6194 87.3198C75.4194 85.9098 74.5094 85.4598 73.1594 85.8898C72.6694 86.0498 72.3694 86.3398 72.3794 86.8798C72.3994 89.4898 72.2794 92.1198 72.4794 94.7198C72.8694 99.9298 74.0194 105.01 75.4594 110.02C75.7894 111.15 75.3294 111.9 74.1494 112.1C73.7494 112.17 73.3194 112.21 72.9094 112.15C71.4294 111.94 69.9594 111.71 68.4994 111.43C66.8594 111.11 65.2394 110.96 63.7094 111.81C63.3194 112.03 62.7794 112.41 62.7594 112.74C62.7394 113.07 63.2194 113.56 63.5994 113.76C65.7594 114.95 68.1094 115.48 70.3594 115.67C72.6094 115.48 74.6594 115.34 76.5794 114.51C78.5694 113.66 79.2694 112.4 78.9894 110.26C78.9494 109.95 78.8694 109.65 78.7894 109.35H78.7794Z" fill="black"/>
<path d="M72.2992 125.33C69.5992 127.55 66.3192 129.93 62.6292 128.77C58.6692 127.53 56.7692 123.39 55.2992 119.86C54.2592 117.38 51.1592 118.42 52.2092 120.95C54.1492 125.59 56.5992 130.46 61.4892 132.55C66.3292 134.62 70.8092 132.05 74.5192 129C76.1292 127.68 74.0992 123.85 72.2992 125.32V125.33Z" fill="black"/>
<path d="M115.999 75.47C115.979 72.64 115.659 69.84 115.089 67.06C113.649 60.1 110.919 53.66 107.169 47.64C106.809 47.07 106.349 46.53 105.839 46.1C100.009 41.23 93.2894 39.63 85.8694 40.77C81.1594 41.49 76.7794 43.17 72.6194 45.43C67.8294 48.03 63.3294 51.07 59.1694 54.61C55.5394 57.69 51.9494 60.84 48.9694 64.56C44.9694 69.55 41.5194 74.95 38.2394 80.44C33.6894 88.07 29.5994 95.95 25.8694 104.01C23.2994 109.57 20.7094 115.12 18.3594 120.78C18.4394 120.83 18.5194 120.89 18.5994 120.94C16.5594 124.5 14.7394 128.46 15.8894 132.64C16.0394 133.18 16.2394 133.68 16.4694 134.15C17.0394 136 18.9394 137.58 20.6994 138.4C23.2594 139.59 25.9994 140.13 28.7894 140.46C31.4194 140.77 34.0594 140.78 36.6894 140.5C36.7094 140.5 36.7294 140.5 36.7594 140.5C37.1494 141.44 37.5794 142.36 38.0494 143.27C39.3494 145.64 41.6794 148.95 45.3294 150.79C46.6094 151.44 47.6394 152.06 48.4794 152.64C50.6994 153.79 53.0494 154.56 55.6394 154.53C56.7594 154.52 57.8694 154.33 58.9794 154.26C60.1994 154.18 61.4294 154.19 62.6494 154.07C65.7794 153.76 68.6994 152.7 71.6294 151.64C71.6294 151.64 77.1994 148.4 81.8294 146.49C82.4194 147.43 83.2794 148.24 84.2794 148.8C86.7794 150.2 89.6194 150.91 92.4294 151.27C95.5994 151.67 98.7894 151.44 101.919 150.85C102.359 150.77 102.729 150.52 103.009 150.19C104.019 149.82 104.969 149.37 105.789 148.83C108.349 147.16 110.209 144.7 111.049 141.84C111.509 140.58 112.479 137.43 112.549 137.02C113.089 134.11 113.509 131.17 114.149 128.28C115.089 124.02 116.049 119.77 116.049 115.38C116.049 109.09 116.049 102.79 116.049 96.5C116.049 89.5 116.079 82.5 116.039 75.5L115.999 75.47ZM105.209 77.81C104.899 81.87 104.699 85.94 104.269 89.98C103.279 99.42 101.279 108.61 97.0594 117.2C95.0594 121.28 92.5194 125.02 89.8494 128.68C86.7494 132.93 83.4494 137.01 79.5794 140.61C75.9294 144 71.9494 146.88 67.2594 148.68C62.8494 150.38 58.3094 150.93 53.6894 149.96C49.0494 148.99 45.6294 146.21 43.2094 142.17C41.3394 139.04 40.3394 135.61 39.7294 132.05C38.7494 126.32 38.8694 120.56 39.2594 114.78C39.7094 108.13 41.3994 101.73 43.1394 95.35C44.4494 90.56 46.1094 85.9 48.2194 81.4C48.3194 81.18 48.4494 80.98 48.5594 80.76C48.6294 80.77 48.6994 80.79 48.7694 80.8C48.8294 81.41 48.9294 82.02 48.9394 82.64C48.9594 84.34 48.9394 86.05 48.9394 87.75C48.9594 91.94 52.2994 93.14 55.0794 92.73C57.4794 92.37 59.2594 91.17 60.4194 89.01C62.0694 85.96 63.2594 82.79 63.4194 79.29C63.4494 78.53 63.0694 77.79 62.3694 77.57C62.0594 77.47 61.5194 77.55 61.3094 77.77C60.8094 78.28 60.3494 78.88 60.0594 79.52C59.0994 81.61 58.2394 83.75 57.2794 85.84C56.8694 86.74 56.3394 87.59 55.7994 88.43C55.5494 88.82 55.1694 89.16 54.7794 89.42C54.0794 89.9 53.3394 89.81 52.9694 89.05C52.5494 88.19 52.1494 87.24 52.0894 86.31C51.9594 84.58 52.0794 82.83 52.0894 81.09C52.0894 80.86 52.1294 80.63 52.1394 80.41C52.1694 79.45 51.7794 78.79 50.8694 78.42C49.9694 78.05 49.8194 77.75 49.9594 76.78C50.0194 76.39 50.0794 75.98 50.2694 75.64C50.8994 74.5 51.5394 73.37 52.2494 72.28C52.8994 71.27 53.9694 71.14 55.0794 71.01C68.4794 69.4 81.1894 65.59 93.0694 59.09C95.1394 57.96 97.2594 56.9 99.3894 55.87C100.029 55.56 100.759 55.41 101.469 55.29C102.389 55.14 103.069 55.6 103.549 56.36C104.259 57.5 104.489 58.8 104.639 60.09C105.309 65.98 105.659 71.88 105.199 77.81H105.209Z" fill="black"/>
</g>
<defs>
<clipPath id="clip0_444_4520">
<rect width="175" height="155" fill="white"/>
</clipPath>
</defs>
</svg>
