<svg width="195" height="155" viewBox="0 0 195 155" fill="none" xmlns="http://www.w3.org/2000/svg">
<path d="M73.1403 142.66C72.7303 142.6 72.3203 142.54 71.9203 142.47C70.4803 142.23 69.1603 141.68 67.9903 140.8C66.4403 139.63 65.4003 138.08 64.7803 136.26C64.2003 134.57 63.9603 132.81 64.0703 131.03C64.2103 128.68 64.9404 126.5 66.2304 124.51C66.8404 123.57 67.5104 122.68 68.3004 121.89C68.8404 121.35 69.3303 120.76 69.8803 120.23C71.0703 119.1 72.2903 118 73.4903 116.88C73.7003 116.68 73.9003 116.48 74.1003 116.28C74.2603 116.12 74.2603 115.96 74.1703 115.76C73.8303 115.04 73.7903 115 73.0203 115.09C72.6103 115.14 72.2003 115.23 71.8103 115.36C69.3803 116.16 66.9703 116.98 64.5403 117.77C63.4203 118.13 62.3003 118.51 61.1203 118.66C59.0503 118.92 57.3903 118.23 56.1103 116.61C55.1403 115.4 54.5203 114 53.9603 112.57C53.3203 110.93 52.9003 109.21 52.7903 107.46C52.6603 105.43 52.7203 103.4 53.2703 101.43C53.5603 100.39 53.9103 99.3598 54.3003 98.3498C54.5803 97.6298 55.1003 97.0498 55.6203 96.4798C56.4603 95.5798 57.4103 94.7998 58.3703 94.0298C59.0003 93.5298 59.7203 93.5098 60.4003 93.8098C60.9503 94.0498 61.4903 94.3698 61.9403 94.7598C64.5003 96.9798 66.2103 99.7498 67.1503 103.02C67.6203 104.65 67.9503 106.31 68.0603 108C68.1503 109.53 68.1403 111.06 68.1803 112.59C68.1903 112.97 68.2503 113.34 68.2903 113.78C68.5303 113.74 68.7203 113.74 68.8903 113.69C70.5603 113.22 72.2404 112.76 73.9104 112.27C76.6504 111.46 79.3804 110.63 82.1203 109.81C84.4403 109.11 86.7603 108.41 89.0903 107.72C92.2603 106.79 95.4303 105.86 98.6003 104.95C100.36 104.44 102.12 103.9 103.9 103.48C105.64 103.07 107.4 102.74 109.16 102.48C111 102.21 112.87 102.07 114.72 101.88C116.22 101.73 117.7 101.53 119.09 100.92C120.19 100.44 121.22 99.8398 122.12 99.0298C124.19 97.1598 125.48 94.8398 126.08 92.1398C126.53 90.0798 126.22 88.0798 125.41 86.1498C124.87 84.8798 124.15 83.7198 123.3 82.6298C122.91 82.1298 122.58 81.5798 122.24 81.0398C121.93 80.5498 122 80.0698 122.34 79.5998C122.68 79.5698 122.94 79.7598 123.18 79.9698C124.15 80.8498 124.91 81.8798 125.53 83.0298C126.51 84.8198 127.07 86.7498 127.22 88.7698C127.43 91.5798 127.02 94.2998 125.79 96.8798C125.05 98.4198 124.08 99.7898 122.86 100.98C122.31 101.51 121.81 102.09 121.28 102.65C121.21 102.73 121.17 102.82 121.07 102.98C121.37 103.04 121.61 103.1 121.86 103.13C123.64 103.39 125.43 103.62 127.21 103.92C129.17 104.25 131.01 104.89 132.61 106.12C133.79 107.03 134.61 108.21 135.14 109.6C135.6 110.81 135.77 112.06 135.79 113.35C135.83 115.62 135.51 117.83 134.77 119.98C134.32 121.3 133.66 122.51 132.68 123.49C131.53 124.63 130.13 125.34 128.5 125.53C125.84 125.85 123.25 125.53 120.71 124.74C117.54 123.74 114.47 122.48 111.39 121.24C108.16 119.94 104.95 118.61 101.72 117.33C101.06 117.07 100.35 116.89 99.6503 116.77C98.2803 116.54 97.1503 117.04 96.3603 118.16C95.6803 119.12 95.0504 120.12 94.4403 121.13C93.1703 123.22 91.9603 125.33 90.6803 127.41C88.7903 130.48 86.8703 133.53 84.9503 136.58C84.5803 137.18 84.2003 137.77 83.8203 138.36C82.9503 139.73 81.6704 140.61 80.2304 141.28C78.7704 141.95 77.2303 142.35 75.6303 142.55C75.3203 142.59 75.0003 142.63 74.6903 142.68H73.1604L73.1403 142.66ZM80.2403 119.83C80.2403 119.83 80.1503 119.76 80.1003 119.73C80.1503 119.57 80.1903 119.41 80.2503 119.25C81.1303 117.08 82.0103 114.9 82.8903 112.73C82.9603 112.55 83.0103 112.36 83.0803 112.12C82.5803 112.09 82.1803 112.2 81.8203 112.41C81.2703 112.73 80.7103 113.05 80.2103 113.44C79.0103 114.36 77.8103 115.29 76.6503 116.26C75.7703 116.99 74.9203 117.77 74.0703 118.53C73.3503 119.18 72.6303 119.83 71.9203 120.5C71.4503 120.95 70.9803 121.41 70.5403 121.9C69.8903 122.61 69.2903 123.35 68.6403 124.05C67.5503 125.23 66.7503 126.58 66.2003 128.07C65.5803 129.73 65.3603 131.46 65.3803 133.24C65.4103 135.93 67.1403 138.35 69.5703 139.42C70.8503 139.98 72.2203 140.16 73.5903 140.16C74.7003 140.16 75.8203 140.03 76.9203 139.84C78.5703 139.57 80.1403 139.04 81.4703 137.97C81.7603 137.74 82.0403 137.44 82.2203 137.12C82.5003 136.59 82.7504 136.03 82.9104 135.45C83.2204 134.34 83.3203 133.21 83.2203 132.04C83.1303 130.9 82.9303 129.79 82.5504 128.72C81.9403 127.03 81.0403 125.56 79.4603 124.59C78.1703 123.8 76.7903 123.45 75.3004 123.66C72.8904 124 71.1903 125.32 70.2703 127.57C69.6203 129.16 69.7603 130.72 70.6203 132.22C70.9104 132.73 71.3403 133.06 71.9003 133.24C72.8003 133.52 73.7003 133.41 74.5803 133.14C75.5503 132.85 75.8904 132.27 75.6604 131.29C75.5704 130.92 75.4603 130.55 75.3403 130.19C75.2303 129.85 75.2903 129.53 75.4703 129.23C75.6503 128.92 75.7803 128.88 76.0903 129.08C76.4503 129.3 76.6203 129.67 76.7703 130.04C77.2403 131.26 77.1603 132.47 76.6803 133.68C76.1003 135.11 74.9803 135.8 73.5103 135.94C72.2003 136.06 71.0904 135.63 70.3004 134.53C70.1604 134.34 70.0003 134.16 69.8703 133.96C69.2104 132.94 68.6503 131.89 68.7703 130.62C68.8303 129.94 68.9303 129.25 69.0903 128.59C69.3903 127.33 69.7603 126.09 70.0803 124.84C70.1803 124.47 70.3503 124.17 70.6303 123.91C71.6403 123.02 72.7003 122.21 73.9603 121.7C75.0003 121.29 76.0903 121.08 77.1903 121.31C80.0203 121.9 81.9703 123.63 83.1803 126.21C84.0803 128.12 84.3003 130.19 84.4503 132.26C84.5003 132.94 84.4803 132.94 85.1303 133.06C85.1803 133.06 85.2203 133.08 85.2703 133.09C85.8503 133.18 85.8503 133.19 86.1403 132.68C87.4903 130.31 88.8404 127.94 90.1903 125.57C91.4503 123.35 92.7204 121.14 93.9804 118.92C94.6304 117.78 95.2803 116.65 95.9303 115.51C96.1703 115.09 96.1303 114.99 95.6803 114.88C94.7203 114.64 93.7603 114.41 92.8004 114.19C92.1304 114.03 92.1104 114.05 91.9804 114.71C91.9604 114.79 91.9503 114.87 91.9303 114.94C91.4103 117.72 90.2803 120.19 88.3403 122.27C88.1903 122.43 88.0303 122.56 87.8403 122.72C87.6603 122.42 87.7103 122.17 87.7403 121.92C87.9403 120.38 88.4303 118.93 89.2703 117.62C89.9603 116.53 90.7503 115.5 91.4903 114.44C91.5603 114.34 91.6103 114.24 91.7103 114.08C90.6603 113.57 89.7003 113.01 88.5803 112.82C88.1903 112.75 87.8003 112.84 87.5003 113.09C87.1003 113.42 86.7003 113.78 86.3503 114.16C85.6003 114.96 84.9003 115.81 84.1403 116.61C83.5003 117.28 82.8303 117.92 82.1303 118.52C81.5503 119.01 80.8903 119.41 80.2703 119.84L80.2403 119.83ZM88.8603 109.77C89.1103 109.89 89.2504 109.97 89.4104 110.03C91.7004 110.92 93.9903 111.81 96.2803 112.7C101.13 114.58 105.98 116.46 110.82 118.35C113.04 119.21 115.25 120.07 117.47 120.93C117.59 120.98 117.73 121 117.9 121.04C117.9 120.87 117.93 120.76 117.92 120.66C117.83 119.82 117.72 118.98 117.65 118.14C117.52 116.69 117.5 115.24 117.68 113.8C117.88 112.19 118.4 110.69 119.33 109.36C120.12 108.22 121.13 107.3 122.27 106.51C122.41 106.41 122.54 106.3 122.75 106.14C122.52 106.04 122.39 105.97 122.24 105.93C121.81 105.8 121.38 105.68 120.95 105.55C119.17 105.04 117.4 104.53 115.54 104.34C113.86 104.17 112.27 104.42 110.7 105C110.45 105.09 110.22 105.23 109.91 105.38C111.02 106.39 112.06 107.35 113.11 108.31C113.09 108.35 113.07 108.38 113.04 108.42C112.88 108.37 112.72 108.33 112.56 108.28C112.26 108.18 111.95 108.08 111.65 107.98C110.41 107.56 109.19 107.1 108.09 106.35C107.77 106.13 107.39 105.96 107.01 105.84C105.91 105.48 104.81 105.57 103.72 105.92C102.6 106.28 101.47 106.65 100.35 107.02C100.27 107.05 100.2 107.11 100.09 107.18C100.22 107.27 100.31 107.34 100.4 107.38C101.9 108.13 103.4 108.86 104.88 109.64C106.05 110.26 107.14 111.02 108.14 111.89C108.38 112.1 108.65 112.31 108.82 112.65C108.68 112.67 108.59 112.7 108.5 112.7C107.67 112.66 106.84 112.67 106.02 112.56C103.59 112.24 101.37 111.34 99.3403 109.98C98.6303 109.5 97.9403 108.98 97.2503 108.47C96.6303 108 95.9603 107.8 95.1803 108C95.0303 108.04 94.8703 108.06 94.7103 108.1C92.9003 108.6 91.0803 109.1 89.2703 109.6C89.1603 109.63 89.0504 109.69 88.8303 109.78L88.8603 109.77ZM60.7403 116.24C62.0703 116.3 63.2903 115.96 64.4804 115.53C65.6604 115.1 66.4003 114.27 66.6803 113.03C66.9503 111.87 67.0003 110.69 67.0103 109.52C67.0103 108.84 66.9203 108.15 66.8403 107.47C66.5603 105.01 65.8203 102.7 64.5403 100.58C63.8603 99.4498 63.1303 98.3398 62.0903 97.4798C60.8803 96.4798 59.4803 96.1898 58.0503 96.9898C56.2503 97.9998 55.1203 99.5898 54.5103 101.52C53.9303 103.37 53.6903 105.27 53.8903 107.23C54.1403 109.68 54.8903 111.93 56.2603 113.97C56.7703 114.73 57.4403 115.35 58.2803 115.75C59.0703 116.13 59.9103 116.3 60.7403 116.24ZM134.65 114.33C134.6 113.79 134.59 113.25 134.49 112.72C134.1 110.56 133.04 108.86 131.07 107.8C130.25 107.36 129.39 107.16 128.44 107.29C126.46 107.56 124.57 108.13 122.77 108.96C120.77 109.88 119.44 111.39 118.88 113.54C118.4 115.38 118.53 117.21 118.99 119.03C119.41 120.69 120.4 121.92 122 122.58C123.97 123.39 126.01 123.77 128.13 123.38C129.69 123.1 131.04 122.38 132.07 121.18C133.76 119.22 134.61 116.93 134.64 114.33H134.65Z" fill="black"/>
<path d="M145.28 69.6599C144.76 69.7199 144.24 69.7899 143.72 69.8499C142.2 70.0399 140.73 69.8499 139.31 69.2799C137.63 68.6099 136.14 67.6599 134.85 66.3799C133.78 65.3299 132.89 64.1599 132.3 62.7699C131.65 61.2299 131.59 59.6599 132.13 58.0999C132.63 56.6399 132.32 55.4199 131.39 54.2699C130.59 53.2899 129.9 52.2399 129.3 51.1299C129.02 50.6099 128.89 50.0599 129.03 49.4699C129.11 49.1299 129.32 48.9099 129.65 48.8099C130.09 48.6799 130.52 48.6099 130.95 48.8399C131.87 49.3199 132.79 49.7999 133.7 50.2899C134.4 50.6699 135.09 51.0799 135.79 51.4499C137.25 52.2199 138.8 52.4399 140.43 52.1599C141.2 52.0299 141.97 51.8999 142.74 51.7799C142.87 51.7599 142.99 51.7399 143.12 51.7399C144.48 51.6699 145.07 52.0299 145.5 53.3099C145.79 54.1599 146.32 54.7699 147.05 55.2499C147.92 55.8199 148.79 56.3799 149.62 56.9999C150.25 57.4799 150.84 58.0299 151.38 58.5999C151.98 59.2299 152.22 60.0199 152.05 60.8999C151.88 61.7599 151.71 62.6199 151.48 63.4599C151.32 64.0399 151.41 64.5799 151.69 65.0699C151.83 65.3199 152.08 65.5399 152.33 65.6899C154.04 66.6899 155.68 67.7899 157.23 69.0199C158.79 70.2599 160.33 71.5199 161.8 72.8599C163.5 74.3999 165.15 75.9999 166.76 77.6299C168.13 79.0099 169.42 80.4599 170.75 81.8799C171.31 82.4699 171.87 83.0599 172.42 83.6599C173.61 84.9399 174.79 86.2399 176 87.5099C176.98 88.5399 178 89.5299 179 90.5299C180.57 92.0999 182.23 93.5599 183.92 94.9899C185.5 96.3299 187.07 97.6799 188.65 99.0199C189.2 99.4799 189.74 99.9499 190.29 100.41C190.8 100.83 191.38 101.12 192.01 101.32C192.78 101.57 193.46 101.96 194.02 102.57C194.48 103.07 194.74 103.67 194.8 104.33C194.9 105.54 194.7 106.71 194.31 107.86C194.22 108.13 194.06 108.33 193.82 108.48C193.23 108.85 192.61 108.94 191.9 108.89C190.21 108.77 188.59 108.39 187.03 107.76C185.49 107.14 184.09 106.29 182.86 105.18C181.62 104.06 180.38 102.93 179.22 101.72C177.95 100.4 176.7 99.0499 175.56 97.6199C173.98 95.6399 172.48 93.5899 170.99 91.5399C169.93 90.0899 168.79 88.7199 167.47 87.5099C166.08 86.2299 164.56 85.1299 162.91 84.1999C160.37 82.7599 157.67 81.7099 154.89 80.8399C152.99 80.2499 151.1 79.5899 149.24 78.8999C147.25 78.1599 145.46 77.0599 143.89 75.6099C143.48 75.2299 143.09 74.8299 142.66 74.4799C142.11 74.0399 141.93 73.4699 141.88 72.8099C141.82 72.0099 141.86 71.9099 142.65 71.8599C143.12 71.8299 143.61 71.8699 144.06 72.0099C146.33 72.6699 148.58 73.3699 150.84 74.0599C151.05 74.1199 151.27 74.1799 151.48 74.2499C151.74 74.3199 151.9 74.2299 152.01 73.9799C152.39 73.1299 152.38 73.0499 151.61 72.4999C150.79 71.9199 149.98 71.3299 149.13 70.7899C147.96 70.0599 146.69 69.5999 145.27 69.6499L145.28 69.6599ZM156.41 79.0199C156.66 79.0999 156.82 79.1599 156.98 79.1999C158.48 79.5499 159.92 80.0599 161.3 80.7199C163.3 81.6799 165.1 82.9199 166.76 84.3899C168.18 85.6499 169.5 87.0199 170.7 88.4899C171.92 89.9799 173.09 91.5199 174.26 93.0599C175.66 94.8999 176.98 96.7999 178.59 98.4699C180.02 99.9499 181.48 101.4 182.93 102.86C182.95 102.88 182.98 102.9 183.01 102.92C184.4 103.8 185.78 104.68 187.17 105.56C187.38 105.69 187.53 105.65 187.62 105.42C187.89 104.72 188.19 104.03 188.41 103.32C188.66 102.49 188.51 101.72 187.84 101.08C186.91 100.2 186 99.3099 185.08 98.4199C184.07 97.4399 183.05 96.4799 182.06 95.4899C178.24 91.6599 174.44 87.8199 170.63 83.9699C169.49 82.8099 168.38 81.6199 167.22 80.4799C165.69 78.9699 164.12 77.4899 162.57 75.9999C161.13 74.6199 159.61 73.3299 158.03 72.1099C155.52 70.1599 152.89 68.3799 150 67.0299C149.85 66.9599 149.69 66.8999 149.43 66.7799C149.48 67.1599 149.51 67.4299 149.55 67.7099C149.64 68.2399 149.89 68.6599 150.32 68.9799C150.92 69.4299 151.5 69.8999 152.09 70.3699C153.9 71.8099 155.7 73.2499 157.51 74.6999C158.08 75.1499 158.45 75.7199 158.63 76.4399C158.74 76.8699 158.63 77.1699 158.28 77.4299C157.79 77.7899 157.32 78.1699 156.85 78.5499C156.71 78.6599 156.6 78.8099 156.4 79.0099L156.41 79.0199ZM144.76 56.1699C144.67 56.3599 144.59 56.4999 144.53 56.6399C143.91 57.9399 143.14 59.1599 142.13 60.1899C141.01 61.3499 139.69 62.2499 138.15 62.7599C137.55 62.9599 136.92 63.1099 136.31 63.2699C135.87 63.3799 135.83 63.4499 135.89 63.8999C135.94 64.2599 136.06 64.5799 136.35 64.8099C136.95 65.2799 137.51 65.8099 138.17 66.1999C140.54 67.5899 143.04 67.8299 145.61 66.8099C147.94 65.8799 149.45 64.1399 150.37 61.8499C150.52 61.4699 150.51 61.0699 150.42 60.6699C150.29 60.0499 149.92 59.6099 149.42 59.2699C147.99 58.2799 146.55 57.3099 145.11 56.3299C145.02 56.2699 144.91 56.2399 144.75 56.1599L144.76 56.1699Z" fill="black"/>
<path d="M4.35984 105.98C4.35984 104.84 4.85984 103.96 5.70984 103.24C6.72984 102.38 7.77984 101.54 8.73984 100.61C10.5098 98.8998 12.0298 96.9698 13.4498 94.9598C16.2198 91.0498 18.7198 86.9798 21.2098 82.8898C23.4298 79.2398 25.6598 75.5898 27.9298 71.9698C29.5298 69.4098 31.3298 66.9998 33.2698 64.6798C34.5598 63.1398 35.9098 61.6498 37.3498 60.2498C37.7598 59.8498 38.1998 59.4798 38.6098 59.0798C38.8798 58.8098 39.1098 58.4998 39.3598 58.2198C39.5398 58.0098 39.5598 57.8098 39.3898 57.5798C39.0398 57.1098 38.6698 56.6398 38.3598 56.1398C38.0798 55.6798 37.8198 55.1998 37.6198 54.6998C37.2398 53.7598 37.3898 52.8198 37.8998 51.9898C38.3498 51.2598 38.9098 50.5998 39.4498 49.9298C39.9198 49.3498 40.4298 48.7998 40.9198 48.2298C41.4398 47.6098 41.7798 46.8898 42.0998 46.1598C42.3798 45.5298 42.6498 44.8998 43.1398 44.3998C43.4598 44.0698 43.7998 43.7598 44.1598 43.4698C44.5198 43.1898 44.9398 43.2898 45.3598 43.3098C46.2798 43.3398 47.2098 43.4098 48.1198 43.3098C50.0398 43.0998 51.6698 42.1898 53.0998 40.9498C53.8798 40.2698 54.5798 39.5098 55.2998 38.7698C55.8998 38.1398 56.5798 37.6098 57.3298 37.1898C57.6298 37.0298 57.9898 36.9698 58.3298 36.8998C58.5698 36.8498 58.7098 36.9698 58.7598 37.2298C58.8498 37.7198 58.8898 38.2098 58.6798 38.6898C58.2298 39.7498 57.7898 40.8098 57.3598 41.8698C57.2798 42.0598 57.2198 42.2598 57.1398 42.4498C56.5098 44.0498 56.6998 45.6098 57.4198 47.1298C57.8998 48.1498 58.2198 49.2098 58.2798 50.3498C58.3498 51.8198 57.8898 53.1498 57.2098 54.4198C56.5698 55.6098 55.7498 56.6698 54.7598 57.5898C52.5798 59.6098 50.0498 60.8998 47.0798 61.2698C46.1998 61.3798 45.3498 61.4898 44.5298 61.8498C43.3998 62.3498 42.5698 63.2098 41.7798 64.1098C41.1898 64.7798 40.6398 65.4798 40.0698 66.1698C39.8198 66.4698 39.8098 66.5498 40.0198 66.8898C40.0598 66.9598 40.1098 67.0198 40.1498 67.0898C40.4998 67.6598 40.5098 67.6698 41.0798 67.3698C42.5598 66.5798 44.0198 65.7598 45.4998 64.9898C46.8198 64.3098 48.1598 63.6698 49.4898 63.0298C49.7598 62.8998 50.0598 62.8298 50.3598 62.7798C50.7098 62.7098 50.8998 62.8198 51.0498 63.1398C51.2698 63.5798 51.2498 64.0498 51.0498 64.4898C50.9198 64.7898 50.7598 65.1098 50.5298 65.3398C49.3198 66.5898 48.1098 67.8398 46.8498 69.0298C45.8098 70.0098 44.7198 70.9498 43.5998 71.8398C42.2498 72.9198 40.7298 73.7398 39.2398 74.6098C37.5698 75.5798 35.8898 76.5398 34.2798 77.5798C33.3498 78.1798 32.4998 78.9198 31.6598 79.6498C29.2498 81.7398 27.4398 84.2898 26.0698 87.1498C25.2798 88.7998 24.5498 90.4898 23.7798 92.1498C23.4098 92.9598 23.0298 93.7698 22.6498 94.5798C21.3098 97.4798 19.8998 100.34 17.9198 102.87C15.9498 105.4 13.5698 107.42 10.6998 108.88C9.63984 109.42 8.49984 109.72 7.41984 110.18C6.70984 110.48 6.22984 110.28 5.75984 109.65C5.14984 108.84 4.69984 107.95 4.46984 106.95C4.39984 106.64 4.37984 106.32 4.33984 106.01L4.35984 105.98ZM42.4998 60.5098C42.1998 60.2398 41.9598 60.0098 41.7098 59.7898C41.4598 59.5698 41.3598 59.5498 41.0898 59.7698C40.2298 60.4598 39.3298 61.0998 38.5298 61.8598C37.0298 63.2698 35.5898 64.7398 34.2598 66.3098C32.3198 68.5998 30.5198 70.9998 28.8798 73.5098C26.9598 76.4398 25.0898 79.4198 23.1898 82.3698C20.8798 85.9598 18.5498 89.5498 16.2298 93.1398C16.0698 93.3898 15.8998 93.6498 15.7298 93.8998C14.6898 95.4498 13.6598 96.9998 12.6198 98.5598C11.9998 99.4898 11.3798 100.42 10.7798 101.36C10.3198 102.07 10.2998 102.81 10.7598 103.52C11.1198 104.08 11.5298 104.61 11.9198 105.16C12.0798 105.39 12.2798 105.4 12.4998 105.27C12.5798 105.22 12.6698 105.17 12.7498 105.13C14.6798 104.01 16.1798 102.44 17.4298 100.62C18.6598 98.8398 19.5898 96.8898 20.5898 94.9898C21.4098 93.4398 22.1498 91.8398 22.9098 90.2698C23.1698 89.7398 23.3898 89.1898 23.6398 88.6598C24.3298 87.2198 24.9698 85.7598 25.7398 84.3698C27.3298 81.5098 29.3098 78.9398 31.7998 76.7798C32.7798 75.9298 33.7998 75.1498 34.8798 74.4398C35.6798 73.9098 36.4598 73.3598 37.2398 72.8098C37.3498 72.7298 37.4298 72.6198 37.5898 72.4698C37.3598 72.3698 37.2098 72.2798 37.0498 72.2298C36.4398 72.0298 35.8298 71.8498 35.2298 71.6498C34.8598 71.5198 34.7998 71.4198 34.8398 71.0498C34.9398 70.1298 35.2498 69.2798 35.8298 68.5498C36.4798 67.7198 37.1198 66.8798 37.7898 66.0698C38.9198 64.7098 40.0698 63.3698 41.2098 62.0198C41.6098 61.5498 42.0098 61.0798 42.4798 60.5298L42.4998 60.5098ZM55.4098 53.0898C55.1198 53.0698 54.9498 53.0498 54.7798 53.0498C54.2198 53.0498 53.6598 53.0498 53.1098 53.0498C51.0298 53.0198 49.1198 52.4398 47.3698 51.3298C45.9498 50.4298 44.7898 49.2598 43.7698 47.9298C43.6698 47.7998 43.5398 47.6898 43.4098 47.5398C43.2998 47.6798 43.2298 47.7598 43.1698 47.8498C42.3498 49.2398 41.4498 50.5698 40.2698 51.6898C39.9098 52.0398 39.5798 52.4498 39.2998 52.8698C38.8398 53.5598 38.8998 54.1898 39.4898 54.7698C39.9198 55.1898 40.3798 55.5998 40.8598 55.9498C41.9798 56.7598 43.0798 57.6198 44.3798 58.1498C46.8398 59.1498 49.2098 58.9898 51.4798 57.5998C52.9598 56.6998 54.0498 55.4198 54.9398 53.9598C55.0898 53.7098 55.2198 53.4398 55.4098 53.0698V53.0898Z" fill="black"/>
<path d="M62.5303 81.2602C62.5303 78.3502 63.2003 75.5802 64.2403 72.9002C65.2503 70.3002 66.3903 67.7502 67.4603 65.1702C68.2903 63.1602 69.0203 61.1202 69.3603 58.9602C69.6803 56.9502 69.6103 54.9602 69.1303 52.9802C69.0503 52.6602 69.0203 52.3202 69.0503 51.9902C69.0903 51.4702 69.3703 51.2502 69.8803 51.2802C70.3003 51.3002 70.6903 51.4302 71.0103 51.7402C71.7803 52.4802 72.5503 53.2202 73.3203 53.9602C74.0803 54.6902 74.8403 55.4202 75.6003 56.1402C75.8903 56.4202 75.9603 56.4002 76.2103 56.1102C77.6903 54.3402 78.9603 52.4302 79.9103 50.3202C80.9203 48.0702 81.6703 45.7402 82.2103 43.3302C82.7703 40.8502 83.1503 38.3502 83.4503 35.8302C83.5703 34.8802 83.6503 33.9302 83.7603 32.9802C83.8003 32.6802 83.8703 32.3802 83.9703 32.1002C84.1303 31.6402 84.4403 31.5002 84.8703 31.7202C85.2703 31.9202 85.6603 32.1502 86.0003 32.4302C87.0103 33.2602 88.0303 34.0802 88.9703 34.9902C90.1903 36.1802 91.2803 37.5002 92.2803 38.8902C93.7703 40.9602 95.0103 43.1602 96.0803 45.4702C97.3203 48.1202 98.2803 50.8802 99.0603 53.6902C99.7303 56.1002 100.3 58.5402 100.76 61.0102C100.86 61.5402 101.11 62.0002 101.37 62.4502C101.48 62.6402 101.63 62.6702 101.81 62.6002C102.11 62.4902 102.41 62.3802 102.7 62.2502C104.31 61.5302 105.75 60.5702 106.95 59.2802C107.67 58.5002 108.28 57.6102 108.95 56.7802C109.24 56.4202 109.54 56.0702 109.86 55.7402C110.15 55.4402 110.28 55.4702 110.46 55.8502C110.8 56.5702 111.14 57.2902 111.45 58.0302C112.28 60.0002 113.11 61.9702 113.89 63.9602C115 66.8002 116.09 69.6402 117.14 72.5002C117.7 74.0302 117.97 75.6302 118.05 77.2702C118.16 79.6702 117.79 81.9802 116.88 84.1902C116.18 85.9002 115.22 87.4502 114 88.8502C112.59 90.4702 110.92 91.7502 109.13 92.9002C107.38 94.0202 105.6 95.0702 103.74 96.0002C100.69 97.5202 97.5303 98.7502 94.2203 99.5802C92.1403 100.1 90.0403 100.47 87.9103 100.66C86.4603 100.79 85.0203 100.89 83.5703 100.83C81.1803 100.74 78.7903 100.6 76.4903 99.8502C75.0003 99.3602 73.5703 98.7302 72.2303 97.9202C70.7203 97.0202 69.3303 95.9402 68.1003 94.6802C65.3403 91.8202 63.5103 88.4502 62.8503 84.5102C62.6703 83.4502 62.6303 82.3602 62.5303 81.2802V81.2602ZM85.0803 34.5202C85.0203 34.7502 84.9503 34.9202 84.9203 35.1002C84.7503 36.0402 84.6003 36.9902 84.4403 37.9302C83.8903 41.2702 83.3403 44.6002 82.3503 47.8502C81.5003 50.6102 80.3703 53.2402 78.7803 55.6502C78.1003 56.6802 77.3503 57.6402 76.5203 58.5502C76.1103 59.0102 75.6803 59.4202 75.1103 59.6702C74.7403 59.8402 74.6803 59.8002 74.4903 59.4302C73.7903 57.9602 73.0803 56.5002 72.3703 55.0402C72.3403 54.9702 72.3003 54.9002 72.2603 54.8302C72.1803 54.6802 72.0703 54.6402 71.9003 54.6802C71.1303 54.8602 70.8603 55.1502 70.7703 55.9402C70.7503 56.1002 70.7603 56.2602 70.7503 56.4202C70.7103 57.0902 70.7003 57.7602 70.6303 58.4202C70.4403 60.2702 70.0203 62.0702 69.4403 63.8302C68.6203 66.3002 67.5103 68.6502 66.4503 71.0302C65.7003 72.7102 65.0003 74.4002 64.5003 76.1702C63.8203 78.5702 63.6503 81.0102 63.9903 83.4702C64.4703 86.9202 66.0603 89.8402 68.4503 92.3402C69.4703 93.4002 70.6203 94.3102 71.8603 95.1102C75.1603 97.2702 78.8003 98.3502 82.7303 98.5202C84.4703 98.6002 86.2103 98.4602 87.9203 98.2002C91.0003 97.7402 94.0403 97.0802 97.0203 96.1802C100.46 95.1502 103.75 93.7802 106.82 91.9202C109.14 90.5102 111.38 88.9902 113.17 86.9002C114.24 85.6502 115.13 84.3002 115.74 82.7802C116.63 80.5902 116.97 78.3102 116.72 75.9402C116.57 74.5002 116.31 73.0902 115.77 71.7602C115.14 70.2102 114.44 68.6902 113.75 67.1602C113.38 66.3502 112.99 65.5402 112.61 64.7402C111.93 63.3002 111.26 61.8502 110.56 60.4202C110.47 60.2302 110.31 60.0502 110.15 59.9002C109.98 59.7402 109.78 59.7402 109.58 59.9002C109.24 60.1602 108.91 60.4302 108.55 60.6802C106.8 61.9002 105.05 63.1302 103.28 64.3302C102.7 64.7202 102.08 65.0702 101.46 65.3702C100.89 65.6502 100.58 65.5002 100.32 64.9202C100.23 64.7202 100.16 64.5002 100.11 64.2802C100.02 63.8802 99.9303 63.4702 99.8603 63.0602C99.1103 58.7902 98.1403 54.5902 96.6503 50.5202C95.5903 47.6302 94.2803 44.8802 92.6003 42.3002C91.2903 40.2902 89.7903 38.4302 88.0103 36.8002C87.1703 36.0302 86.2203 35.3602 85.3303 34.6502C85.2803 34.6102 85.2203 34.6002 85.0703 34.5402L85.0803 34.5202Z" fill="black"/>
<path d="M159.51 57.6703C159.41 57.2003 159.29 56.7703 159.24 56.3303C159.22 56.1503 159.32 55.9203 159.42 55.7603C160.42 54.2403 161.05 52.5803 161.26 50.7803C161.5 48.7103 161.18 46.7303 160.1 44.9303C158.67 42.5203 156.52 41.0403 153.87 40.2403C153.37 40.0903 152.85 39.9903 152.33 39.9203C151.77 39.8403 151.31 39.5903 150.89 39.2303C150.75 39.1003 150.6 38.9803 150.45 38.8603C150.15 38.6103 150.14 38.5703 150.37 38.2303C150.49 38.0403 150.64 37.8703 150.76 37.6803C150.95 37.4003 151.21 37.2603 151.52 37.1403C152.16 36.9103 152.82 36.6903 153.42 36.3603C155.75 35.0703 156.68 32.7703 156.38 30.2103C156.09 27.7303 154.96 25.6903 153.22 23.9203C151.42 22.0903 149.24 20.9603 146.8 20.2903C145.33 19.8903 143.84 19.7003 142.32 19.6103C139.37 19.4303 136.54 19.8903 133.8 20.9703C131.52 21.8703 129.49 23.1703 127.66 24.7903C127.07 25.3103 126.53 25.9303 125.75 26.2103C125.65 26.2503 125.55 26.2903 125.39 26.3503C125.17 25.7103 125.06 25.0903 125.22 24.4303C125.53 23.2003 125.55 21.9703 125.23 20.7403C124.49 17.8703 122.04 15.5103 118.83 15.2503C116.7 15.0803 114.85 15.7803 113.29 17.2503C111.65 18.7903 110.87 20.7003 110.87 22.9303C110.87 23.2903 110.94 23.6603 110.98 24.0203C111.04 24.5103 110.81 24.8703 110.51 25.2103C110.22 25.1303 110.06 24.9403 110 24.7103C109.86 24.1903 109.68 23.6703 109.64 23.1303C109.51 21.6103 109.82 20.1403 110.42 18.7503C111.03 17.3303 111.8 16.0203 112.93 14.9403C115.25 12.7303 117.92 12.1403 120.91 13.2803C123.44 14.2503 125.04 16.1503 125.93 18.6603C126.25 19.5503 126.5 20.4503 126.78 21.3503C126.81 21.4603 126.84 21.5603 126.88 21.6703C127.06 22.2203 127.12 22.2303 127.61 21.9403C129.05 21.0803 130.46 20.1703 131.94 19.4103C134.19 18.2503 136.59 17.4803 139.12 17.1703C141.63 16.8603 144.09 17.1103 146.5 17.8403C148.37 18.4103 150.15 19.2003 151.78 20.2803C154.5 22.0703 156.48 24.4203 157.41 27.5803C157.72 28.6303 157.79 29.7003 157.8 30.7903C157.82 32.7203 157.15 34.4403 156.36 36.1503C156.11 36.7003 155.86 37.2603 155.63 37.8203C155.48 38.1903 155.49 38.2403 155.83 38.4403C156.76 39.0103 157.64 39.6403 158.43 40.3803C158.88 40.8003 159.31 41.2603 159.7 41.7403C160.97 43.3203 161.82 45.1103 162.2 47.1103C162.43 48.3003 162.6 49.5003 162.55 50.7203C162.46 52.9003 161.89 54.9303 160.68 56.7703C160.36 57.2603 160.23 57.3503 159.52 57.6603L159.51 57.6703Z" fill="black"/>
<path d="M147.67 106.97C147.46 106.21 147.4 105.51 147.83 104.83C148.64 103.55 149.7 102.59 151.17 102.11C152.48 101.69 153.81 101.65 155.13 102.01C156.74 102.45 157.83 103.5 158.63 104.93C159.21 105.96 159.5 107.08 159.78 108.21C159.94 108.88 159.95 108.9 160.62 108.86C161.46 108.8 162.3 108.7 163.14 108.62C164.66 108.47 166.19 108.36 167.72 108.57C169.8 108.85 171.42 109.94 172.59 111.64C173.85 113.49 174.52 115.56 174.5 117.81C174.49 119.67 173.85 121.34 172.73 122.82C172.49 123.14 172.17 123.33 171.78 123.42C171.59 123.46 171.47 123.4 171.41 123.21C171.22 122.59 171.1 122 171.61 121.42C172.44 120.47 172.91 119.35 173.1 118.1C173.38 116.22 172.86 114.57 171.6 113.19C170.25 111.71 168.51 110.92 166.53 110.66C164.45 110.39 162.51 110.91 160.64 111.77C160.07 112.03 159.53 112.33 158.9 112.42C158.48 112.48 158.43 112.44 158.29 112.03C158.06 111.36 158.23 110.71 158.27 110.04C158.32 109.34 158.34 108.63 158.24 107.95C158.06 106.66 157.34 105.69 156.24 105C154.57 103.97 152.84 103.91 151.07 104.68C150.21 105.05 149.47 105.6 148.81 106.26C148.37 106.7 148.16 106.83 147.67 106.95V106.97Z" fill="black"/>
<path d="M1.96988 67.3298C1.56988 67.0198 1.30988 66.7198 1.19988 66.2998C0.75988 64.6698 0.69988 63.0098 1.09988 61.3798C1.83988 58.3198 3.69988 56.3098 6.79988 55.4898C8.08988 55.1498 9.35988 55.3098 10.6399 55.4898C11.8099 55.6498 12.9799 55.8198 14.1399 56.0298C14.6499 56.1198 14.9599 56.0098 15.2199 55.5298C15.8399 54.3798 16.8199 53.6098 17.9999 53.0698C18.5899 52.7998 19.2099 52.6498 19.8499 52.6198C20.9499 52.5598 22.0499 52.6098 23.1099 52.9998C24.0099 53.3298 24.4099 54.0298 24.5299 54.9298C24.5499 55.0498 24.5299 55.1898 24.4999 55.3098C24.4399 55.6298 24.2899 55.7498 23.9599 55.6998C23.6499 55.6498 23.3399 55.5598 23.0299 55.4698C22.0799 55.1798 21.1199 54.9798 20.1199 54.9598C19.0399 54.9398 18.1299 55.3298 17.3599 56.0698C16.7499 56.6498 16.3399 57.3698 15.9599 58.1098C15.7599 58.4898 15.5899 58.8898 15.3699 59.2598C15.1099 59.7098 14.9199 59.7698 14.4799 59.4998C14.0399 59.2398 13.6299 58.9298 13.1999 58.6698C11.8499 57.8498 10.3799 57.4798 8.80988 57.5998C8.19988 57.6498 7.57988 57.8098 6.99988 58.0098C5.46988 58.5398 4.09988 59.3298 3.13988 60.6998C2.34988 61.8198 1.98988 63.0698 2.01988 64.4398C2.02988 64.9598 2.04988 65.4798 2.18988 65.9998C2.30988 66.4398 2.18988 66.8798 1.97988 67.3498L1.96988 67.3298Z" fill="black"/>
<path d="M57.3096 106.84C57.3196 105.42 57.5596 104.04 58.1396 102.74C58.3296 102.32 58.5596 101.91 58.8396 101.55C58.9996 101.33 59.2796 101.2 59.5196 101.05C59.6596 100.96 59.8096 100.99 59.8796 101.15C60.0896 101.64 60.2896 102.17 59.9596 102.66C59.3096 103.61 59.1196 104.72 58.7996 105.78C58.6196 106.38 58.5496 107 58.6096 107.62C58.6396 107.98 58.7096 108.35 58.8296 108.69C59.0896 109.41 59.6596 109.73 60.4096 109.61C60.6396 109.57 60.8696 109.49 61.0796 109.37C61.6996 109.03 61.7396 108.92 61.6296 108.22C61.5196 107.53 61.4096 106.83 61.3196 106.14C61.2896 105.95 61.2996 105.76 61.2996 105.57C61.2996 105.33 61.4396 105.2 61.6596 105.12C61.8796 105.04 62.0896 105.06 62.2096 105.26C62.6796 106.03 63.1696 106.8 63.5896 107.61C63.7096 107.84 63.6096 108.2 63.5796 108.5C63.4596 109.48 63.1596 110.4 62.5196 111.17C61.5696 112.31 59.9596 112.55 58.8196 111.43C58.0396 110.65 57.6196 109.71 57.4796 108.64C57.3996 108.04 57.3796 107.44 57.3296 106.83L57.3096 106.84Z" fill="black"/>
<path d="M123.6 117.32C123.67 115.23 124.51 113.51 126.15 112.2C126.31 112.07 126.49 111.97 126.68 111.88C127.44 111.5 128.05 111.86 128.09 112.72C128.1 113.05 128.09 113.39 128.09 113.72C128.1 114.21 128.15 114.24 128.61 114.35C129.23 114.5 129.85 114.65 130.44 114.88C131.73 115.37 132.32 116.51 132.05 117.87C131.81 119.07 131.13 119.97 130.12 120.6C128.97 121.32 127.73 121.61 126.37 121.26C124.63 120.82 123.76 119.48 123.59 117.83C123.57 117.66 123.59 117.48 123.59 117.3L123.6 117.32Z" fill="black"/>
<path d="M102.79 78.5697C102.76 81.2697 102.22 83.8397 101 86.2497C100.1 88.0297 98.8397 89.5197 97.2997 90.7697C95.3197 92.3897 93.0697 93.4297 90.5697 93.9497C88.6497 94.3397 86.7397 94.2597 84.8297 93.8297C83.0997 93.4397 81.3897 92.9897 79.7597 92.2797C78.2997 91.6497 76.9297 90.8697 75.8397 89.6797C74.6797 88.4197 73.9797 86.9497 73.7997 85.2397C73.5797 83.1497 74.2197 81.3197 75.4097 79.6297C76.1697 78.5397 77.1697 77.7097 78.1997 76.8997C79.5897 75.8097 81.0297 74.7597 82.2497 73.4697C83.9697 71.6497 85.2597 69.5997 85.7197 67.0897C85.9197 66.0097 85.8997 64.9397 85.8397 63.8497C85.8197 63.4797 85.9397 63.0997 86.0297 62.7397C86.0797 62.5297 86.2697 62.4597 86.4797 62.4397C86.9097 62.4097 87.3097 62.4897 87.6797 62.6997C88.7497 63.2997 89.5797 64.1397 90.1797 65.2097C90.8297 66.3697 91.1697 67.6297 91.3197 68.9397C91.4397 69.9397 91.5297 70.9397 91.6097 71.9397C91.6397 72.2597 91.7497 72.4697 92.0497 72.6097C93.1297 73.1297 92.8497 73.1397 93.5197 72.2897C94.5097 71.0497 95.4197 69.7697 96.2497 68.4197C96.4097 68.1697 96.6097 67.9297 96.8197 67.7197C97.3197 67.2397 97.7497 67.1897 98.3297 67.5797C99.0497 68.0697 99.6097 68.7197 100.12 69.4297C101.46 71.2997 102.18 73.4197 102.52 75.6697C102.67 76.6297 102.71 77.5997 102.8 78.5697H102.79Z" fill="black"/>
</svg>
