<svg width="175" height="155" viewBox="0 0 175 155" fill="none" xmlns="http://www.w3.org/2000/svg">
<g clip-path="url(#clip0_444_4478)">
<path d="M84.0103 154.7C83.9603 154.7 83.9103 154.68 83.8703 154.64L82.7003 153.49C81.7703 152.58 80.8403 151.66 79.9303 150.73C78.9003 149.68 77.9203 148.59 77.0103 147.57C76.7403 147.27 76.5603 146.89 76.4003 146.55C76.3003 146.33 75.9803 145.67 76.5203 145.15C76.8303 144.85 77.1703 144.7 77.5203 144.7C77.7203 144.7 77.9103 144.75 78.0903 144.85C78.5303 145.1 78.9503 145.39 79.3603 145.68C79.3603 145.68 79.8703 146.04 79.8903 146.05C79.8903 146.03 79.8903 146.02 79.8903 146C79.8403 145.65 79.7903 145.34 79.8003 145.03C79.8303 143.96 79.8403 142.88 79.8503 141.81C79.8803 139.15 79.9103 136.4 80.1903 133.72C80.4403 131.43 80.9703 129.13 81.4903 126.91C81.7203 125.92 81.9503 124.94 82.1603 123.95C82.8803 120.52 83.9103 117.5 85.3203 114.74C87.8003 109.88 91.1903 105.82 93.8703 102.84C98.7303 97.4196 104.62 92.5196 112.4 87.4196C117.33 84.1896 121.68 81.1696 125.73 78.1896C130.49 74.6796 134.15 70.8396 136.91 66.4596C138.5 63.9396 139.75 61.8096 140.24 59.2996C142.39 48.1696 140.09 38.4296 133.41 30.3596C132.07 28.7396 130.48 27.3496 128.67 26.2196C127.8 25.6796 126.94 25.0796 126.11 24.5096C125.12 23.8296 124.09 23.1196 123.05 22.4996C122.08 21.9196 121.02 21.4596 119.99 21.0196C119.6 20.8496 119.2 20.6796 118.81 20.4996C118.72 20.4596 118.6 20.4496 118.43 20.4396C118.4 20.4396 118.37 20.4396 118.34 20.4396C118.42 20.9296 118.49 21.4096 118.56 21.8896C118.74 23.0996 118.9 24.2396 119.14 25.3796C120.5 31.9196 119.71 38.3496 116.72 45.0296C113.14 53.0396 107.87 59.5096 101.06 64.2596C98.7903 65.8396 96.3803 67.0596 93.8803 67.8896C93.5203 68.0096 93.2303 68.0696 92.9803 68.0696C92.4003 68.0696 91.9803 67.7696 91.6803 67.1196C91.0703 65.8196 90.7203 64.7396 90.5803 63.7396C90.3003 61.7296 90.1103 59.5496 89.9903 57.0596L89.9703 56.5196C89.7903 52.5096 89.6003 48.3596 90.0403 44.2796C90.1803 42.9696 90.4103 41.6596 90.6303 40.3796L90.6903 40.0196C90.7203 39.8496 90.7903 39.4196 90.7103 39.3196C90.6803 39.2896 90.6103 39.2696 90.4903 39.2696C90.3603 39.2696 90.2103 39.2896 90.0103 39.3196L88.9503 39.4896C87.5603 39.7096 86.1203 39.9396 84.6903 40.0696C83.2803 40.2096 81.9103 40.2796 80.6103 40.2796C80.3603 40.2796 80.1203 40.2796 79.8703 40.2796C77.4703 40.2296 75.0403 40.1296 72.6803 40.0296L70.5903 39.9396C69.9503 39.9096 69.3103 39.8796 68.6703 39.8396C67.8503 39.7896 67.0203 39.7496 66.1903 39.7196C65.5903 39.6996 65.1703 39.4296 64.8903 38.8496C64.5803 38.2196 64.9303 37.7896 65.2103 37.4496L65.4003 37.2196C65.7903 36.7396 66.2003 36.2496 66.4703 35.7096C67.5903 33.4596 69.1403 31.5496 70.6403 29.8096C71.0903 29.2896 71.5403 28.7696 71.9803 28.2496C73.0003 27.0596 74.0203 25.8696 75.0703 24.7096C75.5403 24.1896 76.0703 23.7296 76.5803 23.2796C76.8103 23.0796 77.0303 22.8796 77.2503 22.6796L77.8203 22.1696C78.2103 21.8196 78.6003 21.4796 78.9703 21.1096C79.1503 20.9296 79.4603 20.6196 79.4503 20.5296C79.4403 20.4396 79.1103 20.2396 78.8403 20.0696C78.1903 19.6696 77.5503 19.2796 76.9003 18.8796C75.2203 17.8596 73.4803 16.7996 71.8403 15.6596C69.2303 13.8296 66.7203 11.8596 64.4003 9.98961C62.8603 8.74961 61.6703 7.36961 60.8603 5.88961C60.4203 5.06961 60.0703 4.17961 60.5603 3.17961C60.7303 2.82961 60.9503 2.45961 61.3603 2.45961C61.5403 2.45961 61.7403 2.52961 62.0103 2.68961C62.2503 2.82961 62.4703 2.88961 62.7103 2.88961C62.9503 2.88961 63.1903 2.82961 63.5003 2.69961C67.2203 1.11961 70.6703 0.349609 74.0603 0.349609C74.3103 0.349609 74.5603 0.349609 74.8003 0.359609C75.5703 0.389609 76.3403 0.399609 77.1103 0.409609C79.0303 0.449609 81.0103 0.479609 82.9503 0.709609C88.0403 1.30961 92.8803 2.75961 96.9403 4.09961L98.0503 4.45961C100.19 5.15961 102.41 5.87961 104.48 6.83961C109.02 8.93961 112.48 12.4896 114.74 17.3996C114.83 17.5896 115.09 17.7996 115.21 17.7996H115.42C118.24 17.7996 120.98 18.5096 123.79 19.9596C127.79 22.0296 131.33 23.9896 134.3 26.9796C139.44 32.1496 142.79 38.5796 144.27 46.0996C144.91 49.3296 145.05 52.6096 144.71 55.8396C144.15 61.1396 142.12 65.9796 138.69 70.2296C135.27 74.4696 131.25 78.2996 126.73 81.5996C121.9 85.1296 116.94 88.5596 111.85 92.0596C103.64 97.6996 96.6903 104.47 91.1703 112.16C87.7103 116.99 85.2803 122.18 83.9303 127.59C82.3603 133.9 81.7903 139.08 82.1403 143.9C82.1903 144.53 82.3103 145.17 82.4303 145.79C82.5603 146.47 82.7003 147.18 82.7303 147.89C82.8103 149.36 83.2403 150.72 84.1003 152.18C84.3203 152.55 84.4703 152.97 84.5303 153.37C84.5703 153.65 84.5303 153.93 84.5003 154.2C84.4903 154.31 84.4703 154.42 84.4603 154.53C84.4603 154.63 84.3703 154.71 84.2603 154.71H84.0403L84.0103 154.7ZM115.31 25.8296C114.95 26.2096 114.59 26.5896 114.24 26.9796C113.39 27.8896 112.52 28.8296 111.6 29.6996C108.06 33.0296 104.78 35.1896 101.28 36.5196C99.9503 37.0196 98.5303 37.3796 97.1703 37.7296L96.4203 37.9196C95.1703 38.2396 94.4803 38.8996 94.1603 40.0596C93.2803 43.3096 92.8403 46.2696 92.8403 49.0996C92.8403 52.3296 92.9603 55.5196 93.1103 59.0596C93.1703 60.4296 93.3103 61.8196 93.4403 63.1696L93.5703 64.5196C93.6203 65.0296 93.9103 65.2896 94.4803 65.3396C94.5603 65.3396 94.6403 65.3396 94.7103 65.3396C95.4103 65.3396 96.1003 65.0896 96.7503 64.5896C98.1003 63.5496 99.3903 62.4896 100.58 61.4296C104.87 57.6196 108.4 53.2496 111.07 48.4196C114.59 42.0796 116.17 36.1096 115.9 30.1696C115.85 29.1696 115.71 28.1396 115.57 27.1496C115.51 26.7196 115.45 26.2996 115.4 25.8696L115.3 25.8296H115.31ZM73.2803 37.2396C73.5503 37.2396 73.8103 37.2396 74.0803 37.2496C75.5503 37.3096 77.0103 37.3896 78.3903 37.4696L80.0203 37.5596C80.6103 37.5296 81.1903 37.5196 81.7603 37.4996C82.9803 37.4596 84.1403 37.4196 85.2903 37.3196C87.9703 37.0896 90.0603 36.5796 91.8603 35.6996C92.4103 35.4396 92.9303 35.0196 93.2903 34.5696C94.6003 32.9296 95.9203 31.1896 97.2203 29.3996C98.2403 27.9896 99.1803 26.5796 100.01 25.2196C100.17 24.9596 100.22 24.7396 100.15 24.6096C100.07 24.4596 99.8403 24.3696 99.4903 24.3596C99.3003 24.3596 99.1103 24.3496 98.9203 24.3496C98.4203 24.3496 97.9203 24.3796 97.4303 24.4096C96.6203 24.4696 95.8203 24.4896 95.0503 24.4896C91.2703 24.4896 87.9203 23.8396 84.7903 22.5096C84.1503 22.2396 83.5303 22.0996 82.9403 22.0996C82.1103 22.0996 81.3203 22.3796 80.5903 22.9196C79.3403 23.8496 78.2003 24.8796 77.2103 25.9696C75.1403 28.2396 73.1703 30.5796 70.9803 33.1796C70.2403 34.0596 69.5603 34.9996 68.9703 35.9696C68.8103 36.2296 68.6503 36.5796 68.7703 36.8196C68.8703 37.0196 69.1703 37.1596 69.6303 37.2096C70.0503 37.2596 70.4603 37.2696 70.9503 37.2696H71.4103C71.7203 37.2696 72.0303 37.2696 72.3503 37.2596C72.6603 37.2596 72.9803 37.2496 73.2903 37.2496L73.2803 37.2396ZM113.68 21.1896C113.62 21.1896 113.54 21.1896 113.47 21.2096C110.16 21.6596 107.73 22.6296 105.84 24.2596C104.61 25.3196 103.33 26.4696 102.29 27.7796C101.01 29.3796 99.8003 31.0796 98.6303 32.7196C98.1703 33.3596 97.7203 33.9996 97.2503 34.6396C97.3003 34.6396 97.3303 34.6296 97.3603 34.6196C101.53 33.7496 105.39 31.7996 108.85 28.8096C111.31 26.6896 112.98 24.4296 113.96 21.9096C114.07 21.6296 114.09 21.4096 114.02 21.3096C113.96 21.2196 113.8 21.1996 113.68 21.1996V21.1896ZM88.0503 20.3196C88.4903 20.4896 88.9403 20.6596 89.4003 20.7796C91.7003 21.3596 94.1103 21.3996 96.4303 21.4396C96.4303 21.4396 98.0403 21.4696 98.2103 21.4696C101.02 21.4696 104.01 20.9296 107.6 19.7796C108.1 19.6196 108.62 19.3696 109.2 19.0196C109.37 18.9096 109.41 18.8296 109.41 18.7996C109.41 18.7696 109.35 18.6896 109.15 18.6096C108.74 18.4496 108.3 18.2996 107.88 18.2896L106.41 18.2496C104.74 18.2096 103.08 18.1596 101.41 18.1596C100.8 18.1596 100.18 18.1596 99.5703 18.1796C96.4103 18.2496 93.4003 18.6196 90.6103 19.2896C89.8803 19.4596 89.1603 19.6696 88.4403 19.8896C88.1503 19.9696 87.8603 20.0596 87.5703 20.1396C87.7403 20.2096 87.9003 20.2696 88.0603 20.3296L88.0503 20.3196ZM75.3003 3.60961C73.8203 3.60961 72.4603 3.69961 71.1403 3.88961C69.5703 4.11961 67.9903 4.51961 66.4603 4.90961L65.6903 5.10961C65.3503 5.18961 65.1503 5.30961 65.1103 5.43961C65.0703 5.56961 65.1803 5.77961 65.4203 6.03961C66.1503 6.82961 66.7903 7.42961 67.4103 7.90961C68.2903 8.58961 69.1803 9.23961 70.0803 9.88961C70.7303 10.3596 71.3803 10.8396 72.0303 11.3196L72.8003 11.8996C75.4303 13.8796 78.1503 15.9296 81.0803 17.5896C81.9303 18.0696 82.8303 18.3096 83.8303 18.3096C84.2503 18.3096 84.6803 18.2696 85.1503 18.1896C86.1703 18.0096 87.1803 17.7196 88.1703 17.4396C89.6003 17.0396 91.0703 16.6196 92.6003 16.5096C93.5603 16.4396 94.5303 16.3096 95.4703 16.1796C96.3503 16.0596 97.2703 15.9296 98.1703 15.8596C99.3303 15.7696 100.54 15.7196 101.75 15.7196C104.07 15.7196 106.47 15.8796 109.11 16.2196L111.2 16.4896C111.14 16.3796 111.09 16.2896 111.04 16.2096C110.3 14.9696 109.29 13.8696 107.85 12.7596C104.53 10.1896 100.68 8.67961 97.7003 7.65961C93.2303 6.11961 88.5503 5.00961 83.7803 4.34961C81.2203 3.98961 78.2403 3.61961 75.3003 3.61961V3.60961Z" fill="black"/>
<path d="M74.0299 0.49957C74.2799 0.49957 74.5199 0.49957 74.7699 0.50957C77.4799 0.59957 80.2099 0.54957 82.8999 0.85957C87.6699 1.41957 92.2999 2.73957 96.8499 4.24957C99.3799 5.08957 101.95 5.86957 104.37 6.97957C109.06 9.14957 112.37 12.7596 114.54 17.4396C114.65 17.6696 114.97 17.9596 115.19 17.9596C115.26 17.9596 115.33 17.9596 115.4 17.9596C118.34 17.9596 121.09 18.7596 123.68 20.0996C127.42 22.0396 131.13 24.0496 134.14 27.0796C139.41 32.3896 142.62 38.7896 144.05 46.0996C144.68 49.2996 144.83 52.5296 144.49 55.7796C143.92 61.1396 141.9 65.8696 138.52 70.0696C135.04 74.3796 131.05 78.1496 126.6 81.3996C121.71 84.9796 116.72 88.4196 111.72 91.8596C103.66 97.3996 96.6899 104.06 90.9899 112.01C87.6199 116.72 85.1199 121.86 83.7099 127.51C82.3699 132.89 81.5099 138.32 81.9199 143.88C82.0199 145.22 82.4399 146.53 82.5099 147.87C82.5899 149.48 83.1099 150.89 83.9099 152.25C84.1099 152.59 84.2599 152.98 84.3099 153.37C84.3599 153.73 84.2699 154.12 84.2399 154.49C84.1699 154.49 84.0899 154.49 84.0199 154.49C82.6999 153.19 81.3699 151.91 80.0799 150.58C79.0799 149.56 78.1199 148.5 77.1699 147.43C76.9199 147.15 76.7499 146.8 76.5899 146.46C76.3999 146.07 76.2999 145.64 76.6699 145.29C76.9199 145.05 77.2199 144.89 77.5299 144.89C77.6899 144.89 77.8399 144.93 77.9999 145.02C78.5999 145.35 79.1499 145.78 79.7199 146.17C79.8299 146.25 79.9399 146.34 80.1499 146.51C80.0799 145.93 79.9799 145.47 79.9899 145.02C80.0899 141.25 79.9799 137.46 80.3799 133.73C80.7299 130.44 81.6599 127.22 82.3399 123.97C82.9999 120.79 83.9999 117.72 85.4799 114.81C87.7199 110.42 90.7299 106.6 93.9999 102.95C99.4099 96.9096 105.73 91.9896 112.49 87.5596C117.01 84.5896 121.48 81.5296 125.83 78.3196C130.24 75.0596 134.11 71.2196 137.06 66.5396C138.49 64.2796 139.9 61.9696 140.42 59.3096C142.49 48.5996 140.63 38.7696 133.55 30.1996C132.19 28.5596 130.59 27.1596 128.77 26.0196C126.86 24.8296 125.07 23.4496 123.14 22.2896C121.8 21.4896 120.31 20.9296 118.88 20.2796C118.69 20.1896 118.45 20.2196 118.08 20.1696C118.37 21.9796 118.57 23.6896 118.91 25.3696C120.32 32.1596 119.3 38.6396 116.51 44.8896C113.04 52.6696 107.94 59.1396 100.92 64.0396C98.7199 65.5696 96.3499 66.7996 93.7999 67.6496C93.4799 67.7596 93.2099 67.8196 92.9599 67.8196C92.4699 67.8196 92.1199 67.5796 91.8399 66.9896C91.3499 65.9396 90.9199 64.7996 90.7599 63.6596C90.4499 61.4596 90.2799 59.2196 90.1699 56.9996C89.9799 52.7496 89.7499 48.4996 90.2199 44.2496C90.3699 42.8296 90.6299 41.4196 90.8699 40.0096C90.9999 39.2696 90.9499 39.0296 90.4699 39.0296C90.3399 39.0296 90.1699 39.0496 89.9599 39.0796C88.1899 39.3496 86.4299 39.6496 84.6499 39.8296C83.2999 39.9596 81.9299 40.0296 80.5799 40.0296C80.3399 40.0296 80.0999 40.0296 79.8599 40.0296C76.7699 39.9696 73.6699 39.8096 70.5799 39.6896C69.1099 39.6296 67.6499 39.5196 66.1799 39.4796C65.6199 39.4596 65.2899 39.1996 65.0499 38.7296C64.8099 38.2396 65.0499 37.9096 65.3399 37.5496C65.7999 36.9896 66.2999 36.4196 66.6199 35.7796C67.6999 33.6096 69.1899 31.7396 70.7699 29.9196C72.2499 28.2196 73.6999 26.4896 75.2099 24.8196C75.8699 24.0896 76.6499 23.4696 77.3799 22.7996C77.9499 22.2696 78.5499 21.7696 79.0999 21.2196C79.8599 20.4696 79.8299 20.4196 78.9399 19.8696C76.5999 18.4196 74.1999 17.0396 71.9499 15.4596C69.3999 13.6796 66.9499 11.7496 64.5199 9.79957C63.1199 8.67957 61.8999 7.34957 61.0299 5.75957C60.5999 4.96957 60.2899 4.13957 60.7299 3.23957C60.9299 2.82957 61.0999 2.62957 61.3499 2.62957C61.4999 2.62957 61.6699 2.69957 61.8999 2.82957C62.1799 2.98957 62.4399 3.05957 62.6999 3.05957C62.9799 3.05957 63.2599 2.97957 63.5699 2.84957C66.9199 1.41957 70.3899 0.51957 74.0499 0.51957M83.8599 18.5296C84.3099 18.5296 84.7599 18.4796 85.2099 18.3996C87.7099 17.9596 90.0699 16.9096 92.6399 16.7196C94.4999 16.5896 96.3499 16.2096 98.2099 16.0596C99.3999 15.9596 100.59 15.9196 101.78 15.9196C104.23 15.9196 106.67 16.1096 109.11 16.4196C109.9 16.5196 110.69 16.6296 111.59 16.7396C111.43 16.4596 111.33 16.2796 111.23 16.0996C110.4 14.6996 109.27 13.5796 107.99 12.5996C104.92 10.2196 101.41 8.71957 97.7799 7.46957C93.2399 5.90957 88.5799 4.80957 83.8199 4.14957C80.9899 3.75957 78.1599 3.40957 75.3099 3.40957C73.9099 3.40957 72.5199 3.48957 71.1199 3.68957C69.2799 3.94957 67.4599 4.44957 65.6499 4.90957C64.7999 5.12957 64.6899 5.51957 65.2899 6.15957C65.9199 6.83957 66.5799 7.48957 67.3099 8.05957C68.8199 9.22957 70.3999 10.3196 71.9299 11.4696C74.8699 13.6796 77.7799 15.9296 80.9999 17.7596C81.9299 18.2896 82.8799 18.4996 83.8499 18.4996M98.2099 21.6596C101.46 21.6596 104.59 20.9496 107.67 19.9596C108.24 19.7796 108.8 19.4896 109.31 19.1796C109.75 18.9096 109.7 18.5896 109.22 18.4096C108.79 18.2496 108.33 18.0896 107.88 18.0796C105.72 18.0296 103.55 17.9596 101.39 17.9596C100.78 17.9596 100.17 17.9596 99.5599 17.9796C96.5299 18.0496 93.5199 18.3896 90.5599 19.0896C89.4899 19.3496 88.4399 19.6796 87.3699 19.9796C87.3699 20.0796 87.3699 20.1796 87.3599 20.2796C88.0299 20.5196 88.6799 20.8096 89.3599 20.9796C92.0999 21.6696 94.9099 21.5996 97.7099 21.6696C97.8799 21.6696 98.0499 21.6696 98.2199 21.6696M97.1199 34.8596C97.2199 34.8396 97.3199 34.8296 97.4199 34.8096C101.8 33.8996 105.63 31.8696 109 28.9596C111.24 27.0196 113.08 24.7796 114.16 21.9796C114.41 21.3396 114.25 20.9996 113.69 20.9996C113.62 20.9996 113.54 20.9996 113.45 21.0196C110.62 21.4096 107.92 22.2196 105.71 24.1096C104.44 25.1996 103.17 26.3496 102.13 27.6496C100.31 29.9296 98.6699 32.3396 96.9599 34.6996C97.0099 34.7496 97.0599 34.7996 97.1099 34.8596M70.9099 37.4596H71.1199C71.1799 37.4596 71.2399 37.4596 71.2999 37.4596C71.3399 37.4596 71.3799 37.4596 71.4099 37.4596C72.0399 37.4596 72.6599 37.4396 73.2899 37.4396C73.5499 37.4396 73.8099 37.4396 74.0699 37.4496C76.1299 37.5396 78.1899 37.6596 80.0099 37.7596C81.9299 37.6796 83.6199 37.6596 85.2999 37.5196C87.5899 37.3196 89.8499 36.8996 91.9399 35.8796C92.4999 35.6096 93.0499 35.1796 93.4399 34.6896C94.7899 32.9996 96.0999 31.2696 97.3699 29.5096C98.3499 28.1496 99.2899 26.7496 100.17 25.3196C100.6 24.6196 100.31 24.1896 99.4899 24.1496C99.2999 24.1496 99.0999 24.1396 98.9099 24.1396C98.4099 24.1396 97.9099 24.1696 97.4099 24.1996C96.6199 24.2496 95.8299 24.2796 95.0399 24.2796C91.5399 24.2796 88.1299 23.7096 84.8599 22.3096C84.1899 22.0196 83.5499 21.8796 82.9299 21.8796C82.0599 21.8796 81.2299 22.1696 80.4599 22.7396C79.2399 23.6496 78.0799 24.6896 77.0499 25.8096C74.9099 28.1596 72.8599 30.5896 70.8199 33.0196C70.0799 33.8996 69.3999 34.8496 68.7999 35.8296C68.2499 36.7396 68.5399 37.2496 69.6099 37.3796C70.0399 37.4296 70.4799 37.4396 70.9199 37.4396M94.7299 65.5196C95.5399 65.5196 96.2699 65.1996 96.8899 64.7296C98.2099 63.7196 99.4899 62.6696 100.73 61.5596C104.97 57.7996 108.51 53.4596 111.26 48.4996C114.43 42.7896 116.41 36.7596 116.11 30.1396C116.04 28.6596 115.77 27.1896 115.6 25.7096L115.26 25.5796C114 26.8996 112.79 28.2796 111.46 29.5296C108.43 32.3696 105.12 34.8196 101.2 36.3096C99.6399 36.8996 97.9899 37.2796 96.3599 37.6996C95.1099 38.0196 94.3099 38.6796 93.9599 39.9796C93.1499 42.9596 92.6399 45.9896 92.6299 49.0696C92.6299 52.3896 92.7599 55.7196 92.8999 59.0396C92.9799 60.8696 93.1999 62.6896 93.3699 64.5096C93.4299 65.1496 93.8399 65.4596 94.4699 65.5096C94.5499 65.5096 94.6399 65.5196 94.7199 65.5196M74.0299 0.0995703C70.6199 0.0995703 67.1399 0.86957 63.3999 2.46957C63.1199 2.58957 62.8899 2.64957 62.6899 2.64957C62.4899 2.64957 62.2999 2.58957 62.0899 2.46957C61.7899 2.29957 61.5599 2.21957 61.3399 2.21957C60.7599 2.21957 60.4999 2.75957 60.3599 3.04957C59.8299 4.12957 60.2199 5.11957 60.6699 5.93957C61.4999 7.46957 62.6699 8.82957 64.2599 10.0996C66.5899 11.9696 69.0999 13.9396 71.7099 15.7696C73.3599 16.9196 75.0999 17.9796 76.7799 18.9996C77.4299 19.3896 78.0799 19.7896 78.7199 20.1896C78.8799 20.2896 79.0899 20.4196 79.1999 20.5096C79.1099 20.6296 78.9199 20.8196 78.8099 20.9196C78.4499 21.2796 78.0599 21.6296 77.6799 21.9696C77.4899 22.1396 77.2899 22.3096 77.0999 22.4896C76.8799 22.6896 76.6499 22.8896 76.4299 23.0896C75.9099 23.5396 75.3799 24.0096 74.8999 24.5396C73.8499 25.6996 72.8199 26.8996 71.8199 28.0696C71.3699 28.5996 70.9199 29.1196 70.4599 29.6496C68.9399 31.3996 67.3799 33.3296 66.2599 35.5896C65.9999 36.1096 65.5999 36.5896 65.2199 37.0596L65.0399 37.2796C64.7599 37.6296 64.3299 38.1496 64.6999 38.8896C65.0099 39.5296 65.4999 39.8496 66.1699 39.8696C66.9999 39.8996 67.8199 39.9396 68.6499 39.9896C69.2899 40.0296 69.9299 40.0596 70.5699 40.0896L72.6399 40.1796C74.9999 40.2796 77.4499 40.3896 79.8599 40.4296C80.0999 40.4296 80.3399 40.4296 80.5899 40.4296C81.8999 40.4296 83.2899 40.3596 84.6999 40.2196C86.1299 40.0796 87.5699 39.8596 88.9599 39.6396L90.0299 39.4696C90.2299 39.4396 90.3799 39.4196 90.4799 39.4196C90.4999 39.4196 90.5199 39.4196 90.5399 39.4196C90.5399 39.4896 90.5399 39.6396 90.4799 39.9296L90.4199 40.2796C90.1999 41.5596 89.9699 42.8796 89.8299 44.1896C89.3799 48.2896 89.5699 52.4496 89.7499 56.4696L89.7699 56.9996C89.8799 59.4996 90.0799 61.6896 90.3599 63.6996C90.4999 64.7296 90.8599 65.8196 91.4799 67.1396C91.8099 67.8596 92.2999 68.2096 92.9599 68.2096C93.2399 68.2096 93.5399 68.1496 93.9199 68.0196C96.4299 67.1796 98.8599 65.9496 101.15 64.3596C107.99 59.5896 113.29 53.0996 116.88 45.0496C119.88 38.3296 120.68 31.8696 119.31 25.2796C119.08 24.1496 118.91 23.0096 118.73 21.8096C118.67 21.4096 118.61 21.0096 118.55 20.6096C118.62 20.6096 118.67 20.6296 118.71 20.6396C119.1 20.8196 119.5 20.9896 119.89 21.1596C120.91 21.5996 121.97 22.0596 122.93 22.6296C123.97 23.2496 124.99 23.9596 125.98 24.6396C126.81 25.2096 127.68 25.8096 128.55 26.3496C130.34 27.4696 131.92 28.8396 133.24 30.4396C139.88 38.4696 142.16 48.1496 140.03 59.2196C139.55 61.6996 138.31 63.8096 136.73 66.3096C133.98 70.6696 130.34 74.4896 125.6 77.9796C121.56 80.9596 117.21 83.9796 112.28 87.2096C104.48 92.3196 98.5799 97.2396 93.7099 102.67C91.0199 105.67 87.6199 109.73 85.1299 114.62C83.7099 117.4 82.6799 120.43 81.9599 123.88C81.7499 124.87 81.5199 125.87 81.2999 126.84C80.7799 129.07 80.2499 131.37 79.9999 133.68C79.7099 136.37 79.6799 139.13 79.6599 141.79C79.6499 142.86 79.6399 143.93 79.6099 145C79.6099 145.2 79.6199 145.4 79.6399 145.6L79.4899 145.49C79.0799 145.2 78.6599 144.9 78.2099 144.65C77.9999 144.53 77.7699 144.47 77.5399 144.47C77.1399 144.47 76.7499 144.65 76.3999 144.98C75.9699 145.4 75.9099 145.94 76.2299 146.61C76.3999 146.96 76.5899 147.35 76.8699 147.67C77.7699 148.69 78.7599 149.77 79.7899 150.83C80.6999 151.76 81.6399 152.69 82.5599 153.58C82.9499 153.97 83.3499 154.35 83.7399 154.74C83.8099 154.81 83.9099 154.85 84.0199 154.86H84.1199H84.2399C84.4499 154.86 84.6199 154.7 84.6399 154.49C84.6399 154.38 84.6599 154.27 84.6799 154.17C84.7199 153.88 84.7599 153.59 84.7099 153.28C84.6499 152.86 84.4899 152.41 84.2599 152.02C83.4199 150.59 82.9899 149.25 82.9199 147.82C82.8799 147.1 82.7499 146.38 82.6099 145.69C82.4899 145.08 82.3699 144.44 82.3299 143.82C81.9799 139.03 82.5499 133.87 84.1099 127.58C85.4499 122.19 87.8799 117.02 91.3199 112.22C96.8199 104.54 103.76 97.7896 111.95 92.1596C117.03 88.6696 121.99 85.2396 126.83 81.6896C131.36 78.3796 135.39 74.5396 138.82 70.2796C142.27 65.9996 144.31 61.1196 144.88 55.7796C145.23 52.5296 145.08 49.2296 144.44 45.9796C142.95 38.4196 139.58 31.9496 134.42 26.7596C131.43 23.7596 127.87 21.7896 123.86 19.7096C121.02 18.2396 118.25 17.5196 115.4 17.5196H115.19C115.19 17.5196 114.96 17.3496 114.91 17.2296C112.62 12.2696 109.14 8.68957 104.55 6.56957C102.47 5.60957 100.24 4.87957 98.0999 4.17957L96.9999 3.81957C92.9299 2.47957 88.0799 1.01957 82.9699 0.41957C81.0199 0.18957 79.0299 0.14957 77.1099 0.11957C76.3399 0.10957 75.5799 0.0895703 74.8099 0.0695703C74.5599 0.0695703 74.3099 0.0595703 74.0599 0.0595703L74.0299 0.0995703ZM65.3099 5.48957C65.3099 5.48957 65.3899 5.39957 65.7499 5.30957L66.5199 5.10957C68.0399 4.71957 69.6099 4.31957 71.1699 4.08957C72.4799 3.89957 73.8299 3.80957 75.3099 3.80957C78.2299 3.80957 81.2099 4.18957 83.7599 4.53957C88.5199 5.19957 93.1899 6.30957 97.6499 7.83957C100.62 8.85957 104.44 10.3596 107.75 12.9096C109.14 13.9896 110.12 15.0396 110.85 16.2296H110.76C110.2 16.1496 109.68 16.0796 109.16 16.0096C106.52 15.6696 104.1 15.5096 101.78 15.5096C100.56 15.5096 99.3399 15.5596 98.1799 15.6496C97.2699 15.7196 96.3499 15.8496 95.4599 15.9696C94.5199 16.0996 93.5599 16.2296 92.6099 16.2996C91.0599 16.4096 89.5699 16.8296 88.1399 17.2396C87.1599 17.5196 86.1499 17.7996 85.1399 17.9796C84.6799 18.0596 84.2599 18.0996 83.8599 18.0996C82.8999 18.0996 82.0299 17.8696 81.2099 17.4096C78.2899 15.7596 75.5799 13.7096 72.9499 11.7296L72.1799 11.1496C71.5399 10.6696 70.8799 10.1896 70.2299 9.71957C69.3499 9.07957 68.4399 8.41957 67.5699 7.73957C66.9499 7.25957 66.3299 6.66957 65.5999 5.88957C65.3399 5.60957 65.3299 5.48957 65.3299 5.47957L65.3099 5.48957ZM88.1799 20.1596L88.4699 20.0796C89.1799 19.8696 89.9199 19.6596 90.6399 19.4796C93.4099 18.8196 96.4099 18.4496 99.5599 18.3796C100.17 18.3696 100.77 18.3596 101.38 18.3596C103.04 18.3596 104.74 18.3996 106.38 18.4496L107.87 18.4896C108.26 18.4896 108.68 18.6496 109.07 18.7996C109.09 18.7996 109.11 18.8196 109.13 18.8296C109.12 18.8296 109.1 18.8496 109.09 18.8596C108.53 19.1996 108.02 19.4496 107.54 19.5996C103.96 20.7496 101 21.2796 98.2099 21.2796C98.0399 21.2796 97.8799 21.2796 97.7099 21.2796C97.2899 21.2796 96.8599 21.2596 96.4399 21.2596C94.1299 21.2196 91.7399 21.1896 89.4599 20.6096C89.0399 20.4996 88.6299 20.3496 88.1999 20.1796L88.1799 20.1596ZM97.7099 34.3296C98.0699 33.8296 98.4299 33.3296 98.7799 32.8296C99.9499 31.1896 101.16 29.4896 102.43 27.8996C103.46 26.6096 104.73 25.4596 105.95 24.4096C107.81 22.8096 110.21 21.8596 113.48 21.4096C113.55 21.4096 113.61 21.3996 113.66 21.3996C113.79 21.3996 113.84 21.4296 113.84 21.4296C113.84 21.4296 113.87 21.5396 113.76 21.8396C112.79 24.3296 111.14 26.5596 108.71 28.6596C105.39 31.5296 101.69 33.4396 97.6999 34.3396L97.7099 34.3296ZM70.8999 37.0596C70.4599 37.0596 70.0399 37.0596 69.6299 37.0096C69.2499 36.9596 68.9799 36.8596 68.9199 36.7296C68.8599 36.6096 68.9399 36.3596 69.1199 36.0696C69.7099 35.1096 70.3799 34.1796 71.1099 33.3096C73.2999 30.7096 75.2699 28.3796 77.3299 26.1096C78.3199 25.0296 79.4399 24.0096 80.6799 23.0896C81.3899 22.5596 82.1199 22.2996 82.9199 22.2996C83.4799 22.2996 84.0799 22.4296 84.6899 22.6996C87.8399 24.0396 91.2199 24.6996 95.0299 24.6996C95.8099 24.6996 96.6199 24.6696 97.4299 24.6196C97.8699 24.5896 98.3899 24.5596 98.8999 24.5596C99.0899 24.5596 99.2799 24.5596 99.4599 24.5696C99.7899 24.5896 99.9299 24.6696 99.9499 24.7196C99.9699 24.7596 99.9699 24.8896 99.8199 25.1296C98.9899 26.4796 98.0599 27.8896 97.0399 29.2996C95.7499 31.0896 94.4299 32.8296 93.1199 34.4696C92.7799 34.8996 92.2799 35.2896 91.7599 35.5496C89.9799 36.4096 87.9199 36.9196 85.2599 37.1496C84.1299 37.2496 82.9799 37.2896 81.7599 37.3296C81.1899 37.3496 80.5999 37.3696 79.9899 37.3996L78.4299 37.3096C77.0399 37.2296 75.5599 37.1496 74.0799 37.0896C73.8099 37.0796 73.5499 37.0796 73.2799 37.0796C72.9599 37.0796 72.6499 37.0796 72.3299 37.0896C72.0199 37.0896 71.7099 37.0996 71.3999 37.0996H71.2899H71.1099H70.8999V37.0596ZM94.7099 65.1396C94.6399 65.1396 94.5599 65.1396 94.4899 65.1396C93.8999 65.0896 93.7899 64.8096 93.7599 64.4996C93.7199 64.0496 93.6699 63.5996 93.6299 63.1496C93.4999 61.8096 93.3599 60.4196 93.2999 59.0596C93.1499 55.5196 93.0199 52.3396 93.0299 49.1096C93.0299 46.2996 93.4699 43.3596 94.3499 40.1196C94.6499 39.0196 95.2799 38.4196 96.4699 38.1196L97.2099 37.9296C98.5799 37.5796 99.9999 37.2196 101.35 36.7096C104.88 35.3696 108.18 33.1996 111.74 29.8496C112.66 28.9796 113.54 28.0396 114.39 27.1296C114.68 26.8196 114.97 26.5096 115.26 26.1996C115.3 26.5296 115.35 26.8596 115.39 27.1896C115.53 28.1696 115.67 29.1896 115.71 30.1896C115.98 36.0896 114.41 42.0296 110.91 48.3396C108.24 53.1396 104.73 57.4996 100.46 61.2896C99.2799 62.3396 97.9899 63.3996 96.6399 64.4396C96.0299 64.9096 95.3799 65.1496 94.7199 65.1496L94.7099 65.1396Z" fill="black"/>
<path d="M31.6299 111.749C31.3699 111.749 31.0599 111.559 30.9099 111.379C30.3799 110.769 30.2399 110.139 30.4699 109.489C30.9299 108.219 31.1199 106.799 31.0599 105.009C30.9899 102.919 31.2899 100.819 31.9599 98.5894C32.2199 97.7294 32.4699 96.8695 32.7299 95.9995C33.2399 94.2795 33.7599 92.4995 34.3299 90.7595C36.8099 83.2095 42.0599 77.9494 49.9399 75.1294C53.5399 73.8394 57.3799 73.1895 61.3499 73.1895C62.8499 73.1895 64.3899 73.2794 65.9499 73.4594C71.3899 74.0894 76.0999 75.6695 80.3599 78.2595C82.4099 79.5095 84.2599 81.1895 86.3599 83.7195C86.9599 84.4495 87.5699 85.1694 88.1799 85.8895C88.7799 86.5995 89.3899 87.3194 89.9799 88.0294C90.3499 88.4694 90.7699 88.9995 91.1599 89.5795C91.9099 90.6895 92.1899 91.8695 92.0099 93.1895C91.9099 93.9395 91.8999 94.7195 91.8799 95.4695C91.8799 95.7995 91.8699 96.1294 91.8599 96.4594C91.8599 96.5894 91.8599 96.7295 91.8599 96.9095V97.2495C91.8599 97.3295 91.8099 97.3995 91.7399 97.4295C91.7099 97.4395 91.6899 97.4494 91.6599 97.4494C91.6099 97.4494 91.5599 97.4295 91.5299 97.3995L91.2499 97.1495C91.0799 96.9995 90.9499 96.8794 90.8199 96.7495C90.7199 96.6395 90.6599 96.6294 90.6499 96.6294C90.6199 96.6294 90.5599 96.6695 90.5099 96.7495C90.4799 96.7895 90.4399 96.8295 90.4099 96.8695C90.3799 96.8995 90.3499 96.9395 90.3199 96.9695C88.4099 99.7895 85.4499 100.919 82.5299 101.729C81.1999 102.099 79.7899 102.289 78.3399 102.289C76.4699 102.289 74.5099 101.989 72.3399 101.369C69.7699 100.639 67.1899 99.7994 64.6999 98.9894L63.3799 98.5594C60.5799 97.6594 57.7599 97.1994 55.0099 97.1994C54.0399 97.1994 53.0599 97.2595 52.0899 97.3695C46.2299 98.0495 41.5699 99.8895 37.8199 103.009C35.1499 105.229 33.3099 107.939 32.3299 111.079C32.2499 111.349 31.9899 111.689 31.7199 111.749C31.7099 111.749 31.6299 111.759 31.6199 111.759L31.6299 111.749ZM61.9199 76.0194C58.6899 76.0194 55.3999 76.4695 52.1199 77.3695C45.6699 79.1295 40.8799 82.9695 37.8699 88.7895C36.3799 91.6695 35.2599 94.8494 34.3299 98.8094C33.9399 100.459 33.6099 102.139 33.3199 103.619C33.2999 103.729 33.3299 103.869 33.3699 104.009V104.029C33.3699 104.029 33.3799 104.029 33.3899 104.029C33.5299 103.989 33.6699 103.949 33.7499 103.889C34.3999 103.319 34.9199 102.819 35.3899 102.319C37.7399 99.8095 40.6499 97.9195 44.0199 96.6895C46.9699 95.6095 50.2399 95.0594 54.2999 94.9494C54.7399 94.9394 55.1799 94.9295 55.6099 94.9295C58.2899 94.9295 60.4299 95.1995 62.3599 95.7895C64.4199 96.4195 66.4199 97.0894 68.0999 97.6694L68.5999 97.8394C71.2299 98.7394 73.9399 99.6795 76.7699 99.9795C77.3599 100.039 77.9399 100.069 78.4999 100.069C81.6499 100.069 84.4699 99.0794 86.8899 97.1294C87.5499 96.5994 88.1799 95.8794 88.8199 94.9494C89.4099 94.0894 89.4899 93.1095 89.0599 92.1895C87.5899 89.0495 85.6399 86.8695 83.0899 85.5095C77.7499 82.6595 72.5899 81.1795 67.3199 80.9695C66.7799 80.9495 66.2499 80.9395 65.7099 80.9395C62.1399 80.9395 58.9999 81.4295 56.1299 82.4395C52.4299 83.7395 48.7599 85.7195 44.5999 88.6595L44.1599 88.9594C44.1599 88.9594 44.0899 88.9995 44.0499 88.9995C44.0099 88.9995 43.9699 88.9894 43.9299 88.9594C43.8599 88.9094 43.7199 88.7295 43.7499 88.6495C43.7799 88.5795 43.7999 88.5095 43.8199 88.4395C43.8699 88.2595 43.9299 88.0694 44.0499 87.9194C44.1899 87.7494 44.3199 87.5695 44.4599 87.3895C44.9199 86.7894 45.3899 86.1695 45.9499 85.6495C47.6699 84.0595 49.7399 82.9195 51.7299 81.8195C55.6399 79.6595 59.4599 78.4694 63.3999 78.1994C64.1299 78.1494 64.8699 78.1195 65.5999 78.1195C68.8899 78.1195 72.3299 78.6395 75.8199 79.6595C76.7899 79.9495 77.7499 80.2794 78.7499 80.6294C78.8399 80.6594 78.9199 80.6895 79.0099 80.7195C77.2899 79.5895 75.6499 78.7494 74.0199 78.1694C70.0499 76.7494 65.9799 76.0395 61.9199 76.0395V76.0194Z" fill="black"/>
<path d="M61.3597 73.3895C62.8797 73.3895 64.3997 73.4795 65.9297 73.6595C71.0397 74.2595 75.8497 75.7495 80.2597 78.4295C82.5897 79.8495 84.4797 81.7595 86.2097 83.8395C87.4097 85.2895 88.6297 86.7095 89.8397 88.1595C90.2497 88.6495 90.6497 89.1595 91.0097 89.6895C91.7097 90.7395 91.9997 91.8695 91.8297 93.1595C91.6797 94.2495 91.7197 95.3595 91.6797 96.4595C91.6797 96.6695 91.6797 96.8795 91.6797 97.2595C91.3697 96.9795 91.1597 96.8095 90.9897 96.6195C90.8797 96.4995 90.7697 96.4295 90.6697 96.4295C90.5697 96.4295 90.4697 96.4895 90.3697 96.6195C90.3097 96.6995 90.2297 96.7695 90.1697 96.8495C88.3197 99.5695 85.4797 100.699 82.4997 101.529C81.1197 101.909 79.7397 102.079 78.3697 102.079C76.3697 102.079 74.3897 101.729 72.4197 101.169C69.4097 100.309 66.4397 99.3295 63.4597 98.3695C60.6897 97.4795 57.8897 96.9995 55.0297 96.9995C54.0497 96.9995 53.0697 97.0595 52.0897 97.1695C46.7897 97.7795 41.8797 99.3895 37.7097 102.849C35.0897 105.029 33.1797 107.719 32.1597 111.009C32.0897 111.219 31.8797 111.499 31.6897 111.539C31.6697 111.539 31.6497 111.539 31.6297 111.539C31.4497 111.539 31.1897 111.389 31.0597 111.239C30.6397 110.759 30.4197 110.199 30.6597 109.549C31.1997 108.079 31.3197 106.539 31.2697 104.999C31.1997 102.829 31.5397 100.719 32.1697 98.6395C32.9597 96.0295 33.6797 93.4095 34.5297 90.8195C37.0797 83.0595 42.4197 78.0295 50.0097 75.3195C53.7197 73.9895 57.4997 73.3895 61.3597 73.3895ZM33.2197 104.279C33.4397 104.199 33.7097 104.169 33.8697 104.029C34.4397 103.529 34.9997 102.999 35.5197 102.449C37.9197 99.8995 40.7897 98.0695 44.0697 96.8695C47.3697 95.6595 50.7997 95.2395 54.2897 95.1395C54.7297 95.1295 55.1597 95.1195 55.5997 95.1195C57.8597 95.1195 60.0997 95.3095 62.2897 95.9695C64.2097 96.5595 66.1197 97.1895 68.0297 97.8495C70.8797 98.8295 73.7097 99.8495 76.7397 100.169C77.3297 100.229 77.9197 100.269 78.4997 100.269C81.6197 100.269 84.4897 99.3195 87.0197 97.2795C87.7797 96.6595 88.4297 95.8695 88.9897 95.0495C89.5997 94.1595 89.7197 93.0995 89.2497 92.0895C87.9097 89.2295 86.0197 86.8195 83.1897 85.3095C78.2297 82.6595 72.9897 80.9695 67.3297 80.7495C66.7897 80.7295 66.2497 80.7195 65.7097 80.7195C62.4297 80.7195 59.2097 81.1295 56.0697 82.2295C51.8797 83.6995 48.0997 85.9295 44.4897 88.4795C44.3497 88.5795 44.1997 88.6795 44.0597 88.7795C44.0197 88.7495 43.9897 88.7295 43.9497 88.6995C44.0397 88.4695 44.0697 88.1995 44.2197 88.0195C44.8197 87.2495 45.3897 86.4295 46.0997 85.7695C47.7997 84.1995 49.8297 83.0795 51.8497 81.9695C55.4697 79.9695 59.2897 78.6595 63.4397 78.3795C64.1697 78.3295 64.8997 78.2995 65.6197 78.2995C69.0697 78.2995 72.4497 78.8595 75.7797 79.8395C77.1997 80.2595 78.5897 80.7795 80.1497 81.3095C79.8297 81.0595 79.6297 80.8695 79.4097 80.7195C77.7497 79.5995 75.9997 78.6395 74.1097 77.9695C70.0797 76.5295 66.0297 75.8195 61.9397 75.8195C58.6697 75.8195 55.3797 76.2695 52.0797 77.1695C45.6397 78.9295 40.7897 82.7195 37.6997 88.6895C36.0497 91.8795 34.9597 95.2695 34.1397 98.7595C33.7697 100.359 33.4497 101.969 33.1297 103.579C33.0897 103.799 33.1897 104.049 33.2297 104.289M61.3697 72.9995C57.3697 72.9995 53.5097 73.6595 49.8897 74.9495C41.9497 77.7895 36.6597 83.0895 34.1597 90.7095C33.5897 92.4495 33.0597 94.2395 32.5597 95.9595C32.3097 96.8195 32.0597 97.6795 31.7997 98.5295C31.1197 100.789 30.8197 102.909 30.8897 105.019C30.9497 106.779 30.7597 108.179 30.3097 109.419C30.1297 109.909 30.0597 110.679 30.7797 111.509C30.9697 111.729 31.3297 111.949 31.6497 111.949C31.6997 111.949 31.7497 111.949 31.7997 111.929C32.1597 111.849 32.4597 111.459 32.5597 111.129C33.5197 108.039 35.3497 105.349 37.9797 103.159C41.6997 100.069 46.3297 98.2395 52.1497 97.5695C53.1097 97.4595 54.0897 97.3995 55.0497 97.3995C57.7797 97.3995 60.5797 97.8495 63.3597 98.7495L64.6197 99.1595C67.1397 99.9695 69.7397 100.819 72.3297 101.559C74.5197 102.189 76.4997 102.489 78.3897 102.489C79.8497 102.489 81.2797 102.299 82.6297 101.929C85.5797 101.119 88.5797 99.9695 90.5297 97.0895C90.5497 97.0595 90.5797 97.0395 90.5997 97.0095C90.6397 96.9695 90.6797 96.9295 90.7097 96.8795C90.7097 96.8795 90.7097 96.8895 90.7297 96.8995C90.8497 97.0295 90.9897 97.1595 91.1697 97.3095C91.2497 97.3795 91.3397 97.4595 91.4497 97.5595C91.5297 97.6295 91.6197 97.6595 91.7197 97.6595C91.7697 97.6595 91.8297 97.6495 91.8797 97.6295C92.0197 97.5695 92.1197 97.4195 92.1197 97.2595V96.9095C92.1197 96.7395 92.1197 96.6095 92.1197 96.4695C92.1297 96.1395 92.1397 95.8095 92.1397 95.4695C92.1497 94.7195 92.1597 93.9495 92.2597 93.2095C92.4397 91.8495 92.1597 90.6195 91.3797 89.4695C90.9897 88.8895 90.5497 88.3495 90.1797 87.9095C89.5897 87.1995 88.9897 86.4895 88.3997 85.7895C87.7797 85.0595 87.1697 84.3295 86.5597 83.5895C84.4397 81.0395 82.5797 79.3495 80.5097 78.0895C76.2197 75.4795 71.4797 73.8995 66.0197 73.2595C64.4597 73.0795 62.8997 72.9795 61.3997 72.9795L61.3697 72.9995ZM33.5297 103.789C33.5297 103.789 33.5197 103.699 33.5297 103.669C33.8797 101.879 34.1797 100.399 34.5397 98.8695C35.4597 94.9295 36.5797 91.7595 38.0597 88.8895C41.0397 83.1195 45.7997 79.3095 52.1897 77.5695C55.4497 76.6795 58.7297 76.2295 61.9397 76.2295C65.9797 76.2295 70.0297 76.9395 73.9697 78.3495C75.0997 78.7495 76.2197 79.2795 77.3797 79.9295C76.8797 79.7595 76.3897 79.5995 75.8897 79.4595C72.3897 78.4295 68.9297 77.9095 65.6197 77.9095C64.8797 77.9095 64.1397 77.9395 63.4097 77.9895C59.4397 78.2595 55.5997 79.4595 51.6597 81.6295C49.6497 82.7395 47.5797 83.8795 45.8397 85.4895C45.2697 86.0195 44.7897 86.6495 44.3297 87.2495C44.1897 87.4295 44.0597 87.6095 43.9197 87.7795C43.7697 87.9695 43.7097 88.1795 43.6497 88.3695C43.6297 88.4395 43.6097 88.4995 43.5897 88.5595C43.5297 88.7295 43.5897 88.9195 43.7297 89.0195L43.8397 89.0995C43.9097 89.1495 43.9997 89.1795 44.0797 89.1795C44.1597 89.1795 44.2397 89.1595 44.3097 89.1095L44.4397 89.0195C44.5397 88.9495 44.6497 88.8795 44.7497 88.8095C48.8997 85.8795 52.5397 83.9095 56.2297 82.6095C59.0797 81.6095 62.1897 81.1195 65.7397 81.1195C66.2697 81.1195 66.8097 81.1295 67.3397 81.1495C72.5897 81.3495 77.7197 82.8295 83.0297 85.6595C85.5397 86.9995 87.4597 89.1595 88.9097 92.2495C89.3097 93.1095 89.2297 94.0195 88.6797 94.8195C88.0497 95.7395 87.4297 96.4395 86.7897 96.9595C84.4097 98.8795 81.6297 99.8595 78.5297 99.8595C77.9697 99.8595 77.3997 99.8295 76.8197 99.7695C74.0197 99.4695 71.3097 98.5395 68.6897 97.6395L68.1997 97.4695C66.5097 96.8895 64.5097 96.2195 62.4497 95.5895C60.4997 94.9995 58.3397 94.7195 55.6397 94.7195C55.1997 94.7195 54.7597 94.7195 54.3197 94.7395C50.2397 94.8495 46.9497 95.4095 43.9797 96.4895C40.5797 97.7295 37.6497 99.6395 35.2797 102.169C34.8197 102.659 34.2997 103.149 33.6597 103.719C33.6397 103.739 33.6097 103.749 33.5697 103.769L33.5297 103.789Z" fill="black"/>
<path d="M97.1199 139.01C97.1199 139.01 97.0599 139.01 97.0399 138.99L96.8399 138.9C96.7399 138.86 96.6999 138.75 96.7399 138.65C96.8299 138.41 96.9199 138.17 96.9999 137.93C97.1899 137.39 97.3799 136.86 97.6199 136.34C98.7399 133.86 100.57 131.81 102.18 130.01L102.78 129.34C104.87 126.99 107.04 124.56 109.6 122.58C115.16 118.28 121.42 115.54 128.21 114.41C129.36 114.22 130.38 114.13 131.32 114.13C132.68 114.13 133.93 114.32 135.12 114.71C139.65 116.18 142.47 120.52 141.82 125.02C141.47 127.49 140.18 129.38 138.01 130.63C136.45 131.53 134.78 131.98 133.04 131.98C132.58 131.98 132.11 131.95 131.64 131.89C127.28 131.3 123.49 130.54 120.07 129.56C118.7 129.17 117.33 128.67 116.02 128.19L115.67 128.07C114.57 127.67 113.45 127.47 112.35 127.47C109.59 127.47 107.07 128.73 105.27 131.01C105.07 131.26 104.84 131.52 104.53 131.72C104.5 131.74 104.46 131.75 104.42 131.75C104.38 131.75 104.34 131.74 104.31 131.71C104.24 131.67 104.21 131.59 104.23 131.51L104.44 130.44C101.97 132.54 100.04 135.19 98.1699 137.74L97.2899 138.93C97.2499 138.98 97.1899 139.01 97.1299 139.01H97.1199ZM111.93 124.2C112.1 124.22 112.27 124.25 112.45 124.28C112.9 124.36 113.35 124.43 113.8 124.49C114.8 124.64 115.83 124.8 116.83 125.06C118.68 125.54 120.51 126.05 122.35 126.56C123.96 127.01 125.57 127.46 127.19 127.89C129.58 128.52 131.83 128.83 134.05 128.83C134.47 128.83 134.89 128.82 135.31 128.8C136.32 128.75 137.06 128.36 137.57 127.62C138.1 126.85 138.61 126 139.07 125.11C139.63 124.03 139.63 122.84 139.09 121.58C138.51 120.24 137.52 119.19 135.97 118.29C134.57 117.48 133.02 117.08 131.22 117.08C130.5 117.08 129.75 117.14 128.92 117.27C124.43 117.96 119.96 119.47 115.65 121.76C114.71 122.26 113.79 122.87 112.91 123.46C112.54 123.7 112.17 123.95 111.8 124.19L111.93 124.22V124.2Z" fill="black"/>
<path d="M131.31 114.34C132.56 114.34 133.81 114.5 135.05 114.91C139.47 116.35 142.25 120.56 141.62 125C141.27 127.42 140.01 129.26 137.91 130.47C136.39 131.35 134.76 131.8 133.05 131.8C132.6 131.8 132.14 131.77 131.68 131.71C127.78 131.19 123.92 130.47 120.14 129.38C118.66 128.95 117.2 128.42 115.75 127.89C114.61 127.48 113.47 127.28 112.36 127.28C109.58 127.28 106.99 128.53 105.12 130.89C104.92 131.14 104.71 131.37 104.43 131.55C104.52 131.1 104.61 130.65 104.7 130.2C104.63 130.19 104.55 130.17 104.48 130.16C101.54 132.62 99.4 135.77 97.14 138.82C97.07 138.79 97.01 138.76 96.94 138.73C97.23 137.97 97.48 137.18 97.81 136.44C98.89 134.04 100.6 132.1 102.33 130.16C104.66 127.55 106.93 124.9 109.72 122.75C115.22 118.5 121.37 115.76 128.24 114.62C129.28 114.45 130.3 114.34 131.32 114.34M134.06 129.03C134.48 129.03 134.9 129.02 135.32 129C136.35 128.94 137.17 128.55 137.74 127.73C138.3 126.92 138.8 126.07 139.25 125.2C139.87 123.99 139.81 122.73 139.27 121.5C138.61 119.98 137.47 118.93 136.06 118.11C134.51 117.21 132.89 116.87 131.21 116.87C130.44 116.87 129.66 116.94 128.88 117.06C124.17 117.78 119.74 119.34 115.55 121.57C114.16 122.31 112.88 123.24 111.55 124.08C111.58 124.17 111.61 124.27 111.64 124.36C111.9 124.4 112.15 124.43 112.41 124.47C113.87 124.72 115.35 124.88 116.78 125.25C120.25 126.14 123.68 127.17 127.14 128.08C129.41 128.68 131.71 129.02 134.05 129.02M131.31 113.93C130.35 113.93 129.32 114.02 128.17 114.21C121.35 115.34 115.06 118.1 109.47 122.41C106.9 124.4 104.73 126.83 102.63 129.19L102.02 129.87C100.4 131.69 98.56 133.74 97.43 136.25C97.19 136.77 97 137.32 96.81 137.85C96.72 138.09 96.64 138.33 96.55 138.57C96.48 138.77 96.57 138.99 96.76 139.07L96.86 139.12L96.96 139.17C97.01 139.19 97.07 139.21 97.13 139.21C97.25 139.21 97.37 139.15 97.45 139.05C97.74 138.65 98.04 138.25 98.33 137.85C100.08 135.46 101.89 132.99 104.13 130.97L104.03 131.46C104 131.62 104.06 131.78 104.2 131.87C104.27 131.92 104.35 131.94 104.43 131.94C104.5 131.94 104.58 131.92 104.64 131.88C104.98 131.67 105.23 131.39 105.44 131.13C107.21 128.9 109.67 127.67 112.37 127.67C113.45 127.67 114.55 127.87 115.62 128.26L115.96 128.38C117.28 128.86 118.65 129.36 120.03 129.75C123.47 130.74 127.26 131.5 131.63 132.09C132.11 132.15 132.59 132.19 133.06 132.19C134.83 132.19 136.53 131.73 138.12 130.81C140.35 129.53 141.67 127.59 142.03 125.05C142.69 120.45 139.81 116.03 135.19 114.53C133.97 114.13 132.71 113.94 131.32 113.94L131.31 113.93ZM112.33 124.05C112.56 123.9 112.79 123.75 113.02 123.6C113.9 123.02 114.81 122.41 115.75 121.92C120.04 119.64 124.48 118.14 128.95 117.45C129.77 117.32 130.51 117.26 131.22 117.26C132.98 117.26 134.5 117.65 135.87 118.44C137.38 119.32 138.35 120.34 138.91 121.64C139.43 122.84 139.43 123.97 138.9 125C138.44 125.89 137.94 126.73 137.41 127.49C136.93 128.18 136.24 128.54 135.3 128.59C134.89 128.61 134.47 128.62 134.06 128.62C131.86 128.62 129.63 128.32 127.25 127.69C125.64 127.27 124.01 126.81 122.44 126.37C120.63 125.86 118.75 125.34 116.89 124.86C115.88 124.6 114.84 124.44 113.83 124.29C113.38 124.22 112.93 124.15 112.49 124.08C112.44 124.08 112.39 124.06 112.34 124.06L112.33 124.05Z" fill="black"/>
</g>
<defs>
<clipPath id="clip0_444_4478">
<rect width="175" height="155" fill="white"/>
</clipPath>
</defs>
</svg>
