<svg width="175" height="155" viewBox="0 0 175 155" fill="none" xmlns="http://www.w3.org/2000/svg">
<path d="M162.57 114.25C161.95 113.76 161.09 113.88 160.59 114.5C150.46 127.1 135.03 137.35 116.87 143.52C101.93 148.58 86.0002 150.31 77.3502 147.84C76.9802 147.72 76.8602 147.47 76.8602 147.22C76.8602 146.97 76.9802 146.73 77.3502 146.6C79.8202 146.11 85.7502 144.62 87.3502 142.03C87.7202 141.29 87.8402 140.55 87.6002 139.81C86.7402 137.34 82.2902 136.85 77.1002 136.35C72.2802 135.86 66.8502 135.24 64.2602 132.89C63.7702 132.4 63.7702 131.78 63.8902 131.41C64.0102 131.04 64.5102 130.67 65.1202 130.67C66.3502 130.79 67.9602 131.04 69.8102 131.41C76.1102 132.4 84.0102 133.76 86.8502 131.53C87.4702 131.04 87.8402 130.42 87.8402 129.68C88.2102 125.98 80.9202 124 74.5002 122.39C70.5502 121.28 66.8402 120.29 66.2302 119.18C66.1102 119.06 66.1102 118.93 66.2302 118.81C66.9702 116.96 72.4002 118.19 78.0902 119.43C84.8802 120.91 92.5402 122.64 95.8702 120.17C96.8602 119.43 97.3502 118.32 97.4802 116.96C97.6002 113.87 93.4002 111.77 90.4402 110.29C89.4502 109.8 88.7102 109.43 88.2202 109.06C87.8502 108.81 87.6002 108.44 87.7302 108.2C87.8602 107.96 88.1002 107.83 88.4702 107.83C113.79 108.32 136.88 99.4299 151.82 83.3799C163.92 70.4099 169.48 53.9899 167.75 36.0799C166.27 19.7799 155.28 6.68986 139.84 2.60986C137.99 2.11986 135.89 1.61986 133.42 1.37986C129.34 1.12986 125.27 1.25986 121.56 1.99986C107.73 4.46986 97.2302 14.3499 91.5502 29.7899C88.4602 23.3699 84.1402 17.8099 79.3202 13.8599C70.4302 6.32986 56.4702 3.85986 45.4802 7.92986C36.9602 11.1399 31.4002 17.6899 30.0402 26.4499C28.8102 34.1099 31.4002 41.1499 37.3302 46.2099C46.1002 53.7399 60.5502 55.3499 75.0002 50.5299C75.8602 50.2799 76.4802 50.2799 76.6102 50.5299C76.7302 50.7799 76.6102 51.1499 76.1202 51.6399C75.1302 52.8699 73.1602 53.9899 71.4302 55.0999C68.8402 56.7099 66.1202 58.3099 65.6302 60.2899C65.5102 61.1499 65.7502 62.0199 66.3702 63.0099C69.0902 66.5899 76.9902 63.8699 84.0302 61.3999C89.5902 59.4199 94.9002 57.5699 95.8902 59.5499C96.0102 59.7999 96.0102 60.0399 95.8902 60.1699C95.2702 61.6499 91.0702 63.1299 86.8802 64.4899C80.9502 66.5899 74.7802 68.6899 75.4002 71.7799C75.6502 73.0099 76.3902 73.9999 77.3802 74.7399C81.0802 76.9599 88.8602 74.7399 93.9302 73.3799C94.7902 73.1299 95.5402 72.8899 96.2802 72.7599C98.2602 72.2699 99.7402 72.7599 100.11 73.2499C100.23 73.4999 100.11 73.7399 99.7402 73.9899C96.7802 76.5799 91.4702 77.5699 86.7702 78.4399C81.8302 79.4299 77.6302 80.1699 76.2702 82.3899C75.7802 83.1299 75.7802 84.1199 76.0202 85.1099C77.0102 87.9499 81.9502 88.1999 89.7302 87.6999C93.0602 87.4499 93.3102 88.0699 93.3102 88.0699C93.3102 88.1899 92.8202 88.8099 91.7002 89.2999C77.8702 93.9899 60.9502 92.7599 45.3902 86.0899C29.9502 79.4199 17.8502 68.0599 12.1702 54.7199C11.9202 53.9799 11.0602 53.7299 10.3202 53.9799L6.74016 55.5899C6.00016 55.9599 5.75016 56.8199 6.00016 57.4399C16.7402 78.7999 35.2702 88.3099 48.9802 92.6399C66.5202 98.0699 82.9402 97.2099 91.4602 93.8699C96.6502 91.8899 98.8702 89.0499 98.0102 85.9699C97.1502 83.2499 92.7002 83.6199 87.8802 83.9899C87.0202 84.1099 86.1502 84.1099 85.2902 84.2399C82.8202 84.3599 81.0902 84.1199 80.7202 83.8699C80.8402 83.7499 81.3402 83.6199 82.3302 83.4999C95.4202 81.3999 103.2 78.5599 105.3 75.0999C105.92 74.1099 106.04 73.1199 105.79 72.0099C105.3 70.3999 104.06 69.1699 102.33 68.6799C99.1202 67.6899 94.4302 68.7999 89.8602 69.9099C88.0102 70.3999 86.2802 70.7699 84.6702 71.0199C83.0602 71.2699 82.3202 71.2699 81.9502 71.1399C82.0702 71.1399 82.0702 71.0199 82.3202 71.0199C93.8002 67.1899 101.58 63.8599 102.57 60.0299C102.94 58.6699 102.45 57.3099 101.09 55.9499C96.8902 51.7499 87.5102 54.9599 79.9702 57.6799C77.5002 58.5399 75.1502 59.4099 73.3002 59.7799C72.3102 60.0299 71.6902 60.0299 71.4502 60.0299C80.7102 55.4599 83.8002 50.3999 82.8102 47.4299C81.8202 44.7099 77.8702 43.7299 72.4402 45.0799C49.4702 50.6399 40.8302 42.3599 38.2302 38.5299C34.6502 33.3399 34.7702 26.4299 38.4802 20.9899C43.5402 13.5799 53.1802 10.7399 64.4102 13.3299C73.4202 15.6799 81.3302 23.0899 86.0202 33.8299V33.9499C86.1402 34.1999 86.1402 34.3199 86.2702 34.5699L86.5202 35.0599C87.1402 36.6699 88.5002 37.8999 90.1002 38.2699C92.6902 39.0099 95.4102 37.7799 96.5202 35.3099C96.7702 34.6899 97.0102 34.0799 97.1402 33.4599C97.7602 31.8499 98.2502 30.1299 98.9902 28.5199C104.3 17.6499 112.57 10.3699 122.45 8.38986C125.66 7.64987 129.37 7.52986 133.19 7.76986C144.18 8.99986 153.2 15.2999 157.89 24.8099C166.78 42.9599 159.87 65.6899 148.26 78.6499C135.17 93.8399 113.68 102.11 89.4802 101.62C84.0502 101.5 82.0702 103.72 81.4502 105.08C80.5902 106.81 80.9602 109.03 82.1902 110.64C84.0402 112.74 87.7502 114.59 89.7202 115.58C89.8402 115.58 89.8402 115.7 89.8402 115.7C89.8402 115.7 89.8402 115.82 89.7202 115.82C88.3602 116.07 85.5202 115.33 82.3102 114.59C74.6502 112.74 64.1602 110.27 61.1902 116.69C60.7002 117.92 60.8202 119.16 61.3102 120.27C63.0402 123.73 69.7102 125.58 74.0302 126.82C75.2602 127.19 76.3802 127.44 76.9902 127.68C75.8802 127.8 73.7802 127.56 71.5602 127.19C67.1102 126.57 62.1702 125.83 60.2002 127.81C59.4602 128.55 59.2102 129.42 59.3402 130.65C59.7102 134.11 62.8002 140.04 79.7202 140.65C79.7202 140.65 79.7202 140.77 79.6002 140.77C76.7602 141.14 74.7802 142.13 73.5502 142.87C71.5702 143.98 70.3402 145.96 70.5902 147.81C70.7102 149.66 72.2002 151.27 74.4202 152.01C78.9902 153.62 84.3002 154.23 89.8602 154.23C114.81 154.23 147.16 139.78 166.06 118.54C166.55 117.92 166.55 117.06 165.81 116.56L162.6 114.21L162.57 114.25Z" fill="black"/>
<path d="M112.06 48.9203C110.45 49.6603 109.84 51.3903 110.33 53.0003C110.95 54.6103 112.68 55.4703 114.28 54.9803C117.98 53.8703 126.63 51.1503 132.31 65.4803C132.8 66.7103 134.04 67.4603 135.27 67.4603C135.52 67.4603 135.89 67.4603 136.13 67.3403C137.74 66.8503 138.85 65.3603 138.48 63.6403L138.36 63.0203C137.5 57.8303 136.14 49.0703 147.87 42.7703C149.35 41.9103 149.97 40.0503 149.23 38.4503C148.49 36.8403 146.64 36.2303 145.03 36.8403C138.73 39.5603 133.92 40.6703 128.48 28.5703C127.86 27.0903 126.26 26.3503 124.78 26.7203C123.17 27.0903 122.19 28.4503 122.19 30.0503C122.19 30.5403 122.31 31.1603 122.31 31.7803C123.05 36.9703 123.67 43.6403 112.06 48.9503V48.9203ZM128.24 39.2903C130.71 42.2503 133.55 43.9803 136.88 44.4803C134.29 47.6903 133.05 51.0303 132.56 54.2403C129.84 51.2803 126.76 49.3003 123.17 48.6803C126.26 45.4703 127.62 42.2603 128.23 39.2903H128.24Z" fill="black"/>
</svg>
