<svg width="195" height="155" viewBox="0 0 195 155" fill="none" xmlns="http://www.w3.org/2000/svg">
<g clip-path="url(#clip0_444_4504)">
<path d="M107.81 56.8102C107.35 57.8902 107.26 59.6302 108.08 60.5602C108.8 61.3802 110.94 61.6702 111.03 60.1002C111.08 59.1502 109.9 58.6402 109.4 58.0002C109.15 57.6702 108.29 55.7202 107.82 56.8102H107.81Z" fill="black"/>
<path d="M121.99 50.2504C120.71 52.2604 119.88 54.9104 118.03 56.5004C117.11 57.2904 116.69 57.1104 115.82 56.3904C114.97 55.6904 113.64 54.8704 113.72 56.7504C113.83 59.2004 117.51 61.7804 119.2 59.4004C120.22 57.9604 121.03 56.2403 121.91 54.7104C122.83 53.1104 124.24 51.1604 123.08 49.3604C122.71 49.6304 122.25 49.8703 121.99 50.2603V50.2504Z" fill="black"/>
<path d="M122.101 36.8003C120.371 35.6703 117.811 35.4703 115.821 35.8603C113.881 36.2503 113.211 37.8603 115.211 38.9303C116.621 39.6803 118.591 39.5803 120.121 39.4203C121.391 39.2903 124.321 38.2403 122.091 36.7903L122.101 36.8003Z" fill="black"/>
<path d="M109.17 46.3702C108.73 47.7702 108.36 49.7402 109.03 51.1202C110.27 53.6602 113.75 52.4502 115.42 51.1002C116.21 50.4702 117.31 49.1502 117.27 48.0502C117.2 45.8902 115.33 47.6302 114.51 48.2302C113.72 48.8102 111.93 50.2002 110.9 49.5602C109.73 48.8302 110.69 46.8002 110.84 45.7802C111.21 43.3202 109.53 45.2302 109.17 46.3602V46.3702Z" fill="black"/>
<path d="M134.25 43.9105C135.13 42.7805 133.51 41.0105 132.83 40.2105C132.23 39.5105 130.46 37.3605 129.58 38.8805C129.05 39.8005 130.3 41.5205 130.89 42.1305C131.55 42.8005 133.22 45.2205 134.25 43.9005V43.9105Z" fill="black"/>
<path d="M127.791 52.8799C126.051 53.1099 126.671 50.7999 126.381 49.9199C125.831 48.3099 125.011 50.4999 124.871 51.0899C124.611 52.1599 124.611 53.4199 125.121 54.4199C126.481 57.0999 129.221 55.6499 130.201 53.5299C130.641 52.5699 131.171 48.7399 129.461 50.7599C128.951 51.3599 128.751 52.7399 127.791 52.8699V52.8799Z" fill="black"/>
<path d="M93.11 32.1804C91.59 31.8804 89.47 32.6504 90.51 34.4604C91.39 35.9704 93.7 36.3604 95.25 36.7504C96.93 37.1704 97.75 36.5504 97.18 34.7104C96.62 32.9204 94.75 32.5104 93.11 32.1904V32.1804Z" fill="black"/>
<path d="M116.56 100.06C117.15 99.1001 117.62 98.2401 117.84 97.1501C117.88 96.9401 117.99 95.1001 117.99 95.1001C119.81 93.9001 118.45 90.5701 117.68 88.8701C117.49 88.4401 117.17 87.6101 116.79 87.3201C116.64 87.2001 116.24 87.3901 116.02 87.2601C115.84 87.1501 115.76 86.8801 115.59 86.7801C114.28 86.0101 112.8 85.5501 111.28 85.3701C108.22 85.0201 104.93 86.7101 102.83 88.8001C101.66 89.9701 101.24 90.1401 100.34 88.7201C99.5704 87.5001 98.6904 86.2601 97.3704 85.6001C95.0204 84.4401 91.6404 84.7301 89.2404 85.6001C86.6104 86.5701 84.9604 89.0701 84.2904 91.7101C82.7104 97.9401 88.3504 105.44 93.2404 108.76C94.6504 109.72 96.2804 110.25 97.6504 111.3C98.8104 112.19 99.7804 112.89 101.23 112.17C102.59 111.49 104.02 110.57 105.27 109.69C106.69 108.69 108.39 108.12 109.75 107.07C112.4 105.04 114.79 102.93 116.56 100.06Z" fill="black"/>
<path d="M178.1 89.8902C166.14 78.1202 150.15 71.0102 134.07 66.5802C134.26 66.5402 134.45 66.5102 134.64 66.4702C135.34 66.7602 136.12 66.8902 136.88 66.8302C138.5 66.7002 139.98 65.9102 141.34 65.0402C151.1 58.7802 157.25 47.2702 157.02 35.6802C156.83 25.8202 152 16.2002 144.41 9.93016C144.39 9.91016 144.38 9.89016 144.36 9.87016C142.89 8.08016 140.72 7.04016 138.63 6.04016C133.54 3.63016 128.31 1.18016 122.71 0.640157C118.08 0.200157 113.41 1.08016 108.83 1.42016C102.58 1.87016 96.4004 3.18016 90.6604 5.71016C88.5504 6.64016 86.4704 7.73016 84.6704 9.19016C82.6604 10.8202 81.0404 12.8902 79.7904 15.1502C78.6704 17.1702 77.8304 19.3402 77.0004 21.5002C75.0704 26.5102 73.1304 31.5802 72.4304 36.9102C71.7404 42.2402 72.4104 47.9202 75.3704 52.4002C78.5604 57.2202 83.9304 60.0502 89.1304 62.5702L89.2004 62.3602C89.0704 63.5402 89.0104 64.7402 89.0904 65.9202C89.2104 67.8002 89.9904 68.0902 91.2704 69.2402C91.2704 63.5202 92.1404 57.8202 93.9804 52.4102C94.1704 51.8402 96.0404 47.0002 96.4104 44.5302C96.8804 43.1902 96.9404 41.7002 96.5304 40.3302C96.4904 40.2002 96.3404 40.0602 96.2004 40.0402C95.9504 40.0102 95.6904 39.9902 95.4404 39.9602C95.3004 39.9502 95.1704 39.9902 95.0404 40.0402C94.5304 40.0302 94.0204 40.0702 93.7404 40.0802C92.4804 40.1102 91.2704 40.2202 90.1604 39.4902C88.3704 38.3002 87.2304 35.4802 87.8704 33.4102C88.5404 31.2402 91.2104 29.5202 93.4504 29.7302C95.5604 29.9202 96.5004 31.4902 98.2404 32.2902C98.6404 32.4702 98.9004 32.5102 99.0604 32.4502C99.1804 33.2002 99.1404 33.9702 98.9204 34.7202C98.5804 35.8502 97.8904 36.8802 97.7604 38.0502C97.6304 39.2202 98.4404 40.6402 99.6104 40.5102C100.34 40.4302 100.87 39.8002 101.29 39.2102C103.71 35.8002 105.26 31.8002 107.98 28.6202C110.7 25.4502 115.25 23.2102 119.07 24.9102C121.59 26.0302 123.34 28.6702 126.04 29.2602C127.54 29.5802 129.11 29.2102 130.62 29.5002C134.16 30.1702 136.04 34.1302 136.53 37.7102C136.84 39.9802 136.78 42.2902 136.41 44.5502C136.05 45.7602 135.61 46.9602 135.09 48.1702C133.01 53.0002 129.89 56.8802 125.25 59.4602C120.61 62.0402 114.26 64.0002 108.97 62.7402C106.24 62.0902 103.99 60.5002 101.65 59.0402C100.04 58.0302 99.2604 58.3602 100.06 60.2202C101.83 64.3102 107.14 66.2802 111.29 66.2902C113.74 66.2902 115.99 65.4002 118.27 64.6202C121.69 65.1602 125.11 65.7002 128.52 66.2302C128.33 66.4702 128.19 66.7402 128.12 67.0002C122.84 73.3202 114.97 77.2602 106.79 78.0402C102.37 78.4602 97.6004 77.9702 93.5104 76.1502C89.3604 74.3002 85.5304 70.4702 85.9304 65.6402C86.1604 65.6402 86.3904 65.6402 86.6204 65.6402C88.0704 65.6602 89.0904 62.8502 87.3104 62.8202C61.1204 62.3802 29.6404 70.5002 12.5804 91.5202C3.00039 103.33 -4.8596 124.06 6.5704 137.21C16.5804 148.72 35.0704 148.71 48.4904 144.45C56.0804 142.04 62.6604 137.99 68.5904 132.74C71.9604 129.75 75.3304 126.76 78.7104 123.78C80.2804 122.39 83.2104 120.71 83.7204 118.5C83.8104 118.11 83.7804 117.53 83.3904 117.29C82.7604 116.89 82.5904 116.98 81.9104 116.86C81.4004 116.77 81.0204 116.81 80.7404 116.9C81.5404 115.91 82.3904 115.04 82.4504 113.67C82.4704 113.2 82.2104 112.85 81.8004 112.67C80.9504 112.3 80.5104 112.65 79.6404 112.7C79.3104 112.72 78.5504 112.82 77.8404 112.95C79.0104 111.79 80.1204 110.45 80.1804 108.96C80.2004 108.56 79.9604 108.06 79.5304 107.96C76.5604 107.29 71.7504 111.28 69.2504 112.62C63.0404 115.96 56.9904 119.9 50.3004 122.21C41.9704 125.08 22.3704 127.9 27.9504 112.86C30.3304 106.46 35.7604 101.63 41.5004 98.2002C44.0404 96.6902 60.3104 88.1802 62.0104 92.7902C62.8104 94.9702 60.3404 100.92 59.8704 103.2C59.2904 106 58.7204 108.8 58.1404 111.6C57.7304 113.57 60.3504 113.14 60.6704 111.57C61.4104 107.97 62.1504 104.38 62.8904 100.78C63.4404 98.1202 64.8704 94.6002 64.6504 91.8602C63.8004 81.6302 39.0004 96.5602 35.0004 99.8502C29.3704 104.48 19.7904 116.41 25.9604 123.91C31.8404 131.06 46.1204 126.68 53.0404 123.89C60.4504 120.9 67.3104 116.4 74.3604 112.67C74.4004 112.65 74.7804 112.41 75.2804 112.08C74.4004 113.03 73.6904 113.71 73.5404 115.09C73.4904 115.56 73.8004 115.91 74.1904 116.09C75.3104 116.6 77.0804 116.2 78.6004 115.77C78.3504 116.09 78.1304 116.42 78.0004 116.68C77.6504 117.41 77.3804 117.7 77.3104 118.55C77.2904 118.81 77.4404 119.27 77.6904 119.41C78.1204 119.65 78.5604 119.8 79.0304 119.85C77.2004 121.37 75.3704 123.62 73.9404 124.88C69.3104 128.98 64.8204 133.5 59.5104 136.74C46.6404 144.6 27.4304 147.79 13.9904 139.44C-2.32961 129.31 3.5604 107.37 13.1804 94.5202C23.4704 80.7902 39.9504 73.3302 56.2204 69.3802C65.0704 67.2302 74.3604 65.8002 83.5304 65.6502C83.2704 69.4202 84.7604 73.1302 87.4604 75.7902C90.4704 78.7502 94.6304 80.2702 98.7304 80.9502C106.38 82.2102 114.43 80.5002 121.07 76.5702C124.58 74.5002 127.6 71.7902 130.14 68.6302C158.77 76.0702 192.35 94.6502 192.26 128.37C192.22 142.45 182.09 150.99 168.51 151.63C155.64 152.24 142.37 147.01 132.91 138.37C128.66 134.48 125.1 129.75 121.37 125.38C120.52 124.39 119.11 122.08 117.74 120.55C117.84 120.52 117.96 120.51 118.05 120.47C118.79 120.18 119.33 119.56 119.37 118.74C119.41 117.92 118.93 117.2 118.43 116.5C119.68 117.11 120.98 117.95 122.27 117.57C123.01 117.35 123.57 116.6 123.59 115.84C123.61 115.14 123.29 114.5 122.84 113.88C125.01 115.55 127.26 117.71 128.24 118.43C131.97 121.18 135.59 124.16 139.47 126.72C144.92 130.31 151.31 133.16 157.81 134.1C169.69 135.81 174.63 127.25 170.37 116.5C167.72 109.81 162.42 104.4 156.65 100.28C152.95 97.6402 142.4 89.9202 137.66 92.3902C134.25 94.1702 135.64 99.2602 135.84 102.25C136.13 106.7 136.42 111.16 136.71 115.61C136.83 117.53 139.43 116.37 139.33 114.87C139.16 112.22 138.99 109.57 138.81 106.92C138.66 104.62 137.04 98.2002 138.11 96.1702C139.98 92.6302 152.84 101.3 155.52 103.28C160.83 107.21 165.76 112.3 168.1 118.6C170.34 124.64 169.98 131.35 162.28 131.57C156.85 131.73 151.24 129.56 146.45 127.19C140.51 124.24 135.43 119.91 130.11 115.99C127.83 114.31 122.39 108.66 119.38 108.91C118.44 108.99 117.81 109.79 117.72 110.69C117.59 112.1 118.79 113.2 119.77 114.3C118.58 113.71 117.34 112.98 116.14 113.31C115.37 113.52 114.89 114.28 114.82 115.04C114.73 116.04 115.41 116.85 115.99 117.66C115.31 117.5 114.6 117.37 113.89 117.69C113.37 117.92 112.85 118.7 112.9 119.28C113.23 122.99 119.54 127.92 121.83 130.6C125.2 134.55 128.43 138.65 132.4 142.02C142.66 150.7 157.02 155.8 170.5 154.24C181.84 152.92 191.59 146.08 194.14 134.56C197.71 118.44 189.37 101 178.09 89.8902H178.1ZM95.3204 43.5302L95.4104 43.2502C95.4104 43.3202 95.3804 43.4002 95.3704 43.4702C95.3504 43.4902 95.3404 43.5102 95.3204 43.5202V43.5302Z" fill="black"/>
</g>
<defs>
<clipPath id="clip0_444_4504">
<rect width="195" height="155" fill="white"/>
</clipPath>
</defs>
</svg>
