<svg width="175" height="155" viewBox="0 0 175 155" fill="none" xmlns="http://www.w3.org/2000/svg">
<path d="M1.66039 73.2102C1.66039 71.7402 1.65039 70.2802 1.67039 68.8102C1.67039 68.5602 1.79039 68.2402 1.96039 68.0702C5.07039 65.0802 8.48039 62.4702 12.2604 60.3802C17.7104 57.3702 23.5704 55.7302 29.7404 55.1202C33.2504 54.7702 36.7704 54.6902 40.2904 54.7402C43.3804 54.7802 46.4704 54.8502 49.5504 54.9502C53.6804 55.0902 57.7904 54.9202 61.9004 54.4202C62.4504 54.3502 62.9104 54.1802 63.3404 53.8102C67.3704 50.4202 72.1004 48.7002 77.2704 48.1002C81.0004 47.6702 84.7404 47.6602 88.4904 47.9602C91.2704 48.1802 94.0004 47.7302 96.7104 47.1402C99.3404 46.5702 101.97 45.9702 104.62 45.4802C106.82 45.0702 109.05 45.0302 111.26 45.5002C111.86 45.6302 112.21 45.9102 112.45 46.4902C118.71 61.4602 125.11 76.3802 131.21 91.4202C133.75 97.6802 136.71 103.75 139.27 109.99C140.49 112.95 141.53 115.97 142.12 119.12C142.29 120.01 142.09 120.41 141.25 120.73C140.75 120.92 140.22 121.01 139.71 121.17C139.17 121.34 138.61 121.49 138.11 121.76C137.46 122.11 137.38 122.68 137.8 123.29C137.85 123.36 137.9 123.43 137.95 123.5C138.89 124.87 138.78 126.29 137.64 127.51C136.48 128.74 135.02 129.52 133.5 130.21C130.61 131.52 127.58 132.42 124.52 133.22C117.2 135.14 109.75 136.44 102.3 137.77C96.7904 138.75 91.2904 139.75 85.7904 140.79C83.9404 141.14 82.0904 141.54 80.3204 142.15C78.3504 142.82 76.3604 143.25 74.3104 143.56C69.8604 144.23 65.5504 145.52 61.2304 146.71C54.5404 148.55 47.8604 150.43 41.1504 152.21C37.7604 153.11 34.3104 153.78 30.8004 153.99C29.2304 154.09 27.6304 153.97 26.0604 153.79C25.2904 153.7 24.5304 153.28 23.8204 152.9C23.5604 152.76 23.3404 152.35 23.2904 152.03C22.9704 149.88 22.4204 149.38 20.2604 149.37C19.4004 149.37 18.5204 149.4 17.6804 149.24C17.1204 149.13 16.6004 148.74 16.1304 148.39C15.9104 148.23 15.7804 147.87 15.7404 147.59C14.6104 139.67 12.8504 131.87 10.9304 124.11C8.91039 115.93 6.87039 107.76 4.94039 99.5602C3.65039 94.1002 2.66039 88.5702 2.10039 82.9802C1.77039 79.7402 1.63039 76.4802 1.40039 73.2302H1.65039L1.66039 73.2102ZM83.7004 137.04C83.6304 136.71 83.6004 136.52 83.5404 136.33C82.0104 131.18 80.4804 126.04 78.9404 120.89C76.6604 113.28 74.4604 105.65 72.0804 98.0702C69.3804 89.4702 66.2804 81.0002 62.4404 72.8302C60.4004 68.4802 58.1404 64.2502 55.4904 60.2302C55.2104 59.8102 54.8704 59.5802 54.3704 59.5002C53.0204 59.3002 51.6804 59.0602 50.3304 58.8602C43.9504 57.9302 37.5604 57.2702 31.0904 57.5602C28.1504 57.6902 25.2404 57.9902 22.3704 58.6302C19.0204 59.3802 15.8404 60.5602 13.0204 62.5502C9.03039 65.3702 6.64039 69.2602 5.45039 73.9502C4.18039 78.9202 4.23039 83.9702 4.65039 89.0302C5.01039 93.3002 5.64039 97.5402 6.56039 101.72C8.11039 108.8 9.77039 115.86 11.4004 122.93C12.9904 129.83 14.5904 136.72 16.1804 143.62C16.3704 144.43 16.4004 144.52 17.2304 144.52C18.8704 144.52 20.5104 144.52 22.1404 144.38C25.7404 144.06 29.2204 143.18 32.6204 141.98C36.6704 140.55 40.6904 139.01 44.7104 137.5C49.2404 135.8 53.7904 134.16 58.5504 133.21C62.5504 132.41 66.5804 132.1 70.6504 132.6C75.0704 133.14 79.1804 134.57 83.0404 136.76C83.2104 136.86 83.4004 136.92 83.7004 137.05V137.04ZM140.19 118.6C140.08 118.2 140.03 117.92 139.93 117.65C136.51 107.53 132.44 97.6702 128.25 87.8502C122.79 75.0702 117.07 62.4002 111.96 49.4702C111.81 49.1002 111.57 48.9302 111.2 48.8602C109.47 48.5402 107.72 48.4002 105.99 48.6302C103.32 48.9702 100.66 49.4002 98.0104 49.8702C94.5904 50.4802 91.1904 51.1902 87.6904 51.0702C86.3304 51.0202 84.9704 51.0202 83.6104 51.0502C80.2904 51.1302 76.9904 51.4302 73.7404 52.1002C70.6904 52.7302 67.7504 53.6202 65.1704 55.4502C63.0804 56.9302 61.6304 58.8602 60.9604 61.3502C60.8104 61.9102 60.7704 62.4402 60.9604 63.0202C62.9504 68.8902 64.9104 74.7702 66.9104 80.6402C70.2404 90.4002 73.5804 100.15 76.9404 109.89C79.4504 117.17 82.0104 124.43 84.5704 131.7C84.8204 132.4 85.1204 133.08 85.4604 133.74C85.7104 134.23 86.0604 134.25 86.3804 133.81C86.7404 133.32 87.0404 132.8 87.3404 132.27C88.5604 130.14 90.0504 128.23 91.8904 126.6C94.9704 123.88 98.5504 122.05 102.41 120.74C108.83 118.58 115.48 117.88 122.2 117.73C124.39 117.68 126.59 117.71 128.77 117.82C131.84 117.97 134.9 118.21 137.96 118.42C138.66 118.47 139.35 118.53 140.17 118.6H140.19ZM88.1504 137.42C104.74 133.66 121.21 129.97 137.64 126.05C137.25 125.7 136.87 125.44 136.47 125.21C134.32 124.02 132.03 123.21 129.66 122.64C125.03 121.53 120.34 121.11 115.59 121.26C111.76 121.39 107.98 121.84 104.28 122.82C100.2 123.9 96.3504 125.47 93.1104 128.27C90.5504 130.48 88.8204 133.2 88.2204 136.58C88.1804 136.79 88.1904 137.01 88.1604 137.41L88.1504 137.42ZM24.2204 148.72C24.5704 149.09 24.7804 149.43 25.0804 149.61C25.5904 149.92 26.1504 150.19 26.7204 150.35C28.0304 150.72 29.3804 150.72 30.7304 150.63C33.9104 150.42 37.0404 149.85 40.1104 149.02C46.4304 147.33 52.7204 145.54 59.0304 143.8C62.4704 142.85 65.9104 141.81 69.4704 141.41C71.6404 141.17 73.7804 140.8 75.8604 140.16C76.5804 139.94 77.3004 139.65 77.9504 139.28C78.7504 138.82 78.7304 138.15 77.8804 137.79C77.0304 137.42 76.1404 137.09 75.2304 136.95C73.1004 136.63 70.9604 136.33 68.8104 136.2C66.5704 136.07 64.3204 136.08 62.0804 136.17C60.7804 136.22 59.4604 136.42 58.2004 136.77C51.2104 138.71 44.2404 140.71 37.4104 143.14C33.2104 144.63 29.0804 146.3 25.0704 148.24C24.8304 148.36 24.6004 148.5 24.2204 148.72Z" fill="black"/>
<path d="M136.18 10.6895C135.79 9.61954 135.19 8.77954 134.52 7.99955C131.42 4.39955 126.02 3.53955 122 6.06955C119.18 7.84955 118.06 10.5095 118.23 13.7995C118.3 15.1595 118.46 16.5395 118.29 17.8795C117.79 21.7295 115.38 24.0995 111.54 24.7295C108.1 25.2995 104.84 24.5995 101.7 23.2295C98.6401 21.8895 96.0101 19.9795 94.1801 17.1095C92.1801 13.9695 92.3101 10.7495 94.0601 7.58955C95.2801 5.37955 97.6101 4.39955 100.11 4.85955C102.76 5.34955 104.77 6.84955 106.49 8.82955C107.53 10.0295 108.29 11.3995 108.95 12.8295C109.43 13.8695 109.26 14.9595 109.1 16.0395C108.92 17.2195 108.73 18.3895 108.54 19.5695C108.43 20.2895 108.75 20.7295 109.39 21.0395C110.6 21.6395 111.84 22.0795 113.22 21.8895C115.01 21.6495 116.27 20.2095 116.26 18.3995C116.26 15.4595 116.33 12.5295 116.99 9.64954C117.35 8.05954 117.91 6.53955 118.84 5.17954C119.77 3.80955 120.97 2.75955 122.52 2.18955C123.76 1.73955 125.05 1.34955 126.35 1.11955C128.3 0.779545 130.05 1.43955 131.58 2.60954C132.55 3.34955 133.45 4.18955 134.35 5.01955C135.72 6.28955 137.04 7.59955 138.4 8.86954C139.9 10.2595 141.69 10.8195 143.73 10.9195C146.95 11.0795 150.17 11.3295 153.38 11.6395C156.58 11.9495 159.68 12.6595 162.52 14.2795C164.37 15.3395 165.96 16.7095 167.25 18.4095C167.57 18.8295 167.94 19.0795 168.45 19.2195C169.67 19.5595 170.82 20.0795 171.81 20.8895C173.17 21.9995 173.86 23.4595 174.03 25.1795C174.27 27.5695 173.66 29.8395 173.01 32.0995C172.95 32.2995 172.89 32.4995 172.82 32.6895C172.16 34.5595 171.72 36.4195 171.92 38.4795C172.27 42.0795 171.06 45.2495 168.59 47.9095C166.88 49.7495 164.8 51.0595 162.52 52.0695C159.14 53.5695 155.57 54.3295 151.9 54.6795C146.61 55.1695 141.38 54.7995 136.23 53.4995C132.48 52.5595 128.93 51.1695 125.83 48.7895C123.93 47.3295 122.4 45.5695 121.62 43.2695C120.71 40.5995 121.14 38.0295 122.29 35.5295C123.23 33.4795 124.57 31.7095 126.03 30.0195C126.26 29.7595 126.44 29.4195 126.53 29.0795C127.02 27.2595 127.33 25.3995 127.34 23.5095C127.34 22.1795 127.39 20.8495 127.32 19.5295C127.16 16.5495 128.52 14.4495 131.08 13.0995C132.51 12.3395 134 11.6995 135.47 11.0095C135.68 10.9095 135.9 10.8095 136.18 10.6795V10.6895ZM128.6 22.7295C128.57 23.0295 128.52 23.2295 128.53 23.4295C128.59 24.6195 128.58 25.8195 128.75 26.9895C129.68 33.0795 132.9 37.5095 138.56 40.0295C143.29 42.1395 148.17 42.2295 153.06 40.6095C155.91 39.6595 158.39 38.0895 160.39 35.8195C163.56 32.2295 164.69 27.9495 164.6 23.2695C164.6 23.0795 164.52 22.8895 164.47 22.6495C164.21 22.7195 164.01 22.7695 163.82 22.8395C162.66 23.2395 161.52 23.6795 160.35 24.0495C154.11 25.9895 147.75 26.5695 141.26 25.8195C137.16 25.3495 133.19 24.3295 129.31 22.9295C129.1 22.8495 128.87 22.8195 128.59 22.7495L128.6 22.7295ZM128.8 31.8495C128.63 31.9195 128.54 31.9395 128.48 31.9895C126.6 33.4195 124.84 34.9695 123.65 37.0495C122.14 39.6795 122.36 42.1695 124.38 44.3295C125.08 45.0795 125.91 45.7395 126.77 46.2895C129.46 48.0295 132.46 49.0195 135.55 49.7295C140.38 50.8495 145.28 51.2995 150.24 51.1095C153.5 50.9795 156.7 50.5695 159.86 49.7595C163.92 48.7195 167.26 46.6695 169.53 43.0795C169.91 42.4695 170.27 41.8195 170.47 41.1395C171.29 38.4095 169.73 35.7795 167.01 35.3695C164.96 35.0595 163.15 35.7295 161.63 37.0995C160.82 37.8195 160.11 38.6495 159.32 39.3995C157.33 41.2895 155.13 42.8795 152.65 44.0795C149.62 45.5395 146.44 46.1895 143.09 45.5695C139.34 44.8795 136.42 42.7795 133.95 39.9795C131.98 37.7495 130.47 35.2195 129.19 32.5495C129.08 32.3195 128.94 32.1095 128.8 31.8495ZM169.23 31.6195C169.33 31.5495 169.43 31.5095 169.5 31.4395C170.15 30.8195 170.82 30.2195 171.43 29.5695C171.92 29.0395 172.39 28.4795 172.78 27.8695C173.42 26.8795 173.26 26.0895 172.36 25.3195C172.28 25.2495 172.2 25.1795 172.12 25.1295C170.65 24.1995 169.18 23.2595 167.7 22.3395C167.59 22.2695 167.45 22.2495 167.34 22.2195C164.76 25.8995 165.4 29.5195 169.23 31.6295V31.6195ZM104 11.6195C102.24 14.0995 100.48 16.5895 98.7201 19.0795C98.7501 19.1595 98.7801 19.2395 98.8101 19.3095C100.27 19.5995 101.73 19.9595 103.2 20.1495C103.99 20.2495 104.65 19.7795 105.09 19.0795C105.44 18.5095 105.82 17.9495 106.17 17.3795C106.4 16.9995 106.63 16.5995 106.78 16.1795C107.45 14.2995 106.11 12.0095 104.01 11.6195H104Z" fill="black"/>
<path d="M44.83 123.12C44.83 125.68 43.78 127.34 42.26 128.75C40.11 130.74 37.52 132.02 34.87 133.17C32.89 134.03 30.95 134.94 29.13 136.12C28.08 136.8 26.91 137.24 25.66 137.39C24.16 137.58 22.94 137.1 22.02 135.89C21.03 134.59 20.56 133.05 20.34 131.48C20 129.09 19.81 126.68 19.58 124.28C19.31 121.34 19.07 118.4 18.8 115.47C18.76 115.05 18.92 114.8 19.24 114.62C20.89 113.72 22.49 112.7 24.2 111.96C27.53 110.51 31.02 109.74 34.69 109.95C36.42 110.05 38.07 110.46 39.56 111.37C41.94 112.81 43.01 115.06 43.35 117.71C43.46 118.57 43.59 119.39 44 120.18C44.54 121.21 44.85 122.33 44.83 123.12ZM37.36 112.16C37.17 112.21 37 112.25 36.84 112.29C35.49 112.63 34.14 113.01 32.78 113.3C30.69 113.75 28.57 114.09 26.49 114.57C24.97 114.92 23.52 115.5 22.34 116.58C22.1 116.8 21.86 117.17 21.84 117.48C21.7 120.18 21.55 122.89 21.52 125.59C21.5 127.34 21.78 129.07 22.49 130.69C23.3 132.55 24.89 133.48 26.89 133.23C27.43 133.16 27.98 133.03 28.5 132.88C30.1 132.4 31.53 131.57 32.96 130.72C34.2 129.98 35.48 129.31 36.74 128.59C38.04 127.85 39.38 127.16 40.63 126.33C41.91 125.48 42.4 124.18 42.11 122.67C41.89 121.57 41.57 120.49 41.23 119.43C40.43 116.97 39.41 114.62 37.74 112.61C37.62 112.47 37.5 112.32 37.37 112.16H37.36Z" fill="black"/>
<path d="M11.9902 77.4004C12.2802 77.1404 12.4902 76.8604 12.7602 76.7304C14.3102 76.0104 15.8302 75.2204 17.4402 74.6604C25.2302 71.9704 33.2202 70.0904 41.4002 69.0504C44.1102 68.7104 46.8302 68.5204 49.5602 68.8204C50.3802 68.9104 51.1802 69.1604 51.9702 69.3704C52.2202 69.4404 52.4502 69.6104 52.7902 69.7904C52.5202 70.0804 52.3502 70.3604 52.1002 70.5004C51.0402 71.1004 49.9902 71.7804 48.8602 72.2004C45.0302 73.6404 41.0802 74.4804 36.9602 74.3604C36.5802 74.3504 36.2002 74.3304 35.8302 74.2804C34.7602 74.1404 33.7602 73.8504 33.0902 72.8304C32.8502 72.9104 32.6202 72.9604 32.4102 73.0604C30.2902 74.0304 28.1902 75.0304 26.0602 75.9804C23.6102 77.0704 21.0502 77.7304 18.3502 77.7904C16.7602 77.8304 15.1802 77.9304 13.5902 77.9704C13.0702 77.9804 12.5202 77.9304 11.9902 77.4004Z" fill="black"/>
<path d="M28.6505 103.28C28.3505 103.35 28.1205 103.4 27.8905 103.45C24.9605 104.17 22.0305 104.89 19.0905 105.59C18.7605 105.67 18.4005 105.6 18.0505 105.6C18.0305 105.54 18.0005 105.48 17.9805 105.42C18.1805 105.26 18.3605 105.05 18.5805 104.94C19.7205 104.37 20.8505 103.75 22.0205 103.27C28.1005 100.76 34.3205 98.7204 40.7905 97.4804C42.7305 97.1104 44.6805 96.8904 46.6605 97.0104C46.9605 97.0304 47.4405 97.1504 47.5005 97.3304C47.6005 97.6404 47.5505 98.1604 47.3505 98.3704C46.7505 99.0004 46.1105 99.6304 45.3705 100.08C42.3805 101.88 39.1205 103.01 35.7405 103.76C34.2305 104.09 32.6705 104.2 31.1405 104.4C30.9405 104.43 30.7305 104.4 30.5205 104.37C29.7705 104.28 29.0305 104.14 28.6605 103.27L28.6505 103.28Z" fill="black"/>
<path d="M13.3098 92.9195C13.5398 92.5195 13.6798 92.0195 14.0098 91.7295C14.7298 91.0995 15.4798 90.4595 16.3298 90.0195C20.1798 88.0295 24.2998 86.9395 28.5998 86.5595C29.1398 86.5095 29.7098 86.5795 30.2398 86.6795C30.9598 86.8095 31.1098 87.3395 30.6098 87.8895C30.4598 88.0495 30.2798 88.2095 30.0898 88.2995C26.4598 90.0295 22.8298 91.7695 18.9498 92.8795C17.5698 93.2695 16.1598 93.5395 14.7098 93.4195C14.2798 93.3795 13.8598 93.2495 13.4298 93.1595C13.3898 93.0795 13.3398 92.9995 13.2998 92.9195H13.3098Z" fill="black"/>
<path d="M62.4395 106.38C62.0695 106.79 61.8395 107.11 61.5595 107.37C60.0195 108.78 58.1295 109.48 56.1495 109.95C53.1895 110.66 50.1795 110.8 47.1495 110.62C47.0695 110.62 46.9895 110.58 46.7695 110.53C46.9995 110.19 47.1395 109.84 47.3895 109.63C48.2195 108.93 49.0095 108.16 49.9495 107.64C52.7795 106.04 55.8495 105.2 59.1195 105.31C59.8495 105.33 60.5795 105.53 61.2895 105.73C61.6495 105.83 61.9595 106.1 62.4395 106.37V106.38Z" fill="black"/>
<path d="M53.4097 122.19C52.9997 122.11 52.3097 122.06 51.6597 121.85C50.7897 121.56 50.6697 121.03 51.2397 120.31C51.9197 119.45 52.7997 118.86 53.7997 118.44C55.6197 117.67 57.5497 117.42 59.4797 117.11C60.8097 116.9 62.1197 116.63 63.4397 116.37C64.0197 116.25 64.6997 116.51 64.9897 117.05C65.2697 117.58 65.0297 118.04 64.6397 118.33C63.8297 118.93 62.9997 119.54 62.0997 119.98C59.4597 121.28 56.6497 122.02 53.4097 122.2V122.19Z" fill="black"/>
<path d="M37.9902 86.8303C38.2702 86.5703 38.4802 86.2803 38.7702 86.1303C39.8202 85.5803 40.8902 85.0703 41.9702 84.5803C42.8602 84.1703 43.8002 83.8603 44.6802 83.4303C45.1502 83.2003 45.6802 83.4603 46.1902 84.0203C46.5502 84.4203 46.5502 84.8503 46.1802 85.2803C45.9302 85.5603 45.6402 85.8203 45.3102 86.0003C43.5702 86.9803 41.6802 87.3903 39.7102 87.4103C39.1402 87.4103 38.5502 87.3603 38.0002 86.8403L37.9902 86.8303Z" fill="black"/>
<path d="M54.71 97.6596C55.05 97.3996 55.34 97.1196 55.67 96.9396C56.9 96.2796 58.14 95.6396 59.39 94.9996C59.93 94.7196 60.47 94.4696 61.01 94.1796C61.33 94.0096 61.56 94.0796 61.78 94.3396C62.29 94.9296 62.37 95.6296 61.87 96.2296C61.49 96.6796 61.01 97.0896 60.5 97.3796C59.17 98.1396 57.73 98.5196 56.18 98.3996C55.65 98.3596 55.16 98.2296 54.72 97.6596H54.71Z" fill="black"/>
<path d="M51.5998 84.1905C52.1198 83.9005 52.5298 83.6504 52.9498 83.4304C54.0998 82.8404 55.2798 82.3204 56.5798 82.1404C57.0598 82.0704 57.6198 81.9804 57.8798 82.4904C58.1398 82.9904 57.7298 83.4304 57.3798 83.6804C56.2398 84.5104 55.0598 85.2804 53.8798 86.0404C53.7398 86.1304 53.3998 86.0804 53.2798 85.9704C52.7198 85.4404 52.2098 84.8604 51.5898 84.2004L51.5998 84.1905Z" fill="black"/>
<path d="M108.42 88.8697C108.42 89.5997 108.37 90.1797 108.42 90.7497C108.58 92.4697 109.47 93.5997 111.16 94.1297C112.8 94.6497 114.31 95.4597 115.55 96.6897C117.54 98.6497 117.98 101.27 116.6 103.71C114.74 107 111.86 108.72 108.08 108.73C105.78 108.74 103.88 107.7 102.36 106.01C102.04 105.65 101.9 105.12 101.63 104.71C99.9196 102.1 98.2496 99.4597 96.4496 96.9097C93.0396 92.0697 89.5096 87.3197 86.1096 82.4697C84.4096 80.0397 82.8996 77.4697 81.8596 74.6697C81.4696 73.6097 81.1696 72.5197 81.3196 71.3797C81.3696 70.9997 81.4896 70.5997 81.6796 70.2597C82.1296 69.4097 82.6196 69.2597 83.4996 69.5997C86.1596 70.6397 88.4596 72.2197 90.5796 74.0997C94.0096 77.1497 96.6896 80.8397 99.4196 84.4897C100.72 86.2297 101.97 88.0197 103.64 89.4397C103.86 89.6297 104.1 89.8097 104.35 89.9597C105.58 90.7397 106.69 90.6097 107.72 89.5797C107.91 89.3897 108.1 89.1797 108.41 88.8497L108.42 88.8697ZM94.1296 82.4397C92.3296 82.4297 91.6996 83.0597 91.7396 84.7297C91.7696 86.0397 92.2596 87.2197 92.7996 88.3797C94.1396 91.2597 95.8896 93.8797 97.9696 96.2797C98.8896 97.3497 99.9296 98.3097 100.97 99.2697C101.29 99.5697 101.79 99.8497 102.2 99.8497C103.32 99.8497 104.41 99.5297 105.18 98.6497C105.46 98.3297 105.62 97.8197 105.67 97.3897C105.77 96.4597 105.39 95.6297 104.94 94.8397C103.46 92.2597 101.37 90.1597 99.4696 87.8997C98.1796 86.3697 96.9496 84.7997 95.7596 83.1897C95.4396 82.7597 95.1296 82.4897 94.6096 82.4597C94.3996 82.4497 94.1996 82.4397 94.1296 82.4297V82.4397ZM108.4 97.4897C108.89 98.7097 109.35 99.8197 109.77 100.94C110.32 102.37 110.82 103.82 111.38 105.25C111.53 105.65 111.77 106.02 112.02 106.37C112.46 106.96 112.95 106.94 113.33 106.31C113.55 105.95 113.66 105.52 113.84 105.13C114.03 104.69 114.21 104.25 114.46 103.84C114.86 103.19 115 102.51 114.84 101.76C114.62 100.69 114.05 99.8097 113.33 99.0297C112.39 98.0197 111.33 97.1697 109.93 96.8997C109.2 96.7597 108.67 96.9997 108.41 97.4897H108.4ZM109.67 103.02C107.98 102.79 106.43 102.55 104.87 102.38C104.46 102.34 104.01 102.46 103.62 102.61C103.05 102.82 102.79 103.48 102.85 104.16C102.91 104.78 103.37 104.8 103.81 104.9C105.34 105.24 106.87 105.59 108.4 105.94C108.61 105.99 108.83 105.99 109.12 106.02C109.31 105.01 109.48 104.06 109.67 103.02Z" fill="black"/>
<path d="M105.31 58.4604C106.23 58.5704 107.16 58.6504 108.07 58.8104C108.69 58.9204 108.77 59.1104 108.64 59.7204C108.46 60.6404 107.87 61.2404 107.09 61.6804C105.94 62.3304 104.67 62.6004 103.38 62.7304C101.06 62.9704 98.7396 63.1504 96.4196 63.3604C96.0596 63.3904 95.6896 63.4204 95.3496 63.5304C93.7296 64.0504 92.0996 63.8104 90.4796 63.6504C90.0896 63.6104 89.6996 63.4904 89.3396 63.3304C88.9596 63.1604 88.8896 62.8204 89.1996 62.5404C89.4896 62.2704 89.8196 62.0504 90.1696 61.8704C92.3296 60.7804 94.6596 60.1804 96.9996 59.6404C99.7296 59.0104 102.48 58.5404 105.31 58.4404V58.4604Z" fill="black"/>
<path d="M99.6002 74.5898C99.1802 74.5198 98.6202 74.4798 98.1002 74.3298C97.7102 74.2198 97.3202 74.0298 97.0002 73.7798C96.3602 73.2798 96.3402 72.8398 97.0002 72.3598C97.5502 71.9498 98.1602 71.5998 98.7902 71.3398C101.4 70.2798 104.11 69.6298 106.93 69.5398C107.92 69.5098 108.92 69.6298 109.9 69.7898C110.54 69.8898 110.87 70.3198 110.79 70.8198C110.75 71.0998 110.56 71.4898 110.33 71.5998C107.34 72.9798 104.26 74.0698 100.97 74.4698C100.56 74.5198 100.15 74.5498 99.6002 74.5898Z" fill="black"/>
<path d="M96.2899 108.11C96.0499 108.38 95.8499 108.73 95.5499 108.9C95.0499 109.19 94.4999 109.46 93.9399 109.58C91.9199 110.03 89.8799 110.4 87.8599 110.82C87.0799 110.98 86.3099 111.16 85.5399 111.34C84.9999 111.47 84.2499 111.1 83.8999 110.51C83.6299 110.05 83.6799 109.63 84.1899 109.18C84.6399 108.78 85.1299 108.4 85.6699 108.15C88.2899 106.94 91.0499 106.31 93.9499 106.42C94.7399 106.45 95.4599 106.66 95.9299 107.35C96.0599 107.54 96.1399 107.77 96.2899 108.1V108.11Z" fill="black"/>
<path d="M104.35 82.8801C104.99 82.5301 105.47 82.2301 105.98 81.9901C107.81 81.1101 109.78 80.7501 111.78 80.5401C112.83 80.4301 113.88 80.3701 114.93 80.2901C115.73 80.2301 116.32 80.6301 116.82 81.1901C117.13 81.5401 117.1 81.9701 116.77 82.2601C116.34 82.6401 115.87 83.0401 115.35 83.2601C112.73 84.4101 109.98 84.7801 107.15 84.3701C106.47 84.2701 105.81 83.9401 105.18 83.6501C104.91 83.5301 104.72 83.2201 104.37 82.8801H104.35Z" fill="black"/>
<path d="M75.1396 93.1598C75.4896 92.8798 75.7396 92.6598 75.9996 92.4798C77.9596 91.1398 80.0797 90.1698 82.4097 89.6898C83.1697 89.5298 83.9796 89.5698 84.7696 89.5498C85.0196 89.5498 85.2797 89.6498 85.5097 89.7498C86.5097 90.1898 86.6597 90.8898 85.8997 91.6698C84.5897 93.0098 82.9296 93.6598 81.1396 93.9798C79.3196 94.3098 77.4996 94.3398 75.7696 93.5198C75.5896 93.4298 75.4196 93.3198 75.1396 93.1598Z" fill="black"/>
<path d="M69.4397 65.9995C69.5597 65.8595 69.6597 65.6995 69.8097 65.5995C71.3897 64.4495 73.0997 63.5695 75.0297 63.1995C75.5097 63.1095 76.0297 63.0995 76.5197 63.1395C77.4397 63.2195 78.0797 63.8595 78.1997 64.8395C78.0397 64.9495 77.8597 65.1095 77.6497 65.2095C75.3797 66.2495 72.9897 66.6695 70.4997 66.5595C70.1397 66.5395 69.7897 66.3495 69.4297 66.2395C69.4297 66.1595 69.4297 66.0896 69.4297 66.0096L69.4397 65.9995Z" fill="black"/>
</svg>
