<svg width="195" height="155" viewBox="0 0 195 155" fill="none" xmlns="http://www.w3.org/2000/svg">
<path d="M73.0497 87.2403C69.4597 85.4303 66.0597 83.7603 62.6997 81.9903C57.0597 79.0203 51.4597 75.9503 45.8197 72.9703C40.2897 70.0603 34.7197 67.2103 29.1597 64.3403C28.8997 64.2103 28.5997 64.1203 28.3897 63.9403C26.6797 62.4503 24.9797 62.6803 23.2597 63.9303C21.8097 64.9803 20.2397 65.3003 18.1697 64.4003C18.3097 65.8403 18.4097 67.0303 18.5497 68.2303C18.8797 71.2103 16.6897 73.7203 13.7597 73.7103C12.3497 73.7103 11.3897 73.0103 10.7297 71.8503C10.3897 71.2403 10.1597 70.5803 9.94969 70.1203C8.80969 70.4903 7.74969 71.0103 6.63969 71.1403C4.51969 71.4003 2.71969 70.1203 2.10969 68.1703C1.52969 66.3103 2.41969 63.9603 4.11969 62.9503C5.04969 62.4003 6.02969 61.9303 6.95969 61.3603C7.42969 61.0703 7.81969 60.6503 8.40969 60.1503C6.02969 59.1503 3.89969 58.2503 1.67969 57.3103C2.36969 55.8303 2.99969 54.4903 3.61969 53.1303C6.10969 47.7103 8.59969 42.2903 11.0897 36.8703C11.2597 36.4903 11.5097 36.1403 11.6397 35.7503C12.0497 34.5503 12.7297 34.5403 13.7197 35.1303C15.6897 36.2903 17.6997 37.3703 20.0197 38.6603C20.0197 37.2303 20.2397 36.0703 19.9797 35.0203C19.3297 32.4203 19.8897 30.4703 21.8097 29.5503C23.5597 28.7203 25.9797 29.5703 27.3497 31.5203C27.6297 31.9203 27.8697 32.3603 28.1497 32.8203C28.3197 32.7403 28.4697 32.6903 28.6097 32.6103C30.8197 31.5003 32.8697 31.8603 34.0997 33.5703C35.3797 35.3603 35.1897 37.9503 33.5097 39.5003C32.6697 40.2803 31.6297 40.8503 30.6697 41.4903C29.9997 41.9403 29.2997 42.3503 28.3697 42.9303C31.9497 44.2903 32.0097 46.9203 31.4997 49.7703C31.3697 50.5103 31.3097 51.2803 31.0397 51.9703C30.5897 53.1403 31.1197 53.5003 32.1197 53.9403C39.5397 57.2503 46.9797 60.5403 54.3197 64.0203C62.8397 68.0603 71.2697 72.2803 79.7297 76.4203C79.9097 76.5103 80.1197 76.5603 80.2997 76.6303C80.9497 75.0803 81.4097 73.4503 82.2597 72.0703C84.3097 68.7203 87.6397 67.5603 91.3397 67.4603C97.5097 67.3003 102.89 69.4603 107.73 73.2403C112.92 77.3003 118.7 80.2403 125.27 81.3203C127.39 81.6703 129.59 81.7103 131.74 81.7003C139.04 81.6603 145.74 83.4703 151.35 88.2503C156.12 92.3003 158.73 97.6903 159.64 103.82C161.33 115.14 158.48 125.49 152.57 135.1C149.32 140.39 145.16 144.85 139.89 148.2C135.08 151.25 129.84 153.13 124.1 153.14C119.18 153.14 114.94 151.1 111.16 148.12C106.2 144.21 102.56 139.08 98.6697 134.18C95.9997 130.81 93.3597 127.37 89.8297 124.87C87.5297 123.24 84.8997 122.08 82.4897 120.59C79.3797 118.66 76.0597 116.93 73.3397 114.54C68.3697 110.18 65.9997 104.45 66.5997 97.7803C66.9397 94.0903 68.6697 90.9503 71.4997 88.4903C71.9597 88.0903 72.4497 87.7103 73.0297 87.2203L73.0497 87.2403ZM81.4097 77.1503C85.9197 79.3103 90.3597 81.4103 94.7797 83.5603C96.8697 84.5803 99.0797 84.6603 101.35 84.7203C105.15 84.8203 108.78 85.6703 112.02 87.8003C115.47 90.0703 116.97 93.4003 116.86 97.3903C116.75 101.22 114.4 103.95 110.63 105.09C106.44 106.36 102.26 106.03 98.0297 105.18C95.4197 104.66 93.5497 103.25 92.1597 101.1C91.5497 100.16 91.0197 99.1603 90.5197 98.1503C89.1597 95.3903 87.0197 93.5803 84.1297 92.5103C82.3497 91.8503 80.6697 90.9203 78.9497 90.1003C77.9697 89.6403 77.0397 89.0003 76.0097 88.7503C75.2897 88.5703 74.2997 88.6603 73.6797 89.0403C70.5797 90.9403 69.5897 94.4403 71.2397 97.7703C73.9997 103.34 78.0197 107.64 83.9997 109.83C87.0897 110.97 90.1997 112.05 93.2497 113.31C96.2097 114.53 98.9097 116.23 100.77 118.92C102.78 121.83 104.67 124.83 106.54 127.83C108.38 130.77 110.17 133.81 113.04 135.84C115.54 137.61 118.21 139.27 121.02 140.46C126.96 142.98 133.14 143.74 139.46 141.75C140.76 141.34 142.11 140.95 143.45 140.84C144.17 140.78 144.67 140.7 145.18 140.18C151.91 133.33 156.09 125.14 157.57 115.69C158.64 108.88 157.69 102.27 154.07 96.2603C150.47 90.2803 145.53 86.0103 138.36 85.0403C134.53 84.5203 130.64 84.4403 126.8 83.9503C124.22 83.6203 121.5 83.3303 119.17 82.3003C115.34 80.6003 111.74 78.3703 108.12 76.2403C104.31 74.0003 100.61 71.5803 96.3697 70.1603C89.6897 67.9303 84.4597 70.6403 81.4197 77.1503H81.4097ZM44.7697 61.8703C43.8297 61.3903 42.7297 60.8103 41.5997 60.2803C39.0397 59.0703 36.3897 58.0103 33.9297 56.6403C31.1197 55.0803 29.1597 52.8503 29.6597 49.2803C29.9497 47.2103 29.1597 45.9703 27.1397 45.0303C22.9497 43.0703 18.9197 40.7803 14.8497 38.5803C13.8197 38.0203 13.3097 38.1103 12.7997 39.2703C10.4197 44.7703 7.93969 50.2303 5.46969 55.7603C7.01969 56.4403 8.53969 57.0803 10.0397 57.7703C12.1197 58.7303 14.1397 59.8403 16.2697 60.6703C18.9497 61.7103 21.7097 62.1903 24.1697 60.0803C24.8997 59.4503 25.4597 59.4403 26.2697 59.8603C29.9897 61.8403 33.7197 63.7903 37.4597 65.7203C38.9497 66.4903 40.4797 67.1903 41.8997 67.8803C42.8997 65.7803 43.7997 63.8903 44.7597 61.8703H44.7697ZM68.9697 99.2803C68.9697 100.42 68.9097 101.28 68.9797 102.12C69.3097 106.18 71.1897 109.54 74.3797 111.9C77.9197 114.51 81.7797 116.69 85.4797 119.08C88.1997 120.84 91.2497 122.29 93.5297 124.52C97.0197 127.95 99.8797 132.02 103.18 135.66C106.22 139.03 109.35 142.34 112.69 145.4C115.74 148.19 119.38 150.08 123.59 150.59C128.82 151.22 133.34 149.36 137.57 146.54C138.69 145.8 139.73 144.95 140.81 144.15C140.38 143.94 140.09 143.95 139.82 144.01C135.35 145.11 130.83 145.32 126.29 144.58C121.1 143.74 116.33 141.89 112.19 138.56C108.48 135.58 105.83 131.76 103.44 127.73C102.44 126.04 101.51 124.32 100.47 122.65C98.3997 119.34 95.6897 116.76 91.9097 115.49C89.7797 114.77 87.6197 114.14 85.4697 113.48C80.7197 112.01 76.7297 109.37 73.5897 105.54C72.0397 103.65 70.6797 101.61 68.9697 99.2703V99.2803ZM70.7097 83.2303C70.7497 82.6103 70.6397 82.0603 70.8497 81.7103C71.5697 80.5003 72.3397 79.3103 73.2297 78.2103C73.7797 77.5303 73.6897 77.1503 73.0297 76.7303C70.8697 75.3303 68.7997 73.7403 66.5297 72.5503C62.5797 70.4903 58.4997 68.6703 54.4797 66.7503C51.8997 65.5203 49.3197 64.2803 46.9097 63.1303C46.0597 65.1303 45.2197 67.1203 44.3197 69.2303C49.5497 72.0203 54.6797 74.7503 59.6797 77.4103C60.3197 75.9003 60.9297 74.5103 61.5097 73.1003C61.8197 72.3603 62.3197 72.1803 62.9997 72.5903C63.6697 72.9903 64.3597 73.4703 63.8897 74.3703C63.1897 75.7103 62.3797 76.9903 61.5397 78.4103C64.4997 79.9703 67.6097 81.6103 70.7097 83.2303ZM93.6197 86.0903C92.0797 85.3403 90.7397 84.6503 89.3897 84.0203C85.3797 82.1603 81.3597 80.3303 77.3597 78.4703C76.7397 78.1803 76.3797 78.2503 75.9297 78.8803C74.7097 80.5803 73.3597 82.1903 71.9697 83.9503C78.0297 86.9803 84.1897 90.0603 90.4797 93.2103C91.3797 90.6503 91.3997 87.9803 93.6197 86.1003V86.0903ZM11.3497 66.2403C13.4997 65.9403 15.0597 65.0403 16.2997 63.2403C14.6697 62.5803 13.1497 61.9703 11.3497 61.2503V66.2503V66.2403ZM8.73969 63.3403C7.54969 64.0703 6.42969 64.5803 5.54969 65.3503C5.03969 65.7903 4.67969 66.6703 4.68969 67.3303C4.69969 67.7803 5.48969 68.5503 5.93969 68.5603C6.60969 68.5703 7.51969 68.2103 7.91969 67.6903C8.81969 66.5103 9.04969 65.0703 8.73969 63.3403ZM28.2897 39.8003C28.4297 39.9103 28.5797 40.0103 28.7197 40.1203C29.9497 38.8603 31.2097 37.6203 32.3997 36.3303C32.5397 36.1703 32.4897 35.6803 32.3497 35.4503C31.7097 34.4003 30.4097 34.2903 29.6097 35.2203C28.4697 36.5403 28.0297 38.0903 28.2797 39.8003H28.2897ZM23.6297 36.4703C24.0897 35.6203 24.7497 34.7103 25.0597 33.7003C25.1997 33.2503 24.7997 32.3403 24.3797 32.1003C23.9297 31.8503 22.9597 31.9203 22.6097 32.2603C22.3197 32.5403 22.4897 33.4403 22.6397 34.0203C22.8397 34.7903 23.2197 35.5103 23.6197 36.4703H23.6297ZM15.8597 67.6603C15.1297 67.8603 14.3897 68.0503 13.6597 68.2803C12.8597 68.5403 12.4597 69.5003 12.7897 70.3203C13.1697 71.2603 13.8697 71.2303 14.6297 70.8803C15.7197 70.3903 16.1597 69.1603 15.8497 67.6603H15.8597ZM25.0597 41.5603C25.2097 41.4703 25.3597 41.3803 25.4997 41.2903V38.2903C25.3397 38.2203 25.1697 38.1603 25.0097 38.0903C24.5897 38.7303 23.8897 39.3503 23.8297 40.0203C23.7897 40.4903 24.6097 41.0403 25.0497 41.5603H25.0597Z" fill="black"/>
<path d="M142.26 36.9403C139.81 37.8203 137.84 37.6503 137.34 36.1903C136.56 33.9203 138.59 33.3503 139.97 32.4503C137.21 29.5003 136.59 26.0503 138.05 22.4503C140.23 17.0803 144.45 14.1403 150.16 13.4803C152.69 13.1903 155 14.1003 157.02 15.6703C157.48 16.0303 157.92 16.4003 158.17 16.6003C159.14 16.4003 160.13 15.8603 160.63 16.1603C161.39 16.6103 161.91 17.5903 162.33 18.4403C162.56 18.9103 162.59 19.7203 162.33 20.1403C161.62 21.3003 162.21 22.1203 162.73 23.0803C163.99 25.4203 164.33 27.9603 164.22 30.6003C164.19 31.2503 164.35 32.0303 164.72 32.5403C169.06 38.4603 172.25 45.0203 175.68 51.4603C177.84 55.5003 180.22 59.4203 182.49 63.4003C183.17 64.5903 183.81 65.7903 184.46 66.9903C184.52 67.1003 184.61 67.2303 184.59 67.3403C184.23 69.6503 186.02 70.0403 187.54 70.6803C187.88 70.8203 188.21 70.9803 188.65 71.1803C187.97 72.0603 187.35 72.8603 186.66 73.7503C186.98 74.0203 187.25 74.2603 187.52 74.4903C189.39 76.0103 190.16 78.0003 189.56 80.2803C188.98 82.4803 187.98 84.5803 187.32 86.7603C186.83 88.3703 186.34 90.0503 186.3 91.7203C186.25 93.9603 188.27 95.5703 190.36 95.3403C192.24 95.1303 192.91 93.7403 191.9 92.1703C191.72 91.8903 191.55 91.6003 191.45 91.2803C191.21 90.4903 191.57 90.1703 192.35 90.2803C193.94 90.4903 194.81 91.7003 194.64 93.4503C194.41 95.8403 192.91 97.5803 190.62 98.1503C188.89 98.5803 186.16 97.2803 184.98 95.3903C183.5 93.0303 183.05 90.5903 184.22 87.9003C185.2 85.6503 186.04 83.3203 186.79 80.9803C187.28 79.4303 187 77.8503 186.2 76.4103C185.94 75.9403 185.61 75.5203 185.32 75.0803C185.22 75.0803 185.12 75.0503 185.06 75.0803C183.59 76.0103 183.6 76.0003 182.56 74.4903C181.7 73.2503 180.72 72.1903 179.29 71.5103C175.35 69.6503 172.92 66.2203 170.61 62.7203C166.24 56.0903 161.28 49.9303 155.81 44.1903C155.61 43.9803 155.41 43.7603 155.25 43.5203C154.21 41.9703 152.86 41.3903 150.92 41.4703C148.44 41.5803 146.09 40.7003 144.06 39.2403C143.35 38.7303 142.93 37.8203 142.26 36.9603V36.9403ZM157.44 18.2803C156.57 17.8803 155.83 17.6103 155.15 17.2303C151.26 15.0503 144.67 16.1803 141.86 20.6903C140.66 22.6103 139.64 24.7303 140.3 27.2403C140.7 28.7703 140.74 30.3903 140.96 32.1103C147.44 28.7803 152.51 23.7403 157.44 18.2803ZM160.26 23.6103C157.69 26.0303 155.33 28.5803 152.63 30.7203C149.93 32.8603 146.89 34.6003 144.1 36.4503C150.58 39.9503 155.49 39.5203 159.43 34.9703C162.13 31.8403 162.52 26.5603 160.26 23.6203V23.6103Z" fill="black"/>
<path d="M78.9905 12.4501C80.6205 9.98009 82.5305 7.36009 84.1405 4.57009C85.1505 2.82009 86.6505 1.72009 88.2505 0.740088C88.8405 0.380088 89.8705 0.630088 90.6705 0.740088C94.7805 1.35009 98.8805 2.04009 103 2.64009C104.68 2.88009 106.39 2.96009 108.31 3.14009C107.54 4.34009 106.92 5.45009 106.17 6.47009C103.03 10.7301 99.9405 15.0401 96.6305 19.1601C95.6405 20.4001 94.0405 21.2301 92.5805 21.9801C91.4205 22.5801 90.0705 22.5801 88.9505 21.5801C87.5805 20.3701 87.5205 18.7901 87.8505 17.2001C88.3005 15.0501 90.4705 13.6101 92.6805 14.0101C93.7405 14.2001 94.7505 14.6401 95.7905 14.9101C96.1305 15.0001 96.7105 15.0401 96.8505 14.8501C97.6105 13.8301 98.2705 12.7301 99.0605 11.5201C97.7905 11.0401 96.6805 10.5901 95.5605 10.2001C94.2405 9.74009 92.9205 9.32009 91.5905 8.90009C89.9605 8.39009 88.3005 7.95009 86.6905 7.40009C85.9105 7.14009 85.5105 7.28009 85.1105 8.03009C83.3705 11.2701 81.4205 14.4101 78.6305 16.8501C77.3505 17.9701 75.7605 18.8701 74.1705 19.4501C72.4305 20.0901 70.7805 19.4501 69.6805 17.8601C68.6305 16.3401 68.4205 14.6701 69.2705 13.0001C70.1505 11.2801 71.7905 10.7901 73.5305 11.0501C75.2805 11.3101 76.9705 11.9001 79.0005 12.4301L78.9905 12.4501ZM103.74 5.83009C103.64 5.71009 103.54 5.59009 103.43 5.47009C102.6 5.38009 101.77 5.36009 100.95 5.20009C97.3705 4.51009 93.7505 3.92009 90.2205 3.03009C88.2305 2.53009 87.6005 2.72009 87.3605 4.87009C89.7405 5.69009 92.1305 6.52009 94.5205 7.34009C96.3905 7.99009 98.2605 8.64009 100.14 9.26009C100.38 9.34009 100.81 9.35009 100.93 9.21009C101.89 8.11009 102.81 6.96009 103.73 5.83009H103.74ZM77.3705 14.6601C76.0905 13.2101 73.9905 12.7901 72.6205 13.5301C71.6305 14.0701 71.2405 15.3101 71.7405 16.3301C72.2005 17.2601 73.1905 17.5501 74.3005 16.8801C75.3505 16.2501 76.3005 15.4401 77.3605 14.6501L77.3705 14.6601ZM94.9405 17.3201C94.8905 17.1001 94.8405 16.8701 94.7905 16.6501C93.7605 16.5401 92.7205 16.3101 91.6905 16.3401C90.8205 16.3701 89.6805 17.8801 89.8305 18.5501C90.0005 19.3201 91.3505 19.7601 92.4205 19.2001C93.3405 18.7101 94.1105 17.9601 94.9405 17.3201Z" fill="black"/>
<path d="M180.38 114.1C181.11 116.58 181.79 118.89 182.48 121.19C183.7 125.28 182.41 128.82 179.77 131.84C177.36 134.59 173.2 134.13 170.83 131.12C168.33 127.96 169.19 124.7 173.03 123.46C174.74 122.9 176.61 122.84 178.42 122.58C178.9 122.51 179.4 122.57 180.12 122.57C179.89 121.66 179.77 120.93 179.52 120.25C178.43 117.36 177.25 114.51 176.21 111.61C175.75 110.33 175.52 108.96 175.27 107.61C175.16 107.03 175.37 106.58 176.17 106.63C177.73 106.73 179.31 106.57 180.84 106.8C183.25 107.16 185.66 107.63 188 108.31C189.47 108.73 190.12 110.16 190.41 111.59C190.74 113.2 189.36 114.99 187.7 114.93C185.71 114.85 183.74 114.49 181.76 114.26C181.33 114.21 180.89 114.16 180.37 114.1H180.38ZM180.42 124.25C179.48 124.41 178.92 124.54 178.34 124.59C177.72 124.64 177.08 124.54 176.47 124.63C175.78 124.73 175.03 124.85 174.45 125.2C173.45 125.81 172.24 126.31 172.21 127.8C172.19 129.02 173 130.15 174.36 130.75C175.69 131.33 176.96 131.2 177.79 130.16C178.62 129.12 179.37 128 179.96 126.82C180.3 126.13 180.26 125.25 180.42 124.25ZM178.33 109.44C178.38 110.77 178.94 111.56 180.43 111.74C182.84 112.03 185.28 112.1 187.73 112.26C187.55 110.31 182.08 108.73 178.34 109.44H178.33Z" fill="black"/>
<path d="M20.3299 119.71C19.0599 114.84 16.5799 110.82 13.7299 107C13.6099 106.83 13.3999 106.69 13.3599 106.5C13.2699 106.07 13.0799 105.5 13.2699 105.23C13.4399 104.98 14.1199 104.89 14.4799 105.02C15.0499 105.21 15.7099 105.53 16.0299 105.99C17.7899 108.56 19.5899 111.13 21.1199 113.84C22.6299 116.52 23.3999 119.48 23.1999 122.61C23.0599 124.74 22.3599 126.69 20.9199 128.31C19.6199 129.77 16.2399 130.41 14.5099 129.55C12.0499 128.33 11.5099 124.64 13.4199 122.4C14.8699 120.71 16.6999 119.9 18.8899 119.8C19.3399 119.78 19.7899 119.75 20.3299 119.72V119.71ZM20.6099 121.88C18.7399 122.01 17.1199 122.28 15.7699 123.39C14.6799 124.29 14.5199 125.51 15.3099 126.47C16.1599 127.5 17.6699 127.76 18.6699 126.91C20.1599 125.65 20.7699 123.99 20.6199 121.88H20.6099Z" fill="black"/>
<path d="M71.7504 49.5703C73.6404 52.0503 75.5504 54.5103 77.4204 57.0103C77.8104 57.5403 78.1104 58.1503 78.3504 58.7703C78.8804 60.1503 78.3704 60.8903 76.9604 60.6303C76.1604 60.4803 75.2504 60.1203 74.7104 59.5503C72.6104 57.3203 70.7004 54.9203 70.7704 51.6203C70.7804 50.9303 71.1204 50.2503 71.3004 49.5703C71.4504 49.5703 71.6004 49.5703 71.7604 49.5803L71.7504 49.5703Z" fill="black"/>
<path d="M111.69 51.8296C111.06 54.3696 109.83 56.9696 107.69 59.0696C107.48 59.2796 106.83 59.4296 106.73 59.3096C106.29 58.8096 105.65 58.1596 105.7 57.6296C105.79 56.5896 106.09 55.4396 106.69 54.6096C107.74 53.1496 108.98 51.7896 110.34 50.6196C111.19 49.8896 111.79 50.3596 111.69 51.8496V51.8296Z" fill="black"/>
<path d="M91.06 49.6596C88.35 48.0596 86.83 43.6196 87.74 41.0696C87.91 40.5996 88.44 39.9296 88.79 39.9396C89.4 39.9596 90.11 40.3096 90.56 40.7496C90.93 41.1096 91.14 41.7996 91.15 42.3496C91.18 44.7796 91.1 47.2196 91.07 49.6496L91.06 49.6596Z" fill="black"/>
<path d="M136.18 100.66C135.84 106.62 134 112.2 130.17 117.03C128.3 119.39 124.36 120.34 121.63 119.16C119.31 118.15 118.5 116.15 119.78 113.96C120.66 112.46 121.81 111.12 122.93 109.78C124.28 108.16 125.42 106.48 125.92 104.37C126.54 101.74 127.52 99.2203 127.56 96.4503C127.58 94.7603 128.37 94.5403 129.85 95.2803C131.11 95.9103 132.48 96.3103 133.79 96.8503C135.62 97.6003 136.22 98.5403 136.18 100.66ZM130.07 98.1503C129.98 98.6203 129.88 99.1403 129.78 99.6603C128.76 105.37 126.59 110.52 122.51 114.75C121.38 115.93 121.57 116.62 123.18 117.04C123.65 117.16 124.17 117.19 124.67 117.15C127.01 116.97 128.36 115.39 129.55 113.62C131.79 110.28 132.46 106.38 133.41 102.59C134.3 99.0703 134.03 98.7803 130.44 98.0803C130.37 98.0703 130.28 98.1103 130.07 98.1503Z" fill="black"/>
<path d="M20.4902 54.5696C18.7002 53.9996 17.1302 53.5196 15.5802 52.9996C15.1102 52.8396 14.4802 52.6696 14.2902 52.3096C13.8002 51.3996 14.6502 50.2096 15.6502 50.4596C17.5802 50.9396 19.4602 51.5896 21.3302 52.2796C21.6002 52.3796 21.8902 53.2096 21.7502 53.4696C21.5002 53.9296 20.9202 54.2196 20.5002 54.5696H20.4902Z" fill="black"/>
</svg>
