<svg width="175" height="155" viewBox="0 0 175 155" fill="none" xmlns="http://www.w3.org/2000/svg">
<g clip-path="url(#clip0_444_4494)">
<path d="M87.1302 85.97C87.4502 85.11 87.7902 84.26 88.0802 83.39C91.0702 74.44 94.2202 65.54 95.7102 56.15C96.1502 53.38 95.2602 51.39 93.2802 49.71C88.4502 45.63 85.1102 40.43 82.3602 34.85C79.2902 28.6 77.8502 21.96 79.6702 15.07C80.9402 10.28 83.3402 5.95003 86.4702 2.09003C88.3002 -0.169975 88.8602 -0.0399746 91.2802 1.49003C95.2202 3.98003 97.5502 7.46003 98.9602 11.89C100.86 17.86 102.88 23.75 102.53 30.15C101.74 44.37 100.22 58.48 95.8202 72.1C94.1802 77.19 92.0102 82.1 90.1402 87.12C89.2702 89.45 88.5402 91.82 87.7802 94.18C87.6102 94.7 87.6302 95.28 87.5602 95.84L88.0102 96.02C88.3302 95.49 88.6502 94.97 88.9502 94.44C93.6402 86.31 98.1302 78.04 103.09 70.07C108.57 61.27 115.66 53.96 124.96 49.04C131.05 45.81 137.13 42.55 143.22 39.31C147.92 36.81 149.89 37.66 150.5 42.87C151.06 47.68 151.78 52.6 151.36 57.38C150.43 68.01 144.21 75.25 134.84 79.77C126.02 84.02 116.85 84.33 107.58 81.22C106.44 80.84 105.39 80.17 104.29 79.66C102.93 79.04 101.86 79.27 101.1 80.69C97.1602 88.11 93.1902 95.5 89.2502 102.92C88.2802 104.75 87.6802 106.64 88.0102 108.81C88.1502 109.72 87.7202 110.75 87.4402 111.7C85.8602 117.05 84.2402 122.39 82.6602 127.74C82.4402 128.48 82.2702 129.24 82.2002 130.01C82.0402 131.77 82.5902 132.36 84.3502 132.29C90.5902 132.04 96.8302 131.82 103.06 131.45C106.03 131.27 108.98 130.69 111.95 130.46C114.61 130.25 115.65 131.05 116.05 133.68C117.01 139.87 116.52 146.03 115.15 152.12C115.01 152.75 114.66 153.35 114.29 153.89C114.11 154.15 113.5 154.45 113.36 154.35C112.33 153.61 110.84 152.96 110.5 151.94C109.96 150.33 109.06 150.22 107.77 150.29C103.25 150.54 98.7202 150.91 94.2002 151.02C82.9802 151.32 71.7702 151.49 60.5502 151.73C57.2502 151.8 53.9502 151.9 50.6502 152.05C48.4502 152.15 47.6302 151.76 47.1902 149.65C46.4702 146.2 45.7102 142.73 45.4402 139.23C45.1602 135.53 46.0702 134.51 49.7002 134.15C55.6302 133.56 61.5802 133.19 67.5302 132.83C69.9602 132.68 72.4002 132.83 74.8302 132.8C77.8002 132.77 78.3502 132.2 77.9702 129.23C77.4502 125.18 78.9202 121.47 79.8102 117.68C81.6902 109.63 83.1802 101.52 82.5402 93.22C82.1702 88.33 81.4502 83.45 80.5502 78.63C80.0202 75.81 79.2502 75.59 76.4502 75.78C65.7102 76.52 56.0802 73.27 47.1402 67.58C41.7502 64.15 36.8502 60.1 32.5102 55.41C28.9902 51.6 26.6902 47.21 26.7902 41.85C26.8802 37.11 26.9302 32.36 27.1602 27.63C27.2102 26.6 27.7702 25.5 28.3702 24.61C29.1102 23.51 29.7402 23.8 30.5402 24.87C31.2202 25.79 32.2202 26.57 33.2402 27.11C34.1902 27.61 35.3402 27.79 36.4302 27.97C44.8102 29.35 51.5202 34.12 58.1202 38.92C62.7602 42.3 67.1502 46.05 71.3502 49.97C77.4502 55.65 80.6102 63.1 82.8702 70.93C84.1602 75.38 85.0902 79.94 86.1902 84.44C86.3202 84.95 86.4702 85.46 86.6202 85.97C86.7902 85.97 86.9602 85.97 87.1302 85.98V85.97ZM73.7002 73.5C74.5402 73.38 75.8702 73.3 77.1302 72.96C78.2902 72.65 78.8402 71.85 78.3402 70.55C77.3802 68.03 76.6702 65.39 75.5202 62.96C73.1302 57.89 70.1602 53.15 65.8902 49.41C63.4402 47.26 60.9002 45.19 58.2502 43.3C53.3502 39.82 48.4302 36.34 43.3302 33.17C40.3702 31.33 36.9602 30.44 33.3602 30.54C32.0602 30.58 31.4902 31.01 31.4402 32.38C31.3502 35.53 31.1702 38.68 30.9302 41.82C30.6402 45.59 31.6502 48.87 34.0102 51.84C39.4002 58.61 46.0402 63.79 53.6202 67.91C59.7602 71.24 66.2802 73 73.6902 73.5H73.7002ZM117.89 79.04C123.27 79.09 128.01 78.13 132.58 76.31C137.27 74.44 141.7 72.19 144.04 67.35C145.21 64.92 146.35 62.45 147.24 59.91C149.25 54.14 147.29 48.42 146.72 42.7C146.62 41.72 145.8 41.6 145.08 41.97C143.33 42.89 141.58 43.83 139.93 44.9C135.76 47.6 131.66 50.4 127.49 53.09C126.63 53.65 125.55 53.87 124.6 54.31C123.21 54.95 121.68 55.44 120.49 56.36C114.13 61.3 109.17 67.51 104.93 74.3C104.09 75.65 104.34 76.28 105.86 76.77C109.92 78.09 114.02 79.2 117.89 79.02V79.04ZM48.0802 136.11C48.6602 139.65 49.1802 142.63 49.6402 145.61C49.9102 147.37 50.9002 147.96 52.6302 147.92C59.1502 147.75 65.6702 147.7 72.1902 147.56C84.2302 147.3 96.2702 147.01 108.31 146.73C110.6 146.68 111.25 146.14 111.46 143.81C111.7 141.12 111.8 138.41 111.94 135.71C112 134.59 111.28 134.27 110.33 134.34C108.68 134.46 107.03 134.69 105.37 134.74C91.2902 135.21 77.2202 135.69 63.1402 136.08C58.2902 136.21 53.4402 136.1 48.0802 136.1V136.11ZM83.2902 20.65C83.6902 23.04 83.9202 25.47 84.5202 27.8C86.2302 34.43 90.2302 39.81 94.2502 45.18C94.4802 45.48 94.8002 45.73 95.1202 45.93C96.3602 46.72 97.0703 46.44 97.4102 45.04C97.5002 44.67 97.5302 44.28 97.5602 43.89C98.0002 38.88 98.5002 33.88 98.8302 28.87C98.9402 27.24 98.8502 25.52 98.4302 23.95C97.3602 20.01 96.2402 16.07 94.7402 12.28C93.9402 10.25 92.4902 8.38002 91.0202 6.72003C89.6802 5.22003 88.9002 5.45003 87.7002 7.08003C84.7502 11.11 83.4502 15.65 83.2902 20.65Z" fill="black"/>
<path d="M68.4198 113.32C67.6298 112.48 66.8598 111.62 66.0598 110.8C64.3298 109.03 62.2698 108.51 59.8498 109C55.1498 109.95 50.4398 110.92 45.6998 111.67C42.7798 112.14 39.8398 111.78 37.0998 110.57C32.8798 108.71 32.0298 105.29 35.0298 101.84C39.6598 96.5396 45.5698 96.1696 51.8798 97.7796C55.2198 98.6296 57.9798 100.59 60.5998 102.74C62.1398 104 63.6198 105.33 65.1398 106.61C67.1998 108.34 67.7798 110.83 68.4198 113.31V113.32ZM59.7698 106.52C59.6498 106.16 59.6498 105.95 59.5498 105.87C55.1398 102.21 50.3198 99.5496 44.3498 99.9796C41.0098 100.22 38.1098 101.5 36.2698 104.48C35.0898 106.38 35.5398 108.07 37.5898 108.78C39.4398 109.42 41.4198 109.85 43.3698 110.01C47.6498 110.36 51.6498 108.88 55.6798 107.75C57.0398 107.37 58.3798 106.95 59.7698 106.54V106.52Z" fill="black"/>
<path d="M113.141 108.12C114.251 105.57 116.081 103.77 118.341 102.47C124.951 98.6601 131.951 97.4501 139.381 99.6801C142.561 100.64 144.221 105.47 142.321 108.21C141.451 109.46 140.191 109.65 138.791 109.48C132.921 108.79 127.041 108.17 121.191 107.39C118.451 107.03 115.761 106.55 113.151 108.11L113.141 108.12ZM132.201 100.95C129.461 101.49 126.521 101.99 123.631 102.69C122.781 102.9 122.071 103.68 121.291 104.19C122.161 104.52 123.001 105.04 123.901 105.14C128.561 105.67 133.231 106.12 137.911 106.53C138.601 106.59 139.631 106.46 139.951 106.02C140.301 105.55 140.281 104.42 139.931 103.9C139.391 103.1 138.531 102.27 137.641 101.99C135.981 101.46 134.191 101.31 132.191 100.96L132.201 100.95Z" fill="black"/>
</g>
<defs>
<clipPath id="clip0_444_4494">
<rect width="175" height="155" fill="white"/>
</clipPath>
</defs>
</svg>
