<svg width="195" height="155" viewBox="0 0 195 155" fill="none" xmlns="http://www.w3.org/2000/svg">
<path d="M122.119 4.93066C124.719 5.37066 125.069 7.88066 126.019 9.91066C125.199 16.4007 120.829 7.66066 122.119 4.93066Z" fill="black"/>
<path d="M154.97 11.6007C160.24 8.72074 160.75 11.7707 164.39 12.6807C165.65 11.7207 166.97 10.8907 168.59 10.6707C171.38 10.3007 174.42 12.2307 175.41 14.8707C177.82 13.7207 180.33 13.2107 182.9 14.1807C186.26 15.3807 188.16 19.1507 187.25 22.6007C191.32 22.8307 194.04 27.2907 192.04 30.9707C195.92 32.8607 195.41 38.6407 191.55 40.2407C194.5 42.8707 192.82 47.7407 188.9 48.0707C189.26 49.3907 189.07 50.6407 188.47 51.8407C186.75 56.9007 180.26 53.6107 179.26 56.2607C177.01 68.6407 164.54 80.8007 152.01 72.6807C146.17 69.4407 144.53 62.2707 143.68 56.1907C138.58 59.1107 132.43 54.2007 134.49 48.5707C128.6 48.5007 126.19 39.7007 132.8 38.0407C131.1 34.8107 132.2 32.1807 134.64 29.8707C132.03 28.0807 131.82 23.6707 136.02 22.0207C134.35 16.9707 139.92 13.0507 144.25 15.9707C145.23 11.3107 151.27 6.55074 154.96 11.6007H154.97ZM167.54 30.0607C165.61 32.4507 161.9 32.4907 159.88 30.2307C157.82 32.3607 155.62 32.1907 153.16 29.7407C151.02 32.1607 148.96 29.4207 146.77 30.8107C146.3 33.7007 147.98 40.0707 145.42 41.3907C139.83 41.0007 141.25 48.2707 146.5 47.1507C139.86 78.1307 174.68 83.1507 177.97 51.9907C177.8 49.3307 179.76 47.9807 181.85 46.8107C183.43 45.4007 182.49 42.1707 179.95 42.8707C177.2 42.5907 178.3 35.8407 177.86 33.2207C176.03 33.1307 174.55 32.4407 173.36 31.1507C171.5 32.5107 170.06 32.2507 167.53 30.0807L167.54 30.0607Z" fill="black"/>
<path d="M29.4495 42.1504C26.0895 4.6004 80.0595 -12.0496 97.4395 22.8804C106.919 42.5804 100.169 48.1504 80.4295 51.2204C72.3595 60.0704 56.9995 61.4004 49.3295 51.4604C41.6795 51.4404 26.8495 54.1704 29.4395 42.1504H29.4495ZM49.2195 29.7804C48.3195 37.5304 47.6195 46.8804 53.7395 52.7604C61.0995 58.9404 73.5695 56.9204 79.0395 49.2304C83.3195 43.3004 83.5595 35.4204 84.9595 29.1104C87.9195 29.0504 90.1595 27.3004 88.3695 24.2904C71.3695 22.3304 72.4995 9.6004 57.9495 13.2804C53.2195 14.7604 50.9295 18.9904 49.1095 23.2704C48.6995 24.2204 47.5895 23.9404 46.7495 24.0004C41.9495 24.9704 45.3795 30.7304 49.2295 29.7704L49.2195 29.7804Z" fill="black"/>
<path d="M47.4097 94.81C48.2797 96.77 47.0597 97.63 45.9597 98.52C51.5396 103.36 54.0797 110.63 53.3697 117.87C56.0497 117.93 58.3897 119.21 59.1297 121.87C60.7397 127.99 55.0897 127.25 52.8197 130.23C50.3697 136.37 45.0597 141.08 38.8297 143.2C26.5797 148.55 11.7897 141.32 7.93965 128.66C6.32965 122.31 5.57965 126.69 1.87965 123.56C-1.10035 120.48 2.06965 114.99 6.31965 116.17C6.99965 113.67 7.71965 111.17 9.28965 109.07C13.2297 101.74 21.1897 95.68 29.5197 94.58C32.7697 93.34 37.6297 96.56 38.0797 91.93C39.2697 90.53 41.3497 90.68 42.9497 91.31C43.6497 83.74 52.4897 81.97 58.7497 83.39C65.2097 85.22 70.7597 89.4 75.0297 94.51C78.2497 97.62 83.7797 108.91 74.8497 106.63C74.5697 109.39 70.8297 110.93 68.9097 109.03C67.5797 115.83 59.5797 112.76 58.7597 107.3C57.0797 101.44 55.0897 93.97 47.4197 94.81H47.4097ZM8.39965 121.44C9.12965 141.16 34.4697 150.36 47.2997 135.21C50.2897 132.39 50.4797 126.94 55.2597 126.48C60.2797 124.01 55.6997 118.06 51.2897 120.64C50.9997 117.7 51.8297 114.2 50.6397 111.62C45.7197 109.22 40.5497 107.18 35.0497 106.61C23.9997 105.37 7.36965 104.29 7.78965 119.38C0.789654 113.63 1.51965 127.48 8.40965 121.43L8.39965 121.44ZM39.7897 93.05C37.7297 96.06 42.4697 96.23 44.4497 97.34C47.6797 95.03 41.8697 92.63 39.7897 93.05Z" fill="black"/>
<path d="M118.229 59.4308C117.849 62.4208 105.309 66.5808 109.519 61.3808C111.929 61.0808 117.049 56.2208 118.229 59.4308Z" fill="black"/>
<path d="M83.2296 126.55C82.3396 128.97 78.2496 125.45 76.5496 124.95C74.5396 124.1 76.5496 121.33 78.0996 122.43C79.6796 123.85 83.2296 124.07 83.2296 126.55Z" fill="black"/>
<path d="M88.9295 75.4604C86.1295 76.3804 81.6995 72.9704 79.6395 71.1404C79.1095 67.7504 89.0995 73.8704 88.9295 75.4604Z" fill="black"/>
<path d="M184.809 75.2304C183.279 77.2204 180.459 80.5104 177.849 80.2304C176.879 77.3004 182.039 73.5804 184.809 75.2304Z" fill="black"/>
<path d="M10.8896 71.93C11.3496 69.37 12.6996 65.05 15.5596 64.75C17.7296 67.23 13.2196 71.03 10.8896 71.93Z" fill="black"/>
<path d="M113.009 20.01C112.179 18.84 110.159 14.85 112.799 14.6C114.609 14.53 116.149 22.84 113.009 20.01Z" fill="black"/>
<path d="M182.54 97.28C180.28 96.65 178.47 92.95 179.95 91.09C182.54 89.64 183.86 95.52 182.54 97.28Z" fill="black"/>
<path d="M105.45 79.3409C104.92 82.5809 99.2501 76.3309 100.11 75.1809C102.34 73.6309 104.8 77.5409 105.45 79.3409Z" fill="black"/>
<path d="M29.2395 81.9101C27.1995 82.0201 22.5395 78.8801 26.9395 79.4501C27.7195 80.2501 30.2395 80.5301 29.2395 81.9101Z" fill="black"/>
<path d="M156.149 53.2C156.619 51.55 157.129 41.7 159.499 44.95C159.969 50.05 155.489 53.65 163.199 52.61C163.599 50.93 162.269 47.87 164.019 47.15C165.749 47.76 164.759 50.9 165.269 52.41C165.429 54.62 163.139 54.9 161.479 54.52C159.709 54.57 156.929 55.3 156.149 53.2Z" fill="black"/>
<path d="M166.23 44.2603C165.51 43.2703 165.5 40.2403 167.34 41.4003C168.82 45.8903 170.75 48.8503 173.29 42.8003C178.35 39.4303 170.9 55.9503 166.24 44.2603H166.23Z" fill="black"/>
<path d="M148.709 44.8403C147.309 43.6903 148.389 40.4403 149.949 42.6303C151.879 48.8803 153.309 45.2603 154.729 41.3203C159.569 38.8303 152.099 55.1903 148.709 44.8403Z" fill="black"/>
<path d="M156.32 62.4202C154.52 61.9102 153.66 59.0302 156.2 59.9102C157.61 60.7402 159.21 61.7302 160.88 61.7502C162.8 61.9002 164.99 59.0602 166.55 60.0502C166.45 63.9702 159.16 64.7402 156.33 62.4202H156.32Z" fill="black"/>
<path d="M67.49 30.4908C70.38 30.7608 72.24 35.1708 69.2 36.5108C67.77 37.8708 63.11 35.8508 66.54 35.0508C69.42 35.9008 69.07 31.5808 66.36 32.7608C65.02 32.3008 65.27 27.4208 65.02 25.7508C64.74 24.6708 64.31 21.3008 66.3 22.2408C67.38 24.8408 67.18 27.7308 67.49 30.5008V30.4908Z" fill="black"/>
<path d="M61.5894 42.1807C60.2994 41.8407 58.9294 38.4507 61.2894 39.0707C62.5394 40.3307 63.7794 41.8007 65.5794 42.2907C68.9694 43.8707 70.2694 38.9207 72.6194 38.6807C74.0694 40.4007 70.5894 43.5907 68.7794 43.9607C66.4094 45.1407 63.2194 44.2407 61.5794 42.1807H61.5894Z" fill="black"/>
<path d="M71.0997 28.9801C70.0597 27.5401 70.6797 24.0601 72.4397 26.5901C73.7197 31.4801 77.4697 31.5901 78.0597 26.3201C80.6397 22.8401 79.9797 31.3501 77.5997 31.6001C75.1697 33.8301 71.9797 31.3301 71.0997 28.9801Z" fill="black"/>
<path d="M53.21 28.22C51.02 26.25 53.27 23.2 54.74 26.99C59.08 32.12 58.95 25.37 60.9 24.54C64.51 28.79 55.47 33.89 53.21 28.22Z" fill="black"/>
<path d="M26.7201 121.881C29.2501 120.911 26.0501 109.521 29.6501 112.731C29.8601 116.111 31.0601 121.441 27.7201 123.541C25.3201 124.631 28.5301 126.991 30.0701 126.041C33.9701 126.951 27.8901 128.981 26.5701 127.411C23.9401 126.501 24.3401 122.771 26.7301 121.881H26.7201Z" fill="black"/>
<path d="M12.7299 120.62C11.6199 120.16 9.51995 117.84 11.8699 117.75C13.6399 118.68 15.4199 119.9 17.4199 120.28C19.7499 120.93 22.2599 117.82 24.1699 118.9C24.9399 120.57 21.4499 121.09 20.4299 121.99C17.7299 122.6 15.0799 122.14 12.7299 120.62Z" fill="black"/>
<path d="M23.1593 133.98C20.7093 132.7 21.7593 129.23 23.9493 132.09C26.7093 134.5 30.1793 134.72 32.7593 131.89C38.0693 131.72 27.4793 139.89 23.1593 133.97V133.98Z" fill="black"/>
<path d="M37.1799 119.951C40.4399 122.711 45.0599 119.471 46.7099 121.131C46.9299 122.851 42.9699 123.081 41.5899 123.131C40.2199 123.721 38.8699 122.541 37.4199 122.431C34.1099 121.711 32.3299 117.891 37.1699 119.951H37.1799Z" fill="black"/>
<path d="M169.99 121.91C169.6 120.29 169.22 118.66 168.84 117.03C168.28 114.64 167.7 112.16 167.09 109.74C166.27 106.47 164.47 104.72 161.59 104.37L161.3 104.33L161.26 104.04C160.18 96.7001 158.27 88.7001 149.35 86.5701C139.31 84.1801 132.14 86.0001 126.77 92.3001L126.65 92.4401L126.13 92.4101C125.84 92.3901 125.49 92.3701 125.13 92.3601C118.25 92.1501 112.57 96.2701 111.03 102.64C110.36 105.38 110.52 108.45 110.73 111.35L110.75 111.65C110.92 113.95 111.09 116.12 109.36 118.09C102.84 125.47 103.94 134.26 105.48 141.93C105.76 143.34 106.48 144.45 107.55 145.16C108.75 145.95 110.35 146.19 112.06 145.84C113.17 145.61 114.23 145.23 115.35 144.84C115.86 144.66 116.37 144.48 116.88 144.32L117.12 144.24L117.29 144.43C119.86 147.41 122.71 149.35 126.01 150.34C126.99 150.64 128.01 150.88 129 151.12C129.44 151.23 129.89 151.33 130.33 151.45H133.25C133.31 151.42 133.36 151.4 133.42 151.37C133.62 151.27 133.85 151.15 134.11 151.12C137.53 150.69 140.44 149.36 142.76 147.18C144.15 145.87 145.33 145.97 146.89 146.59C147.21 146.72 147.54 146.85 147.86 146.98C149.85 147.78 151.91 148.6 153.99 149.01C159.72 150.12 165 146.95 166.01 141.79C166.24 140.64 166.29 139.31 166.19 137.71C165.99 134.7 166.74 132.04 168.48 129.59C170.14 127.25 170.65 124.67 169.99 121.93V121.91ZM135.38 148C133.91 148.33 132.49 148.5 131.11 148.5C126.28 148.5 122.06 146.47 118.73 142.51C114.33 137.28 113.42 131.26 116.01 124.63L117.78 120.11L117.99 120.07C121.37 119.41 124.13 117.47 125.97 114.47L126.22 114.07L126.56 114.39C127.23 115.02 127.88 115.67 128.52 116.29C129.91 117.67 131.23 118.97 132.71 120.11C137.31 123.64 142.93 125 149.91 124.26C150.89 124.16 151.94 124.18 153.02 124.33C156.03 124.75 158.13 127.14 157.89 129.9C157.66 132.54 155.18 134.42 152.11 134.25C151.3 134.21 150.43 134 149.43 133.61C148.78 133.36 148.07 133.1 147.84 133.24C147.62 133.37 147.5 134.03 147.41 134.73C146.49 141.54 142 146.5 135.41 148H135.38ZM165.38 136.62C165.51 139.94 164.61 142.6 162.76 144.32C161.26 145.72 159.18 146.44 156.69 146.44C156.17 146.44 155.64 146.41 155.09 146.35C153.11 146.13 151.13 145.54 149.22 144.97C148.34 144.71 147.44 144.44 146.53 144.2L146.12 144.09L148.83 137.11H149.07C149.7 137.06 150.32 137.05 150.93 137.05C152.24 137.04 153.48 137.03 154.62 136.71C158.1 135.75 159.97 132.41 159.38 128.21C158.82 124.21 156 121.45 152.37 121.35C151.17 121.32 149.93 121.35 148.74 121.39C147.06 121.44 145.31 121.49 143.6 121.35C136.88 120.79 131.44 117.42 127.41 111.34C127.17 110.98 126.92 110.64 126.6 110.21C126.52 110.11 126.44 110 126.36 109.88C126.28 109.98 126.2 110.08 126.13 110.17C125.82 110.57 125.57 110.88 125.41 111.22C123.77 114.78 120.93 116.79 116.99 117.18C116.03 117.27 115.47 117.49 115.23 117.84C115 118.2 115.02 118.79 115.32 119.72C115.49 120.24 115.57 120.99 115.32 121.53C112.23 128.15 112.22 134.85 115.27 141.44L115.41 141.75L115.12 141.93C112.76 143.4 110.47 143.72 108.67 142.84C106.94 141.99 105.83 140.1 105.55 137.51C105.32 135.42 105.29 133.33 105.29 131.38C105.29 127.76 106.34 124.71 108.44 122.32C111.52 118.81 112.51 114.86 111.46 110.25C110.6 106.46 111.51 102.77 114.03 99.8501C116.8 96.6301 121.1 94.9101 125.51 95.2401C126.61 95.3201 127.2 95.2001 127.81 94.2201C129.4 91.6501 131.98 90.0401 135.46 89.4401C138.13 88.9801 141.65 88.4701 145.18 88.5901C153.17 88.8801 158.72 94.0701 160.03 102.47C160.21 103.63 160.33 104.8 160.46 105.94C160.5 106.36 160.55 106.77 160.59 107.18C164.61 107.44 165.58 108.35 166.58 112.5C167.43 116.06 168.25 119.17 169.07 122.02C169.65 124.04 169.26 125.91 167.87 127.71C166.02 130.11 165.23 132.94 165.37 136.61L165.38 136.62Z" fill="black"/>
<path d="M127.551 122.12L127.471 122.33C127.331 122.69 127.201 123.02 127.071 123.35C126.821 124.03 126.571 124.71 126.331 125.38C125.791 126.87 125.231 128.42 124.611 129.91C124.041 131.27 123.651 132.72 124.581 134.08C125.501 135.43 126.901 135.65 128.871 135.57C129.721 135.54 130.001 135.13 129.951 133.96C129.931 133.51 129.831 133.21 129.631 133.04C129.431 132.86 129.101 132.79 128.641 132.83C128.071 132.87 127.511 132.83 127.011 132.79C126.811 132.77 126.621 132.76 126.451 132.75L125.961 132.73L126.111 132.26C126.371 131.43 126.621 130.61 126.871 129.82C127.471 127.9 128.041 126.09 128.571 124.26C128.861 123.24 128.561 122.59 127.551 122.13V122.12Z" fill="black"/>
<path d="M131.79 137.36C131.79 137.36 131.74 137.37 131.72 137.38C131.64 137.4 131.53 137.44 131.5 137.46C128.05 140.34 127.54 140.38 123.66 137.98C123.52 137.94 122.94 138.12 122.7 138.25C122.67 138.83 122.64 139.82 123.01 140.29C124.04 141.6 125.63 142.35 127.4 142.35C127.42 142.35 127.44 142.35 127.47 142.35C129.29 142.33 130.99 141.5 132.02 140.12C132.81 139.06 132.74 138.18 131.78 137.36H131.79Z" fill="black"/>
<path d="M121.59 126.57L121.23 126.84L121.02 126.45C120.92 126.26 120.81 126.06 120.71 125.86C120.48 125.4 120.25 124.97 119.99 124.57C119.81 124.3 119.58 124.06 119.33 123.81C119.31 123.79 119.28 123.76 119.26 123.74C119.23 123.77 119.2 123.8 119.17 123.83C118.89 124.1 118.62 124.35 118.44 124.65C118.38 124.75 118.38 124.98 118.38 125.22C118.38 125.37 118.38 125.52 118.37 125.68C118.39 125.8 118.41 125.94 118.43 126.08C118.47 126.42 118.52 126.8 118.63 127.14C119.17 128.84 120.5 129.7 122.11 129.41C123.51 129.15 124.92 127.43 124.82 126.12C124.79 125.72 124.42 125.26 124.08 124.84C123.9 124.92 123.61 125.08 123.39 125.23C122.96 125.52 122.54 125.85 122.13 126.17C121.96 126.31 121.78 126.44 121.61 126.58L121.59 126.57Z" fill="black"/>
<path d="M134.89 125.99C134.84 125.96 134.79 125.94 134.74 125.91C134.7 125.99 134.66 126.06 134.61 126.13C134.4 126.5 134.2 126.85 134.2 127.14C134.22 128.77 135.97 130.45 138.86 130.49C138.99 130.4 139.14 130.3 139.3 130.19C139.92 129.79 140.77 129.23 141.35 128.5C141.51 128.3 141.35 127.62 141.23 127.12C141.19 126.96 141.16 126.8 141.12 126.64C141.06 126.66 141 126.67 140.94 126.69C140.52 126.81 140.13 126.92 139.84 127.13C138.35 128.19 136.96 127.99 135.72 126.52C135.53 126.3 135.22 126.14 134.88 125.98L134.89 125.99Z" fill="black"/>
</svg>
