<svg width="175" height="155" viewBox="0 0 175 155" fill="none" xmlns="http://www.w3.org/2000/svg">
<path d="M45.8305 72.9496C44.8905 73.8496 44.0505 74.6396 43.2105 75.4296C43.0505 75.3496 42.8905 75.2796 42.7305 75.1996C42.8805 74.0096 42.9005 72.7896 43.2105 71.6496C44.5105 66.8296 46.2805 62.1696 48.5905 57.7296C48.8205 57.2896 49.0405 56.8196 49.3805 56.4796C53.9005 51.8596 58.7505 47.7496 65.3905 46.5496C66.0805 46.4296 66.7805 46.3096 67.4705 46.2896C75.2905 46.0596 83.0505 46.4496 90.7105 48.1596C96.4705 49.4496 101.3 52.1996 105.48 56.4096C112.31 63.2796 117.72 70.9696 120.46 80.3596C122.04 85.7596 122.48 91.2696 121.22 96.7496C119.66 103.58 115.18 108.23 109.14 111.49C102.34 115.15 94.9905 116.53 87.3405 116.67C75.0805 116.9 64.8005 112.35 56.3405 103.67C49.6805 96.8396 45.8605 88.6396 45.4505 79.0096C45.3805 77.4196 45.6405 75.8096 45.7405 74.2096C45.7705 73.8196 45.7905 73.4396 45.8205 72.9396L45.8305 72.9496ZM79.2505 56.1396C76.2705 55.9663 73.6605 56.3196 71.4205 57.1996C71.1105 57.3196 70.7905 57.4196 70.4605 57.4496C66.2805 57.7696 63.1505 59.9896 60.4605 62.9996C57.6705 66.1196 55.9205 69.8496 54.1205 73.5596C51.7505 78.4396 51.6905 83.4196 53.4405 88.4596C55.7005 94.9696 60.1905 99.7196 65.7805 103.5C72.6305 108.14 80.1705 110.45 88.5305 110.03C93.1405 109.8 97.6505 109.22 101.93 107.45C107.72 105.05 111.94 101.1 113.57 94.8696C114.96 89.5496 114.04 84.4096 112.08 79.3796C109.66 73.1896 105.55 68.1696 101.15 63.3196C98.6605 60.5796 95.6505 58.7696 92.1205 57.7596C87.7205 56.4996 83.1905 56.2396 79.2605 56.1496L79.2505 56.1396Z" fill="black"/>
<path d="M144 73.4101C142.42 71.7101 142.3 69.8501 142.78 67.8801C143.38 65.4301 144.68 63.3201 146.24 61.3901C150.87 55.6701 156.54 51.3401 163.46 48.7401C165.32 48.0401 167.25 47.6301 169.27 48.0201C171.39 48.4401 173 49.9101 173.29 52.0001C173.37 52.5801 173.02 53.3601 172.61 53.8401C170.06 56.8201 166.92 59.0801 163.52 60.9801C161.04 62.3601 158.54 63.7201 156.03 65.0401C151.71 67.3001 147.54 69.7701 144.01 73.4101H144Z" fill="black"/>
<path d="M53.4795 117.02C53.2795 119.71 52.3495 122.18 51.0295 124.47C48.3095 129.17 45.5295 133.83 42.6295 138.42C41.9595 139.48 40.7995 140.32 39.7095 141.02C38.3695 141.88 37.3295 141.45 36.5595 140.05C35.8595 138.79 35.0095 137.61 34.4095 136.31C34.0395 135.5 33.6395 134.4 33.8995 133.66C35.8095 128.22 37.7195 122.77 41.1695 118.05C42.7495 115.89 44.7695 114.28 47.0695 112.87C49.7595 111.22 53.7595 113.68 53.4895 117.01L53.4795 117.02Z" fill="black"/>
<path d="M84.8 139.63C84.75 143.42 84.1 147.11 82.46 150.54C81.87 151.78 81.02 152.95 80.06 153.93C78.96 155.06 77.6 154.98 76.82 153.62C75.88 151.97 75.15 150.14 74.65 148.3C73.13 142.72 73.65 137.2 75.53 131.78C76.13 130.06 77.3 129.16 79.12 129.08C81.04 129 82.74 129.96 83.4 131.63C84.41 134.19 84.84 136.87 84.8 139.62V139.63Z" fill="black"/>
<path d="M155.68 122.87C153.48 122.72 151.04 121.64 148.73 120.25C146.72 119.04 144.74 117.78 142.82 116.42C140.42 114.72 139.24 112.17 138.47 109.44C138.17 108.36 138.41 107.25 139.4 106.56C140.71 105.64 142.18 105.21 143.7 105.96C145.76 106.98 147.83 108.02 149.77 109.24C153.51 111.59 156.72 114.52 158.9 118.44C160.37 121.07 159.25 122.89 155.66 122.87H155.68Z" fill="black"/>
<path d="M72.0801 28.8001C72.0201 29.7901 71.9901 31.0701 71.8601 32.3301C71.6901 33.9601 70.9101 34.6401 69.3701 34.1401C68.3001 33.8001 67.2201 33.0501 66.4901 32.1901C64.3801 29.6801 63.3301 26.6101 62.5901 23.4801C62.0001 21.0101 61.5901 18.4701 61.3401 15.9401C61.0701 13.2301 62.0201 12.1901 64.6901 11.7201C64.9701 11.6701 65.2601 11.6601 65.5501 11.6201C68.3801 11.2101 68.4301 11.1901 69.4301 13.9501C71.1301 18.6401 71.5901 23.5701 72.0701 28.7801L72.0801 28.8001Z" fill="black"/>
<path d="M121.26 14.8302C121.62 11.6402 121.82 8.43025 122.39 5.28025C123.11 1.37025 126.29 -0.249753 129.63 1.32025C131.18 2.05025 131.96 3.32025 131.96 4.94025C131.96 6.49025 131.83 8.07025 131.5 9.58025C130.7 13.2402 129.07 16.5702 126.78 19.5302C126.04 20.4902 125.07 21.3102 124.08 22.0102C123.16 22.6602 122.32 22.3602 121.89 21.3002C121.59 20.5502 121.42 19.7202 121.38 18.9102C121.3 17.5602 121.36 16.1902 121.36 14.8402C121.33 14.8402 121.29 14.8302 121.26 14.8202V14.8302Z" fill="black"/>
<path d="M15.8104 79.99C11.5904 80.29 7.64038 79.26 3.82038 77.57C3.26038 77.32 2.73038 76.98 2.25038 76.6C0.550377 75.24 0.850378 73.39 2.91038 72.63C3.67038 72.35 4.51038 72.2 5.32038 72.15C11.4604 71.78 17.4004 72.69 23.0804 75.07C23.9704 75.44 24.7404 76.11 25.5104 76.71C26.1204 77.18 26.0204 77.83 25.3704 78.08C23.9304 78.64 22.4704 79.21 20.9604 79.5C19.2704 79.82 17.5204 79.84 15.7904 79.99H15.8104Z" fill="black"/>
<path d="M118.62 140.6C118.52 141.79 118.56 143.51 117.03 144.19C115.69 144.79 114.43 143.77 113.35 142.96C111.65 141.68 110.26 140.15 109.67 138.01C109.31 136.7 109.67 135.68 110.69 134.83C111.85 133.86 112.96 132.82 114.17 131.93C114.43 131.74 115.17 131.89 115.47 132.14C117.37 133.74 118.63 137.14 118.62 140.6Z" fill="black"/>
</svg>
