<svg width="175" height="155" viewBox="0 0 175 155" fill="none" xmlns="http://www.w3.org/2000/svg">
<path d="M59.7204 73.9395C65.1804 70.8395 70.9704 71.9795 76.7004 72.6495C77.8404 72.7795 78.9604 73.0695 80.0804 73.3195C81.7104 73.6895 83.1504 73.6795 84.8204 72.9395C88.5404 71.2795 93.3904 71.1595 96.8804 75.8295C105.79 70.1095 115.13 70.7495 124.94 74.4595C124.55 72.4795 124.28 70.7795 123.89 69.1095C122.72 64.0795 121.55 59.0595 119.05 54.4695C118.91 54.2095 118.78 53.9295 118.61 53.6795C116.88 51.0995 115.21 51.1995 113.66 53.9095C113.4 54.3695 112.86 54.6695 112.46 55.0395C112.06 54.5195 111.36 54.0095 111.33 53.4695C111.29 52.6495 111.48 51.6195 111.98 51.0095C114.78 47.4895 118.1 47.6095 120.75 51.2795C123.82 55.5195 125.17 60.4595 126.29 65.4495C126.98 68.5095 127.22 71.6695 127.84 74.7595C128.13 76.2095 128.81 77.5895 129.34 78.9995C130.76 82.7395 131.82 86.5295 130.73 90.5695C129.27 95.9795 124.16 99.6595 118.39 98.8895C108.62 97.5995 101.5 92.2995 96.8504 83.6695C96.3604 82.7595 95.9804 81.6995 95.8904 80.6795C95.4304 75.5395 89.9904 74.3895 86.7004 75.5495C86.2804 75.6995 85.8904 75.9095 85.4204 76.1095C85.7504 77.4195 86.2004 78.6495 86.3504 79.9095C86.8204 83.7395 85.1104 86.7195 82.4104 89.2095C78.6404 92.6895 74.0004 94.5695 69.2404 96.2095C67.6304 96.7595 66.0004 97.2395 64.3504 97.6695C61.0804 98.5195 58.2604 97.6695 56.1404 95.0395C52.5904 90.6495 50.8904 85.6095 51.6304 79.9495C51.9704 77.3895 53.5704 75.5095 55.7304 74.0995C56.1504 73.8195 56.6304 73.3895 56.7504 72.9395C58.6304 65.8395 62.6004 59.9295 67.1904 54.3595C68.3404 52.9695 69.5304 51.6195 70.7304 50.2695C72.8704 47.8795 78.4104 48.2695 80.1804 50.9695C80.4004 51.3095 80.3804 52.0395 80.1604 52.3895C79.9904 52.6595 79.1504 52.8495 78.9104 52.6695C76.1904 50.6395 73.8204 51.7895 71.9304 53.7395C69.6804 56.0495 67.5404 58.5695 65.8504 61.3095C63.4304 65.2595 61.4604 69.4795 59.3004 73.5895C59.4504 73.6995 59.5904 73.8195 59.7404 73.9295L59.7204 73.9395ZM116.29 93.2695C116.34 93.1495 116.38 93.0195 116.43 92.8995C120.22 93.2795 122.36 90.7695 124.42 88.2195C124.96 87.5595 125.19 86.6195 124.26 85.9595C123.52 85.4395 122.83 85.4795 122.14 86.2195C121.5 86.9095 120.72 87.4895 119.99 88.0895C118.43 89.3595 116.81 90.0995 114.74 89.1595C114.05 88.8495 113.13 88.7295 112.41 88.8895C111.7 89.0495 111.11 89.6895 110.46 90.1195C110.82 90.6595 111.07 91.4595 111.57 91.6795C113.09 92.3295 114.71 92.7495 116.29 93.2595V93.2695ZM63.2904 91.8595C63.9304 91.8195 64.1604 91.8595 64.3304 91.7895C67.8604 90.2895 71.4204 88.8595 74.8704 87.1995C75.5504 86.8695 75.9104 85.6795 76.1904 84.8095C76.3204 84.4195 76.0204 83.6195 75.6704 83.4295C75.2504 83.1895 74.4004 83.1595 74.0404 83.4295C70.7804 85.9395 67.0904 87.5295 63.2504 88.8795C62.7404 89.0595 62.3004 90.1095 62.2704 90.7695C62.2504 91.1795 63.0704 91.6295 63.3004 91.8595H63.2904Z" fill="black"/>
<path d="M31.95 55.62C25.82 51.91 20.1 48.61 14.59 45.01C12.9 43.91 11.73 41.98 10.38 40.38C9.67003 39.54 9.94003 38.93 10.94 38.41C14.47 36.59 17.83 37.4 20.95 39.24C25.94 42.18 29.6 46.34 31.4 51.93C31.74 52.97 31.74 54.13 31.94 55.61L31.95 55.62Z" fill="black"/>
<path d="M164.73 138.13C164.58 139.57 164.39 141 164.3 142.45C164.24 143.38 163.76 143.53 163 143.38C160.85 142.98 159.18 141.75 158.09 139.96C156.22 136.89 154.54 133.7 152.78 130.57C152.53 130.13 152.33 129.67 152.02 129.28C151.04 128.02 151.03 126.72 151.76 125.35C152.04 124.82 152.29 124.27 152.56 123.74C153.44 122.01 154.76 121.68 156.24 122.94C157.07 123.64 157.82 124.47 158.47 125.35C160.09 127.57 161.69 129.81 163.17 132.12C164.33 133.93 164.88 135.95 164.73 138.15V138.13Z" fill="black"/>
<path d="M131.06 154.57C130.3 153.41 129.77 152.67 129.31 151.88C127.67 149.05 126.12 146.18 126.2 142.78C126.26 140.43 127.43 138.73 129.36 137.47C130.24 136.89 130.75 137.12 131.31 137.95C133.95 141.87 133.79 146.06 132.56 150.35C132.19 151.62 131.68 152.85 131.06 154.58V154.57Z" fill="black"/>
<path d="M88.4905 24.9102C88.8805 22.5502 89.2405 20.3202 89.6305 18.0902C90.0605 15.6902 90.5205 13.2902 90.9805 10.8902C91.1905 9.80017 91.3805 8.69017 92.7205 8.36017C94.0405 8.04017 95.0105 8.71017 95.6805 9.66017C96.2005 10.4002 96.6305 11.3402 96.7105 12.2302C97.1205 16.4702 92.7905 23.1902 88.4805 24.9102H88.4905Z" fill="black"/>
<path d="M47.5398 15.8696C46.4498 13.5696 45.3698 11.3296 44.3098 9.07962C43.6798 7.71962 43.1298 6.31962 42.4598 4.97962C41.8398 3.73962 41.9598 2.50962 42.8898 1.65962C43.5798 1.02962 44.7198 0.529621 45.6198 0.579621C46.9398 0.639621 47.8098 1.57962 48.0198 3.04962C48.4798 6.25962 49.1098 9.43962 49.4898 12.6496C49.6498 13.9696 49.1098 15.1896 47.5298 15.8696H47.5398Z" fill="black"/>
<path d="M102.18 138.5C103.02 139.53 103.8 140.32 104.38 141.24C104.66 141.68 104.85 142.55 104.61 142.89C103.65 144.21 102.61 145.52 101.4 146.61C100.39 147.51 99.3903 146.96 99.4703 145.6C99.6003 143.16 100.55 140.99 102.19 138.51L102.18 138.5Z" fill="black"/>
</svg>
