<svg width="195" height="155" viewBox="0 0 195 155" fill="none" xmlns="http://www.w3.org/2000/svg">
<path d="M19 117.77C15.77 117.17 14.75 115.99 13.93 112.97C13.24 110.42 12.63 109.5 9.87998 109.36C7.18998 109.22 3.94998 109.85 2.04998 107.42C0.199978 105.06 0.979977 101.57 2.83998 99.4802C4.37998 97.7502 9.71998 96.2802 10.33 94.1102C11.05 91.5802 3.95998 91.9202 2.45998 90.1402C-3.05002 83.6102 9.94998 80.2502 13.01 77.2302C17.86 72.4202 17.69 64.7002 19.75 58.5802C21.69 52.8002 26.36 49.2502 32.27 48.1102C39.12 46.7902 47.7 49.3802 53.02 53.8702C58.94 58.8502 58.41 66.0002 58.78 73.0802C59.03 77.7902 58.96 79.9502 63.94 79.8202C65.87 79.7702 66.28 79.2402 66.21 80.9702C66.15 82.5302 64.61 84.9402 63.68 86.1702C62.71 87.4502 61.37 87.9802 60.34 89.1102C59.37 90.1702 59.24 91.5602 57.95 92.3902C54.99 94.2902 50.09 92.7302 46.85 92.6902C47.9 95.1502 50.27 97.3302 52.64 98.4902C53.5 98.9102 55.27 99.0202 55.52 99.9802C55.75 100.84 53.81 102.99 53.28 103.58C50.46 106.73 41.51 110.73 38.65 105.96C41.64 104.84 45.11 105.69 48.19 104.75C49.33 104.4 53.3 102.25 52.63 100.62C52.46 100.21 50.01 99.3402 49.51 98.9902C48.61 98.3502 47.78 97.5802 47.07 96.7302C45.73 95.1202 44.93 93.2702 44.2 91.3602C43.92 90.6102 44.63 89.8602 45.39 90.1102C48.63 91.1502 52.02 92.2102 55.42 91.4802C56.89 91.1602 57.62 90.5602 58.41 89.2802C59.46 87.5602 60.9 86.7002 62.25 85.1702C62.86 84.4802 64.56 82.1102 64.03 81.5002C63.41 80.8002 60.35 81.3702 59.26 80.6002C56 78.2802 57.34 71.6902 57.17 68.3002C57.06 66.0802 56.87 63.7402 56.16 61.6202C55.69 60.2302 54.47 57.3602 53.24 56.5102C51.59 55.3802 46.91 59.4602 45.3 60.7302C39.09 65.6302 36.42 71.4702 33.72 78.6602C32.14 77.0302 30.14 75.6402 28.23 77.8802C26.65 79.7402 27.59 82.6602 29.53 83.8402C33.26 86.1002 40.05 84.8202 39.7 90.9202C39.08 101.52 29.99 113.71 20.33 117.65L19.03 117.78L19 117.77Z" fill="black"/>
<path d="M194 61.1805C193.91 61.3005 193.82 61.4105 193.74 61.5305C191.58 57.9905 190.62 53.6705 188.72 49.9705C187.13 46.8905 185.09 44.0405 182.63 41.5905C179.94 38.9105 176.85 36.8005 173.21 35.6305C170.91 34.8905 165.23 32.9705 164.94 36.8705C164.71 39.8905 170.27 40.7805 169.46 42.6005C168.9 43.8505 161.38 41.2305 159.83 41.0305C158.19 40.8205 149.28 39.9305 153.66 43.6005C154.83 44.5805 156.5 44.6205 157.86 45.2105C158.46 45.4705 162.17 47.8105 161.61 48.6905C161.2 49.3305 156.53 49.0305 155.68 49.1905C153.24 49.6305 150.77 50.4405 148.6 51.6605C144.2 54.1305 145.88 58.8205 150.86 58.6705C152.96 58.6105 161.46 54.9705 162.36 57.3705C162.76 58.4305 160.13 62.8105 159.67 63.9405C158.56 66.6205 157.44 69.3105 156.32 71.9905C155.87 73.0605 153 77.8705 153.42 78.6705C154.17 80.1005 158.87 78.7005 159.81 79.9805C160.55 80.9905 159.28 84.9405 159.09 86.2005C158.6 89.4405 159.09 89.1105 162.34 89.8705C165.06 90.5005 166.15 90.1405 168.38 88.4805C169.77 87.4505 172.59 85.9505 170.85 88.7905C169.89 90.3605 167.81 91.6005 166.04 91.9405C164.94 92.1505 159.92 90.8305 159.4 91.2605C158.53 91.9805 160.9 95.3105 161.44 95.9905C162.85 97.7605 164.76 99.1705 166.92 99.8605C168.97 100.52 171.25 100.52 173.28 99.7805C175.57 98.9505 176.75 96.8605 178.81 95.8505C177.84 100.92 171.11 102.8 166.77 101.48C161.51 99.8805 157.96 94.8605 157.17 89.5705C156.94 88.0405 157.03 86.5505 157.24 85.0305C157.33 84.3305 158.16 81.9605 157.6 81.3705C156.05 79.7405 151.57 82.1005 151.42 78.5305C151.36 77.1205 152.64 75.2705 153.21 74.0005C153.97 72.3205 154.72 70.6405 155.48 68.9605C156.97 65.6505 159.05 62.1405 159.96 58.6205C155.55 58.8205 146.56 63.3505 144.39 56.6905C142.06 49.5105 152.88 48.2305 157.27 47.1505C155.66 45.4005 148.36 44.3705 151.17 40.1305C153.14 37.1605 160.93 39.6605 163.8 39.7705C162.6 36.1805 162.81 33.7505 166.87 32.4805C167.14 32.4805 167.41 32.4805 167.68 32.4805C171.04 33.2705 174.25 33.5705 177.35 35.2405C180.12 36.7305 182.57 38.8105 184.67 41.1305C189.23 46.2005 192.75 52.6605 194.02 59.3905V61.1605L194 61.1805Z" fill="black"/>
<path d="M82.3604 90.8901C84.9504 90.6701 87.8004 90.0701 90.3904 90.2901C87.5304 94.4301 79.8504 99.1801 83.4704 105.08C86.6404 110.25 93.7404 108.35 97.8104 105.7C101.01 103.62 99.0604 104.15 97.3804 101.81C96.0404 99.9401 96.0204 97.4301 97.7604 95.7801C99.3504 94.2801 102.04 93.8901 103.81 95.2501C106.55 97.3501 105.47 100.19 104.27 102.73C107.33 102.33 109.63 100.35 111.75 98.2701C112.43 97.6001 113.25 96.1101 114.34 96.8401C115.51 97.6301 113.83 99.2201 113.59 100.22C112.21 106.15 119.33 108.42 123.92 107.89C129.16 107.28 134.25 103.42 134.84 97.9101C135.16 94.9401 134.02 91.9901 131.98 89.8401C129.59 87.3301 126.21 87.3801 123.6 85.4401C126.97 84.6101 130.41 84.9901 133.71 83.6101C136.4 82.4901 139.74 80.3601 141.31 77.8201C138.47 78.6501 136.4 80.1901 133.27 80.5001C130.48 80.7801 126.75 80.9601 124.09 79.9801C127.51 76.7901 132.82 74.5201 131.4 68.7701C131.02 67.2501 129.77 64.8301 128.13 64.2601C125.97 63.5101 124.87 66.7101 123.12 67.9401C121.44 69.1201 118.59 70.4601 117.31 67.9801C116.33 66.0801 117.82 63.8301 119.39 62.7901C120.27 62.2001 121.35 61.8401 122.38 61.6201C123.05 61.4701 124.62 61.6701 125.17 61.3301C126.34 60.6101 126.13 58.9301 125.93 57.6201C124.45 48.1601 111.22 47.4701 105.21 52.6601C103.15 54.4401 102.08 55.7301 101.63 52.3601C101.31 49.9301 100.12 48.0401 98.1204 46.6001C96.3304 45.3001 94.2304 44.7201 92.0304 44.8001C89.4004 44.8901 86.4304 46.9301 83.9504 46.5801C85.4704 43.9101 90.9004 42.8901 93.6704 43.1401C97.1804 43.4501 100.5 45.4301 102.35 48.4601C103.19 49.8401 102.84 51.2301 104.4 50.8801C105.76 50.5701 107.32 48.9701 108.71 48.4401C111.84 47.2501 115.34 47.0701 118.55 48.0101C121.6 48.9001 124.46 50.8001 126.23 53.4801C127.22 54.9701 127.73 56.6301 127.82 58.4201C127.92 60.5101 127.11 61.1601 128.64 62.4001C131.22 64.4901 133.28 65.9501 133.45 69.6101C133.63 73.6401 131.47 76.5401 128.48 78.9501C131.2 79.6201 134.32 78.8701 136.97 78.1601C138.6 77.7201 140.45 77.4901 142.01 76.8501C142.45 76.6701 142.91 77.0901 142.74 77.5301C141.92 79.6901 139.03 82.3201 137.58 83.4001C135.2 85.1801 132.78 85.3901 130.14 86.4101C133.39 88.8501 135.79 90.5601 136.53 94.8901C137.26 99.1801 135.74 103.34 132.47 106.21C129.11 109.16 124.27 110.38 119.88 109.65C114.88 108.82 112.46 106.11 111.37 101.42C109.62 102.26 108.37 103.51 106.44 104.09C104.3 104.73 102.9 104.45 101.08 105.79C97.6504 108.31 93.7704 110.46 89.3604 110.11C85.6004 109.81 82.0204 107.65 81.1304 103.81C80.6704 101.83 80.9604 99.8201 81.7904 97.9801C82.7104 95.9601 84.6304 94.5801 85.5404 92.6401C82.4804 92.3201 79.6104 93.0101 76.5504 92.1401C74.5104 91.5601 71.4204 90.3201 69.4004 88.8401C68.9704 88.5201 69.2004 87.8401 69.7304 87.8501C74.8704 87.9401 80.0504 88.3201 84.2604 84.8301C85.6804 83.6601 86.0304 83.4501 84.3104 82.5701C83.1904 82.0001 82.0804 81.5001 81.0504 80.7601C79.0004 79.2901 77.1004 77.1901 76.8304 74.5801C76.7204 73.4801 76.8804 72.4101 77.3304 71.4101C77.7604 70.4401 79.2004 69.5801 79.4904 68.7501C79.8404 67.7501 79.1904 67.7301 78.3104 66.7601C77.4604 65.8301 76.7604 64.7501 76.2704 63.5901C74.1804 58.6001 76.1104 52.6901 80.4104 49.6501C78.3804 53.4501 76.1004 57.5501 77.3304 62.0101C78.3804 65.8001 81.4504 67.0201 84.4104 69.0501C81.3904 69.7201 78.3504 70.0401 78.3704 73.9801C78.3904 77.6101 82.3804 79.7301 85.2404 81.1001C86.1604 81.5401 88.2404 81.8601 88.3104 83.0101C88.3604 83.8901 85.8204 85.8801 85.1904 86.3901C82.6204 88.4801 79.7404 89.2901 76.6304 90.1801C78.2604 90.8701 80.6104 90.7401 82.3604 90.9301V90.8901ZM101.26 96.2901C97.0104 96.2901 97.5704 102.42 101.31 102.42C103.86 102.42 105.24 96.3001 101.26 96.2901ZM124.1 63.2501C121.25 63.3201 119.42 64.6401 118.93 67.3601C121.7 67.4501 123.47 65.7901 124.68 63.3501C124.43 63.3101 124.19 63.2701 124.1 63.2601V63.2501Z" fill="black"/>
<path d="M50.8697 76.2205C50.9897 75.4705 50.8897 73.7705 52.0597 73.9105C52.5197 73.9605 53.0497 75.5505 53.0897 75.8505C53.3097 77.4805 51.8397 81.8605 50.5797 82.9505C47.2497 85.8405 41.6597 78.5605 44.5297 76.0405C45.2497 77.4305 46.0297 81.4405 47.9697 81.7905C50.2397 82.2005 50.8097 77.7305 51.2697 76.3405C51.1397 76.3005 51.0097 76.2605 50.8797 76.2305L50.8697 76.2205Z" fill="black"/>
<path d="M170.29 68.7603C170.15 70.6503 170.94 72.7003 173.1 72.7703C176.38 72.8703 175.74 69.3803 176.47 67.3303C180.01 69.6203 176.81 74.4703 173.27 74.5403C169.55 74.6203 167.03 70.1903 169.41 67.3203C169.7 67.8003 169.99 68.2803 170.28 68.7603H170.29Z" fill="black"/>
</svg>
