<svg width="175" height="155" viewBox="0 0 175 155" fill="none" xmlns="http://www.w3.org/2000/svg">
<path d="M18.3701 87.5901C18.6201 87.0501 18.8801 86.5101 19.0801 86.1001C18.8901 85.4701 18.5101 84.8601 18.5801 84.2901C18.8801 81.9001 20.1901 80.3201 22.9801 80.1301C21.7401 77.5701 22.7601 76.3001 25.7501 76.4501C26.0301 76.4601 26.3501 75.6002 26.6801 75.1601C27.5901 73.9301 28.3901 72.6301 29.4501 71.5201C30.5101 70.4101 31.7601 69.4301 33.0501 68.5401C33.8501 67.9901 34.9201 67.7802 35.8001 67.3001C36.2701 67.0501 36.7701 66.6201 36.9601 66.1701C40.5201 57.8301 40.7201 49.2001 39.6001 40.4401C39.1201 36.6901 39.4701 33.0301 43.2501 30.7301C44.6101 29.9001 46.5401 29.8701 48.2001 29.4401C48.4701 29.3701 48.7501 29.2201 48.9401 29.0301C53.6801 24.3401 59.4701 22.7501 64.4001 24.8901C69.1201 26.9401 71.1901 30.9001 72.3701 35.2301C73.3801 38.9101 74.4501 42.7101 74.4701 46.4601C74.4901 49.9901 76.9601 52.2402 78.1301 55.1301C78.7701 56.7102 79.5801 58.2402 80.1001 59.3601C82.5001 56.6002 84.8901 53.2601 87.9301 50.5301C91.0201 47.7601 94.8501 45.7801 99.1501 45.1401C99.2401 44.5701 99.3201 44.0302 99.4101 43.4902C99.6101 42.2402 99.5901 40.9001 100.11 39.7801C100.36 39.2301 101.65 38.7401 102.41 38.8001C106.52 39.1401 110.6 39.9402 114.7 40.0602C119.23 40.1902 123.31 38.8001 126.24 35.3201C126.36 35.1801 126.46 35.0102 126.6 34.8102C124.5 34.6202 122.76 33.8401 122.83 31.7601C122.86 30.8901 123.9 29.6501 124.82 29.2801C126.62 28.5401 128.23 29.2801 129.27 30.8701C131.46 29.0901 132.05 24.4201 130.38 22.0501C128.58 23.0401 126.56 23.9701 125.02 22.0601C124.43 21.3401 124.6 19.5101 125.21 18.6701C126.48 16.8901 128.44 17.2201 130.83 18.4501C131.1 15.9101 131.35 13.5901 131.6 11.2701C129.7 12.4201 128.11 12.9501 126.63 11.9001C125.76 11.2801 124.76 9.86015 124.99 9.09015C125.33 7.97015 126.71 7.11015 127.83 5.94015C126.88 4.26015 119.74 2.85015 116.32 4.24015C116.97 5.90015 116.85 7.55015 114.99 8.29015C114.1 8.64015 112.44 8.39015 111.71 7.80015C110.29 6.66015 110.65 5.11015 111.71 3.74015C107.15 1.08015 97.8501 4.46015 96.0101 8.85015C96.9501 10.3301 97.9001 11.3401 98.2101 12.4901C98.3501 13.0201 97.3001 14.3601 96.6901 14.4201C95.4201 14.5501 94.0701 14.0701 92.3201 13.7601C91.3001 14.7101 90.4401 19.7901 91.4901 21.5901C91.5401 21.6801 91.8401 21.7201 91.9901 21.6901C93.5801 21.3001 94.9701 21.5401 95.4201 23.1501C95.5501 23.6201 94.9001 24.4801 94.3601 24.8701C92.5201 26.2101 92.4801 27.7801 93.7001 29.3501C95.8301 32.1201 98.1301 34.7802 100.34 37.4902C100.62 37.8401 100.8 38.2601 101.03 38.6401C100.55 38.5601 99.9901 38.6002 99.5901 38.3801C93.8801 35.3001 90.3801 30.9501 89.9501 24.6401C89.8301 22.9201 88.5801 21.2801 88.4201 19.5601C88.0701 15.9601 88.9601 12.6801 92.3601 10.3301C92.8601 9.98015 92.9501 9.13015 93.2501 8.52015C96.6201 1.57015 106.63 -1.48985 114 1.94015C115.07 2.44015 116.84 1.53015 118.3 1.43015C122.83 1.11015 127.47 1.57015 130.27 5.03015C132.79 8.14015 134.98 11.8301 134.03 16.1601C133.92 16.6801 133.6 17.1701 133.39 17.6701C132.81 19.0701 132.42 20.2601 133.31 21.9201C135.52 26.0101 133.85 30.9501 129.86 33.6401C129.6 33.8201 129.43 34.1601 129.3 34.4601C127.81 37.8201 124.91 39.7401 121.98 40.8501C122.28 41.7001 122.47 42.5001 122.85 43.2201C122.97 43.4501 123.6 43.5501 123.98 43.5401C129.45 43.3801 134.6 44.5401 139.36 46.9701C144.06 49.3801 146.44 53.6601 148.89 57.8001C152.59 64.0701 155.15 70.7501 157.12 77.6501C157.19 77.8901 157.24 78.1301 157.29 78.3801V80.4301C156.92 82.1101 156.57 83.8001 156.16 85.4701C155.42 88.4801 155.06 91.6501 153.8 94.4601C151.23 100.21 148.22 105.8 145.28 111.41C144.17 113.53 142.42 115.23 142.82 118.02C143.71 124.12 144.13 130.28 144.71 136.41C144.73 136.59 144.4 136.95 144.2 136.97C142.76 137.15 141.3 137.26 139.82 137.4C140.33 138.37 141 139.21 141.21 140.13C141.53 141.55 141.43 143.04 141.69 144.47C142.14 146.95 142.76 149.41 143.23 151.89C143.28 152.17 142.89 152.75 142.61 152.81C142.16 152.9 141.28 152.79 141.2 152.56C140.73 151.35 140.39 150.1 140.12 148.84C139.75 147.12 139.52 145.37 139.14 143.65C138.7 141.67 138.17 139.71 137.75 138.04H88.6801C88.7101 138.38 88.7701 139.32 88.8801 140.26C89.2301 143.44 89.6101 146.61 89.9401 149.79C89.9701 150.04 89.7601 150.48 89.5501 150.55C89.1701 150.68 88.3801 150.69 88.3401 150.58C87.9901 149.54 87.6801 148.47 87.5101 147.38C87.2601 145.82 87.2401 144.22 86.9301 142.67C86.5201 140.6 85.9001 138.57 85.4101 136.51C85.0101 134.86 84.6701 133.2 84.2901 131.53C68.3901 137.85 52.0601 139.53 35.2601 136.77C35.0601 138.11 35.0501 139.37 34.6501 140.52C34.0801 142.13 33.0401 143.6 32.5201 145.21C31.6001 148.07 30.9601 151.01 30.1101 153.89C30.0201 154.21 29.2401 154.6 28.8601 154.53C28.5101 154.47 27.9601 153.8 28.0301 153.49C28.4801 151.3 29.0501 149.14 29.6101 146.97C30.1201 144.98 30.5501 142.97 31.2101 141.02C31.7301 139.48 32.5501 138.03 33.2301 136.54C32.9601 136.54 32.6901 136.52 32.4201 136.52C32.3601 136 32.2701 135.48 32.2501 134.95C32.2501 134.71 32.5001 134.44 32.4501 134.22C31.9201 132.14 31.4501 130.04 30.7701 128C29.5901 124.49 28.2301 121.03 27.0301 117.52C26.4701 115.89 26.1301 114.2 25.6801 112.53C24.9901 109.93 24.0801 107.36 23.6601 104.73C23.3301 102.64 23.5901 100.47 23.5901 98.2701C20.6601 97.5201 19.8101 96.4601 19.4801 93.4901C19.2901 91.7801 18.7601 90.1001 18.3901 88.4001C18.3901 88.1301 18.3901 87.8501 18.3901 87.5801L18.3701 87.5901ZM142.43 112.41C144.67 108.14 146.88 104.55 148.47 100.75C150.35 96.2601 151.9 91.6201 153.2 86.9601C154.23 83.2601 155.82 79.5701 153.89 75.5701C151.5 70.6301 149.59 65.4902 147.3 60.5101C146.47 58.7101 145.05 57.1501 144.1 55.3901C142.16 51.7901 139.26 49.0701 135.19 47.7901C131.85 46.7402 128.3 46.2901 124.84 45.5901C124.38 45.5001 123.68 45.3601 123.44 45.5802C122.07 46.8302 121.06 48.5901 119.46 49.4101C117.08 50.6401 114.32 51.2701 111.69 52.0501C111.1 52.2201 110.36 51.9102 109.68 51.8302C108.61 51.7001 107.47 51.7402 106.48 51.4101C105.25 51.0001 104.03 50.4101 103 49.6701C101.95 48.9201 101.14 47.9001 100 46.7801C98.3101 47.4501 95.8101 48.1702 93.6301 49.3801C88.8001 52.0501 85.6101 56.2201 82.8901 60.6101C79.3801 66.2701 78.4101 72.6901 77.2301 79.0001C76.8901 80.8001 76.6801 82.6201 76.4501 84.5401C76.3401 85.4501 75.1601 85.7301 74.6601 84.9601C74.5701 84.8301 74.4901 84.7001 74.4001 84.5801C74.2001 84.2901 73.8001 84.1101 73.5001 83.8901C73.2401 84.2001 73.0101 84.5401 72.7101 84.8201C72.4301 85.0901 72.1001 85.4801 71.7701 85.5001C68.4001 85.6301 65.0201 85.6301 61.6501 85.8001C54.8401 86.1501 48.0401 86.5801 41.2401 87.0201C40.8701 87.0401 40.3401 87.4501 40.2101 87.7801C39.0101 91.0101 37.8801 94.2601 36.7301 97.5101C36.6801 97.6501 36.7001 97.9401 36.7601 97.9601C37.8201 98.2701 38.8701 98.6702 39.9601 98.8001C41.3701 98.9701 42.8101 98.9001 44.2401 98.9501C48.4501 99.1201 52.6501 99.4101 56.8601 99.4301C59.4001 99.4401 61.9401 99.0401 64.4701 98.8201C67.5001 98.5501 70.5301 98.2801 73.5601 98.0001C76.0301 97.7701 78.5001 97.4901 80.9701 97.2901C82.5601 97.1601 86.0001 94.8601 86.5801 93.5401C87.4601 91.5501 88.3901 89.5701 89.3301 87.6101C89.8301 86.5701 90.4601 85.5901 90.9301 84.5401C91.5001 83.2701 91.9201 81.9301 92.5201 80.6701C92.6301 80.4501 93.3001 80.3301 93.6701 80.3801C93.9601 80.4201 94.4501 80.8501 94.4201 81.0301C94.1201 82.5901 94.1801 84.4401 93.2401 85.6001C92.1101 87.0001 92.6301 88.1001 93.3601 88.9001C95.3801 91.1001 97.4701 93.3501 99.9501 95.0601C102.56 96.8701 105.51 98.4501 108.58 99.4501C111.7 100.46 115.14 100.68 118.45 101.16C121.1 101.54 124.02 101.26 125.45 103.82C126.69 103.09 127.96 102.34 129.23 101.58C131.18 100.41 133.04 101.31 133.44 103.52C133.5 103.84 134.23 104.3 134.62 104.28C136.01 104.19 137.38 103.92 138.84 103.71C138.84 103.64 138.94 103.26 138.92 102.9C138.7 98.7001 138.45 94.5001 138.23 90.3001C138.04 86.5602 137.82 82.8101 137.73 79.0601C137.66 76.4301 137.73 73.7901 137.86 71.1601C137.88 70.6901 138.43 70.2501 138.74 69.7901C138.99 70.2701 139.41 70.7301 139.45 71.2201C139.69 74.1201 139.82 77.0301 140.03 79.9401C140.5 86.5201 140.98 93.0901 141.47 99.6701C141.77 103.69 142.09 107.71 142.45 112.41H142.43ZM35.2401 134.31C35.3301 134.34 35.4001 134.39 35.4701 134.39C40.6001 134.81 45.7301 135.42 50.8701 135.62C62.0001 136.06 72.4701 133.31 82.6701 129.49C82.7701 129.45 82.8801 129.27 82.8601 129.18C81.9001 123.07 80.9401 116.96 79.9601 110.86C79.3401 107.02 78.7001 103.18 78.0901 99.4501C75.8301 99.7701 73.5201 100.21 71.1901 100.4C65.2801 100.89 59.3601 101.28 53.4401 101.69C51.5001 101.83 49.5601 102.05 47.6301 102.01C45.4801 101.97 43.3401 101.61 41.1901 101.53C38.4101 101.43 35.4001 99.6301 35.0301 98.1001C32.0301 98.2101 29.1301 98.3101 26.2301 98.4201C26.0701 98.4201 25.7901 98.5602 25.7901 98.6501C25.7301 99.4901 25.5901 100.35 25.7201 101.17C26.1101 103.48 26.5501 105.79 27.1001 108.07C27.5501 109.95 28.1901 111.79 28.7501 113.64C29.5001 116.11 30.2101 118.59 31.0201 121.05C31.5301 122.62 32.2701 124.12 32.7501 125.69C33.1401 126.94 33.3001 128.26 33.5601 129.55C34.3801 126.84 34.9201 124.13 35.3001 121.4C35.7101 118.41 36.1001 115.4 36.2801 112.4C36.4801 109 36.4101 105.59 36.5501 102.19C36.5701 101.7 37.0901 101.22 37.3801 100.73C37.6501 101.19 38.1301 101.64 38.1601 102.12C38.3701 104.96 38.6401 107.82 38.5901 110.66C38.5201 114.95 38.5001 119.28 37.9201 123.53C37.4201 127.15 36.1601 130.69 35.2201 134.3L35.2401 134.31ZM140.26 116.32C134.31 119.43 128.69 119.11 123.15 115.87C123.08 115.83 122.96 115.82 122.87 115.83C121.56 116.03 120.22 116.49 118.93 116.39C116.11 116.17 113.2 115.99 110.52 115.23C104.46 113.51 98.4601 111.58 92.5401 109.47C89.8401 108.51 87.3201 107.05 84.8701 105.61C83.3901 104.74 82.1901 103.47 80.7601 102.31C81.6701 107.57 82.4301 112.73 83.5001 117.85C84.5601 122.95 85.8501 128.01 87.2301 133.04C87.6101 134.44 88.0601 135.76 90.6501 135.69C96.8101 135.52 103 136.2 109.17 136.16C117.28 136.11 125.38 135.7 133.49 135.43C136.36 135.33 139.23 135.18 141.77 135.06C141.25 128.62 140.75 122.44 140.26 116.32ZM80.3601 99.2901C82.4901 100.92 84.0901 102.56 86.0701 103.56C90.1301 105.61 94.3601 107.38 98.5801 109.15C100.65 110.02 102.81 110.71 104.98 111.36C106.93 111.95 108.93 112.42 110.94 112.85C113.42 113.39 115.91 113.95 118.43 114.29C119.33 114.41 120.97 114.12 121.18 113.63C121.99 111.68 122.16 109.51 122.96 107.56C123.66 105.86 122.7 104.02 120.73 103.85C117.55 103.56 114.34 103.36 111.24 102.74C108.78 102.25 106.37 101.35 104.09 100.33C101.9 99.3501 99.8001 98.1201 97.8701 96.7501C96.2501 95.6001 94.8801 94.1401 93.4801 92.7401C92.6401 91.9001 91.9601 90.9201 91.1801 89.9701C89.9801 92.0601 88.8801 94.2001 87.5701 96.2101C86.0901 98.4901 83.7101 99.3601 80.3801 99.2801L80.3601 99.2901ZM35.0201 96.3301C35.8101 93.9201 36.7401 91.1001 37.6501 88.2701C37.6901 88.1601 37.6701 87.9902 37.6001 87.9101C36.6501 86.8401 35.8001 85.6501 34.6801 84.7401C32.6501 83.0801 30.4801 81.5701 28.3301 80.0501C27.8101 79.6801 27.1401 79.5101 26.5401 79.2501C26.4701 79.3501 26.4101 79.4601 26.3401 79.5601L29.1201 81.6501C29.9701 82.2901 29.3301 83.6401 28.2901 83.3801C27.2501 83.1201 26.1801 82.8901 25.1101 82.7401C23.9101 82.5701 22.5601 83.2901 21.2801 83.6001C21.7601 84.4101 22.2401 85.2201 22.7301 86.0301C22.7701 86.0901 22.8401 86.1401 22.8701 86.1801C22.1701 86.9701 20.3601 87.0401 21.5901 88.8601C22.2801 89.8801 21.8501 91.5101 22.1701 92.8101C22.4401 93.9001 22.8801 95.6601 23.5901 95.8201C25.8601 96.3201 28.2901 96.2402 30.6601 96.3301C32.0801 96.3801 33.5001 96.3301 35.0101 96.3301H35.0201ZM38.4001 85.4901C38.7401 85.3401 39.0701 85.1101 39.4201 85.0601C40.7001 84.8901 41.9801 84.7401 43.2701 84.6701C51.0001 84.2501 58.7401 83.9101 66.4701 83.4101C68.3501 83.2901 70.5701 83.9701 71.9601 81.9401C72.2201 81.5701 73.1701 81.6002 73.7901 81.4401C73.9501 81.4001 74.2201 81.3601 74.2401 81.2901C74.7401 78.7501 75.2201 76.2201 75.6601 73.8901C74.3601 75.5701 73.0701 77.5201 71.4801 79.2201C67.7201 83.2301 62.7601 83.3201 59.6501 79.5601C57.6801 81.9001 55.2101 83.4401 51.8901 82.7101C48.3901 81.9401 47.5101 79.2801 47.3001 76.3901C46.2301 77.5201 45.2601 78.6901 44.1401 79.7101C42.5301 81.1801 40.6301 82.1101 38.2901 81.3601C35.9901 80.6201 34.6101 78.9201 34.5301 76.7901C34.4401 74.4901 34.9501 72.1601 35.1801 70.0501C35.1501 70.0801 34.8401 70.3501 34.5201 70.6101C33.2501 71.6301 31.8501 72.5501 30.7301 73.7001C29.7901 74.6601 29.1801 75.8901 28.4501 77.0201C28.4101 77.0901 28.6201 77.3601 28.7701 77.4501C30.3101 78.3501 32.0701 79.0401 33.3701 80.1801C35.2601 81.8301 36.8201 83.8001 38.3901 85.5001L38.4001 85.4901ZM101.98 44.9902C101.84 45.1902 101.69 45.3801 101.55 45.5802C105.54 48.6702 109.91 51.0101 115.5 48.8501C117.7 48.0001 119.53 46.3502 121.15 45.3102C120.63 44.3902 120.17 43.9601 120.16 43.5101C120.12 42.1001 119.93 41.4301 117.95 41.8102C112.55 42.8601 107.35 41.6901 102.37 39.9801C102.24 41.6601 102.11 43.3201 101.98 44.9801V44.9902ZM136.66 106.46C135.77 106.62 134.8 106.81 133.82 106.97C131.16 107.4 129.95 106.14 130.8 103.84C130.85 103.71 130.77 103.44 130.68 103.41C130.54 103.36 130.32 103.41 130.17 103.5C128.74 104.24 127.33 104.99 125.92 105.73C125.18 108.3 124.37 111.11 123.58 113.92C123.55 114.04 123.64 114.31 123.72 114.33C126.44 114.92 129.14 115.79 131.89 115.95C133.96 116.07 136.1 115.29 138.21 114.91C138.17 114.65 138.14 114.39 138.1 114.13H134.27C133.42 114.13 132.97 113.11 133.55 112.49H133.56C133.45 112.47 134.14 111.22 134.62 110.67C133.61 110.54 133.24 109.27 134.03 108.63L136.67 106.47L136.66 106.46ZM129.48 9.21015C128.8 9.09015 128.41 8.96015 128.04 8.97015C127.82 8.97015 127.61 9.21015 127.39 9.33015C127.69 9.62015 127.97 10.1201 128.3 10.1501C128.6 10.1701 128.93 9.67015 129.49 9.21015H129.48ZM127.1 32.5901C127.18 32.4001 127.27 32.2001 127.35 32.0101C126.76 31.8001 126.18 31.5901 125.58 31.4101C125.56 31.4101 125.41 31.7701 125.33 31.9601C125.92 32.1701 126.51 32.3801 127.1 32.5901ZM139.42 107.87C138.87 108.31 138.37 108.71 137.85 109.12C138.42 109.31 138.97 109.49 139.58 109.69C139.52 109.06 139.47 108.48 139.41 107.87H139.42ZM114.11 5.26015C113.97 5.22015 113.82 5.18015 113.68 5.13015C113.57 5.49015 113.45 5.85015 113.38 6.21015C113.37 6.26015 113.6 6.36015 113.71 6.43015L114.11 5.25015V5.26015ZM128.58 20.3101L128.51 19.9101C128.12 19.9901 127.72 20.0601 127.34 20.1701C127.27 20.1901 127.28 20.4201 127.25 20.5501C127.69 20.4701 128.13 20.3901 128.58 20.3101Z" fill="black"/>
</svg>
