<svg width="175" height="155" viewBox="0 0 175 155" fill="none" xmlns="http://www.w3.org/2000/svg">
<path d="M88.7196 0.219727C89.8196 0.489727 90.9696 0.629727 91.7796 1.50973C92.0696 1.80973 92.3796 1.97973 92.7796 1.87973C96.4396 1.74973 100.26 2.09973 103.69 3.47973C105.19 3.82973 105.82 5.48973 107.17 5.89973C108.53 5.89973 109.57 6.52973 110.38 7.58973C111.77 10.2997 113.82 13.5697 112.58 16.6697C113.33 21.5097 110.11 27.3297 104.51 25.9297C101.65 34.5697 99.0896 29.1197 99.1796 37.1297C109.47 38.7097 113.49 50.9997 111.43 60.0897C110.75 64.2697 108.93 68.0997 107.78 72.1597C106.96 73.6497 107.42 75.0397 108 76.5297C108.53 78.1697 107.94 79.0897 106.56 79.9897C107.12 81.9597 107 84.0297 107.39 86.0397C107.94 89.9397 107.99 93.9197 108.39 97.8497C109.11 101.86 107.43 104.32 103.22 104.4C103.69 108.45 102.92 112.49 102.99 116.56C102.55 121.1 103.44 125.66 103.49 130.2C104 130.17 104.48 130.14 104.99 130.11C106.26 133.02 102.18 145.36 107.29 143.85C109.69 143.5 112.83 142.46 114.59 144.75C119.36 152.14 98.2996 154.87 93.9396 154.07C88.7596 152.86 89.7396 146.28 89.2296 142.2C88.8996 138.87 88.8096 135.45 89.1996 132.28C91.2596 131.59 89.7496 122.77 90.6396 120.29C90.5096 116.13 90.9696 111.91 91.2596 107.77C90.6496 105.78 92.1296 103.28 91.0596 101.6C89.0096 104.23 85.7096 103.35 82.8296 103.43C81.5796 108.15 83.8796 114.66 79.0896 117.82C73.2996 119.84 66.6396 119.75 60.5996 119.19C59.1296 124.16 53.4896 121.23 49.9396 122.11C48.2796 122.49 48.0796 124.3 47.4496 125.63C45.9196 128.95 40.7896 127.64 39.9296 124.41C38.3896 120.03 41.2796 115.86 41.4696 111.5C41.6696 109.38 42.3196 107 44.6296 106.41C49.4296 105.32 54.3996 104.96 59.2896 104.41C60.7196 104.14 60.4396 105.87 60.6096 106.8C64.5996 106.24 70.3196 108.48 72.2996 103.78C72.5996 103.3 73.3996 103.5 73.3796 104.08C72.1496 109.98 65.0096 107.58 60.7496 108.05C60.5096 111.5 60.3496 115.1 60.5696 118.59C65.2196 117.21 78.1296 119.75 80.0796 114.65C81.6196 111.13 80.2996 107.19 81.7796 103.66C77.0196 103.33 72.3296 103.31 67.4996 103.27C68.6596 97.3197 70.0796 91.5997 70.9896 85.5697C67.0896 80.4097 63.1696 74.9497 61.9296 68.4697C59.6596 57.2397 64.0996 44.4897 73.8696 38.1397C75.6796 36.1397 84.8396 31.6197 86.8596 33.4197C60.1596 41.0797 55.5196 67.5597 73.7496 87.0897C74.8996 85.4997 75.9196 83.8697 76.9596 82.2297C73.5396 76.2697 70.7396 69.7597 71.4096 62.7697C72.4496 53.7997 75.6896 48.6797 75.0996 61.8897C74.5396 63.2797 75.0996 69.5097 73.8296 69.5097C72.1296 68.8097 74.3296 61.0497 73.6696 58.6897C71.0896 66.1397 73.9196 74.4697 77.7296 81.0097C77.9896 80.2797 79.1196 80.0497 79.1296 80.9997C78.6096 82.8897 77.2596 84.3497 76.1296 85.8997C75.2096 87.4497 74.4296 89.1297 73.0696 90.3597C71.6396 90.1197 72.8296 88.8897 73.2196 88.1397C72.8096 87.6997 72.4196 87.2897 71.9596 86.7997C71.3396 91.8697 70.3396 96.8797 69.2696 101.88C75.6896 101.8 82.2196 102.77 88.5696 101.79C90.8896 100.9 91.2996 91.6697 91.8396 89.0097C90.6496 89.7497 89.5896 90.0897 88.1896 90.1397C87.1996 88.6497 89.9196 88.6597 90.7696 88.0897C91.2296 87.8097 91.6096 87.4997 92.1996 87.4897C92.4296 86.3897 93.3996 87.1497 94.0296 86.5697C94.4596 86.2397 95.2596 85.7297 95.5296 86.4797C95.9896 87.9697 93.1596 87.8197 93.0796 89.1297C93.1596 92.2197 89.7496 100.91 93.3096 101.89C97.2996 103.81 102.59 103.91 106.56 102.07C107.64 100.06 106.92 97.1997 106.8 94.9597C106.41 90.0197 105.89 85.2797 105.66 80.2897C97.2496 81.6797 88.7896 80.6797 80.4996 79.0097C79.4296 78.5597 77.2996 78.9197 76.9496 77.6497C81.5896 77.3897 86.2197 79.1697 90.9096 79.3297C93.7296 79.0597 107.06 81.0497 106.76 77.1797C104.74 70.3497 102.66 63.5797 102.12 56.4497C102.2 53.1997 101.1 49.4097 102.61 46.4497C103.8 54.8897 103.64 63.6197 106.62 71.8097C111.3 59.7797 114.5 43.3897 99.0196 38.1797C98.9396 38.6997 98.8696 39.1497 98.7996 39.6597C79.9296 44.5497 92.3996 27.2397 85.4996 29.3197C83.4496 29.6097 80.7596 29.3497 80.0296 27.0397C79.9896 26.7797 79.7296 26.8497 79.5096 26.8397C74.2096 27.2197 75.8096 20.5397 77.0996 17.4397C74.7796 15.8097 76.0396 12.2497 78.4596 11.1497C77.0696 5.02973 82.9996 0.0797266 88.7696 0.229727L88.7196 0.219727ZM105.46 6.20973C102.26 3.04973 97.1096 2.97973 92.8596 3.03973C93.6596 5.75973 89.8797 8.16973 88.2296 5.58973C87.1696 3.87973 88.5296 2.28973 90.3196 1.97973C85.1096 -0.250273 78.1496 4.85973 79.5096 10.6397C81.2096 9.92973 84.4196 11.2897 81.8596 12.7797C79.7896 13.6797 78.6296 10.9197 77.1996 13.8597C76.7696 14.7297 76.9496 16.1497 78.0496 16.3997C78.7596 15.8297 79.5496 15.3497 80.5296 15.2797C80.8296 17.3197 78.9896 17.2097 77.9696 18.2197C77.1996 20.0397 75.6496 24.8197 78.0696 25.7697C80.0296 26.8297 80.0796 23.8797 81.8196 24.1697C83.7196 24.6897 82.1396 26.3997 80.8696 26.5597C81.5696 29.3397 85.3596 28.2897 87.4896 28.4197C87.8696 23.9497 84.7596 26.2097 83.3296 22.8397C81.5696 19.0997 87.9196 15.1997 89.2296 20.0897C89.8097 19.1997 88.9896 18.6497 88.8996 17.9397C91.1196 17.6197 91.8796 15.4797 91.8396 13.4397C93.8896 14.7097 95.9796 14.7997 97.8696 13.2197C98.2696 15.3997 100.76 16.6997 102.29 14.6997C103.15 15.5597 104.61 15.9297 104.78 17.2197C105.08 20.0397 105.05 22.7997 104.58 25.6097C108.33 25.7997 112.13 22.2497 111.5 18.4697C108.16 19.4297 108.59 14.9797 111.6 16.1197C112.16 13.4397 110.33 7.41973 107.22 7.04973C107.22 10.7697 102.61 8.65973 105.45 6.17973L105.46 6.20973ZM102.2 130.46C101.48 121.81 101.26 113.21 102.32 104.59C98.8896 105.17 95.6696 104.64 92.6196 102.9C92.3296 112.47 91.8796 122.06 91.2496 131.64C94.9196 131.25 98.5196 130.88 102.2 130.46ZM88.2296 24.2297C88.9697 28.3997 89.7096 33.1197 87.9896 37.1297C90.6596 39.7597 94.2896 39.7497 97.6796 38.6897C97.8996 36.2697 98.1196 33.8997 98.3296 31.5897C101.99 29.9797 103.75 25.7197 103.46 21.9097C102.23 23.3797 99.5196 22.3197 99.7896 20.4197C100.67 20.1697 101.13 20.8297 101.81 21.3097C102.33 21.0497 102.91 20.8397 103.58 21.1697C103.47 19.5697 104.29 15.7197 101.59 16.7597C99.8996 17.4597 98.2696 16.7997 97.1896 15.3897C90.0296 16.0697 95.0596 15.0997 90.7396 18.6997C91.4596 21.0597 89.4596 23.4197 87.0396 22.8997C87.1696 21.7397 88.3396 21.0497 87.5096 19.8997C85.2596 16.8897 81.9296 24.0597 88.2396 24.2297H88.2296ZM91.4396 3.00973C89.0896 2.56973 87.8596 5.52973 90.5296 5.56973C91.6896 5.26973 92.1196 4.10973 91.4396 3.00973ZM110.28 17.3697C110.6 17.5697 110.78 17.4897 110.94 17.1797C110.62 16.9797 110.43 17.0497 110.28 17.3697Z" fill="black"/>
<path d="M35.4296 35.4496C32.8796 34.9496 26.3496 36.4096 25.0496 34.3296C22.0996 29.2196 25.8396 21.8996 31.7796 21.5396C34.3396 20.8396 33.2096 16.2696 38.3496 15.6096C40.3596 15.2596 42.2796 15.5396 44.0596 16.5496C47.5596 17.2396 47.9796 11.9696 53.4796 15.9396C57.8896 18.7896 54.2796 23.2096 58.1696 22.4996C63.0396 23.2696 65.7096 30.0396 64.1496 34.4096C64.1896 36.0096 56.4796 34.9396 54.9196 35.3196C48.4196 35.3696 41.9296 35.6896 35.4396 35.4496H35.4296ZM43.9696 17.8496C40.7996 15.3696 35.1296 16.4496 34.1796 20.6896C34.0296 21.1596 34.1496 21.3896 34.6096 21.5796C37.2196 22.0596 39.5796 24.0696 39.3896 26.9196C39.3396 28.5896 37.7496 29.3796 36.2396 29.1496C30.0696 28.4896 34.2896 21.5496 30.9396 22.6796C26.2396 23.7296 24.5296 28.4996 25.5096 32.8296C25.6296 34.1896 25.8796 34.3996 27.2496 34.3696C30.2296 34.2996 33.1996 34.2096 36.1696 34.1396C43.3196 34.0096 50.4596 33.7496 57.5896 33.4396C65.2596 37.2396 64.4796 28.3396 60.3896 24.5496C58.6296 22.7996 55.4196 22.3696 55.8296 25.6996C55.9796 27.1696 53.1396 29.8496 52.6296 27.4996C52.0296 24.7996 55.2496 23.7596 55.1596 21.2796C55.0796 16.1196 48.8396 13.6696 45.9596 17.6796C47.5996 19.4196 48.5396 22.0896 47.3596 24.3196C43.4896 28.4696 41.1096 20.4096 43.9596 17.8396L43.9696 17.8496ZM36.7396 28.3196C41.5796 28.1596 35.7996 20.2696 33.5196 23.1196C32.8096 25.3896 34.2196 28.3696 36.7396 28.3196ZM43.5296 21.5696C43.5596 22.8096 44.1996 24.9496 45.8296 24.4996C48.9196 22.6096 44.3196 14.2596 43.5296 21.5696ZM53.7396 27.4396C54.6496 26.8996 55.1496 25.3596 54.7396 24.3396C53.8296 24.9396 52.8396 26.5196 53.7396 27.4396Z" fill="black"/>
<path d="M141.43 90.4703C144.16 90.3903 147.63 88.9503 149.81 91.2303C150.44 91.8603 150.59 92.7303 149.73 93.2403C146.96 94.4303 143.67 93.7603 140.73 93.6103C138.99 93.4103 137.1 93.5003 135.77 94.8003C132.83 97.6903 129.25 100.01 126.68 103.21C129.81 102.6 133.08 100.61 136.13 102.55C137.52 103.18 138.39 105.19 136.49 105.8C132.75 107.52 125.72 103.77 123.21 106.88C122.4 108.51 120.37 109.81 120.36 111.69C125.28 106.04 133.33 113.37 123.93 115.07C115.39 114.87 118.35 123.37 123.71 126.07C124.97 126.7 126.25 127.08 127.32 128.07C119.59 127.22 119.24 121.52 116.69 122C113.31 124.24 108.59 120.88 111.82 117.7C113.54 115.94 117.01 119.09 117.22 117.31C117.11 112.19 123.14 108.12 117.64 103.89C114.42 97.6403 123.07 96.3603 121.95 106.03C124.99 103.58 127.16 100.18 130.36 97.8703C131.43 97.0303 131.9 95.9403 131.82 94.5703C131.95 91.8703 131.26 88.5503 132.83 86.2403C133.26 85.8503 133.45 85.8203 133.95 86.1203C136.42 87.6603 135.66 90.8403 135.35 93.2703C150.02 82.7203 145.62 80.1503 143.08 65.1703C142.62 62.4003 143.88 54.7403 147.93 57.8603C155.5 68.1403 147.94 81.9103 141.42 90.4803L141.43 90.4703ZM147.45 78.5003C150.4 73.0403 150.81 66.3503 148.65 60.5503C144.82 53.1803 143.02 63.5503 144.3 66.9603C145.34 70.8103 146.16 74.7303 147.45 78.5003ZM139.05 92.4003C141.49 93.4103 147.11 93.5103 149.47 92.1903C147.34 89.3203 141.71 90.8103 139.05 92.4003ZM117.47 120.97C116.9 118.64 114.5 117.94 113.06 118.3C109.64 119.84 112.98 124.49 117.47 120.97ZM127.48 104.44C129.72 105.36 132.61 104.74 135.08 105.07C135.93 105.13 136.89 104.33 136.01 103.6C133.65 102.19 129.61 102.78 127.48 104.45V104.44ZM120.65 113.95C122.66 113.9 126.63 114.41 127.17 111.88C125.86 108.94 121.46 111.79 120.65 113.95ZM133.17 94.8803C135.16 94.0103 135.38 88.4603 133.57 87.4103C132.69 89.8703 132.72 92.3403 133.17 94.8803ZM120.52 105.16C121.77 104.43 120.67 101.85 120.11 100.81C119.08 98.8603 116.9 101.54 118.24 102.78C118.98 103.58 119.7 104.45 120.52 105.16Z" fill="black"/>
<path d="M132.15 54.5296C139.24 48.8696 144.44 67.5296 136.79 62.6496C134.78 60.2596 134.24 56.9396 132.15 54.5296ZM133.02 54.6696C134.17 56.5896 135.63 58.2396 136.31 60.4196C136.67 61.3896 137.34 62.0896 138.15 62.6596C141.49 64.0796 138.69 52.5196 133.02 54.6596V54.6696Z" fill="black"/>
<path d="M98.2295 24.4298C98.9595 22.3898 97.0595 19.9798 98.1495 17.8298C99.9595 17.3898 98.9695 20.8198 99.4895 21.8998C101.52 29.2898 92.9995 23.4598 98.2295 24.4298Z" fill="black"/>
<path d="M97.9196 27.0404C99.1996 27.8704 97.4096 28.9204 96.3996 28.3904C95.0596 27.7804 93.5896 26.9604 93.6196 25.3004C95.2696 24.3004 94.9896 27.6204 97.9196 27.0404Z" fill="black"/>
<path d="M94.8897 22.5503C92.1197 21.9803 92.0697 18.8503 94.9797 21.2003C95.7097 20.7703 96.2597 20.1103 97.1697 20.6803C96.8197 21.8503 96.0197 22.3703 94.8897 22.5503Z" fill="black"/>
</svg>
