<svg width="175" height="155" viewBox="0 0 175 155" fill="none" xmlns="http://www.w3.org/2000/svg">
<g clip-path="url(#clip0_444_4347)">
<path d="M141.743 89.5082C141.552 84.3343 141.28 79.0899 141.018 74.0066C140.706 67.9871 140.384 61.7562 140.193 55.626C140.042 50.6031 140.082 45.4895 140.122 40.5471C140.143 37.6481 140.173 34.6384 140.163 31.689C140.143 26.7164 138.16 24.6126 133.328 24.4214C128.385 24.2301 123.352 24.1697 118.491 24.1194C116.487 24.0993 114.474 24.0791 112.471 24.0489L99.8584 23.8577C91.6244 23.7369 83.3904 23.606 75.1463 23.4752C74.6128 23.4752 74.0693 23.4148 73.4452 23.3443C73.1231 23.3141 72.7707 23.2738 72.3782 23.2436L72.0359 23.2134L72.2674 22.9618C72.5996 22.5994 72.9117 22.2773 73.2237 21.9653C73.8377 21.3412 74.3612 20.8077 74.7336 20.1836C75.0457 19.6702 75.2369 19.0864 75.4483 18.4824C75.6094 17.9892 75.7805 17.4859 76.012 17.0228C76.777 15.5129 77.1696 14.6976 76.9683 14.1842C76.777 13.6709 75.9315 13.3186 74.4618 12.7347L74.3008 12.6743L74.3712 12.5133C74.5222 12.1509 74.6833 11.7785 74.8544 11.4161C75.2369 10.5605 75.6295 9.67466 75.8711 8.77878C75.9818 8.35601 75.8711 7.86277 75.7402 7.34941C75.7 7.16822 75.6496 6.98703 75.6194 6.80584C75.4785 6.83604 75.3476 6.85617 75.2067 6.8763C74.7839 6.94677 74.3813 7.01723 74.0491 7.19842C72.2976 8.16475 70.2039 9.16129 67.9391 9.25188H67.7881L67.7579 9.11096C67.6975 8.78885 67.6673 8.45667 67.6471 8.13456C67.5968 7.48026 67.5364 6.85617 67.2344 6.53406C66.9626 6.24214 66.3587 6.20188 65.7245 6.16162C65.4225 6.14148 65.1004 6.12135 64.7985 6.07102L64.6173 6.04082L64.6676 5.85964C64.7481 5.56772 64.8387 5.28587 64.9192 5.00402C65.1105 4.37993 65.3018 3.7961 65.3219 3.21227C65.342 2.74924 65.1709 2.26607 64.9897 1.76277C64.9293 1.60171 64.8689 1.44065 64.8186 1.26953C64.6978 1.32993 64.5669 1.38026 64.4361 1.44065C64.0334 1.61178 63.661 1.77283 63.3892 2.03455C48.7532 16.0364 33.171 29.0719 17.0755 40.7887C16.1494 41.4631 15.2334 42.1879 14.3375 42.8925C13.9349 43.2046 13.5423 43.5166 13.1396 43.8287V45.0567C13.5322 45.7412 14.0959 45.9627 15.0723 45.8318C16.089 45.7009 17.1359 45.6506 18.2331 45.6003C18.7263 45.5801 19.2296 45.5499 19.7631 45.5197L20.0651 45.4996L19.9241 45.7714C19.7732 46.0633 19.6322 46.3049 19.5114 46.5364C19.2699 46.9793 19.0786 47.3316 18.9075 47.694C18.8068 47.9054 18.6961 48.1268 18.5854 48.3382C18.2934 48.912 17.9814 49.5059 17.8908 50.0998C17.7801 50.8145 17.8505 51.2876 18.1022 51.4889C18.3538 51.7003 18.8571 51.6701 19.592 51.3983C20.4174 51.0963 21.2428 50.7843 22.1689 50.442L24.0311 49.7475L23.3869 50.8648C23.1654 51.2473 22.9943 51.5392 22.8332 51.8311C22.6923 52.0828 22.5413 52.3344 22.3803 52.5861C22.0078 53.1901 21.6253 53.8141 21.424 54.4785C21.2629 54.9818 21.4944 55.7267 21.7864 56.2099C21.877 56.2904 22.501 56.2501 23.0849 56.0891C23.6284 55.9381 24.1619 55.7166 24.7156 55.4851C24.9572 55.3844 25.2088 55.2838 25.4705 55.1831L25.692 55.1026V55.3341C25.7423 56.1998 25.4806 57.0353 25.2189 57.8406C24.776 59.2397 24.3532 60.5684 25.3799 62.0783L41.2641 51.1869L41.2339 51.5392C40.0662 67.4637 39.875 83.4787 39.6938 98.9602L39.6535 102.443C39.5227 113.153 39.2106 124.035 38.9087 134.564C38.8181 137.654 38.7275 140.734 38.6469 143.824C38.6067 145.465 38.4758 147.116 38.3651 148.727C38.2745 150.005 38.1738 151.324 38.1134 152.632C38.0732 153.629 38.1638 154.162 38.4456 154.454C38.7275 154.746 39.2308 154.867 40.2474 154.877L43.3075 154.907C46.0354 154.937 48.8438 154.958 51.612 154.998C51.9542 154.998 52.2965 155.088 52.6186 155.169C52.7595 155.199 52.9004 155.239 53.0413 155.27H86.2793C86.3901 155.239 86.4907 155.209 86.6015 155.169C86.8632 155.088 87.1349 154.998 87.4067 154.998C90.044 154.947 92.6813 154.907 95.3186 154.877C100.402 154.807 105.656 154.726 110.82 154.565L112.854 154.505C118.138 154.343 123.594 154.172 128.899 153.498C136.75 152.491 141.21 147.881 142.166 139.798C142.659 135.631 142.87 131.484 142.79 127.467C142.558 114.573 142.206 101.799 141.753 89.4881L141.743 89.5082ZM29.2855 56.3709C28.9735 56.5722 28.6614 56.7736 28.289 57.0151L27.2522 57.6694L27.6246 56.2803C27.7857 55.6764 27.9266 55.1429 28.0776 54.6194C28.5205 53.0693 28.5709 52.2942 28.2487 51.962C27.9266 51.6198 27.1415 51.6298 25.541 51.9922L25.1585 52.0828L25.3598 51.7405C25.551 51.4184 25.7423 51.1064 25.9235 50.8044C26.3463 50.1199 26.7489 49.4656 27.0811 48.7912C27.4435 48.0664 27.6246 47.4726 27.6246 46.9692C27.6246 46.6169 27.5643 46.164 27.2522 45.9526C27.0106 45.7915 26.6583 45.7915 26.1953 45.9727C25.2692 46.325 24.3331 46.6773 23.2761 47.0699L21.3233 47.8047L21.5347 47.4122C21.7058 47.1001 21.8468 46.8283 21.9877 46.5666C22.2494 46.0834 22.4708 45.6808 22.6822 45.2681C23.1755 44.3018 23.2862 43.5971 23.0144 43.1542C22.7426 42.7214 22.0581 42.5201 20.9911 42.5503C20.6791 42.5503 20.3067 42.5503 19.8336 42.3993L19.5215 42.2986L19.7832 42.1074C35.2044 30.5314 48.9847 18.9555 61.8994 6.72531L62.1813 6.4636V6.84611C62.2216 8.40969 63.2818 9.24182 65.3621 9.34248H65.5232V9.5136C65.5232 9.63439 65.5232 9.74512 65.5232 9.86591C65.5232 10.1176 65.5232 10.3692 65.5232 10.6209C65.5635 11.3758 65.6843 11.7885 65.9359 11.9999C66.1876 12.2113 66.6204 12.2516 67.3452 12.1509C68.4826 11.9898 69.6402 11.7583 70.7575 11.5268C71.2508 11.4261 71.744 11.3255 72.2473 11.2349L72.499 11.1846L72.4486 11.4362C71.9587 13.6776 72.3983 15.0969 73.7673 15.6941L73.8579 15.7344V15.8351C74.0089 17.6268 72.9419 18.7844 71.895 19.9017L71.6836 20.1332C58.8998 33.974 44.6463 46.164 29.2956 56.3709H29.2855ZM140.424 133.678C140.384 135.983 140.102 138.359 139.609 140.764C138.743 144.942 136.146 147.78 131.878 149.22C127.55 150.679 123.081 150.76 118.752 150.83C100.271 151.153 81.498 151.394 62.9463 151.575C61.9699 151.575 60.9935 151.585 60.0171 151.585C56.1115 151.585 52.1857 151.515 48.3606 151.455C46.3273 151.424 44.2839 151.384 42.2506 151.364C41.9184 151.364 41.5762 151.324 41.2238 151.283C41.0427 151.263 40.8514 151.243 40.6501 151.223L40.489 151.203V151.042C40.5595 149.904 40.6199 148.787 40.6803 147.68C40.8212 145.193 40.9521 142.848 41.0527 140.452C41.1232 138.812 41.1936 137.181 41.2641 135.54C41.4856 130.598 41.7171 125.484 41.7875 120.461C41.858 115.096 41.8781 109.63 41.8882 104.356C41.9083 97.1786 41.9285 89.7599 42.0895 82.462C42.2606 75.2548 42.6431 67.9468 43.0156 60.8704C43.1968 57.5084 43.378 54.0356 43.529 50.6232C43.5793 49.5965 43.9517 48.8818 44.7872 48.2376C52.4475 42.2886 59.8963 35.655 67.5565 27.9545C68.1303 27.3808 69.0966 26.9681 69.8415 26.9781C86.2793 27.1694 102.929 27.4311 119.024 27.6828C123.735 27.7532 128.526 27.8539 133.268 27.9646C136.942 28.0552 138.109 29.243 138.069 32.8668C138.049 34.8498 137.988 36.873 137.938 38.8258C137.837 42.4295 137.737 46.1539 137.837 49.8179C138.089 58.2935 138.472 66.91 138.844 75.2447C139.005 78.7376 139.156 82.2305 139.307 85.7234C139.428 88.5419 139.559 91.3604 139.68 94.1889C139.982 100.742 140.284 107.516 140.465 114.19C140.636 120.552 140.545 126.793 140.414 133.698L140.424 133.678Z" fill="black"/>
<path d="M122.75 131.43C115.25 131.85 107.89 132.23 100.77 132.59L94.7298 132.9L88.1198 132.72C81.4498 132.54 75.1598 132.37 68.9198 132.18C68.8398 132.18 68.7698 132.18 68.6898 132.18C68.2498 132.18 67.8298 132.23 67.5798 132.47C67.3898 132.65 67.2998 131.94 67.2998 132.36C67.2998 133.46 67.7498 133.92 68.8498 133.95C71.0498 134.01 73.2898 134.1 75.4598 134.19C78.5898 134.31 81.8198 134.44 84.9998 134.49C96.9998 134.66 109.43 134.24 122.99 133.22C124.28 133.12 124.77 133.68 124.72 132.61C124.7 132.16 124.59 131.85 124.39 131.67C124.05 131.36 123.45 131.4 122.76 131.43H122.75Z" fill="black"/>
<path d="M64.4201 41.3501C64.1401 41.5301 64.0501 42.0001 63.9901 42.4501C63.7601 44.1601 63.5201 45.9001 63.2701 47.5801C63.1701 48.2501 63.0801 48.9301 62.9801 49.6001L62.8901 50.2501L62.6601 49.6401C62.2401 48.5301 61.9301 47.3801 61.6301 46.2701C61.4901 45.7501 61.3501 45.2201 61.2001 44.7101C61.1001 44.3901 60.6401 43.9501 60.4401 43.9801C60.2001 44.0001 59.7901 44.4301 59.6801 44.7701C59.4601 45.5101 59.3001 46.2801 59.1301 47.1801C59.0501 47.5701 58.9701 47.9901 58.8701 48.4501L58.7301 49.1001L58.5401 48.4601C58.4101 48.0201 58.2901 47.6001 58.1801 47.2101C57.9201 46.3001 57.7001 45.5101 57.4001 44.7601C57.3301 44.5901 57.0501 44.4501 56.7701 44.3201C56.6801 44.2801 56.5901 44.2401 56.5101 44.1901C56.4601 44.2701 56.4101 44.3501 56.3601 44.4301C56.2101 44.6601 56.0401 44.9301 56.0801 45.0801C56.8401 48.0401 57.5901 50.7401 58.3901 53.3201C58.4501 53.5301 58.7501 53.7101 59.0501 53.8901C59.1501 53.9501 59.2501 54.0101 59.3501 54.0801C59.4201 53.9901 59.4901 53.9101 59.5601 53.8301C59.7801 53.5701 59.9901 53.3201 60.0301 53.0601C60.1401 52.3001 60.1601 51.5101 60.1801 50.7401C60.1801 50.4201 60.2001 50.1101 60.2101 49.7901L60.2301 49.3301L60.5101 49.7001C61.2601 50.6801 61.6901 51.8001 62.1101 52.8801C62.5301 53.9801 62.9301 55.0201 63.6401 55.9001L63.8001 55.7701L64.1501 52.8101C64.5501 49.4901 64.9601 46.0501 65.3301 42.6601C65.3901 42.1401 65.1901 41.4001 65.0601 41.3401C64.7901 41.2501 64.5801 41.2601 64.4201 41.3501Z" fill="black"/>
<path d="M114 54.8796C113.96 55.3396 113.92 55.7696 113.96 56.1896C114.02 56.8796 114.02 57.5796 114.02 58.2596C114.02 59.0096 114.02 59.7896 114.1 60.5396C114.12 60.7596 114.43 60.9996 114.73 61.2296C114.83 61.3096 114.93 61.3896 115.03 61.4696C115.09 61.3996 115.15 61.3196 115.21 61.2496C115.42 60.9896 115.63 60.7496 115.68 60.4796C115.8 59.8896 115.83 59.2196 115.76 58.3596C115.63 56.7396 116.16 55.4596 117.59 53.9696C118.67 52.8396 119.67 51.3096 120.55 49.4196C120.89 48.6896 120.78 47.2196 120.37 46.9096C119.86 46.5396 118.88 46.6596 118.02 46.7596C117.86 46.7796 117.7 46.7996 117.55 46.8196C117.31 46.8496 117.07 47.0296 116.81 47.2196C116.65 47.3396 116.49 47.4596 116.32 47.5496C116.03 47.7096 115.73 47.8196 115.55 47.8996C115.5 47.9196 115.46 47.9396 115.43 47.9496L115.38 47.9696H115.32C114.83 47.8396 114.49 47.8396 114.28 47.9696C114.07 48.1096 113.97 48.3996 113.9 48.7896C113.82 49.2396 113.65 49.6696 113.49 50.0796C113.4 50.3196 113.3 50.5596 113.22 50.8096L113.19 50.8896C113.14 51.0496 113.02 51.4296 113.03 51.5496C114.19 52.5196 114.09 53.7096 113.99 54.8696L114 54.8796ZM117.71 48.2096C117.96 48.0896 118.24 48.0796 118.51 48.0696C118.63 48.0696 118.74 48.0696 118.85 48.0496L119.02 48.0296L119.04 48.1996C119.05 48.3096 119.08 48.4196 119.1 48.5296C119.16 48.7996 119.21 49.0796 119.14 49.3396C118.63 51.2196 117.32 52.4196 116.09 53.3496L115.87 53.5196L115.82 53.2496C115.28 50.2996 115.7 49.1796 117.7 48.2196L117.71 48.2096Z" fill="black"/>
<path d="M98.8699 52.7997C98.8799 52.9897 98.8898 53.1797 98.8898 53.3697C98.9098 53.9497 98.9298 54.5597 99.1098 55.0797C99.1798 55.2897 99.4898 55.4697 99.7798 55.6397C99.8798 55.6997 99.9698 55.7497 100.07 55.8097C100.11 55.7497 100.15 55.6897 100.19 55.6397C100.34 55.4197 100.49 55.2097 100.55 54.9797C100.7 54.3997 100.84 53.7997 100.97 53.2197C101.18 52.3097 101.39 51.3597 101.68 50.4497C101.79 50.0997 102.15 49.8697 102.49 49.6397C102.64 49.5397 102.78 49.4497 102.9 49.3497L103.05 49.2197L103.15 49.3897C103.23 49.5197 103.33 49.6597 103.43 49.7997C103.66 50.1197 103.91 50.4497 103.93 50.8197C103.98 51.5797 103.97 52.3497 103.96 53.0997C103.96 53.6697 103.94 54.2597 103.96 54.8297C103.96 54.9797 104.11 55.1597 104.24 55.3397C104.28 55.3897 104.32 55.4397 104.35 55.4897C104.41 55.4597 104.47 55.4197 104.53 55.3897C104.66 55.3097 104.89 55.1797 104.92 55.1197C104.91 54.6697 104.9 54.1997 104.9 53.7197C104.88 51.9397 104.86 50.1097 104.57 48.3497C104.48 47.8097 104.23 47.4397 103.85 47.3097C103.4 47.1497 102.81 47.3297 102.28 47.7997C101.89 48.1497 101.54 48.5697 101.14 49.0597C100.93 49.3097 100.71 49.5897 100.45 49.8797L100.17 50.1997L100.15 49.7797C100.12 49.0197 100.09 48.2797 100.06 47.5597C99.9798 45.5697 99.9098 43.6997 99.7498 41.8397C99.7298 41.5497 99.4399 41.2497 99.1599 40.9497C99.0799 40.8597 98.9899 40.7697 98.9099 40.6797C98.8499 40.7797 98.7798 40.8697 98.7098 40.9697C98.4898 41.2897 98.2598 41.6197 98.2698 41.8997C98.3898 44.8497 98.5699 47.8597 98.7599 50.7597L98.8898 52.7997H98.8699Z" fill="black"/>
<path d="M81.5502 55.9304C81.5502 56.4104 81.5902 56.9904 81.8802 57.2504C82.0302 57.3804 82.2402 57.4204 82.5202 57.3804C82.7202 57.3504 83.1202 56.5103 83.1902 55.8503C83.2802 54.9803 83.2602 54.1003 83.2402 53.1703C83.2402 52.7803 83.2202 52.3904 83.2202 51.9904V51.8004L83.4102 51.8204C83.8302 51.8604 84.2402 51.9103 84.6402 51.9604C85.6502 52.0803 86.6002 52.1904 87.5502 52.2204C87.7702 52.2204 88.0302 52.0704 88.3002 51.9104C88.3702 51.8704 88.4402 51.8304 88.5002 51.7904C88.4402 51.7204 88.3802 51.6504 88.3302 51.5804C88.1202 51.3304 87.9102 51.0704 87.6802 51.0204C86.9302 50.8504 86.1502 50.7704 85.2502 50.6804C84.8602 50.6404 84.4402 50.6004 83.9802 50.5404L83.6702 50.5004L84.9102 48.9904C85.7102 48.0204 86.4502 47.1203 87.1902 46.2104C87.2502 46.1403 87.3102 46.0604 87.3802 45.9904C87.6302 45.7004 87.9002 45.4004 87.8702 45.1104C87.8502 44.9504 87.7502 44.7903 87.5402 44.6203C87.3002 44.4303 87.1102 44.3604 86.9402 44.3804C86.6702 44.4204 86.4602 44.7404 86.2502 45.0404C86.1602 45.1704 86.0802 45.2904 85.9802 45.4004C85.4602 46.0304 84.9302 46.6604 84.3002 47.4004L83.1002 48.8304L83.0802 48.4004C83.0602 48.1004 83.0502 47.8703 83.0402 47.6903C83.0202 47.3703 83.0102 47.1804 83.0102 46.9804C83.0102 46.5704 83.0102 46.1604 83.0102 45.7404C83.0202 44.7704 83.0402 43.7604 82.9402 42.7904C82.9202 42.5704 82.6102 42.3304 82.3202 42.0904C82.2302 42.0204 82.1302 41.9404 82.0402 41.8604C82.0002 41.9304 81.9502 42.0004 81.9102 42.0604C81.7502 42.3004 81.5802 42.5504 81.5702 42.7704C81.5302 46.7704 81.5402 50.8404 81.5402 54.7704V55.9104L81.5502 55.9304Z" fill="black"/>
<path d="M107.89 55.8801C109.16 56.3001 110 55.5201 110.75 54.6901C112.11 53.1801 112.4 51.5001 111.66 49.4101C111.25 48.2501 110.34 48.0801 109.38 47.9101C108.79 47.8001 108.17 47.6901 107.67 47.3301C107.49 47.4301 107.08 47.7701 107.04 47.9301C106.8 49.2101 106.63 50.5301 106.45 51.8001C106.39 52.2201 106.34 52.6301 106.28 53.0501C106.28 54.4001 106.93 55.5601 107.88 55.8801H107.89ZM108.49 50.0401C108.71 49.6801 109.31 49.3001 109.71 49.3701C110.13 49.4401 110.52 50.0101 110.65 50.3901C111.15 51.9101 110.34 53.3901 108.43 54.4601L108.25 54.5601L108.19 54.3701C107.64 52.7301 107.74 51.3201 108.5 50.0501L108.49 50.0401Z" fill="black"/>
<path d="M68.1701 55.8098C68.8801 56.1398 69.7801 56.0098 70.5201 55.4498C71.8701 54.4398 72.6001 53.1498 72.6801 51.6198C72.5901 50.1698 72.4001 48.7998 71.1101 48.0898C70.3601 47.6798 69.4501 47.5098 68.5701 47.3398L68.3801 47.2998C68.3801 47.2998 68.3601 47.2998 68.3501 47.2998C68.1701 47.2998 67.7601 47.5598 67.7301 47.6798C67.6701 48.1798 67.6001 48.6798 67.5201 49.1798C67.2901 50.8098 67.0401 52.5098 67.1301 54.1398C67.1701 54.8998 67.5501 55.5098 68.1601 55.7898L68.1701 55.8098ZM69.2301 49.7798C69.6701 49.2798 70.0701 49.2298 70.3201 49.2798C70.5901 49.3298 70.9701 49.5398 71.2401 50.2498C71.8001 51.7198 71.0401 53.2598 69.2201 54.3498L69.0701 54.4398L68.9801 54.2898C68.1901 52.9298 68.3001 50.8198 69.2301 49.7798Z" fill="black"/>
<path d="M91.31 52.3597C92.01 52.4297 92.73 52.3497 93.56 52.2497C93.94 52.1997 94.35 52.1497 94.79 52.1197L95.18 52.0897L94.94 52.3997C94.71 52.6897 94.49 52.9497 94.29 53.1997C93.83 53.7497 93.44 54.2297 93.13 54.7397C93.03 54.8997 93.07 55.1897 93.11 55.4697C93.12 55.5497 93.13 55.6397 93.14 55.7197C93.23 55.7197 93.32 55.7097 93.42 55.6997C93.7 55.6897 94.01 55.6697 94.12 55.5497C95.03 54.5397 95.82 53.5197 96.47 52.5097C96.75 52.0697 96.94 51.3197 96.76 51.0197C96.6 50.7397 95.85 50.5597 95.32 50.5897C94.54 50.6297 93.75 50.7697 92.84 50.9297C92.43 50.9997 92 51.0797 91.53 51.1497L91.1 51.2197L91.37 50.8797C92.74 49.1597 94.07 47.9997 96.12 47.9497C96.2 47.5697 96.17 47.3097 96.05 47.1597C95.87 46.9397 95.46 46.9497 95.05 46.9697C93.19 47.0797 91.93 48.3097 90.72 49.4897C90.57 49.6397 90.42 49.7897 90.26 49.9297C89.84 50.3297 89.47 51.2197 89.55 51.3697C89.92 51.8597 90.68 52.2897 91.31 52.3497V52.3597Z" fill="black"/>
<path d="M70.8897 71.5398L70.6997 71.4098C70.0797 70.9598 69.7797 70.2798 69.4897 69.6198C69.1397 68.8198 68.8097 68.0598 67.9297 67.7098C67.4897 70.7598 67.7497 74.0798 68.4897 75.3798L68.7497 70.4098L71.0797 73.4198L71.2997 73.3398L72.5597 68.5898L72.6697 69.4398C72.7297 69.9298 72.7897 70.3898 72.8497 70.8198C72.9997 71.9798 73.1197 72.9898 73.2997 73.9798C73.3197 74.0998 73.5197 74.2498 73.6897 74.3698C73.7297 74.3998 73.7697 74.4298 73.8097 74.4598C73.8297 74.4198 73.8497 74.3898 73.8697 74.3498C73.9697 74.1598 74.0797 73.9598 74.0597 73.7998C73.8697 71.5998 73.6597 69.6398 73.4197 67.8098C73.3797 67.4898 73.2297 67.1798 73.0697 66.8598C73.0097 66.7398 72.9597 66.6198 72.9097 66.5098L72.5797 66.5298L70.8797 71.5498L70.8897 71.5398Z" fill="black"/>
<path d="M87.6602 67.8303C87.6302 68.2903 87.6602 68.7803 87.7002 69.2603C87.7602 69.9703 87.8102 70.6903 87.6402 71.3703C87.3902 72.3703 87.8102 73.1003 88.2602 73.8603C88.5402 74.3403 88.8302 74.8403 88.9402 75.4103C89.0002 75.4403 89.1502 75.4803 89.2902 75.5203C89.3802 75.5403 89.4902 75.5703 89.6002 75.6003L88.6802 71.9903L90.8902 70.6203L90.9102 70.8903C91.1702 73.8003 91.3702 75.1503 91.8602 75.4103C92.1402 75.5603 92.6002 75.3703 93.2502 75.0303L93.3602 74.9703L94.3202 75.9303L94.4602 75.8403C94.4002 75.2103 94.4102 74.5803 94.4102 73.9603C94.4202 72.6403 94.4302 71.3803 93.9102 70.1803C93.7902 70.6003 93.7302 71.0203 93.6702 71.4303C93.6302 71.7103 93.5902 71.9903 93.5302 72.2703C93.4202 72.8003 93.2202 73.3203 93.0202 73.8203C92.9302 74.0403 92.8502 74.2603 92.7702 74.4803L92.7202 74.6203L91.7502 74.4303V74.2803C91.7702 73.9903 91.7902 73.7003 91.8102 73.4103C91.8502 72.7103 91.9002 71.9803 91.9202 71.2703V71.1103C91.9402 70.8703 91.9602 70.3203 91.8802 70.2303C91.4902 70.0403 90.9302 69.9803 90.4602 70.0903C90.1002 70.1703 89.7602 70.3703 89.3602 70.5903C89.1702 70.7003 88.9602 70.8203 88.7402 70.9303L88.5202 71.0403L88.5002 70.7903C88.4802 70.5803 88.4502 70.3703 88.4302 70.1603C88.2702 68.8003 88.1102 67.5103 89.4402 66.5803C88.8302 66.4003 88.4102 66.4003 88.1502 66.5803C87.8702 66.7603 87.7202 67.1603 87.6802 67.8303H87.6602Z" fill="black"/>
<path d="M74.8698 54.9901C74.8998 55.2101 75.2298 55.4601 75.6098 55.7401C75.7698 55.8601 75.9398 55.9901 76.1198 56.1301C76.1498 55.9701 76.1698 55.8401 76.1998 55.7301C76.2498 55.5001 76.2698 55.3801 76.2498 55.2901C75.5998 51.5701 76.8398 48.6601 80.0298 46.3901C80.1298 46.3201 80.1398 45.9701 80.1498 45.7101C80.1498 45.6101 80.1498 45.5101 80.1598 45.4101C80.0498 45.4001 79.9298 45.3801 79.8198 45.3701C79.4798 45.3201 79.1398 45.2801 78.9798 45.4001C78.2398 45.9701 77.5598 46.6301 76.8498 47.3301C76.5698 47.6001 76.2798 47.8801 75.9798 48.1601L75.7798 48.3501L75.6998 48.0901C75.6298 47.8401 75.5998 47.5601 75.5698 47.2801C75.5198 46.7901 75.4698 46.3201 75.1598 46.1101C74.9298 45.9501 74.5698 45.9201 74.0498 46.0301C74.1098 46.7401 74.1698 47.4501 74.2198 48.1601C74.4098 50.5101 74.5898 52.7301 74.8598 54.9901H74.8698Z" fill="black"/>
<path d="M106.87 85.2299C107.01 85.7799 107.09 86.3198 107.16 86.8498C107.31 87.9298 107.45 88.9498 108.1 89.8498C108.27 89.5898 108.35 89.3298 108.32 89.0998C108.15 87.2298 107.97 85.2298 107.72 83.2598C107.68 82.9498 107.53 82.6398 107.37 82.3198C107.33 82.2398 107.3 82.1698 107.26 82.0898C107.19 82.1598 107.13 82.2198 107.06 82.2898C106.78 82.5598 106.52 82.8098 106.4 83.1098C106.08 83.8998 105.84 84.7399 105.58 85.6199C105.47 85.9999 105.35 86.3998 105.22 86.8098L105.11 87.1698L102.44 82.7598C101.74 85.5798 101.95 89.4099 102.84 90.6199V85.3598L105.47 88.9398L106.72 84.6498L106.87 85.2498V85.2299Z" fill="black"/>
<path d="M104.74 70.4496C104.8 72.0796 104.9 73.4997 105.05 74.7896C105.07 74.9397 105.24 75.1097 105.46 75.3297C105.54 75.4097 105.62 75.4897 105.7 75.5797L106.8 72.0497L106.99 72.4196C107.23 72.8996 107.33 73.3596 107.41 73.8096C107.45 74.0296 107.5 74.2396 107.56 74.4496C107.61 74.6096 107.79 74.7696 107.96 74.9196C108.01 74.9596 108.05 74.9997 108.1 75.0396C108.13 75.0096 108.17 74.9796 108.2 74.9496C108.35 74.8096 108.5 74.6696 108.56 74.5196C108.71 74.1396 108.82 73.7496 108.95 73.2496C109.01 73.0196 109.08 72.7696 109.16 72.4896L109.3 71.9896L110.52 75.2696L111.02 75.1296C110.96 74.7996 110.9 74.4696 110.84 74.1396C110.68 73.2396 110.51 72.2997 110.3 71.3997C110.2 70.9997 110.02 70.6296 109.82 70.2396C109.76 70.1196 109.7 70.0096 109.65 69.8896L108.59 70.6996L108.49 70.6497C108.31 70.5497 108.12 70.4197 107.93 70.2997C107.7 70.1497 107.31 69.8897 107.21 69.9097C106.89 70.0897 106.66 70.4697 106.45 70.7997C106.37 70.9297 106.29 71.0597 106.22 71.1597L106.08 71.3396L105.11 70.0196C105.11 70.0196 105.05 70.0696 105.02 70.0996C104.91 70.1996 104.73 70.3596 104.73 70.4296L104.74 70.4496Z" fill="black"/>
<path d="M127.07 117.06C127.01 116.59 126.69 116.02 126.45 115.94C126.1 115.83 125.38 116.05 125.2 116.33C124.56 117.34 123.96 118.5 123.32 119.99C123.23 120.2 123.43 120.78 123.63 120.92C123.85 121.06 124.39 121.04 124.68 120.86C125.03 120.65 125.34 120.35 125.69 120C125.86 119.84 126.03 119.66 126.23 119.48L126.46 119.27L126.51 119.58C126.55 119.86 126.59 120.12 126.63 120.37C126.71 120.87 126.78 121.31 126.84 121.75C127.07 123.49 127.18 124.37 126.76 124.89C126.36 125.39 125.52 125.49 123.9 125.63C124.87 126.46 125.83 126.25 126.5 125.9C127.09 125.59 127.8 124.68 127.79 124.07C127.74 121.94 127.44 119.78 127.16 117.69L127.08 117.07L127.07 117.06Z" fill="black"/>
<path d="M118.85 92.7002C118.69 90.5702 118.37 88.4503 118.07 86.3903C118.01 85.9803 117.72 85.4403 117.53 85.4003C117.11 85.3103 116.46 85.4703 116.22 85.7303C115.48 86.5403 114.98 87.3103 114.73 88.0403C114.45 88.8503 114.35 90.0403 114.63 90.2603C115.35 90.8303 115.91 90.2803 116.64 89.4303L116.72 89.3402C116.8 89.2402 116.93 89.2003 117.07 89.1503C117.14 89.1303 117.21 89.1003 117.3 89.0603L117.5 88.9703L117.81 90.8802C118.09 92.6003 118.25 93.5503 117.83 94.1302C117.43 94.6803 116.57 94.8402 115.03 95.0902C115.03 95.1002 115.05 95.1202 115.06 95.1302C115.14 95.2603 115.23 95.3903 115.3 95.4103C116.42 95.7603 117.39 95.6703 118.04 95.1603C118.66 94.6703 118.96 93.7902 118.87 92.7002H118.85Z" fill="black"/>
<path d="M93.5397 108.14C93.3397 105.88 93.0097 103.62 92.7097 101.67C92.6497 101.25 92.3597 100.7 92.1897 100.67C91.7597 100.58 91.1197 100.74 90.8597 101.01C90.1697 101.73 89.6897 102.48 89.4597 103.17C89.1497 104.11 88.9997 105.3 89.2797 105.53C90.0097 106.12 90.5297 105.62 91.2397 104.78C91.3197 104.69 91.3897 104.6 91.4597 104.52C91.5397 104.43 91.6397 104.42 91.7697 104.41C91.8297 104.41 91.8897 104.39 91.9697 104.38L92.1397 104.35L92.2897 105.2C92.3697 105.68 92.4497 106.15 92.5297 106.63C92.7897 108.26 92.8397 109.02 92.4397 109.52C92.0497 110.01 91.2897 110.14 89.7197 110.25C89.6997 110.27 89.6797 110.31 89.6597 110.34C89.6397 110.37 89.6197 110.4 89.5997 110.43C90.4597 111.11 91.4297 110.93 92.3497 110.62C93.2697 110.32 93.6497 109.51 93.5297 108.16L93.5397 108.14Z" fill="black"/>
<path d="M106.02 108.13C105.82 105.9 105.49 103.62 105.19 101.66C105.13 101.27 104.87 100.74 104.63 100.65C104.31 100.53 103.68 100.65 103.46 100.89C102.92 101.48 102.25 102.28 101.94 103.17C101.63 104.05 101.48 105.29 101.77 105.52C102.5 106.1 103.02 105.6 103.72 104.77C103.8 104.68 103.87 104.59 103.95 104.51C104.03 104.42 104.14 104.41 104.26 104.4C104.32 104.4 104.38 104.39 104.46 104.38L104.63 104.35L104.66 104.52C104.71 104.77 104.75 105.03 104.8 105.28C104.9 105.83 105 106.39 105.09 106.95C105.29 108.21 105.32 109.04 104.89 109.55C104.46 110.06 103.63 110.18 102.33 110.22C102.3 110.22 102.22 110.28 102.14 110.33C102.12 110.35 102.09 110.36 102.07 110.38C102.99 111.07 103.95 110.9 104.86 110.6C105.78 110.3 106.15 109.51 106.03 108.13H106.02Z" fill="black"/>
<path d="M83.3496 71.4696C83.0496 71.5996 82.8096 72.1596 82.6896 72.4596L82.5896 72.6896C82.2196 73.5596 81.8596 74.3796 82.7196 74.9996C83.4696 75.5496 83.9596 75.1396 84.6796 74.3996C84.7496 74.3196 84.8296 74.2496 84.8996 74.1696C84.9796 74.0896 85.0996 74.0696 85.1896 74.0496C85.2196 74.0496 85.2496 74.0496 85.2696 74.0296L85.4396 73.9796L85.4796 74.1496C86.0996 76.7796 86.1496 76.9996 86.7996 77.0196L86.6096 75.1596C86.3396 72.4496 86.0596 69.6596 85.7496 66.9096C85.7396 66.8096 85.5796 66.6696 85.3996 66.4996C85.3296 66.4396 85.2596 66.3796 85.1896 66.3096C85.1696 66.4196 85.1496 66.5196 85.1296 66.6096C85.0696 66.8896 85.0296 67.0796 85.0496 67.2396C85.2396 68.6996 85.4696 70.5196 83.3596 71.4396L83.3496 71.4696Z" fill="black"/>
<path d="M81.4296 123.57C81.4696 123.86 81.5996 124.15 81.7296 124.45C81.7696 124.54 81.8096 124.64 81.8496 124.73L82.1496 124.64C82.1696 124.33 82.1796 124.01 82.1896 123.69C82.2096 122.87 82.2296 122.02 82.5396 121.29C82.8696 120.51 83.4796 119.85 84.0596 119.2C84.3096 118.92 84.5796 118.63 84.8096 118.34C84.8396 118.3 84.9296 118.2 84.9296 118.14C84.9696 117.58 84.9996 117.02 85.0296 116.45L85.0496 116.11C84.8996 116.11 84.7596 116.12 84.6096 116.13C84.0596 116.15 83.4896 116.18 82.9396 116.23C82.8996 116.23 82.8096 116.31 82.7496 116.36C82.6296 116.46 82.4996 116.57 82.3396 116.56C82.2696 116.56 82.1996 116.56 82.1296 116.56C81.7796 116.56 81.5096 116.65 81.3196 116.82C80.9396 117.17 80.9296 117.85 80.9196 118.35C80.9196 118.49 80.9196 118.62 80.9096 118.73C80.8096 119.94 81.0296 121.21 81.2396 122.44C81.3096 122.82 81.3696 123.21 81.4296 123.59V123.57Z" fill="black"/>
<path d="M112.09 73.7199C112.19 74.1099 112.29 74.5099 112.32 74.9099C112.35 75.3399 112.32 75.7899 112.28 76.2199C112.21 77.1799 112.14 78.0899 112.74 78.8499L113.06 78.8299C113.08 78.7099 113.1 78.5999 113.12 78.4799C113.19 78.1299 113.25 77.7899 113.24 77.4599C113.19 75.9899 113.6 74.9399 114.55 74.0599C115.12 73.5299 115.61 72.7499 116.09 71.5899C116.26 71.1699 116.17 70.3799 115.91 70.1599C115.66 69.9399 114.97 69.9799 114.4 70.1199C113.91 70.2399 113.44 70.4599 112.98 70.6699C112.8 70.7499 112.63 70.8299 112.46 70.8999C111.6 71.7899 111.84 72.7199 112.09 73.7099V73.7199Z" fill="black"/>
<path d="M77.1301 120.36C77.4901 120.01 77.7801 119.58 78.0601 119.16C78.1801 118.99 78.2902 118.82 78.4002 118.67L78.5201 118.5L78.6602 118.66C78.9702 119 79.0201 119.43 79.0701 119.85C79.1401 120.46 79.2002 120.99 79.9802 121.31C79.9602 120.81 79.9401 120.33 79.9201 119.85C79.8601 118.44 79.8102 117.12 79.6902 115.81C79.6502 115.3 79.3202 114.64 79.1502 114.61C78.6802 114.53 78.0302 114.8 77.6502 115.1C76.1302 116.32 76.0102 118.19 75.9002 119.84C75.8802 120.11 76.0402 120.55 76.1202 120.64C76.4402 120.67 76.9101 120.58 77.1301 120.36Z" fill="black"/>
<path d="M86.5403 103.13L86.7803 102.79L86.8403 103.2C87.1803 105.49 87.2103 105.65 88.0103 105.79C87.9903 105.36 87.9703 104.93 87.9403 104.5C87.8803 103.24 87.8203 101.93 87.6903 100.66C87.6403 100.12 87.3603 99.3996 87.1003 99.3196C86.7603 99.1996 86.1003 99.4896 85.6203 99.8296C84.5603 100.59 83.5303 103.74 83.9203 105.02C83.9903 105.23 84.1103 105.49 84.3203 105.54C84.5103 105.58 84.7803 105.45 85.0403 105.19C85.3903 104.83 85.6803 104.4 86.0203 103.9C86.1803 103.66 86.3503 103.41 86.5403 103.15V103.13Z" fill="black"/>
<path d="M112.08 87.7595L112.13 88.0295C112.54 90.0395 112.58 90.2295 113.36 90.6795C113.33 90.1395 113.3 89.6095 113.28 89.0895C113.21 87.7395 113.15 86.4695 113.03 85.2095C112.97 84.5195 112.77 84.0795 112.47 83.9495C112.16 83.8095 111.67 83.9695 111.06 84.4195C109.69 85.4295 108.98 88.0695 109.5 90.1195C110.38 90.1995 110.71 89.6295 111.08 88.9595C111.29 88.5795 111.51 88.1895 111.85 87.9195L112.06 87.7495L112.08 87.7595Z" fill="black"/>
<path d="M120.06 119.56C120.29 119.17 120.52 118.77 120.9 118.56L121.09 118.46L121.91 121.32L122.35 121.2C122.33 120.75 122.31 120.29 122.29 119.84C122.23 118.54 122.18 117.2 122.06 115.89C122.02 115.37 121.74 114.72 121.55 114.66C121.15 114.55 120.45 114.74 120.08 115.06C118.44 116.49 118.2 118.36 118.38 120.72C119.33 120.8 119.69 120.19 120.06 119.56Z" fill="black"/>
<path d="M75.3502 90.9103C75.6702 91.2803 76.0102 91.6603 76.3902 91.9503C76.5102 92.0403 76.7302 92.0603 76.9502 92.0703C76.9902 92.0703 77.0202 92.0703 77.0602 92.0703C77.0602 92.0503 77.0602 92.0203 77.0602 92.0003C77.0402 91.8103 77.0102 91.6203 76.9302 91.5203C76.3702 90.8603 75.7602 90.2103 75.1002 89.5903C74.3202 88.8503 74.0402 88.0603 74.1602 86.9303C74.4102 84.5703 74.4202 84.5303 71.6402 83.5703C71.5402 84.1203 71.4302 84.6603 71.3202 85.1903C71.0502 86.5203 70.7902 87.7703 70.7602 89.0403C70.7402 89.7003 70.9402 90.1703 71.3202 90.3603C71.7502 90.5803 72.3702 90.4203 72.9902 89.9503C73.1202 89.8503 73.2502 89.7403 73.4202 89.5903C73.5102 89.5103 73.6202 89.4103 73.7502 89.3003L73.8802 89.1903L73.9902 89.3203C74.1202 89.4703 74.2402 89.6203 74.3602 89.7703C74.6202 90.0803 74.8602 90.3803 75.1202 90.6603L75.3502 90.9203V90.9103ZM72.8702 88.2103C72.6302 88.6503 72.4002 89.0703 72.2702 89.5203L72.1302 90.0003L71.9502 89.5303C71.2202 87.5703 71.6602 85.8403 73.1602 84.7703L73.3302 84.6503L73.4102 84.8503C73.9702 86.2003 73.4102 87.2203 72.8702 88.2103Z" fill="black"/>
<path d="M79.3999 69.2998L78.4999 70.6698L77.5499 69.4298L77.3799 69.4998V75.2798C78.2099 74.9598 78.3899 74.2298 78.5699 73.4598C78.7199 72.8298 78.8799 72.1698 79.4399 71.7798L79.5799 71.6798L79.6799 71.8198C79.9799 72.2498 80.0799 72.7598 80.1799 73.2498C80.3499 74.0798 80.4999 74.7998 81.4799 75.1398L79.8799 69.4198L79.3999 69.3098V69.2998Z" fill="black"/>
<path d="M96.3703 100.14C96.3703 100.54 96.3703 100.93 96.3703 101.33C96.3703 102.49 96.3603 103.68 96.4003 104.85C96.4003 105.09 96.5303 105.35 96.6603 105.61C96.6803 105.66 96.7103 105.71 96.7303 105.76C96.7703 105.72 96.8102 105.67 96.8502 105.63C97.0702 105.4 97.2702 105.19 97.3802 104.94C97.6202 104.38 97.8202 103.79 98.0202 103.17C98.1102 102.89 98.2003 102.61 98.3003 102.32L98.4003 102.02L98.5902 102.28C98.9702 102.78 99.1002 103.36 99.2402 103.92C99.4402 104.76 99.6302 105.55 100.59 106.06C100.5 105.69 100.41 105.33 100.32 104.98C99.9202 103.39 99.5703 102.01 99.1503 100.64C99.0203 100.56 98.4102 100.48 98.1102 100.59C97.9902 100.63 97.8802 100.91 97.8102 101.11C97.7602 101.23 97.7202 101.34 97.6702 101.43L97.5202 101.71L96.6402 100.05L96.3703 100.14Z" fill="black"/>
<path d="M74.8899 101.8C74.8599 101.75 74.8299 101.69 74.7999 101.64L72.1299 105.41L71.2299 105.05L71.2499 104.92C71.3099 104.52 71.3699 104.11 71.4299 103.71C71.6199 102.46 71.8099 101.17 72.0699 99.9203C72.1299 99.6303 72.5999 99.4703 73.3299 99.3103C73.5499 99.2603 73.7799 99.3103 73.9999 99.3703C74.0399 99.3803 74.0899 99.3903 74.1299 99.4003L74.2199 99.2003C74.0999 99.1303 73.9799 99.0603 73.8699 98.9803C73.5599 98.7803 73.2399 98.5703 72.9899 98.5703C72.9699 98.5703 72.9499 98.5703 72.9399 98.5703C72.4299 98.6303 71.6599 99.0603 71.5599 99.4303C70.9999 101.6 70.7099 103.26 70.6199 104.82C70.5899 105.35 70.8099 105.78 71.2099 105.96C71.6299 106.15 72.1399 106.03 72.5599 105.63C73.3699 104.86 73.9999 103.86 74.6099 102.9C74.7699 102.66 74.9199 102.41 75.0799 102.17C75.0799 102.14 74.9499 101.93 74.8699 101.79L74.8899 101.8Z" fill="black"/>
<path d="M92.7305 121.25C92.9005 121.3 93.1105 121.25 93.3405 121.2C93.5005 121.16 93.6805 121.12 93.8605 121.12C94.1505 121.12 94.4305 121.22 94.6405 121.6C94.6605 121.57 94.6905 121.55 94.7105 121.52C94.8705 121.34 95.0405 121.15 95.0405 121.01C95.0405 119.47 94.9605 117.95 94.8705 116.67C94.8505 116.45 94.7705 116.22 94.6405 115.91C94.6105 115.83 94.5805 115.75 94.5405 115.66C94.3005 116.21 94.2305 116.8 94.1505 117.36C94.0105 118.45 93.8605 119.57 92.5205 120.28L92.2405 120.43L92.2705 120.12C92.3005 119.81 92.3305 119.51 92.3605 119.2C92.4405 118.42 92.5305 117.62 92.5505 116.83C92.5505 116.65 92.4205 116.43 92.2805 116.22C92.2405 116.16 92.2005 116.1 92.1705 116.04C92.1305 116.06 92.0805 116.09 92.0405 116.11C91.9205 116.17 91.7305 116.28 91.7005 116.33C91.6605 117.63 91.6105 118.98 91.7605 120.28C91.8005 120.61 92.3105 121.12 92.7205 121.24L92.7305 121.25Z" fill="black"/>
<path d="M74.0602 114.65C73.6002 114.06 73.0803 113.72 72.6203 113.72C72.5803 113.72 72.5503 113.72 72.5103 113.72C72.1503 113.76 71.8702 114.03 71.7102 114.5C71.0602 116.41 70.8302 118.52 70.6702 120.34C70.6402 120.68 70.7402 120.95 70.9602 121.13C71.2202 121.34 71.6402 121.37 72.0902 121.22C73.2702 120.82 74.6902 118.84 74.8802 116.98L72.0302 120.71L71.2002 120.29L72.1802 114.28L74.0402 114.65H74.0602Z" fill="black"/>
<path d="M105.23 117.78C105.2 117.69 105.17 117.59 105.15 117.51L104.91 117.34L102.72 120.33C103.56 119.69 104.41 118.99 105.34 118.18C105.34 118.1 105.27 117.91 105.23 117.79V117.78Z" fill="black"/>
<path d="M102.46 118.22C102.73 118.03 102.98 117.86 103.14 117.63C103.36 117.31 103.41 116.54 103.22 116.33C103.09 116.18 102.66 116.09 102.34 116.08C102.17 116.08 102.04 116.08 101.99 116.13L101.96 116.18C101.06 117.44 100.13 118.75 100.64 120.37C100.73 120.66 101.46 121.09 101.65 121.11C101.83 120.99 102.01 120.86 102.18 120.73L101.5 120.07V120.02C101.3 119.03 101.92 118.61 102.46 118.23V118.22Z" fill="black"/>
<path d="M112.14 121.33L112.38 121.31V118.68L115.66 116.52L115.51 116.28L112.48 117.51L112.41 117.36C111.76 115.86 112.68 115.32 113.49 114.84C114.01 114.53 114.51 114.24 114.64 113.71L111.16 114.82C111.27 115.53 111.3 116.27 111.33 117C111.39 118.46 111.45 119.96 112.14 121.34V121.33Z" fill="black"/>
<path d="M81.7597 90.1203C81.9297 90.4403 82.1297 90.6403 82.2997 90.6803C82.7397 90.7703 83.6497 90.2603 84.5597 89.4203C85.5397 88.5203 86.1897 87.5403 86.1697 87.0203C86.1597 87.0203 86.1497 87.0003 86.1297 86.9903C86.0997 86.9703 86.0497 86.9403 85.9997 86.9003L82.8797 89.8003L82.0897 89.1403L82.2197 89.0103C82.4097 88.8103 82.6097 88.6003 82.7997 88.4003C83.2297 87.9403 83.6797 87.4703 84.1397 87.0203C84.3997 86.7603 84.5297 86.5203 84.5097 86.2903C84.4997 86.0603 84.3397 85.8203 84.0497 85.5803C83.7997 85.3803 83.5697 85.2803 83.3597 85.2803C83.3197 85.2803 83.2797 85.2803 83.2397 85.2903C82.9997 85.3303 82.7897 85.5103 82.6097 85.8103C82.1197 86.6303 81.7597 87.3303 81.4997 88.0003C81.2597 88.6003 81.4597 89.5403 81.7697 90.1203H81.7597Z" fill="black"/>
<path d="M54.2995 121.16C54.6395 120.71 54.6195 120.18 54.5995 119.61C54.5695 118.84 54.5295 117.98 55.5395 117.43C54.5395 117.05 54.5295 116.23 54.5195 115.5C54.5195 115.03 54.5095 114.59 54.2895 114.22C53.2495 114.88 52.7095 115.87 52.1495 116.92C51.8795 117.41 51.6095 117.92 51.2695 118.42H53.7095L54.2995 121.15V121.16Z" fill="black"/>
<path d="M79.6904 85.3096C79.6004 85.6896 79.5704 86.0896 79.5504 86.5096C79.4704 87.6696 79.3904 88.8696 77.9304 89.6996L77.6604 89.8496L77.6804 89.5396C77.7004 89.2396 77.7304 88.9396 77.7504 88.6396C77.8104 87.9096 77.8804 87.1496 77.8804 86.4096C77.8804 86.1696 77.7604 85.9196 77.6304 85.6496C77.6104 85.6096 77.5904 85.5696 77.5704 85.5196C77.5404 85.5596 77.5004 85.5996 77.4704 85.6396C77.2804 85.8596 77.0904 86.0796 77.0604 86.2896C76.9404 87.3296 76.8504 88.3296 77.0404 89.2396C77.1704 89.8496 77.8904 90.6296 78.0804 90.6196C78.3404 90.5796 78.6004 90.5496 78.8404 90.5496C79.3304 90.5496 79.7804 90.6696 80.1704 91.0996C80.6904 89.1296 80.3604 86.1896 79.6904 85.3096Z" fill="black"/>
<path d="M88.2904 88.5603C88.6504 88.1503 89.0204 87.7203 89.3404 87.2703C89.5204 87.0103 89.9504 86.4104 89.8804 86.0404C89.8304 85.7904 89.2804 85.3604 89.0204 85.3604C89.0204 85.3604 89.0004 85.3604 88.9904 85.3604C88.7004 85.4004 88.3104 85.7204 87.9304 86.2504C87.5304 86.8004 87.3204 87.2803 87.3004 87.6703C87.3004 87.8303 87.2804 87.9904 87.2704 88.1604C87.2204 89.0204 87.1604 89.9904 87.5604 90.4404C87.7204 90.6304 87.8904 90.7203 88.0804 90.7403C88.5104 90.7703 89.0104 90.3204 89.4504 89.9304C89.5404 89.8504 89.6204 89.7703 89.7104 89.7003C89.8204 89.6003 89.9404 89.5004 90.0504 89.4104C90.5604 88.9704 91.0904 88.5204 91.5204 88.0104C91.6304 87.8804 91.6404 87.6004 91.6404 87.3304C91.6404 87.2704 91.6404 87.2104 91.6404 87.1604C91.5904 87.1704 91.5404 87.1804 91.4904 87.1904C91.2304 87.2504 90.9804 87.3004 90.8504 87.4304C90.3004 87.9804 89.7804 88.5904 89.2804 89.1804C89.0804 89.4104 88.8804 89.6503 88.6804 89.8803L88.5704 90.0104L87.7104 89.2204L87.8104 89.1003C87.9604 88.9203 88.1204 88.7403 88.2804 88.5603H88.2904Z" fill="black"/>
<path d="M76.3396 101.9C76.1996 102.77 76.0596 103.6 76.0296 104.42C76.0196 104.75 76.0596 105.35 76.4196 105.7C76.6196 105.89 76.8996 105.98 77.2496 105.95C78.6796 105.85 79.0996 104.6 79.2296 103.87C79.4496 102.57 79.1196 101.78 78.1596 101.4C77.8396 101.27 77.4996 101.18 77.0696 101.07C76.8896 101.02 76.6996 100.97 76.4896 100.91C76.4396 101.25 76.3896 101.58 76.3296 101.9H76.3396Z" fill="black"/>
<path d="M122.52 75.2796C122.7 75.1996 122.88 75.1296 123.07 75.0596C123.59 74.8596 124.07 74.6696 124.38 74.3296C124.8 73.8696 125.01 73.0796 124.91 72.3196C124.83 71.7496 124.6 71.2996 124.27 71.0896C123.87 70.8396 123.39 70.6896 122.83 70.5296C122.6 70.4596 122.36 70.3896 122.11 70.3096C122.06 70.6296 122 70.9396 121.94 71.2396C121.79 72.0396 121.65 72.7196 121.69 73.4096C121.72 73.8596 121.97 74.3096 122.25 74.7796C122.34 74.9396 122.44 75.1096 122.53 75.2796H122.52Z" fill="black"/>
<path d="M89.6403 116.65C89.9903 116.56 90.3103 116.38 90.6503 116.19C90.7703 116.12 90.8803 116.06 91.0003 116L90.9103 115.69L88.2503 116.16L88.2003 116.03C88.0103 115.5 88.0003 114.94 88.0003 114.39C88.0003 113.61 87.9903 112.87 87.4803 112.18C87.1503 112.88 87.2303 113.67 87.3003 114.42C87.4003 115.55 87.5103 116.71 86.3203 117.57C87.4403 117.78 87.5103 118.65 87.5803 119.37C87.5903 119.51 87.6003 119.65 87.6203 119.78C87.6403 119.89 87.6403 120.01 87.6503 120.13C87.6803 120.66 87.7103 121.1 88.4403 121.24C88.4303 121 88.4203 120.77 88.4203 120.55C88.4003 119.93 88.3903 119.34 88.2803 118.78C88.0503 117.61 88.4803 116.96 89.6503 116.65H89.6403Z" fill="black"/>
<path d="M121.84 89.79C122.16 90.12 122.64 90.63 122.79 90.64C123.41 90.33 123.97 89.79 124.51 89.26C124.68 89.09 124.86 88.92 125.03 88.76C124.28 87.9 124.17 86.84 124.07 85.89C124.06 85.86 123.96 85.77 123.91 85.75C123.83 85.77 123.74 85.78 123.65 85.8C123.35 85.86 122.97 85.93 122.87 86.09C122.45 86.72 122.1 87.4 121.7 88.19C121.55 88.49 121.38 88.81 121.21 89.15C121.42 89.35 121.64 89.58 121.85 89.8L121.84 89.79Z" fill="black"/>
<path d="M53.8297 85.7099L54.3896 86.0599L52.2696 90.6699L52.4697 90.8099L56.6497 88.9199L56.6096 88.7399L54.1297 88.9899L54.1896 88.7599C54.2696 88.4499 54.3496 88.1499 54.4296 87.8399C54.6196 87.1499 54.8096 86.4499 54.9196 85.7399C54.9796 85.3499 54.8697 84.9899 54.6497 84.8199C54.4797 84.6899 54.2496 84.6799 53.9796 84.7999C53.3096 85.0899 52.6797 85.5599 52.0797 85.9999C51.8497 86.1699 51.6296 86.3399 51.3896 86.4999L51.6396 86.8899L53.8196 85.6999L53.8297 85.7099Z" fill="black"/>
<path d="M55.38 104.53C55.95 103.22 55.67 102.58 54.16 101.65L54.05 101.58L54.67 99.5796C53.24 99.4496 52.24 99.7896 51.46 100.65L51.52 100.85L53.47 100.55L52.05 103.03L52.23 103.23L54.72 102.54L55.25 103.2L53.5 105.72C54.38 105.88 54.94 105.52 55.37 104.52L55.38 104.53Z" fill="black"/>
<path d="M99.98 115.31C99.12 114.95 98.72 115.36 98.29 115.78C98.07 116.01 97.84 116.24 97.54 116.35L97.45 116.38L96.22 115.37C96.09 118.91 96.41 120.54 97.37 121.09C96.9 118.84 97.74 116.99 99.97 115.31H99.98Z" fill="black"/>
<path d="M129.42 69.8398C129.42 69.8398 129.34 69.8798 129.3 69.8998C129.14 69.9698 128.96 70.0598 128.92 70.1498C128.67 70.7398 128.47 71.3698 128.26 72.0298C128.18 72.2898 128.09 72.5598 128 72.8398L127.89 73.1798L126.04 70.1398L125.65 70.3498L127.75 75.5098L128.06 75.4498L128.42 74.3298C128.84 73.0298 129.27 71.6898 129.65 70.3498C129.67 70.2698 129.57 70.0898 129.5 69.9498C129.48 69.9098 129.46 69.8798 129.44 69.8398H129.42Z" fill="black"/>
<path d="M96.0299 75.2496C96.0299 75.2496 96.0599 75.2696 96.0699 75.2796C96.3799 72.4896 96.3799 69.9296 96.3399 67.5796C96.3399 67.4096 96.1699 67.2096 96.0099 67.0096C95.9599 66.9396 95.8999 66.8796 95.8499 66.8096L95.6299 66.9096V68.5796C95.6299 70.6196 95.6299 72.7296 95.6599 74.8096C95.6599 74.9196 95.8699 75.0996 96.0399 75.2396L96.0299 75.2496Z" fill="black"/>
<path d="M80.7198 105.78C80.7898 105.86 80.8698 105.94 80.9398 106.03C81.5198 103.16 81.1398 98.7596 80.2498 97.5996C80.2498 98.1496 80.2498 98.6896 80.2498 99.2196C80.2498 101.26 80.2398 103.19 80.2898 105.13C80.2898 105.3 80.4898 105.52 80.7198 105.77V105.78Z" fill="black"/>
<path d="M96.4199 84.6701C95.5599 84.3601 95.1499 84.8001 94.7099 85.2701C94.4399 85.5601 94.1899 85.8301 93.8399 85.9001L93.7399 85.9201L92.8799 84.7801C92.5199 86.9701 92.9199 89.5301 93.7399 90.5501C93.4499 88.2301 94.3099 86.3401 96.4299 84.6701H96.4199Z" fill="black"/>
<path d="M117.11 112.74H116.72C116.72 112.74 116.67 112.78 116.64 112.8C116.59 112.84 116.52 112.9 116.5 112.93V113.14C116.5 115.59 116.51 118.11 116.59 120.6C116.59 120.74 116.8 120.93 116.99 121.1C117.06 121.16 117.13 121.23 117.2 121.3L117.39 121.2C117.39 120.48 117.39 119.76 117.39 119.04C117.4 116.97 117.41 114.82 117.11 112.74Z" fill="black"/>
<path d="M119.3 70.02C119.06 70.27 118.84 70.51 118.54 70.63L118.43 70.67L117.44 69.48L117.23 69.59C117.33 70.19 117.36 70.8 117.39 71.4C117.45 72.6 117.51 73.83 118.12 74.97C118.12 72.65 119.09 70.88 121.16 69.45C120.19 69.08 119.76 69.54 119.31 70.02H119.3Z" fill="black"/>
<path d="M82.5102 97.4397L82.2402 97.5297V99.0797C82.2402 101.15 82.2402 103.29 82.2702 105.4C82.2702 105.48 82.4402 105.64 82.5602 105.75C82.5902 105.78 82.6302 105.81 82.6602 105.84C82.7002 105.8 82.7402 105.76 82.7702 105.72C82.9102 105.57 83.0702 105.4 83.0702 105.28C83.0702 102.98 83.0102 100.66 82.9102 98.3897C82.9102 98.1597 82.7702 97.9197 82.6302 97.6697C82.5902 97.5897 82.5402 97.5097 82.5002 97.4297L82.5102 97.4397Z" fill="black"/>
<path d="M52.0003 75.3697L52.0803 74.0897C52.1903 72.3997 52.2903 70.6497 52.3703 68.9297C52.3703 68.8497 52.2403 68.6997 52.1303 68.5797C52.0903 68.5297 52.0403 68.4797 52.0003 68.4297L51.8403 68.4697L51.7803 68.9797C51.5503 71.0697 51.3103 73.2297 51.7203 75.3497L52.0003 75.3697Z" fill="black"/>
<path d="M76.3696 75.1502C76.3296 74.7702 76.2996 74.3902 76.2696 74.0102C76.1596 72.7602 76.0396 71.4802 75.8696 70.2202C75.8496 70.0502 75.6496 69.8602 75.4596 69.6802L75.4396 69.6602C75.2196 72.6802 75.3696 74.3002 75.8996 74.8902C76.0296 75.0302 76.1796 75.1202 76.3696 75.1502Z" fill="black"/>
<path d="M120.38 90.6004C120.43 90.6604 120.48 90.7104 120.52 90.7704L120.76 90.6404C120.73 90.2404 120.7 89.8504 120.66 89.4504C120.55 88.1004 120.44 86.7004 120.28 85.3304C120.27 85.2404 120.04 85.0904 119.89 84.9904C119.84 84.9604 119.79 84.9304 119.75 84.9004C119.73 84.9304 119.71 84.9604 119.69 85.0004C119.59 85.1604 119.49 85.3304 119.5 85.4504C119.65 87.1404 119.82 88.6604 120.03 90.0704C120.06 90.2404 120.21 90.4204 120.37 90.6004H120.38Z" fill="black"/>
<path d="M103.75 74.4496C103.55 72.8096 103.37 71.2496 103.15 69.7096C103.08 69.6696 102.91 69.6296 102.79 69.5996C102.74 69.5896 102.7 69.5796 102.65 69.5596C102.45 72.4096 102.91 74.5496 103.86 75.3096L103.76 74.4396L103.75 74.4496Z" fill="black"/>
<path d="M95.3196 105.77C95.5896 103.11 95.0196 100.82 94.2896 100.3C94.0096 102.9 94.5896 105.23 95.3196 105.77Z" fill="black"/>
<path d="M56.5298 128.47C56.3298 128.44 56.0898 128.42 55.8198 128.42C55.5998 128.42 55.3198 128.46 54.9798 128.54C54.6398 128.62 55.2998 128.38 54.9398 128.5C54.5798 128.61 54.2398 128.74 53.9198 128.86C53.5998 128.99 53.3398 129.1 53.1498 129.18C53.1098 129.18 53.0898 129.16 53.0698 129.13C53.0598 129.1 53.0298 129.08 52.9898 129.08C52.8498 129.08 52.6698 129.17 52.4598 129.34C52.2398 129.51 52.0298 129.71 51.8198 129.93C51.6098 130.15 51.4298 130.38 51.2798 130.6C51.1298 130.82 51.0498 130.98 51.0498 131.07C51.0498 131.26 51.0998 131.42 51.1998 131.54C51.2998 131.66 51.4298 131.75 51.5698 131.81C51.7198 131.87 51.8698 131.91 52.0198 131.92C52.1698 131.94 52.3098 131.95 52.4198 131.95C52.5998 131.95 52.7298 131.95 52.7998 131.93C52.8798 131.92 52.9498 131.91 53.0298 131.91C53.0898 131.91 53.1998 131.92 53.3498 131.95C53.4998 131.98 53.6498 132.01 53.7998 132.06C53.9498 132.11 54.0898 132.17 54.2098 132.23C54.3298 132.29 54.3898 132.36 54.3898 132.44C54.3898 132.55 54.3198 132.66 54.1898 132.75C54.0598 132.84 53.8998 132.92 53.7298 132.99C53.5598 133.06 53.3998 133.11 53.2398 133.14C53.0898 133.17 52.9998 133.19 52.9698 133.19C52.8698 133.19 52.7598 133.17 52.6498 133.14C52.5398 133.11 52.4398 133.09 52.3498 133.09C52.2698 133.09 52.2398 133.12 52.2398 133.17C52.2398 133.41 52.3398 133.63 52.5298 133.83C52.7198 134.03 52.9398 134.13 53.1798 134.13C53.2598 134.13 53.4198 134.1 53.6698 134.04C53.9198 133.98 54.1698 133.9 54.4298 133.78C54.6898 133.67 54.9298 133.53 55.1398 133.36C55.3498 133.19 55.4598 133 55.4598 132.79C55.4598 132.43 55.3398 132.14 55.0898 131.9C54.8398 131.66 54.5598 131.48 54.2398 131.36C53.9198 131.23 53.6098 131.14 53.2998 131.09C52.9898 131.04 52.7798 131.01 52.6498 131.01C52.5698 131.01 52.4998 131.01 52.4398 130.99C52.3798 130.98 52.3198 130.96 52.2698 130.95C52.2198 130.94 52.1798 130.92 52.1598 130.89C52.2198 130.79 52.3298 130.67 52.4698 130.54C52.6098 130.41 52.7098 130.31 52.7798 130.24C52.7898 130.24 52.8098 130.24 52.8398 130.27C52.8698 130.29 52.8898 130.3 52.9198 130.3C52.9598 130.3 53.0898 130.22 53.2998 130.07C53.5198 129.92 53.8498 129.74 54.2898 129.53C54.7698 129.31 54.2498 129.47 54.7498 129.33C55.2498 129.19 55.7998 129.02 56.4098 128.83C56.6998 128.73 56.8498 128.65 56.8498 128.6C56.8498 128.52 56.7498 128.47 56.5398 128.44L56.5298 128.47Z" fill="black"/>
</g>
<defs>
<clipPath id="clip0_444_4347">
<rect width="175" height="155" fill="white"/>
</clipPath>
</defs>
</svg>
