<svg width="195" height="155" viewBox="0 0 195 155" fill="none" xmlns="http://www.w3.org/2000/svg">
<path d="M101.76 57.2901C115.01 62.7001 128.44 66.5501 142.79 66.4101L142.85 66.6501C140.29 68.5901 137.73 70.5301 135.11 72.5101C136 72.8701 136.84 73.1901 137.67 73.5301C144.59 76.3301 149.05 81.2401 150.41 88.6701C151.4 94.1301 149.38 98.5701 145.32 102.16C142.48 104.67 139.12 106.24 135.58 107.49C130.8 109.17 125.86 110.09 120.84 110.69C116.41 111.22 111.97 111.51 107.52 111.29C101.78 111.01 96.0197 110.72 90.5197 108.84C88.5897 108.18 86.7497 107.26 84.7997 106.42C83.4997 107.38 82.1397 108.42 80.7397 109.41C77.5997 111.62 74.4597 113.82 71.2797 115.98C70.9197 116.22 70.3297 116.3 69.8997 116.21C67.4797 115.72 65.0797 115.15 62.6597 114.61C56.7297 113.3 50.7897 112.03 44.8697 110.67C36.3397 108.72 27.8097 106.8 19.3297 104.67C14.6197 103.48 10.1497 101.57 6.42968 98.3001C2.76968 95.0801 0.709679 91.0301 0.759679 86.1301C0.859679 77.4501 6.90968 69.0201 14.9697 65.8301C16.9197 65.0601 18.6697 63.8301 20.5597 62.8901C26.5597 59.8901 32.5697 56.9101 38.5897 53.9601C46.8297 49.9201 55.0897 45.9201 63.3397 41.9001C65.9697 40.6201 68.5697 39.2701 71.2297 38.0401C76.8397 35.4601 82.6497 33.5401 88.9097 33.8201C94.8997 34.0901 100.1 36.1901 103.68 41.2701C105.3 43.5801 105.79 46.2101 105.6 49.0701C105.43 51.7301 104.72 54.0801 103.02 56.1201C102.69 56.5201 102.26 56.8401 101.78 57.2801L101.76 57.2901ZM83.9197 105.75C83.9197 105.75 83.7897 105.67 83.6797 105.57C82.2197 104.25 80.6197 103.05 79.3397 101.57C74.8297 96.3201 74.2397 90.1501 77.3797 84.0201C79.9797 78.9401 84.1097 75.5801 89.2197 73.3101C94.9997 70.7501 101.09 69.6701 107.39 69.6601C108.75 69.6601 110.16 69.3601 111.24 70.1301C115.17 69.2501 119.01 69.2001 122.8 69.6901C126.59 70.1801 130.31 71.1201 134.19 71.8901C135.53 70.6701 137.06 69.2701 138.62 67.8501C137.23 67.7501 135.83 67.7201 134.47 67.5201C129.96 66.8601 125.43 66.3101 120.97 65.3801C113.35 63.7901 105.98 61.3901 98.9397 58.0201C98.7997 57.9501 98.5797 57.9101 98.4597 57.9701C96.8597 58.8001 95.2697 59.6401 93.6797 60.5001C92.7697 60.9901 91.8797 61.5001 90.9797 62.0101C89.1397 63.0601 87.3497 64.1801 85.4597 65.1401C82.8997 66.4401 80.2697 67.5901 77.6797 68.8401C74.0097 70.6101 70.3497 72.4001 66.6997 74.2101C61.9097 76.5801 57.1297 78.9701 52.3497 81.3701C50.9197 82.0901 49.5397 82.8901 48.1097 83.6201C44.7797 85.3101 41.4597 87.0101 38.1097 88.6501C34.4397 90.4501 30.7097 92.1501 27.0497 93.9701C24.2597 95.3601 21.3697 96.0501 18.2897 95.4101C13.7097 94.4501 10.7297 91.6901 9.45968 87.1801C8.19968 82.7301 10.2097 79.4001 13.3197 76.5301C14.1397 75.7801 15.1197 75.2001 16.0497 74.5701C16.7597 74.0901 17.4897 73.6401 18.2297 73.2001C19.5097 72.4301 20.7997 71.6701 22.0997 70.9201C22.8197 70.5001 23.5397 70.0701 24.2797 69.7001C24.9497 69.3701 25.6597 69.1201 26.5397 68.7601C25.8497 68.3601 25.3797 68.0001 24.8597 67.7801C20.9397 66.1801 17.1397 66.6201 13.4597 68.5701C8.98968 70.9301 5.97968 74.6001 3.92968 79.1301C1.93968 83.5201 1.78968 87.9801 3.89968 92.2801C5.77968 96.1101 9.05968 98.7301 12.9497 100.35C16.2097 101.7 19.5997 102.83 23.0197 103.69C30.1097 105.48 37.2597 107.03 44.3897 108.67C47.7297 109.44 51.0697 110.16 54.4097 110.93C59.5597 112.11 64.6997 113.3 69.8497 114.47C70.1197 114.53 70.4997 114.47 70.7297 114.32C75.1297 111.47 79.5197 108.61 83.9097 105.74L83.9197 105.75ZM20.3797 64.9301C26.5497 65.5601 30.5297 68.9601 32.9497 74.2901C35.3997 79.7001 34.5897 84.9301 31.5297 90.0501C33.7997 88.9201 35.9297 87.8801 38.0397 86.8001C41.8697 84.8401 45.6797 82.8401 49.5197 80.9001C51.3397 79.9801 53.2297 79.2001 55.0297 78.2601C57.1297 77.1701 59.1297 75.8901 61.2497 74.8501C64.6197 73.1901 68.0697 71.6901 71.4497 70.0401C74.2297 68.6801 76.9397 67.1801 79.7097 65.7901C81.2797 65.0001 82.9097 64.3301 84.4997 63.5901C84.7997 63.4501 85.0597 63.2501 85.3397 63.0701C86.0497 62.6201 86.7397 62.1201 87.4897 61.7401C89.3097 60.8301 91.1497 59.9701 92.9997 59.1301C95.1597 58.1601 97.0697 56.5501 99.6097 56.5101C99.7097 56.5101 99.8097 56.4001 99.9097 56.3301C102.46 54.6301 103.62 52.1501 103.77 49.1701C103.91 46.3101 103.69 43.5101 101.54 41.3201C100.54 40.3001 99.4397 39.3701 98.2697 38.5401C97.3397 37.8801 96.2997 37.2901 95.2297 36.9201C91.0997 35.4801 86.8597 35.2301 82.5797 36.0601C77.8597 36.9701 73.4597 38.8301 69.1697 40.9601C63.7797 43.6401 58.3997 46.3401 52.9997 48.9901C46.7897 52.0401 40.5597 55.0401 34.3397 58.0701C30.0097 60.1801 25.6797 62.3101 21.3597 64.4401C21.0697 64.5801 20.7797 64.7301 20.3697 64.9301H20.3797ZM80.0497 82.9001C80.0497 82.9001 79.9597 82.9901 79.8997 83.0901C77.6797 86.5801 76.8097 90.3201 77.6997 94.4201C78.5397 98.2801 80.9297 101.05 83.8997 103.43C86.9097 105.85 90.4897 107.15 94.1497 108.05C96.9797 108.74 99.9397 108.92 102.85 109.2C105.12 109.42 107.41 109.56 109.69 109.52C113.26 109.46 116.86 109.44 120.4 108.99C125.08 108.4 129.77 107.77 134.26 106.07C136.39 105.26 138.46 104.43 140.44 103.34C144.41 101.15 147.39 98.2101 148.46 93.6201C149.44 89.4001 148.03 85.7601 145.88 82.2701C145.88 82.2601 145.83 82.2701 145.73 82.2501C145.05 84.7701 142.87 85.8101 140.78 86.7101C138.02 87.9001 135.29 89.2301 132.2 89.5401C128 89.9601 123.83 90.6901 119.63 91.0201C116.77 91.2501 113.86 91.0901 110.98 91.0001C107.41 90.8901 103.82 90.8201 100.27 90.4501C96.1897 90.0301 92.0497 89.6901 88.1797 88.1501C86.0397 87.3001 83.9597 86.2801 81.9597 85.1401C81.1597 84.6801 80.6797 83.6801 80.0397 82.9101L80.0497 82.9001ZM110.86 70.5001C109.7 70.6501 107.94 70.9501 106.16 71.0901C102.36 71.3801 98.5997 71.8401 94.9197 72.8501C89.8597 74.2501 85.3597 76.5701 81.8297 80.5301C81.5897 80.8001 81.4497 81.3101 81.4897 81.6801C81.6497 82.9801 82.4997 83.8901 83.5797 84.4701C84.6697 85.0601 85.8697 85.4501 87.0397 85.8701C88.2997 86.3201 89.5697 86.8701 90.8797 87.0901C94.5797 87.7301 98.2997 88.2801 102.02 88.7701C104.01 89.0301 106.03 89.1401 108.04 89.2601C108.97 89.3101 109.92 89.1801 110.85 89.1801C114.28 89.1801 117.71 89.3001 121.13 89.1501C123.33 89.0501 125.5 88.4801 127.7 88.2401C130.15 87.9701 132.6 87.7901 134.94 86.9401C136.62 86.3301 138.35 85.8501 140.01 85.1901C142.13 84.3501 143.88 83.0201 144.99 80.9301C144.94 80.8601 144.9 80.7501 144.83 80.6901C143.96 79.9101 143.16 79.0401 142.21 78.3901C140.49 77.2301 138.76 76.0001 136.88 75.1501C130.38 72.2301 123.5 71.0601 116.41 70.9301C114.77 70.9001 113.13 70.6901 110.86 70.5101V70.5001ZM25.5697 88.7201C25.5697 88.7201 25.5297 88.6501 25.5097 88.6201C25.3897 88.7801 25.3197 89.0101 25.1597 89.1001C24.0097 89.7301 22.8997 90.5501 21.6597 90.8901C17.7397 91.9801 14.4997 89.2501 15.0497 85.3401C15.5897 81.5201 19.1497 80.6901 22.3497 82.0401C22.6597 82.1701 23.1197 82.2701 23.3697 82.1301C23.9597 81.7901 24.4497 81.3001 24.9697 80.8801C24.6597 79.7501 23.4497 78.4201 22.1697 77.6101C18.7097 75.4101 12.9297 77.7901 11.4797 81.7601C9.28968 87.7501 15.1397 94.7301 21.5497 93.7701C27.1697 92.9201 30.7397 89.6801 32.0997 84.1801C32.1497 83.9701 32.1797 83.7501 32.2197 83.5501C29.9797 85.2901 27.7797 87.0101 25.5697 88.7301V88.7201ZM25.3097 81.7401C25.0897 81.9801 24.9897 82.0801 24.8997 82.1901C24.0497 83.2401 23.1497 83.8001 21.5097 83.1801C20.1997 82.6801 18.6997 82.6401 17.4897 83.7001C16.3897 84.6701 16.1397 86.4401 16.8497 87.8301C17.5397 89.1801 19.1897 89.8801 20.9097 89.5501C22.3897 89.2601 23.4397 88.4601 24.3397 87.2101C25.5397 85.5401 25.5297 83.7801 25.3097 81.7501V81.7401Z" fill="black"/>
<path d="M144.74 24.9902C145.83 25.4002 146.86 25.6402 147.75 26.1402C148.88 26.7802 149.42 27.9002 149.98 29.0902C150.95 31.1702 151.04 33.3302 150.91 35.4902C150.84 36.7002 150.18 37.8802 149.78 39.0702C149.71 39.2802 149.58 39.4602 149.41 39.7702C151.55 40.0002 153.51 40.5102 155.27 41.8302C155.3 42.3902 155.34 43.0002 155.38 43.6002C155.38 44.7002 154.11 46.0502 153.54 45.9502C150.31 46.6502 147.46 47.1602 144.57 47.0902C141.73 47.0202 138.91 46.7002 136.81 46.5502C134.17 45.8802 132.24 45.3902 130.16 44.8602C130.22 45.9502 130.07 47.0902 130.4 48.0702C130.97 49.7502 131.71 51.4202 132.63 52.9402C133.58 54.5002 135.28 55.2202 137.02 55.5502C139.21 55.9602 141.42 56.3002 143.64 56.4202C145.08 56.5002 146.67 56.4002 147.9 55.5602C149.3 54.6102 150.56 53.4302 151.75 52.2302C153.38 50.5802 153.52 48.3102 154.02 46.2002C154.09 45.9102 154.44 45.6902 154.66 45.4302C154.81 45.4802 154.96 45.5302 155.12 45.5702C155.15 46.3302 155.33 47.1102 155.17 47.8302C154.87 49.1902 154.49 50.5602 153.93 51.8202C152.88 54.1602 151.23 56.0402 148.91 57.1902C147.98 57.6502 146.87 57.7802 145.83 57.9802C145 58.1302 144.14 58.2302 143.29 58.2202C142.13 58.2002 140.96 58.1402 139.81 57.9502C138.63 57.7602 137.49 57.3202 136.31 57.1102C134.63 56.8102 133.07 56.2102 131.96 54.9402C131.08 53.9302 130.47 52.6702 129.76 51.5102C129.54 51.1502 129.32 50.7702 129.17 50.3802C128.33 48.2402 128.41 46.0302 128.69 43.8102C128.71 43.6702 128.69 43.5202 128.67 43.3802C128.27 41.7602 129.45 39.9902 131.11 39.7102C131.39 39.6602 131.64 39.4202 131.92 39.3602C132.42 39.2702 132.93 39.2402 133.44 39.2002C133.78 39.1702 134.13 39.1702 134.52 39.1502C133.95 37.0202 135.18 35.6502 136.21 34.2202C136.71 33.5302 137.29 32.8902 137.8 32.2102C138.29 31.5702 138.36 30.9002 137.85 30.2102C137.56 29.8202 137.31 29.4002 137.03 28.9602C138.44 28.7002 139.75 28.6602 140.89 29.6302C141.99 30.5602 142.48 31.7402 142.31 33.4302C143.54 32.2202 144.55 31.1402 144.69 29.6202C144.82 28.2002 144.72 26.7502 144.72 25.0102L144.74 24.9902ZM153.79 42.9302C152.99 42.5502 152.38 42.1702 151.71 41.9602C151.06 41.7502 150.35 41.6602 149.67 41.6002C148.66 41.5102 147.71 41.5402 146.79 42.2302C145.14 43.4902 143.17 43.9502 141.12 43.6602C140.32 43.5502 139.56 43.0602 138.8 42.7302C137.9 42.3402 136.84 42.1102 136.15 41.4902C135.13 40.5702 133.95 40.8302 132.95 40.9402C131.92 41.0502 130.97 41.8602 130.01 42.3602C130.14 42.8602 130.19 43.0802 130.21 43.1702C130.87 43.3502 131.42 43.5302 131.98 43.6502C133.27 43.9202 134.57 44.1702 135.87 44.4002C137 44.6002 138.13 44.8102 139.26 44.9402C140.73 45.1102 142.21 45.2702 143.68 45.2902C145.25 45.3102 146.83 45.1602 148.4 45.0702C149.83 44.9902 151.25 44.8802 152.75 44.7702C153.07 44.1902 153.4 43.6202 153.78 42.9202L153.79 42.9302Z" fill="black"/>
<path d="M152.69 109.26C152.91 108.72 153.11 108.2 153.34 107.7C154.54 105.03 157.33 104.68 159.08 107.04C159.84 108.06 160.43 109.21 161.22 110.49C161.74 109.92 162.2 109.34 162.72 108.83C164.4 107.21 165.97 107.44 167.16 109.45C169.13 112.76 168.28 118.68 164.83 120.76C163.42 121.61 162.22 122.82 160.45 122.96C160.15 122.98 159.85 122.96 159.56 122.96C159.28 123.86 160.04 125.17 161.23 125.56C162.81 126.08 164.42 126.58 166.06 126.83C170.88 127.55 175.41 126.26 179.86 124.6C181.44 124.01 183.02 123.4 184.63 122.79C184.61 122.61 184.59 122.47 184.57 122.36C182.89 122.04 181.23 121.74 179.59 121.39C179.03 121.27 178.47 121.06 177.96 120.79C176.66 120.1 176.38 118.88 177.18 117.64C178.08 116.24 179.59 115.68 181.31 116.09C183.82 116.69 185.66 118.2 187.03 120.34C187.21 120.63 187.39 120.92 187.66 121.36C189.99 119.84 192.29 118.34 194.59 116.84L194.74 116.96C194.22 117.64 193.76 118.38 193.16 118.98C190.41 121.74 187.1 123.7 183.44 124.93C180.8 125.81 179.9 127.51 179.89 130.04C179.89 131.05 179.8 132.08 179.64 133.08C179.31 135.02 178.05 135.8 175.99 135.43C174.52 135.16 173.58 133.64 173.96 131.9C174.2 130.79 174.69 129.73 175.07 128.65C175.14 128.44 175.23 128.24 175.36 127.94C174.19 128.14 173.12 128.35 172.04 128.5C168.26 129.04 164.53 129.07 160.98 127.39C159.17 126.53 157.87 125.15 157.16 123.27C156.83 122.39 156.18 121.98 155.3 121.8C149.85 120.69 145.99 115.7 146.29 110.15C146.41 107.92 148.78 106.73 150.85 107.9C151.49 108.26 152.03 108.78 152.68 109.27L152.69 109.26ZM161.2 115.08C161.07 115.08 160.93 115.08 160.8 115.07C160.47 114.37 160.09 113.69 159.83 112.96C159.27 111.41 158.85 109.8 158.24 108.27C157.84 107.26 156.78 106.83 155.81 107.07C154.85 107.31 154.33 108.03 154.36 109.2C154.41 110.72 154.56 112.24 154.57 113.75C154.57 114.18 154.22 114.61 154.03 115.04C153.6 114.61 153.47 114.23 153.28 113.89C152.41 112.37 151.6 110.81 150.62 109.35C150.16 108.66 149.3 108.56 148.5 108.95C147.76 109.32 147.44 109.97 147.62 110.73C148.2 113.1 148.78 115.53 150.49 117.36C152.29 119.3 154.17 121.4 157.4 120.1C158.3 121.09 159.43 121.13 160.59 120.49C161.7 119.88 162.78 119.2 163.85 118.51C166.75 116.63 166.8 113.33 165.84 110.76C165.38 109.53 164.2 109.38 163.51 110.48C163 111.28 162.74 112.24 162.32 113.1C161.99 113.77 161.58 114.4 161.2 115.05V115.08ZM178.08 128.33C177.86 128.51 177.69 128.63 177.55 128.78C176.38 129.92 175.84 131.35 175.67 132.95C175.6 133.64 176.12 134.37 176.81 134.46C177.54 134.55 177.9 134.11 178.07 133.47C178.13 133.24 178.19 133.01 178.24 132.78C178.53 131.31 178.49 129.86 178.08 128.34V128.33ZM185.22 120.93C184.74 119.49 182.78 118.01 181.3 117.91C180.22 117.84 179.31 118.17 178.6 119.1C180.59 120.57 182.93 120.51 185.22 120.93Z" fill="black"/>
<path d="M183.83 102.51C183.49 102.56 183.19 102.6 182.89 102.65C179.14 103.77 175.23 104.09 171.4 103.82C167.59 103.55 163.83 102.51 159.97 101.79V104.19C159.62 105.18 159.27 105.39 158.33 104.93C158.26 104.09 158.18 103.25 158.1 102.4C158.14 102.4 158.18 102.4 158.22 102.41C158.22 101.62 158.16 100.83 158.23 100.05C158.35 98.8496 158.66 97.6796 159.72 96.9396C160.19 96.6096 160.76 96.4196 161.3 96.1896C162.85 95.5396 164.46 96.0096 166.02 95.8796C166.4 95.7896 166.78 95.6996 167.16 95.6096C167.08 95.2296 166.97 94.7996 166.91 94.3696C166.64 92.4796 167.95 91.2896 168.9 89.9396C169.78 88.6896 170.7 87.4696 171.53 86.1796C171.74 85.8596 171.59 85.3296 171.69 84.9096C171.74 84.7196 171.98 84.4596 172.16 84.4496C172.7 84.4096 173.25 84.4796 173.79 84.4996C173.82 84.6496 173.86 84.7296 173.84 84.7696C173.23 86.1896 173.66 87.5696 173.97 88.9596C174.37 90.7496 174.79 92.5396 175.14 94.3396C175.27 94.9896 175.23 95.6796 175.27 96.4196C178.69 96.3996 182.06 96.3696 184.98 98.4896C185.34 99.8996 185.35 101.22 184.02 102.22C185.31 102.54 185.43 102.68 185.03 104.43C184.67 106.01 184.21 107.58 183.69 109.11C183.51 109.64 183.01 110.06 182.66 110.52C182.33 110.96 182.04 111.44 181.64 111.81C181 112.38 180.35 112.98 179.6 113.38C178.51 113.95 177.34 114.35 176.17 114.67H174.27V114.82C173 114.82 171.72 114.85 170.45 114.79C170.29 114.79 170.07 114.33 170.05 114.07C170.03 113.89 170.28 113.55 170.45 113.51C171.15 113.35 171.86 113.28 172.57 113.17C172.92 113.11 173.26 113 173.61 112.97C174.42 112.9 175.25 112.94 176.04 112.78C178.14 112.36 180.02 111.62 181.2 109.61C182.42 107.52 183.46 105.4 183.7 102.96C183.71 102.82 183.78 102.69 183.83 102.53V102.51ZM174.97 97.7396C174.57 99.2796 173.74 100.35 172.32 100.8C171.91 100.93 171.36 100.82 170.95 100.65C170.75 100.57 170.72 100.09 170.56 99.6596C169.75 99.2996 168.69 98.9696 168.3 97.7596C168.23 97.5396 167.77 97.2896 167.51 97.3196C167.03 97.3696 166.57 97.5996 166.07 97.7696C163.7 96.9796 161.34 97.5896 159.9 99.4196C159.95 99.6096 160.01 99.8296 160.04 99.9196C160.69 100.09 161.26 100.26 161.84 100.38C163.02 100.63 164.2 100.86 165.39 101.07C167.1 101.38 168.8 101.87 170.52 101.94C173.2 102.04 175.88 101.84 178.57 101.77C179.07 101.76 179.57 101.8 180.06 101.75C180.87 101.67 181.67 101.53 182.5 101.41C182.77 101.11 183.06 100.78 183.31 100.5C183.33 100.17 183.34 99.9196 183.36 99.5596C180.87 97.8196 177.78 98.5696 174.99 97.7296L174.97 97.7396Z" fill="black"/>
<path d="M110.94 81.0703C110.86 80.9003 110.74 80.6703 110.51 80.2203C110.58 80.0103 110.74 79.5803 110.86 79.2303H112.51C112.51 79.2303 112.51 79.2803 112.51 79.3103C112.86 79.2803 113.21 79.2403 113.54 79.2103C113.66 79.5703 113.77 79.8803 113.9 80.2603C114.06 79.9003 114.18 79.6503 114.25 79.4803C114.88 79.1103 115.45 78.7903 116.23 78.3403C116.2 78.3403 116.45 78.3203 116.8 78.2803C117 78.6303 117.24 79.0303 117.46 79.4203C116.97 79.8703 116.55 80.2703 115.97 80.8103C117.16 81.2103 118.23 81.4303 119.13 81.9303C119.67 82.2303 119.95 82.9703 120.35 83.5203C119.97 83.7903 119.59 84.0503 119.2 84.3203C119.19 84.2103 119.18 84.1103 119.17 84.0003C118.5 83.6803 117.83 83.3603 117.15 83.0403C117.13 83.0803 117.11 83.1203 117.09 83.1503C116.39 82.8303 115.68 82.5103 115 82.2103C114.12 83.2203 113.15 84.3103 112.11 85.5003C111.63 85.0603 111.29 84.7403 110.96 84.4303C111.43 83.7203 111.83 83.1003 112.24 82.4803C112.2 82.4403 112.16 82.4003 112.12 82.3603C111.61 82.6603 111.1 82.9503 110.58 83.2503H109.09C109.05 82.8203 109 82.3603 108.96 81.9303C109.64 81.6303 110.22 81.3803 110.95 81.0703H110.94Z" fill="black"/>
</svg>
