<svg width="661" height="601" viewBox="0 0 661 601" fill="none" xmlns="http://www.w3.org/2000/svg">
<g opacity="0.2">
<path d="M686.419 409.86C681.269 409.68 676.069 410.07 670.929 410.54C666.679 410.93 662.469 411.82 658.249 412.49C658.049 412.09 657.849 411.69 657.639 411.29C659.109 409.47 660.539 407.62 662.039 405.83C670.799 395.36 678.679 384.27 685.189 372.28C699.049 346.75 707.289 319.8 705.249 290.37C704.569 280.61 702.939 270.99 698.569 262.18C696.399 257.8 693.559 253.51 690.139 250.06C684.599 244.46 676.589 245.54 672.399 252.21C670.379 255.44 668.889 259.19 668.009 262.91C665.969 271.56 664.869 280.42 666.179 289.27C667.509 298.21 669.299 307.1 671.209 315.94C672.709 322.89 674.319 329.86 676.539 336.6C682.699 355.33 681.009 372.69 668.619 388.55C658.159 401.94 645.639 413.16 632.259 423.5C631.169 424.34 629.869 424.93 627.849 426.11C628.429 423.1 628.999 421.04 629.189 418.95C629.559 414.66 630.279 410.3 629.839 406.07C629.049 398.45 625.849 392.13 618.269 389.2C612.109 392.09 611.449 397.62 611.049 402.59C610.229 412.69 609.519 422.9 610.159 432.97C610.609 439.93 608.279 444.5 603.309 448.63C597.999 453.04 592.599 457.42 587.759 462.32C581.239 468.93 575.269 476.07 568.969 482.89C567.009 485.01 564.729 486.84 561.439 489.86C561.439 486.08 561.459 484 561.439 481.92C561.399 478.46 561.609 474.97 561.199 471.56C560.289 464.02 556.789 458.05 549.609 454.8C545.649 453.01 543.259 453.66 540.399 456.9C534.109 464.03 534.329 473.48 540.899 480.27C543.149 482.6 545.509 484.86 547.429 487.45C552.609 494.44 553.999 501.88 549.369 509.81C548.389 511.48 547.579 513.26 546.729 515.01C541.949 524.76 537.759 534.67 537.819 545.84C537.819 546.77 537.069 547.7 536.459 549.11C533.359 547.95 530.589 546.9 527.809 545.89C522.239 543.85 516.799 544 511.559 546.95C507.629 549.17 505.729 552.58 505.809 557.09C506.009 567.37 515.309 574.8 525.249 572.43C528.169 571.73 530.939 570.4 533.799 569.45C538.939 567.73 540.419 568.19 543.829 572.4C545.189 574.08 546.679 575.67 547.879 577.46C557.489 591.78 572.889 595.35 589.409 600.02C585.029 595.15 580.469 593.31 575.969 591.43C570.179 589.01 564.849 586.18 560.079 581.76C553.379 575.55 548.919 568.37 545.709 559.91C543.239 553.4 542.279 547.89 548.669 543.26C549.349 542.77 549.879 542 550.299 541.26C552.719 537.01 556.679 535.69 561.199 535.41C563.139 535.29 565.099 535.43 567.029 535.22C574.599 534.39 582.049 532.96 588.319 528.27C594.979 523.28 595.129 515.79 588.449 510.91C585.779 508.96 582.319 507.62 579.039 507.07C570.549 505.65 563.389 508.97 557.119 514.53C555.839 515.66 554.509 516.73 553.199 517.83C553.279 515.28 553.769 513.32 554.859 511.79C559.879 504.77 565.039 497.85 570.209 490.94C572.579 487.78 575.929 487.58 579.559 487.88C592.039 488.94 604.519 490.15 617.029 490.69C622.329 490.92 627.869 490.28 632.979 488.87C639.879 486.97 641.369 480.45 636.349 475.33C634.299 473.24 631.489 471.73 628.779 470.5C622.469 467.65 615.689 467.3 609.069 468.72C602.349 470.16 595.829 472.52 589.209 474.45C587.989 474.81 586.739 475.06 584.399 475.62C586.209 473.48 587.049 472.2 588.149 471.22C602.319 458.56 616.419 445.82 630.799 433.39C636.249 428.67 643.089 427.27 650.259 427.84C657.579 428.41 664.889 429.36 672.209 429.57C678.869 429.76 685.569 429.36 692.229 428.86C694.509 428.69 696.889 427.75 698.889 426.59C703.049 424.19 703.549 420.59 700.499 416.87C696.869 412.44 692.019 410.07 686.419 409.87V409.86ZM673.099 298.89C669.959 286.15 670.189 273.16 673.159 260.35C674.019 256.63 675.269 252.44 679.679 251.4C684.159 250.35 686.859 253.8 689.329 256.74C691.089 258.85 692.659 261.33 693.589 263.9C704.409 293.93 702.089 323.26 688.499 351.9C688.339 352.24 687.889 352.44 687.499 352.78C682.599 334.57 677.519 316.81 673.099 298.88V298.89ZM521.079 570C515.719 570.7 510.729 564.64 510.799 558.87C510.869 553.35 515.019 549.95 521.379 550.21C530.019 550.57 536.469 555.18 539.179 563.61C533.739 567.89 527.329 569.19 521.069 570H521.079ZM579.959 512.83C583.859 513.34 586.699 515.45 587.049 518.39C587.479 522.05 584.989 523.84 582.129 525.17C573.659 529.1 564.649 529.11 554.879 529.15C559.179 519.32 571.389 511.71 579.959 512.84V512.83ZM556.169 484.48C555.549 484.77 554.929 485.07 554.309 485.36C550.399 481.21 546.359 477.18 542.649 472.86C540.959 470.9 539.909 468.17 541.479 465.7C542.779 463.65 544.489 461.22 546.569 460.46C549.369 459.43 551.129 462.2 552.399 464.45C555.949 470.74 557.259 477.44 556.179 484.48H556.169ZM601.769 475.76C608.089 474.72 614.559 474.13 620.959 474.13C625.669 474.13 630.249 475.64 632.969 480.07C632.159 483.82 629.029 484.67 626.489 484.6C614.269 484.3 602.059 483.55 589.849 482.91C589.549 482.89 589.279 482.35 588.729 481.75C592.399 478.2 597.059 476.53 601.779 475.75L601.769 475.76ZM617.209 434.59C615.089 421.92 614.759 409.9 619.219 396.88C627.859 405.54 626.369 427.83 617.209 434.59ZM690.629 423.83C676.869 426.01 663.069 424.93 649.299 423.76C648.559 423.7 647.859 423.11 646.159 422.3C648.599 420.73 650.189 419.29 652.049 418.59C663.959 414.1 676.229 412.37 688.859 414.64C692.199 415.24 695.649 416.14 697.919 421.14C695.209 422.17 692.989 423.45 690.629 423.83Z" fill="#8ECCDC"/>
<path d="M52.8105 453.74C56.6105 453.1 61.0005 452.37 65.3905 451.6C69.7805 450.84 74.1805 449.36 78.5905 451.88C79.8905 456.78 78.0205 462.47 82.3805 466.47C86.0705 466.81 87.6105 464.9 87.8905 461.62C88.1605 458.4 88.4705 455.19 88.5905 451.96C88.7605 447.13 86.6705 444.13 81.7805 443.26C78.0205 442.6 74.1005 442.74 70.2505 442.76C66.7105 442.78 63.1805 443.1 58.2305 443.37C59.9505 440.08 60.8605 438 62.0805 436.11C63.5705 433.82 64.7405 431.55 63.1305 428.94C61.3305 426.02 58.3905 426.17 55.6205 426.8C48.8005 428.34 42.6505 431.42 37.1605 435.73C36.1505 436.53 35.6805 438.02 34.7305 439.55C41.2505 441.69 45.1005 435.92 50.5105 435.79C51.6705 441.5 46.5205 447.77 52.8105 453.73V453.74Z" fill="#8ECCDC"/>
<path d="M96.3993 485.61C94.0893 486 91.7793 486.72 89.6493 487.69C86.3193 489.2 83.1793 491.12 79.8893 492.74C77.6193 493.86 75.2993 495.39 72.6393 493.31C72.1593 490.15 71.8693 486.93 71.1693 483.79C69.4692 476.15 65.0893 473.75 57.8393 476.92C53.7393 478.72 49.9292 481.28 46.2192 483.82C43.6992 485.55 41.5793 487.85 39.2793 489.9C39.5893 490.39 39.8993 490.87 40.2093 491.36C42.0893 490.58 44.0293 489.94 45.8193 489C49.4393 487.1 52.9093 484.89 56.5693 483.07C62.6593 480.05 64.5393 481.11 65.4993 487.98C65.9193 490.96 65.7792 494.03 66.2892 496.99C67.4492 503.69 71.3492 505.76 77.4792 502.87C80.7792 501.32 83.8193 499.21 87.0093 497.42C89.5993 495.97 92.1293 494.21 96.2993 495.04C96.2993 497.31 96.2993 499.57 96.2993 501.83C96.3093 504.19 95.9593 506.63 96.4493 508.89C97.0993 511.89 98.8093 514.06 103.149 512.3C104.109 504.94 103.989 497.29 102.729 489.71C102.199 486.52 99.5993 485.06 96.3993 485.6V485.61Z" fill="#8ECCDC"/>
<path d="M262.58 536.8C258.92 534.46 255.62 536.87 252.36 538.55C249.98 539.78 247.51 540.84 245.32 541.86C244.19 540.84 243.6 540.49 243.26 539.97C238.18 532.35 233.67 531.5 226.28 537.01C223.52 539.07 221.11 541.59 218.37 543.68C214.29 546.79 212.82 550.61 214.68 556.27C222.79 554.91 226.62 547.57 233 544.39C238.16 546.86 235.64 553.07 239.53 556.43C247.02 556.82 250.56 549.18 257.18 546.74C257.93 548.24 258.46 549.6 259.25 550.79C259.99 551.91 261 552.86 262.86 554.99C264.01 551.46 265.16 549.19 265.42 546.83C265.82 543.21 266.18 539.12 262.57 536.81L262.58 536.8Z" fill="#8ECCDC"/>
<path d="M175.489 464.76C172.909 466.09 170.299 467.97 166.699 466.55C166.219 464.37 165.769 462.1 165.199 459.85C163.709 453.98 161.149 452.23 155.389 453.62C149.599 455.02 144.779 458.24 140.759 462.61C138.999 464.52 138.239 466.58 141.009 469.12C145.909 466.38 150.839 463.61 156.629 460.37C157.569 462.93 158.289 464.55 158.759 466.25C159.569 469.14 159.909 472.18 160.999 474.95C162.879 479.73 165.169 480.37 169.429 477.61C171.769 476.09 173.849 474.15 176.229 472.72C179.699 470.63 181.499 471.13 183.869 474.39C184.929 475.85 185.949 477.35 187.689 479.85C188.689 477.5 189.609 476.3 189.659 475.06C190.079 464.14 187.209 458.74 175.489 464.77V464.76Z" fill="#8ECCDC"/>
<path d="M460.21 389.12C496.79 382.64 533.36 376.16 569.97 369.85C585.87 367.11 589.8 357.38 579.95 344.46C579.63 344.04 579.91 343.08 580.04 342.4C581.13 336.69 584.4 330.31 582.87 325.43C580.45 317.73 577.64 310.52 577.61 302.19C577.6 298.68 574.33 295.23 580.49 294.22C581.23 294.1 581.89 293.02 582.43 292.27C587.97 284.55 586.94 275.13 579.96 268.7C579.25 268.04 578.28 266.71 578.52 266.13C582.77 255.58 581.43 250.15 572.56 242.76C572.23 242.48 572.01 242.07 571.74 241.72C572.17 241.6 572.6 241.37 573.02 241.39C588.3 242.05 602.47 240.85 608.34 223.07C609.43 219.78 612.45 217.17 613.99 213.97C614.63 212.64 614.41 209.87 613.44 208.93C570.74 167.58 527.94 126.34 485.07 85.17C481.87 82.1 478.08 79.64 474.62 76.83C473.76 76.13 472.51 75.15 472.5 74.29C472.37 60.3 472.62 46.3 472.28 32.32C472.17 27.82 473.34 26.39 477.79 26.92C481.41 27.35 485.41 27.71 485.18 21.86C484.97 16.25 485.53 10.58 484.91 5.03998C484.71 3.22998 481.89 0.309981 480.22 0.269981C462.86 -0.0800194 445.48 0.049987 428.11 0.049987C410.63 0.049987 393.16 -0.0700161 375.69 0.249984C374.11 0.279984 371.38 3.00999 371.24 4.65999C370.71 11.01 370.73 17.46 371.22 23.82C371.36 25.61 373.8 27.23 375.21 28.9C376.32 30.21 378.42 31.46 378.45 32.77C378.71 43.74 378.41 54.72 378.71 65.69C378.81 69.49 377.54 69.88 374.25 69.62C341.93 67.16 309.6 64.84 277.28 62.49C246.04 60.22 214.81 57.85 183.56 55.78C178.71 55.46 171.01 54.63 169.27 57.19C128.22 117.69 87.7797 178.62 47.4697 239.62C46.8097 240.62 48.7298 245.07 49.9998 245.34C59.2898 247.32 68.7198 248.61 78.0798 250.24C78.7598 250.36 79.9098 251.66 79.7798 251.98C77.1998 258.33 78.2597 263.97 82.6597 269.14C82.9897 269.53 82.9597 270.72 82.6097 271.12C76.9797 277.63 76.9698 285.56 82.5698 292.08C82.9298 292.5 82.9398 293.76 82.5898 294.17C76.9698 300.67 76.9798 308.63 82.5898 315.13C82.9498 315.54 82.8797 316.85 82.4897 317.29C77.0597 323.5 77.0197 331.78 82.3597 337.9C82.7897 338.39 82.7998 339.91 82.3798 340.4C75.2698 348.66 78.1698 360.89 88.2698 364.92C88.7798 365.12 89.2497 365.42 89.7397 365.67C89.1697 365.8 88.6097 366 88.0397 366.05C60.1997 368.24 32.3498 370.36 4.51978 372.73C3.17978 372.84 2.00977 375.07 0.759766 376.31C2.52977 377.5 4.46979 379.93 6.02979 379.7C58.5298 372.21 111.11 371.24 163.78 377.56C247.51 387.6 324.91 415.18 395.63 461.31C397.05 462.24 399.67 461.31 401.74 461.24C401.02 459.19 400.91 456.04 399.48 455.25C374.93 441.57 350.23 428.18 325.56 414.72C325.03 414.43 324.54 414.07 324.03 413.74C324.61 413.51 325.18 413.16 325.78 413.06C370.58 405.07 415.39 397.08 460.2 389.14L460.21 389.12ZM401.67 392.24C377.05 395.78 352.63 400.67 328.12 405.01C327.58 405.11 327.01 405.01 326.45 405.01C326.59 404.49 326.65 403.93 326.89 403.46C330.39 396.65 329.87 390.06 325.98 383.57C325.75 383.19 326.46 381.64 326.86 381.59C354.6 377.79 382.35 374.09 410.1 370.42C411.11 370.29 412.17 370.61 412.92 370.68C412.92 374.01 412.62 376.45 412.97 378.78C414.34 387.71 410.79 390.93 401.67 392.25V392.24ZM414.66 319.87C413.94 327.237 408.713 331.507 398.98 332.68C375.16 335.54 351.35 338.39 327.53 341.23C327.06 341.29 326.57 341.13 326.09 341.07C326.25 340.59 326.34 340.08 326.58 339.65C329.99 333.44 330.14 327.21 326.95 320.85C326.76 320.46 327.54 319.01 327.96 318.97C351.84 316.66 375.72 314.45 399.61 312.24C403.07 311.92 406.61 311.93 409.99 311.21C414.42 310.27 415.82 311.74 414.69 315.82C414.69 317.28 414.8 318.59 414.67 319.88L414.66 319.87ZM499.65 372.56C499.65 373.32 498.74 374.62 498.08 374.74C472.68 379.34 447.26 383.84 421.83 388.27C421.37 388.35 420.24 387.38 420.25 386.93C420.91 361.48 421.65 336.04 422.4 310.59C422.69 300.9 422.97 291.21 423.4 281.53C423.43 280.81 424.64 279.58 425.35 279.54C449.53 278.34 473.71 277.25 497.89 276.26C498.47 276.24 499.62 277.52 499.63 278.2C499.73 293.95 499.71 309.71 499.71 325.46C499.71 341.21 499.73 356.86 499.64 372.56H499.65ZM577.34 354.77C577.75 356.59 575.72 360.68 574.22 360.97C552.61 365.2 530.92 368.97 509.22 372.75C508.68 372.84 507.45 371.83 507.38 371.23C507.14 369.23 507.29 367.19 507.29 364.35C504.76 352.42 515.34 356.8 520.47 355.93C537.61 353.03 554.91 351.02 572.2 349.23C573.81 349.06 576.83 352.56 577.33 354.78L577.34 354.77ZM512.69 326.27C531.79 324.18 550.83 321.49 569.97 320.02C571.7 319.89 575.69 327.11 575.73 330.95C575.85 343.2 565.72 342.18 557.57 343.27C541.46 345.43 525.35 347.56 509.22 349.58C508.66 349.65 507.38 348.5 507.37 347.9C507.24 340.52 507.29 333.13 507.29 325.75C507.29 318.89 507.15 312.02 507.42 305.17C507.46 304.05 509.2 302.16 510.3 302.05C527.76 300.27 545.22 298.34 562.73 297.53C565.31 297.41 569.05 302.43 570.62 305.83C572.22 309.3 570.67 312.14 565.62 312.66C547.7 314.49 529.82 316.76 511.97 319.21C510.42 319.42 509.22 322.18 507.85 323.76C509.47 324.65 511.19 326.44 512.69 326.28V326.27ZM576.5 286.68C575.37 287.99 572.87 288.48 570.93 288.68C550.07 290.79 529.2 292.78 508.33 294.73C508.03 294.76 507.34 293.91 507.34 293.46C507.27 288.06 507.2 282.65 507.4 277.25C507.43 276.43 508.79 275.01 509.6 274.96C528.67 273.86 547.76 272.91 567.63 271.89C576.03 270.16 581.74 280.64 576.51 286.68H576.5ZM571.69 261.99C570.92 263.14 569.61 263.93 569.29 264.22C530.94 266.27 494.07 268.25 457.19 270.2C428.5 271.72 399.82 273.2 371.13 274.7C356.66 275.45 342.18 276.19 327.71 276.92C327.18 276.95 326.63 276.79 326.09 276.71C326.24 276.24 326.51 275.77 326.53 275.29C326.74 269.17 326.91 263.06 327.14 256.94C327.16 256.43 327.54 255.51 327.79 255.5C350.42 254.27 373.06 253.21 395.69 251.92C422.97 250.38 450.23 248.65 477.5 247.01C504.67 245.38 531.83 243.74 559 242.15C560.44 242.06 563.16 242.2 563.18 242.44C563.93 249.92 578.9 251.26 571.69 261.99ZM435.79 7.20998C448.07 7.97998 460.43 7.59998 472.75 7.30998C476.8 7.21998 477.72 8.22998 477.98 12.35C478.35 18.28 476.74 20.17 470.72 19.56C464.59 18.94 458.36 19.42 452.17 19.42C444.68 19.42 437.19 19.53 429.71 19.29C428.7 19.26 427.14 17.57 426.86 16.41C425.08 8.85999 428.11 6.72998 435.78 7.20998H435.79ZM464.93 129.6C464.93 130.51 463.33 132.17 462.46 132.18C451.23 132.28 440.01 132.18 428.78 132C428.1 131.99 426.85 130.8 426.85 130.16C426.76 96.42 426.75 62.67 426.85 28.93C426.85 28.28 428.19 27.09 428.91 27.08C440.19 26.96 451.47 26.95 462.76 27.1C463.53 27.1 464.93 28.54 464.93 29.32C465.06 46.11 465.03 62.91 465.03 79.7C465.03 96.34 465.07 112.98 464.92 129.61L464.93 129.6ZM181.66 92.46C185.61 85.99 189.57 79.53 193.62 73.12C193.83 72.79 195.31 72.73 195.53 73.03C200.41 79.56 205.2 86.16 209.98 92.76C210.29 93.18 210.38 93.76 210.57 94.26C210.08 94.37 209.59 94.59 209.1 94.59C200.43 94.61 191.77 94.6 183.1 94.6C183.1 94.84 183.08 95.07 183.07 95.31L180.57 94.8C180.92 94.02 181.19 93.19 181.63 92.46H181.66ZM165.02 119.52C167.2 115.92 169.82 112.51 171.53 108.7C173.81 103.62 177.33 102.22 182.66 102.42C192.62 102.8 202.61 102.53 212.59 102.53L213.38 100.93C215.24 102.3 217.45 103.38 218.89 105.1C221.85 108.64 224.42 112.51 227.12 116.27C227.81 117.22 228.38 118.26 229 119.26C227.8 119.46 226.61 119.79 225.41 119.83C205.72 120.48 186.04 121.09 166.35 121.69C165.67 121.71 164.98 121.45 164.29 121.33C164.53 120.72 164.7 120.07 165.03 119.52H165.02ZM153.15 138.72C156.77 126.83 166.68 129.13 175.38 128.83C194.8 128.17 214.22 127.39 233.64 127.32C235.74 127.32 237.96 131.51 239.92 133.91C241.38 135.7 242.51 137.75 243.79 139.68C241.55 139.86 239.32 140.12 237.07 140.2C209.92 141.15 182.76 142.07 154.53 143.03C154.08 142.98 152.57 142.82 151.06 142.67C151.77 141.36 152.72 140.12 153.14 138.73L153.15 138.72ZM139.86 160.34C144.38 146.36 156.34 150.65 165.86 150.2C192.79 148.92 219.75 148.08 246.7 147.81C249.61 147.78 252.72 152.49 255.45 155.28C257.11 156.99 258.21 159.25 259.57 161.26C257.23 161.42 254.89 161.67 252.55 161.74C229.7 162.38 206.85 163.12 183.99 163.56C170.13 163.83 156.26 163.61 142.39 163.61C142.39 164.06 142.39 164.51 142.38 164.96C140.8 164.82 139.23 164.69 137.65 164.55C138.4 163.15 139.37 161.82 139.85 160.34H139.86ZM127.93 179.66C130.31 172.22 136.03 172.24 142.39 172.11C180.41 171.33 218.43 170.24 256.45 169.3C264.52 169.1 273.23 175.43 275.76 183.23C275.81 183.4 274.94 184.14 274.49 184.15C244.82 184.62 215.15 185.12 185.48 185.42C167.56 185.6 149.63 185.45 131.71 185.45C131.71 185.8 131.71 186.16 131.71 186.51C129.31 186.35 126.91 186.18 124.51 186.02C125.68 183.91 127.22 181.91 127.94 179.66H127.93ZM121.83 194.3C174.47 193.04 227.12 192.23 279.77 191.97C282.62 191.96 285.5 197.57 288.37 200.57C287.77 200.8 287.17 201.24 286.56 201.24C262.08 201.52 237.59 201.87 213.1 201.97C182.17 202.09 151.25 202 120.32 202C120.29 202.53 120.27 203.06 120.24 203.59C118.21 203.18 116.19 202.78 114.16 202.37C116.71 199.56 119.21 194.37 121.83 194.3ZM102.07 221.85C105.54 212.27 112.38 210.21 122.25 210.26C163.88 210.45 205.51 209.68 247.15 209.23C260.45 209.09 273.77 209.15 287.05 208.51C292.59 208.25 296.25 209.69 298.86 214.61C300.59 217.87 302.97 220.78 305.06 223.84C301.35 223.94 297.64 224.13 293.93 224.14C266.68 224.17 239.44 224.15 212.19 224.15V224.37C175.95 224.37 139.71 224.37 103.48 224.35C102.69 224.35 101.9 224.08 101.11 223.93C101.43 223.24 101.81 222.56 102.07 221.84V221.85ZM89.4897 252.12C89.5397 251.82 90.6398 251.67 91.2498 251.45C91.3698 252.03 91.4898 252.61 91.5098 252.73C91.2798 256.42 91.0997 259.63 90.8497 262.83C90.7797 263.66 90.4598 264.47 90.2598 265.29C89.5098 264.79 88.0898 264.23 88.1198 263.79C88.3997 259.89 88.9097 256 89.4797 252.12H89.4897ZM89.9498 274.95C90.2498 277.11 90.5398 279.27 90.8798 281.72C90.5398 283.73 90.1598 285.94 89.7798 288.15C88.6198 285.99 86.4897 283.8 86.5497 281.66C86.6097 279.39 88.7298 277.18 89.9598 274.95H89.9498ZM90.5098 357.65C89.0998 355.44 86.5297 353.19 86.5997 351.04C86.6897 348.62 89.1697 346.29 90.6097 343.91C91.0097 346.07 91.4098 348.23 91.8398 350.56C91.3998 352.9 90.9498 355.28 90.5098 357.65ZM86.6198 327.62C86.6198 325.36 89.1898 323.1 90.6398 320.84C91.0298 323.12 91.4198 325.4 91.8198 327.77C91.4098 330 91.0097 332.22 90.6097 334.43C89.1797 332.16 86.6198 329.89 86.6198 327.62ZM90.6597 311.42C89.1997 309.05 86.9198 306.79 86.5698 304.26C86.3098 302.37 88.5397 300.13 89.6597 298.05C90.3997 301.42 91.1397 304.8 91.8698 308.09C91.3997 309.39 91.0397 310.41 90.6697 311.42H90.6597ZM91.3098 243.32C90.8898 243.32 89.9897 241.86 90.1597 241.38C93.0097 233.36 98.5498 231.34 107.06 231.5C139.29 232.11 171.55 231.74 203.79 231.74V231.7C236.82 231.7 269.84 231.9 302.86 231.52C309.16 231.45 313.38 232.93 316.27 238.52C317.77 241.44 319.81 244.08 321.61 246.84C318.45 246.54 315.29 246.03 312.13 245.99C286.4 245.6 260.67 245.26 234.94 244.97C187.06 244.42 139.18 243.93 91.2997 243.31L91.3098 243.32ZM308.53 277.5C301.79 277.3 296.96 272.16 297.17 265.39C297.39 258.33 302.54 253.37 309.4 253.62C316.48 253.88 322 259.33 321.81 265.87C321.61 272.63 315.81 277.71 308.53 277.5ZM321.82 297.76C321.85 304.4 316.26 309.66 309.16 309.67C302.06 309.67 297.13 304.78 297.18 297.75C297.23 290.78 302.13 285.87 309.1 285.85C316.05 285.82 321.8 291.21 321.83 297.77L321.82 297.76ZM291.36 338.1C291.49 338.41 290.59 339.6 290.27 339.56C276.74 337.77 263.21 335.97 249.73 333.82C248.69 333.65 248.06 330.91 247.94 330.67C248.37 323.74 248.65 318.45 249.13 313.19C249.17 312.73 250.62 312.01 251.36 312.07C265.21 313.32 279.05 314.68 292.89 316.03C293.44 316.08 293.97 316.32 294.51 316.47C294.29 316.96 294.14 317.5 293.83 317.92C289.26 324.2 288.4 330.89 291.36 338.11V338.1ZM292.2 275.35C292.35 275.64 291.63 276.85 291.35 276.84C278.64 276.27 265.93 275.64 253.23 274.91C252.59 274.87 251.53 273.98 251.48 273.41C250.94 267.73 250.34 262.03 250.32 256.33C250.32 255.1 252.35 253.15 253.76 252.79C256.11 252.2 258.71 252.63 261.21 252.63C261.21 252.74 261.21 252.86 261.21 252.97C271.29 252.97 281.37 252.97 291.46 252.99C292.11 252.99 292.76 253.24 293.4 253.38C293.17 253.97 293.01 254.61 292.69 255.15C288.77 261.8 288.62 268.51 292.2 275.35ZM250.95 284.24C251.03 283.54 252.51 282.43 253.3 282.47C266.17 283.05 279.03 283.77 291.9 284.49C292.6 284.53 293.29 284.77 293.98 284.92C293.7 285.5 293.49 286.13 293.14 286.67C288.98 293.09 288.53 299.74 291.74 306.7C291.89 307.03 291.04 308.32 290.73 308.29C277.59 307.11 264.46 305.87 251.34 304.49C250.49 304.4 249.77 303.13 249.42 302.81C249.95 295.93 250.33 290.07 250.96 284.24H250.95ZM240.33 287.98C231.88 287.73 223.44 287.18 215.01 286.57C214.4 286.53 213.36 285.29 213.39 284.65C213.92 274.18 214.58 263.72 215.29 253.27C215.31 252.92 216.16 252.35 216.63 252.34C220.58 252.26 224.53 252.3 228.48 252.3C243.06 252.34 243.13 252.33 243.73 269.29C243.92 274.57 243.73 279.89 243.31 285.16C243.23 286.22 241.34 288.01 240.33 287.98ZM242.07 297.41C241.5 310.22 241.06 320.74 240.51 331.26C240.49 331.7 239.48 332.51 239.01 332.45C230.21 331.33 221.41 330.13 212.64 328.83C212.05 328.74 211.13 327.65 211.16 327.08C211.8 316.99 212.51 306.91 213.39 296.84C213.46 296.07 214.9 294.8 215.69 294.81C223.21 294.97 230.73 295.24 238.24 295.76C239.85 295.87 241.39 297.09 242.07 297.4V297.41ZM205.84 283.66C205.82 283.96 204.98 284.49 204.57 284.44C195.15 283.42 185.73 282.34 176.32 281.2C175.83 281.14 175.06 280.43 175.03 279.98C174.52 271.36 173.81 262.72 174.01 254.11C174.04 252.86 178.54 251.72 180.97 250.53C181.14 251.03 181.3 251.52 181.47 252.02C189.47 252.02 197.47 251.96 205.46 252.12C206.3 252.14 207.85 253.51 207.82 254.19C207.31 264.02 206.59 273.84 205.85 283.66H205.84ZM206.44 300.39C205.46 309.6 204.72 317.39 203.69 325.14C203.58 325.95 201.74 327.22 200.84 327.12C193.05 326.23 185.21 325.47 177.59 323.75C175.45 323.27 172.5 319.74 172.5 317.61C172.48 308.64 173.4 299.67 174.13 290.71C174.18 290.03 175.54 288.86 176.19 288.93C185.31 289.88 194.51 290.56 203.44 292.49C205.13 292.85 205.71 298.32 206.44 300.39ZM161.52 270.17C140.96 268.59 120.35 267.73 99.7598 266.58C99.3198 266.56 98.4898 266.34 98.4998 266.25C98.7198 261.4 98.8398 256.53 99.4998 251.74C99.5898 251.11 102.52 250.86 104.13 250.44C104.16 250.85 104.19 251.26 104.22 251.67C124.28 251.67 144.34 251.66 164.4 251.74C164.97 251.74 165.95 252.65 166.04 253.25C166.57 256.69 166.67 260.2 167.33 263.6C168.29 268.54 167.61 270.64 161.51 270.17H161.52ZM105.61 274.29C125.54 275.86 145.54 276.57 165.51 277.73C166.16 277.77 167.27 278.98 167.26 279.64C167.18 284.62 166.96 289.61 166.56 294.58C166.51 295.18 165.07 296.19 164.36 296.12C142.74 294.13 121.13 292.13 99.5698 289.64C98.4998 289.52 97.9597 284.91 97.1697 282.4C96.2797 275.43 98.7197 273.76 105.62 274.3L105.61 274.29ZM165 321.29C165 321.56 163.94 322.1 163.44 322.03C142.46 319.17 121.48 316.26 100.52 313.26C99.8598 313.17 98.9498 312.01 98.8698 311.28C98.6298 309.02 99.2798 306.55 98.6198 304.46C96.5697 297.97 98.8697 297.06 104.99 297.77C124.53 300.03 144.13 301.66 163.71 303.61C164.57 303.7 165.36 304.55 165.06 304.38C165.06 310.95 165.08 316.12 164.99 321.29H165ZM294.67 381.2C293.21 387.02 291.67 392.83 290.08 398.62C289.95 399.1 289.08 399.86 288.82 399.77C244.1 383.63 198.07 373.21 150.76 368.81C133.81 367.23 116.74 366.97 99.7297 365.95C99.0097 365.91 97.7798 364.32 97.8098 363.48C97.9898 357.68 98.4198 351.89 98.8398 346.11C98.8898 345.38 99.2898 344.67 99.5098 344.02C118.94 347.54 137.81 350.97 156.67 354.39C202.48 362.7 248.28 371 294.07 379.39C294.39 379.45 294.82 380.67 294.68 381.23L294.67 381.2ZM293.9 349.99C289.44 355.96 288.45 362.42 291.04 369.43C291.21 369.89 291.22 370.4 291.31 370.89C290.81 370.89 290.3 370.96 289.81 370.88C226.93 359.5 164.05 348.13 101.19 336.63C100.26 336.46 98.9698 334.92 98.8998 333.94C98.6398 330.11 98.7598 326.25 98.8398 322.4C98.8498 321.77 99.4198 321.16 99.6498 320.7C135.54 325.68 170.83 330.57 206.12 335.47C235.03 339.48 263.95 343.49 292.86 347.51C293.61 347.61 294.35 347.88 295.09 348.07C294.7 348.71 294.35 349.38 293.9 349.98V349.99ZM309.19 318.14C316.21 318.14 321.75 323.3 321.81 329.89C321.87 336.52 316.28 341.79 309.19 341.79C301.99 341.79 297.15 337.04 297.15 329.96C297.15 322.89 302 318.13 309.19 318.13V318.14ZM321.8 362.38C321.63 368.91 315.87 374.2 309.04 374.11C301.96 374.01 297 368.97 297.15 362.02C297.31 354.72 302.26 350.12 309.79 350.29C316.44 350.44 321.97 356 321.8 362.38ZM309.11 406.33C302.12 406.3 297.1 401.25 297.14 394.28C297.18 387.25 302.15 382.39 309.25 382.44C316.18 382.48 321.8 387.82 321.8 394.35C321.8 400.89 316.01 406.36 309.11 406.33ZM316.13 223.95C315.41 223.99 314.4 223.28 313.93 222.63C300.17 203.83 286.46 184.99 272.76 166.15C272.44 165.71 272.29 165.16 272.07 164.66C272.6 164.54 273.12 164.37 273.66 164.31C276.49 163.98 279.45 164.07 282.09 163.18C283.41 162.74 284.73 160.58 284.88 159.08C284.96 158.2 282.64 156.14 281.58 156.25C277.01 156.74 272.5 157.87 267.96 158.68C267.6 158.74 266.99 158.22 266.7 157.83C263.73 153.82 260.8 149.78 257.87 145.73C257.55 145.29 257.38 144.74 257.14 144.24C257.71 144.07 258.27 143.79 258.85 143.75C265.79 143.21 272.76 142.91 279.65 142.02C281.05 141.84 282.17 139.43 283.41 138.05C282.05 136.98 280.66 134.96 279.33 135C270.56 135.24 261.81 135.97 253.04 136.37C252.03 136.42 250.62 135.67 250 134.84C241.44 123.26 232.97 111.6 224.55 99.92C224.34 99.62 224.92 98.21 225.2 98.19C232.91 97.58 240.66 97.3 248.34 96.41C249.99 96.22 251.39 93.91 252.91 92.58C251.37 91.39 249.8 89.16 248.28 89.19C238.57 89.38 228.88 90.1 219.18 90.55C218.42 90.58 217.35 90.07 216.89 89.45C211.19 81.76 205.58 74.02 199.96 66.27C199.64 65.83 199.49 65.27 199.26 64.77C199.79 64.67 200.34 64.44 200.86 64.48C234.69 66.92 268.52 69.38 302.35 71.84C327.16 73.64 351.98 75.44 376.79 77.28C377.4 77.33 378.53 78.09 378.48 78.29C374.71 93.86 386.26 101.83 394.78 111.28C402.4 119.74 409.93 128.3 417.78 136.54C419.37 138.21 422.22 139.49 424.52 139.53C439.03 139.8 453.54 139.8 468.05 139.49C469.53 139.46 472.13 136.81 472.21 135.28C472.63 127.19 472.41 119.06 472.41 110.95C472.42 102.63 472.41 94.31 472.44 85.99C472.44 85.46 472.72 84.93 472.87 84.41C473.26 84.63 473.72 84.78 474.03 85.08C493.69 103.95 513.33 122.83 532.92 141.77C533.1 141.95 532.6 143.39 532.3 143.44C526.3 144.3 520.25 144.82 514.3 145.94C512.71 146.24 511.44 148.28 510.02 149.52C511.43 150.74 512.99 153.13 514.24 152.98C522.39 152.01 530.46 150.46 538.58 149.2C539.44 149.07 540.69 149.26 541.28 149.81C546.41 154.6 551.44 159.5 556.41 164.46C556.63 164.68 556.01 166.42 555.58 166.51C542.9 169.24 530.16 171.71 517.52 174.65C515.68 175.08 514.34 177.65 512.76 179.24C514.52 180.12 516.49 182.01 518.02 181.71C532.06 178.96 546.02 175.74 560.05 172.92C562.02 172.52 564.96 172.85 566.3 174.09C577.72 184.71 588.88 195.62 600.1 206.45C600.64 206.97 601.07 207.62 601.55 208.21C600.77 208.39 600 208.7 599.22 208.74C577.22 209.94 555.23 211.1 533.23 212.29C489.76 214.64 446.29 217.01 402.82 219.37C373.92 220.93 345.03 222.49 316.13 223.98V223.95ZM324.68 310.28C330.55 302.09 330.74 294.66 325.37 286.09C325.21 285.83 325.88 284.59 326.21 284.57C355.56 282.97 384.9 281.41 414.26 280.11C414.91 280.08 415.7 283.05 416.42 284.62C415.99 284.72 415.55 284.81 415.12 284.91C415.12 290.51 415.17 296.12 415.04 301.72C415.03 302.3 413.95 303.29 413.3 303.35C384 306.17 354.7 308.91 325.39 311.64C325 311.68 324.6 311.55 324.2 311.49C324.36 311.08 324.43 310.62 324.68 310.28ZM325.95 349.05C354.81 345.49 383.67 341.99 412.54 338.57C412.98 338.52 413.99 339.54 413.98 340.04C413.88 346.84 413.75 353.65 413.33 360.44C413.28 361.28 411.65 362.6 410.62 362.74C382.69 366.57 354.74 370.28 326.16 374.09C326.12 373.55 325.89 373 326.08 372.69C330.6 365.08 330.15 357.69 325.29 350.41C325.14 350.18 325.65 349.1 325.94 349.06L325.95 349.05Z" fill="#8ECCDC"/>
<path d="M484.171 317.93C481.371 322.6 478.451 325.31 478.871 327.33C479.421 329.96 482.611 332.05 484.661 334.37C487.101 331.85 490.561 329.67 491.531 326.68C492.011 325.19 487.921 322.21 484.171 317.94V317.93Z" fill="#8ECCDC"/>
</g>
</svg>
