<svg width="552" height="601" viewBox="0 0 552 601" fill="none" xmlns="http://www.w3.org/2000/svg">
<path opacity="0.2" d="M417.86 364.39C445.25 351.52 451.01 350.65 470.81 374.72C504.44 415.6 535.36 458.7 567.4 500.89C568.26 502.02 568.52 503.65 569.46 504.69C579.28 515.51 591.31 524.21 589.51 542.44C588.95 548.14 598.58 555.98 605 560.99C614.49 568.39 615.97 576.1 607.45 585.08C594.91 598.3 558.32 605.29 541.93 597.19C538.69 595.59 535.82 592.47 533.72 589.41C495.53 533.78 457.5 478.04 419.37 422.36C414.74 415.6 408.77 409.58 405.21 402.33C402.51 396.84 402.94 389.89 401.48 383.71C400.19 378.23 399.56 371.68 396.1 367.96C393.93 365.63 386.34 366.1 382.44 367.96C333.66 391.18 284.08 392.39 233.33 375.22C152.28 347.81 114.45 243.95 158.15 168.08C196.79 100.99 279 67.7601 353.67 88.2201C421.76 106.89 481.79 186.51 450.02 275.17C441.71 298.36 427.57 319.65 414.7 340.96C407.34 353.16 406.15 353.06 417.87 364.39H417.86ZM296.78 101.18C248.78 104.69 200.29 128.53 167.25 180.35C126.26 244.64 161.44 335.1 225.08 359.01C242.51 365.56 261.02 371 279.44 372.85C377.08 382.67 448.24 315.65 438.82 208.61C433.6 149.33 371.82 101.08 296.78 101.18ZM503.03 518.93C514.45 509.1 526.02 499.39 537.2 489.24C538.77 487.81 539.45 483.94 538.78 481.74C533.78 465.47 520.93 462.76 509.4 475.29C507.12 477.77 504.99 480.38 502.64 482.78C486.8 498.99 486.8 501.63 503.04 518.93H503.03ZM494.57 426.46C485.46 418.41 478.14 407.06 471.83 407.6C463.58 408.3 453.2 416.97 449.32 424.93C446.66 430.38 453.53 440.47 456.59 449.87C470.08 441.56 480.5 435.13 494.57 426.47V426.46ZM538.47 569.64C552.19 564.8 565.88 559.96 582.76 554C577.35 546.7 574.08 537.83 568.05 535.12C556.55 529.97 534.93 555.99 538.47 569.64ZM513.92 449.71C507.92 445.66 499.89 438.11 498.09 439.38C488.64 446.07 479.78 454.26 472.93 463.56C470.85 466.38 475.81 474.39 478.09 481.77C491 470.22 501.15 461.13 513.92 449.71ZM461.8 390.42C453.55 384.48 446.77 375.83 439.82 375.69C433.33 375.56 426.65 384.46 419.06 390.13C424.85 397.29 430.09 403.77 435.69 410.69C443.08 405.67 449.05 401.76 454.84 397.61C456.71 396.27 458.11 394.28 461.79 390.42H461.8ZM559.06 515.14C552.82 499 550.4 497.91 540.09 506.92C532.55 513.5 525.05 520.52 519.33 528.61C516.64 532.41 518.18 539.21 517.81 544.65C519.49 545.12 521.18 545.59 522.86 546.06C528.66 528.12 541.85 518.77 559.07 515.15L559.06 515.14Z" fill="#FFB9DD"/>
<path opacity="0.2" d="M71.2496 403.7C69.9896 399.24 66.8196 394.39 68.1196 391.63C78.4496 369.61 95.0795 353.37 116.91 342.73C119.24 341.59 123.61 342.73 125.98 344.36C127.19 345.19 127.2 350.49 125.83 351.97C110.83 368.1 95.4996 383.93 80.0796 399.67C78.5296 401.26 75.7996 401.69 71.2596 403.7H71.2496Z" fill="#FFB9DD"/>
<path opacity="0.2" d="M83.9697 238.681C58.2497 259.081 30.8497 267.981 0.929688 274.821C4.74969 254.161 61.7797 229.101 83.9697 238.681Z" fill="#FFB9DD"/>
<path opacity="0.2" d="M446.23 104.2C446.23 83.3902 482.52 52.9102 512.11 47.4902C496.44 74.5902 477.88 95.3002 446.23 104.2Z" fill="#FFB9DD"/>
<path opacity="0.2" d="M348.281 475.399C328.691 463.339 324.611 429.129 338.861 415.969C345.821 409.549 350.621 413.149 352.851 420.049C358.831 438.529 356.021 456.369 348.291 475.399H348.281Z" fill="#FFB9DD"/>
<path opacity="0.2" d="M18.4702 110.91C24.0702 110.15 30.8303 107.01 35.0703 109.07C50.5403 116.55 65.5503 125.19 79.8203 134.76C83.0703 136.94 82.6303 144.61 83.8903 149.76C79.1203 148.89 73.6702 149.2 69.6902 146.94C52.3102 137.09 35.3502 126.49 18.2402 116.16C18.3102 114.41 18.3903 112.66 18.4603 110.92L18.4702 110.91Z" fill="#FFB9DD"/>
<path opacity="0.2" d="M181.53 466.329C178.05 451.839 191.75 420.489 204.39 416.149C206.94 415.279 213.63 418.909 214.35 421.569C217.96 434.829 196.12 463.809 181.53 466.329Z" fill="#FFB9DD"/>
<path opacity="0.2" d="M175.73 98.2705C166.8 94.8405 158.59 94.1305 154.84 89.6705C148.95 82.6705 144.98 73.4605 142.42 64.5405C141.22 60.3705 145.23 54.7105 146.88 49.7305C151.79 52.7605 158.94 54.6705 161.16 59.0605C166.65 69.9105 169.87 81.9105 175.73 98.2705Z" fill="#FFB9DD"/>
<path opacity="0.2" d="M271.83 56.6004C256.94 42.6904 251.24 26.4304 250.02 8.6004C249.52 1.2504 254.08 -1.98959 261.2 3.15041C271.76 10.7904 279.03 42.0304 271.83 56.5904V56.6004Z" fill="#FFB9DD"/>
<path opacity="0.2" d="M510.561 295.32C524.921 281.65 549.69 285.599 565.34 304.059C549.32 310.329 519.351 305.55 510.561 295.32Z" fill="#FFB9DD"/>
<path opacity="0.2" d="M565.72 195.75C549.75 197.27 533.51 209.51 517.82 194.53C533.8 187.32 549.76 189.72 565.72 195.75Z" fill="#FFB9DD"/>
<path opacity="0.2" d="M371.461 50.3198C372.951 39.8498 373.981 29.2698 376.281 18.9798C376.821 16.5798 381.651 15.1398 384.511 13.2598C385.911 16.0698 388.991 19.2698 388.431 21.6198C385.991 31.8698 382.511 41.8698 379.401 51.9598C376.751 51.4198 374.111 50.8698 371.461 50.3298V50.3198Z" fill="#FFB9DD"/>
<path opacity="0.2" d="M350.459 114.65C351.679 121.62 351.899 129 354.479 135.42C356.049 139.34 360.789 143.43 364.909 144.58C372.349 146.66 380.389 146.61 386.749 147.29C385.899 159.07 385.219 168.23 384.599 177.39C383.089 199.64 373.609 218.34 357.909 233.6C320.699 269.74 275.419 285.89 224.019 285.04C220.479 284.98 213.739 278.18 214.109 275.24C216.049 260.02 215.129 248.31 195.469 248.72C194.619 248.74 193.729 246.6 190.609 242.56C197.199 240.6 202.519 237.55 207.719 237.76C222.499 238.36 220.599 225.93 224.269 218.01C228.339 209.22 221.159 206.68 215.609 202.66C211.749 199.86 209.339 195.06 206.279 191.15C211.459 192.02 216.749 192.5 221.779 193.91C224.839 194.77 227.499 197.07 232.759 200.14C235.929 196.01 238.429 190.86 242.499 187.84C252.539 180.37 254.779 172.87 246.749 162.32C244.729 159.66 246.269 154.28 246.179 150.15C249.669 151.54 254.469 151.95 256.399 154.51C261.549 161.36 265.329 168.64 275.769 162.06C284.899 156.3 295.259 151.84 287.219 137.96C285.929 135.74 286.439 132.48 289.089 126.38C293.219 129.92 298.519 132.75 301.239 137.16C306.399 145.52 333.769 149.53 339.669 141.56C341.249 139.42 340.089 135.35 340.469 132.2C341.179 126.25 342.079 120.31 342.899 114.37C345.429 114.47 347.949 114.57 350.479 114.66L350.459 114.65ZM335.469 231.17C354.809 218.31 367.939 200.09 370.599 174.87C371.489 166.41 368.969 161.36 360.029 159.34C336.919 154.14 315.829 159.87 296.399 168.06C309.469 189.18 321.939 209.31 335.459 231.16L335.469 231.17ZM255.159 193.7C249.789 199.96 243.489 204.56 241.009 210.71C234.549 226.69 229.909 243.4 224.269 259.72C220.359 271.03 226.129 274.44 235.589 272.61C254.279 268.99 272.769 264.28 290.909 260.12C278.409 236.89 267.359 216.36 255.159 193.7Z" fill="#FFB9DD"/>
</svg>
