<svg width="655" height="601" viewBox="0 0 655 601" fill="none" xmlns="http://www.w3.org/2000/svg">
<g opacity="0.2">
<path d="M676.84 312.73C674.96 307.07 670.77 303.53 665.11 301.56C659.84 299.73 654.58 297.83 649.48 295.59C647.2 294.59 645.08 292.91 643.33 291.12C639.49 287.17 636.15 282.73 632.21 278.9C622.84 269.8 611.36 267.53 598.82 269.44C589.43 270.87 580.73 274.32 572.33 278.63C570.7 279.47 568.86 280.04 567.06 280.35C549.74 283.3 533.57 289.26 519 299.15C499.21 312.58 486.1 330.27 483.34 354.82C481.61 370.18 486.81 381.9 499.73 390.2C506.86 394.77 514.76 397.12 523.22 397.42C525.41 397.5 526.81 398.39 527.49 400.32C528.09 402 528.7 403.75 528.84 405.51C529.75 416.22 535.08 425.09 540.97 433.51C547.8 443.28 558.05 446.55 571.8 446.65C574.05 446.31 578.58 446.01 582.89 444.89C605.95 438.94 624.64 426.36 638.84 407.24C643.68 400.72 646.94 393.44 647.98 385.28C648.52 381.03 649.62 379.81 653.76 378.86C654.23 378.75 654.71 378.69 655.18 378.56C666.39 375.49 673.3 367.8 677.39 357.36C683.23 342.45 681.74 327.51 676.84 312.72V312.73ZM668.3 350.52C665.98 357.83 661.84 363.78 654.84 367.4C649.8 370.01 646.34 369.59 642.27 365.57C639.97 363.29 638.12 360.54 635.76 358.33C633.42 356.14 630.84 354.12 628.09 352.48C625.54 350.96 622.83 351.67 620.55 353.49C618.25 355.34 617.09 357.73 617.58 360.77C618.47 366.32 621.43 370.5 626.17 373.36C629.06 375.1 632.13 376.55 635.16 378.03C638.54 379.69 639.76 381.84 639.01 385.57C637.71 392.02 634.4 397.51 630.49 402.67C623.88 411.37 615.48 418.04 605.83 422.89C596.91 427.37 587.75 431.53 578.36 434.91C564.81 439.79 550.55 433.88 543.17 421.16C539.95 415.6 538.35 409.61 538.27 403.17C538.24 400.38 539.27 398.21 541.47 396.56C543.24 395.23 545.08 393.99 546.76 392.56C550.54 389.35 550.65 382.43 547.03 379.02C545.49 377.56 543.61 377.26 541.62 377.65C538.84 378.2 536.25 379.33 534.54 381.63C531.1 386.24 526.59 386.94 521.41 385.71C517.45 384.77 513.45 383.97 509.54 382.85C501.63 380.6 497.78 374.82 496.49 367.07C494.12 352.76 497.61 339.74 505.64 327.91C516.03 312.61 530.48 302.17 546.95 294.27C547.19 294.15 547.47 294.13 548.18 293.94C546.53 300.14 544.63 305.97 544.76 312.35C547.43 312.08 548.22 310.11 549.07 308.4C551.43 303.63 554.9 299.83 559.23 296.84C561.78 295.08 564.45 293.41 567.26 292.15C574.44 288.95 581.64 285.79 589 283.03C597.41 279.87 606.13 278.73 615.06 280.76C621.69 282.26 626.93 285.88 630.85 291.39C631.41 292.18 631.69 293.19 632.23 294.41C630.91 294.63 629.98 294.76 629.06 294.94C627.78 295.2 626.45 295.34 625.25 295.81C621.59 297.23 620.02 300.39 621.49 304C624.48 311.34 630.13 315.64 637.79 317.32C639.92 317.78 641.74 316.84 643.18 315.29C644.64 313.72 646.01 312.07 647.44 310.47C649.34 308.34 651.59 307.33 654.48 308.2C655.8 308.6 657.18 308.79 658.51 309.16C664.52 310.79 668.23 314.33 669.33 320.79C671.04 330.81 671.44 340.73 668.32 350.52H668.3Z" fill="#8ECCDC"/>
<path d="M364.671 313.04C362.711 310.72 361.241 310.9 359.921 313.66C358.921 315.75 358.1 318.02 357.69 320.29C356.11 328.96 354.741 337.66 353.271 346.34C352.441 351.22 350.871 355.77 347.061 359.18C344.761 361.23 343.251 361.19 341.331 358.77C340.041 357.15 338.761 355.29 338.261 353.34C335.991 344.44 333.941 335.47 331.961 326.5C331.511 324.45 331.091 322.43 328.711 322.36C326.501 322.3 326.101 324.41 325.601 326.13C325.561 326.28 325.551 326.45 325.531 326.61C324.411 336.4 325.691 345.97 328.381 355.37C329.751 360.17 331.871 364.61 335.651 368.04C339.011 371.09 342.921 372.08 347.341 370.93C352.891 369.48 356.841 365.82 360.091 361.38C367.041 351.9 369.811 341.09 369.781 329.46C369.781 328.16 369.791 326.87 369.781 325.57C369.721 320.72 367.701 316.63 364.661 313.04H364.671Z" fill="#8ECCDC"/>
<path d="M91.0699 172.981C92.7799 170.831 94.4199 168.621 96.0099 166.401C94.6699 170.901 93.3199 175.391 91.9799 179.891C88.3999 191.841 82.5399 205.351 86.0099 218.051C88.9499 228.801 100.83 233.731 109.93 226.461C120.71 217.841 122.92 200.251 125.5 187.681C127.81 176.431 129.4 165.051 130.35 153.611C134 162.971 138.46 172.011 143.7 180.581C148.38 188.231 153.68 195.521 159.48 202.361C164.94 208.801 170.86 216.301 179.6 218.031C194.67 221.021 202.85 206.861 203.98 193.811C205.26 179.041 198.92 163.171 190.33 151.441C186.1 145.681 181.11 140.531 175.54 136.171C181.75 136.971 187.98 137.611 194.2 138.101C202.77 138.771 211.38 139.131 219.98 138.871C226.56 138.671 235.15 138.971 241.03 135.581C252.93 128.711 250.24 112.231 238.61 107.051C225.84 101.351 211.78 98.4007 197.85 97.0607C199.54 96.5707 201.22 96.0807 202.91 95.5907C215.64 91.9007 233.8 88.5707 240.09 75.0407C242.56 69.7307 241.74 63.4907 237.95 59.0107C234.09 54.4607 228.07 52.8607 222.31 52.6407C215.11 52.3607 207.82 54.3307 200.95 56.2707C193.34 58.4207 185.92 61.1707 178.7 64.3807C176.08 65.5507 173.5 66.7907 170.96 68.1007C174.2 64.7407 177.43 61.3907 180.67 58.0307C191.05 47.2607 206.52 35.1207 207.95 18.9907C208.51 12.6307 205.79 6.57067 200.27 3.19067C194.55 -0.31933 187.81 0.690665 182.06 3.56066C175.55 6.82066 170.25 12.3207 166 18.1307C160.6 25.5007 155.69 33.2907 150.95 41.0907C147.08 47.4707 143.4 53.9507 139.9 60.5307C140.3 57.2707 140.63 54.0007 140.85 50.7207C141.41 42.5407 141.41 34.3307 140.85 26.1507C140.58 22.1607 140.16 18.1907 139.64 14.2207C139.19 10.8607 139.05 7.32067 137.04 4.46067C134.17 0.360666 128.32 -1.15933 123.82 1.07067C118.64 3.64067 115.24 10.6607 112.55 15.5107C107.5 24.6207 104.03 34.5107 102.13 44.7207C97.0899 32.9107 90.5399 19.7807 79.4299 13.4707C66.9699 6.39067 55.1899 14.8507 54.2899 28.2907C53.4099 41.4207 58.8599 55.8107 64.9899 67.1707C70.2999 77.0107 77.3399 85.7707 85.6799 93.1207C72.3099 92.9607 58.9599 94.0007 45.7399 96.2107C37.0699 97.6607 28.2999 99.4907 19.9199 102.201C14.2099 104.051 8.28989 106.831 4.24989 111.391C-4.31011 121.031 1.06991 133.441 12.4499 137.151C24.7299 141.151 39.6299 137.521 51.7799 134.701C62.0699 132.321 71.9999 128.761 81.8799 125.041C73.3999 134.931 64.9199 144.831 56.4399 154.721C50.5899 161.551 44.3799 168.201 38.9099 175.331C35.0799 180.321 31.4899 186.471 31.5199 192.971C31.5399 198.991 35.4899 204.641 41.3299 206.381C47.3799 208.181 53.9299 205.931 59.1999 202.921C71.5399 195.861 82.3399 184.001 91.0999 172.991L91.0699 172.981ZM117.25 185.391C115.88 192.081 110.97 226.541 98.0499 221.031C93.3299 219.021 93.3999 211.691 93.6599 207.501C94.1199 200.091 97.0299 192.851 99.1399 185.791C104.76 166.981 110.39 148.181 116.01 129.371C116.05 129.251 116.07 129.141 116.1 129.031C118.03 129.091 119.95 128.851 121.8 128.341C122.13 128.481 122.46 128.611 122.81 128.711C122.86 147.751 121.09 166.731 117.26 185.391H117.25ZM107.25 110.821C107.45 116.141 110.82 119.831 114.97 121.431C115.32 122.111 115.71 122.771 116.15 123.411C114.1 123.331 112.09 122.761 110.31 121.551C106.13 118.731 105.77 114.661 107.26 110.821H107.25ZM122.3 122.181C122.3 122.181 122.23 122.111 122.19 122.081C122.4 122.041 122.62 122.001 122.83 121.941C122.66 122.021 122.48 122.101 122.3 122.181ZM120.45 111.121C120.26 112.001 120.01 112.691 119.7 113.201C119.36 112.961 119.05 112.671 118.76 112.351C118.8 111.981 118.85 111.631 118.93 111.311C119.48 109.201 121.01 107.461 123.26 107.281C123.75 107.241 124.18 107.301 124.56 107.411C124.67 107.661 124.76 107.921 124.83 108.191C122.8 106.841 119.36 108.331 120.44 111.121H120.45ZM210.77 62.5807C215.83 61.4307 221.3 60.4207 226.43 61.7507C231.29 63.0107 234.67 67.2807 231.95 72.1607C229.31 76.8907 223.42 79.9507 218.58 81.9007C211.66 84.6907 204.16 86.3107 197 88.3907C186.89 91.3207 176.78 94.2507 166.67 97.1907C158.19 98.3107 149.91 100.531 142.34 104.381C138 106.591 141.02 113.541 145.64 112.201C153.22 110.001 160.8 107.801 168.38 105.611C173.61 104.981 178.9 104.791 184.05 104.841C197.77 104.971 211.57 106.961 224.7 110.981C229.16 112.351 237.07 113.881 239.5 118.321C241.82 122.561 239.29 127.651 234.83 128.921C228.96 130.601 221.95 130.341 215.9 130.391C208.66 130.451 201.42 130.111 194.21 129.541C178.52 128.311 162.87 126.041 147.5 122.651C142.14 121.471 139.85 129.671 145.22 130.901C170.9 136.771 191.81 159.131 195.21 185.441C196.35 194.271 194.09 212.461 181.13 209.631C173.96 208.071 168.44 199.851 164.02 194.501C159.11 188.541 154.67 182.191 150.68 175.591C141.66 160.671 135.17 144.471 131.21 127.501C131.17 127.321 131.1 127.161 131.04 126.991C134.9 123.641 136.26 117.081 137.05 112.521C137.64 109.101 137.61 105.341 136.51 102.041C137.48 102.041 138.48 101.681 139.39 100.821C159.32 82.0107 184.03 68.6907 210.78 62.5907L210.77 62.5807ZM151.35 57.3307C155.16 50.5507 159.16 43.8807 163.35 37.3307C167.33 31.1207 171.24 24.4407 176.23 18.9707C180.02 14.8107 185.38 9.83066 191.32 9.45066C197.94 9.02066 200.4 15.3307 198.96 20.8507C197.4 26.8707 193.42 32.2907 189.24 36.7807C183.81 42.6007 178.19 48.2507 172.67 53.9707C159.56 67.5707 146.44 81.1707 133.33 94.7607C132.92 95.1807 132.63 95.6307 132.43 96.0807C132.39 96.0507 132.34 96.0107 132.3 95.9707C137.95 82.7607 144.32 69.8507 151.35 57.3207V57.3307ZM123.72 13.6107C124.72 12.1107 127.13 7.07066 129.66 8.95066C131.9 10.6207 131.49 17.2807 131.78 20.0007C132.68 28.7307 132.94 37.5407 132.55 46.3107C131.84 62.3307 128.87 78.1007 123.91 93.3307C121.24 93.3307 118.51 93.9207 115.98 94.9007C114.65 83.9307 112.36 73.1407 109 62.6507C108.99 45.3507 114.11 28.0107 123.73 13.6007L123.72 13.6107ZM66.6499 186.381C61.4299 191.031 55.5399 196.651 48.4799 198.151C45.0199 198.881 41.1699 198.231 40.1899 194.251C39.4199 191.151 41.2599 187.461 42.7299 184.881C47.3299 176.811 54.6099 169.941 60.6299 162.921C73.3999 148.031 86.1599 133.141 98.9299 118.241C101.45 115.301 99.1299 109.501 94.7699 111.091C80.6599 116.231 66.7199 122.151 52.1199 125.801C44.3099 127.751 36.2399 129.281 28.2199 129.981C22.8099 130.461 15.4399 130.631 10.9599 126.971C4.87992 122.001 11.0899 115.751 15.9399 113.071C23.4099 108.951 32.6499 107.411 40.9199 105.741C60.0299 101.881 79.5799 100.811 99.0099 102.191C103.5 102.511 104.47 96.3807 101.17 94.2207C88.8799 86.2007 78.8999 75.1507 72.0399 62.1807C68.6199 55.7307 66.0699 48.8607 64.3999 41.7507C63.0699 36.0607 61.0499 27.6207 64.5799 22.2907C69.3699 15.0607 78.0799 22.2507 81.8799 26.5807C87.1999 32.6407 90.8299 40.6207 94.1699 47.8707C96.5599 53.0707 98.6599 58.4107 100.46 63.8607C100.65 76.1507 103.31 88.2707 108.24 99.6107C100.23 107.111 97.6399 120.881 107.93 126.721C107.87 126.831 107.82 126.951 107.77 127.071C101.96 142.071 93.7899 156.241 83.5799 168.681C78.3999 175.001 72.7399 180.911 66.6399 186.351L66.6499 186.381Z" fill="#8ECCDC"/>
<path d="M306.31 424.03C301.48 405.34 299.02 386.29 297.3 367.1C296.43 357.44 295.36 347.8 293.99 338.2C293.21 332.72 289.68 330.95 284.41 332.61C282.48 333.22 281.35 334.38 281.36 336.45C281.44 346.64 280.98 356.86 281.73 367C283.24 387.29 287.73 407.08 293.34 426.61C294.61 431.03 292.84 433.93 288.24 434.73C286.67 435 284.99 435.14 283.42 434.92C277.67 434.09 271.93 433.2 266.22 432.1C259.83 430.87 253.51 430.28 247.55 433.57C246.02 434.41 243.93 435.89 243.85 437.19C243.77 438.47 245.64 440.38 247.11 441.18C255.53 445.8 264.69 447.89 273.46 448.61C282.21 447.88 290.22 447.31 297.7 444.11C305.44 440.79 308.2 435.88 307.09 427.57C306.93 426.37 306.61 425.2 306.31 424.02V424.03Z" fill="#8ECCDC"/>
<path d="M281.07 486.301C270.53 494.941 257.76 504.221 243.4 499.711C227.96 494.871 220.58 478.751 214.83 465.011C210.78 455.341 198.68 459.411 202.81 469.251C210.38 487.341 219.91 506.301 238.96 514.441C257.81 522.501 275.25 512.491 289.73 500.621C296.01 495.471 288.09 480.541 281.08 486.291L281.07 486.301Z" fill="#8ECCDC"/>
<path d="M451.319 292.02C451.249 281.01 449.989 270.07 447.759 259.26C442.149 232.13 431.529 207.04 416.919 183.59C415.529 181.36 413.739 179.26 411.729 177.58C389.029 158.62 362.849 152.39 333.919 156.8C315.579 159.59 298.489 166.15 282.279 174.96C263.619 185.11 246.079 196.95 229.869 210.73C215.729 222.75 201.719 234.99 190.119 249.48C174.529 268.94 161.079 289.94 148.309 311.35C130.569 341.08 114.649 371.79 100.119 403.19C90.0992 424.84 79.9992 446.49 70.8492 468.52C71.1592 468.72 71.4692 468.94 71.7892 469.14C63.8392 483.02 56.7693 498.45 61.2093 514.72C61.7793 516.82 62.5593 518.76 63.4593 520.59C65.6693 527.78 73.0892 533.97 79.9392 537.14C89.9192 541.77 100.589 543.89 111.459 545.17C121.709 546.38 131.989 546.42 142.229 545.33C142.319 545.33 142.399 545.33 142.489 545.32C143.999 548.99 145.699 552.58 147.499 556.12C152.549 565.36 161.619 578.23 175.849 585.44C180.839 587.96 184.829 590.38 188.109 592.64C196.759 597.14 205.899 600.12 215.989 600.02C220.339 599.98 224.669 599.24 229.019 598.96C233.779 598.65 238.569 598.69 243.309 598.22C255.489 597.02 266.899 592.87 278.299 588.75C278.299 588.75 299.999 576.11 318.049 568.69C320.329 572.36 323.709 575.52 327.579 577.69C337.299 583.13 348.379 585.91 359.349 587.31C371.689 588.88 384.119 587.97 396.309 585.66C398.029 585.33 399.469 584.37 400.569 583.07C404.499 581.63 408.199 579.86 411.409 577.75C421.359 571.23 428.639 561.65 431.899 550.52C433.709 545.62 437.459 533.33 437.749 531.76C439.859 520.41 441.499 508.96 443.989 497.69C447.659 481.09 451.399 464.54 451.389 447.41C451.389 422.89 451.389 398.36 451.389 373.83C451.389 346.55 451.509 319.28 451.339 292L451.319 292.02ZM409.299 301.13C408.079 316.94 407.299 332.79 405.649 348.55C401.789 385.33 393.999 421.12 377.569 454.62C369.769 470.52 359.869 485.08 349.469 499.34C337.389 515.91 324.519 531.81 309.459 545.81C295.249 559.02 279.729 570.23 261.469 577.27C244.309 583.88 226.599 586.03 208.589 582.27C190.499 578.49 177.179 567.65 167.769 551.9C160.489 539.72 156.579 526.34 154.209 512.47C150.389 490.14 150.859 467.7 152.379 445.19C154.129 419.27 160.709 394.36 167.489 369.48C172.579 350.83 179.069 332.65 187.269 315.12C187.669 314.27 188.159 313.47 188.609 312.64C188.879 312.69 189.149 312.74 189.409 312.79C189.639 315.18 190.039 317.56 190.069 319.95C190.159 326.59 190.069 333.22 190.089 339.86C190.149 356.2 203.189 360.86 214.019 359.25C223.359 357.86 230.289 353.16 234.839 344.75C241.269 332.88 245.919 320.51 246.529 306.87C246.659 303.92 245.179 301.04 242.429 300.16C241.209 299.77 239.119 300.08 238.299 300.93C236.369 302.92 234.569 305.24 233.409 307.74C229.649 315.88 226.319 324.21 222.589 332.36C220.979 335.87 218.929 339.19 216.819 342.43C215.829 343.94 214.369 345.25 212.859 346.29C210.139 348.16 207.259 347.8 205.809 344.87C204.159 341.54 202.629 337.83 202.369 334.18C201.869 327.44 202.329 320.63 202.399 313.85C202.409 312.96 202.549 312.08 202.579 311.19C202.709 307.46 201.159 304.89 197.609 303.43C194.099 301.99 193.499 300.83 194.059 297.04C194.279 295.53 194.529 293.92 195.249 292.61C197.699 288.17 200.219 283.77 202.969 279.52C205.519 275.6 209.679 275.1 213.989 274.58C266.199 268.29 315.729 253.46 361.989 228.16C370.059 223.74 378.309 219.63 386.599 215.63C389.089 214.43 391.959 213.83 394.719 213.37C398.309 212.78 400.969 214.58 402.829 217.55C405.609 221.99 406.509 227.06 407.079 232.1C409.689 255.05 411.049 278.04 409.269 301.14L409.299 301.13Z" fill="#8ECCDC"/>
</g>
</svg>
