<svg width="655" height="601" viewBox="0 0 655 601" fill="none" xmlns="http://www.w3.org/2000/svg">
<g opacity="0.2">
<path d="M676.84 312.73C674.96 307.07 670.77 303.53 665.11 301.56C659.84 299.73 654.58 297.83 649.48 295.59C647.2 294.59 645.08 292.91 643.33 291.12C639.49 287.17 636.15 282.73 632.21 278.9C622.84 269.8 611.36 267.53 598.82 269.44C589.43 270.87 580.73 274.32 572.33 278.63C570.7 279.47 568.86 280.04 567.06 280.35C549.74 283.3 533.57 289.26 519 299.15C499.21 312.58 486.1 330.27 483.34 354.82C481.61 370.18 486.81 381.9 499.73 390.2C506.86 394.77 514.76 397.12 523.22 397.42C525.41 397.5 526.81 398.39 527.49 400.32C528.09 402 528.7 403.75 528.84 405.51C529.75 416.22 535.08 425.09 540.97 433.51C547.8 443.28 558.05 446.55 571.8 446.65C574.05 446.31 578.58 446.01 582.89 444.89C605.95 438.94 624.64 426.36 638.84 407.24C643.68 400.72 646.94 393.44 647.98 385.28C648.52 381.03 649.62 379.81 653.76 378.86C654.23 378.75 654.71 378.69 655.18 378.56C666.39 375.49 673.3 367.8 677.39 357.36C683.23 342.45 681.74 327.51 676.84 312.72V312.73ZM668.3 350.52C665.98 357.83 661.84 363.78 654.84 367.4C649.8 370.01 646.34 369.59 642.27 365.57C639.97 363.29 638.12 360.54 635.76 358.33C633.42 356.14 630.84 354.12 628.09 352.48C625.54 350.96 622.83 351.67 620.55 353.49C618.25 355.34 617.09 357.73 617.58 360.77C618.47 366.32 621.43 370.5 626.17 373.36C629.06 375.1 632.13 376.55 635.16 378.03C638.54 379.69 639.76 381.84 639.01 385.57C637.71 392.02 634.4 397.51 630.49 402.67C623.88 411.37 615.48 418.04 605.83 422.89C596.91 427.37 587.75 431.53 578.36 434.91C564.81 439.79 550.55 433.88 543.17 421.16C539.95 415.6 538.35 409.61 538.27 403.17C538.24 400.38 539.27 398.21 541.47 396.56C543.24 395.23 545.08 393.99 546.76 392.56C550.54 389.35 550.65 382.43 547.03 379.02C545.49 377.56 543.61 377.26 541.62 377.65C538.84 378.2 536.25 379.33 534.54 381.63C531.1 386.24 526.59 386.94 521.41 385.71C517.45 384.77 513.45 383.97 509.54 382.85C501.63 380.6 497.78 374.82 496.49 367.07C494.12 352.76 497.61 339.74 505.64 327.91C516.03 312.61 530.48 302.17 546.95 294.27C547.19 294.15 547.47 294.13 548.18 293.94C546.53 300.14 544.63 305.97 544.76 312.35C547.43 312.08 548.22 310.11 549.07 308.4C551.43 303.63 554.9 299.83 559.23 296.84C561.78 295.08 564.45 293.41 567.26 292.15C574.44 288.95 581.64 285.79 589 283.03C597.41 279.87 606.13 278.73 615.06 280.76C621.69 282.26 626.93 285.88 630.85 291.39C631.41 292.18 631.69 293.19 632.23 294.41C630.91 294.63 629.98 294.76 629.06 294.94C627.78 295.2 626.45 295.34 625.25 295.81C621.59 297.23 620.02 300.39 621.49 304C624.48 311.34 630.13 315.64 637.79 317.32C639.92 317.78 641.74 316.84 643.18 315.29C644.64 313.72 646.01 312.07 647.44 310.47C649.34 308.34 651.59 307.33 654.48 308.2C655.8 308.6 657.18 308.79 658.51 309.16C664.52 310.79 668.23 314.33 669.33 320.79C671.04 330.81 671.44 340.73 668.32 350.52H668.3Z" fill="#A4EDC6"/>
<path d="M364.671 313.04C362.711 310.72 361.241 310.9 359.921 313.66C358.921 315.75 358.1 318.02 357.69 320.29C356.11 328.96 354.741 337.66 353.271 346.34C352.441 351.22 350.871 355.77 347.061 359.18C344.761 361.23 343.251 361.19 341.331 358.77C340.041 357.15 338.761 355.29 338.261 353.34C335.991 344.44 333.941 335.47 331.961 326.5C331.511 324.45 331.091 322.43 328.711 322.36C326.501 322.3 326.101 324.41 325.601 326.13C325.561 326.28 325.551 326.45 325.531 326.61C324.411 336.4 325.691 345.97 328.381 355.37C329.751 360.17 331.871 364.61 335.651 368.04C339.011 371.09 342.921 372.08 347.341 370.93C352.891 369.48 356.841 365.82 360.091 361.38C367.041 351.9 369.811 341.09 369.781 329.46C369.781 328.16 369.791 326.87 369.781 325.57C369.721 320.72 367.701 316.63 364.661 313.04H364.671Z" fill="#A4EDC6"/>
<path d="M91.0699 172.98C92.7799 170.83 94.4199 168.62 96.0099 166.4C94.6699 170.9 93.3199 175.39 91.9799 179.89C88.3999 191.84 82.5399 205.35 86.0099 218.05C88.9499 228.8 100.83 233.73 109.93 226.46C120.71 217.84 122.92 200.25 125.5 187.68C127.81 176.43 129.4 165.05 130.35 153.61C134 162.97 138.46 172.01 143.7 180.58C148.38 188.23 153.68 195.52 159.48 202.36C164.94 208.8 170.86 216.3 179.6 218.03C194.67 221.02 202.85 206.86 203.98 193.81C205.26 179.04 198.92 163.17 190.33 151.44C186.1 145.68 181.11 140.53 175.54 136.17C181.75 136.97 187.98 137.61 194.2 138.1C202.77 138.77 211.38 139.13 219.98 138.87C226.56 138.67 235.15 138.97 241.03 135.58C252.93 128.71 250.24 112.23 238.61 107.05C225.84 101.35 211.78 98.3997 197.85 97.0597C199.54 96.5697 201.22 96.0797 202.91 95.5897C215.64 91.8997 233.8 88.5697 240.09 75.0397C242.56 69.7297 241.74 63.4897 237.95 59.0097C234.09 54.4597 228.07 52.8597 222.31 52.6397C215.11 52.3597 207.82 54.3297 200.95 56.2697C193.34 58.4197 185.92 61.1697 178.7 64.3797C176.08 65.5497 173.5 66.7897 170.96 68.0997C174.2 64.7397 177.43 61.3897 180.67 58.0297C191.05 47.2597 206.52 35.1197 207.95 18.9897C208.51 12.6297 205.79 6.56969 200.27 3.18969C194.55 -0.320307 187.81 0.689688 182.06 3.55969C175.55 6.81969 170.25 12.3197 166 18.1297C160.6 25.4997 155.69 33.2897 150.95 41.0897C147.08 47.4697 143.4 53.9497 139.9 60.5297C140.3 57.2697 140.63 53.9997 140.85 50.7197C141.41 42.5397 141.41 34.3297 140.85 26.1497C140.58 22.1597 140.16 18.1897 139.64 14.2197C139.19 10.8597 139.05 7.31969 137.04 4.45969C134.17 0.35969 128.32 -1.16031 123.82 1.06969C118.64 3.63969 115.24 10.6597 112.55 15.5097C107.5 24.6197 104.03 34.5097 102.13 44.7197C97.0899 32.9097 90.5399 19.7797 79.4299 13.4697C66.9699 6.38969 55.1899 14.8497 54.2899 28.2897C53.4099 41.4197 58.8599 55.8097 64.9899 67.1697C70.2999 77.0097 77.3399 85.7697 85.6799 93.1197C72.3099 92.9597 58.9599 93.9997 45.7399 96.2097C37.0699 97.6597 28.2999 99.4897 19.9199 102.2C14.2099 104.05 8.28989 106.83 4.24989 111.39C-4.31011 121.03 1.06991 133.44 12.4499 137.15C24.7299 141.15 39.6299 137.52 51.7799 134.7C62.0699 132.32 71.9999 128.76 81.8799 125.04C73.3999 134.93 64.9199 144.83 56.4399 154.72C50.5899 161.55 44.3799 168.2 38.9099 175.33C35.0799 180.32 31.4899 186.47 31.5199 192.97C31.5399 198.99 35.4899 204.64 41.3299 206.38C47.3799 208.18 53.9299 205.93 59.1999 202.92C71.5399 195.86 82.3399 184 91.0999 172.99L91.0699 172.98ZM117.25 185.39C115.88 192.08 110.97 226.54 98.0499 221.03C93.3299 219.02 93.3999 211.69 93.6599 207.5C94.1199 200.09 97.0299 192.85 99.1399 185.79C104.76 166.98 110.39 148.18 116.01 129.37C116.05 129.25 116.07 129.14 116.1 129.03C118.03 129.09 119.95 128.85 121.8 128.34C122.13 128.48 122.46 128.61 122.81 128.71C122.86 147.75 121.09 166.73 117.26 185.39H117.25ZM107.25 110.82C107.45 116.14 110.82 119.83 114.97 121.43C115.32 122.11 115.71 122.77 116.15 123.41C114.1 123.33 112.09 122.76 110.31 121.55C106.13 118.73 105.77 114.66 107.26 110.82H107.25ZM122.3 122.18C122.3 122.18 122.23 122.11 122.19 122.08C122.4 122.04 122.62 122 122.83 121.94C122.66 122.02 122.48 122.1 122.3 122.18ZM120.45 111.12C120.26 112 120.01 112.69 119.7 113.2C119.36 112.96 119.05 112.67 118.76 112.35C118.8 111.98 118.85 111.63 118.93 111.31C119.48 109.2 121.01 107.46 123.26 107.28C123.75 107.24 124.18 107.3 124.56 107.41C124.67 107.66 124.76 107.92 124.83 108.19C122.8 106.84 119.36 108.33 120.44 111.12H120.45ZM210.77 62.5797C215.83 61.4297 221.3 60.4197 226.43 61.7497C231.29 63.0097 234.67 67.2797 231.95 72.1597C229.31 76.8897 223.42 79.9497 218.58 81.8997C211.66 84.6897 204.16 86.3097 197 88.3897C186.89 91.3197 176.78 94.2497 166.67 97.1897C158.19 98.3097 149.91 100.53 142.34 104.38C138 106.59 141.02 113.54 145.64 112.2C153.22 110 160.8 107.8 168.38 105.61C173.61 104.98 178.9 104.79 184.05 104.84C197.77 104.97 211.57 106.96 224.7 110.98C229.16 112.35 237.07 113.88 239.5 118.32C241.82 122.56 239.29 127.65 234.83 128.92C228.96 130.6 221.95 130.34 215.9 130.39C208.66 130.45 201.42 130.11 194.21 129.54C178.52 128.31 162.87 126.04 147.5 122.65C142.14 121.47 139.85 129.67 145.22 130.9C170.9 136.77 191.81 159.13 195.21 185.44C196.35 194.27 194.09 212.46 181.13 209.63C173.96 208.07 168.44 199.85 164.02 194.5C159.11 188.54 154.67 182.19 150.68 175.59C141.66 160.67 135.17 144.47 131.21 127.5C131.17 127.32 131.1 127.16 131.04 126.99C134.9 123.64 136.26 117.08 137.05 112.52C137.64 109.1 137.61 105.34 136.51 102.04C137.48 102.04 138.48 101.68 139.39 100.82C159.32 82.0097 184.03 68.6897 210.78 62.5897L210.77 62.5797ZM151.35 57.3297C155.16 50.5497 159.16 43.8797 163.35 37.3297C167.33 31.1197 171.24 24.4397 176.23 18.9697C180.02 14.8097 185.38 9.82969 191.32 9.44969C197.94 9.01969 200.4 15.3297 198.96 20.8497C197.4 26.8697 193.42 32.2897 189.24 36.7797C183.81 42.5997 178.19 48.2497 172.67 53.9697C159.56 67.5697 146.44 81.1697 133.33 94.7597C132.92 95.1797 132.63 95.6297 132.43 96.0797C132.39 96.0497 132.34 96.0097 132.3 95.9697C137.95 82.7597 144.32 69.8497 151.35 57.3197V57.3297ZM123.72 13.6097C124.72 12.1097 127.13 7.06969 129.66 8.94969C131.9 10.6197 131.49 17.2797 131.78 19.9997C132.68 28.7297 132.94 37.5397 132.55 46.3097C131.84 62.3297 128.87 78.0997 123.91 93.3297C121.24 93.3297 118.51 93.9197 115.98 94.8997C114.65 83.9297 112.36 73.1397 109 62.6497C108.99 45.3497 114.11 28.0097 123.73 13.5997L123.72 13.6097ZM66.6499 186.38C61.4299 191.03 55.5399 196.65 48.4799 198.15C45.0199 198.88 41.1699 198.23 40.1899 194.25C39.4199 191.15 41.2599 187.46 42.7299 184.88C47.3299 176.81 54.6099 169.94 60.6299 162.92C73.3999 148.03 86.1599 133.14 98.9299 118.24C101.45 115.3 99.1299 109.5 94.7699 111.09C80.6599 116.23 66.7199 122.15 52.1199 125.8C44.3099 127.75 36.2399 129.28 28.2199 129.98C22.8099 130.46 15.4399 130.63 10.9599 126.97C4.87992 122 11.0899 115.75 15.9399 113.07C23.4099 108.95 32.6499 107.41 40.9199 105.74C60.0299 101.88 79.5799 100.81 99.0099 102.19C103.5 102.51 104.47 96.3797 101.17 94.2197C88.8799 86.1997 78.8999 75.1497 72.0399 62.1797C68.6199 55.7297 66.0699 48.8597 64.3999 41.7497C63.0699 36.0597 61.0499 27.6197 64.5799 22.2897C69.3699 15.0597 78.0799 22.2497 81.8799 26.5797C87.1999 32.6397 90.8299 40.6197 94.1699 47.8697C96.5599 53.0697 98.6599 58.4097 100.46 63.8597C100.65 76.1497 103.31 88.2697 108.24 99.6097C100.23 107.11 97.6399 120.88 107.93 126.72C107.87 126.83 107.82 126.95 107.77 127.07C101.96 142.07 93.7899 156.24 83.5799 168.68C78.3999 175 72.7399 180.91 66.6399 186.35L66.6499 186.38Z" fill="#A4EDC6"/>
<path d="M306.31 424.03C301.48 405.34 299.02 386.29 297.3 367.1C296.43 357.44 295.36 347.8 293.99 338.2C293.21 332.72 289.68 330.95 284.41 332.61C282.48 333.22 281.35 334.38 281.36 336.45C281.44 346.64 280.98 356.86 281.73 367C283.24 387.29 287.73 407.08 293.34 426.61C294.61 431.03 292.84 433.93 288.24 434.73C286.67 435 284.99 435.14 283.42 434.92C277.67 434.09 271.93 433.2 266.22 432.1C259.83 430.87 253.51 430.28 247.55 433.57C246.02 434.41 243.93 435.89 243.85 437.19C243.77 438.47 245.64 440.38 247.11 441.18C255.53 445.8 264.69 447.89 273.46 448.61C282.21 447.88 290.22 447.31 297.7 444.11C305.44 440.79 308.2 435.88 307.09 427.57C306.93 426.37 306.61 425.2 306.31 424.02V424.03Z" fill="#A4EDC6"/>
<path d="M281.07 486.299C270.53 494.939 257.76 504.219 243.4 499.709C227.96 494.869 220.58 478.749 214.83 465.009C210.78 455.339 198.68 459.409 202.81 469.249C210.38 487.339 219.91 506.299 238.96 514.439C257.81 522.499 275.25 512.489 289.73 500.619C296.01 495.469 288.09 480.539 281.08 486.289L281.07 486.299Z" fill="#A4EDC6"/>
<path d="M451.319 292.02C451.249 281.01 449.989 270.07 447.759 259.26C442.149 232.13 431.529 207.04 416.919 183.59C415.529 181.36 413.739 179.26 411.729 177.58C389.029 158.62 362.849 152.39 333.919 156.8C315.579 159.59 298.489 166.15 282.279 174.96C263.619 185.11 246.079 196.95 229.869 210.73C215.729 222.75 201.719 234.99 190.119 249.48C174.529 268.94 161.079 289.94 148.309 311.35C130.569 341.08 114.649 371.79 100.119 403.19C90.0992 424.84 79.9992 446.49 70.8492 468.52C71.1592 468.72 71.4692 468.94 71.7892 469.14C63.8392 483.02 56.7693 498.45 61.2093 514.72C61.7793 516.82 62.5593 518.76 63.4593 520.59C65.6693 527.78 73.0892 533.97 79.9392 537.14C89.9192 541.77 100.589 543.89 111.459 545.17C121.709 546.38 131.989 546.42 142.229 545.33C142.319 545.33 142.399 545.33 142.489 545.32C143.999 548.99 145.699 552.58 147.499 556.12C152.549 565.36 161.619 578.23 175.849 585.44C180.839 587.96 184.829 590.38 188.109 592.64C196.759 597.14 205.899 600.12 215.989 600.02C220.339 599.98 224.669 599.24 229.019 598.96C233.779 598.65 238.569 598.69 243.309 598.22C255.489 597.02 266.899 592.87 278.299 588.75C278.299 588.75 299.999 576.11 318.049 568.69C320.329 572.36 323.709 575.52 327.579 577.69C337.299 583.13 348.379 585.91 359.349 587.31C371.689 588.88 384.119 587.97 396.309 585.66C398.029 585.33 399.469 584.37 400.569 583.07C404.499 581.63 408.199 579.86 411.409 577.75C421.359 571.23 428.639 561.65 431.899 550.52C433.709 545.62 437.459 533.33 437.749 531.76C439.859 520.41 441.499 508.96 443.989 497.69C447.659 481.09 451.399 464.54 451.389 447.41C451.389 422.89 451.389 398.36 451.389 373.83C451.389 346.55 451.509 319.28 451.339 292L451.319 292.02ZM409.299 301.13C408.079 316.94 407.299 332.79 405.649 348.55C401.789 385.33 393.999 421.12 377.569 454.62C369.769 470.52 359.869 485.08 349.469 499.34C337.389 515.91 324.519 531.81 309.459 545.81C295.249 559.02 279.729 570.23 261.469 577.27C244.309 583.88 226.599 586.03 208.589 582.27C190.499 578.49 177.179 567.65 167.769 551.9C160.489 539.72 156.579 526.34 154.209 512.47C150.389 490.14 150.859 467.7 152.379 445.19C154.129 419.27 160.709 394.36 167.489 369.48C172.579 350.83 179.069 332.65 187.269 315.12C187.669 314.27 188.159 313.47 188.609 312.64C188.879 312.69 189.149 312.74 189.409 312.79C189.639 315.18 190.039 317.56 190.069 319.95C190.159 326.59 190.069 333.22 190.089 339.86C190.149 356.2 203.189 360.86 214.019 359.25C223.359 357.86 230.289 353.16 234.839 344.75C241.269 332.88 245.919 320.51 246.529 306.87C246.659 303.92 245.179 301.04 242.429 300.16C241.209 299.77 239.119 300.08 238.299 300.93C236.369 302.92 234.569 305.24 233.409 307.74C229.649 315.88 226.319 324.21 222.589 332.36C220.979 335.87 218.929 339.19 216.819 342.43C215.829 343.94 214.369 345.25 212.859 346.29C210.139 348.16 207.259 347.8 205.809 344.87C204.159 341.54 202.629 337.83 202.369 334.18C201.869 327.44 202.329 320.63 202.399 313.85C202.409 312.96 202.549 312.08 202.579 311.19C202.709 307.46 201.159 304.89 197.609 303.43C194.099 301.99 193.499 300.83 194.059 297.04C194.279 295.53 194.529 293.92 195.249 292.61C197.699 288.17 200.219 283.77 202.969 279.52C205.519 275.6 209.679 275.1 213.989 274.58C266.199 268.29 315.729 253.46 361.989 228.16C370.059 223.74 378.309 219.63 386.599 215.63C389.089 214.43 391.959 213.83 394.719 213.37C398.309 212.78 400.969 214.58 402.829 217.55C405.609 221.99 406.509 227.06 407.079 232.1C409.689 255.05 411.049 278.04 409.269 301.14L409.299 301.13Z" fill="#A4EDC6"/>
</g>
</svg>
