<svg width="826" height="600" viewBox="0 0 826 600" fill="none" xmlns="http://www.w3.org/2000/svg">
<g opacity="0.15">
<path d="M263.211 600C261.331 599.71 259.441 599.43 257.571 599.12C250.911 598.01 244.831 595.48 239.431 591.43C232.261 586.04 227.471 578.88 224.591 570.46C221.911 562.64 220.791 554.54 221.291 546.31C221.961 535.44 225.331 525.39 231.251 516.23C234.051 511.89 237.161 507.8 240.821 504.12C243.311 501.62 245.581 498.89 248.131 496.45C253.621 491.23 259.241 486.14 264.791 480.98C265.761 480.08 266.681 479.12 267.621 478.19C268.341 477.47 268.381 476.73 267.941 475.79C266.361 472.46 266.191 472.27 262.621 472.72C260.731 472.96 258.831 473.36 257.031 473.95C245.831 477.63 234.671 481.44 223.461 485.08C218.281 486.76 213.121 488.48 207.661 489.18C198.111 490.39 190.451 487.18 184.511 479.72C180.051 474.12 177.161 467.65 174.591 461.05C171.641 453.45 169.701 445.55 169.181 437.44C168.581 428.09 168.841 418.7 171.391 409.59C172.741 404.78 174.361 400.04 176.161 395.38C177.441 392.06 179.841 389.37 182.251 386.77C186.121 382.6 190.501 379 194.941 375.47C197.861 373.15 201.151 373.05 204.331 374.44C206.861 375.55 209.341 377.03 211.421 378.83C223.261 389.09 231.151 401.89 235.471 416.95C237.631 424.49 239.181 432.14 239.651 439.95C240.081 447 240.011 454.08 240.221 461.14C240.271 462.88 240.541 464.62 240.731 466.65C241.861 466.48 242.711 466.45 243.521 466.22C251.251 464.06 258.991 461.93 266.691 459.66C279.341 455.93 291.951 452.1 304.581 448.32C315.301 445.11 326.021 441.85 336.761 438.69C351.391 434.38 366.031 430.12 380.681 425.89C388.821 423.54 396.921 421.03 405.161 419.08C413.181 417.19 421.301 415.65 429.451 414.45C437.961 413.21 446.561 412.54 455.121 411.66C462.021 410.95 468.881 410.04 475.321 407.22C480.411 404.99 485.151 402.22 489.311 398.48C498.871 389.85 504.841 379.13 507.581 366.65C509.671 357.14 508.221 347.91 504.471 339C502.001 333.12 498.631 327.79 494.731 322.76C492.931 320.44 491.421 317.9 489.831 315.42C488.38 313.16 488.701 310.96 490.291 308.78C491.871 308.64 493.071 309.5 494.151 310.48C498.621 314.53 502.121 319.32 505.001 324.6C509.521 332.88 512.1 341.78 512.801 351.12C513.781 364.11 511.901 376.67 506.211 388.55C502.79 395.68 498.311 401.98 492.661 407.49C490.131 409.95 487.791 412.61 485.381 415.19C485.061 415.54 484.851 416 484.411 416.69C485.801 416.96 486.91 417.23 488.051 417.4C496.281 418.62 504.54 419.67 512.741 421.05C521.771 422.58 530.291 425.52 537.651 431.22C543.101 435.44 546.901 440.87 549.321 447.27C551.431 452.84 552.251 458.61 552.341 464.58C552.501 475.08 551.061 485.28 547.651 495.21C545.571 501.28 542.551 506.87 537.991 511.4C532.681 516.68 526.211 519.94 518.691 520.84C506.431 522.3 494.431 520.88 482.701 517.18C468.071 512.57 453.891 506.74 439.681 501.02C424.781 495.02 409.941 488.89 395.021 482.96C391.961 481.75 388.701 480.92 385.451 480.37C379.121 479.3 373.921 481.61 370.251 486.79C367.101 491.23 364.221 495.86 361.391 500.51C355.551 510.14 349.931 519.92 344.021 529.51C335.301 543.69 326.411 557.76 317.581 571.87C315.861 574.62 314.121 577.35 312.381 580.09C308.361 586.42 302.461 590.49 295.811 593.55C289.071 596.66 281.941 598.48 274.591 599.42C273.141 599.61 271.701 599.81 270.251 600H263.181H263.211ZM295.981 494.58C295.761 494.42 295.551 494.26 295.331 494.1C295.571 493.36 295.751 492.61 296.041 491.9C300.101 481.86 304.181 471.83 308.231 461.79C308.571 460.95 308.761 460.06 309.091 458.98C306.761 458.84 304.921 459.35 303.271 460.32C300.731 461.81 298.161 463.29 295.831 465.07C290.271 469.31 284.761 473.63 279.371 478.08C275.291 481.45 271.381 485.04 267.441 488.58C264.101 491.58 260.781 494.6 257.521 497.68C255.331 499.75 253.191 501.9 251.161 504.12C248.181 507.38 245.381 510.8 242.381 514.03C237.341 519.46 233.671 525.7 231.111 532.6C228.261 540.28 227.241 548.25 227.341 556.46C227.491 568.89 235.471 580.08 246.711 585.01C252.631 587.61 258.941 588.42 265.271 588.41C270.391 588.41 275.561 587.79 280.621 586.95C288.241 585.68 295.511 583.25 301.651 578.31C303.001 577.23 304.291 575.87 305.101 574.37C306.411 571.92 307.561 569.32 308.311 566.65C309.751 561.53 310.181 556.29 309.761 550.93C309.351 545.67 308.441 540.55 306.651 535.61C303.841 527.82 299.701 521.02 292.381 516.55C286.431 512.92 280.051 511.27 273.161 512.24C262.011 513.8 254.201 519.91 249.941 530.31C246.941 537.65 247.581 544.87 251.551 551.76C252.901 554.1 254.891 555.66 257.461 556.46C261.641 557.76 265.761 557.23 269.851 556.01C274.341 554.66 275.911 551.99 274.831 547.45C274.421 545.73 273.891 544.04 273.351 542.36C272.841 540.77 273.111 539.32 273.951 537.92C274.791 536.5 275.371 536.32 276.801 537.22C278.451 538.26 279.261 539.94 279.921 541.66C282.081 547.31 281.741 552.9 279.501 558.46C276.841 565.07 271.671 568.26 264.861 568.88C258.821 569.43 253.691 567.45 250.031 562.36C249.391 561.46 248.641 560.63 248.041 559.71C245.001 555.01 242.391 550.13 242.941 544.29C243.231 541.15 243.671 537.98 244.401 534.92C245.801 529.12 247.501 523.4 248.991 517.62C249.431 515.9 250.221 514.5 251.541 513.34C256.201 509.23 261.091 505.47 266.931 503.15C271.751 501.24 276.751 500.29 281.861 501.36C294.941 504.11 303.911 512.09 309.501 523.97C313.651 532.79 314.661 542.34 315.351 551.92C315.571 555.05 315.471 555.05 318.481 555.59C318.701 555.63 318.911 555.68 319.131 555.71C321.791 556.14 321.831 556.16 323.171 553.82C329.411 542.88 335.631 531.93 341.861 520.99C347.691 510.75 353.521 500.51 359.361 490.28C362.351 485.03 365.361 479.8 368.351 474.55C369.451 472.62 369.261 472.13 367.191 471.62C362.751 470.53 358.321 469.44 353.871 468.41C350.751 467.69 350.681 467.77 350.101 470.81C350.031 471.17 349.951 471.53 349.881 471.89C347.481 484.71 342.251 496.14 333.301 505.75C332.631 506.47 331.851 507.08 331.001 507.85C330.161 506.48 330.411 505.3 330.561 504.17C331.481 497.05 333.761 490.36 337.601 484.33C340.801 479.31 344.411 474.55 347.831 469.67C348.151 469.22 348.401 468.73 348.841 468C344.011 465.65 339.561 463.04 334.391 462.17C332.581 461.86 330.801 462.26 329.381 463.43C327.521 464.97 325.701 466.6 324.051 468.37C320.59 472.08 317.351 476 313.841 479.67C310.891 482.75 307.811 485.74 304.551 488.48C301.871 490.73 298.851 492.57 295.971 494.59L295.981 494.58ZM335.781 448.11C336.911 448.65 337.591 449.04 338.311 449.32C348.881 453.44 359.451 457.55 370.031 461.66C392.421 470.35 414.801 479.04 437.191 487.73C447.421 491.7 457.651 495.68 467.891 499.64C468.471 499.86 469.091 499.96 469.881 500.16C469.921 499.38 470.021 498.88 469.971 498.4C469.561 494.52 469.061 490.65 468.711 486.77C468.101 480.08 468.011 473.39 468.841 466.71C469.761 459.28 472.181 452.36 476.451 446.19C480.091 440.92 484.771 436.67 490.011 433.03C490.651 432.59 491.241 432.08 492.221 431.31C491.161 430.86 490.541 430.54 489.891 430.34C487.921 429.73 485.941 429.17 483.951 428.6C475.741 426.25 467.551 423.87 458.981 423.02C451.241 422.25 443.861 423.39 436.651 426.05C435.51 426.47 434.451 427.1 433.021 427.79C438.121 432.47 442.951 436.9 447.781 441.33C447.681 441.5 447.581 441.67 447.471 441.83C446.731 441.61 445.98 441.4 445.241 441.16C443.841 440.7 442.441 440.24 441.051 439.76C435.331 437.8 429.681 435.71 424.621 432.25C423.121 431.23 421.391 430.46 419.651 429.9C414.571 428.24 409.471 428.65 404.441 430.25C399.251 431.91 394.071 433.62 388.891 435.32C388.521 435.44 388.201 435.74 387.681 436.08C388.301 436.49 388.691 436.8 389.131 437.03C396.041 440.51 403.001 443.87 409.841 447.48C415.261 450.34 420.281 453.84 424.901 457.88C426.021 458.86 427.26 459.81 428.051 461.38C427.421 461.48 427.001 461.63 426.591 461.61C422.771 461.43 418.921 461.47 415.141 460.98C403.911 459.52 393.671 455.35 384.291 449.06C380.991 446.85 377.801 444.45 374.631 442.07C371.751 439.91 368.651 438.96 365.091 439.89C364.381 440.08 363.641 440.17 362.931 440.36C354.551 442.66 346.171 444.97 337.801 447.3C337.271 447.45 336.771 447.72 335.781 448.13V448.11ZM205.921 477.99C212.081 478.27 217.681 476.71 223.171 474.71C228.621 472.73 232.031 468.88 233.351 463.15C234.581 457.8 234.851 452.37 234.851 446.93C234.851 443.78 234.431 440.62 234.081 437.48C232.811 426.12 229.381 415.46 223.471 405.66C220.311 400.43 216.941 395.3 212.141 391.35C206.551 386.75 200.101 385.4 193.471 389.11C185.161 393.76 179.961 401.09 177.141 410.01C174.441 418.56 173.361 427.35 174.271 436.38C175.411 447.68 178.881 458.1 185.231 467.5C187.601 471.01 190.681 473.85 194.571 475.72C198.231 477.48 202.091 478.25 205.921 477.98V477.99ZM547.22 469.18C546.99 466.69 546.941 464.18 546.501 461.73C544.721 451.76 539.811 443.9 530.711 438.99C526.921 436.95 522.941 436.05 518.571 436.65C509.431 437.89 500.721 440.54 492.381 444.36C483.161 448.59 477.001 455.6 474.441 465.52C472.251 474 472.811 482.49 474.941 490.87C476.891 498.54 481.461 504.21 488.861 507.24C497.94 510.96 507.361 512.73 517.16 510.95C524.35 509.65 530.581 506.33 535.35 500.81C543.15 491.78 547.07 481.19 547.22 469.19V469.18Z" fill="#FF978C"/>
<path d="M596.34 262.89C593.94 263.18 591.53 263.47 589.13 263.77C582.11 264.65 575.31 263.75 568.76 261.13C561.02 258.03 554.13 253.63 548.15 247.75C543.2 242.89 539.1 237.52 536.39 231.09C533.4 223.98 533.1 216.71 535.58 209.52C537.9 202.8 536.46 197.14 532.14 191.83C528.46 187.31 525.25 182.45 522.47 177.33C521.16 174.93 520.56 172.4 521.24 169.67C521.63 168.1 522.57 167.08 524.11 166.61C526.13 166 528.14 165.7 530.12 166.75C534.35 168.98 538.6 171.17 542.81 173.44C546.05 175.18 549.21 177.08 552.47 178.79C559.22 182.34 566.39 183.35 573.89 182.06C577.45 181.45 581.01 180.87 584.57 180.28C585.15 180.18 585.74 180.11 586.32 180.08C592.59 179.76 595.32 181.42 597.32 187.34C598.65 191.27 601.09 194.06 604.46 196.28C608.46 198.91 612.51 201.49 616.31 204.38C619.22 206.59 621.93 209.12 624.45 211.78C627.23 214.71 628.33 218.36 627.52 222.39C626.73 226.36 625.95 230.33 624.9 234.23C624.17 236.93 624.59 239.39 625.87 241.68C626.51 242.83 627.66 243.85 628.81 244.52C636.7 249.15 644.29 254.24 651.46 259.91C658.67 265.61 665.78 271.48 672.58 277.65C680.43 284.77 688.03 292.17 695.5 299.68C701.82 306.05 707.8 312.76 713.93 319.31C716.49 322.05 719.09 324.76 721.64 327.51C727.15 333.43 732.59 339.43 738.18 345.28C742.71 350.02 747.41 354.59 752.04 359.23C759.27 366.47 766.96 373.22 774.76 379.84C782.05 386.03 789.32 392.26 796.6 398.46C799.12 400.61 801.64 402.75 804.19 404.87C806.55 406.82 809.24 408.16 812.14 409.09C815.71 410.23 818.84 412.06 821.4 414.86C823.53 417.19 824.73 419.92 824.99 422.99C825.46 428.57 824.54 433.99 822.72 439.28C822.29 440.53 821.58 441.46 820.46 442.15C817.73 443.84 814.86 444.28 811.61 444.05C803.8 443.51 796.33 441.72 789.11 438.82C782.01 435.97 775.51 432.05 769.84 426.91C764.11 421.72 758.4 416.5 753.04 410.94C747.17 404.86 741.43 398.61 736.15 392.01C728.85 382.87 721.93 373.41 715.04 363.95C710.17 357.26 704.88 350.95 698.79 345.35C692.37 339.45 685.34 334.36 677.75 330.06C666.03 323.42 653.57 318.58 640.73 314.56C631.95 311.82 623.24 308.8 614.62 305.59C605.43 302.16 597.16 297.1 589.93 290.41C588.04 288.66 586.24 286.8 584.24 285.19C581.71 283.17 580.87 280.5 580.63 277.46C580.34 273.78 580.54 273.3 584.2 273.06C586.36 272.92 588.65 273.13 590.72 273.73C601.18 276.79 611.59 280.03 622.02 283.2C623.01 283.5 624 283.77 624.99 284.05C626.19 284.4 626.92 283.97 627.42 282.82C629.16 278.9 629.12 278.53 625.57 276C621.79 273.31 618.03 270.58 614.11 268.12C608.71 264.74 602.86 262.64 596.3 262.86L596.34 262.89ZM647.76 306.09C648.92 306.46 649.64 306.76 650.38 306.93C657.29 308.56 663.94 310.91 670.35 313.97C679.59 318.38 687.9 324.14 695.56 330.92C702.14 336.75 708.2 343.07 713.76 349.84C719.41 356.73 724.77 363.85 730.18 370.93C736.65 379.42 742.76 388.21 750.19 395.92C756.78 402.76 763.54 409.44 770.23 416.18C770.33 416.28 770.46 416.37 770.58 416.45C776.98 420.52 783.38 424.58 789.78 428.65C790.74 429.26 791.44 429.08 791.86 427.98C793.09 424.74 794.51 421.57 795.5 418.26C796.65 414.41 795.97 410.86 792.88 407.94C788.6 403.9 784.39 399.77 780.16 395.68C775.5 391.18 770.78 386.74 766.21 382.15C748.59 364.45 731.01 346.72 713.44 328.97C708.16 323.63 703.05 318.12 697.7 312.85C690.62 305.88 683.39 299.05 676.21 292.18C669.56 285.81 662.54 279.87 655.26 274.23C643.65 265.22 631.54 257 618.18 250.76C617.47 250.43 616.74 250.14 615.55 249.62C615.78 251.35 615.92 252.63 616.12 253.89C616.52 256.32 617.71 258.26 619.7 259.77C622.46 261.86 625.15 264.04 627.85 266.2C636.19 272.86 644.54 279.52 652.87 286.2C655.48 288.29 657.21 290.92 658.03 294.22C658.53 296.23 658.06 297.61 656.42 298.81C654.17 300.47 651.98 302.22 649.81 303.98C649.16 304.5 648.64 305.18 647.75 306.1L647.76 306.09ZM593.96 200.59C593.53 201.47 593.2 202.11 592.89 202.76C590.01 208.77 586.46 214.38 581.83 219.17C576.65 224.52 570.58 228.66 563.45 231.03C560.66 231.96 557.79 232.64 554.95 233.38C552.94 233.91 552.72 234.23 553.02 236.31C553.26 237.98 553.81 239.47 555.16 240.53C557.93 242.71 560.54 245.17 563.55 246.94C574.5 253.38 586.04 254.48 597.9 249.74C608.64 245.45 615.64 237.42 619.89 226.84C620.6 225.08 620.53 223.25 620.14 221.41C619.54 218.56 617.81 216.51 615.51 214.92C608.9 210.37 602.26 205.87 595.62 201.36C595.21 201.08 594.72 200.92 593.98 200.57L593.96 200.59Z" fill="#FF978C"/>
<path d="M-93.2305 420.93C-93.2305 415.65 -90.9205 411.61 -86.9805 408.29C-82.2505 404.31 -77.4205 400.42 -72.9905 396.13C-64.8305 388.22 -57.7905 379.31 -51.2205 370.06C-38.4305 352.03 -26.8705 333.2 -15.4005 314.31C-5.16047 297.44 5.16954 280.62 15.6495 263.9C23.0495 252.1 31.3695 240.95 40.2995 230.25C46.2495 223.12 52.4795 216.26 59.1195 209.78C61.0095 207.93 63.0495 206.23 64.9295 204.36C66.1795 203.12 67.2395 201.7 68.4095 200.37C69.2495 199.4 69.3395 198.48 68.5295 197.4C66.8895 195.22 65.2095 193.06 63.7795 190.75C62.4695 188.64 61.2695 186.42 60.3495 184.11C58.6095 179.77 59.2895 175.43 61.6495 171.59C63.7195 168.23 66.3195 165.18 68.8095 162.1C70.9795 159.41 73.3495 156.88 75.5895 154.25C78.0095 151.41 79.5395 148.05 81.0195 144.67C82.2895 141.76 83.5695 138.84 85.8195 136.53C87.2995 135.01 88.8795 133.57 90.5395 132.25C92.1795 130.94 94.1495 131.44 96.0695 131.5C100.32 131.63 104.63 131.95 108.83 131.5C117.69 130.54 125.22 126.33 131.85 120.6C135.45 117.48 138.71 113.95 142.03 110.52C144.82 107.63 147.94 105.17 151.42 103.24C152.79 102.48 154.48 102.23 156.05 101.9C157.15 101.67 157.81 102.24 158.03 103.43C158.46 105.71 158.62 107.94 157.68 110.16C155.62 115.04 153.59 119.94 151.56 124.84C151.19 125.72 150.9 126.64 150.55 127.53C147.64 134.94 148.51 142.11 151.84 149.14C154.07 153.84 155.54 158.76 155.79 163.99C156.12 170.76 154 176.93 150.84 182.77C147.88 188.25 144.1 193.15 139.54 197.39C129.5 206.72 117.78 212.7 104.09 214.39C100.05 214.89 96.0795 215.39 92.3095 217.07C87.0995 219.39 83.2595 223.35 79.5895 227.48C76.8495 230.56 74.3195 233.82 71.6995 236.99C70.5595 238.37 70.5195 238.75 71.4695 240.32C71.6595 240.64 71.8695 240.94 72.0695 241.25C73.6995 243.87 73.7295 243.94 76.3495 242.54C83.1695 238.9 89.9095 235.11 96.7695 231.56C102.85 228.41 109.03 225.46 115.21 222.51C116.45 221.92 117.86 221.6 119.22 221.34C120.86 221.03 121.69 221.51 122.43 223.02C123.43 225.07 123.34 227.21 122.46 229.23C121.85 230.63 121.1 232.08 120.06 233.16C114.48 238.91 108.91 244.69 103.08 250.19C98.2695 254.73 93.2195 259.04 88.0595 263.18C81.8395 268.17 74.8195 271.96 67.9395 275.95C60.2395 280.42 52.4895 284.85 45.0195 289.68C40.7195 292.46 36.7895 295.87 32.8995 299.24C21.7495 308.87 13.4095 320.65 7.08954 333.88C3.43954 341.52 0.04953 349.28 -3.47047 356.98C-5.18047 360.73 -6.94046 364.46 -8.67046 368.2C-14.8605 381.58 -21.3705 394.78 -30.5005 406.49C-39.6005 418.16 -50.5805 427.51 -63.8205 434.25C-68.7005 436.74 -73.9805 438.11 -78.9805 440.23C-82.2805 441.63 -84.4605 440.71 -86.6605 437.77C-89.4605 434.01 -91.5805 429.9 -92.6305 425.3C-92.9605 423.88 -93.0305 422.4 -93.2105 420.94L-93.2305 420.93ZM82.9095 210.97C81.5396 209.71 80.4295 208.66 79.2795 207.64C78.1095 206.6 77.6495 206.55 76.3995 207.55C72.4295 210.72 68.2895 213.71 64.5995 217.18C57.6695 223.68 51.0195 230.47 44.8795 237.74C35.9295 248.33 27.6295 259.41 20.0395 271C11.1595 284.55 2.53954 298.28 -6.23047 311.9C-16.9205 328.5 -27.6505 345.06 -38.3705 361.64C-39.1305 362.82 -39.8805 364 -40.6605 365.16C-45.4405 372.33 -50.2305 379.49 -55.0105 386.67C-57.8605 390.96 -60.7205 395.25 -63.5105 399.59C-65.6205 402.87 -65.7505 406.28 -63.6105 409.57C-61.9305 412.16 -60.0505 414.62 -58.2605 417.15C-57.5205 418.19 -56.6205 418.28 -55.5705 417.66C-55.1905 417.44 -54.8105 417.22 -54.4205 417C-45.5005 411.83 -38.5905 404.56 -32.8105 396.17C-27.1505 387.96 -22.8505 378.96 -18.2305 370.17C-14.4605 363 -11.0405 355.65 -7.51047 348.36C-6.32047 345.91 -5.30047 343.38 -4.12047 340.92C-0.930466 334.29 2.02954 327.52 5.58954 321.09C12.9295 307.87 22.0895 296.03 33.5795 286.06C38.0995 282.14 42.8295 278.55 47.8195 275.27C51.5095 272.85 55.0995 270.27 58.7195 267.74C59.2195 267.39 59.6095 266.88 60.3295 266.18C59.2695 265.7 58.5895 265.31 57.8495 265.07C55.0495 264.15 52.2195 263.32 49.4295 262.38C47.6995 261.8 47.4395 261.31 47.6295 259.61C48.0995 255.34 49.4995 251.44 52.1795 248.05C55.1895 244.24 58.1195 240.35 61.2195 236.62C66.4296 230.33 71.7495 224.13 77.0295 217.9C78.8795 215.72 80.7295 213.54 82.8895 211L82.9095 210.97ZM142.52 176.7C141.17 176.6 140.39 176.5 139.6 176.49C137.02 176.47 134.44 176.52 131.87 176.49C122.28 176.34 113.46 173.66 105.36 168.53C98.7995 164.38 93.4295 158.99 88.7495 152.85C88.2895 152.25 87.7095 151.74 87.0695 151.07C86.5795 151.72 86.2395 152.09 85.9795 152.52C82.2095 158.96 78.0195 165.06 72.5895 170.27C70.9095 171.89 69.4095 173.76 68.1095 175.71C65.9695 178.9 66.2595 181.81 68.9895 184.5C70.9695 186.46 73.0795 188.34 75.3395 189.96C80.5295 193.69 85.5795 197.68 91.5895 200.13C102.94 204.75 113.88 203.99 124.38 197.61C131.23 193.45 136.24 187.56 140.34 180.81C141.05 179.64 141.63 178.4 142.52 176.72V176.7Z" fill="#FF978C"/>
<path d="M214.219 316.49C214.199 303.03 217.299 290.24 222.119 277.89C226.799 265.89 232.039 254.1 236.989 242.2C240.849 232.93 244.169 223.49 245.769 213.53C247.259 204.26 246.919 195.07 244.729 185.93C244.379 184.45 244.239 182.86 244.349 181.35C244.519 178.95 245.809 177.91 248.169 178.05C250.119 178.16 251.909 178.74 253.379 180.15C256.929 183.58 260.499 186.97 264.069 190.38C267.579 193.74 271.079 197.11 274.599 200.46C275.939 201.73 276.269 201.68 277.419 200.31C284.259 192.14 290.129 183.34 294.509 173.59C299.179 163.21 302.659 152.42 305.149 141.32C307.719 129.88 309.469 118.31 310.889 106.68C311.419 102.3 311.809 97.9 312.339 93.51C312.509 92.13 312.839 90.75 313.299 89.44C314.039 87.33 315.459 86.67 317.459 87.66C319.299 88.57 321.109 89.65 322.679 90.95C327.329 94.79 332.079 98.56 336.369 102.78C341.989 108.3 347.019 114.37 351.629 120.78C358.499 130.32 364.239 140.52 369.199 151.15C374.909 163.39 379.339 176.12 382.969 189.13C386.079 200.28 388.679 211.55 390.819 222.92C391.279 225.38 392.429 227.47 393.649 229.58C394.159 230.47 394.839 230.59 395.699 230.26C397.079 229.73 398.469 229.25 399.809 228.65C407.229 225.35 413.909 220.9 419.419 214.94C422.749 211.33 425.549 207.23 428.639 203.39C429.969 201.73 431.349 200.1 432.849 198.59C434.209 197.23 434.799 197.35 435.629 199.09C437.209 202.41 438.769 205.75 440.189 209.15C443.999 218.25 447.869 227.34 451.469 236.53C456.599 249.63 461.619 262.77 466.459 275.98C469.049 283.06 470.309 290.43 470.649 298.02C471.149 309.1 469.439 319.75 465.269 329.97C462.049 337.85 457.619 345.02 451.969 351.48C445.449 358.94 437.749 364.87 429.469 370.19C421.399 375.37 413.149 380.23 404.589 384.51C390.519 391.55 375.889 397.19 360.609 401.02C351.029 403.42 341.319 405.13 331.459 405.99C324.779 406.57 318.099 407.03 311.399 406.79C300.349 406.4 289.329 405.74 278.699 402.28C271.809 400.04 265.239 397.09 259.019 393.37C252.029 389.19 245.609 384.24 239.969 378.39C227.219 365.17 218.799 349.62 215.739 331.41C214.919 326.5 214.729 321.47 214.249 316.5L214.219 316.49ZM318.329 100.66C318.039 101.7 317.739 102.52 317.589 103.36C316.829 107.71 316.089 112.07 315.369 116.43C312.809 131.83 310.299 147.24 305.699 162.22C301.779 174.96 296.569 187.1 289.219 198.26C286.099 203 282.599 207.45 278.779 211.66C276.869 213.77 274.889 215.66 272.289 216.83C270.579 217.6 270.289 217.45 269.449 215.7C266.199 208.93 262.919 202.17 259.649 195.41C259.489 195.08 259.309 194.76 259.129 194.43C258.759 193.76 258.249 193.57 257.469 193.74C253.909 194.55 252.659 195.89 252.229 199.55C252.149 200.28 252.179 201.02 252.139 201.76C251.969 204.84 251.919 207.94 251.599 211.01C250.709 219.54 248.799 227.85 246.099 235.99C242.319 247.41 237.189 258.27 232.309 269.23C228.859 276.97 225.609 284.79 223.289 292.96C220.139 304.03 219.359 315.31 220.949 326.66C223.179 342.58 230.499 356.09 241.529 367.63C246.229 372.54 251.569 376.71 257.249 380.43C272.489 390.41 289.309 395.38 307.419 396.18C315.459 396.54 323.469 395.88 331.409 394.68C345.629 392.54 359.649 389.49 373.439 385.36C389.309 380.6 404.519 374.3 418.699 365.7C429.419 359.2 439.759 352.17 448.019 342.51C452.949 336.75 457.059 330.49 459.909 323.48C464.019 313.35 465.599 302.83 464.439 291.89C463.739 285.26 462.539 278.74 460.039 272.57C457.129 265.41 453.889 258.39 450.719 251.34C449.029 247.58 447.209 243.88 445.449 240.15C442.309 233.49 439.189 226.82 436.009 220.18C435.579 219.28 434.869 218.46 434.129 217.77C433.359 217.05 432.409 217.04 431.509 217.73C429.939 218.94 428.399 220.19 426.769 221.33C418.679 226.98 410.599 232.65 402.429 238.18C399.759 239.99 396.909 241.58 394.009 243C391.379 244.29 389.939 243.61 388.749 240.91C388.339 239.97 388.029 238.97 387.799 237.97C387.369 236.11 386.979 234.23 386.649 232.34C383.209 212.65 378.689 193.23 371.809 174.41C366.939 161.08 360.849 148.35 353.089 136.46C347.029 127.17 340.099 118.58 331.919 111.08C328.019 107.51 323.669 104.44 319.519 101.15C319.299 100.98 318.999 100.91 318.329 100.62V100.66Z" fill="#FF978C"/>
<path d="M662.04 207.56C661.57 205.37 661 203.4 660.78 201.38C660.68 200.53 661.13 199.49 661.63 198.73C666.24 191.71 669.15 184.06 670.1 175.72C671.19 166.16 669.73 157.04 664.76 148.69C658.14 137.58 648.24 130.71 636 127.04C633.68 126.34 631.28 125.89 628.88 125.55C626.28 125.19 624.15 124.03 622.23 122.35C621.57 121.77 620.89 121.21 620.21 120.64C618.83 119.49 618.79 119.31 619.82 117.72C620.38 116.86 621.05 116.06 621.62 115.2C622.48 113.91 623.68 113.24 625.14 112.72C628.11 111.66 631.16 110.66 633.9 109.14C644.65 103.17 648.95 92.5402 647.57 80.7602C646.22 69.3102 641.02 59.8702 632.99 51.7302C624.67 43.3002 614.63 38.0602 603.35 34.9702C596.58 33.1202 589.67 32.2602 582.65 31.8302C569.03 30.9902 555.94 33.1302 543.31 38.1202C532.8 42.2702 523.42 48.2802 514.94 55.7602C512.2 58.1802 509.72 61.0002 506.14 62.3202C505.67 62.4902 505.2 62.6802 504.46 62.9502C503.46 59.9702 502.93 57.1102 503.69 54.0802C505.12 48.4102 505.21 42.7002 503.75 37.0402C500.32 23.7902 489.04 12.8702 474.18 11.6902C464.36 10.9102 455.8 14.1402 448.59 20.9302C441.02 28.0602 437.44 36.8502 437.42 47.1602C437.42 48.8402 437.74 50.5302 437.94 52.2102C438.21 54.4602 437.15 56.1302 435.76 57.7202C434.41 57.3302 433.69 56.4702 433.39 55.3902C432.73 52.9902 431.93 50.5702 431.72 48.1102C431.12 41.0702 432.54 34.3202 435.32 27.8602C438.13 21.3202 441.7 15.2402 446.91 10.2702C457.6 0.0501623 469.97 -2.63984 483.77 2.63016C495.45 7.09016 502.84 15.8602 506.97 27.4802C508.43 31.5702 509.59 35.7602 510.89 39.9102C511.04 40.4002 511.18 40.9002 511.35 41.3902C512.2 43.9102 512.45 43.9602 514.7 42.6202C521.34 38.6702 527.85 34.4602 534.71 30.9102C545.11 25.5302 556.18 22.0102 567.87 20.5802C579.45 19.1602 590.8 20.2802 601.93 23.6702C610.57 26.3002 618.76 29.9502 626.32 34.9202C638.86 43.1602 648.01 54.0402 652.31 68.6502C653.74 73.5002 654.08 78.4602 654.13 83.4902C654.21 92.3802 651.12 100.36 647.48 108.23C646.3 110.77 645.19 113.34 644.12 115.92C643.42 117.61 643.49 117.84 645.04 118.79C649.32 121.41 653.38 124.35 657.05 127.76C659.14 129.71 661.12 131.82 662.91 134.05C668.78 141.35 672.69 149.61 674.45 158.84C675.5 164.34 676.3 169.89 676.07 175.51C675.65 185.56 673 194.96 667.42 203.43C665.93 205.7 665.36 206.13 662.04 207.55V207.56Z" fill="#FF978C"/>
<path d="M607.39 435.19C606.41 431.7 606.139 428.43 608.109 425.31C611.849 419.41 616.759 414.94 623.539 412.76C629.599 410.81 635.71 410.64 641.83 412.31C649.24 414.33 654.299 419.21 657.989 425.79C660.659 430.55 662.019 435.73 663.309 440.96C664.069 444.06 664.089 444.16 667.179 443.94C671.069 443.67 674.939 443.22 678.819 442.84C685.859 442.14 692.92 441.65 699.96 442.6C709.57 443.9 717.049 448.92 722.45 456.79C728.29 465.32 731.359 474.9 731.289 485.27C731.229 493.84 728.299 501.57 723.129 508.42C722.009 509.9 720.539 510.79 718.739 511.18C717.869 511.37 717.299 511.09 717.039 510.23C716.179 507.35 715.629 504.65 717.969 501.97C721.779 497.6 723.979 492.41 724.849 486.66C726.159 477.99 723.719 470.36 717.929 464C711.699 457.17 703.659 453.52 694.499 452.33C684.869 451.07 675.939 453.51 667.309 457.44C664.689 458.63 662.17 460.01 659.27 460.44C657.32 460.73 657.1 460.53 656.45 458.62C655.389 455.55 656.159 452.52 656.359 449.44C656.569 446.23 656.689 442.94 656.239 439.78C655.389 433.84 652.109 429.32 646.989 426.17C639.289 421.43 631.309 421.15 623.109 424.72C619.149 426.44 615.729 428.98 612.669 432.03C610.649 434.04 609.65 434.66 607.4 435.21L607.39 435.19Z" fill="#FF978C"/>
<path d="M190.1 434.58C190.17 428 191.23 421.65 193.93 415.64C194.8 413.71 195.88 411.82 197.15 410.13C197.9 409.13 199.19 408.52 200.29 407.81C200.93 407.4 201.62 407.53 201.95 408.29C202.92 410.57 203.86 412.99 202.31 415.26C199.31 419.64 198.43 424.75 196.93 429.66C196.08 432.43 195.76 435.3 196.03 438.18C196.19 439.85 196.48 441.55 197.05 443.12C198.24 446.42 200.89 447.93 204.36 447.38C205.42 447.21 206.51 446.81 207.45 446.29C210.31 444.7 210.48 444.21 209.97 440.98C209.46 437.78 208.97 434.58 208.53 431.37C208.41 430.5 208.44 429.61 208.44 428.73C208.44 427.62 209.09 427.01 210.11 426.67C211.13 426.32 212.1 426.41 212.67 427.34C214.86 430.91 217.12 434.45 219.02 438.17C219.57 439.25 219.13 440.9 218.96 442.27C218.43 446.81 217.03 451.04 214.07 454.62C209.7 459.89 202.23 461 196.99 455.8C193.37 452.21 191.44 447.87 190.8 442.93C190.44 440.17 190.32 437.37 190.1 434.59V434.58Z" fill="#FF978C"/>
<path d="M496.21 482.97C496.53 473.3 500.43 465.39 508 459.33C508.74 458.74 509.59 458.27 510.44 457.84C513.95 456.06 516.77 457.75 516.93 461.71C516.99 463.25 516.93 464.8 516.96 466.35C517.01 468.61 517.23 468.74 519.38 469.28C522.23 469.99 525.11 470.66 527.84 471.71C533.81 473.99 536.53 479.24 535.28 485.53C534.18 491.06 531.04 495.22 526.37 498.15C521.06 501.48 515.31 502.82 509.06 501.22C501.04 499.17 496.99 492.98 496.22 485.4C496.14 484.6 496.21 483.78 496.21 482.97Z" fill="#FF978C"/>
<path d="M400.13 304.06C399.99 316.54 397.5 328.4 391.87 339.53C387.72 347.74 381.9 354.62 374.8 360.42C365.66 367.88 355.28 372.72 343.73 375.08C334.86 376.89 326.04 376.5 317.21 374.53C309.21 372.75 301.32 370.64 293.78 367.39C287.04 364.48 280.73 360.87 275.68 355.4C270.32 349.59 267.09 342.81 266.27 334.9C265.27 325.25 268.2 316.78 273.69 308.98C277.22 303.97 281.83 300.09 286.58 296.35C293 291.29 299.63 286.48 305.27 280.52C313.21 272.13 319.19 262.65 321.3 251.06C322.2 246.09 322.11 241.11 321.85 236.09C321.76 234.39 322.33 232.64 322.74 230.95C322.97 230 323.84 229.65 324.8 229.58C326.77 229.43 328.65 229.82 330.34 230.77C335.26 233.55 339.13 237.41 341.88 242.36C344.86 247.72 346.43 253.53 347.14 259.58C347.68 264.18 348.11 268.8 348.47 273.42C348.59 274.92 349.12 275.87 350.48 276.52C355.46 278.9 354.17 278.95 357.27 275.06C361.82 269.35 366.04 263.41 369.89 257.21C370.62 256.04 371.54 254.94 372.54 253.98C374.84 251.76 376.85 251.54 379.49 253.33C382.82 255.58 385.41 258.59 387.74 261.85C393.92 270.51 397.24 280.27 398.81 290.67C399.48 295.09 399.69 299.59 400.11 304.05L400.13 304.06Z" fill="#FF978C"/>
</g>
</svg>
