<svg width="793" height="601" viewBox="0 0 793 601" fill="none" xmlns="http://www.w3.org/2000/svg">
<g opacity="0.2">
<path d="M109.141 326.07C109.141 321.09 109.091 316.11 109.181 311.13C109.201 310.28 109.571 309.2 110.171 308.63C120.741 298.47 132.301 289.62 145.161 282.5C163.661 272.26 183.561 266.72 204.521 264.65C216.441 263.48 228.381 263.19 240.341 263.36C250.831 263.51 261.321 263.72 271.801 264.08C285.831 264.56 299.791 263.96 313.721 262.28C315.581 262.06 317.151 261.45 318.621 260.21C332.311 248.7 348.361 242.85 365.921 240.82C378.591 239.35 391.281 239.33 404.001 240.35C413.441 241.11 422.701 239.56 431.901 237.56C440.831 235.61 449.751 233.59 458.741 231.92C466.221 230.54 473.771 230.4 481.291 231.99C483.321 232.42 484.521 233.38 485.341 235.34C506.611 286.18 528.321 336.83 549.051 387.89C557.681 409.15 567.731 429.75 576.431 450.95C580.561 461 584.101 471.24 586.101 481.96C586.661 484.98 585.991 486.35 583.131 487.43C581.441 488.07 579.631 488.38 577.901 488.93C576.071 489.52 574.161 490.02 572.481 490.92C570.281 492.1 570.011 494.04 571.421 496.1C571.591 496.34 571.771 496.57 571.931 496.82C575.141 501.48 574.761 506.28 570.861 510.42C566.921 514.6 561.961 517.26 556.821 519.6C547.021 524.06 536.731 527.1 526.341 529.82C501.471 536.33 476.181 540.75 450.901 545.27C432.201 548.61 413.511 551.98 394.861 555.53C388.591 556.72 382.291 558.07 376.271 560.13C369.581 562.42 362.831 563.86 355.861 564.91C340.761 567.18 326.131 571.56 311.441 575.61C288.721 581.87 266.041 588.25 243.261 594.3C231.761 597.36 220.041 599.63 208.131 600.36C202.791 600.69 197.351 600.31 192.021 599.68C189.401 599.37 186.841 597.94 184.431 596.67C183.541 596.2 182.791 594.8 182.631 593.73C181.561 586.42 179.691 584.74 172.331 584.69C169.411 584.67 166.421 584.79 163.591 584.24C161.711 583.87 159.931 582.55 158.321 581.37C157.591 580.83 157.121 579.61 156.981 578.64C153.141 551.73 147.151 525.27 140.661 498.9C133.821 471.12 126.881 443.37 120.311 415.53C115.931 396.98 112.571 378.21 110.671 359.23C109.561 348.22 109.061 337.15 108.281 326.11L109.131 326.08L109.141 326.07ZM387.691 542.82C387.451 541.71 387.341 541.05 387.151 540.41C381.951 522.94 376.741 505.46 371.521 487.99C363.791 462.15 356.321 436.24 348.241 410.51C339.061 381.29 328.531 352.56 315.501 324.8C308.561 310.03 300.911 295.65 291.911 282.02C290.961 280.58 289.821 279.8 288.111 279.55C283.531 278.88 278.971 278.04 274.391 277.38C252.731 274.24 231.011 271.99 209.071 272.95C199.091 273.39 189.201 274.39 179.451 276.59C168.081 279.15 157.281 283.13 147.701 289.91C134.171 299.49 126.051 312.71 122.001 328.61C117.691 345.5 117.851 362.63 119.301 379.81C120.531 394.31 122.671 408.71 125.781 422.91C131.041 446.96 136.701 470.93 142.221 494.92C147.611 518.34 153.041 541.76 158.441 565.18C159.071 567.92 159.171 568.25 162.011 568.24C167.571 568.23 173.161 568.27 178.691 567.77C190.901 566.67 202.741 563.68 214.271 559.62C228.031 554.76 241.671 549.54 255.331 544.41C270.711 538.63 286.141 533.07 302.311 529.83C315.901 527.11 329.571 526.05 343.391 527.75C358.381 529.59 372.351 534.45 385.471 541.86C386.041 542.18 386.681 542.39 387.711 542.83L387.691 542.82ZM579.491 480.21C579.131 478.84 578.931 477.89 578.621 476.99C567.021 442.63 553.181 409.15 538.961 375.82C520.441 332.41 500.991 289.4 483.661 245.49C483.171 244.24 482.351 243.66 481.091 243.43C475.231 242.33 469.291 241.88 463.411 242.63C454.351 243.78 445.321 245.24 436.321 246.85C424.721 248.92 413.181 251.32 401.291 250.92C396.671 250.76 392.041 250.75 387.431 250.85C376.161 251.11 364.961 252.15 353.911 254.42C343.571 256.55 333.561 259.59 324.811 265.81C317.721 270.84 312.801 277.4 310.501 285.86C309.981 287.77 309.851 289.57 310.511 291.53C317.281 311.46 323.931 331.43 330.731 351.35C342.031 384.47 353.361 417.59 364.791 450.67C373.321 475.38 382.021 500.04 390.681 524.71C391.511 527.08 392.541 529.4 393.701 531.63C394.561 533.29 395.741 533.35 396.841 531.85C398.051 530.2 399.071 528.41 400.091 526.64C404.241 519.41 409.291 512.93 415.551 507.39C426.001 498.15 438.151 491.94 451.271 487.51C473.061 480.16 495.631 477.81 518.461 477.29C525.901 477.12 533.351 477.24 540.781 477.59C551.191 478.09 561.591 478.92 571.991 479.62C574.351 479.78 576.711 480 579.501 480.22L579.491 480.21ZM402.791 544.12C459.131 531.34 515.031 518.81 570.841 505.51C569.521 504.31 568.231 503.43 566.861 502.67C559.581 498.63 551.791 495.89 543.721 493.95C528.011 490.18 512.081 488.75 495.931 489.28C482.931 489.71 470.101 491.25 457.521 494.58C443.681 498.24 430.591 503.58 419.591 513.08C410.891 520.6 405.011 529.84 402.981 541.3C402.851 542.02 402.871 542.76 402.791 544.13V544.12ZM185.731 582.5C186.901 583.75 187.621 584.91 188.651 585.52C190.391 586.56 192.271 587.5 194.211 588.04C198.661 589.28 203.251 589.29 207.831 588.98C218.631 588.25 229.251 586.31 239.671 583.52C261.131 577.77 282.501 571.72 303.911 565.8C315.611 562.57 327.261 559.05 339.351 557.69C346.731 556.86 353.971 555.62 361.041 553.46C363.491 552.71 365.921 551.72 368.131 550.46C370.861 548.9 370.771 546.62 367.911 545.39C365.031 544.15 361.991 543.01 358.911 542.54C351.681 541.44 344.401 540.44 337.111 540.01C329.521 539.56 321.871 539.6 314.271 539.89C309.861 540.06 305.361 540.74 301.111 541.91C277.381 548.48 253.721 555.29 230.511 563.55C216.251 568.62 202.231 574.28 188.601 580.88C187.781 581.28 187.011 581.78 185.721 582.51L185.731 582.5Z" fill="#FFD234"/>
<path d="M565.901 113.78C564.581 110.16 562.551 107.3 560.261 104.65C549.741 92.4302 531.391 89.5202 517.751 98.1102C508.161 104.14 504.361 113.2 504.941 124.34C505.181 128.95 505.741 133.65 505.151 138.18C503.471 151.24 495.271 159.3 482.231 161.45C470.541 163.38 459.471 161.02 448.821 156.35C438.421 151.79 429.491 145.31 423.281 135.57C416.471 124.89 416.931 113.99 422.871 103.24C427.021 95.7202 434.921 92.4102 443.401 93.9802C452.391 95.6402 459.241 100.73 465.051 107.46C468.571 111.53 471.171 116.19 473.401 121.05C475.031 124.6 474.471 128.28 473.891 131.95C473.261 135.94 472.621 139.93 472.001 143.92C471.621 146.36 472.721 147.85 474.891 148.93C479.001 150.98 483.191 152.45 487.881 151.81C493.951 150.99 498.221 146.11 498.211 139.97C498.191 129.99 498.461 120.04 500.681 110.25C501.911 104.84 503.811 99.7002 506.951 95.0602C510.091 90.4002 514.201 86.8302 519.451 84.9202C523.671 83.3802 528.041 82.0602 532.461 81.2902C539.071 80.1302 545.011 82.3802 550.231 86.3502C553.531 88.8602 556.581 91.7202 559.631 94.5502C564.271 98.8502 568.761 103.31 573.401 107.62C578.481 112.35 584.581 114.24 591.491 114.58C602.431 115.12 613.361 115.98 624.261 117.04C635.121 118.1 645.671 120.51 655.281 126.01C661.571 129.61 666.951 134.27 671.331 140.03C672.431 141.47 673.691 142.31 675.421 142.79C679.571 143.94 683.461 145.71 686.831 148.47C691.441 152.25 693.801 157.18 694.371 163.05C695.171 171.17 693.121 178.87 690.911 186.55C690.721 187.23 690.511 187.9 690.271 188.56C688.021 194.92 686.521 201.21 687.211 208.22C688.411 220.43 684.291 231.2 675.901 240.23C670.101 246.47 663.041 250.92 655.301 254.36C643.821 259.46 631.711 262.05 619.261 263.21C601.301 264.89 583.541 263.61 566.051 259.22C553.331 256.02 541.251 251.29 530.731 243.22C524.291 238.28 519.101 232.3 516.441 224.48C513.351 215.4 514.821 206.68 518.731 198.18C521.921 191.24 526.461 185.22 531.441 179.48C532.211 178.59 532.841 177.43 533.151 176.3C534.811 170.11 535.861 163.82 535.881 157.38C535.901 152.87 536.061 148.36 535.821 143.86C535.291 133.73 539.881 126.63 548.571 122.02C553.431 119.44 558.501 117.27 563.481 114.92C564.211 114.58 564.941 114.24 565.891 113.79L565.901 113.78ZM540.161 154.67C540.061 155.68 539.901 156.36 539.931 157.04C540.141 161.07 540.081 165.15 540.691 169.12C543.861 189.8 554.801 204.85 574.011 213.39C590.091 220.54 606.631 220.85 623.261 215.34C632.951 212.13 641.351 206.77 648.141 199.07C658.891 186.89 662.741 172.36 662.451 156.46C662.441 155.81 662.191 155.15 662.021 154.34C661.121 154.59 660.451 154.75 659.801 154.97C655.871 156.33 651.981 157.83 648.011 159.06C626.841 165.65 605.231 167.6 583.201 165.07C569.271 163.47 555.791 160.02 542.621 155.27C541.901 155.01 541.121 154.89 540.161 154.66V154.67ZM540.851 185.63C540.281 185.88 539.981 185.95 539.761 186.11C533.371 190.95 527.411 196.24 523.361 203.29C518.221 212.23 518.991 220.66 525.851 228.03C528.221 230.57 531.031 232.81 533.961 234.7C543.081 240.6 553.271 243.96 563.771 246.38C580.181 250.18 596.811 251.72 613.661 251.07C624.711 250.64 635.591 249.24 646.321 246.5C660.101 242.97 671.451 236.02 679.161 223.81C680.461 221.75 681.661 219.52 682.351 217.21C685.121 207.93 679.831 199.02 670.611 197.6C663.651 196.53 657.511 198.84 652.331 203.49C649.591 205.95 647.161 208.76 644.491 211.3C637.741 217.72 630.251 223.13 621.831 227.18C611.531 232.14 600.741 234.33 589.381 232.23C576.641 229.88 566.721 222.75 558.331 213.24C551.651 205.66 546.511 197.08 542.161 188C541.791 187.23 541.331 186.5 540.841 185.63H540.851ZM678.111 184.86C678.471 184.63 678.791 184.48 679.041 184.25C681.241 182.15 683.511 180.11 685.591 177.89C687.261 176.1 688.851 174.18 690.171 172.13C692.351 168.76 691.811 166.08 688.751 163.46C688.481 163.23 688.221 163 687.921 162.81C682.931 159.64 677.931 156.47 672.931 153.33C672.561 153.1 672.091 153.04 671.701 152.91C662.921 165.42 665.101 177.7 678.111 184.87V184.86ZM456.631 116.97C450.671 125.39 444.681 133.85 438.691 142.31C438.791 142.58 438.891 142.84 438.991 143.11C443.961 144.09 448.891 145.32 453.901 145.96C456.571 146.3 458.821 144.7 460.301 142.31C461.501 140.37 462.791 138.49 463.951 136.53C464.721 135.23 465.511 133.89 466.011 132.47C468.281 126.09 463.721 118.33 456.621 116.98L456.631 116.97Z" fill="#FFD234"/>
<path d="M676.609 45.2597C676.809 43.6697 676.879 42.0497 677.219 40.4997C678.789 33.3797 682.329 27.1897 686.539 21.3497C691.789 14.0597 697.959 7.68972 705.579 2.81973C706.859 1.99973 708.249 1.35973 709.599 0.659725C709.839 0.539725 710.149 0.559727 710.689 0.469727C710.689 1.92973 710.869 3.30973 710.659 4.62973C709.729 10.5197 707.269 15.8297 704.209 20.8697C698.669 30.0097 691.839 37.9497 682.459 43.3897C680.829 44.3397 679.009 44.9697 677.279 45.7497C677.059 45.5897 676.829 45.4297 676.609 45.2597Z" fill="#FFD234"/>
<path d="M-24.6797 362.36C-11.2597 344.81 17.2103 334.6 37.2303 340.88C16.3903 348.29 -4.01969 355.54 -24.4397 362.8C-24.5197 362.65 -24.5997 362.5 -24.6797 362.35V362.36Z" fill="#FFD234"/>
<path d="M33.9602 268.979C33.0902 268.869 32.1302 268.959 31.3602 268.629C27.0302 266.719 22.6002 264.949 18.4602 262.669C7.90023 256.839 -2.51976 250.749 -12.9898 244.759C-13.2398 244.619 -13.4598 244.439 -14.0098 244.049C-13.2498 243.849 -12.7998 243.679 -12.3298 243.619C-5.12977 242.549 1.78024 243.839 8.53024 246.299C14.5102 248.479 19.8102 251.709 24.1902 256.379C27.1902 259.579 30.2302 262.749 33.1802 265.989C33.7502 266.619 34.0002 267.549 34.4002 268.339C34.2602 268.549 34.1102 268.769 33.9702 268.979H33.9602Z" fill="#FFD234"/>
<path d="M84.041 205.66C84.191 203.47 83.911 201.099 86.451 200.059C88.301 199.299 92.231 200.989 93.371 203.259C95.191 206.859 96.851 210.56 98.311 214.32C99.631 217.7 100.611 221.209 101.701 224.679C102.641 227.659 100.011 230.62 96.981 229.73C95.391 229.26 93.731 228.22 92.631 226.97C87.301 220.89 84.921 213.559 84.041 205.669V205.66Z" fill="#FFD234"/>
<path d="M792.9 179.29C786.61 180.47 780.38 181.74 774.11 182.78C771.65 183.19 769.09 183.34 766.6 183.2C765.11 183.12 763.46 182.53 762.23 181.68C759.78 179.98 759.88 177.78 762.23 175.99C766.96 172.39 772.42 171.64 778.09 172.32C783.38 172.95 788.1 175.13 792.22 178.54C792.51 178.78 792.74 179.1 792.92 179.29H792.9Z" fill="#FFD234"/>
<path d="M776.58 97.4797C775.7 98.0997 775.06 98.6797 774.32 99.0497C769.23 101.55 764.12 104.01 759.01 106.47C757.22 107.33 755.42 108.19 753.62 109.02C752.13 109.71 750.14 108.68 749.14 106.72C748.49 105.46 748.89 104.33 750.61 103.5C752.12 102.77 753.74 102.16 755.38 101.8C762.33 100.31 769.31 98.9397 776.59 97.4697L776.58 97.4797Z" fill="#FFD234"/>
<path d="M255.72 495.54C255.74 504.24 252.16 509.87 247.01 514.65C239.72 521.41 230.92 525.76 221.92 529.65C215.19 532.56 208.6 535.66 202.42 539.67C198.86 541.98 194.89 543.46 190.62 544C185.54 544.64 181.39 543 178.27 538.9C174.91 534.47 173.3 529.27 172.55 523.93C171.41 515.82 170.74 507.64 169.97 499.48C169.04 489.51 168.25 479.53 167.31 469.56C167.18 468.13 167.71 467.28 168.8 466.68C174.39 463.61 179.82 460.17 185.65 457.64C196.95 452.72 208.82 450.11 221.25 450.82C227.13 451.16 232.72 452.54 237.8 455.62C245.87 460.52 249.5 468.14 250.67 477.16C251.05 480.07 251.47 482.85 252.89 485.55C254.72 489.04 255.78 492.85 255.71 495.54H255.72ZM230.36 458.33C229.7 458.49 229.14 458.63 228.58 458.77C223.98 459.93 219.41 461.22 214.78 462.21C207.68 463.73 200.5 464.9 193.42 466.51C188.25 467.69 183.33 469.67 179.33 473.33C178.5 474.09 177.69 475.33 177.64 476.39C177.16 485.57 176.65 494.75 176.56 503.94C176.5 509.87 177.43 515.74 179.85 521.27C182.61 527.59 188.01 530.74 194.79 529.88C196.64 529.65 198.48 529.22 200.27 528.68C205.7 527.05 210.57 524.23 215.41 521.34C219.62 518.83 223.97 516.54 228.24 514.11C232.67 511.6 237.21 509.26 241.44 506.44C245.79 503.54 247.47 499.12 246.46 494C245.73 490.28 244.63 486.61 243.46 483C240.74 474.66 237.28 466.67 231.6 459.83C231.2 459.34 230.8 458.85 230.36 458.31V458.33Z" fill="#FFD234"/>
<path d="M144.199 340.309C145.199 339.419 145.879 338.469 146.809 338.049C152.069 335.619 157.239 332.919 162.699 331.029C189.149 321.889 216.279 315.519 244.049 311.989C253.249 310.819 262.499 310.179 271.749 311.219C274.519 311.529 277.229 312.379 279.939 313.099C280.799 313.329 281.569 313.909 282.739 314.519C281.809 315.489 281.239 316.439 280.399 316.919C276.789 318.949 273.249 321.259 269.399 322.709C256.409 327.599 242.979 330.449 228.999 330.039C227.709 329.999 226.419 329.949 225.149 329.769C221.519 329.279 218.119 328.309 215.839 324.829C215.039 325.089 214.249 325.269 213.529 325.589C206.339 328.889 199.189 332.289 191.959 335.499C183.629 339.199 174.939 341.429 165.769 341.639C160.389 341.759 155.009 342.129 149.619 342.249C147.849 342.289 145.999 342.129 144.189 340.299L144.199 340.309Z" fill="#FFD234"/>
<path d="M200.781 428.18C199.771 428.41 198.991 428.58 198.201 428.77C188.241 431.2 178.291 433.66 168.321 436.03C167.211 436.29 165.971 436.07 164.801 436.07C164.721 435.87 164.631 435.67 164.551 435.47C165.231 434.92 165.841 434.22 166.601 433.84C170.471 431.89 174.301 429.82 178.291 428.16C198.921 419.64 220.061 412.7 242.021 408.48C248.601 407.22 255.241 406.48 261.951 406.89C262.961 406.95 264.601 407.37 264.791 407.98C265.121 409.04 264.971 410.78 264.271 411.52C262.241 413.66 260.051 415.81 257.541 417.32C247.401 423.43 236.321 427.27 224.831 429.81C219.711 430.94 214.421 431.31 209.201 431.99C208.511 432.08 207.791 431.99 207.101 431.9C204.541 431.58 202.051 431.12 200.781 428.18Z" fill="#FFD234"/>
<path d="M148.701 393.02C149.481 391.65 149.971 389.96 151.091 388.97C153.531 386.82 156.091 384.65 158.951 383.17C172.011 376.42 185.991 372.7 200.621 371.43C202.461 371.27 204.371 371.5 206.201 371.84C208.631 372.3 209.141 374.09 207.471 375.94C206.971 376.49 206.361 377.03 205.691 377.34C193.361 383.21 181.051 389.11 167.871 392.88C163.171 394.22 158.401 395.13 153.481 394.72C152.021 394.6 150.581 394.13 149.141 393.82C148.991 393.55 148.851 393.28 148.701 393.01V393.02Z" fill="#FFD234"/>
<path d="M315.511 438.69C314.271 440.09 313.471 441.16 312.511 442.04C307.291 446.83 300.881 449.21 294.151 450.81C284.101 453.2 273.881 453.7 263.591 453.09C263.311 453.07 263.031 452.97 262.301 452.8C263.081 451.64 263.551 450.47 264.411 449.74C267.211 447.37 269.931 444.75 273.091 442.97C282.711 437.55 293.111 434.7 304.221 435.07C306.701 435.15 309.191 435.83 311.601 436.5C312.831 436.84 313.891 437.76 315.501 438.69H315.511Z" fill="#FFD234"/>
<path d="M284.861 492.37C283.481 492.11 281.121 491.93 278.931 491.21C275.961 490.22 275.571 488.42 277.491 485.99C279.801 483.08 282.791 481.07 286.191 479.63C292.361 477.02 298.921 476.16 305.461 475.11C309.961 474.39 314.441 473.48 318.911 472.58C320.891 472.18 323.191 473.07 324.161 474.87C325.121 476.66 324.291 478.24 322.971 479.22C320.221 481.26 317.401 483.33 314.341 484.83C305.361 489.23 295.841 491.76 284.851 492.36L284.861 492.37Z" fill="#FFD234"/>
<path d="M232.48 372.31C233.44 371.42 234.16 370.44 235.12 369.94C238.7 368.09 242.32 366.33 245.99 364.66C249.02 363.28 252.2 362.22 255.19 360.74C256.8 359.95 258.59 360.84 260.31 362.74C261.52 364.09 261.54 365.57 260.27 367.02C259.44 367.97 258.42 368.84 257.32 369.46C251.42 372.77 245.01 374.18 238.3 374.25C236.36 374.27 234.35 374.09 232.49 372.3L232.48 372.31Z" fill="#FFD234"/>
<path d="M289.26 409.1C290.43 408.21 291.38 407.26 292.52 406.65C296.69 404.39 300.92 402.24 305.13 400.06C306.95 399.12 308.81 398.25 310.61 397.28C311.69 396.7 312.47 396.94 313.22 397.82C314.94 399.83 315.24 402.2 313.52 404.23C312.22 405.76 310.61 407.15 308.87 408.15C304.37 410.75 299.47 412.02 294.21 411.61C292.42 411.47 290.76 411.02 289.24 409.1H289.26Z" fill="#FFD234"/>
<path d="M278.721 363.35C280.491 362.35 281.871 361.51 283.311 360.77C287.231 358.77 291.231 356.99 295.641 356.38C297.271 356.16 299.161 355.84 300.051 357.56C300.941 359.27 299.551 360.74 298.361 361.61C294.511 364.42 290.501 367.03 286.481 369.61C286.021 369.9 284.861 369.75 284.451 369.36C282.561 367.55 280.831 365.59 278.731 363.35H278.721Z" fill="#FFD234"/>
<path d="M471.641 379.26C471.641 381.73 471.481 383.71 471.671 385.66C472.231 391.5 475.231 395.32 480.971 397.13C486.551 398.89 491.661 401.65 495.881 405.81C502.631 412.48 504.121 421.36 499.431 429.65C493.121 440.81 483.341 446.65 470.491 446.71C462.681 446.75 456.241 443.23 451.081 437.47C449.981 436.24 449.531 434.46 448.601 433.05C442.781 424.19 437.131 415.21 431.021 406.55C419.441 390.12 407.451 373.98 395.911 357.53C390.121 349.28 385.011 340.56 381.491 331.03C380.161 327.43 379.161 323.74 379.671 319.86C379.841 318.56 380.261 317.21 380.881 316.05C382.421 313.16 384.061 312.65 387.071 313.83C396.091 317.36 403.931 322.73 411.121 329.12C422.781 339.48 431.871 352.01 441.141 364.4C445.551 370.31 449.791 376.39 455.471 381.22C456.231 381.86 457.031 382.46 457.871 382.99C462.041 385.63 465.811 385.21 469.301 381.71C469.961 381.05 470.591 380.36 471.651 379.25L471.641 379.26ZM423.121 357.41C417.011 357.37 414.881 359.52 415.011 365.2C415.111 369.64 416.791 373.67 418.621 377.6C423.181 387.38 429.131 396.29 436.161 404.44C439.281 408.06 442.811 411.34 446.331 414.58C447.431 415.59 449.101 416.54 450.511 416.54C454.331 416.54 458.011 415.46 460.621 412.46C461.571 411.36 462.111 409.66 462.271 408.17C462.611 405.03 461.311 402.2 459.791 399.53C454.781 390.76 447.681 383.62 441.231 375.98C436.861 370.8 432.681 365.44 428.641 359.99C427.551 358.52 426.521 357.61 424.751 357.52C424.051 357.48 423.351 357.44 423.121 357.43V357.41ZM471.581 408.52C473.241 412.66 474.791 416.43 476.251 420.24C478.101 425.1 479.821 430.02 481.711 434.87C482.231 436.22 483.031 437.49 483.891 438.66C485.371 440.66 487.041 440.6 488.331 438.46C489.071 437.22 489.461 435.78 490.051 434.44C490.711 432.96 491.301 431.44 492.141 430.06C493.491 427.84 493.961 425.53 493.441 423C492.691 419.38 490.751 416.39 488.301 413.75C485.121 410.31 481.511 407.45 476.741 406.53C474.281 406.05 472.481 406.88 471.581 408.53V408.52ZM475.891 427.29C470.141 426.5 464.881 425.69 459.611 425.13C458.231 424.98 456.691 425.42 455.351 425.92C453.421 426.65 452.531 428.86 452.741 431.19C452.931 433.29 454.521 433.36 455.991 433.69C461.181 434.86 466.371 436.05 471.571 437.21C472.281 437.37 473.021 437.37 474.011 437.48C474.651 434.04 475.241 430.81 475.891 427.29Z" fill="#FFD234"/>
<path d="M461.069 276.01C464.199 276.39 467.349 276.67 470.449 277.2C472.539 277.56 472.809 278.23 472.399 280.3C471.779 283.43 469.789 285.46 467.129 286.96C463.219 289.17 458.909 290.09 454.529 290.54C446.669 291.35 438.779 291.97 430.909 292.69C429.689 292.8 428.429 292.89 427.269 293.27C421.789 295.04 416.249 294.23 410.729 293.66C409.409 293.53 408.079 293.11 406.859 292.59C405.559 292.03 405.349 290.87 406.379 289.91C407.349 289.01 408.499 288.24 409.689 287.64C417.019 283.94 424.919 281.91 432.859 280.07C442.119 277.92 451.469 276.33 461.059 276L461.069 276.01Z" fill="#FFD234"/>
<path d="M441.689 330.759C440.259 330.529 438.379 330.379 436.589 329.889C435.269 329.519 433.949 328.869 432.859 328.029C430.679 326.349 430.629 324.849 432.839 323.209C434.699 321.829 436.759 320.619 438.909 319.749C447.759 316.149 456.979 313.949 466.549 313.639C469.899 313.529 473.299 313.929 476.619 314.469C478.779 314.819 479.899 316.289 479.659 317.949C479.519 318.909 478.889 320.229 478.109 320.589C467.969 325.269 457.499 328.969 446.339 330.339C444.949 330.509 443.54 330.599 441.7 330.759H441.689Z" fill="#FFD234"/>
<path d="M430.459 444.57C429.629 445.5 428.969 446.679 427.959 447.269C426.259 448.259 424.399 449.159 422.489 449.579C415.629 451.099 408.719 452.38 401.839 453.79C399.199 454.33 396.579 454.94 393.959 455.57C392.109 456.01 389.579 454.77 388.409 452.76C387.499 451.2 387.659 449.78 389.399 448.23C390.909 446.88 392.579 445.579 394.409 444.739C403.319 440.639 412.679 438.509 422.529 438.859C425.219 438.959 427.639 439.67 429.249 442.03C429.699 442.68 429.949 443.47 430.469 444.57H430.459Z" fill="#FFD234"/>
<path d="M457.801 358.91C459.991 357.71 461.621 356.71 463.341 355.89C469.561 352.9 476.241 351.68 483.031 350.97C486.581 350.6 490.151 350.4 493.721 350.13C496.431 349.92 498.441 351.29 500.121 353.17C501.171 354.35 501.081 355.81 499.941 356.81C498.461 358.11 496.891 359.44 495.111 360.22C486.211 364.11 476.871 365.38 467.261 363.98C464.951 363.64 462.721 362.53 460.561 361.53C459.641 361.11 458.991 360.07 457.801 358.91Z" fill="#FFD234"/>
<path d="M358.641 393.829C359.841 392.879 360.661 392.149 361.571 391.519C368.211 386.959 375.441 383.679 383.321 382.039C385.911 381.499 388.651 381.619 391.331 381.579C392.171 381.569 393.061 381.909 393.851 382.259C397.251 383.739 397.771 386.129 395.181 388.769C390.741 393.309 385.091 395.539 379.011 396.629C372.831 397.739 366.651 397.859 360.771 395.049C360.161 394.759 359.581 394.369 358.641 393.829Z" fill="#FFD234"/>
<path d="M339.281 301.62C339.691 301.16 340.041 300.61 340.531 300.25C345.891 296.34 351.701 293.36 358.261 292.1C359.901 291.78 361.651 291.75 363.321 291.89C366.461 292.15 368.621 294.35 369.041 297.66C368.501 298.03 367.901 298.58 367.191 298.91C359.491 302.45 351.361 303.87 342.931 303.49C341.711 303.43 340.511 302.77 339.301 302.39C339.301 302.13 339.301 301.87 339.291 301.62H339.281Z" fill="#FFD234"/>
</g>
</svg>
