<svg width="487" height="601" viewBox="0 0 487 601" fill="none" xmlns="http://www.w3.org/2000/svg">
<path opacity="0.15" d="M236.01 333.78C237.25 330.43 238.57 327.11 239.71 323.72C251.37 288.84 263.63 254.16 269.44 217.59C271.15 206.8 267.7 199.03 259.97 192.5C241.14 176.6 228.12 156.33 217.44 134.61C205.46 110.26 199.86 84.39 206.96 57.54C211.89 38.89 221.26 22.02 233.44 6.96997C240.57 -1.84003 242.76 -1.34003 252.19 4.61997C267.56 14.33 276.62 27.89 282.1 45.15C289.49 68.42 297.39 91.35 296 116.3C292.92 171.69 287 226.67 269.87 279.73C263.47 299.55 255.01 318.7 247.73 338.25C244.36 347.31 241.48 356.56 238.55 365.77C237.9 367.81 237.95 370.07 237.68 372.23L239.44 372.92C240.67 370.86 241.92 368.82 243.12 366.75C261.41 335.06 278.87 302.85 298.2 271.81C319.56 237.52 347.17 209.05 383.4 189.88C407.15 177.31 430.81 164.59 454.53 151.97C472.85 142.23 480.52 145.54 482.88 165.83C485.06 184.58 487.85 203.74 486.21 222.36C482.57 263.78 458.37 291.98 421.85 309.57C387.49 326.13 351.76 327.33 315.65 315.22C311.2 313.73 307.14 311.12 302.83 309.16C297.53 306.75 293.36 307.63 290.41 313.17C275.07 342.07 259.59 370.88 244.25 399.78C240.47 406.9 238.12 414.27 239.41 422.72C239.96 426.28 238.27 430.3 237.18 433.98C231.03 454.83 224.73 475.63 218.56 496.47C217.71 499.34 217.05 502.32 216.77 505.3C216.13 512.15 218.29 514.47 225.15 514.19C249.46 513.2 273.78 512.35 298.06 510.91C309.64 510.22 321.12 507.96 332.7 507.05C343.04 506.24 347.11 509.34 348.69 519.6C352.41 543.74 350.51 567.71 345.17 591.44C344.62 593.88 343.26 596.25 341.82 598.34C341.12 599.36 338.74 600.53 338.19 600.14C334.17 597.27 328.38 594.71 327.04 590.74C324.92 584.47 321.42 584.02 316.41 584.31C298.78 585.3 281.16 586.71 263.52 587.17C219.82 588.32 176.12 589.01 132.42 589.96C119.56 590.24 106.7 590.63 93.8497 591.21C85.2797 591.6 82.0997 590.1 80.3897 581.85C77.5997 568.41 74.5997 554.89 73.5597 541.25C72.4497 526.83 75.9997 522.86 90.1697 521.44C113.27 519.13 136.47 517.69 159.65 516.28C169.1 515.71 178.61 516.26 188.1 516.17C199.67 516.06 201.83 513.83 200.34 502.26C198.31 486.49 204.06 472.04 207.51 457.25C214.84 425.87 220.64 394.27 218.16 361.94C216.7 342.9 213.93 323.88 210.41 305.1C208.35 294.13 205.36 293.25 194.45 294C152.61 296.88 115.09 284.22 80.2397 262.04C59.2297 248.66 40.1397 232.92 23.2497 214.63C9.53966 199.79 0.579663 182.7 0.979663 161.81C1.32966 143.34 1.53966 124.85 2.41966 106.4C2.60966 102.38 4.79966 98.09 7.12966 94.63C10.0197 90.34 12.4697 91.49 15.5797 95.66C18.2397 99.24 22.1297 102.29 26.0997 104.39C29.7997 106.34 34.2797 107.04 38.5097 107.74C71.1497 113.12 97.2897 131.69 123 150.42C141.06 163.58 158.19 178.22 174.55 193.46C198.3 215.57 210.63 244.6 219.44 275.11C224.45 292.46 228.09 310.2 232.37 327.76C232.86 329.77 233.48 331.74 234.04 333.73C234.7 333.75 235.35 333.77 236.01 333.79V333.78ZM183.7 285.2C186.97 284.72 192.15 284.42 197.08 283.11C201.61 281.91 203.72 278.78 201.8 273.7C198.06 263.86 195.3 253.59 190.82 244.12C181.49 224.35 169.96 205.89 153.3 191.32C143.74 182.96 133.86 174.88 123.52 167.53C104.43 153.97 85.2797 140.42 65.4097 128.07C53.8697 120.9 40.5697 117.43 26.5697 117.84C21.5097 117.99 19.2697 119.67 19.1097 125.01C18.7397 137.27 18.0697 149.54 17.1097 161.77C15.9697 176.44 19.8997 189.23 29.1097 200.8C50.1197 227.18 75.9697 247.38 105.5 263.41C129.4 276.39 154.81 283.24 183.7 285.19V285.2ZM355.88 306.79C376.86 306.98 395.32 303.25 413.1 296.16C431.36 288.88 448.64 280.1 457.76 261.25C462.34 251.79 466.77 242.18 470.22 232.27C478.06 209.78 470.41 187.52 468.19 165.2C467.81 161.36 464.59 160.9 461.8 162.36C454.98 165.93 448.18 169.61 441.73 173.79C425.49 184.3 409.52 195.22 393.27 205.71C389.9 207.88 385.72 208.76 382.03 210.47C376.6 212.98 370.63 214.88 366.01 218.47C341.22 237.73 321.91 261.9 305.39 288.38C302.1 293.65 303.09 296.08 309.01 298.02C324.81 303.17 340.8 307.49 355.88 306.79ZM83.9097 529.13C86.1897 542.91 88.1897 554.52 89.9897 566.16C91.0497 573.01 94.8897 575.32 101.65 575.15C127.04 574.49 152.45 574.3 177.85 573.75C224.76 572.74 271.67 571.62 318.58 570.53C327.49 570.32 330.05 568.21 330.87 559.16C331.81 548.67 332.2 538.13 332.73 527.6C332.95 523.23 330.16 522.01 326.44 522.27C320 522.73 313.58 523.62 307.13 523.83C252.29 525.66 197.44 527.53 142.59 529.05C123.7 529.57 104.78 529.13 83.9197 529.13H83.9097ZM221.05 79.28C222.61 88.58 223.5 98.05 225.86 107.15C232.53 132.97 248.12 153.96 263.76 174.84C264.64 176.01 265.91 176.97 267.16 177.77C271.98 180.84 274.74 179.76 276.08 174.31C276.44 172.86 276.55 171.33 276.68 169.83C278.39 150.32 280.33 130.83 281.63 111.29C282.05 104.94 281.72 98.22 280.06 92.13C275.88 76.79 271.51 61.41 265.68 46.65C262.55 38.73 256.93 31.45 251.18 25C245.96 19.14 242.91 20.03 238.25 26.38C226.75 42.07 221.7 59.76 221.05 79.27V79.28Z" fill="#FF978C"/>
<path opacity="0.15" d="M163.1 440.349C160.04 437.069 157.04 433.729 153.9 430.519C147.17 423.629 139.14 421.599 129.69 423.519C111.36 427.239 93.0201 430.979 74.5601 433.939C63.1701 435.759 51.7401 434.359 41.0401 429.659C24.5901 422.419 21.2801 409.089 32.9901 395.659C51.0101 374.989 74.0601 373.569 98.6501 379.849C111.65 383.169 122.41 390.779 132.61 399.169C138.6 404.089 144.36 409.269 150.3 414.249C158.33 420.979 160.59 430.669 163.1 440.349ZM129.42 413.859C128.97 412.459 128.96 411.639 128.56 411.309C111.4 397.029 92.5901 386.689 69.3501 388.359C56.3201 389.299 45.0401 394.289 37.8601 405.879C33.2701 413.299 35.0201 419.859 43.0001 422.619C50.2101 425.119 57.9201 426.779 65.5301 427.399C82.2001 428.779 97.7701 422.989 113.5 418.579C118.79 417.099 124.03 415.449 129.42 413.849V413.859Z" fill="#FF978C"/>
<path opacity="0.15" d="M337.32 420.11C341.63 410.17 348.77 403.16 357.57 398.09C383.33 383.25 410.6 378.54 439.53 387.23C451.92 390.95 458.39 409.79 451 420.47C447.62 425.35 442.69 426.08 437.24 425.43C414.38 422.73 391.48 420.31 368.66 417.29C357.98 415.88 347.5 414.03 337.33 420.11H337.32ZM411.58 392.16C400.91 394.26 389.46 396.2 378.21 398.92C374.9 399.72 372.13 402.76 369.11 404.78C372.49 406.06 375.79 408.09 379.27 408.48C397.43 410.55 415.64 412.32 433.85 413.89C436.54 414.12 440.54 413.62 441.81 411.89C443.17 410.05 443.08 405.64 441.73 403.63C439.62 400.5 436.28 397.28 432.8 396.17C426.32 394.11 419.37 393.54 411.57 392.16H411.58Z" fill="#FF978C"/>
</svg>
