<svg width="542" height="601" viewBox="0 0 542 601" fill="none" xmlns="http://www.w3.org/2000/svg">
<g opacity="0.2">
<path d="M0.489689 339.2C1.47969 337.11 2.46969 335.01 3.23969 333.38C2.50969 330.92 1.01969 328.54 1.28969 326.35C2.43969 317.05 7.55969 310.88 18.4297 310.13C13.6097 300.17 17.5597 295.21 29.2097 295.78C30.3097 295.83 31.5597 292.48 32.8297 290.76C36.3597 285.98 39.5097 280.88 43.6197 276.58C47.7497 272.26 52.6097 268.43 57.6397 264.99C60.7697 262.84 64.9397 262.02 68.3697 260.18C70.2097 259.19 72.1497 257.55 72.8997 255.79C86.7697 223.31 87.5497 189.68 83.1797 155.55C81.3097 140.94 82.6797 126.67 97.4097 117.73C102.73 114.5 110.22 114.36 116.7 112.72C117.75 112.45 118.84 111.85 119.58 111.11C138.07 92.85 160.62 86.63 179.81 94.98C198.2 102.98 206.26 118.39 210.87 135.25C214.8 149.6 218.96 164.37 219.06 178.98C219.15 192.74 228.76 201.5 233.33 212.76C235.83 218.93 238.96 224.87 241.02 229.24C250.38 218.49 259.69 205.48 271.52 194.85C283.55 184.05 298.47 176.34 315.24 173.84C315.59 171.64 315.92 169.53 316.26 167.42C317.05 162.55 316.98 157.35 318.99 152.96C319.97 150.83 324.99 148.91 327.95 149.16C343.95 150.5 359.84 153.61 375.84 154.06C393.47 154.55 409.38 149.15 420.8 135.61C421.28 135.05 421.66 134.42 422.22 133.63C414.03 132.89 407.25 129.84 407.54 121.74C407.66 118.34 411.72 113.54 415.29 112.08C422.3 109.21 428.56 112.05 432.61 118.27C441.16 111.33 443.45 93.13 436.95 83.9C429.93 87.76 422.08 91.37 416.09 83.95C413.81 81.13 414.47 74.03 416.82 70.73C421.76 63.81 429.42 65.08 438.73 69.88C439.79 59.97 440.76 50.94 441.73 41.92C434.33 46.42 428.15 48.46 422.36 44.37C418.96 41.97 415.08 36.41 415.97 33.44C417.28 29.06 422.66 25.72 427.02 21.19C423.32 14.64 395.51 9.16001 382.17 14.58C384.72 21.06 384.25 27.47 376.97 30.35C373.5 31.72 367.04 30.75 364.18 28.45C358.67 24.02 360.04 17.96 364.15 12.65C346.4 2.27001 310.16 15.44 303 32.54C306.68 38.3 310.37 42.23 311.55 46.73C312.1 48.81 308.01 54 305.61 54.24C300.66 54.74 295.42 52.86 288.59 51.67C284.61 55.36 281.26 75.16 285.35 82.17C285.56 82.53 286.72 82.69 287.32 82.55C293.53 81.03 298.94 81.95 300.67 88.22C301.18 90.06 298.64 93.39 296.54 94.92C289.38 100.14 289.23 106.24 293.95 112.37C302.26 123.16 311.22 133.52 319.83 144.1C320.93 145.46 321.64 147.09 322.53 148.59C320.65 148.28 318.48 148.43 316.93 147.59C294.7 135.59 281.04 118.64 279.37 94.05C278.92 87.37 274.04 80.97 273.39 74.26C272.02 60.23 275.49 47.44 288.75 38.29C290.71 36.94 291.04 33.61 292.2 31.22C305.35 4.15001 344.32 -7.77999 373.03 5.58001C377.18 7.51001 384.09 4.00001 389.77 3.59001C407.4 2.34001 425.49 4.13001 436.4 17.6C446.23 29.73 454.74 44.11 451.06 60.97C450.62 63 449.38 64.89 448.57 66.86C446.32 72.32 444.77 76.95 448.25 83.4C456.85 99.34 450.36 118.58 434.8 129.07C433.77 129.76 433.12 131.1 432.61 132.26C426.79 145.35 415.52 152.84 404.1 157.14C405.25 160.46 406.01 163.58 407.49 166.36C407.96 167.25 410.4 167.65 411.91 167.6C433.23 166.98 453.3 171.48 471.83 180.98C490.15 190.38 499.41 207.03 508.95 223.17C523.38 247.6 533.36 273.64 541 300.49C541.27 301.42 541.46 302.38 541.68 303.32V311.29C540.23 317.83 538.89 324.4 537.29 330.92C534.42 342.66 533.01 354.98 528.1 365.96C518.09 388.37 506.38 410.15 494.91 431.99C490.57 440.26 483.76 446.89 485.34 457.75C488.79 481.51 490.43 505.5 492.69 529.41C492.76 530.11 491.48 531.5 490.69 531.6C485.06 532.3 479.39 532.74 473.63 533.28C475.62 537.05 478.23 540.31 479.04 543.92C480.28 549.44 479.89 555.25 480.9 560.83C482.66 570.5 485.06 580.07 486.89 589.74C487.1 590.84 485.57 593.11 484.49 593.33C482.73 593.69 479.33 593.24 478.98 592.36C477.15 587.66 475.83 582.76 474.76 577.85C473.3 571.14 472.42 564.33 470.93 557.63C469.22 549.92 467.13 542.28 465.51 535.79H274.32C274.44 537.13 274.68 540.8 275.09 544.45C276.46 556.82 277.93 569.18 279.22 581.56C279.32 582.53 278.5 584.23 277.68 584.5C276.21 584.99 273.11 585.03 272.96 584.61C271.59 580.54 270.4 576.37 269.73 572.16C268.76 566.07 268.69 559.84 267.48 553.79C265.87 545.73 263.47 537.8 261.55 529.79C260 523.37 258.65 516.91 257.2 510.4C195.27 535.01 131.64 541.58 66.1697 530.83C65.3797 536.03 65.3497 540.97 63.7797 545.43C61.5697 551.69 57.4997 557.41 55.4897 563.71C51.9197 574.87 49.4197 586.31 46.0897 597.54C45.7197 598.78 42.6997 600.3 41.2297 600.05C39.8597 599.82 37.7397 597.2 37.9897 595.99C39.7397 587.47 41.9697 579.03 44.1297 570.58C46.1097 562.83 47.7897 554.98 50.3597 547.39C52.3897 541.4 55.5697 535.75 58.2397 529.94C57.1897 529.91 56.1397 529.88 55.0997 529.85C54.8597 527.81 54.4997 525.78 54.4397 523.74C54.4097 522.79 55.4197 521.74 55.1997 520.89C53.1397 512.78 51.3197 504.59 48.6597 496.65C44.0697 482.96 38.7697 469.48 34.0997 455.82C31.9297 449.46 30.5797 442.87 28.8497 436.39C26.1497 426.27 22.6097 416.26 20.9797 405.99C19.6897 397.84 20.7197 389.38 20.7197 380.83C9.28969 377.9 5.99969 373.79 4.68969 362.22C3.92969 355.54 1.88969 348.99 0.429688 342.39C0.429688 341.33 0.429688 340.27 0.429688 339.2H0.489689ZM483.83 435.91C492.56 419.27 501.16 405.3 507.35 390.48C514.66 372.98 520.7 354.93 525.76 336.75C529.77 322.35 535.98 307.97 528.45 292.37C519.15 273.11 511.68 253.11 502.77 233.68C499.55 226.67 494.02 220.6 490.32 213.74C482.75 199.73 471.46 189.12 455.6 184.14C442.61 180.06 428.76 178.28 415.27 175.57C413.48 175.21 410.75 174.69 409.83 175.53C404.5 180.42 400.54 187.26 394.32 190.46C385.03 195.24 374.31 197.73 364.04 200.74C361.76 201.41 358.84 200.21 356.22 199.9C352.04 199.4 347.61 199.56 343.73 198.28C338.93 196.69 334.19 194.38 330.17 191.49C326.09 188.57 322.91 184.58 318.49 180.22C311.91 182.85 302.17 185.65 293.67 190.35C274.86 200.75 262.44 217.01 251.83 234.09C238.14 256.14 234.37 281.16 229.77 305.76C228.46 312.77 227.62 319.86 226.74 327.34C226.32 330.88 221.72 331.97 219.76 328.99C219.43 328.48 219.09 327.99 218.75 327.5C217.96 326.37 216.43 325.69 215.24 324.8C214.23 326.02 213.33 327.33 212.18 328.42C211.1 329.45 209.79 331 208.53 331.05C195.39 331.57 182.23 331.56 169.1 332.24C142.58 333.61 116.07 335.27 89.5697 337C88.1297 337.09 86.0497 338.66 85.5697 339.96C80.8897 352.55 76.4697 365.22 72.0297 377.88C71.8397 378.42 71.9297 379.57 72.1597 379.64C76.2797 380.85 80.3797 382.41 84.6097 382.91C90.0997 383.56 95.7197 383.28 101.27 383.5C117.66 384.15 134.04 385.29 150.43 385.37C160.31 385.42 170.2 383.86 180.09 382.98C191.9 381.94 203.7 380.89 215.5 379.79C225.13 378.89 234.74 377.8 244.37 377.02C250.56 376.51 263.96 367.56 266.22 362.42C269.64 354.66 273.26 346.97 276.93 339.31C278.87 335.27 281.32 331.43 283.15 327.36C285.38 322.4 287.02 317.21 289.35 312.29C289.76 311.42 292.37 310.95 293.82 311.16C294.96 311.32 296.87 312.98 296.74 313.69C295.58 319.76 295.79 326.97 292.16 331.48C287.75 336.94 289.79 341.23 292.63 344.33C300.49 352.91 308.64 361.65 318.29 368.33C328.47 375.37 339.97 381.56 351.91 385.42C364.08 389.36 377.46 390.2 390.37 392.07C400.69 393.56 412.08 392.44 417.63 402.42C422.46 399.56 427.43 396.66 432.35 393.7C439.93 389.14 447.19 392.64 448.73 401.26C448.95 402.5 451.81 404.3 453.32 404.21C458.73 403.86 464.09 402.81 469.76 401.98C469.79 401.69 470.14 400.24 470.06 398.81C469.19 382.45 468.21 366.09 467.37 349.73C466.62 335.14 465.78 320.55 465.41 305.95C465.15 295.7 465.45 285.42 465.92 275.17C466 273.35 468.15 271.62 469.35 269.84C470.31 271.7 471.97 273.51 472.13 275.43C473.07 286.74 473.57 298.08 474.38 309.41C476.2 335.04 478.09 360.66 480 386.28C481.16 401.94 482.41 417.6 483.82 435.92L483.83 435.91ZM66.2197 521.23C66.5697 521.36 66.8297 521.52 67.0997 521.54C87.0997 523.19 107.07 525.53 127.11 526.32C170.49 528.02 211.26 517.33 250.99 502.43C251.37 502.29 251.8 501.59 251.74 501.21C248.01 477.41 244.27 453.61 240.46 429.82C238.06 414.85 235.57 399.89 233.19 385.36C224.38 386.6 215.4 388.31 206.32 389.06C183.3 390.97 160.23 392.47 137.18 394.09C129.64 394.62 122.08 395.48 114.54 395.35C106.16 395.2 97.8197 393.79 89.4397 393.49C78.6097 393.1 66.8897 386.1 65.4497 380.12C53.7797 380.54 42.4697 380.93 31.1597 381.38C30.5497 381.4 29.4597 381.94 29.4297 382.28C29.1997 385.55 28.6297 388.91 29.1697 392.1C30.6797 401.1 32.3997 410.1 34.5497 418.99C36.3097 426.31 38.7897 433.48 40.9797 440.7C43.8997 450.33 46.6897 460 49.8297 469.57C51.8297 475.67 54.6897 481.54 56.5797 487.66C58.0897 492.55 58.7197 497.67 59.7397 502.69C62.9497 492.12 65.0497 481.56 66.5297 470.94C68.1397 459.28 69.6297 447.58 70.3397 435.86C71.1397 422.63 70.8597 409.34 71.4097 396.09C71.4897 394.16 73.5297 392.31 74.6597 390.42C75.7197 392.23 77.5697 393.98 77.6997 395.85C78.5197 406.93 79.5497 418.05 79.3697 429.13C79.0997 445.86 79.0197 462.71 76.7497 479.25C74.8097 493.37 69.8797 507.13 66.2397 521.2L66.2197 521.23ZM475.39 451.15C452.2 463.27 430.3 462.02 408.72 449.39C408.43 449.22 407.97 449.19 407.62 449.24C402.5 450.02 397.29 451.82 392.28 451.43C381.28 450.59 369.97 449.87 359.52 446.91C335.9 440.21 312.52 432.68 289.46 424.48C278.95 420.75 269.14 415.06 259.57 409.45C253.8 406.07 249.11 401.12 243.56 396.57C247.12 417.06 250.08 437.19 254.24 457.1C258.38 476.95 263.39 496.67 268.77 516.27C270.27 521.72 271.99 526.88 282.1 526.6C306.11 525.92 330.21 528.59 354.26 528.44C385.85 528.24 417.43 526.65 449.01 525.59C460.2 525.21 471.39 524.61 481.28 524.16C479.26 499.08 477.32 474.97 475.4 451.14L475.39 451.15ZM242.01 384.8C250.31 391.14 256.54 397.53 264.24 401.43C280.05 409.43 296.55 416.31 312.98 423.22C321.03 426.61 329.48 429.28 337.91 431.81C345.52 434.1 353.32 435.92 361.12 437.63C370.79 439.74 380.48 441.93 390.29 443.23C393.81 443.7 400.2 442.57 401 440.65C404.16 433.07 404.83 424.61 407.95 417C410.67 410.36 406.92 403.22 399.24 402.53C386.87 401.42 374.36 400.61 362.26 398.19C352.67 396.27 343.28 392.76 334.41 388.8C325.88 384.99 317.7 380.2 310.16 374.87C303.84 370.41 298.51 364.7 293.07 359.26C289.79 355.98 287.14 352.17 284.12 348.48C279.44 356.63 275.14 364.94 270.04 372.81C264.27 381.7 254.99 385.1 242.01 384.78V384.8ZM65.3497 373.27C68.4297 363.89 72.0397 352.88 75.6097 341.87C75.7497 341.45 75.6897 340.78 75.3997 340.47C71.6797 336.3 68.3797 331.67 64.0397 328.13C56.1397 321.68 47.6897 315.79 39.3097 309.86C37.2997 308.44 34.6597 307.76 32.3197 306.74C32.0597 307.14 31.8097 307.54 31.5497 307.94L42.3697 316.09C45.6997 318.6 43.1797 323.84 39.1397 322.84C34.9997 321.82 30.9097 320.94 26.7597 320.35C22.0797 319.68 16.8297 322.47 11.8397 323.7C13.7197 326.85 15.5997 330.01 17.4897 333.15C17.6397 333.4 17.8997 333.59 18.0297 333.72C15.2797 336.79 8.25969 337.07 13.0597 344.17C15.7497 348.16 14.0597 354.49 15.3197 359.55C16.3797 363.79 18.0997 370.67 20.8397 371.27C29.6897 373.21 39.1497 372.89 48.3797 373.24C53.9097 373.45 59.4597 373.28 65.3497 373.28V373.27ZM78.5097 331.03C79.8397 330.45 81.1097 329.54 82.4797 329.36C87.4497 328.71 92.4497 328.1 97.4597 327.83C127.59 326.19 157.75 324.85 187.86 322.91C195.17 322.44 203.82 325.09 209.27 317.18C210.28 315.72 213.97 315.84 216.41 315.22C217.03 315.06 218.1 314.92 218.16 314.63C220.12 304.75 221.98 294.86 223.69 285.81C218.61 292.36 213.61 299.95 207.4 306.57C192.76 322.2 173.44 322.53 161.29 307.91C153.6 317.04 144.01 323.03 131.06 320.17C117.43 317.16 113.99 306.82 113.19 295.53C109.03 299.94 105.25 304.48 100.88 308.47C94.6097 314.2 87.1897 317.83 78.0997 314.89C69.1297 311.99 63.7697 305.39 63.4397 297.09C63.0797 288.12 65.0797 279.06 65.9697 270.84C65.8297 270.96 64.6497 272.02 63.4097 273.02C58.4497 277 53.0097 280.58 48.6497 285.06C44.9997 288.81 42.5997 293.6 39.7597 298C39.5997 298.25 40.4197 299.33 41.0197 299.68C47.0297 303.2 53.8897 305.88 58.9497 310.31C66.3097 316.74 72.3797 324.43 78.4897 331.03H78.5097ZM326.24 173.24C325.68 174 325.11 174.76 324.55 175.53C340.11 187.58 357.11 196.67 378.89 188.28C387.45 184.98 394.6 178.55 400.92 174.49C398.88 170.92 397.12 169.23 397.06 167.5C396.89 162 396.18 159.4 388.46 160.9C367.43 164.98 347.18 160.44 327.74 153.77C327.23 160.31 326.73 166.77 326.23 173.24H326.24ZM461.36 412.73C457.88 413.36 454.1 414.1 450.29 414.72C439.94 416.41 435.23 411.48 438.51 402.54C438.69 402.05 438.41 400.99 438.06 400.86C437.52 400.66 436.64 400.9 436.06 401.2C430.51 404.07 424.98 406.99 419.5 409.87C416.62 419.87 413.47 430.82 410.37 441.78C410.23 442.26 410.61 443.31 410.93 443.38C421.51 445.67 432.04 449.06 442.75 449.71C450.83 450.19 459.17 447.15 467.39 445.67C467.25 444.66 467.1 443.64 466.96 442.63H452.02C448.69 442.63 446.96 438.67 449.21 436.22L449.26 436.16C448.82 436.14 451.53 431.27 453.39 429.13C449.46 428.64 448.03 423.68 451.09 421.16L461.36 412.73ZM433.38 33.84C430.73 33.36 429.23 32.87 427.75 32.91C426.89 32.94 426.06 33.83 425.22 34.33C426.39 35.47 427.5 37.42 428.76 37.51C429.91 37.59 431.23 35.65 433.38 33.84ZM424.11 124.95C424.43 124.2 424.76 123.45 425.08 122.7C422.8 121.89 420.52 121.06 418.2 120.38C418.13 120.36 417.55 121.77 417.21 122.51C419.51 123.33 421.81 124.14 424.11 124.96V124.95ZM472.1 418.26C469.96 419.97 468.01 421.52 466 423.12C468.23 423.86 470.36 424.56 472.74 425.35C472.51 422.88 472.31 420.62 472.09 418.26H472.1ZM373.51 18.43C372.95 18.27 372.39 18.11 371.83 17.94C371.41 19.34 370.94 20.74 370.65 22.16C370.61 22.37 371.5 22.74 371.95 23.03L373.5 18.42L373.51 18.43ZM429.88 77.08L429.62 75.51C428.09 75.83 426.54 76.08 425.06 76.53C424.8 76.61 424.82 77.5 424.72 78.02C426.44 77.71 428.17 77.39 429.89 77.08H429.88Z" fill="#A4EDC6"/>
</g>
</svg>
